<svg version="1.1" xmlns="http://www.w3.org/2000/svg" viewBox="0 0 628.6666564941406 410.00001525878906" width="628.6666564941406" height="410.00001525878906" class="excalidraw-svg"><!-- svg-source:excalidraw --><metadata></metadata><defs><style class="style-fonts">
      </style></defs><rect x="0" y="0" width="628.6666564941406" height="410.00001525878906" fill="#ffffff"></rect><g transform="translate(190.00003051757812 162.6666717529297) rotate(0 -18.66668701171875 30)" stroke="none"><path fill="#1e1e1e" d="M 1.48,4.68 Q 1.48,4.68 -2.05,6.07 -5.59,7.46 -8.95,9.85 -12.30,12.25 -14.42,13.84 -16.54,15.44 -20.48,20.03 -24.41,24.61 -27.24,29.50 -30.08,34.39 -30.86,38.95 -31.64,43.50 -30.64,46.64 -29.64,49.77 -26.16,51.12 -22.67,52.46 -18.61,51.65 -14.55,50.84 -10.56,49.82 -6.57,48.80 -3.11,49.43 0.34,50.06 0.76,49.98 1.17,49.90 1.60,49.95 2.02,50.00 2.40,50.19 2.78,50.38 3.08,50.67 3.39,50.97 3.58,51.35 3.77,51.73 3.83,52.15 3.89,52.57 3.81,52.99 3.74,53.41 3.53,53.78 3.33,54.15 3.01,54.44 2.70,54.72 2.31,54.89 1.92,55.06 1.50,55.10 1.07,55.14 0.66,55.04 0.25,54.94 -0.10,54.72 -0.46,54.49 -0.73,54.16 -1.00,53.83 -1.15,53.43 -1.30,53.04 -1.31,52.61 -1.33,52.19 -1.21,51.78 -1.09,51.37 -0.84,51.02 -0.60,50.68 -0.25,50.43 0.08,50.18 0.49,50.05 0.89,49.92 1.32,49.93 1.74,49.94 2.14,50.08 2.54,50.22 2.87,50.49 3.21,50.75 3.44,51.11 3.67,51.46 3.78,51.88 3.88,52.29 3.85,52.71 3.82,53.13 3.65,53.53 3.49,53.92 3.21,54.24 2.93,54.56 2.56,54.77 2.19,54.98 2.19,54.98 2.19,54.98 -0.67,57.99 -3.55,61.01 -8.21,62.12 -12.87,63.23 -19.25,63.83 -25.63,64.42 -30.72,62.51 -35.82,60.59 -38.61,56.81 -41.40,53.03 -42.47,47.25 -43.53,41.46 -41.96,34.95 -40.39,28.44 -36.78,22.62 -33.17,16.80 -28.25,11.53 -23.34,6.25 -20.88,4.49 -18.42,2.73 -13.69,-0.06 -8.96,-2.86 -5.22,-3.77 -1.48,-4.68 -0.89,-4.79 -0.31,-4.90 0.27,-4.87 0.86,-4.84 1.43,-4.66 2.00,-4.49 2.50,-4.18 3.01,-3.88 3.43,-3.46 3.85,-3.04 4.16,-2.54 4.47,-2.03 4.65,-1.46 4.83,-0.90 4.87,-0.31 4.90,0.27 4.80,0.86 4.70,1.44 4.45,1.98 4.21,2.52 3.85,2.99 3.49,3.46 3.02,3.83 2.55,4.19 2.02,4.44 1.48,4.68 1.48,4.68 L 1.48,4.68 Z"></path></g><g transform="translate(183.33334350585938 87.33332824707031) rotate(0 -1.333343505859375 24)" stroke="none"><path fill="#1e1e1e" d="M 5.05,0.59 Q 5.05,0.59 4.90,3.88 4.74,7.16 4.45,10.79 4.16,14.42 3.89,19.18 3.62,23.94 3.55,28.56 3.48,33.18 3.64,37.31 3.80,41.44 2.17,43.32 0.54,45.21 0.48,45.63 0.43,46.05 0.24,46.43 0.05,46.81 -0.24,47.11 -0.54,47.41 -0.92,47.60 -1.30,47.79 -1.72,47.85 -2.14,47.91 -2.56,47.83 -2.98,47.75 -3.35,47.55 -3.72,47.34 -4.00,47.02 -4.29,46.71 -4.45,46.32 -4.62,45.93 -4.66,45.50 -4.70,45.08 -4.59,44.67 -4.49,44.26 -4.26,43.90 -4.04,43.54 -3.71,43.27 -3.38,43.00 -2.98,42.86 -2.58,42.71 -2.15,42.70 -1.73,42.68 -1.32,42.81 -0.92,42.93 -0.57,43.18 -0.22,43.42 0.01,43.77 0.26,44.11 0.39,44.52 0.52,44.92 0.50,45.35 0.49,45.77 0.35,46.17 0.20,46.57 -0.05,46.90 -0.32,47.24 -0.67,47.47 -1.03,47.70 -1.44,47.80 -1.86,47.90 -2.28,47.87 -2.70,47.84 -3.09,47.67 -3.49,47.50 -3.80,47.22 -4.12,46.94 -4.33,46.57 -4.54,46.20 -4.62,45.78 -4.70,45.36 -4.70,45.36 -4.70,45.37 -6.44,43.58 -8.18,41.80 -8.28,37.31 -8.38,32.82 -8.16,27.97 -7.94,23.12 -7.53,18.23 -7.11,13.34 -6.69,9.60 -6.28,5.86 -5.67,2.63 -5.05,-0.59 -4.91,-1.19 -4.77,-1.78 -4.48,-2.33 -4.20,-2.87 -3.79,-3.33 -3.39,-3.80 -2.88,-4.15 -2.38,-4.50 -1.81,-4.72 -1.23,-4.94 -0.62,-5.01 -0.01,-5.09 0.59,-5.02 1.20,-4.95 1.77,-4.73 2.35,-4.51 2.85,-4.17 3.36,-3.82 3.77,-3.36 4.18,-2.90 4.46,-2.36 4.75,-1.82 4.90,-1.22 5.05,-0.63 5.05,-0.01 5.05,0.59 5.05,0.59 L 5.05,0.59 Z"></path></g><g transform="translate(174.00003051757812 10) rotate(0 -1.66668701171875 23)" stroke="none"><path fill="#1e1e1e" d="M 4.70,0.34 Q 4.70,0.34 4.31,13.60 3.93,26.87 1.91,32.37 -0.11,37.88 -0.21,38.29 -0.30,38.70 -0.53,39.06 -0.76,39.42 -1.08,39.69 -1.41,39.96 -1.81,40.11 -2.21,40.26 -2.63,40.28 -3.06,40.29 -3.47,40.17 -3.87,40.05 -4.22,39.80 -4.57,39.56 -4.82,39.22 -5.07,38.87 -5.20,38.47 -5.33,38.06 -5.32,37.64 -5.31,37.21 -5.17,36.81 -5.02,36.41 -4.76,36.08 -4.50,35.75 -4.14,35.51 -3.79,35.28 -3.37,35.18 -2.96,35.07 -2.54,35.10 -2.11,35.13 -1.72,35.30 -1.33,35.46 -1.01,35.74 -0.69,36.02 -0.48,36.39 -0.27,36.76 -0.19,37.18 -0.10,37.59 -0.16,38.01 -0.21,38.44 -0.39,38.82 -0.58,39.20 -0.88,39.50 -1.18,39.81 -1.55,40.00 -1.93,40.19 -2.35,40.25 -2.77,40.31 -3.19,40.24 -3.61,40.16 -3.98,39.95 -4.35,39.75 -4.64,39.43 -4.93,39.12 -5.10,38.73 -5.27,38.34 -5.31,37.92 -5.35,37.50 -5.35,37.50 -5.35,37.50 -6.55,31.76 -7.76,26.02 -6.23,12.84 -4.70,-0.34 -4.59,-0.89 -4.48,-1.45 -4.24,-1.97 -4.00,-2.48 -3.65,-2.93 -3.29,-3.37 -2.84,-3.72 -2.39,-4.06 -1.87,-4.29 -1.34,-4.52 -0.78,-4.61 -0.22,-4.71 0.33,-4.67 0.90,-4.63 1.44,-4.45 1.98,-4.27 2.47,-3.97 2.95,-3.67 3.35,-3.27 3.74,-2.86 4.03,-2.37 4.32,-1.88 4.48,-1.33 4.65,-0.79 4.67,-0.22 4.70,0.34 4.70,0.34 L 4.70,0.34 Z"></path></g><g transform="translate(171.33334350585938 32.66667175292969) rotate(0 14.333343505859375 12.333328247070312)" stroke="none"><path fill="#1e1e1e" d="M 3.22,-3.74 Q 3.22,-3.74 12.01,2.70 20.81,9.15 23.00,13.68 25.20,18.22 25.47,18.54 25.74,18.87 25.90,19.26 26.05,19.66 26.07,20.08 26.09,20.51 25.98,20.92 25.86,21.32 25.62,21.67 25.38,22.02 25.04,22.28 24.70,22.53 24.30,22.67 23.89,22.80 23.47,22.80 23.04,22.80 22.64,22.66 22.24,22.52 21.90,22.26 21.57,22.00 21.33,21.65 21.09,21.29 20.98,20.88 20.87,20.47 20.90,20.05 20.92,19.62 21.08,19.23 21.24,18.84 21.52,18.52 21.80,18.19 22.16,17.98 22.53,17.76 22.94,17.67 23.36,17.58 23.78,17.63 24.20,17.68 24.59,17.86 24.97,18.04 25.28,18.34 25.59,18.63 25.78,19.01 25.98,19.38 26.04,19.80 26.11,20.22 26.04,20.64 25.97,21.06 25.77,21.44 25.56,21.81 25.25,22.10 24.94,22.39 24.56,22.57 24.17,22.74 23.75,22.78 23.32,22.83 22.91,22.73 22.50,22.64 22.13,22.42 21.77,22.20 21.77,22.20 21.77,22.20 16.96,20.70 12.15,19.21 4.46,11.48 -3.22,3.74 -3.62,3.30 -4.02,2.86 -4.31,2.34 -4.59,1.81 -4.74,1.24 -4.89,0.66 -4.90,0.07 -4.91,-0.52 -4.78,-1.10 -4.64,-1.68 -4.37,-2.21 -4.10,-2.74 -3.71,-3.20 -3.33,-3.65 -2.84,-3.99 -2.35,-4.34 -1.80,-4.56 -1.25,-4.78 -0.66,-4.86 -0.07,-4.94 0.52,-4.87 1.11,-4.81 1.67,-4.61 2.23,-4.40 2.72,-4.07 3.22,-3.74 3.22,-3.74 L 3.22,-3.74 Z"></path></g><g transform="translate(199.33334350585938 26) rotate(0 1.666656494140625 23)" stroke="none"><path fill="#1e1e1e" d="M -1.60,-4.01 Q -1.60,-4.01 -0.91,-5.06 -0.22,-6.11 0.44,-6.29 1.11,-6.47 1.81,-6.48 2.50,-6.49 3.18,-6.34 3.86,-6.19 4.48,-5.87 5.10,-5.56 5.63,-5.11 6.16,-4.66 6.56,-4.10 6.96,-3.53 7.22,-2.89 7.48,-2.24 7.58,-1.55 7.67,-0.87 7.60,-0.17 7.53,0.51 7.30,1.16 7.06,1.81 6.68,2.39 6.29,2.97 5.78,3.44 5.27,3.91 4.66,4.24 4.05,4.58 6.06,9.07 8.07,13.57 7.86,18.22 7.64,22.87 7.34,25.58 7.04,28.29 7.15,33.19 7.27,38.10 7.11,41.68 6.95,45.26 5.41,47.35 3.87,49.44 3.83,49.86 3.80,50.28 3.63,50.67 3.46,51.06 3.17,51.38 2.88,51.69 2.51,51.90 2.14,52.11 1.72,52.18 1.31,52.26 0.88,52.20 0.46,52.14 0.08,51.95 -0.28,51.76 -0.58,51.45 -0.88,51.15 -1.07,50.77 -1.25,50.39 -1.31,49.97 -1.36,49.55 -1.28,49.13 -1.20,48.71 -0.99,48.34 -0.77,47.98 -0.46,47.69 -0.14,47.41 0.24,47.25 0.63,47.08 1.06,47.05 1.48,47.02 1.89,47.12 2.31,47.23 2.66,47.46 3.02,47.69 3.28,48.02 3.55,48.36 3.69,48.76 3.83,49.16 3.84,49.58 3.85,50.01 3.72,50.41 3.60,50.82 3.35,51.16 3.10,51.50 2.75,51.75 2.40,52.00 2.00,52.12 1.59,52.24 1.16,52.22 0.74,52.21 0.34,52.06 -0.05,51.91 -0.38,51.64 -0.71,51.37 -0.93,51.02 -1.16,50.66 -1.26,50.24 -1.36,49.83 -1.36,49.83 -1.36,49.83 -3.25,47.26 -5.14,44.69 -4.97,41.47 -4.80,38.26 -4.82,32.59 -4.84,26.92 -4.56,24.59 -4.28,22.26 -4.03,17.76 -3.77,13.27 -3.64,9.55 -3.51,5.83 -1.86,-0.14 -0.22,-6.11 0.44,-6.29 1.11,-6.47 1.81,-6.48 2.50,-6.49 3.18,-6.34 3.86,-6.19 4.48,-5.87 5.10,-5.56 5.63,-5.11 6.15,-4.66 6.56,-4.10 6.96,-3.53 7.22,-2.89 7.48,-2.24 7.58,-1.55 7.67,-0.87 7.60,-0.17 7.53,0.51 7.30,1.16 7.06,1.81 6.68,2.39 6.29,2.97 5.78,3.44 5.27,3.91 4.66,4.24 4.05,4.58 2.83,4.29 1.60,4.01 1.10,4.14 0.59,4.27 0.07,4.28 -0.44,4.29 -0.95,4.18 -1.45,4.06 -1.92,3.83 -2.39,3.59 -2.78,3.26 -3.18,2.92 -3.48,2.49 -3.78,2.07 -3.98,1.59 -4.17,1.10 -4.24,0.59 -4.31,0.07 -4.26,-0.44 -4.21,-0.95 -4.03,-1.44 -3.86,-1.93 -3.57,-2.37 -3.28,-2.80 -2.90,-3.15 -2.51,-3.51 -2.06,-3.76 -1.60,-4.01 -1.60,-4.01 L -1.60,-4.01 Z"></path></g><g transform="translate(82.66665649414062 201.3333282470703) rotate(0 24.333343505859375 -0.666656494140625)" stroke="none"><path fill="#1e1e1e" d="M -0.32,-5.22 Q -0.32,-5.22 2.73,-5.54 5.79,-5.87 8.51,-6.04 11.24,-6.21 13.95,-6.34 16.66,-6.46 22.55,-6.82 28.44,-7.18 31.93,-7.32 35.43,-7.45 38.08,-7.53 40.72,-7.61 42.94,-7.46 45.16,-7.31 46.62,-5.32 48.09,-3.33 48.50,-3.23 48.91,-3.14 49.28,-2.92 49.64,-2.69 49.91,-2.37 50.18,-2.04 50.34,-1.65 50.49,-1.25 50.51,-0.82 50.53,-0.40 50.41,0.00 50.29,0.41 50.05,0.76 49.81,1.11 49.47,1.36 49.13,1.61 48.72,1.75 48.32,1.88 47.90,1.87 47.47,1.87 47.07,1.73 46.67,1.59 46.33,1.33 46.00,1.07 45.76,0.72 45.53,0.36 45.42,-0.04 45.31,-0.45 45.33,-0.87 45.36,-1.30 45.52,-1.69 45.68,-2.08 45.96,-2.41 46.24,-2.73 46.60,-2.94 46.97,-3.16 47.39,-3.25 47.80,-3.33 48.22,-3.28 48.65,-3.23 49.03,-3.05 49.41,-2.87 49.72,-2.57 50.03,-2.28 50.22,-1.90 50.42,-1.52 50.48,-1.10 50.55,-0.68 50.47,-0.27 50.40,0.14 50.20,0.52 50.00,0.89 49.68,1.18 49.37,1.47 48.99,1.64 48.60,1.82 48.18,1.86 47.75,1.90 47.75,1.90 47.75,1.90 44.32,3.47 40.89,5.05 38.31,5.04 35.74,5.03 32.36,5.07 28.98,5.10 22.90,5.17 16.81,5.23 14.20,5.18 11.59,5.12 9.03,5.11 6.47,5.10 3.40,5.16 0.32,5.22 -0.30,5.19 -0.93,5.15 -1.53,4.96 -2.14,4.78 -2.68,4.45 -3.22,4.12 -3.66,3.68 -4.11,3.23 -4.44,2.69 -4.77,2.15 -4.96,1.55 -5.15,0.95 -5.18,0.32 -5.22,-0.30 -5.11,-0.92 -5.00,-1.54 -4.74,-2.12 -4.48,-2.70 -4.09,-3.19 -3.71,-3.69 -3.21,-4.08 -2.71,-4.47 -2.14,-4.73 -1.56,-4.99 -0.94,-5.11 -0.32,-5.22 -0.32,-5.22 L -0.32,-5.22 Z"></path></g><g transform="translate(10.666656494140625 171.3333282470703) rotate(0 1.6666717529296875 31.333343505859375)" stroke="none"><path fill="#1e1e1e" d="M 5.11,0.24 Q 5.11,0.24 5.38,4.29 5.64,8.33 5.65,12.45 5.65,16.57 5.64,18.92 5.64,21.26 6.11,27.40 6.58,33.54 6.78,38.24 6.97,42.94 7.26,46.51 7.54,50.08 8.02,52.66 8.50,55.24 7.31,57.97 6.12,60.71 6.18,61.13 6.25,61.55 6.18,61.97 6.10,62.38 5.90,62.76 5.70,63.13 5.39,63.42 5.08,63.71 4.69,63.89 4.30,64.06 3.88,64.10 3.46,64.14 3.04,64.05 2.63,63.95 2.27,63.73 1.90,63.51 1.63,63.18 1.36,62.86 1.21,62.46 1.05,62.07 1.03,61.64 1.01,61.22 1.13,60.81 1.25,60.40 1.49,60.05 1.73,59.70 2.07,59.45 2.41,59.19 2.82,59.06 3.22,58.93 3.65,58.93 4.07,58.94 4.47,59.07 4.87,59.21 5.21,59.47 5.55,59.73 5.78,60.09 6.02,60.44 6.13,60.85 6.24,61.26 6.21,61.69 6.18,62.11 6.02,62.50 5.86,62.90 5.58,63.22 5.30,63.54 4.94,63.76 4.57,63.97 4.16,64.06 3.74,64.15 3.32,64.10 2.90,64.05 2.51,63.87 2.13,63.68 1.82,63.39 1.52,63.09 1.32,62.72 1.13,62.34 1.13,62.34 1.13,62.34 -1.75,59.91 -4.63,57.48 -5.13,54.24 -5.63,51.00 -5.87,47.19 -6.10,43.38 -6.22,38.83 -6.34,34.29 -6.60,27.68 -6.87,21.08 -6.81,18.71 -6.74,16.33 -6.58,12.04 -6.41,7.76 -5.76,3.75 -5.11,-0.24 -5.01,-0.85 -4.90,-1.46 -4.66,-2.02 -4.41,-2.59 -4.04,-3.08 -3.66,-3.57 -3.18,-3.96 -2.70,-4.34 -2.14,-4.60 -1.58,-4.86 -0.98,-4.98 -0.37,-5.10 0.24,-5.07 0.85,-5.04 1.44,-4.87 2.04,-4.69 2.57,-4.38 3.10,-4.07 3.54,-3.63 3.98,-3.20 4.31,-2.68 4.64,-2.16 4.83,-1.57 5.02,-0.98 5.06,-0.37 5.11,0.24 5.11,0.24 L 5.11,0.24 Z"></path></g><g transform="translate(18 202.00001525878906) rotate(0 11.666671752929688 1.3333282470703125)" stroke="none"><path fill="#1e1e1e" d="M 0.54,-4.80 Q 0.54,-4.80 7.35,-4.88 14.15,-4.96 16.78,-2.69 19.41,-0.42 19.82,-0.30 20.23,-0.19 20.58,0.04 20.93,0.28 21.19,0.62 21.44,0.96 21.57,1.37 21.71,1.77 21.71,2.19 21.70,2.62 21.57,3.02 21.43,3.42 21.17,3.76 20.91,4.10 20.56,4.33 20.20,4.57 19.79,4.68 19.38,4.79 18.96,4.77 18.53,4.74 18.14,4.58 17.75,4.42 17.42,4.15 17.10,3.87 16.89,3.50 16.67,3.14 16.58,2.72 16.49,2.31 16.54,1.89 16.59,1.46 16.77,1.08 16.95,0.69 17.24,0.39 17.54,0.08 17.91,-0.11 18.29,-0.30 18.71,-0.37 19.13,-0.44 19.55,-0.37 19.97,-0.29 20.34,-0.09 20.72,0.10 21.01,0.41 21.30,0.72 21.47,1.11 21.65,1.49 21.69,1.91 21.74,2.34 21.64,2.75 21.55,3.17 21.33,3.53 21.11,3.89 20.78,4.17 20.45,4.44 20.06,4.59 19.66,4.75 19.24,4.77 18.81,4.79 18.82,4.79 18.82,4.79 15.74,6.41 12.67,8.03 6.06,6.42 -0.54,4.80 -1.11,4.67 -1.68,4.53 -2.20,4.27 -2.72,4.00 -3.16,3.61 -3.60,3.23 -3.93,2.75 -4.27,2.27 -4.48,1.73 -4.69,1.19 -4.76,0.61 -4.84,0.03 -4.77,-0.54 -4.70,-1.12 -4.50,-1.67 -4.30,-2.21 -3.97,-2.70 -3.64,-3.18 -3.21,-3.57 -2.77,-3.96 -2.26,-4.23 -1.74,-4.51 -1.18,-4.65 -0.61,-4.80 -0.03,-4.80 0.55,-4.80 0.54,-4.80 L 0.54,-4.80 Z"></path></g><g transform="translate(40.666656494140625 162.6666717529297) rotate(0 3.333343505859375 35.66667175292969)" stroke="none"><path fill="#1e1e1e" d="M 4.92,-0.45 Q 4.92,-0.45 5.93,4.61 6.94,9.69 7.62,17.00 8.30,24.30 9.07,32.53 9.84,40.77 10.65,49.39 11.45,58.02 11.39,58.99 11.32,59.96 10.95,60.86 10.57,61.75 9.93,62.49 9.29,63.22 8.45,63.71 7.61,64.19 6.66,64.39 5.70,64.58 4.74,64.46 3.77,64.34 2.90,63.92 2.02,63.50 1.33,62.82 0.63,62.14 0.19,61.28 -0.24,60.41 -0.39,59.45 -0.53,58.49 -0.36,57.53 -0.19,56.57 0.27,55.72 0.74,54.87 1.46,54.21 2.17,53.55 3.06,53.16 3.95,52.76 4.92,52.67 5.89,52.58 6.83,52.80 7.78,53.03 8.61,53.54 9.43,54.06 10.05,54.81 10.67,55.56 11.01,56.47 11.36,57.38 11.40,58.35 11.43,59.32 11.16,60.25 10.89,61.18 10.33,61.98 9.77,62.78 8.99,63.35 8.20,63.93 7.28,64.23 6.35,64.52 5.38,64.51 4.41,64.49 3.49,64.17 2.57,63.84 1.81,63.24 1.04,62.64 0.51,61.83 -0.01,61.02 -0.26,60.08 -0.50,59.13 -0.50,59.14 -0.50,59.14 -1.31,50.51 -2.12,41.88 -2.89,33.65 -3.66,25.42 -4.34,18.11 -5.02,10.81 -4.97,5.63 -4.92,0.45 -4.90,-0.13 -4.88,-0.73 -4.73,-1.30 -4.57,-1.88 -4.28,-2.39 -3.98,-2.91 -3.58,-3.35 -3.17,-3.78 -2.67,-4.11 -2.17,-4.43 -1.61,-4.63 -1.04,-4.83 -0.45,-4.88 0.13,-4.94 0.72,-4.85 1.31,-4.76 1.86,-4.53 2.41,-4.31 2.89,-3.95 3.37,-3.60 3.76,-3.15 4.14,-2.69 4.40,-2.15 4.66,-1.62 4.79,-1.04 4.92,-0.45 4.92,-0.45 L 4.92,-0.45 Z"></path></g><g transform="translate(174.00003051757812 259.3333282470703) rotate(0 3.33331298828125 23.333343505859375)" stroke="none"><path fill="#1e1e1e" d="M 4.88,-1.17 Q 4.88,-1.17 6.75,3.44 8.62,8.06 9.39,12.86 10.17,17.66 10.48,20.04 10.79,22.43 11.18,27.43 11.56,32.44 11.89,35.30 12.21,38.16 12.53,40.27 12.86,42.37 11.02,44.63 9.19,46.88 9.16,47.31 9.14,47.73 8.98,48.13 8.82,48.52 8.54,48.84 8.27,49.17 7.90,49.38 7.54,49.60 7.12,49.69 6.71,49.78 6.28,49.73 5.86,49.69 5.48,49.51 5.09,49.33 4.78,49.03 4.48,48.74 4.28,48.36 4.08,47.99 4.01,47.57 3.95,47.15 4.02,46.73 4.09,46.31 4.29,45.93 4.49,45.56 4.80,45.27 5.11,44.98 5.49,44.80 5.88,44.62 6.30,44.58 6.73,44.54 7.14,44.63 7.55,44.72 7.92,44.94 8.28,45.16 8.56,45.49 8.83,45.81 8.99,46.21 9.14,46.60 9.16,47.03 9.18,47.45 9.07,47.86 8.95,48.27 8.71,48.62 8.47,48.97 8.13,49.23 7.80,49.48 7.39,49.62 6.99,49.75 6.56,49.75 6.14,49.75 5.74,49.61 5.33,49.47 5.00,49.21 4.66,48.96 4.42,48.60 4.19,48.25 4.07,47.84 3.96,47.43 3.96,47.43 3.96,47.43 1.73,45.89 -0.50,44.34 -0.84,41.98 -1.17,39.61 -1.50,36.46 -1.83,33.32 -2.07,28.69 -2.31,24.07 -2.58,21.84 -2.85,19.61 -3.43,15.35 -4.02,11.09 -4.45,6.13 -4.88,1.17 -4.95,0.57 -5.01,-0.03 -4.94,-0.63 -4.86,-1.23 -4.64,-1.79 -4.43,-2.35 -4.08,-2.85 -3.73,-3.35 -3.28,-3.74 -2.82,-4.14 -2.28,-4.42 -1.75,-4.70 -1.16,-4.84 -0.57,-4.98 0.03,-4.98 0.63,-4.97 1.22,-4.83 1.80,-4.68 2.34,-4.39 2.87,-4.11 3.32,-3.70 3.77,-3.30 4.11,-2.80 4.45,-2.30 4.66,-1.73 4.88,-1.17 4.88,-1.17 L 4.88,-1.17 Z"></path></g><g transform="translate(159.33334350585938 336.6667022705078) rotate(0 3.666656494140625 25.666656494140625)" stroke="none"><path fill="#1e1e1e" d="M 5.07,-1.30 Q 5.07,-1.30 7.21,5.29 9.35,11.90 10.53,18.21 11.71,24.53 12.21,28.23 12.71,31.93 12.94,35.38 13.17,38.83 13.26,41.64 13.36,44.45 11.65,47.58 9.94,50.70 9.88,51.12 9.82,51.54 9.63,51.92 9.44,52.30 9.13,52.60 8.83,52.90 8.45,53.08 8.06,53.26 7.64,53.32 7.22,53.37 6.80,53.29 6.39,53.20 6.02,52.99 5.65,52.78 5.37,52.46 5.09,52.14 4.93,51.75 4.76,51.35 4.73,50.93 4.70,50.51 4.81,50.09 4.92,49.68 5.15,49.33 5.38,48.97 5.72,48.71 6.05,48.45 6.45,48.30 6.85,48.16 7.28,48.15 7.70,48.15 8.11,48.28 8.51,48.41 8.85,48.66 9.20,48.91 9.44,49.26 9.68,49.60 9.80,50.01 9.92,50.42 9.91,50.84 9.89,51.27 9.74,51.67 9.59,52.06 9.32,52.39 9.05,52.72 8.69,52.94 8.33,53.17 7.92,53.27 7.50,53.37 7.08,53.33 6.66,53.29 6.27,53.12 5.88,52.94 5.57,52.66 5.25,52.37 5.05,52.00 4.84,51.63 4.77,51.21 4.69,50.79 4.69,50.79 4.69,50.79 2.87,47.81 1.05,44.84 0.97,42.22 0.90,39.59 0.72,36.57 0.54,33.55 0.10,30.14 -0.34,26.73 -1.39,20.83 -2.45,14.93 -3.76,8.11 -5.07,1.30 -5.15,0.67 -5.23,0.05 -5.16,-0.57 -5.09,-1.20 -4.87,-1.79 -4.66,-2.38 -4.30,-2.91 -3.95,-3.43 -3.48,-3.85 -3.01,-4.28 -2.46,-4.57 -1.90,-4.87 -1.29,-5.03 -0.68,-5.19 -0.05,-5.19 0.57,-5.20 1.19,-5.06 1.80,-4.91 2.37,-4.62 2.93,-4.33 3.40,-3.92 3.88,-3.51 4.24,-2.99 4.61,-2.48 4.84,-1.89 5.07,-1.30 5.07,-1.30 L 5.07,-1.30 Z"></path></g><g transform="translate(166.00003051757812 370.6667022705078) rotate(0 15 0.6666259765625)" stroke="none"><path fill="#1e1e1e" d="M -0.35,-5.39 Q -0.35,-5.39 2.49,-5.92 5.34,-6.45 7.89,-6.41 10.43,-6.37 12.99,-5.94 15.55,-5.51 17.69,-4.92 19.83,-4.33 22.07,-4.90 24.30,-5.47 26.15,-4.32 27.99,-3.17 28.38,-3.33 28.77,-3.50 29.20,-3.54 29.62,-3.57 30.03,-3.47 30.45,-3.37 30.80,-3.14 31.16,-2.91 31.43,-2.58 31.69,-2.25 31.84,-1.85 31.99,-1.45 32.00,-1.03 32.01,-0.60 31.89,-0.19 31.76,0.20 31.52,0.55 31.27,0.89 30.92,1.14 30.58,1.39 30.17,1.51 29.77,1.64 29.34,1.63 28.92,1.62 28.52,1.47 28.12,1.32 27.79,1.06 27.45,0.79 27.23,0.43 27.00,0.08 26.89,-0.33 26.79,-0.74 26.83,-1.16 26.86,-1.59 27.03,-1.98 27.20,-2.37 27.48,-2.68 27.76,-3.00 28.13,-3.21 28.50,-3.42 28.92,-3.50 29.34,-3.58 29.76,-3.52 30.18,-3.46 30.56,-3.28 30.94,-3.09 31.24,-2.79 31.54,-2.49 31.73,-2.11 31.92,-1.73 31.98,-1.30 32.03,-0.88 31.95,-0.47 31.87,-0.05 31.67,0.31 31.46,0.68 31.14,0.97 30.82,1.25 30.82,1.25 30.83,1.25 30.01,4.10 29.20,6.96 27.14,7.63 25.07,8.31 21.79,8.45 18.50,8.60 15.73,7.75 12.97,6.91 9.56,6.30 6.15,5.69 3.25,5.54 0.35,5.39 -0.29,5.36 -0.94,5.32 -1.56,5.13 -2.18,4.94 -2.74,4.61 -3.30,4.27 -3.77,3.81 -4.23,3.36 -4.57,2.80 -4.91,2.24 -5.11,1.62 -5.31,1.00 -5.35,0.35 -5.40,-0.29 -5.28,-0.93 -5.17,-1.57 -4.90,-2.17 -4.64,-2.76 -4.24,-3.28 -3.84,-3.80 -3.33,-4.20 -2.82,-4.61 -2.23,-4.88 -1.64,-5.15 -0.99,-5.27 -0.35,-5.39 -0.35,-5.39 L -0.35,-5.39 Z"></path></g><g transform="translate(198.00003051757812 344.6667022705078) rotate(0 0.33331298828125 26.33331298828125)" stroke="none"><path fill="#1e1e1e" d="M 5.00,0 Q 5.00,0 5.76,2.29 6.52,4.59 6.93,8.94 7.34,13.29 7.52,16.50 7.69,19.71 7.78,24.03 7.86,28.35 7.91,32.27 7.95,36.19 7.98,39.77 8.01,43.36 8.03,46.03 8.05,48.70 6.31,51.61 4.56,54.52 4.53,54.94 4.50,55.36 4.33,55.76 4.17,56.15 3.89,56.47 3.61,56.79 3.24,57.00 2.87,57.21 2.45,57.29 2.04,57.38 1.61,57.32 1.19,57.27 0.81,57.08 0.43,56.90 0.13,56.60 -0.17,56.30 -0.36,55.92 -0.55,55.54 -0.61,55.12 -0.67,54.70 -0.60,54.28 -0.52,53.87 -0.31,53.49 -0.11,53.12 0.20,52.84 0.51,52.55 0.90,52.38 1.29,52.21 1.71,52.17 2.14,52.13 2.55,52.23 2.96,52.33 3.32,52.56 3.68,52.78 3.95,53.11 4.22,53.44 4.37,53.84 4.52,54.24 4.53,54.66 4.55,55.09 4.43,55.49 4.31,55.90 4.06,56.25 3.82,56.59 3.47,56.84 3.13,57.10 2.72,57.22 2.32,57.35 1.89,57.34 1.47,57.34 1.07,57.19 0.67,57.05 0.34,56.78 0.00,56.52 -0.22,56.17 -0.45,55.81 -0.56,55.40 -0.66,54.99 -0.66,54.99 -0.66,54.99 -3.03,51.86 -5.40,48.74 -5.39,46.07 -5.38,43.41 -5.37,39.85 -5.37,36.29 -5.38,32.43 -5.40,28.57 -5.45,24.49 -5.51,20.40 -5.66,17.39 -5.81,14.38 -6.16,9.49 -6.52,4.60 -5.76,2.30 -5.00,0 -4.92,-0.59 -4.85,-1.19 -4.64,-1.76 -4.42,-2.32 -4.08,-2.81 -3.74,-3.31 -3.29,-3.71 -2.84,-4.11 -2.30,-4.39 -1.77,-4.67 -1.18,-4.81 -0.60,-4.96 0.00,-4.96 0.60,-4.96 1.18,-4.81 1.77,-4.67 2.30,-4.39 2.84,-4.11 3.29,-3.71 3.74,-3.31 4.08,-2.81 4.42,-2.32 4.64,-1.75 4.85,-1.19 4.92,-0.59 5.00,0.00 5.00,0.00 L 5.00,0 Z"></path></g><g transform="translate(225.33334350585938 191.3333282470703) rotate(0 21 1.6666717529296875)" stroke="none"><path fill="#1e1e1e" d="M 0.55,-5.30 Q 0.55,-5.30 4.26,-5.49 7.96,-5.68 10.51,-5.55 13.07,-5.41 15.45,-5.37 17.84,-5.32 22.58,-4.60 27.32,-3.88 30.61,-3.65 33.90,-3.43 36.73,-1.35 39.56,0.72 39.91,0.49 40.27,0.26 40.69,0.16 41.10,0.06 41.52,0.09 41.94,0.13 42.34,0.30 42.73,0.46 43.04,0.75 43.36,1.03 43.57,1.40 43.78,1.77 43.86,2.19 43.94,2.61 43.88,3.03 43.82,3.45 43.63,3.83 43.44,4.21 43.14,4.51 42.84,4.81 42.46,5.00 42.08,5.19 41.66,5.25 41.24,5.30 40.82,5.22 40.40,5.14 40.03,4.93 39.67,4.72 39.38,4.41 39.10,4.09 38.93,3.70 38.76,3.31 38.73,2.89 38.69,2.46 38.80,2.05 38.90,1.64 39.13,1.28 39.36,0.92 39.69,0.66 40.02,0.39 40.42,0.24 40.82,0.10 41.24,0.09 41.67,0.07 42.07,0.20 42.48,0.32 42.82,0.57 43.17,0.82 43.42,1.17 43.66,1.51 43.79,1.92 43.91,2.32 43.90,2.75 43.89,3.17 43.74,3.57 43.60,3.97 43.33,4.30 43.06,4.63 43.06,4.63 43.06,4.63 40.26,7.09 37.46,9.54 33.54,9.59 29.62,9.63 27.29,9.38 24.95,9.13 21.21,8.46 17.46,7.78 14.87,7.69 12.28,7.60 9.44,7.41 6.60,7.21 3.02,6.25 -0.55,5.30 -1.18,5.15 -1.81,5.01 -2.38,4.72 -2.95,4.43 -3.44,4.01 -3.93,3.59 -4.30,3.07 -4.67,2.55 -4.91,1.95 -5.15,1.35 -5.24,0.72 -5.32,0.08 -5.26,-0.55 -5.19,-1.19 -4.97,-1.79 -4.75,-2.40 -4.40,-2.93 -4.04,-3.47 -3.57,-3.90 -3.09,-4.33 -2.53,-4.64 -1.96,-4.95 -1.34,-5.11 -0.72,-5.27 -0.08,-5.29 0.55,-5.30 0.55,-5.30 L 0.55,-5.30 Z"></path></g><g transform="translate(309.3333435058594 166.00001525878906) rotate(0 -4 22.333328247070312)" stroke="none"><path fill="#1e1e1e" d="M 3.60,3.94 Q 3.60,3.94 -0.53,8.26 -4.66,12.57 -6.97,15.48 -9.27,18.39 -10.90,22.36 -12.54,26.33 -13.00,29.10 -13.47,31.87 -12.07,34.11 -10.67,36.34 -7.84,36.99 -5.01,37.65 -2.87,37.42 -0.74,37.19 2.79,36.03 6.33,34.87 9.15,35.61 11.96,36.35 12.38,36.28 12.80,36.21 13.22,36.28 13.64,36.35 14.02,36.54 14.39,36.74 14.69,37.05 14.98,37.35 15.16,37.74 15.34,38.12 15.39,38.55 15.43,38.97 15.35,39.38 15.26,39.80 15.04,40.17 14.82,40.53 14.50,40.81 14.18,41.08 13.78,41.24 13.39,41.40 12.96,41.43 12.54,41.45 12.13,41.34 11.72,41.23 11.37,40.99 11.01,40.75 10.75,40.42 10.50,40.08 10.36,39.68 10.22,39.27 10.22,38.85 10.22,38.42 10.35,38.02 10.49,37.62 10.74,37.28 11.00,36.94 11.35,36.70 11.70,36.46 12.11,36.34 12.52,36.23 12.94,36.25 13.37,36.27 13.76,36.43 14.16,36.58 14.48,36.86 14.81,37.13 15.03,37.49 15.25,37.86 15.34,38.27 15.43,38.69 15.39,39.11 15.35,39.53 15.17,39.92 14.99,40.30 14.70,40.61 14.41,40.92 14.03,41.12 13.66,41.32 13.66,41.32 13.66,41.32 12.06,44.19 10.46,47.05 8.27,47.76 6.08,48.47 3.03,49.19 -0.02,49.92 -3.81,50.00 -7.60,50.08 -10.96,49.20 -14.32,48.31 -17.43,46.24 -20.54,44.17 -22.67,40.83 -24.79,37.48 -25.30,33.62 -25.81,29.76 -24.89,25.52 -23.97,21.28 -21.44,15.98 -18.92,10.68 -15.94,7.10 -12.96,3.52 -8.28,-0.21 -3.60,-3.94 -3.08,-4.32 -2.55,-4.69 -1.95,-4.93 -1.35,-5.17 -0.71,-5.25 -0.08,-5.34 0.56,-5.27 1.20,-5.21 1.80,-4.99 2.41,-4.77 2.95,-4.41 3.48,-4.05 3.92,-3.57 4.35,-3.10 4.66,-2.53 4.97,-1.97 5.13,-1.34 5.29,-0.72 5.30,-0.07 5.31,0.56 5.17,1.19 5.02,1.82 4.73,2.39 4.44,2.97 4.02,3.46 3.60,3.94 3.60,3.94 L 3.60,3.94 Z"></path></g><g transform="translate(340.0000305175781 137.3333282470703) rotate(0 22 -24.666656494140625)" stroke="none"><path fill="#1e1e1e" d="M -3.50,-3.12 Q -3.50,-3.12 8.37,-17.99 20.25,-32.86 27.17,-37.51 34.09,-42.17 34.42,-42.43 34.75,-42.70 35.15,-42.85 35.55,-43.00 35.97,-43.01 36.39,-43.02 36.80,-42.90 37.21,-42.77 37.55,-42.53 37.90,-42.28 38.15,-41.94 38.40,-41.59 38.52,-41.19 38.65,-40.78 38.64,-40.35 38.63,-39.93 38.48,-39.53 38.34,-39.13 38.07,-38.80 37.81,-38.47 37.45,-38.24 37.09,-38.01 36.68,-37.90 36.27,-37.80 35.84,-37.83 35.42,-37.87 35.03,-38.03 34.64,-38.20 34.32,-38.48 34.00,-38.77 33.79,-39.14 33.58,-39.50 33.50,-39.92 33.42,-40.34 33.48,-40.76 33.53,-41.18 33.72,-41.56 33.91,-41.94 34.21,-42.25 34.51,-42.55 34.89,-42.74 35.27,-42.93 35.69,-42.98 36.11,-43.04 36.53,-42.96 36.95,-42.89 37.32,-42.68 37.69,-42.47 37.97,-42.15 38.26,-41.84 38.43,-41.45 38.59,-41.06 38.63,-40.63 38.67,-40.21 38.56,-39.80 38.46,-39.39 38.24,-39.03 38.01,-38.67 38.01,-38.67 38.01,-38.67 34.17,-31.27 30.34,-23.86 16.92,-10.36 3.50,3.12 3.08,3.50 2.65,3.87 2.15,4.13 1.65,4.39 1.10,4.53 0.55,4.66 -0.01,4.66 -0.58,4.66 -1.13,4.52 -1.68,4.38 -2.18,4.12 -2.68,3.85 -3.10,3.48 -3.52,3.10 -3.84,2.63 -4.16,2.16 -4.36,1.63 -4.56,1.10 -4.63,0.54 -4.69,-0.01 -4.62,-0.57 -4.55,-1.14 -4.35,-1.66 -4.15,-2.19 -3.82,-2.66 -3.50,-3.12 -3.50,-3.12 L -3.50,-3.12 Z"></path></g><g transform="translate(360.0000305175781 151.3333282470703) rotate(0 19.33331298828125 -19)" stroke="none"><path fill="#1e1e1e" d="M -4.29,-3.94 Q -4.29,-3.94 -2.38,-6.41 -0.46,-8.89 1.58,-11.12 3.63,-13.35 6.11,-15.76 8.60,-18.17 10.40,-20.15 12.21,-22.12 15.07,-24.90 17.94,-27.68 20.51,-30.01 23.08,-32.35 25.00,-33.98 26.91,-35.61 29.15,-37.70 31.39,-39.79 33.90,-39.59 36.40,-39.39 36.72,-39.66 37.05,-39.94 37.44,-40.09 37.84,-40.25 38.26,-40.27 38.69,-40.29 39.10,-40.18 39.51,-40.06 39.86,-39.82 40.21,-39.58 40.46,-39.24 40.72,-38.90 40.85,-38.50 40.99,-38.10 40.99,-37.67 40.98,-37.25 40.85,-36.84 40.71,-36.44 40.45,-36.11 40.19,-35.77 39.84,-35.53 39.49,-35.29 39.08,-35.18 38.67,-35.07 38.24,-35.09 37.82,-35.12 37.42,-35.28 37.03,-35.44 36.71,-35.71 36.39,-35.99 36.17,-36.35 35.95,-36.72 35.86,-37.13 35.77,-37.55 35.82,-37.97 35.87,-38.39 36.05,-38.78 36.23,-39.16 36.52,-39.47 36.81,-39.78 37.19,-39.98 37.57,-40.17 37.98,-40.24 38.40,-40.31 38.82,-40.24 39.24,-40.17 39.62,-39.97 39.99,-39.77 40.28,-39.46 40.57,-39.15 40.75,-38.76 40.93,-38.37 40.97,-37.95 41.02,-37.53 40.92,-37.11 40.83,-36.70 40.61,-36.34 40.39,-35.97 40.39,-35.97 40.39,-35.97 39.69,-32.09 38.99,-28.20 37.32,-26.69 35.65,-25.17 33.90,-23.73 32.14,-22.28 29.69,-20.09 27.23,-17.90 24.58,-15.44 21.93,-12.98 19.78,-10.75 17.62,-8.52 15.30,-6.43 12.98,-4.35 10.94,-2.33 8.90,-0.30 6.59,1.81 4.29,3.94 3.76,4.39 3.23,4.85 2.60,5.17 1.97,5.48 1.28,5.64 0.60,5.79 -0.09,5.78 -0.80,5.77 -1.48,5.59 -2.16,5.41 -2.77,5.07 -3.39,4.74 -3.91,4.26 -4.42,3.79 -4.81,3.20 -5.20,2.62 -5.44,1.96 -5.68,1.29 -5.75,0.59 -5.82,-0.09 -5.73,-0.79 -5.63,-1.49 -5.37,-2.14 -5.11,-2.79 -4.70,-3.36 -4.29,-3.94 -4.29,-3.94 L -4.29,-3.94 Z"></path></g><g transform="translate(446.6666564941406 57.33332824707031) rotate(0 -6.33331298828125 18.666671752929688)" stroke="none"><path fill="#1e1e1e" d="M -3.71,4.05 Q -3.71,4.05 -6.29,2.35 -8.86,0.65 -11.30,2.40 -13.73,4.15 -15.25,5.80 -16.78,7.45 -18.87,11.47 -20.96,15.49 -21.98,19.46 -22.99,23.43 -22.88,26.73 -22.77,30.03 -21.33,32.48 -19.90,34.93 -17.98,36.85 -16.07,38.78 -14.13,39.89 -12.18,41.00 -9.85,40.91 -7.51,40.82 -4.92,40.24 -2.34,39.66 -0.27,38.66 1.79,37.66 4.01,35.82 6.23,33.97 7.84,32.23 9.44,30.49 10.31,27.09 11.19,23.69 11.15,21.32 11.11,18.96 10.58,16.19 10.05,13.43 9.40,9.05 8.75,4.68 8.11,1.29 7.48,-2.09 7.95,-5.68 8.42,-9.27 8.29,-9.68 8.17,-10.08 8.18,-10.51 8.19,-10.93 8.33,-11.33 8.48,-11.73 8.74,-12.06 9.01,-12.39 9.37,-12.62 9.72,-12.85 10.14,-12.96 10.55,-13.06 10.97,-13.03 11.40,-12.99 11.79,-12.83 12.18,-12.66 12.50,-12.38 12.81,-12.10 13.02,-11.73 13.23,-11.36 13.31,-10.94 13.40,-10.52 13.34,-10.10 13.28,-9.68 13.10,-9.30 12.91,-8.92 12.61,-8.62 12.31,-8.32 11.93,-8.13 11.55,-7.94 11.13,-7.88 10.71,-7.82 10.29,-7.90 9.87,-7.98 9.50,-8.18 9.13,-8.39 8.85,-8.71 8.56,-9.02 8.39,-9.41 8.22,-9.80 8.19,-10.23 8.15,-10.65 8.25,-11.06 8.35,-11.48 8.58,-11.83 8.81,-12.19 9.14,-12.46 9.47,-12.73 9.87,-12.87 10.27,-13.02 10.69,-13.03 11.12,-13.05 11.52,-12.92 11.93,-12.80 12.28,-12.55 12.62,-12.31 12.87,-11.96 13.12,-11.62 13.12,-11.62 13.12,-11.62 17.11,-8.17 21.09,-4.73 21.75,-1.01 22.42,2.70 23.01,6.93 23.60,11.16 24.19,15.12 24.78,19.07 24.68,22.59 24.58,26.11 23.69,29.96 22.80,33.80 21.04,36.76 19.27,39.72 16.86,42.19 14.45,44.65 10.83,47.29 7.20,49.93 3.63,51.38 0.06,52.82 -4.30,53.47 -8.67,54.12 -13.66,53.31 -18.66,52.51 -22.27,50.14 -25.87,47.77 -28.87,44.22 -31.88,40.66 -33.91,35.63 -35.95,30.59 -35.87,25.30 -35.79,20.00 -34.19,14.57 -32.58,9.14 -29.42,3.68 -26.25,-1.78 -23.51,-4.41 -20.77,-7.04 -17.65,-8.83 -14.53,-10.62 -10.54,-11.19 -6.54,-11.76 -3.43,-10.42 -0.33,-9.08 1.69,-6.56 3.71,-4.05 4.14,-3.54 4.57,-3.04 4.87,-2.45 5.17,-1.86 5.32,-1.21 5.46,-0.56 5.45,0.09 5.44,0.75 5.27,1.39 5.10,2.03 4.78,2.61 4.47,3.20 4.02,3.68 3.57,4.17 3.02,4.54 2.47,4.91 1.84,5.13 1.22,5.36 0.56,5.42 -0.09,5.49 -0.75,5.40 -1.40,5.31 -2.02,5.06 -2.63,4.82 -3.17,4.43 -3.71,4.05 -3.71,4.05 L -3.71,4.05 Z"></path></g><g transform="translate(352.6666564941406 215.3333282470703) rotate(0 26 15.666671752929688)" stroke="none"><path fill="#1e1e1e" d="M 4.17,-4.45 Q 4.17,-4.45 7.53,-1.89 10.89,0.67 13.58,2.90 16.28,5.13 18.27,6.57 20.26,8.01 24.67,10.87 29.08,13.73 32.77,15.85 36.46,17.96 39.52,19.32 42.58,20.68 45.32,21.89 48.05,23.09 49.75,25.78 51.45,28.46 51.84,28.64 52.23,28.81 52.54,29.10 52.85,29.39 53.05,29.77 53.25,30.14 53.33,30.56 53.40,30.98 53.34,31.40 53.27,31.82 53.08,32.19 52.88,32.57 52.57,32.87 52.27,33.16 51.89,33.34 51.50,33.53 51.08,33.58 50.66,33.63 50.24,33.54 49.83,33.45 49.46,33.24 49.09,33.02 48.81,32.70 48.54,32.38 48.38,31.99 48.21,31.59 48.19,31.17 48.16,30.74 48.27,30.33 48.38,29.92 48.61,29.57 48.85,29.22 49.18,28.95 49.52,28.69 49.92,28.55 50.32,28.41 50.75,28.41 51.17,28.41 51.58,28.54 51.98,28.67 52.32,28.92 52.66,29.18 52.90,29.53 53.15,29.88 53.26,30.28 53.38,30.69 53.36,31.12 53.34,31.54 53.19,31.94 53.04,32.33 52.77,32.66 52.49,32.99 52.13,33.21 51.77,33.43 51.36,33.53 50.94,33.62 50.52,33.58 50.10,33.54 50.10,33.54 50.10,33.54 46.25,34.75 42.41,35.96 39.61,34.72 36.80,33.48 33.13,31.80 29.46,30.13 25.44,27.80 21.43,25.47 16.71,22.39 12.00,19.30 9.66,17.57 7.32,15.85 4.35,13.33 1.37,10.82 -1.40,7.64 -4.17,4.45 -4.65,3.89 -5.12,3.32 -5.44,2.66 -5.77,2.00 -5.92,1.28 -6.08,0.56 -6.06,-0.17 -6.04,-0.90 -5.84,-1.61 -5.64,-2.32 -5.28,-2.96 -4.92,-3.61 -4.42,-4.14 -3.92,-4.68 -3.30,-5.08 -2.68,-5.48 -1.98,-5.72 -1.29,-5.97 -0.56,-6.03 0.17,-6.10 0.90,-5.99 1.62,-5.88 2.30,-5.60 2.99,-5.32 3.58,-4.89 4.17,-4.45 4.17,-4.45 L 4.17,-4.45 Z"></path></g><g transform="translate(462.6666564941406 284.6666717529297) rotate(0 4.66668701171875 -5.6666717529296875)" stroke="none"><path fill="#1e1e1e" d="M -5.61,-0.99 Q -5.61,-0.99 -5.26,-4.28 -4.90,-7.57 -5.49,-9.81 -6.07,-12.05 -8.30,-13.35 -10.53,-14.65 -12.71,-12.50 -14.89,-10.36 -14.95,-5.79 -15.01,-1.21 -14.29,1.40 -13.57,4.03 -10.29,7.17 -7.00,10.31 -4.70,11.39 -2.40,12.46 0.53,12.42 3.47,12.37 6.88,11.25 10.29,10.13 13.01,8.56 15.72,6.99 17.62,5.01 19.51,3.02 21.03,0.15 22.55,-2.70 23.59,-5.47 24.63,-8.24 24.98,-10.84 25.34,-13.43 24.80,-16.13 24.27,-18.82 23.26,-20.71 22.25,-22.60 19.29,-23.54 16.33,-24.47 14.15,-24.11 11.98,-23.75 9.43,-25.34 6.87,-26.92 6.45,-26.92 6.02,-26.92 5.62,-27.06 5.22,-27.19 4.88,-27.45 4.54,-27.70 4.30,-28.05 4.06,-28.40 3.94,-28.81 3.83,-29.22 3.85,-29.65 3.87,-30.07 4.03,-30.47 4.18,-30.86 4.46,-31.19 4.73,-31.51 5.09,-31.73 5.46,-31.95 5.87,-32.04 6.29,-32.14 6.71,-32.09 7.13,-32.05 7.52,-31.87 7.91,-31.69 8.21,-31.40 8.52,-31.11 8.72,-30.74 8.93,-30.36 9.00,-29.94 9.07,-29.52 9.00,-29.10 8.93,-28.69 8.73,-28.31 8.54,-27.93 8.23,-27.64 7.92,-27.35 7.54,-27.17 7.15,-26.99 6.73,-26.94 6.31,-26.89 5.89,-26.98 5.48,-27.07 5.11,-27.29 4.75,-27.51 4.47,-27.83 4.19,-28.15 4.03,-28.55 3.88,-28.94 3.85,-29.37 3.83,-29.79 3.94,-30.20 4.05,-30.61 4.29,-30.96 4.53,-31.31 4.86,-31.57 5.20,-31.83 5.60,-31.97 6.01,-32.11 6.00,-32.11 6.00,-32.11 8.49,-34.54 10.97,-36.97 15.32,-37.11 19.67,-37.24 23.50,-35.93 27.33,-34.61 30.58,-31.69 33.82,-28.77 35.57,-24.83 37.31,-20.90 37.86,-16.19 38.40,-11.49 37.68,-7.50 36.97,-3.50 35.48,0.19 34.00,3.90 31.39,8.15 28.77,12.41 25.45,15.46 22.14,18.51 18.00,20.67 13.87,22.82 8.37,24.16 2.87,25.50 -2.51,24.92 -7.91,24.34 -11.68,22.37 -15.45,20.39 -18.70,17.47 -21.94,14.56 -24.08,11.01 -26.22,7.46 -27.17,3.43 -28.12,-0.60 -28.14,-5.46 -28.15,-10.32 -26.57,-14.45 -25.00,-18.58 -22.09,-21.55 -19.17,-24.52 -15.72,-25.79 -12.26,-27.06 -8.66,-26.70 -5.07,-26.33 -2.19,-24.66 0.68,-22.99 3.14,-20.03 5.61,-17.07 6.55,-13.96 7.49,-10.86 7.35,-8.16 7.20,-5.45 6.41,-2.23 5.61,0.99 5.41,1.64 5.21,2.30 4.86,2.89 4.51,3.48 4.03,3.97 3.54,4.46 2.96,4.82 2.37,5.18 1.72,5.39 1.06,5.60 0.37,5.65 -0.30,5.69 -0.98,5.57 -1.66,5.45 -2.29,5.17 -2.91,4.90 -3.46,4.48 -4.00,4.05 -4.43,3.52 -4.86,2.98 -5.14,2.35 -5.43,1.73 -5.56,1.05 -5.69,0.38 -5.65,-0.30 -5.61,-0.99 -5.61,-0.99 L -5.61,-0.99 Z"></path></g><g transform="translate(514.6666564941406 289.3333282470703) rotate(0 19.3333740234375 0.6666717529296875)" stroke="none"><path fill="#1e1e1e" d="M 0.61,-5.52 Q 0.61,-5.52 4.08,-5.35 7.55,-5.17 9.81,-5.26 12.06,-5.35 14.92,-5.40 17.77,-5.46 23.01,-5.55 28.24,-5.64 33.13,-4.12 38.03,-2.60 38.45,-2.55 38.87,-2.49 39.25,-2.31 39.64,-2.13 39.94,-1.83 40.25,-1.54 40.44,-1.16 40.63,-0.78 40.70,-0.36 40.76,0.05 40.69,0.47 40.61,0.89 40.41,1.26 40.21,1.63 39.89,1.92 39.58,2.21 39.19,2.38 38.81,2.56 38.38,2.60 37.96,2.64 37.55,2.54 37.13,2.44 36.77,2.22 36.41,2.00 36.14,1.67 35.87,1.34 35.71,0.95 35.56,0.55 35.55,0.12 35.53,-0.29 35.65,-0.70 35.77,-1.11 36.01,-1.46 36.25,-1.80 36.59,-2.06 36.93,-2.31 37.34,-2.44 37.74,-2.57 38.17,-2.56 38.59,-2.56 38.99,-2.42 39.40,-2.28 39.73,-2.02 40.07,-1.75 40.30,-1.40 40.53,-1.05 40.64,-0.63 40.75,-0.22 40.72,0.19 40.69,0.61 40.53,1.01 40.37,1.40 40.09,1.72 39.81,2.04 39.44,2.26 39.08,2.47 38.66,2.56 38.24,2.64 38.24,2.64 38.24,2.64 35.75,4.62 33.25,6.60 30.75,6.79 28.25,6.98 23.04,6.91 17.83,6.83 15.01,6.80 12.19,6.76 9.22,6.74 6.24,6.71 2.81,6.11 -0.61,5.52 -1.26,5.37 -1.91,5.21 -2.51,4.91 -3.11,4.60 -3.61,4.16 -4.12,3.72 -4.50,3.18 -4.89,2.63 -5.13,2.00 -5.38,1.38 -5.47,0.72 -5.55,0.05 -5.48,-0.60 -5.40,-1.27 -5.17,-1.90 -4.94,-2.53 -4.57,-3.08 -4.19,-3.64 -3.70,-4.09 -3.20,-4.54 -2.61,-4.85 -2.02,-5.17 -1.37,-5.34 -0.72,-5.51 -0.05,-5.51 0.61,-5.52 0.61,-5.52 L 0.61,-5.52 Z"></path></g><g transform="translate(574.6666564941406 265.3333282470703) rotate(0 2.3333740234375 20)" stroke="none"><path fill="#1e1e1e" d="M 5.40,-0.63 Q 5.40,-0.63 7.11,10.82 8.83,22.28 7.63,27.37 6.43,32.47 6.41,32.89 6.39,33.31 6.23,33.71 6.08,34.11 5.81,34.43 5.53,34.76 5.17,34.98 4.81,35.20 4.40,35.30 3.98,35.39 3.56,35.35 3.14,35.31 2.75,35.13 2.36,34.96 2.05,34.67 1.74,34.38 1.54,34.00 1.34,33.63 1.26,33.21 1.19,32.79 1.26,32.37 1.32,31.95 1.52,31.57 1.72,31.20 2.02,30.90 2.33,30.61 2.71,30.43 3.10,30.24 3.52,30.20 3.94,30.15 4.36,30.23 4.77,30.32 5.14,30.54 5.50,30.76 5.78,31.08 6.06,31.40 6.22,31.79 6.38,32.19 6.41,32.61 6.43,33.03 6.32,33.44 6.21,33.85 5.98,34.21 5.74,34.56 5.40,34.82 5.07,35.08 4.67,35.22 4.26,35.36 3.84,35.36 3.41,35.37 3.01,35.23 2.61,35.10 2.27,34.85 1.93,34.59 1.68,34.24 1.44,33.89 1.33,33.48 1.21,33.07 1.21,33.07 1.21,33.07 -1.12,28.39 -3.46,23.71 -4.43,12.17 -5.40,0.63 -5.40,-0.02 -5.40,-0.68 -5.24,-1.31 -5.08,-1.95 -4.77,-2.53 -4.46,-3.11 -4.02,-3.60 -3.59,-4.09 -3.04,-4.46 -2.50,-4.83 -1.89,-5.06 -1.27,-5.29 -0.62,-5.36 0.02,-5.44 0.67,-5.36 1.32,-5.28 1.94,-5.04 2.55,-4.80 3.09,-4.43 3.62,-4.05 4.06,-3.56 4.49,-3.07 4.79,-2.48 5.09,-1.90 5.25,-1.26 5.40,-0.63 5.40,-0.63 L 5.40,-0.63 Z"></path></g><g transform="translate(584.6666564941406 288.00001525878906) rotate(0 10.66668701171875 1.3333282470703125)" stroke="none"><path fill="#1e1e1e" d="M 0.63,-5.11 Q 0.63,-5.11 6.82,-4.72 13.00,-4.33 15.40,-2.37 17.80,-0.42 18.21,-0.30 18.62,-0.18 18.96,0.06 19.31,0.30 19.56,0.64 19.82,0.99 19.94,1.39 20.07,1.80 20.07,2.22 20.06,2.65 19.92,3.05 19.78,3.45 19.51,3.78 19.25,4.12 18.89,4.35 18.54,4.58 18.13,4.69 17.72,4.80 17.29,4.77 16.87,4.74 16.48,4.57 16.08,4.41 15.77,4.13 15.45,3.85 15.23,3.48 15.02,3.11 14.93,2.70 14.85,2.28 14.90,1.86 14.96,1.44 15.14,1.05 15.33,0.67 15.62,0.37 15.92,0.06 16.30,-0.12 16.68,-0.31 17.10,-0.37 17.52,-0.44 17.94,-0.36 18.35,-0.29 18.73,-0.08 19.10,0.12 19.39,0.43 19.67,0.74 19.84,1.13 20.02,1.52 20.06,1.94 20.10,2.36 20.00,2.78 19.90,3.19 19.67,3.55 19.45,3.91 19.12,4.18 18.79,4.45 18.40,4.60 18.00,4.75 17.57,4.77 17.15,4.79 17.15,4.79 17.15,4.79 14.34,6.09 11.53,7.40 5.44,6.26 -0.63,5.11 -1.24,4.96 -1.84,4.81 -2.39,4.52 -2.94,4.23 -3.40,3.82 -3.87,3.40 -4.22,2.89 -4.57,2.38 -4.79,1.79 -5.01,1.21 -5.08,0.59 -5.15,-0.01 -5.08,-0.63 -5.00,-1.25 -4.78,-1.83 -4.55,-2.41 -4.20,-2.92 -3.84,-3.43 -3.38,-3.84 -2.91,-4.25 -2.36,-4.54 -1.81,-4.82 -1.20,-4.97 -0.60,-5.12 0.01,-5.11 0.64,-5.11 0.63,-5.11 L 0.63,-5.11 Z"></path></g><g transform="translate(615.3334045410156 269.3333282470703) rotate(0 1.6666259765625 24.000015258789062)" stroke="none"><path fill="#1e1e1e" d="M 4.81,-1.01 Q 4.81,-1.01 5.87,2.56 6.93,6.14 7.49,10.81 8.06,15.48 8.30,19.64 8.53,23.80 8.45,27.64 8.36,31.47 8.13,35.59 7.89,39.70 7.59,42.51 7.30,45.32 5.64,47.81 3.98,50.30 3.89,50.71 3.79,51.13 3.57,51.49 3.35,51.85 3.02,52.13 2.70,52.40 2.30,52.55 1.90,52.71 1.48,52.73 1.05,52.74 0.65,52.63 0.24,52.51 -0.10,52.27 -0.45,52.03 -0.71,51.69 -0.96,51.35 -1.09,50.94 -1.22,50.54 -1.22,50.11 -1.22,49.69 -1.08,49.29 -0.94,48.89 -0.68,48.55 -0.42,48.21 -0.06,47.98 0.28,47.74 0.69,47.63 1.10,47.52 1.52,47.55 1.95,47.58 2.34,47.74 2.73,47.90 3.06,48.18 3.38,48.45 3.59,48.82 3.81,49.19 3.90,49.60 3.99,50.02 3.94,50.44 3.89,50.86 3.70,51.24 3.52,51.63 3.23,51.93 2.93,52.24 2.56,52.44 2.18,52.63 1.76,52.70 1.34,52.76 0.92,52.69 0.50,52.62 0.13,52.42 -0.24,52.21 -0.53,51.90 -0.82,51.59 -0.99,51.20 -1.17,50.82 -1.21,50.39 -1.25,49.97 -1.25,49.97 -1.25,49.97 -2.51,47.04 -3.77,44.11 -3.49,41.58 -3.20,39.05 -2.97,35.11 -2.73,31.17 -2.63,27.79 -2.52,24.40 -2.72,20.58 -2.92,16.77 -3.39,12.59 -3.86,8.41 -4.33,4.71 -4.81,1.01 -4.86,0.42 -4.91,-0.16 -4.82,-0.75 -4.73,-1.33 -4.50,-1.88 -4.27,-2.43 -3.92,-2.90 -3.56,-3.38 -3.11,-3.76 -2.65,-4.14 -2.11,-4.39 -1.58,-4.65 -1.00,-4.77 -0.42,-4.89 0.16,-4.87 0.75,-4.85 1.32,-4.69 1.90,-4.53 2.41,-4.24 2.93,-3.94 3.36,-3.54 3.79,-3.13 4.11,-2.63 4.43,-2.13 4.62,-1.57 4.81,-1.01 4.81,-1.01 L 4.81,-1.01 Z"></path></g></svg>