<svg version="1.1" xmlns="http://www.w3.org/2000/svg" viewBox="0 0 434.66668701171875 538.6666870117188" width="434.66668701171875" height="538.6666870117188" class="excalidraw-svg"><!-- svg-source:excalidraw --><metadata></metadata><defs><style class="style-fonts">
      </style></defs><rect x="0" y="0" width="434.66668701171875" height="538.6666870117188" fill="#ffffff"></rect><g transform="translate(60.66668701171875 279.3333740234375) rotate(0 2.33331298828125 82.66665649414062)" stroke="none"><path fill="#1e1e1e" d="M 4.75,0 Q 4.75,0 5.08,3.44 5.41,6.89 5.61,10.85 5.81,14.81 6.04,18.85 6.27,22.89 6.70,29.85 7.13,36.81 7.90,46.56 8.67,56.32 9.21,65.34 9.76,74.37 10.18,82.81 10.61,91.24 10.80,99.89 10.99,108.54 11.08,115.66 11.18,122.78 11.04,129.55 10.90,136.32 10.67,141.72 10.43,147.13 10.35,151.61 10.27,156.08 7.85,159.97 5.43,163.86 5.32,164.27 5.22,164.68 4.99,165.04 4.75,165.40 4.42,165.66 4.09,165.92 3.69,166.07 3.29,166.21 2.86,166.22 2.44,166.23 2.03,166.10 1.63,165.97 1.29,165.72 0.94,165.47 0.70,165.13 0.45,164.78 0.33,164.37 0.21,163.97 0.22,163.54 0.24,163.12 0.38,162.72 0.53,162.32 0.80,161.99 1.07,161.66 1.43,161.44 1.79,161.21 2.20,161.11 2.62,161.01 3.04,161.05 3.46,161.08 3.85,161.25 4.24,161.43 4.56,161.71 4.87,162.00 5.08,162.37 5.28,162.74 5.36,163.16 5.44,163.58 5.38,164.00 5.32,164.42 5.13,164.80 4.93,165.18 4.63,165.47 4.33,165.77 3.95,165.96 3.56,166.15 3.14,166.20 2.72,166.25 2.31,166.17 1.89,166.09 1.52,165.88 1.15,165.66 0.87,165.35 0.59,165.03 0.42,164.64 0.26,164.24 0.23,163.82 0.20,163.40 0.20,163.40 0.20,163.40 -1.54,159.58 -3.28,155.75 -3.14,151.11 -3.00,146.47 -2.71,141.23 -2.43,136.00 -2.24,129.46 -2.06,122.92 -2.11,115.86 -2.15,108.80 -2.30,100.33 -2.45,91.86 -2.82,83.47 -3.19,75.07 -3.62,66.14 -4.05,57.21 -4.66,47.25 -5.27,37.30 -5.39,30.36 -5.50,23.43 -5.66,19.12 -5.81,14.81 -5.61,10.85 -5.41,6.89 -5.08,3.44 -4.75,0 -4.68,-0.56 -4.61,-1.13 -4.41,-1.67 -4.21,-2.21 -3.88,-2.68 -3.56,-3.15 -3.13,-3.53 -2.70,-3.91 -2.19,-4.18 -1.68,-4.44 -1.12,-4.58 -0.57,-4.72 0.00,-4.72 0.57,-4.72 1.13,-4.58 1.68,-4.44 2.19,-4.18 2.70,-3.91 3.13,-3.53 3.56,-3.15 3.88,-2.68 4.21,-2.21 4.41,-1.67 4.61,-1.13 4.68,-0.56 4.75,0.00 4.75,0.00 L 4.75,0 Z"></path></g><g transform="translate(74.66668701171875 445.3333740234375) rotate(0 46.666656494140625 37)" stroke="none"><path fill="#1e1e1e" d="M 2.84,-4.98 Q 2.84,-4.98 5.74,-3.81 8.63,-2.65 11.22,-0.92 13.80,0.79 16.15,2.41 18.50,4.03 20.77,5.75 23.04,7.48 26.22,10.20 29.40,12.92 33.16,16.10 36.93,19.28 41.23,22.94 45.54,26.59 50.05,30.45 54.56,34.30 58.18,36.92 61.79,39.53 66.05,42.92 70.30,46.30 74.18,49.43 78.06,52.56 80.86,54.50 83.65,56.44 86.42,58.58 89.18,60.72 91.43,62.66 93.67,64.61 93.99,67.97 94.31,71.33 94.57,71.67 94.84,72.00 94.98,72.40 95.12,72.80 95.13,73.23 95.13,73.65 95.00,74.06 94.87,74.46 94.62,74.80 94.37,75.15 94.02,75.39 93.67,75.63 93.27,75.75 92.86,75.87 92.43,75.86 92.01,75.84 91.61,75.69 91.22,75.54 90.89,75.27 90.56,75.00 90.34,74.64 90.11,74.28 90.01,73.86 89.92,73.45 89.95,73.03 89.99,72.60 90.17,72.21 90.34,71.83 90.63,71.51 90.91,71.20 91.29,71.00 91.66,70.79 92.08,70.72 92.50,70.64 92.92,70.70 93.34,70.77 93.71,70.96 94.09,71.15 94.39,71.46 94.69,71.76 94.87,72.14 95.06,72.53 95.11,72.95 95.16,73.37 95.08,73.79 94.99,74.20 94.78,74.57 94.56,74.94 94.24,75.22 93.92,75.50 93.53,75.66 93.14,75.82 92.71,75.85 92.29,75.88 91.88,75.77 91.47,75.67 91.11,75.43 90.76,75.20 90.76,75.20 90.76,75.20 87.48,75.26 84.21,75.32 82.32,73.61 80.43,71.91 77.97,69.96 75.52,68.02 72.35,65.77 69.19,63.52 65.35,60.41 61.51,57.29 57.52,54.08 53.54,50.87 49.49,47.91 45.44,44.95 40.94,41.08 36.44,37.22 32.18,33.53 27.91,29.85 24.13,26.59 20.35,23.33 17.50,20.80 14.65,18.28 12.64,16.70 10.64,15.11 8.36,13.44 6.08,11.77 4.09,10.28 2.09,8.78 -0.37,6.88 -2.84,4.98 -3.40,4.56 -3.95,4.15 -4.39,3.62 -4.83,3.08 -5.13,2.46 -5.43,1.84 -5.57,1.16 -5.71,0.48 -5.69,-0.20 -5.66,-0.89 -5.47,-1.56 -5.28,-2.22 -4.94,-2.82 -4.60,-3.42 -4.12,-3.92 -3.64,-4.42 -3.06,-4.80 -2.48,-5.17 -1.82,-5.39 -1.17,-5.61 -0.48,-5.67 0.20,-5.73 0.88,-5.62 1.57,-5.51 2.21,-5.25 2.84,-4.98 2.84,-4.98 L 2.84,-4.98 Z"></path></g><g transform="translate(184.66668701171875 528.6666870117188) rotate(0 47.666656494140625 -45.666656494140625)" stroke="none"><path fill="#1e1e1e" d="M -2.70,-4.87 Q -2.70,-4.87 0.59,-7.05 3.89,-9.23 6.72,-11.41 9.55,-13.60 12.47,-16.05 15.39,-18.51 19.94,-22.93 24.49,-27.34 29.20,-31.78 33.91,-36.22 39.35,-41.36 44.79,-46.50 49.79,-51.19 54.79,-55.88 59.25,-60.62 63.72,-65.35 67.38,-69.31 71.03,-73.26 73.91,-76.46 76.78,-79.66 79.13,-82.34 81.49,-85.03 83.00,-86.89 84.51,-88.74 88.75,-90.68 92.99,-92.62 93.31,-92.90 93.63,-93.18 94.02,-93.34 94.41,-93.50 94.84,-93.53 95.26,-93.56 95.67,-93.46 96.08,-93.35 96.44,-93.11 96.79,-92.88 97.05,-92.55 97.32,-92.21 97.46,-91.81 97.60,-91.41 97.61,-90.99 97.61,-90.56 97.48,-90.16 97.35,-89.75 97.10,-89.41 96.85,-89.07 96.50,-88.82 96.15,-88.58 95.75,-88.46 95.34,-88.34 94.91,-88.36 94.49,-88.37 94.09,-88.53 93.69,-88.68 93.37,-88.95 93.04,-89.22 92.81,-89.58 92.59,-89.94 92.49,-90.35 92.39,-90.77 92.43,-91.19 92.47,-91.61 92.65,-92.00 92.82,-92.39 93.11,-92.70 93.39,-93.01 93.77,-93.22 94.14,-93.42 94.56,-93.50 94.98,-93.57 95.40,-93.51 95.82,-93.45 96.19,-93.26 96.57,-93.06 96.87,-92.76 97.17,-92.45 97.35,-92.07 97.53,-91.69 97.59,-91.27 97.64,-90.84 97.55,-90.43 97.47,-90.01 97.26,-89.64 97.04,-89.28 97.04,-89.28 97.04,-89.28 95.91,-84.76 94.78,-80.24 93.11,-78.26 91.45,-76.27 89.03,-73.53 86.61,-70.80 83.67,-67.54 80.73,-64.29 77.01,-60.28 73.28,-56.27 68.52,-51.28 63.76,-46.29 58.76,-41.63 53.76,-36.98 48.29,-31.85 42.83,-26.72 38.13,-22.32 33.43,-17.93 28.46,-13.30 23.49,-8.66 20.25,-6.06 17.01,-3.45 13.46,-0.94 9.90,1.56 6.30,3.21 2.70,4.87 2.08,5.12 1.46,5.38 0.79,5.47 0.13,5.57 -0.53,5.50 -1.20,5.44 -1.83,5.22 -2.47,4.99 -3.03,4.62 -3.59,4.25 -4.05,3.76 -4.51,3.27 -4.83,2.68 -5.16,2.10 -5.34,1.45 -5.51,0.80 -5.53,0.13 -5.54,-0.54 -5.40,-1.19 -5.25,-1.85 -4.96,-2.45 -4.66,-3.05 -4.22,-3.57 -3.79,-4.08 -3.25,-4.47 -2.70,-4.87 -2.70,-4.87 L -2.70,-4.87 Z"></path></g><g transform="translate(267.33331298828125 288.0000305175781) rotate(0 7.66668701171875 76)" stroke="none"><path fill="#1e1e1e" d="M 4.91,-2.26 Q 4.91,-2.26 6.44,0.07 7.97,2.41 9.13,7.82 10.29,13.22 10.85,16.17 11.42,19.11 11.95,28.86 12.49,38.61 12.89,46.97 13.29,55.34 13.48,64.54 13.67,73.74 14.12,81.51 14.57,89.28 15.53,98.62 16.49,107.97 17.28,114.63 18.07,121.29 18.82,127.81 19.56,134.32 20.25,139.51 20.95,144.69 19.35,148.99 17.76,153.29 17.73,153.72 17.71,154.14 17.55,154.53 17.39,154.93 17.11,155.25 16.84,155.57 16.47,155.79 16.11,156.01 15.69,156.10 15.27,156.19 14.85,156.14 14.43,156.09 14.05,155.91 13.66,155.73 13.35,155.44 13.05,155.14 12.85,154.77 12.65,154.39 12.58,153.97 12.52,153.55 12.59,153.13 12.66,152.71 12.86,152.34 13.06,151.97 13.37,151.67 13.68,151.38 14.07,151.21 14.45,151.03 14.88,150.99 15.30,150.94 15.71,151.04 16.13,151.13 16.49,151.35 16.85,151.57 17.13,151.90 17.40,152.22 17.56,152.62 17.71,153.01 17.73,153.44 17.75,153.86 17.64,154.27 17.52,154.68 17.28,155.03 17.04,155.38 16.70,155.64 16.36,155.89 15.96,156.02 15.56,156.16 15.13,156.16 14.71,156.15 14.31,156.02 13.90,155.88 13.57,155.62 13.23,155.36 12.99,155.01 12.76,154.66 12.64,154.25 12.53,153.84 12.53,153.84 12.53,153.84 10.10,150.14 7.67,146.44 6.99,141.11 6.31,135.79 5.61,129.32 4.91,122.84 4.12,116.07 3.33,109.30 2.38,99.66 1.42,90.03 0.97,82.00 0.52,73.97 0.39,64.95 0.26,55.92 -0.08,47.56 -0.42,39.20 -0.75,30.34 -1.08,21.47 -1.64,18.51 -2.20,15.54 -2.79,11.54 -3.37,7.55 -4.14,4.90 -4.91,2.26 -5.11,1.64 -5.31,1.02 -5.35,0.37 -5.40,-0.27 -5.29,-0.91 -5.17,-1.56 -4.91,-2.15 -4.65,-2.75 -4.25,-3.27 -3.86,-3.78 -3.35,-4.19 -2.84,-4.60 -2.24,-4.87 -1.65,-5.14 -1.01,-5.27 -0.37,-5.39 0.27,-5.36 0.92,-5.32 1.54,-5.14 2.17,-4.95 2.73,-4.62 3.29,-4.28 3.76,-3.83 4.22,-3.37 4.56,-2.82 4.91,-2.26 4.91,-2.26 L 4.91,-2.26 Z"></path></g><g transform="translate(69.33331298828125 280.0000305175781) rotate(0 62.66668701171875 -29)" stroke="none"><path fill="#1e1e1e" d="M -3.33,-4.28 Q -3.33,-4.28 -1.78,-5.85 -0.23,-7.41 1.69,-8.92 3.63,-10.42 7.23,-12.44 10.83,-14.47 13.21,-15.53 15.59,-16.58 22.28,-19.41 28.96,-22.24 36.57,-24.84 44.18,-27.44 50.84,-30.01 57.50,-32.58 64.55,-35.41 71.60,-38.23 77.55,-40.92 83.49,-43.61 88.98,-46.43 94.47,-49.26 98.94,-51.62 103.41,-53.98 107.27,-55.98 111.13,-57.98 113.63,-59.37 116.14,-60.75 119.73,-60.26 123.32,-59.77 123.69,-59.97 124.07,-60.16 124.49,-60.23 124.91,-60.29 125.33,-60.22 125.75,-60.14 126.12,-59.94 126.50,-59.74 126.78,-59.42 127.07,-59.11 127.25,-58.72 127.42,-58.34 127.46,-57.91 127.50,-57.49 127.41,-57.08 127.31,-56.66 127.09,-56.30 126.86,-55.94 126.54,-55.67 126.21,-55.40 125.81,-55.24 125.42,-55.09 124.99,-55.07 124.57,-55.06 124.16,-55.17 123.75,-55.29 123.40,-55.54 123.05,-55.78 122.80,-56.12 122.55,-56.46 122.42,-56.86 122.28,-57.27 122.29,-57.69 122.29,-58.12 122.43,-58.52 122.58,-58.92 122.84,-59.26 123.10,-59.59 123.45,-59.83 123.81,-60.06 124.22,-60.17 124.63,-60.28 125.05,-60.25 125.48,-60.22 125.87,-60.06 126.26,-59.90 126.58,-59.62 126.90,-59.34 127.12,-58.97 127.33,-58.61 127.42,-58.19 127.51,-57.77 127.45,-57.35 127.40,-56.93 127.22,-56.55 127.04,-56.16 126.74,-55.86 126.45,-55.55 126.45,-55.55 126.45,-55.55 124.66,-51.98 122.87,-48.40 120.20,-46.96 117.53,-45.52 113.72,-43.58 109.91,-41.65 105.36,-39.26 100.80,-36.87 94.99,-33.91 89.17,-30.96 82.94,-28.18 76.71,-25.40 69.54,-22.58 62.38,-19.76 55.44,-17.15 48.49,-14.54 41.24,-12.17 33.98,-9.79 25.37,-6.45 16.76,-3.11 13.78,-1.70 10.80,-0.29 8.96,0.88 7.13,2.05 5.23,3.16 3.33,4.28 2.77,4.61 2.20,4.95 1.58,5.14 0.95,5.34 0.30,5.37 -0.34,5.41 -0.98,5.29 -1.63,5.17 -2.22,4.90 -2.82,4.63 -3.33,4.22 -3.85,3.82 -4.25,3.30 -4.65,2.79 -4.92,2.19 -5.18,1.59 -5.30,0.95 -5.41,0.30 -5.37,-0.34 -5.33,-0.99 -5.13,-1.62 -4.94,-2.24 -4.59,-2.80 -4.25,-3.36 -3.79,-3.82 -3.33,-4.28 -3.33,-4.28 L -3.33,-4.28 Z"></path></g><g transform="translate(196 222.66668701171875) rotate(0 35.333343505859375 36)" stroke="none"><path fill="#1e1e1e" d="M 4.01,-3.56 Q 4.01,-3.56 10.63,2.89 17.25,9.36 25.09,18.22 32.92,27.07 39.87,34.83 46.82,42.59 50.65,46.58 54.48,50.56 58.17,54.12 61.86,57.67 64.44,59.82 67.02,61.98 68.82,65.33 70.62,68.68 71.03,68.80 71.44,68.91 71.79,69.15 72.15,69.39 72.40,69.72 72.66,70.06 72.80,70.46 72.93,70.87 72.93,71.29 72.93,71.72 72.80,72.12 72.66,72.52 72.40,72.86 72.15,73.20 71.79,73.44 71.44,73.68 71.03,73.79 70.62,73.90 70.20,73.88 69.78,73.86 69.38,73.70 68.99,73.54 68.66,73.27 68.34,72.99 68.12,72.63 67.90,72.27 67.81,71.85 67.72,71.44 67.76,71.01 67.81,70.59 67.99,70.21 68.17,69.82 68.46,69.51 68.75,69.20 69.12,69.00 69.50,68.80 69.92,68.74 70.34,68.67 70.76,68.74 71.18,68.80 71.55,69.00 71.93,69.20 72.22,69.51 72.51,69.82 72.69,70.20 72.87,70.59 72.92,71.01 72.96,71.44 72.87,71.85 72.78,72.27 72.56,72.63 72.34,72.99 72.02,73.27 71.69,73.54 71.30,73.70 70.90,73.86 70.48,73.88 70.06,73.90 70.06,73.90 70.06,73.90 66.28,74.75 62.50,75.60 60.34,74.05 58.17,72.49 55.24,70.01 52.32,67.53 48.46,63.78 44.61,60.03 40.62,55.86 36.62,51.68 29.67,43.85 22.73,36.01 15.00,27.12 7.27,18.23 1.62,10.90 -4.01,3.56 -4.38,3.03 -4.75,2.50 -4.98,1.89 -5.21,1.29 -5.29,0.65 -5.37,0.00 -5.29,-0.63 -5.21,-1.27 -4.98,-1.88 -4.76,-2.48 -4.39,-3.02 -4.02,-3.55 -3.54,-3.98 -3.05,-4.41 -2.48,-4.71 -1.91,-5.02 -1.28,-5.17 -0.65,-5.33 -0.00,-5.33 0.63,-5.33 1.26,-5.18 1.89,-5.02 2.47,-4.72 3.04,-4.42 3.53,-3.99 4.01,-3.56 4.01,-3.56 L 4.01,-3.56 Z"></path></g><g transform="translate(194 160.66665649414062) rotate(0 0.333343505859375 18.666671752929688)" stroke="none"><path fill="#1e1e1e" d="M 4.46,0.22 Q 4.46,0.22 5.01,4.09 5.56,7.96 5.97,12.70 6.38,17.45 6.75,21.67 7.11,25.88 7.48,29.36 7.84,32.84 6.18,35.45 4.53,38.05 4.49,38.47 4.46,38.90 4.29,39.29 4.12,39.68 3.84,39.99 3.55,40.31 3.18,40.52 2.81,40.73 2.40,40.81 1.98,40.89 1.56,40.83 1.14,40.77 0.76,40.59 0.38,40.40 0.08,40.10 -0.21,39.80 -0.40,39.42 -0.59,39.04 -0.65,38.61 -0.71,38.19 -0.63,37.78 -0.55,37.36 -0.34,36.99 -0.13,36.62 0.18,36.33 0.49,36.05 0.88,35.88 1.27,35.71 1.70,35.68 2.12,35.65 2.53,35.75 2.94,35.85 3.30,36.08 3.66,36.31 3.93,36.64 4.19,36.97 4.34,37.37 4.49,37.77 4.50,38.19 4.51,38.62 4.39,39.02 4.26,39.43 4.01,39.77 3.77,40.12 3.42,40.37 3.08,40.62 2.67,40.74 2.26,40.87 1.84,40.85 1.41,40.84 1.01,40.70 0.62,40.55 0.28,40.28 -0.04,40.02 -0.27,39.66 -0.49,39.30 -0.60,38.89 -0.70,38.48 -0.70,38.48 -0.70,38.48 -2.76,36.25 -4.81,34.02 -5.10,30.42 -5.39,26.82 -5.67,22.50 -5.94,18.19 -6.13,12.78 -6.33,7.37 -5.39,3.57 -4.46,-0.22 -4.37,-0.75 -4.27,-1.28 -4.06,-1.77 -3.84,-2.27 -3.51,-2.69 -3.19,-3.12 -2.77,-3.46 -2.35,-3.79 -1.86,-4.02 -1.37,-4.25 -0.84,-4.35 -0.31,-4.45 0.22,-4.42 0.75,-4.40 1.27,-4.24 1.79,-4.09 2.25,-3.81 2.71,-3.54 3.10,-3.16 3.48,-2.79 3.77,-2.33 4.05,-1.87 4.22,-1.36 4.38,-0.85 4.42,-0.31 4.46,0.22 4.46,0.22 L 4.46,0.22 Z"></path></g><g transform="translate(195.33331298828125 83.33332824707031) rotate(0 -4.999969482421875 25.333328247070312)" stroke="none"><path fill="#1e1e1e" d="M 1.92,4.80 Q 1.92,4.80 -1.69,6.75 -5.31,8.71 -7.83,11.05 -10.35,13.39 -12.71,16.93 -15.07,20.48 -16.60,23.66 -18.12,26.85 -18.81,29.99 -19.50,33.13 -19.08,35.88 -18.66,38.64 -16.04,40.88 -13.41,43.12 -9.75,43.13 -6.08,43.14 -2.31,42.97 1.45,42.80 4.04,42.22 6.62,41.65 10.59,42.01 14.55,42.38 14.96,42.27 15.37,42.15 15.79,42.18 16.22,42.20 16.61,42.36 17.01,42.52 17.33,42.80 17.65,43.07 17.87,43.44 18.09,43.80 18.18,44.22 18.27,44.63 18.22,45.06 18.17,45.48 17.99,45.86 17.81,46.25 17.52,46.56 17.23,46.86 16.85,47.06 16.47,47.26 16.05,47.33 15.63,47.39 15.21,47.32 14.80,47.25 14.42,47.05 14.05,46.85 13.76,46.54 13.46,46.23 13.29,45.85 13.11,45.46 13.07,45.04 13.02,44.61 13.11,44.20 13.21,43.79 13.43,43.42 13.65,43.06 13.97,42.79 14.30,42.51 14.69,42.36 15.09,42.20 15.51,42.18 15.94,42.16 16.35,42.27 16.76,42.39 17.11,42.63 17.46,42.87 17.71,43.21 17.97,43.55 18.10,43.95 18.24,44.35 18.24,44.78 18.23,45.20 18.10,45.60 17.96,46.01 17.70,46.34 17.44,46.68 17.09,46.92 16.74,47.16 16.74,47.16 16.74,47.15 13.06,51.02 9.38,54.89 5.66,55.59 1.94,56.29 -2.80,56.41 -7.55,56.52 -14.00,55.41 -20.46,54.29 -23.93,51.51 -27.41,48.74 -29.56,44.56 -31.71,40.38 -32.00,35.27 -32.29,30.16 -31.03,25.61 -29.78,21.05 -27.64,16.97 -25.51,12.88 -21.95,8.33 -18.39,3.77 -14.20,0.59 -10.01,-2.58 -5.97,-3.69 -1.92,-4.80 -1.31,-4.96 -0.71,-5.12 -0.09,-5.13 0.53,-5.14 1.13,-5.01 1.74,-4.87 2.30,-4.59 2.86,-4.31 3.33,-3.90 3.81,-3.50 4.17,-2.99 4.53,-2.48 4.77,-1.90 5.00,-1.32 5.08,-0.71 5.17,-0.09 5.11,0.52 5.04,1.14 4.83,1.73 4.62,2.32 4.28,2.84 3.93,3.36 3.47,3.78 3.01,4.20 2.46,4.50 1.92,4.80 1.92,4.80 L 1.92,4.80 Z"></path></g><g transform="translate(35.33331298828125 14.666656494140625) rotate(0 0.66668701171875 23.333343505859375)" stroke="none"><path fill="#1e1e1e" d="M -0.68,5.16 Q -0.68,5.16 -3.58,5.08 -6.47,5.00 -8.94,6.90 -11.41,8.79 -12.66,10.76 -13.91,12.74 -15.24,16.31 -16.57,19.87 -16.31,23.98 -16.06,28.08 -14.88,31.64 -13.71,35.20 -11.52,37.48 -9.34,39.77 -5.99,40.97 -2.65,42.18 0.40,42.20 3.46,42.22 6.04,41.32 8.62,40.42 11.30,38.36 13.98,36.30 15.70,33.74 17.43,31.19 17.77,28.52 18.11,25.86 17.31,22.55 16.50,19.24 14.89,16.02 13.28,12.80 11.50,9.87 9.73,6.94 8.16,4.93 6.59,2.92 6.75,0.77 6.91,-1.36 6.53,-1.56 6.16,-1.77 5.86,-2.07 5.57,-2.38 5.40,-2.77 5.22,-3.16 5.18,-3.58 5.13,-4.00 5.22,-4.42 5.32,-4.83 5.54,-5.19 5.76,-5.56 6.08,-5.83 6.41,-6.11 6.80,-6.26 7.20,-6.42 7.62,-6.44 8.05,-6.46 8.46,-6.34 8.87,-6.23 9.22,-5.99 9.57,-5.75 9.82,-5.41 10.08,-5.07 10.21,-4.67 10.35,-4.26 10.35,-3.84 10.34,-3.41 10.21,-3.01 10.07,-2.61 9.81,-2.27 9.55,-1.94 9.20,-1.70 8.85,-1.46 8.44,-1.35 8.03,-1.24 7.60,-1.26 7.18,-1.29 6.78,-1.45 6.39,-1.60 6.07,-1.88 5.74,-2.16 5.53,-2.52 5.31,-2.89 5.22,-3.30 5.13,-3.72 5.18,-4.14 5.23,-4.56 5.41,-4.95 5.59,-5.33 5.88,-5.64 6.17,-5.95 6.55,-6.15 6.93,-6.34 7.34,-6.41 7.76,-6.48 8.18,-6.41 8.60,-6.34 8.60,-6.34 8.60,-6.34 12.97,-5.84 17.34,-5.34 19.34,-2.67 21.34,-0.00 23.45,3.56 25.55,7.13 27.67,11.99 29.78,16.85 30.53,22.63 31.28,28.42 29.86,33.61 28.43,38.80 25.11,43.01 21.79,47.21 17.11,50.24 12.42,53.26 7.60,54.41 2.77,55.57 -2.57,54.99 -7.92,54.42 -13.53,51.53 -19.14,48.63 -22.69,43.98 -26.25,39.33 -27.76,33.79 -29.27,28.24 -29.01,21.74 -28.76,15.24 -26.48,10.10 -24.21,4.96 -21.48,1.77 -18.76,-1.40 -14.57,-3.79 -10.39,-6.19 -7.71,-6.36 -5.02,-6.54 -2.16,-5.85 0.68,-5.16 1.29,-5.00 1.90,-4.85 2.45,-4.55 3.01,-4.25 3.47,-3.83 3.94,-3.41 4.29,-2.88 4.64,-2.36 4.85,-1.77 5.07,-1.18 5.14,-0.56 5.21,0.06 5.12,0.68 5.04,1.30 4.81,1.89 4.58,2.47 4.22,2.98 3.86,3.50 3.38,3.91 2.91,4.32 2.35,4.61 1.79,4.89 1.17,5.03 0.56,5.18 -0.06,5.17 -0.68,5.16 -0.68,5.16 L -0.68,5.16 Z"></path></g><g transform="translate(66.66668701171875 84) rotate(0 19 16)" stroke="none"><path fill="#1e1e1e" d="M 3.81,-4.24 Q 3.81,-4.24 7.96,-1.13 12.10,1.96 15.43,5.25 18.76,8.54 20.50,10.27 22.24,11.99 24.34,14.03 26.45,16.07 29.19,18.21 31.92,20.35 34.28,21.63 36.65,22.90 37.59,26.06 38.53,29.23 38.85,29.51 39.16,29.79 39.37,30.16 39.59,30.53 39.67,30.94 39.75,31.36 39.70,31.78 39.64,32.20 39.45,32.58 39.27,32.97 38.97,33.27 38.67,33.57 38.29,33.76 37.91,33.95 37.49,34.01 37.07,34.07 36.65,34.00 36.23,33.92 35.86,33.71 35.49,33.50 35.21,33.19 34.92,32.87 34.75,32.48 34.58,32.10 34.54,31.67 34.51,31.25 34.61,30.84 34.71,30.42 34.93,30.06 35.16,29.70 35.49,29.44 35.82,29.17 36.22,29.02 36.62,28.87 37.04,28.86 37.47,28.84 37.87,28.96 38.28,29.09 38.63,29.33 38.97,29.58 39.22,29.92 39.47,30.27 39.60,30.67 39.73,31.08 39.72,31.50 39.71,31.93 39.56,32.33 39.42,32.73 39.16,33.06 38.89,33.39 38.53,33.62 38.18,33.85 37.77,33.96 37.35,34.06 36.93,34.03 36.51,34.00 36.12,33.83 35.72,33.67 35.72,33.67 35.72,33.67 32.72,34.34 29.72,35.02 26.47,33.09 23.22,31.16 19.98,28.46 16.74,25.77 14.69,23.64 12.64,21.52 10.93,19.77 9.21,18.01 6.22,14.92 3.22,11.83 -0.29,8.03 -3.81,4.24 -4.26,3.72 -4.71,3.20 -5.03,2.59 -5.34,1.98 -5.50,1.31 -5.66,0.64 -5.66,-0.04 -5.65,-0.73 -5.48,-1.39 -5.31,-2.06 -4.99,-2.67 -4.66,-3.27 -4.20,-3.78 -3.74,-4.29 -3.17,-4.68 -2.61,-5.07 -1.96,-5.31 -1.32,-5.54 -0.63,-5.62 0.04,-5.70 0.72,-5.61 1.40,-5.52 2.04,-5.27 2.69,-5.02 3.25,-4.63 3.81,-4.23 3.81,-4.23 L 3.81,-4.24 Z"></path></g><g transform="translate(88.66668701171875 58) rotate(0 22.33331298828125 18.333328247070312)" stroke="none"><path fill="#1e1e1e" d="M 3.48,-4.24 Q 3.48,-4.24 16.76,5.75 30.04,15.76 34.15,21.89 38.26,28.01 38.54,28.33 38.82,28.65 38.99,29.04 39.15,29.43 39.18,29.86 39.21,30.28 39.10,30.69 39.00,31.10 38.76,31.46 38.53,31.81 38.20,32.08 37.86,32.34 37.46,32.48 37.06,32.62 36.64,32.63 36.21,32.64 35.81,32.51 35.40,32.38 35.06,32.13 34.72,31.88 34.47,31.53 34.23,31.18 34.11,30.77 33.99,30.37 34.00,29.94 34.02,29.52 34.17,29.12 34.32,28.72 34.59,28.39 34.86,28.07 35.22,27.84 35.58,27.62 35.99,27.52 36.41,27.42 36.83,27.46 37.25,27.50 37.64,27.67 38.03,27.84 38.34,28.13 38.66,28.41 38.86,28.79 39.07,29.16 39.14,29.58 39.22,30.00 39.16,30.42 39.10,30.84 38.90,31.21 38.71,31.59 38.41,31.89 38.10,32.19 37.72,32.37 37.34,32.56 36.92,32.61 36.49,32.66 36.08,32.58 35.66,32.49 35.29,32.28 34.93,32.07 34.93,32.07 34.93,32.07 28.12,29.23 21.31,26.39 8.91,15.32 -3.48,4.24 -3.94,3.77 -4.40,3.29 -4.73,2.71 -5.06,2.14 -5.24,1.50 -5.42,0.86 -5.45,0.20 -5.47,-0.45 -5.34,-1.10 -5.21,-1.75 -4.92,-2.35 -4.63,-2.95 -4.21,-3.46 -3.79,-3.97 -3.26,-4.37 -2.73,-4.76 -2.12,-5.02 -1.51,-5.28 -0.86,-5.39 -0.20,-5.49 0.45,-5.43 1.11,-5.38 1.74,-5.17 2.37,-4.96 2.92,-4.60 3.48,-4.24 3.48,-4.24 L 3.48,-4.24 Z"></path></g><g transform="translate(237.33331298828125 89.33332824707031) rotate(0 22.333343505859375 -15.333335876464844)" stroke="none"><path fill="#1e1e1e" d="M -2.98,-4.30 Q -2.98,-4.30 1.81,-8.02 6.61,-11.74 9.60,-13.98 12.59,-16.22 16.78,-19.21 20.97,-22.21 23.95,-24.52 26.92,-26.83 30.45,-29.31 33.99,-31.79 36.20,-33.12 38.41,-34.45 39.36,-31.98 40.30,-29.52 40.60,-29.64 40.89,-29.77 41.20,-29.82 41.51,-29.87 41.83,-29.85 42.14,-29.83 42.44,-29.73 42.74,-29.63 43.01,-29.46 43.28,-29.29 43.50,-29.07 43.72,-28.84 43.88,-28.57 44.04,-28.29 44.13,-27.99 44.22,-27.68 44.24,-27.37 44.25,-27.05 44.19,-26.74 44.13,-26.43 43.99,-26.14 43.86,-25.86 43.66,-25.61 43.46,-25.36 43.21,-25.17 42.96,-24.98 43.21,-25.17 43.46,-25.37 43.11,-25.12 42.76,-24.88 42.36,-24.76 41.95,-24.64 41.52,-24.66 41.10,-24.68 40.70,-24.83 40.30,-24.98 39.98,-25.25 39.65,-25.52 39.43,-25.88 39.20,-26.25 39.11,-26.66 39.01,-27.07 39.05,-27.50 39.09,-27.92 39.26,-28.31 39.44,-28.70 39.73,-29.01 40.01,-29.32 40.39,-29.52 40.76,-29.73 41.18,-29.80 41.60,-29.88 42.02,-29.81 42.44,-29.75 42.82,-29.55 43.19,-29.36 43.49,-29.06 43.79,-28.75 43.97,-28.37 44.15,-27.98 44.20,-27.56 44.25,-27.14 44.17,-26.72 44.08,-26.31 43.87,-25.94 43.65,-25.57 43.33,-25.29 43.01,-25.02 42.62,-24.85 42.23,-24.69 41.80,-24.66 41.38,-24.63 40.97,-24.74 40.56,-24.85 40.20,-25.09 39.85,-25.32 39.59,-25.65 39.33,-25.99 39.18,-26.39 39.04,-26.79 39.04,-27.22 39.03,-27.64 39.16,-28.05 39.29,-28.45 39.80,-28.98 40.30,-29.52 40.59,-29.64 40.89,-29.77 41.20,-29.82 41.51,-29.87 41.83,-29.85 42.14,-29.83 42.44,-29.73 42.74,-29.63 43.01,-29.46 43.28,-29.29 43.50,-29.07 43.72,-28.84 43.88,-28.57 44.04,-28.29 44.13,-27.99 44.22,-27.68 44.24,-27.37 44.25,-27.05 44.19,-26.74 44.13,-26.43 43.99,-26.14 43.86,-25.86 43.66,-25.61 43.46,-25.36 43.21,-25.17 42.96,-24.98 43.93,-24.17 44.90,-23.36 43.04,-22.31 41.19,-21.26 37.85,-19.04 34.51,-16.83 31.25,-14.40 27.98,-11.98 23.81,-9.24 19.64,-6.50 16.48,-4.28 13.31,-2.05 8.14,1.12 2.98,4.30 2.42,4.60 1.86,4.89 1.25,5.04 0.63,5.19 0.00,5.19 -0.62,5.20 -1.23,5.05 -1.85,4.89 -2.41,4.60 -2.96,4.31 -3.44,3.89 -3.91,3.47 -4.27,2.95 -4.63,2.44 -4.85,1.85 -5.08,1.26 -5.16,0.63 -5.23,0.00 -5.16,-0.61 -5.08,-1.24 -4.86,-1.83 -4.64,-2.42 -4.28,-2.94 -3.92,-3.46 -3.45,-3.88 -2.98,-4.30 -2.98,-4.30 L -2.98,-4.30 Z"></path></g><g transform="translate(349.33331298828125 46) rotate(0 1.66668701171875 2.3333282470703125)" stroke="none"><path fill="#1e1e1e" d="M 3.88,-2.77 Q 3.88,-2.77 3.97,-0.80 4.05,1.15 4.24,1.53 4.42,1.91 4.48,2.34 4.54,2.76 4.46,3.17 4.37,3.59 4.16,3.96 3.95,4.33 3.64,4.61 3.32,4.90 2.93,5.06 2.54,5.23 2.12,5.26 1.69,5.30 1.28,5.19 0.87,5.09 0.51,4.86 0.15,4.63 -0.10,4.30 -0.37,3.96 -0.51,3.57 -0.66,3.17 -0.67,2.74 -0.68,2.32 -0.55,1.91 -0.43,1.50 -0.18,1.16 0.06,0.82 0.41,0.57 0.75,0.32 1.16,0.20 1.56,0.07 1.99,0.09 2.41,0.10 2.81,0.25 3.21,0.40 3.54,0.66 3.87,0.93 4.10,1.29 4.33,1.65 4.43,2.06 4.53,2.47 4.49,2.90 4.46,3.32 4.29,3.71 4.12,4.10 3.84,4.41 3.55,4.73 3.18,4.94 2.81,5.15 2.39,5.23 1.98,5.30 1.55,5.25 1.13,5.19 0.75,5.00 0.37,4.81 0.07,4.51 -0.22,4.20 -0.22,4.20 -0.22,4.21 -2.05,3.49 -3.88,2.77 -4.16,2.27 -4.43,1.76 -4.58,1.20 -4.73,0.65 -4.74,0.07 -4.75,-0.49 -4.62,-1.06 -4.49,-1.62 -4.23,-2.13 -3.97,-2.64 -3.59,-3.08 -3.22,-3.52 -2.75,-3.85 -2.28,-4.19 -1.75,-4.40 -1.21,-4.61 -0.64,-4.69 -0.07,-4.77 0.49,-4.71 1.06,-4.65 1.61,-4.45 2.15,-4.26 2.63,-3.94 3.10,-3.62 3.49,-3.20 3.88,-2.77 3.88,-2.77 L 3.88,-2.77 Z"></path></g><g transform="translate(347.33331298828125 52.666656494140625) rotate(0 -6.6666259765625 16.666671752929688)" stroke="none"><path fill="#1e1e1e" d="M -5.27,0 Q -5.27,0 -5.85,-1.66 -6.44,-3.33 -8.50,-4.55 -10.57,-5.76 -12.94,-5.96 -15.31,-6.17 -17.16,-3.77 -19.01,-1.38 -20.18,0.46 -21.35,2.30 -22.50,5.06 -23.65,7.83 -24.31,10.17 -24.96,12.51 -25.83,16.19 -26.70,19.87 -27.01,23.01 -27.32,26.15 -26.66,29.57 -25.99,32.99 -23.69,35.09 -21.38,37.18 -18.94,38.17 -16.51,39.15 -13.16,38.68 -9.81,38.21 -7.48,38.07 -5.15,37.93 -1.73,37.01 1.68,36.10 5.22,34.54 8.76,32.98 11.02,31.45 13.27,29.91 13.62,27.57 13.98,25.23 12.85,22.24 11.72,19.26 8.98,15.82 6.25,12.38 3.72,9.82 1.19,7.26 1.26,4.64 1.32,2.02 1.01,1.73 0.69,1.45 0.48,1.08 0.27,0.71 0.19,0.29 0.11,-0.12 0.17,-0.54 0.23,-0.96 0.41,-1.34 0.60,-1.72 0.90,-2.02 1.20,-2.32 1.59,-2.51 1.97,-2.70 2.39,-2.76 2.81,-2.81 3.23,-2.73 3.64,-2.65 4.01,-2.44 4.38,-2.23 4.67,-1.92 4.95,-1.60 5.12,-1.21 5.29,-0.82 5.32,-0.40 5.35,0.02 5.25,0.43 5.15,0.84 4.92,1.20 4.69,1.56 4.36,1.82 4.03,2.09 3.63,2.24 3.23,2.38 2.81,2.39 2.38,2.40 1.98,2.28 1.57,2.16 1.22,1.91 0.88,1.66 0.63,1.31 0.38,0.97 0.26,0.56 0.13,0.16 0.15,-0.26 0.16,-0.68 0.30,-1.08 0.45,-1.48 0.72,-1.81 0.98,-2.14 1.34,-2.37 1.70,-2.60 2.11,-2.70 2.52,-2.81 2.95,-2.77 3.37,-2.74 3.76,-2.57 4.15,-2.40 4.15,-2.40 4.15,-2.40 7.58,-2.87 11.01,-3.35 12.69,-1.75 14.37,-0.15 16.11,1.86 17.85,3.88 19.09,5.61 20.33,7.33 22.05,9.47 23.78,11.60 25.33,14.29 26.88,16.98 27.46,21.94 28.03,26.90 26.90,31.16 25.77,35.42 24.25,37.82 22.73,40.22 20.68,41.91 18.63,43.59 16.59,44.66 14.56,45.74 12.37,46.72 10.17,47.71 7.71,48.64 5.25,49.58 2.97,50.17 0.68,50.77 -1.80,51.28 -4.29,51.80 -6.56,51.93 -8.82,52.06 -14.47,52.24 -20.11,52.41 -22.98,51.45 -25.84,50.50 -27.75,49.33 -29.65,48.16 -32.88,45.37 -36.11,42.59 -37.54,39.92 -38.97,37.26 -39.90,33.89 -40.83,30.51 -40.84,27.59 -40.85,24.67 -40.38,20.71 -39.92,16.74 -38.95,12.72 -37.98,8.70 -37.03,5.55 -36.08,2.41 -34.35,-1.41 -32.61,-5.24 -30.61,-8.10 -28.61,-10.95 -26.30,-13.20 -23.99,-15.45 -20.62,-17.36 -17.25,-19.27 -14.33,-19.47 -11.41,-19.68 -9.10,-19.22 -6.78,-18.76 -3.18,-16.67 0.41,-14.58 2.93,-11.22 5.45,-7.86 5.95,-5.71 6.44,-3.56 5.85,-1.78 5.27,0 5.19,0.63 5.12,1.26 4.89,1.85 4.67,2.45 4.30,2.97 3.94,3.49 3.47,3.91 2.99,4.34 2.43,4.63 1.87,4.93 1.25,5.08 0.63,5.23 -0.00,5.23 -0.63,5.23 -1.25,5.08 -1.87,4.93 -2.43,4.63 -2.99,4.34 -3.47,3.91 -3.94,3.49 -4.30,2.97 -4.67,2.45 -4.89,1.85 -5.12,1.26 -5.19,0.63 -5.27,-0.00 -5.27,-0.00 L -5.27,0 Z"></path></g><g transform="translate(388 50) rotate(0 2 23)" stroke="none"><path fill="#1e1e1e" d="M 5.14,-0.85 Q 5.14,-0.85 6.52,3.63 7.91,8.13 8.67,12.81 9.44,17.48 9.79,21.40 10.14,25.33 10.32,29.36 10.50,33.39 10.39,36.64 10.29,39.89 8.14,42.40 5.99,44.92 5.91,45.34 5.83,45.75 5.62,46.12 5.40,46.49 5.09,46.77 4.77,47.06 4.38,47.22 3.99,47.39 3.56,47.42 3.14,47.45 2.73,47.35 2.32,47.24 1.96,47.01 1.60,46.78 1.34,46.45 1.07,46.12 0.93,45.72 0.78,45.32 0.77,44.89 0.76,44.47 0.89,44.06 1.02,43.66 1.27,43.31 1.52,42.97 1.86,42.72 2.21,42.48 2.62,42.35 3.02,42.23 3.45,42.25 3.87,42.26 4.27,42.41 4.67,42.56 5.00,42.82 5.33,43.09 5.56,43.45 5.78,43.81 5.88,44.22 5.98,44.64 5.95,45.06 5.91,45.48 5.74,45.87 5.57,46.26 5.29,46.58 5.00,46.89 4.63,47.10 4.26,47.31 3.84,47.38 3.42,47.46 3.00,47.40 2.58,47.34 2.20,47.15 1.82,46.96 1.52,46.66 1.22,46.36 1.04,45.98 0.85,45.60 0.79,45.17 0.74,44.75 0.74,44.75 0.74,44.75 -1.23,42.01 -3.21,39.27 -3.04,36.55 -2.88,33.83 -2.95,30.11 -3.03,26.40 -3.28,22.93 -3.54,19.46 -4.19,14.86 -4.84,10.26 -4.99,5.56 -5.14,0.85 -5.16,0.22 -5.19,-0.39 -5.07,-1.01 -4.95,-1.63 -4.68,-2.19 -4.41,-2.76 -4.02,-3.25 -3.62,-3.74 -3.12,-4.12 -2.62,-4.50 -2.04,-4.75 -1.47,-5.00 -0.85,-5.10 -0.23,-5.20 0.39,-5.15 1.02,-5.11 1.61,-4.91 2.21,-4.71 2.74,-4.38 3.28,-4.05 3.71,-3.59 4.15,-3.14 4.47,-2.60 4.78,-2.06 4.96,-1.45 5.14,-0.85 5.14,-0.85 L 5.14,-0.85 Z"></path></g><g transform="translate(397.33331298828125 77.33332824707031) rotate(0 13.66668701171875 5.333343505859375)" stroke="none"><path fill="#1e1e1e" d="M -3.64,-3.53 Q -3.64,-3.53 2.13,-10.57 7.91,-17.62 10.80,-20.59 13.68,-23.56 19.50,-24.61 25.33,-25.65 28.20,-19.56 31.07,-13.47 31.60,-8.31 32.13,-3.15 32.36,1.76 32.60,6.69 32.90,11.13 33.21,15.57 33.53,18.50 33.85,21.43 34.03,24.25 34.21,27.08 32.03,30.06 29.84,33.04 29.84,33.47 29.83,33.89 29.69,34.29 29.54,34.69 29.28,35.02 29.02,35.36 28.66,35.59 28.31,35.82 27.89,35.93 27.48,36.04 27.06,36.01 26.64,35.98 26.24,35.81 25.85,35.65 25.53,35.37 25.21,35.09 25.00,34.72 24.79,34.35 24.70,33.93 24.62,33.52 24.67,33.10 24.73,32.67 24.91,32.29 25.10,31.91 25.39,31.61 25.69,31.30 26.07,31.11 26.45,30.92 26.87,30.86 27.29,30.79 27.71,30.87 28.13,30.95 28.50,31.15 28.87,31.36 29.16,31.67 29.44,31.98 29.62,32.37 29.79,32.76 29.83,33.19 29.86,33.61 29.77,34.02 29.67,34.44 29.44,34.80 29.22,35.16 28.89,35.43 28.56,35.69 28.16,35.85 27.76,36.00 27.34,36.01 26.92,36.03 26.51,35.91 26.10,35.79 25.75,35.54 25.41,35.30 25.15,34.95 24.90,34.61 24.77,34.21 24.65,33.80 24.65,33.80 24.65,33.80 22.35,30.78 20.06,27.76 19.98,25.29 19.90,22.83 19.60,19.62 19.31,16.41 19.07,11.83 18.83,7.25 18.68,2.67 18.53,-1.89 18.15,-6.47 17.78,-11.04 17.46,-13.78 17.15,-16.52 20.14,-15.43 23.13,-14.34 20.25,-11.39 17.38,-8.44 10.51,-2.45 3.64,3.53 3.16,3.91 2.69,4.30 2.13,4.56 1.58,4.82 0.98,4.94 0.38,5.06 -0.22,5.03 -0.84,5.00 -1.42,4.83 -2.01,4.65 -2.54,4.35 -3.07,4.04 -3.50,3.61 -3.94,3.18 -4.27,2.67 -4.59,2.15 -4.78,1.57 -4.97,0.98 -5.02,0.37 -5.07,-0.23 -4.96,-0.83 -4.86,-1.43 -4.62,-1.99 -4.38,-2.56 -4.01,-3.04 -3.64,-3.53 -3.64,-3.53 L -3.64,-3.53 Z"></path></g><g transform="translate(418.66668701171875 60.666656494140625) rotate(0 2.666656494140625 -19.333328247070312)" stroke="none"><path fill="#1e1e1e" d="M -5.41,-0.74 Q -5.41,-0.74 -4.59,-11.96 -3.78,-23.17 -1.00,-27.60 1.76,-32.04 1.89,-32.44 2.01,-32.85 2.26,-33.19 2.51,-33.54 2.86,-33.79 3.20,-34.03 3.61,-34.16 4.01,-34.28 4.44,-34.27 4.86,-34.26 5.26,-34.11 5.66,-33.96 5.99,-33.69 6.32,-33.43 6.55,-33.07 6.78,-32.71 6.88,-32.30 6.98,-31.89 6.95,-31.46 6.91,-31.04 6.74,-30.65 6.58,-30.26 6.29,-29.94 6.01,-29.63 5.64,-29.42 5.27,-29.21 4.85,-29.13 4.43,-29.05 4.01,-29.11 3.59,-29.17 3.21,-29.36 2.83,-29.55 2.53,-29.85 2.23,-30.15 2.04,-30.53 1.85,-30.91 1.80,-31.33 1.74,-31.75 1.82,-32.17 1.90,-32.59 2.11,-32.96 2.32,-33.33 2.64,-33.61 2.95,-33.89 3.35,-34.06 3.74,-34.23 4.16,-34.26 4.58,-34.30 5.00,-34.19 5.41,-34.09 5.77,-33.86 6.12,-33.63 6.39,-33.30 6.65,-32.97 6.80,-32.57 6.95,-32.17 6.96,-31.74 6.97,-31.32 6.97,-31.32 6.97,-31.32 8.44,-26.30 9.91,-21.28 7.66,-10.27 5.41,0.74 5.24,1.38 5.07,2.01 4.76,2.59 4.44,3.17 4.00,3.66 3.55,4.14 3.00,4.51 2.45,4.87 1.84,5.10 1.22,5.32 0.56,5.39 -0.08,5.46 -0.74,5.37 -1.39,5.28 -2.00,5.03 -2.61,4.79 -3.15,4.41 -3.68,4.02 -4.11,3.52 -4.54,3.02 -4.84,2.44 -5.13,1.85 -5.28,1.21 -5.43,0.56 -5.42,-0.08 -5.41,-0.74 -5.41,-0.74 L -5.41,-0.74 Z"></path></g></svg>