<svg version="1.1" xmlns="http://www.w3.org/2000/svg" viewBox="0 0 269.33331298828125 440" width="269.33331298828125" height="440" class="excalidraw-svg"><!-- svg-source:excalidraw --><metadata></metadata><defs><style class="style-fonts">
      </style></defs><rect x="0" y="0" width="269.33331298828125" height="440" fill="#ffffff"></rect><g transform="translate(13.33331298828125 200) rotate(0 -0.33331298828125 76)" stroke="none"><path fill="#1e1e1e" d="M 5.41,0.73 Q 5.41,0.73 5.20,5.00 4.99,9.27 4.69,13.46 4.39,17.65 4.28,21.41 4.16,25.16 3.99,33.68 3.82,42.21 3.93,49.54 4.05,56.87 4.11,64.10 4.17,71.32 4.39,78.32 4.62,85.32 4.72,93.57 4.82,101.82 5.06,109.06 5.30,116.30 5.97,123.01 6.64,129.73 7.12,134.38 7.61,139.04 8.17,142.34 8.74,145.63 6.81,147.49 4.88,149.35 4.89,149.78 4.89,150.20 4.75,150.60 4.62,151.01 4.36,151.35 4.10,151.69 3.75,151.93 3.40,152.16 2.99,152.28 2.58,152.39 2.16,152.37 1.74,152.35 1.34,152.19 0.94,152.04 0.62,151.76 0.30,151.49 0.08,151.13 -0.13,150.76 -0.23,150.35 -0.32,149.93 -0.27,149.51 -0.23,149.09 -0.05,148.70 0.12,148.31 0.41,148.01 0.70,147.70 1.07,147.50 1.45,147.30 1.87,147.23 2.29,147.16 2.71,147.22 3.13,147.29 3.50,147.49 3.88,147.69 4.17,148.00 4.46,148.30 4.64,148.69 4.82,149.07 4.87,149.50 4.92,149.92 4.83,150.33 4.74,150.75 4.52,151.11 4.30,151.48 3.98,151.76 3.65,152.03 3.26,152.19 2.86,152.35 2.44,152.37 2.02,152.40 1.61,152.28 1.20,152.17 0.84,151.93 0.49,151.69 0.23,151.36 -0.01,151.02 -0.15,150.62 -0.29,150.21 -0.29,150.21 -0.29,150.21 -2.71,149.08 -5.14,147.95 -5.75,144.21 -6.35,140.47 -6.82,135.77 -7.29,131.08 -7.97,123.91 -8.64,116.74 -8.86,109.35 -9.08,101.97 -9.15,93.84 -9.22,85.72 -9.41,78.55 -9.60,71.38 -9.60,64.20 -9.61,57.01 -9.65,49.40 -9.69,41.78 -9.32,33.16 -8.95,24.54 -8.69,20.44 -8.44,16.34 -7.86,11.97 -7.29,7.59 -6.35,3.42 -5.41,-0.73 -5.24,-1.37 -5.07,-2.01 -4.76,-2.59 -4.44,-3.16 -4.00,-3.65 -3.56,-4.14 -3.01,-4.50 -2.46,-4.87 -1.84,-5.09 -1.22,-5.32 -0.57,-5.39 0.08,-5.46 0.73,-5.37 1.38,-5.28 1.99,-5.04 2.60,-4.79 3.14,-4.41 3.68,-4.03 4.11,-3.53 4.54,-3.03 4.83,-2.44 5.13,-1.86 5.28,-1.21 5.43,-0.57 5.42,0.08 5.41,0.73 5.41,0.73 L 5.41,0.73 Z"></path></g><g transform="translate(26 332) rotate(0 45.33331298828125 49)" stroke="none"><path fill="#1e1e1e" d="M 5.71,-3.26 Q 5.71,-3.26 7.27,-0.59 8.82,2.07 10.83,4.84 12.83,7.61 15.29,11.01 17.74,14.40 19.75,17.20 21.76,19.99 26.11,25.21 30.46,30.43 35.21,35.93 39.96,41.44 44.44,46.44 48.92,51.43 54.03,56.75 59.14,62.07 63.90,66.54 68.67,71.02 73.31,74.97 77.96,78.92 81.65,81.93 85.35,84.95 88.45,87.02 91.55,89.09 91.80,91.75 92.06,94.40 92.36,94.70 92.67,94.99 92.87,95.37 93.07,95.74 93.14,96.16 93.20,96.58 93.13,97.00 93.06,97.42 92.86,97.79 92.66,98.17 92.35,98.46 92.05,98.75 91.66,98.93 91.27,99.11 90.85,99.15 90.43,99.20 90.01,99.10 89.60,99.01 89.23,98.79 88.87,98.57 88.60,98.25 88.32,97.92 88.17,97.53 88.01,97.13 87.99,96.71 87.97,96.28 88.08,95.87 88.20,95.46 88.44,95.11 88.68,94.76 89.01,94.51 89.35,94.25 89.76,94.12 90.16,93.98 90.58,93.98 91.01,93.98 91.41,94.12 91.81,94.26 92.15,94.51 92.49,94.77 92.73,95.13 92.96,95.48 93.08,95.89 93.19,96.30 93.16,96.72 93.14,97.15 92.98,97.54 92.82,97.93 92.55,98.26 92.27,98.58 91.91,98.80 91.54,99.02 91.13,99.11 90.71,99.20 90.29,99.15 89.87,99.10 89.48,98.92 89.10,98.74 89.10,98.74 89.10,98.74 86.53,99.48 83.96,100.21 80.43,97.76 76.89,95.30 73.09,92.18 69.30,89.07 64.42,84.89 59.55,80.72 54.54,76.00 49.53,71.28 44.28,65.80 39.02,60.31 34.45,55.22 29.88,50.13 25.06,44.53 20.24,38.93 15.61,33.34 10.97,27.75 8.97,24.96 6.97,22.18 4.50,18.76 2.03,15.34 -0.32,12.00 -2.69,8.66 -4.20,5.96 -5.71,3.26 -6.02,2.53 -6.33,1.80 -6.45,1.01 -6.57,0.23 -6.51,-0.55 -6.44,-1.34 -6.18,-2.09 -5.93,-2.84 -5.50,-3.51 -5.07,-4.18 -4.50,-4.73 -3.93,-5.27 -3.24,-5.67 -2.55,-6.06 -1.78,-6.28 -1.02,-6.50 -0.23,-6.52 0.55,-6.55 1.33,-6.39 2.11,-6.23 2.82,-5.89 3.54,-5.54 4.15,-5.04 4.76,-4.53 5.24,-3.90 5.71,-3.26 5.71,-3.26 L 5.71,-3.26 Z"></path></g><g transform="translate(128 420) rotate(0 45.33331298828125 -34.99998474121094)" stroke="none"><path fill="#1e1e1e" d="M -2.06,-5.16 Q -2.06,-5.16 0.61,-6.74 3.28,-8.32 7.42,-11.53 11.57,-14.75 15.15,-17.41 18.73,-20.06 24.63,-25.26 30.54,-30.46 37.21,-36.05 43.89,-41.65 49.13,-46.26 54.37,-50.86 59.44,-54.87 64.51,-58.88 69.36,-62.51 74.20,-66.14 77.41,-68.88 80.62,-71.61 84.48,-72.51 88.34,-73.41 88.69,-73.65 89.04,-73.90 89.44,-74.02 89.85,-74.14 90.28,-74.13 90.70,-74.11 91.10,-73.96 91.50,-73.81 91.83,-73.54 92.15,-73.28 92.38,-72.92 92.61,-72.56 92.71,-72.14 92.81,-71.73 92.77,-71.31 92.73,-70.88 92.56,-70.49 92.39,-70.11 92.10,-69.79 91.82,-69.48 91.44,-69.27 91.07,-69.06 90.66,-68.99 90.24,-68.91 89.82,-68.97 89.40,-69.03 89.02,-69.22 88.64,-69.42 88.34,-69.72 88.04,-70.02 87.86,-70.40 87.67,-70.79 87.62,-71.21 87.56,-71.63 87.64,-72.04 87.73,-72.46 87.94,-72.83 88.15,-73.20 88.47,-73.48 88.79,-73.76 89.18,-73.93 89.57,-74.09 90.00,-74.12 90.42,-74.15 90.83,-74.05 91.24,-73.94 91.60,-73.71 91.96,-73.48 92.22,-73.15 92.48,-72.81 92.63,-72.41 92.77,-72.01 92.78,-71.59 92.79,-71.16 92.66,-70.76 92.53,-70.35 92.28,-70.01 92.03,-69.67 92.03,-69.67 92.03,-69.67 90.71,-65.46 89.40,-61.26 85.86,-58.27 82.31,-55.29 77.59,-51.78 72.87,-48.27 68.07,-44.49 63.26,-40.71 57.88,-36.02 52.50,-31.32 45.91,-25.86 39.32,-20.39 32.97,-14.89 26.62,-9.39 23.00,-6.73 19.38,-4.06 13.79,-0.17 8.21,3.72 5.13,4.44 2.06,5.16 1.41,5.33 0.76,5.50 0.09,5.51 -0.57,5.52 -1.22,5.37 -1.87,5.23 -2.47,4.93 -3.07,4.63 -3.58,4.19 -4.09,3.75 -4.48,3.21 -4.87,2.67 -5.12,2.04 -5.37,1.42 -5.46,0.76 -5.55,0.09 -5.48,-0.56 -5.41,-1.23 -5.19,-1.86 -4.96,-2.49 -4.59,-3.05 -4.22,-3.61 -3.73,-4.06 -3.23,-4.51 -2.65,-4.83 -2.06,-5.16 -2.06,-5.16 L -2.06,-5.16 Z"></path></g><g transform="translate(235.33331298828125 214.66668701171875) rotate(0 -2 66.99998474121094)" stroke="none"><path fill="#1e1e1e" d="M 5.29,1.41 Q 5.29,1.41 5.00,4.39 4.71,7.37 4.70,11.51 4.69,15.65 4.64,19.59 4.59,23.53 4.38,31.59 4.18,39.65 4.09,48.37 4.01,57.09 3.78,65.10 3.55,73.11 3.26,80.35 2.98,87.60 2.86,94.23 2.74,100.87 2.69,108.28 2.64,115.69 2.62,121.34 2.60,126.99 0.89,130.86 -0.82,134.74 -0.86,135.16 -0.90,135.58 -1.08,135.97 -1.25,136.36 -1.54,136.67 -1.83,136.98 -2.20,137.19 -2.58,137.39 -3.00,137.46 -3.41,137.54 -3.83,137.47 -4.25,137.41 -4.63,137.21 -5.01,137.02 -5.30,136.71 -5.60,136.41 -5.78,136.02 -5.97,135.64 -6.02,135.22 -6.07,134.80 -5.98,134.38 -5.89,133.96 -5.68,133.60 -5.46,133.23 -5.14,132.95 -4.82,132.67 -4.43,132.51 -4.04,132.35 -3.61,132.32 -3.19,132.30 -2.78,132.41 -2.37,132.51 -2.01,132.75 -1.66,132.98 -1.40,133.32 -1.14,133.65 -1.00,134.06 -0.86,134.46 -0.85,134.88 -0.85,135.31 -0.98,135.71 -1.11,136.12 -1.36,136.46 -1.62,136.80 -1.96,137.04 -2.31,137.28 -2.72,137.40 -3.13,137.52 -3.56,137.50 -3.98,137.48 -4.38,137.33 -4.77,137.18 -5.10,136.90 -5.43,136.63 -5.65,136.27 -5.87,135.91 -5.97,135.49 -6.06,135.08 -6.06,135.08 -6.06,135.08 -8.30,131.01 -10.54,126.94 -10.51,121.27 -10.49,115.60 -10.43,108.12 -10.38,100.63 -10.25,93.85 -10.12,87.07 -9.83,79.90 -9.54,72.73 -9.30,64.84 -9.07,56.96 -8.97,48.13 -8.87,39.30 -8.64,31.32 -8.42,23.35 -8.35,19.32 -8.29,15.29 -8.03,9.71 -7.78,4.12 -6.53,1.35 -5.29,-1.41 -5.04,-2.02 -4.80,-2.63 -4.41,-3.17 -4.03,-3.71 -3.52,-4.14 -3.02,-4.56 -2.43,-4.86 -1.84,-5.16 -1.20,-5.30 -0.55,-5.45 0.10,-5.43 0.76,-5.42 1.40,-5.25 2.04,-5.08 2.61,-4.76 3.19,-4.45 3.68,-4.00 4.17,-3.55 4.53,-3.00 4.90,-2.45 5.12,-1.83 5.34,-1.21 5.41,-0.55 5.47,0.10 5.38,0.75 5.29,1.41 5.29,1.41 L 5.29,1.41 Z"></path></g><g transform="translate(34 191.33334350585938) rotate(0 45.666656494140625 -30.333328247070312)" stroke="none"><path fill="#1e1e1e" d="M -2.87,-4.86 Q -2.87,-4.86 1.16,-7.66 5.19,-10.46 9.82,-13.28 14.45,-16.10 16.83,-17.75 19.21,-19.40 27.25,-24.65 35.29,-29.90 42.50,-34.60 49.71,-39.29 57.70,-44.71 65.70,-50.14 70.95,-53.93 76.21,-57.72 79.39,-60.09 82.58,-62.46 85.15,-61.86 87.73,-61.26 88.11,-61.46 88.49,-61.65 88.91,-61.72 89.33,-61.78 89.75,-61.71 90.17,-61.63 90.54,-61.43 90.91,-61.23 91.20,-60.92 91.49,-60.60 91.66,-60.22 91.84,-59.83 91.88,-59.41 91.92,-58.98 91.83,-58.57 91.73,-58.16 91.51,-57.79 91.28,-57.43 90.96,-57.16 90.63,-56.89 90.23,-56.74 89.84,-56.58 89.41,-56.56 88.99,-56.55 88.58,-56.66 88.17,-56.78 87.82,-57.02 87.47,-57.27 87.22,-57.61 86.97,-57.95 86.84,-58.35 86.70,-58.76 86.71,-59.18 86.71,-59.61 86.85,-60.01 86.99,-60.41 87.25,-60.74 87.51,-61.08 87.87,-61.31 88.22,-61.55 88.63,-61.66 89.04,-61.77 89.47,-61.74 89.89,-61.71 90.29,-61.55 90.68,-61.39 91.00,-61.11 91.32,-60.83 91.54,-60.47 91.75,-60.10 91.84,-59.68 91.92,-59.27 91.87,-58.85 91.82,-58.42 91.64,-58.04 91.46,-57.66 91.16,-57.35 90.87,-57.05 90.87,-57.05 90.87,-57.05 90.70,-54.40 90.54,-51.76 87.27,-49.33 84.00,-46.90 78.57,-43.00 73.15,-39.10 65.03,-33.65 56.91,-28.19 49.66,-23.52 42.42,-18.85 34.49,-13.78 26.55,-8.72 23.81,-6.86 21.08,-4.99 16.37,-2.25 11.67,0.49 7.27,2.68 2.87,4.86 2.25,5.13 1.62,5.41 0.95,5.52 0.28,5.64 -0.39,5.59 -1.07,5.54 -1.72,5.33 -2.37,5.13 -2.95,4.77 -3.53,4.41 -4.00,3.92 -4.48,3.44 -4.83,2.85 -5.17,2.26 -5.37,1.61 -5.56,0.96 -5.60,0.28 -5.63,-0.39 -5.50,-1.06 -5.37,-1.73 -5.09,-2.35 -4.80,-2.97 -4.38,-3.50 -3.95,-4.03 -3.41,-4.45 -2.87,-4.86 -2.87,-4.86 L -2.87,-4.86 Z"></path></g><g transform="translate(145.33331298828125 130.66668701171875) rotate(0 39.333343505859375 43)" stroke="none"><path fill="#1e1e1e" d="M 4.31,-3.29 Q 4.31,-3.29 7.07,-0.24 9.83,2.80 13.04,6.52 16.25,10.23 19.70,14.04 23.15,17.85 26.05,21.29 28.96,24.74 32.73,29.48 36.51,34.22 40.86,39.13 45.20,44.03 48.63,47.89 52.05,51.75 57.41,57.06 62.76,62.37 66.43,66.03 70.11,69.70 73.44,72.65 76.78,75.60 77.96,79.30 79.15,83.01 79.43,83.32 79.71,83.64 79.88,84.03 80.04,84.42 80.08,84.85 80.11,85.27 80.01,85.68 79.90,86.09 79.67,86.45 79.44,86.81 79.11,87.07 78.78,87.34 78.38,87.48 77.98,87.63 77.55,87.64 77.13,87.65 76.72,87.52 76.32,87.40 75.97,87.15 75.63,86.90 75.38,86.55 75.14,86.21 75.01,85.80 74.89,85.39 74.90,84.97 74.91,84.54 75.06,84.15 75.21,83.75 75.48,83.42 75.75,83.09 76.10,82.86 76.46,82.63 76.88,82.53 77.29,82.43 77.71,82.47 78.14,82.50 78.53,82.67 78.92,82.84 79.23,83.13 79.55,83.41 79.75,83.78 79.96,84.15 80.04,84.57 80.12,84.99 80.06,85.41 80.00,85.83 79.81,86.21 79.62,86.59 79.32,86.89 79.02,87.19 78.64,87.37 78.25,87.56 77.83,87.62 77.41,87.67 76.99,87.59 76.58,87.51 76.21,87.30 75.84,87.09 75.84,87.09 75.84,87.09 71.72,86.50 67.60,85.91 63.98,82.68 60.37,79.44 56.70,75.76 53.03,72.08 47.43,66.43 41.82,60.78 38.41,56.88 34.99,52.98 30.45,47.75 25.92,42.52 22.32,37.86 18.72,33.19 16.01,29.83 13.29,26.47 9.83,22.39 6.37,18.30 3.25,14.26 0.13,10.22 -2.08,6.76 -4.31,3.29 -4.64,2.73 -4.97,2.16 -5.16,1.54 -5.34,0.91 -5.38,0.26 -5.41,-0.39 -5.28,-1.03 -5.16,-1.67 -4.88,-2.26 -4.61,-2.86 -4.20,-3.37 -3.79,-3.88 -3.27,-4.27 -2.75,-4.67 -2.15,-4.93 -1.55,-5.19 -0.90,-5.30 -0.26,-5.42 0.38,-5.37 1.04,-5.32 1.66,-5.12 2.28,-4.92 2.84,-4.57 3.39,-4.23 3.85,-3.76 4.31,-3.29 4.31,-3.29 L 4.31,-3.29 Z"></path></g><g transform="translate(126.6666259765625 74) rotate(0 3 23)" stroke="none"><path fill="#1e1e1e" d="M 5.40,-0.67 Q 5.40,-0.67 6.61,5.40 7.83,11.47 8.39,16.23 8.96,20.99 9.61,26.03 10.26,31.06 10.91,35.01 11.56,38.95 9.87,40.99 8.19,43.03 8.19,43.45 8.18,43.88 8.04,44.28 7.91,44.68 7.65,45.02 7.39,45.36 7.03,45.59 6.68,45.83 6.27,45.94 5.86,46.05 5.44,46.02 5.01,46.00 4.62,45.84 4.22,45.68 3.90,45.40 3.58,45.12 3.36,44.76 3.15,44.39 3.06,43.98 2.97,43.56 3.02,43.14 3.07,42.72 3.25,42.33 3.43,41.95 3.72,41.64 4.02,41.34 4.39,41.14 4.77,40.94 5.19,40.88 5.61,40.81 6.03,40.88 6.45,40.95 6.82,41.16 7.20,41.36 7.49,41.67 7.78,41.98 7.95,42.36 8.13,42.75 8.17,43.17 8.21,43.60 8.12,44.01 8.03,44.43 7.80,44.79 7.58,45.15 7.26,45.42 6.93,45.70 6.54,45.85 6.14,46.01 5.72,46.03 5.29,46.05 4.88,45.93 4.47,45.81 4.12,45.57 3.77,45.33 3.52,44.99 3.26,44.65 3.13,44.25 3.00,43.84 3.00,43.84 3.00,43.84 0.77,42.42 -1.45,41.00 -2.08,36.80 -2.71,32.60 -3.26,27.50 -3.82,22.39 -4.29,17.72 -4.76,13.05 -5.08,6.86 -5.40,0.67 -5.40,0.01 -5.40,-0.63 -5.25,-1.27 -5.09,-1.91 -4.79,-2.49 -4.49,-3.07 -4.05,-3.56 -3.62,-4.06 -3.08,-4.43 -2.54,-4.81 -1.93,-5.04 -1.32,-5.28 -0.67,-5.36 -0.01,-5.44 0.63,-5.36 1.28,-5.29 1.89,-5.06 2.51,-4.82 3.05,-4.45 3.59,-4.08 4.03,-3.59 4.47,-3.10 4.77,-2.52 5.08,-1.94 5.24,-1.31 5.40,-0.67 5.40,-0.67 L 5.40,-0.67 Z"></path></g><g transform="translate(98.6666259765625 50) rotate(0 19.66668701171875 -13.666664123535156)" stroke="none"><path fill="#1e1e1e" d="M -3.77,-0.47 Q -3.77,-0.47 -4.40,-3.66 -5.03,-6.85 -5.03,-10.05 -5.04,-13.24 -5.05,-15.97 -5.06,-18.69 -4.95,-22.78 -4.83,-26.88 -4.56,-28.60 -4.30,-30.32 -4.15,-31.10 -4.00,-31.89 -3.66,-32.62 -3.33,-33.34 -2.83,-33.97 -2.33,-34.60 -1.69,-35.09 -1.06,-35.58 -0.33,-35.90 0.40,-36.22 1.18,-36.36 1.97,-36.50 2.77,-36.44 3.57,-36.39 4.34,-36.15 5.10,-35.90 5.78,-35.48 6.46,-35.06 7.03,-34.49 7.59,-33.92 8.00,-33.23 8.41,-32.54 8.64,-31.78 8.87,-31.01 8.91,-30.21 8.95,-29.41 7.92,-31.95 6.88,-34.49 8.77,-31.16 10.65,-27.83 11.75,-24.66 12.85,-21.48 14.06,-18.34 15.27,-15.21 16.69,-12.13 18.10,-9.05 19.59,-7.07 21.07,-5.10 22.94,-3.38 24.82,-1.67 27.69,-0.41 30.55,0.84 30.59,-2.28 30.63,-5.41 31.04,-8.42 31.45,-11.43 31.42,-14.07 31.39,-16.71 31.03,-19.31 30.67,-21.91 30.31,-24.74 29.95,-27.57 29.77,-29.72 29.60,-31.86 33.49,-34.54 37.38,-37.22 37.80,-37.22 38.23,-37.21 38.63,-37.07 39.03,-36.93 39.36,-36.67 39.70,-36.41 39.93,-36.06 40.17,-35.70 40.28,-35.29 40.39,-34.88 40.36,-34.46 40.33,-34.03 40.17,-33.64 40.01,-33.25 39.73,-32.93 39.45,-32.61 39.08,-32.39 38.71,-32.18 38.30,-32.09 37.88,-32.00 37.46,-32.05 37.04,-32.11 36.65,-32.29 36.27,-32.47 35.97,-32.77 35.66,-33.06 35.47,-33.44 35.27,-33.82 35.21,-34.24 35.14,-34.66 35.22,-35.08 35.29,-35.50 35.50,-35.87 35.70,-36.24 36.01,-36.53 36.32,-36.82 36.71,-36.99 37.10,-37.17 37.52,-37.21 37.94,-37.25 38.36,-37.15 38.77,-37.06 39.13,-36.83 39.50,-36.61 39.77,-36.28 40.04,-35.95 40.19,-35.56 40.34,-35.16 40.36,-34.74 40.38,-34.31 40.26,-33.90 40.14,-33.50 39.90,-33.15 39.66,-32.80 39.31,-32.55 38.97,-32.29 38.57,-32.16 38.16,-32.03 38.17,-32.03 38.17,-32.03 41.29,-30.70 44.42,-29.37 44.76,-26.54 45.11,-23.70 45.51,-20.19 45.91,-16.68 45.85,-13.04 45.80,-9.40 45.26,-5.77 44.72,-2.13 43.60,1.76 42.49,5.66 40.55,8.34 38.61,11.02 35.61,12.65 32.61,14.29 29.32,14.27 26.04,14.25 23.25,13.13 20.46,12.02 17.77,10.21 15.07,8.40 12.37,5.64 9.67,2.89 7.59,-0.23 5.52,-3.36 3.99,-6.88 2.45,-10.40 1.22,-13.77 -0.00,-17.13 -0.53,-20.87 -1.07,-24.62 -2.68,-27.47 -4.30,-30.31 -4.15,-31.10 -4.00,-31.89 -3.66,-32.62 -3.33,-33.34 -2.83,-33.97 -2.33,-34.60 -1.70,-35.09 -1.06,-35.58 -0.33,-35.90 0.40,-36.22 1.18,-36.36 1.97,-36.50 2.77,-36.44 3.57,-36.39 4.33,-36.15 5.10,-35.90 5.78,-35.48 6.46,-35.06 7.02,-34.49 7.59,-33.92 8.00,-33.23 8.41,-32.54 8.64,-31.78 8.87,-31.01 8.91,-30.21 8.95,-29.41 8.59,-27.51 8.23,-25.60 7.88,-21.99 7.53,-18.38 7.38,-15.52 7.23,-12.66 6.89,-9.03 6.56,-5.40 5.16,-2.46 3.77,0.47 3.66,0.91 3.55,1.36 3.33,1.76 3.12,2.17 2.81,2.51 2.51,2.85 2.13,3.11 1.75,3.37 1.32,3.53 0.89,3.69 0.44,3.75 -0.01,3.80 -0.46,3.74 -0.92,3.69 -1.35,3.52 -1.78,3.36 -2.15,3.10 -2.53,2.83 -2.83,2.49 -3.13,2.15 -3.35,1.74 -3.56,1.33 -3.67,0.89 -3.77,0.44 -3.77,-0.01 -3.77,-0.47 -3.77,-0.47 L -3.77,-0.47 Z"></path></g><g transform="translate(166 66) rotate(0 1.33331298828125 -27.666664123535156)" stroke="none"><path fill="#1e1e1e" d="M -5.53,-0.20 Q -5.53,-0.20 -5.86,-5.39 -6.19,-10.59 -6.18,-15.22 -6.17,-19.84 -6.14,-22.40 -6.11,-24.96 -5.76,-30.29 -5.40,-35.63 -5.05,-39.40 -4.70,-43.18 -4.58,-45.94 -4.46,-48.71 -2.71,-51.05 -0.96,-53.39 -1.08,-53.80 -1.20,-54.21 -1.19,-54.63 -1.17,-55.05 -1.02,-55.45 -0.87,-55.85 -0.59,-56.18 -0.32,-56.50 0.03,-56.73 0.39,-56.95 0.80,-57.05 1.22,-57.15 1.64,-57.11 2.06,-57.07 2.45,-56.89 2.84,-56.72 3.15,-56.43 3.46,-56.14 3.67,-55.77 3.87,-55.40 3.95,-54.98 4.02,-54.56 3.96,-54.14 3.89,-53.72 3.70,-53.34 3.51,-52.96 3.20,-52.67 2.90,-52.37 2.51,-52.19 2.13,-52.00 1.71,-51.95 1.29,-51.90 0.87,-51.99 0.45,-52.07 0.09,-52.29 -0.27,-52.50 -0.55,-52.82 -0.83,-53.14 -0.99,-53.53 -1.15,-53.93 -1.18,-54.35 -1.21,-54.77 -1.10,-55.18 -0.99,-55.60 -0.76,-55.95 -0.53,-56.31 -0.19,-56.57 0.13,-56.83 0.53,-56.97 0.93,-57.11 1.36,-57.12 1.78,-57.12 2.19,-56.99 2.59,-56.86 2.93,-56.61 3.28,-56.36 3.52,-56.01 3.76,-55.66 3.76,-55.66 3.76,-55.66 6.55,-51.83 9.34,-47.99 9.15,-44.92 8.97,-41.85 8.60,-38.21 8.22,-34.57 7.78,-29.67 7.34,-24.77 7.30,-22.19 7.26,-19.61 7.11,-14.86 6.96,-10.10 6.25,-4.95 5.53,0.20 5.43,0.86 5.32,1.52 5.06,2.13 4.80,2.75 4.40,3.28 4.00,3.82 3.49,4.24 2.97,4.67 2.37,4.96 1.77,5.24 1.11,5.38 0.46,5.52 -0.20,5.49 -0.87,5.47 -1.51,5.28 -2.15,5.10 -2.73,4.77 -3.31,4.43 -3.79,3.97 -4.28,3.51 -4.63,2.95 -4.99,2.39 -5.21,1.75 -5.42,1.12 -5.48,0.45 -5.53,-0.20 -5.53,-0.20 L -5.53,-0.20 Z"></path></g><g transform="translate(170.6666259765625 40) rotate(0 17.333343505859375 -0.3333282470703125)" stroke="none"><path fill="#1e1e1e" d="M 0,-4.96 Q 0,-4.96 3.06,-5.50 6.13,-6.05 9.61,-6.52 13.09,-7.00 15.54,-7.40 17.99,-7.80 22.38,-8.13 26.78,-8.45 29.23,-8.03 31.69,-7.60 33.42,-4.50 35.16,-1.40 35.49,-1.14 35.82,-0.87 36.04,-0.51 36.27,-0.15 36.37,0.25 36.48,0.66 36.44,1.09 36.41,1.51 36.24,1.90 36.07,2.29 35.78,2.61 35.50,2.92 35.13,3.13 34.76,3.34 34.34,3.42 33.92,3.50 33.50,3.44 33.08,3.38 32.70,3.19 32.32,3.00 32.02,2.70 31.72,2.40 31.53,2.02 31.35,1.64 31.29,1.22 31.23,0.80 31.31,0.38 31.39,-0.03 31.60,-0.40 31.81,-0.77 32.13,-1.05 32.45,-1.33 32.84,-1.50 33.23,-1.67 33.65,-1.70 34.08,-1.74 34.49,-1.63 34.90,-1.53 35.26,-1.30 35.62,-1.07 35.88,-0.74 36.15,-0.41 36.29,-0.01 36.44,0.38 36.45,0.81 36.46,1.23 36.33,1.64 36.21,2.04 35.96,2.39 35.71,2.73 35.37,2.98 35.02,3.23 34.61,3.35 34.21,3.48 33.78,3.46 33.36,3.45 32.96,3.30 32.56,3.16 32.56,3.16 32.56,3.16 29.79,3.90 27.02,4.64 23.38,4.75 19.73,4.85 17.04,5.16 14.35,5.47 10.24,5.76 6.13,6.05 3.06,5.50 0,4.96 -0.59,4.89 -1.18,4.81 -1.74,4.60 -2.30,4.39 -2.79,4.05 -3.29,3.71 -3.68,3.26 -4.08,2.81 -4.36,2.28 -4.63,1.75 -4.78,1.17 -4.92,0.59 -4.92,-0.00 -4.92,-0.59 -4.78,-1.17 -4.63,-1.75 -4.36,-2.28 -4.08,-2.81 -3.68,-3.26 -3.29,-3.71 -2.79,-4.05 -2.30,-4.39 -1.74,-4.60 -1.18,-4.81 -0.59,-4.89 0.00,-4.96 0.00,-4.96 L 0,-4.96 Z"></path></g><g transform="translate(204.6666259765625 58.66667175292969) rotate(0 -0.666656494140625 -24.333335876464844)" stroke="none"><path fill="#1e1e1e" d="M -5.19,0.14 Q -5.19,0.14 -6.41,-13.82 -7.63,-27.79 -5.67,-33.79 -3.71,-39.80 -3.66,-40.22 -3.60,-40.64 -3.41,-41.02 -3.22,-41.40 -2.92,-41.70 -2.62,-42.00 -2.24,-42.19 -1.86,-42.38 -1.44,-42.44 -1.02,-42.50 -0.60,-42.42 -0.18,-42.34 0.18,-42.13 0.55,-41.92 0.83,-41.60 1.12,-41.29 1.28,-40.90 1.45,-40.51 1.49,-40.08 1.52,-39.66 1.42,-39.25 1.32,-38.83 1.09,-38.48 0.86,-38.12 0.53,-37.85 0.20,-37.58 -0.19,-37.44 -0.59,-37.29 -1.02,-37.28 -1.44,-37.27 -1.85,-37.39 -2.25,-37.52 -2.60,-37.77 -2.94,-38.01 -3.19,-38.36 -3.44,-38.70 -3.57,-39.11 -3.69,-39.52 -3.68,-39.94 -3.67,-40.37 -3.52,-40.76 -3.37,-41.16 -3.11,-41.50 -2.84,-41.83 -2.48,-42.06 -2.13,-42.28 -1.71,-42.39 -1.30,-42.49 -0.88,-42.45 -0.45,-42.42 -0.06,-42.25 0.32,-42.08 0.63,-41.80 0.95,-41.52 1.16,-41.15 1.37,-40.78 1.45,-40.36 1.53,-39.94 1.53,-39.94 1.53,-39.94 3.81,-34.05 6.09,-28.17 5.64,-14.15 5.19,-0.14 5.13,0.48 5.07,1.10 4.86,1.69 4.66,2.28 4.32,2.81 3.98,3.33 3.52,3.76 3.06,4.19 2.52,4.49 1.97,4.80 1.37,4.97 0.76,5.13 0.14,5.15 -0.48,5.17 -1.09,5.03 -1.70,4.90 -2.27,4.62 -2.83,4.35 -3.31,3.95 -3.79,3.54 -4.16,3.04 -4.53,2.53 -4.76,1.95 -5.00,1.38 -5.10,0.76 -5.19,0.14 -5.19,0.14 L -5.19,0.14 Z"></path></g><g transform="translate(220.6666259765625 68.66667175292969) rotate(0 19.333343505859375 6.333335876464844)" stroke="none"><path fill="#1e1e1e" d="M -3.45,-3.45 Q -3.45,-3.45 -1.83,-6.11 -0.22,-8.77 2.52,-10.45 5.26,-12.13 8.11,-13.22 10.97,-14.31 13.54,-14.68 16.11,-15.05 20.13,-11.97 24.14,-8.89 24.50,-6.09 24.86,-3.28 24.38,-0.56 23.91,2.15 22.11,6.03 20.32,9.91 19.32,11.89 18.32,13.88 20.84,14.12 23.35,14.37 25.53,14.01 27.72,13.65 30.25,13.46 32.78,13.26 35.18,15.34 37.57,17.41 37.99,17.46 38.42,17.51 38.80,17.70 39.18,17.88 39.49,18.17 39.80,18.47 39.99,18.85 40.19,19.22 40.25,19.64 40.32,20.06 40.24,20.48 40.17,20.90 39.97,21.27 39.77,21.65 39.46,21.94 39.14,22.23 38.76,22.40 38.37,22.58 37.95,22.62 37.52,22.66 37.11,22.56 36.70,22.47 36.33,22.25 35.97,22.02 35.70,21.70 35.43,21.37 35.27,20.98 35.12,20.58 35.10,20.16 35.08,19.73 35.20,19.32 35.32,18.91 35.56,18.56 35.80,18.21 36.14,17.96 36.48,17.71 36.89,17.57 37.29,17.44 37.71,17.45 38.14,17.45 38.54,17.59 38.94,17.73 39.28,17.99 39.61,18.25 39.85,18.60 40.08,18.96 40.19,19.37 40.30,19.78 40.28,20.20 40.25,20.63 40.09,21.02 39.93,21.41 39.65,21.74 39.37,22.06 39.01,22.27 38.64,22.49 38.22,22.58 37.81,22.66 37.81,22.66 37.81,22.66 33.76,25.07 29.71,27.48 26.56,27.89 23.40,28.30 20.47,28.23 17.53,28.15 14.14,27.08 10.76,26.00 8.41,23.33 6.07,20.65 5.47,17.69 4.88,14.72 5.46,11.39 6.04,8.05 7.10,5.93 8.15,3.81 9.39,1.65 10.62,-0.51 11.44,-3.98 12.27,-7.46 13.76,-4.65 15.25,-1.85 11.95,-0.75 8.65,0.33 6.05,1.89 3.45,3.45 2.98,3.81 2.52,4.17 1.98,4.41 1.45,4.65 0.87,4.76 0.29,4.87 -0.29,4.83 -0.87,4.79 -1.44,4.62 -2.00,4.44 -2.50,4.14 -3.00,3.84 -3.42,3.42 -3.84,3.00 -4.14,2.50 -4.44,2.00 -4.62,1.44 -4.79,0.87 -4.83,0.29 -4.87,-0.29 -4.76,-0.87 -4.65,-1.45 -4.41,-1.98 -4.17,-2.52 -3.81,-2.98 -3.44,-3.45 -3.45,-3.45 L -3.45,-3.45 Z"></path></g></svg>