<svg version="1.1" xmlns="http://www.w3.org/2000/svg" viewBox="0 0 574 338.0000305175781" width="574" height="338.0000305175781" class="excalidraw-svg"><!-- svg-source:excalidraw --><metadata></metadata><defs><style class="style-fonts">
      </style></defs><rect x="0" y="0" width="574" height="338.0000305175781" fill="#ffffff"></rect><g transform="translate(18 110.66665649414062) rotate(0 7.66668701171875 63.66667175292969)" stroke="none"><path fill="#1e1e1e" d="M 3.61,-1.01 Q 3.61,-1.01 5.26,3.69 6.91,8.39 8.00,12.83 9.10,17.26 9.57,20.00 10.05,22.75 10.93,28.29 11.82,33.84 12.38,38.54 12.93,43.24 13.55,47.44 14.17,51.63 14.66,57.04 15.16,62.44 15.38,66.89 15.60,71.34 16.06,74.90 16.53,78.45 16.77,81.74 17.01,85.03 17.50,88.48 17.98,91.94 18.23,95.59 18.48,99.23 18.80,102.55 19.12,105.87 19.28,108.56 19.43,111.25 20.03,115.27 20.62,119.29 19.27,122.93 17.92,126.56 17.87,126.98 17.83,127.41 17.65,127.79 17.47,128.18 17.17,128.49 16.88,128.79 16.51,128.99 16.13,129.19 15.71,129.26 15.29,129.33 14.87,129.26 14.45,129.19 14.08,128.99 13.70,128.79 13.41,128.48 13.12,128.17 12.94,127.79 12.76,127.40 12.72,126.98 12.67,126.56 12.76,126.14 12.86,125.73 13.08,125.36 13.29,125.00 13.62,124.72 13.94,124.45 14.34,124.29 14.73,124.13 15.16,124.11 15.58,124.09 15.99,124.20 16.40,124.32 16.75,124.56 17.10,124.80 17.36,125.13 17.62,125.47 17.75,125.88 17.89,126.28 17.89,126.70 17.89,127.13 17.75,127.53 17.61,127.93 17.36,128.27 17.10,128.61 16.75,128.85 16.39,129.09 15.99,129.20 15.58,129.31 15.15,129.29 14.73,129.27 14.33,129.11 13.94,128.95 13.61,128.67 13.29,128.40 13.07,128.03 12.85,127.67 12.76,127.25 12.67,126.84 12.67,126.84 12.67,126.84 10.92,123.83 9.16,120.81 8.91,118.55 8.65,116.28 8.43,114.02 8.21,111.76 8.13,109.26 8.05,106.77 7.82,103.32 7.59,99.86 7.44,96.59 7.29,93.31 6.84,89.51 6.40,85.70 6.24,82.72 6.09,79.74 5.63,75.77 5.17,71.80 5.01,67.56 4.84,63.31 4.45,58.18 4.05,53.05 3.47,48.70 2.89,44.35 2.42,39.76 1.96,35.17 1.35,29.68 0.75,24.19 0.41,21.72 0.07,19.24 -0.73,15.00 -1.54,10.76 -2.58,5.89 -3.61,1.01 -3.68,0.56 -3.75,0.11 -3.71,-0.33 -3.67,-0.78 -3.52,-1.21 -3.37,-1.64 -3.13,-2.02 -2.88,-2.40 -2.55,-2.71 -2.22,-3.02 -1.83,-3.24 -1.44,-3.46 -1.00,-3.59 -0.56,-3.71 -0.11,-3.72 0.33,-3.74 0.77,-3.64 1.22,-3.55 1.62,-3.35 2.03,-3.15 2.38,-2.86 2.73,-2.57 3.00,-2.21 3.26,-1.84 3.44,-1.43 3.61,-1.01 3.61,-1.01 L 3.61,-1.01 Z"></path></g><g transform="translate(32 240) rotate(0 45.66668701171875 41.00001525878906)" stroke="none"><path fill="#1e1e1e" d="M 2.09,-3.66 Q 2.09,-3.66 6.46,-1.97 10.84,-0.29 13.33,1.36 15.82,3.02 19.16,6.32 22.50,9.61 24.40,11.73 26.29,13.85 28.90,17.13 31.51,20.42 34.05,23.40 36.58,26.39 38.76,28.76 40.93,31.12 43.44,33.91 45.96,36.69 48.11,38.96 50.27,41.23 52.43,43.25 54.60,45.26 56.75,46.99 58.90,48.72 62.89,51.76 66.88,54.80 69.47,56.62 72.06,58.44 74.83,60.37 77.61,62.30 79.36,63.58 81.12,64.85 83.95,67.09 86.79,69.33 88.95,71.62 91.10,73.91 90.62,76.45 90.14,78.98 90.55,78.87 90.96,78.77 91.39,78.79 91.81,78.82 92.20,78.99 92.60,79.15 92.92,79.43 93.24,79.71 93.45,80.08 93.66,80.44 93.75,80.86 93.83,81.28 93.78,81.70 93.73,82.12 93.55,82.50 93.36,82.89 93.07,83.19 92.77,83.49 92.39,83.69 92.01,83.88 91.59,83.94 91.17,84.01 90.76,83.93 90.34,83.86 89.96,83.65 89.59,83.45 89.30,83.14 89.02,82.82 88.84,82.44 88.67,82.05 88.63,81.62 88.59,81.20 88.69,80.79 88.78,80.37 89.01,80.01 89.23,79.65 89.56,79.38 89.89,79.11 90.29,78.96 90.68,78.81 91.11,78.79 91.53,78.77 91.94,78.89 92.35,79.01 92.70,79.26 93.04,79.50 93.30,79.84 93.55,80.18 93.68,80.59 93.81,80.99 93.80,81.42 93.80,81.84 93.65,82.24 93.51,82.64 93.25,82.98 92.99,83.31 92.63,83.55 92.28,83.78 92.28,83.78 92.28,83.78 88.29,83.95 84.30,84.13 82.47,82.15 80.63,80.18 78.82,78.32 77.00,76.45 74.10,74.26 71.21,72.07 68.28,70.02 65.34,67.96 62.58,66.00 59.81,64.05 55.70,60.90 51.60,57.75 49.12,55.74 46.65,53.74 44.25,51.48 41.86,49.22 39.60,46.83 37.34,44.45 34.87,41.70 32.40,38.95 30.07,36.40 27.74,33.86 25.09,30.71 22.44,27.56 20.07,24.53 17.70,21.49 15.99,19.56 14.28,17.63 11.85,15.00 9.41,12.38 7.33,10.93 5.25,9.49 1.58,6.57 -2.09,3.66 -2.50,3.35 -2.90,3.05 -3.23,2.66 -3.55,2.27 -3.77,1.81 -3.99,1.35 -4.09,0.85 -4.20,0.35 -4.18,-0.15 -4.16,-0.65 -4.02,-1.14 -3.88,-1.63 -3.63,-2.07 -3.38,-2.51 -3.03,-2.88 -2.68,-3.25 -2.25,-3.53 -1.82,-3.80 -1.34,-3.96 -0.86,-4.13 -0.35,-4.17 0.15,-4.21 0.65,-4.13 1.15,-4.05 1.62,-3.86 2.09,-3.66 2.09,-3.66 L 2.09,-3.66 Z"></path></g><g transform="translate(127.3333740234375 327.3333435058594) rotate(0 52.33331298828125 -30.666656494140625)" stroke="none"><path fill="#1e1e1e" d="M -1.64,-4.32 Q -1.64,-4.32 2.25,-6.18 6.15,-8.04 10.24,-9.82 14.34,-11.59 18.25,-13.62 22.15,-15.66 25.80,-17.97 29.44,-20.29 33.50,-23.01 37.56,-25.74 41.62,-28.45 45.67,-31.16 49.53,-33.67 53.38,-36.18 58.38,-39.69 63.38,-43.19 67.98,-46.58 72.57,-49.97 76.24,-52.30 79.90,-54.63 83.49,-56.93 87.08,-59.23 90.37,-60.92 93.66,-62.62 95.72,-63.68 97.78,-64.74 100.57,-64.37 103.37,-64.00 103.78,-64.11 104.19,-64.21 104.61,-64.18 105.04,-64.15 105.43,-63.98 105.82,-63.82 106.14,-63.53 106.45,-63.25 106.66,-62.88 106.88,-62.51 106.96,-62.10 107.04,-61.68 106.98,-61.26 106.93,-60.84 106.74,-60.46 106.56,-60.07 106.26,-59.77 105.96,-59.47 105.58,-59.28 105.20,-59.09 104.78,-59.03 104.36,-58.97 103.94,-59.05 103.52,-59.13 103.15,-59.33 102.78,-59.54 102.49,-59.86 102.21,-60.17 102.04,-60.56 101.87,-60.95 101.83,-61.37 101.80,-61.80 101.90,-62.21 102.00,-62.62 102.22,-62.98 102.45,-63.34 102.78,-63.61 103.11,-63.88 103.51,-64.03 103.91,-64.17 104.33,-64.19 104.76,-64.20 105.16,-64.08 105.57,-63.96 105.92,-63.71 106.26,-63.46 106.51,-63.12 106.76,-62.77 106.89,-62.37 107.02,-61.96 107.01,-61.54 107.00,-61.11 106.85,-60.71 106.71,-60.31 106.44,-59.98 106.18,-59.65 105.82,-59.42 105.46,-59.19 105.46,-59.19 105.46,-59.19 104.11,-57.01 102.76,-54.84 100.69,-53.82 98.61,-52.80 95.77,-51.40 92.93,-50.00 89.32,-47.73 85.71,-45.45 82.36,-43.34 79.01,-41.23 74.30,-37.77 69.59,-34.30 64.44,-30.71 59.28,-27.11 55.48,-24.64 51.67,-22.17 47.61,-19.47 43.56,-16.77 39.37,-13.98 35.19,-11.19 31.14,-8.64 27.09,-6.10 22.83,-3.92 18.56,-1.74 14.25,0.08 9.94,1.91 5.79,3.12 1.64,4.32 1.10,4.46 0.56,4.59 0.00,4.59 -0.55,4.60 -1.09,4.46 -1.63,4.33 -2.13,4.07 -2.62,3.81 -3.04,3.44 -3.46,3.07 -3.78,2.61 -4.09,2.15 -4.29,1.63 -4.49,1.11 -4.56,0.56 -4.63,0.00 -4.56,-0.54 -4.50,-1.10 -4.30,-1.62 -4.10,-2.14 -3.78,-2.60 -3.47,-3.06 -3.05,-3.43 -2.63,-3.80 -2.14,-4.06 -1.64,-4.32 -1.64,-4.32 L -1.64,-4.32 Z"></path></g><g transform="translate(233.3333740234375 101.33334350585938) rotate(0 1.999969482421875 79)" stroke="none"><path fill="#1e1e1e" d="M 4.52,-0.79 Q 4.52,-0.79 5.95,5.66 7.39,12.13 7.93,17.20 8.47,22.26 8.92,27.26 9.37,32.25 9.58,36.77 9.78,41.28 9.89,46.47 10.01,51.67 10.10,57.90 10.18,64.13 10.21,70.22 10.24,76.32 10.25,83.32 10.26,90.32 10.09,96.07 9.92,101.82 9.67,109.03 9.43,116.24 9.15,122.21 8.88,128.19 8.59,133.61 8.30,139.03 7.99,142.94 7.69,146.84 7.18,150.08 6.66,153.31 4.30,155.93 1.94,158.55 1.72,158.91 1.49,159.27 1.17,159.55 0.84,159.82 0.44,159.97 0.05,160.13 -0.37,160.15 -0.79,160.16 -1.20,160.05 -1.61,159.93 -1.96,159.69 -2.31,159.45 -2.56,159.10 -2.81,158.76 -2.95,158.36 -3.08,157.96 -3.07,157.53 -3.07,157.11 -2.93,156.70 -2.79,156.30 -2.53,155.97 -2.27,155.63 -1.92,155.40 -1.56,155.16 -1.15,155.05 -0.74,154.94 -0.32,154.97 0.10,155.00 0.49,155.16 0.88,155.32 1.20,155.60 1.53,155.87 1.74,156.24 1.96,156.61 2.04,157.02 2.13,157.44 2.08,157.86 2.03,158.28 1.85,158.67 1.67,159.05 1.37,159.36 1.08,159.66 0.70,159.86 0.32,160.05 -0.09,160.12 -0.51,160.18 -0.93,160.11 -1.34,160.04 -1.72,159.83 -2.09,159.63 -2.38,159.32 -2.67,159.01 -2.84,158.62 -3.02,158.23 -3.06,157.81 -3.10,157.39 -3.01,156.97 -2.91,156.56 -2.91,156.56 -2.91,156.56 -4.01,153.90 -5.11,151.24 -4.58,148.53 -4.05,145.83 -3.70,142.08 -3.34,138.34 -2.99,132.96 -2.63,127.59 -2.30,121.70 -1.96,115.81 -1.66,108.63 -1.36,101.44 -1.15,95.88 -0.95,90.32 -0.94,83.33 -0.94,76.34 -0.94,70.26 -0.94,64.18 -0.91,58.00 -0.89,51.82 -0.92,46.76 -0.95,41.69 -1.08,37.40 -1.22,33.11 -1.56,28.21 -1.91,23.30 -2.35,18.62 -2.79,13.93 -3.65,7.36 -4.52,0.79 -4.55,0.24 -4.58,-0.30 -4.47,-0.85 -4.37,-1.39 -4.14,-1.89 -3.91,-2.40 -3.57,-2.83 -3.22,-3.26 -2.78,-3.60 -2.35,-3.94 -1.84,-4.17 -1.33,-4.39 -0.79,-4.49 -0.24,-4.58 0.30,-4.54 0.85,-4.51 1.38,-4.34 1.91,-4.17 2.38,-3.88 2.85,-3.59 3.24,-3.20 3.63,-2.80 3.91,-2.33 4.20,-1.85 4.36,-1.32 4.52,-0.79 4.52,-0.79 L 4.52,-0.79 Z"></path></g><g transform="translate(10 97.33334350585938) rotate(0 47 -41.66667175292969)" stroke="none"><path fill="#1e1e1e" d="M -2.59,-3.56 Q -2.59,-3.56 -0.74,-5.45 1.11,-7.33 3.99,-9.69 6.87,-12.05 9.90,-14.86 12.93,-17.68 14.95,-19.39 16.96,-21.09 23.86,-27.14 30.76,-33.19 37.18,-38.67 43.61,-44.15 49.37,-49.15 55.14,-54.14 61.40,-59.70 67.66,-65.26 72.80,-69.92 77.94,-74.57 81.33,-78.14 84.72,-81.70 87.29,-82.26 89.87,-82.81 90.21,-83.07 90.55,-83.32 90.95,-83.46 91.36,-83.59 91.78,-83.59 92.21,-83.59 92.61,-83.45 93.01,-83.31 93.35,-83.06 93.69,-82.80 93.92,-82.45 94.16,-82.09 94.27,-81.68 94.38,-81.27 94.36,-80.85 94.34,-80.42 94.18,-80.03 94.02,-79.64 93.74,-79.31 93.47,-78.99 93.10,-78.77 92.74,-78.55 92.32,-78.46 91.91,-78.37 91.48,-78.42 91.06,-78.47 90.68,-78.65 90.29,-78.83 89.98,-79.12 89.68,-79.42 89.48,-79.79 89.28,-80.17 89.21,-80.59 89.15,-81.01 89.22,-81.43 89.29,-81.85 89.49,-82.22 89.69,-82.59 90.00,-82.89 90.31,-83.18 90.69,-83.35 91.08,-83.53 91.50,-83.58 91.92,-83.62 92.34,-83.53 92.75,-83.43 93.12,-83.21 93.48,-82.99 93.75,-82.67 94.03,-82.34 94.18,-81.95 94.34,-81.55 94.36,-81.13 94.38,-80.70 94.27,-80.30 94.15,-79.89 93.91,-79.54 93.67,-79.18 93.67,-79.18 93.67,-79.19 93.24,-76.58 92.81,-73.98 89.13,-70.13 85.44,-66.28 80.25,-61.60 75.05,-56.91 68.73,-51.32 62.40,-45.73 56.59,-40.73 50.78,-35.72 44.39,-30.30 38.00,-24.88 30.99,-18.82 23.98,-12.75 22.13,-11.20 20.29,-9.65 16.93,-6.62 13.57,-3.58 10.44,-1.19 7.32,1.20 4.95,2.38 2.59,3.56 2.12,3.82 1.66,4.08 1.15,4.22 0.63,4.36 0.10,4.37 -0.42,4.38 -0.94,4.27 -1.46,4.15 -1.93,3.92 -2.41,3.68 -2.82,3.34 -3.22,3.00 -3.53,2.57 -3.85,2.14 -4.05,1.65 -4.25,1.15 -4.32,0.63 -4.40,0.10 -4.35,-0.42 -4.30,-0.94 -4.12,-1.45 -3.95,-1.95 -3.66,-2.39 -3.37,-2.84 -2.98,-3.20 -2.59,-3.56 -2.59,-3.56 L -2.59,-3.56 Z"></path></g><g transform="translate(104.66668701171875 10) rotate(0 57.666656494140625 44.33332824707031)" stroke="none"><path fill="#1e1e1e" d="M 2.25,-3.58 Q 2.25,-3.58 7.67,-0.70 13.08,2.16 17.71,5.28 22.34,8.40 26.69,11.19 31.04,13.98 34.94,16.28 38.83,18.59 43.12,21.37 47.40,24.15 51.21,26.92 55.02,29.68 58.92,32.56 62.81,35.43 65.75,37.91 68.68,40.39 72.48,43.98 76.27,47.58 79.27,50.68 82.26,53.78 85.01,56.58 87.76,59.37 90.35,62.16 92.93,64.95 95.12,67.21 97.31,69.47 99.60,71.75 101.88,74.03 104.03,76.12 106.18,78.21 108.17,79.83 110.15,81.46 112.66,83.69 115.18,85.93 115.57,86.09 115.96,86.25 116.28,86.53 116.60,86.81 116.81,87.18 117.03,87.55 117.11,87.96 117.20,88.38 117.15,88.80 117.09,89.22 116.91,89.61 116.73,89.99 116.43,90.29 116.13,90.60 115.75,90.79 115.38,90.99 114.95,91.05 114.53,91.11 114.12,91.04 113.70,90.96 113.33,90.76 112.95,90.55 112.67,90.24 112.38,89.93 112.21,89.54 112.03,89.15 111.99,88.73 111.95,88.30 112.05,87.89 112.15,87.47 112.37,87.11 112.60,86.75 112.93,86.48 113.25,86.21 113.65,86.06 114.05,85.91 114.47,85.89 114.90,85.88 115.30,86.00 115.71,86.12 116.06,86.36 116.41,86.60 116.66,86.95 116.91,87.29 117.04,87.69 117.17,88.10 117.17,88.52 117.16,88.95 117.02,89.35 116.88,89.75 116.61,90.08 116.35,90.42 116.00,90.65 115.64,90.88 115.23,90.99 114.82,91.10 114.39,91.07 113.97,91.04 113.97,91.04 113.97,91.04 111.96,92.21 109.95,93.37 106.90,92.19 103.86,91.01 101.03,88.57 98.21,86.12 96.11,83.94 94.02,81.76 91.73,79.39 89.45,77.03 87.20,74.67 84.95,72.30 82.50,69.63 80.04,66.96 77.26,64.12 74.47,61.28 71.66,58.34 68.84,55.40 65.28,52.00 61.71,48.60 59.06,46.34 56.40,44.07 52.56,41.21 48.71,38.34 45.13,35.73 41.56,33.11 37.47,30.43 33.39,27.75 29.33,25.32 25.26,22.90 20.81,19.98 16.35,17.06 11.98,13.96 7.61,10.86 2.67,7.22 -2.25,3.58 -2.65,3.26 -3.05,2.94 -3.35,2.53 -3.66,2.12 -3.86,1.65 -4.06,1.18 -4.15,0.68 -4.23,0.17 -4.19,-0.33 -4.15,-0.84 -3.99,-1.32 -3.83,-1.81 -3.56,-2.24 -3.28,-2.67 -2.92,-3.02 -2.55,-3.38 -2.11,-3.64 -1.66,-3.89 -1.17,-4.04 -0.68,-4.18 -0.17,-4.20 0.33,-4.22 0.83,-4.12 1.33,-4.02 1.79,-3.80 2.25,-3.58 2.25,-3.58 L 2.25,-3.58 Z"></path></g><g transform="translate(377.3333740234375 97.33334350585938) rotate(0 43.666656494140625 -42.333343505859375)" stroke="none"><path fill="#1e1e1e" d="M -2.85,-3.11 Q -2.85,-3.11 -0.70,-5.38 1.44,-7.66 3.57,-9.59 5.71,-11.53 8.71,-14.13 11.72,-16.73 16.14,-20.83 20.56,-24.94 25.83,-30.27 31.11,-35.61 34.87,-39.59 38.64,-43.58 42.77,-47.82 46.90,-52.06 50.38,-55.58 53.85,-59.11 58.05,-63.15 62.26,-67.19 65.72,-70.59 69.19,-74.00 71.74,-76.72 74.30,-79.45 76.39,-81.63 78.48,-83.81 81.57,-84.81 84.67,-85.81 85.03,-86.04 85.39,-86.27 85.80,-86.37 86.21,-86.47 86.64,-86.43 87.06,-86.39 87.45,-86.22 87.84,-86.05 88.15,-85.77 88.47,-85.48 88.67,-85.11 88.88,-84.74 88.96,-84.32 89.04,-83.91 88.98,-83.49 88.92,-83.06 88.73,-82.68 88.54,-82.30 88.24,-82.01 87.93,-81.71 87.55,-81.52 87.17,-81.33 86.75,-81.28 86.33,-81.22 85.91,-81.30 85.49,-81.39 85.13,-81.60 84.76,-81.81 84.47,-82.13 84.19,-82.44 84.03,-82.84 83.86,-83.23 83.83,-83.65 83.80,-84.07 83.90,-84.49 84.00,-84.90 84.24,-85.25 84.47,-85.61 84.80,-85.88 85.13,-86.14 85.53,-86.29 85.93,-86.43 86.36,-86.44 86.78,-86.45 87.19,-86.32 87.59,-86.19 87.94,-85.95 88.28,-85.70 88.53,-85.35 88.77,-85.00 88.89,-84.60 89.02,-84.19 89.00,-83.76 88.99,-83.34 88.84,-82.94 88.69,-82.54 88.42,-82.21 88.16,-81.88 88.16,-81.88 88.16,-81.88 87.09,-79.19 86.03,-76.50 83.97,-74.39 81.90,-72.28 79.19,-69.42 76.47,-66.55 72.95,-63.12 69.43,-59.69 65.32,-55.76 61.20,-51.84 57.73,-48.34 54.26,-44.85 50.16,-40.69 46.06,-36.53 42.19,-32.47 38.32,-28.42 32.83,-22.96 27.34,-17.50 22.69,-13.33 18.03,-9.17 15.01,-6.74 11.99,-4.31 9.87,-2.54 7.75,-0.77 5.30,1.16 2.85,3.11 2.43,3.40 2.02,3.70 1.55,3.89 1.07,4.07 0.57,4.14 0.07,4.21 -0.43,4.16 -0.94,4.11 -1.41,3.94 -1.89,3.76 -2.32,3.48 -2.74,3.20 -3.08,2.83 -3.43,2.45 -3.67,2.00 -3.91,1.56 -4.04,1.07 -4.17,0.57 -4.18,0.07 -4.19,-0.43 -4.08,-0.93 -3.96,-1.42 -3.74,-1.88 -3.51,-2.33 -3.18,-2.72 -2.85,-3.11 -2.85,-3.11 L -2.85,-3.11 Z"></path></g><g transform="translate(464.66668701171875 11.333328247070312) rotate(0 35.000030517578125 41.666664123535156)" stroke="none"><path fill="#1e1e1e" d="M 2.88,-2.37 Q 2.88,-2.37 6.03,0.50 9.17,3.37 19.26,16.04 29.34,28.71 36.25,37.34 43.15,45.97 47.60,51.33 52.05,56.70 56.35,61.39 60.66,66.07 63.60,68.98 66.53,71.88 68.59,76.01 70.64,80.15 70.88,80.51 71.11,80.86 71.22,81.27 71.32,81.68 71.29,82.11 71.26,82.53 71.10,82.92 70.94,83.32 70.66,83.64 70.38,83.95 70.01,84.17 69.64,84.38 69.23,84.47 68.81,84.55 68.39,84.50 67.97,84.45 67.58,84.26 67.20,84.08 66.90,83.78 66.59,83.48 66.40,83.11 66.21,82.73 66.14,82.31 66.08,81.89 66.16,81.47 66.23,81.05 66.44,80.68 66.64,80.31 66.95,80.02 67.27,79.73 67.66,79.56 68.04,79.39 68.47,79.35 68.89,79.31 69.30,79.40 69.72,79.50 70.08,79.73 70.44,79.95 70.71,80.28 70.98,80.61 71.13,81.01 71.28,81.40 71.30,81.83 71.31,82.25 71.19,82.66 71.07,83.07 70.83,83.41 70.59,83.76 70.24,84.01 69.90,84.27 69.50,84.40 69.09,84.53 68.67,84.52 68.24,84.51 67.84,84.37 67.44,84.23 67.11,83.97 66.77,83.70 66.77,83.70 66.77,83.70 62.99,81.48 59.21,79.26 56.11,76.18 53.01,73.10 48.53,68.21 44.05,63.32 39.56,57.88 35.06,52.44 28.14,43.76 21.21,35.08 11.38,22.37 1.55,9.65 -0.66,6.01 -2.88,2.37 -3.12,1.99 -3.36,1.61 -3.51,1.18 -3.65,0.76 -3.69,0.31 -3.73,-0.13 -3.66,-0.57 -3.59,-1.02 -3.41,-1.43 -3.24,-1.85 -2.97,-2.21 -2.70,-2.57 -2.35,-2.86 -2.00,-3.14 -1.60,-3.34 -1.19,-3.53 -0.75,-3.62 -0.31,-3.72 0.13,-3.70 0.58,-3.68 1.01,-3.56 1.44,-3.44 1.84,-3.21 2.23,-2.99 2.55,-2.68 2.88,-2.37 2.88,-2.37 L 2.88,-2.37 Z"></path></g><g transform="translate(368 108.66665649414062) rotate(0 6.66668701171875 62.333343505859375)" stroke="none"><path fill="#1e1e1e" d="M 3.92,-0.88 Q 3.92,-0.88 5.54,4.99 7.17,10.86 8.01,16.04 8.85,21.21 9.43,26.32 10.01,31.44 10.26,35.99 10.51,40.54 10.82,45.08 11.14,49.61 11.30,55.87 11.46,62.13 11.90,67.67 12.34,73.21 13.10,79.55 13.86,85.89 14.39,90.56 14.92,95.23 15.53,100.65 16.15,106.08 16.62,110.52 17.09,114.95 16.39,118.79 15.69,122.63 15.68,123.05 15.67,123.48 15.53,123.88 15.39,124.28 15.12,124.61 14.86,124.94 14.50,125.17 14.15,125.41 13.73,125.51 13.32,125.62 12.90,125.59 12.47,125.56 12.08,125.39 11.69,125.23 11.37,124.94 11.05,124.66 10.84,124.29 10.63,123.93 10.55,123.51 10.46,123.09 10.52,122.67 10.57,122.25 10.76,121.87 10.94,121.49 11.24,121.18 11.54,120.88 11.92,120.69 12.30,120.50 12.72,120.44 13.14,120.37 13.56,120.45 13.97,120.53 14.35,120.73 14.72,120.94 15.00,121.26 15.29,121.57 15.46,121.96 15.63,122.35 15.67,122.77 15.71,123.19 15.61,123.61 15.51,124.02 15.28,124.38 15.06,124.74 14.73,125.01 14.40,125.28 14.00,125.43 13.60,125.58 13.18,125.59 12.75,125.61 12.35,125.48 11.94,125.36 11.59,125.12 11.25,124.87 11.00,124.53 10.74,124.19 10.62,123.78 10.49,123.38 10.49,123.38 10.49,123.38 8.70,119.68 6.91,115.98 6.48,111.59 6.06,107.20 5.47,101.77 4.89,96.34 4.38,91.70 3.88,87.06 3.12,80.52 2.37,73.98 1.93,68.15 1.50,62.33 1.42,56.27 1.34,50.22 1.09,45.62 0.84,41.02 0.65,36.72 0.46,32.42 0.01,27.52 -0.43,22.62 -1.12,17.75 -1.81,12.89 -2.86,6.89 -3.92,0.88 -3.97,0.40 -4.01,-0.07 -3.95,-0.55 -3.88,-1.03 -3.70,-1.48 -3.52,-1.93 -3.23,-2.33 -2.95,-2.72 -2.58,-3.03 -2.21,-3.35 -1.78,-3.56 -1.35,-3.78 -0.87,-3.89 -0.40,-4.00 0.07,-3.99 0.56,-3.98 1.03,-3.85 1.49,-3.73 1.92,-3.49 2.34,-3.26 2.70,-2.93 3.06,-2.60 3.32,-2.20 3.59,-1.79 3.75,-1.34 3.92,-0.88 3.92,-0.88 L 3.92,-0.88 Z"></path></g><g transform="translate(394 249.33334350585938) rotate(0 0 -1)" stroke="none"><path fill="#1e1e1e" d="M -2.62,-1.15 Q -2.62,-1.15 -2.55,-1.56 -2.48,-1.98 -2.29,-2.36 -2.09,-2.73 -1.78,-3.03 -1.47,-3.32 -1.08,-3.50 -0.70,-3.68 -0.28,-3.72 0.14,-3.77 0.55,-3.68 0.97,-3.59 1.33,-3.37 1.70,-3.15 1.97,-2.82 2.25,-2.50 2.40,-2.10 2.56,-1.71 2.58,-1.29 2.61,-0.86 2.49,-0.45 2.38,-0.04 2.14,0.30 1.90,0.65 1.56,0.91 1.23,1.17 0.82,1.30 0.42,1.44 -0.00,1.44 -0.42,1.44 -0.82,1.30 -1.23,1.17 -1.56,0.91 -1.90,0.65 -2.14,0.30 -2.38,-0.04 -2.49,-0.45 -2.61,-0.86 -2.58,-1.29 -2.56,-1.71 -2.40,-2.10 -2.25,-2.50 -1.97,-2.82 -1.69,-3.15 -1.33,-3.37 -0.97,-3.59 -0.55,-3.68 -0.14,-3.77 0.28,-3.72 0.70,-3.68 1.08,-3.50 1.47,-3.32 1.78,-3.03 2.09,-2.73 2.29,-2.36 2.48,-1.98 2.55,-1.56 2.62,-1.14 2.62,-1.14 2.62,-1.15 2.72,-0.81 2.82,-0.48 2.84,-0.14 2.86,0.20 2.79,0.54 2.72,0.88 2.58,1.19 2.43,1.50 2.22,1.77 2.00,2.04 1.73,2.25 1.45,2.46 1.14,2.60 0.82,2.74 0.48,2.80 0.14,2.86 -0.20,2.83 -0.54,2.81 -0.87,2.70 -1.20,2.60 -1.49,2.42 -1.79,2.23 -2.03,1.99 -2.27,1.74 -2.45,1.44 -2.62,1.14 -2.62,-0.00 L -2.62,-1.15 Z"></path></g><g transform="translate(394.66668701171875 244) rotate(0 43 37.00001525878906)" stroke="none"><path fill="#1e1e1e" d="M 2.40,-2.43 Q 2.40,-2.43 17.26,11.63 32.13,25.71 38.89,32.39 45.66,39.07 49.77,42.57 53.88,46.07 57.87,49.04 61.87,52.01 65.73,54.79 69.60,57.58 73.74,60.42 77.88,63.26 80.46,65.03 83.04,66.79 84.67,68.96 86.29,71.12 86.62,71.39 86.94,71.67 87.17,72.03 87.39,72.39 87.49,72.80 87.58,73.22 87.54,73.64 87.50,74.06 87.33,74.45 87.15,74.84 86.86,75.15 86.57,75.46 86.20,75.66 85.83,75.87 85.41,75.94 84.99,76.01 84.57,75.95 84.15,75.89 83.77,75.69 83.39,75.50 83.10,75.19 82.80,74.89 82.62,74.50 82.44,74.12 82.39,73.70 82.34,73.28 82.42,72.86 82.51,72.44 82.72,72.08 82.94,71.71 83.26,71.43 83.58,71.15 83.97,70.99 84.37,70.83 84.79,70.80 85.22,70.77 85.63,70.88 86.04,70.99 86.39,71.23 86.75,71.46 87.01,71.80 87.27,72.13 87.41,72.53 87.55,72.93 87.55,73.36 87.56,73.78 87.43,74.19 87.29,74.59 87.04,74.93 86.79,75.28 86.44,75.52 86.09,75.76 85.68,75.88 85.27,76.00 84.85,75.98 84.42,75.96 84.03,75.81 83.63,75.65 83.63,75.65 83.63,75.65 80.56,75.07 77.49,74.48 75.03,72.61 72.58,70.73 68.46,67.71 64.35,64.69 60.52,61.80 56.69,58.91 52.50,55.75 48.31,52.59 43.98,48.87 39.66,45.15 32.89,38.47 26.13,31.78 11.86,17.11 -2.40,2.43 -2.66,2.11 -2.91,1.79 -3.08,1.41 -3.26,1.03 -3.33,0.63 -3.41,0.22 -3.39,-0.18 -3.37,-0.59 -3.25,-0.98 -3.13,-1.38 -2.91,-1.73 -2.70,-2.09 -2.41,-2.38 -2.12,-2.68 -1.77,-2.89 -1.42,-3.11 -1.03,-3.23 -0.63,-3.36 -0.22,-3.39 0.18,-3.41 0.59,-3.34 0.99,-3.27 1.37,-3.10 1.75,-2.94 2.07,-2.68 2.40,-2.43 2.40,-2.43 L 2.40,-2.43 Z"></path></g><g transform="translate(483.3333740234375 321.3333435058594) rotate(0 28 -27.666671752929688)" stroke="none"><path fill="#1e1e1e" d="M -3.04,-2.66 Q -3.04,-2.66 -0.70,-6.02 1.63,-9.39 3.35,-11.34 5.07,-13.29 7.27,-15.83 9.47,-18.38 11.42,-20.47 13.37,-22.57 17.91,-26.86 22.45,-31.15 26.40,-34.99 30.34,-38.83 33.98,-42.25 37.62,-45.66 40.20,-48.34 42.78,-51.02 45.16,-53.27 47.54,-55.51 50.52,-56.09 53.49,-56.68 53.86,-56.89 54.23,-57.10 54.64,-57.18 55.06,-57.26 55.48,-57.21 55.90,-57.15 56.29,-56.96 56.67,-56.78 56.97,-56.48 57.27,-56.18 57.46,-55.80 57.65,-55.42 57.71,-55.00 57.77,-54.58 57.69,-54.16 57.61,-53.74 57.40,-53.37 57.20,-53.00 56.88,-52.71 56.56,-52.43 56.18,-52.26 55.79,-52.09 55.36,-52.05 54.94,-52.02 54.53,-52.12 54.11,-52.22 53.75,-52.45 53.40,-52.68 53.13,-53.01 52.86,-53.34 52.71,-53.73 52.56,-54.13 52.55,-54.56 52.54,-54.98 52.66,-55.39 52.78,-55.80 53.03,-56.14 53.28,-56.49 53.62,-56.74 53.97,-56.99 54.37,-57.11 54.78,-57.24 55.20,-57.23 55.63,-57.22 56.03,-57.07 56.43,-56.93 56.76,-56.66 57.09,-56.40 57.32,-56.04 57.55,-55.68 57.66,-55.27 57.76,-54.86 57.73,-54.44 57.69,-54.01 57.53,-53.62 57.36,-53.23 57.08,-52.91 56.79,-52.60 56.80,-52.60 56.80,-52.60 55.90,-50.05 55.01,-47.50 52.80,-45.47 50.60,-43.44 47.81,-40.57 45.01,-37.71 41.41,-34.40 37.82,-31.08 33.75,-27.20 29.69,-23.32 25.32,-19.37 20.94,-15.42 19.05,-13.45 17.16,-11.48 14.84,-8.98 12.52,-6.48 10.80,-4.67 9.09,-2.86 6.06,-0.10 3.04,2.66 2.67,2.98 2.31,3.31 1.88,3.54 1.45,3.76 0.98,3.88 0.51,4.00 0.02,4.01 -0.46,4.01 -0.93,3.90 -1.40,3.78 -1.84,3.56 -2.27,3.33 -2.64,3.01 -3.00,2.69 -3.28,2.29 -3.56,1.89 -3.74,1.44 -3.91,0.99 -3.97,0.50 -4.04,0.02 -3.98,-0.45 -3.92,-0.94 -3.75,-1.39 -3.58,-1.85 -3.31,-2.25 -3.04,-2.66 -3.04,-2.66 L -3.04,-2.66 Z"></path></g><g transform="translate(545.3333740234375 93.33334350585938) rotate(0 9 78.99998474121094)" stroke="none"><path fill="#1e1e1e" d="M 3.90,0.14 Q 3.90,0.14 4.26,5.33 4.63,10.53 5.19,15.86 5.74,21.19 6.38,26.60 7.02,32.01 7.87,37.28 8.73,42.55 9.50,49.36 10.27,56.17 10.98,62.66 11.69,69.16 12.20,76.23 12.72,83.30 13.52,92.75 14.33,102.19 15.25,109.96 16.17,117.74 17.14,123.84 18.10,129.95 19.12,135.81 20.13,141.67 21.11,145.50 22.08,149.32 21.45,153.23 20.83,157.14 20.86,157.56 20.89,157.98 20.79,158.40 20.69,158.81 20.46,159.17 20.23,159.52 19.90,159.79 19.57,160.06 19.17,160.20 18.77,160.35 18.34,160.36 17.92,160.37 17.51,160.24 17.11,160.12 16.76,159.87 16.42,159.62 16.17,159.28 15.92,158.93 15.80,158.52 15.67,158.12 15.69,157.69 15.70,157.27 15.84,156.87 15.99,156.47 16.26,156.14 16.53,155.81 16.88,155.58 17.24,155.35 17.65,155.25 18.07,155.15 18.49,155.18 18.91,155.22 19.30,155.39 19.69,155.56 20.01,155.84 20.33,156.13 20.53,156.50 20.74,156.87 20.82,157.28 20.90,157.70 20.84,158.12 20.79,158.54 20.60,158.92 20.41,159.30 20.11,159.60 19.80,159.90 19.42,160.09 19.04,160.28 18.62,160.34 18.20,160.39 17.78,160.31 17.37,160.23 17.00,160.02 16.63,159.81 16.34,159.50 16.06,159.18 15.89,158.79 15.73,158.40 15.73,158.40 15.73,158.40 13.35,155.23 10.97,152.05 9.96,147.80 8.95,143.54 8.00,137.60 7.05,131.66 6.09,125.33 5.14,119.01 4.24,111.05 3.35,103.10 2.59,93.58 1.83,84.07 1.37,77.19 0.91,70.31 0.23,63.83 -0.45,57.35 -1.14,50.76 -1.84,44.17 -2.64,38.66 -3.44,33.15 -3.99,27.62 -4.54,22.09 -4.96,16.13 -5.39,10.16 -4.65,5.01 -3.90,-0.14 -3.83,-0.61 -3.75,-1.07 -3.57,-1.50 -3.39,-1.94 -3.11,-2.32 -2.82,-2.69 -2.46,-2.99 -2.10,-3.29 -1.67,-3.50 -1.25,-3.70 -0.78,-3.80 -0.32,-3.89 0.14,-3.87 0.61,-3.86 1.06,-3.73 1.52,-3.60 1.92,-3.36 2.33,-3.13 2.67,-2.80 3.02,-2.48 3.27,-2.08 3.52,-1.68 3.67,-1.24 3.82,-0.79 3.86,-0.32 3.90,0.14 3.90,0.14 L 3.90,0.14 Z"></path></g><g transform="translate(50.00006103515625 235.33331298828125) rotate(0 27.33331298828125 28.666671752929688)" stroke="none"><path fill="#1e1e1e" d="M 1.30,-3.04 Q 1.30,-3.04 4.22,-2.41 7.13,-1.79 10.27,0.11 13.41,2.02 15.71,3.85 18.00,5.69 22.37,10.37 26.74,15.05 29.54,18.18 32.35,21.30 34.71,23.99 37.07,26.67 39.23,29.15 41.39,31.63 43.77,34.12 46.15,36.61 48.22,38.91 50.28,41.21 52.04,43.43 53.81,45.66 55.45,48.02 57.09,50.38 56.84,52.87 56.58,55.36 56.72,55.76 56.86,56.16 56.87,56.59 56.87,57.01 56.74,57.42 56.60,57.82 56.35,58.16 56.10,58.50 55.75,58.74 55.40,58.99 54.99,59.10 54.58,59.22 54.15,59.20 53.73,59.18 53.33,59.03 52.94,58.87 52.61,58.60 52.29,58.33 52.06,57.96 51.84,57.60 51.75,57.19 51.65,56.77 51.69,56.35 51.74,55.93 51.91,55.54 52.09,55.15 52.38,54.84 52.67,54.53 53.04,54.33 53.42,54.13 53.83,54.06 54.25,53.98 54.67,54.05 55.09,54.11 55.47,54.31 55.85,54.51 56.14,54.81 56.44,55.12 56.62,55.50 56.80,55.89 56.85,56.31 56.90,56.73 56.81,57.15 56.72,57.56 56.51,57.93 56.29,58.30 55.97,58.57 55.65,58.85 55.25,59.01 54.86,59.17 54.43,59.20 54.01,59.22 53.60,59.11 53.19,59.00 52.84,58.77 52.48,58.53 52.22,58.20 51.96,57.86 51.96,57.86 51.96,57.86 49.95,57.09 47.94,56.33 46.67,54.22 45.40,52.11 43.94,50.12 42.48,48.13 40.54,45.93 38.61,43.73 36.11,41.04 33.60,38.36 31.48,35.87 29.35,33.39 27.04,30.72 24.74,28.04 21.96,24.87 19.19,21.70 15.49,17.43 11.79,13.17 9.90,11.53 8.01,9.90 5.80,8.14 3.59,6.39 1.14,4.71 -1.30,3.04 -1.64,2.84 -1.99,2.64 -2.27,2.36 -2.56,2.08 -2.77,1.74 -2.99,1.41 -3.11,1.03 -3.24,0.65 -3.27,0.25 -3.30,-0.14 -3.24,-0.53 -3.17,-0.92 -3.01,-1.29 -2.86,-1.66 -2.62,-1.97 -2.38,-2.29 -2.07,-2.54 -1.76,-2.79 -1.40,-2.97 -1.04,-3.14 -0.64,-3.21 -0.25,-3.29 0.13,-3.28 0.53,-3.26 0.92,-3.15 1.30,-3.04 1.30,-3.04 L 1.30,-3.04 Z"></path></g><g transform="translate(212.66668701171875 130.66665649414062) rotate(0 2.66668701171875 61.33332824707031)" stroke="none"><path fill="#1e1e1e" d="M 4.56,-1.09 Q 4.56,-1.09 6.01,3.62 7.45,8.34 8.20,11.81 8.96,15.27 9.58,20.62 10.20,25.96 10.27,30.87 10.34,35.77 10.37,39.67 10.40,43.57 10.44,48.48 10.48,53.40 10.31,58.29 10.14,63.18 9.69,69.15 9.23,75.13 8.65,80.58 8.07,86.03 7.85,91.39 7.63,96.74 7.53,100.57 7.44,104.41 7.40,108.12 7.37,111.84 5.67,116.28 3.97,120.71 3.90,121.13 3.82,121.55 3.62,121.92 3.42,122.30 3.11,122.59 2.80,122.88 2.41,123.05 2.03,123.23 1.60,123.27 1.18,123.32 0.77,123.22 0.35,123.13 -0.00,122.91 -0.36,122.69 -0.64,122.36 -0.91,122.03 -1.06,121.64 -1.22,121.24 -1.24,120.82 -1.26,120.39 -1.14,119.99 -1.03,119.58 -0.79,119.23 -0.55,118.88 -0.21,118.62 0.12,118.37 0.53,118.23 0.93,118.10 1.36,118.10 1.78,118.10 2.18,118.24 2.59,118.38 2.92,118.64 3.26,118.90 3.49,119.25 3.73,119.61 3.84,120.02 3.95,120.43 3.93,120.85 3.90,121.27 3.74,121.67 3.58,122.06 3.31,122.38 3.03,122.71 2.66,122.92 2.30,123.14 1.88,123.23 1.47,123.32 1.04,123.27 0.62,123.22 0.24,123.04 -0.14,122.86 -0.44,122.56 -0.75,122.27 -0.95,121.89 -1.14,121.52 -1.21,121.10 -1.28,120.68 -1.28,120.68 -1.28,120.68 -2.92,116.19 -4.57,111.70 -4.51,107.89 -4.46,104.09 -4.35,100.15 -4.23,96.21 -3.96,90.48 -3.69,84.76 -3.11,79.48 -2.53,74.20 -2.05,68.45 -1.57,62.71 -1.36,58.05 -1.15,53.40 -1.12,48.49 -1.09,43.58 -1.06,39.69 -1.04,35.80 -1.00,31.41 -0.95,27.02 -1.29,22.21 -1.64,17.40 -2.24,14.11 -2.85,10.81 -3.71,5.95 -4.56,1.09 -4.63,0.53 -4.69,-0.02 -4.62,-0.59 -4.55,-1.15 -4.35,-1.68 -4.14,-2.20 -3.82,-2.67 -3.49,-3.13 -3.07,-3.51 -2.64,-3.88 -2.14,-4.14 -1.63,-4.40 -1.08,-4.53 -0.53,-4.66 0.02,-4.66 0.59,-4.66 1.14,-4.52 1.69,-4.38 2.19,-4.11 2.69,-3.85 3.11,-3.47 3.53,-3.09 3.85,-2.62 4.17,-2.15 4.37,-1.62 4.56,-1.09 4.56,-1.09 L 4.56,-1.09 Z"></path></g><g transform="translate(45.3333740234375 103.99996948242188) rotate(0 25.666656494140625 -31.666664123535156)" stroke="none"><path fill="#1e1e1e" d="M -3.58,-2.09 Q -3.58,-2.09 -1.24,-6.89 1.09,-11.69 3.02,-14.74 4.96,-17.78 7.31,-21.22 9.65,-24.67 12.57,-28.67 15.49,-32.67 18.91,-36.78 22.33,-40.89 25.48,-44.55 28.64,-48.20 31.65,-51.82 34.66,-55.44 37.24,-58.10 39.82,-60.77 42.03,-62.62 44.24,-64.46 46.61,-64.62 48.97,-64.77 49.33,-64.99 49.70,-65.21 50.11,-65.30 50.53,-65.39 50.95,-65.35 51.37,-65.30 51.76,-65.12 52.14,-64.95 52.45,-64.66 52.76,-64.36 52.96,-63.99 53.16,-63.61 53.23,-63.19 53.30,-62.78 53.23,-62.36 53.16,-61.94 52.97,-61.56 52.77,-61.18 52.46,-60.89 52.15,-60.60 51.77,-60.42 51.38,-60.24 50.96,-60.19 50.54,-60.15 50.12,-60.24 49.71,-60.33 49.34,-60.55 48.98,-60.77 48.70,-61.09 48.43,-61.41 48.27,-61.81 48.11,-62.20 48.09,-62.63 48.06,-63.05 48.17,-63.46 48.29,-63.87 48.53,-64.22 48.76,-64.57 49.10,-64.83 49.44,-65.09 49.84,-65.23 50.24,-65.36 50.67,-65.36 51.09,-65.36 51.50,-65.23 51.90,-65.09 52.24,-64.84 52.58,-64.58 52.82,-64.23 53.06,-63.88 53.17,-63.47 53.28,-63.06 53.26,-62.63 53.24,-62.21 53.08,-61.81 52.93,-61.42 52.65,-61.10 52.38,-60.77 52.38,-60.77 52.38,-60.77 51.77,-58.39 51.17,-56.01 49.38,-54.58 47.59,-53.15 45.27,-50.80 42.94,-48.46 39.83,-44.80 36.71,-41.14 33.57,-37.60 30.44,-34.05 27.16,-30.23 23.89,-26.41 20.98,-22.59 18.08,-18.76 15.73,-15.51 13.39,-12.26 11.51,-9.48 9.64,-6.70 6.61,-2.30 3.58,2.09 3.28,2.49 2.98,2.88 2.59,3.20 2.20,3.51 1.74,3.73 1.29,3.94 0.80,4.04 0.31,4.13 -0.18,4.11 -0.68,4.09 -1.16,3.95 -1.64,3.81 -2.07,3.55 -2.50,3.30 -2.86,2.95 -3.22,2.61 -3.49,2.18 -3.75,1.76 -3.91,1.28 -4.07,0.81 -4.10,0.31 -4.14,-0.18 -4.06,-0.67 -3.98,-1.17 -3.78,-1.63 -3.58,-2.09 -3.58,-2.09 L -3.58,-2.09 Z"></path></g><g transform="translate(389.3333740234375 121.99996948242188) rotate(0 0.666656494140625 39.00001525878906)" stroke="none"><path fill="#1e1e1e" d="M 3.74,-0.32 Q 3.74,-0.32 4.55,4.04 5.36,8.41 5.73,12.79 6.10,17.17 6.25,19.64 6.41,22.12 6.50,28.44 6.59,34.77 6.63,43.17 6.67,51.58 6.69,56.30 6.70,61.01 6.71,64.55 6.72,68.09 6.53,71.10 6.34,74.10 5.17,77.08 4.00,80.06 3.92,80.48 3.84,80.90 3.62,81.27 3.41,81.63 3.09,81.91 2.77,82.19 2.38,82.36 1.99,82.52 1.56,82.55 1.14,82.58 0.73,82.48 0.32,82.37 -0.03,82.14 -0.38,81.90 -0.65,81.57 -0.91,81.24 -1.05,80.84 -1.20,80.44 -1.20,80.01 -1.21,79.59 -1.08,79.18 -0.95,78.78 -0.70,78.43 -0.45,78.09 -0.10,77.85 0.24,77.60 0.64,77.48 1.05,77.36 1.48,77.38 1.90,77.39 2.30,77.54 2.70,77.69 3.02,77.96 3.35,78.23 3.58,78.59 3.80,78.95 3.90,79.37 4.00,79.78 3.96,80.20 3.92,80.63 3.75,81.02 3.58,81.40 3.29,81.72 3.00,82.03 2.63,82.24 2.26,82.44 1.84,82.52 1.42,82.59 1.00,82.53 0.58,82.47 0.20,82.28 -0.17,82.08 -0.46,81.78 -0.76,81.48 -0.95,81.09 -1.13,80.71 -1.18,80.29 -1.24,79.87 -1.24,79.87 -1.24,79.87 -2.17,76.67 -3.11,73.47 -2.92,70.79 -2.73,68.11 -2.73,64.57 -2.74,61.04 -2.74,56.32 -2.75,51.61 -2.76,43.24 -2.77,34.87 -2.81,28.78 -2.86,22.69 -3.00,20.30 -3.14,17.92 -3.48,13.56 -3.82,9.21 -3.78,4.77 -3.74,0.32 -3.72,-0.12 -3.71,-0.57 -3.58,-1.01 -3.46,-1.45 -3.24,-1.84 -3.01,-2.23 -2.70,-2.56 -2.39,-2.89 -2.01,-3.13 -1.63,-3.38 -1.20,-3.52 -0.77,-3.67 -0.32,-3.71 0.12,-3.75 0.57,-3.68 1.02,-3.61 1.44,-3.43 1.85,-3.26 2.22,-2.99 2.58,-2.72 2.87,-2.37 3.16,-2.02 3.35,-1.61 3.55,-1.21 3.64,-0.76 3.74,-0.32 3.74,-0.32 L 3.74,-0.32 Z"></path></g><g transform="translate(456.00006103515625 49.33331298828125) rotate(0 27 32.66667175292969)" stroke="none"><path fill="#1e1e1e" d="M 2.05,-2.82 Q 2.05,-2.82 4.30,-1.48 6.54,-0.13 9.79,2.39 13.03,4.91 15.82,7.61 18.61,10.30 20.53,12.15 22.45,14.00 25.85,18.46 29.25,22.92 32.09,26.57 34.94,30.23 37.76,34.17 40.58,38.11 42.72,41.09 44.85,44.07 47.16,47.50 49.46,50.93 51.19,53.51 52.92,56.08 54.01,59.30 55.10,62.51 55.31,62.88 55.52,63.25 55.60,63.67 55.68,64.09 55.62,64.51 55.56,64.93 55.38,65.31 55.19,65.69 54.89,65.99 54.58,66.29 54.20,66.48 53.82,66.67 53.40,66.72 52.98,66.78 52.56,66.70 52.15,66.62 51.78,66.41 51.41,66.20 51.12,65.89 50.84,65.57 50.67,65.18 50.50,64.79 50.47,64.36 50.44,63.94 50.54,63.53 50.64,63.12 50.87,62.76 51.10,62.40 51.43,62.13 51.76,61.87 52.16,61.72 52.56,61.58 52.99,61.56 53.41,61.55 53.82,61.68 54.22,61.80 54.57,62.05 54.91,62.30 55.16,62.65 55.41,62.99 55.53,63.40 55.66,63.80 55.64,64.23 55.63,64.65 55.49,65.05 55.34,65.45 55.07,65.78 54.81,66.11 54.45,66.34 54.09,66.57 53.68,66.67 53.26,66.77 52.84,66.74 52.42,66.70 52.03,66.54 51.64,66.37 51.32,66.08 51.01,65.80 51.01,65.80 51.01,65.80 47.83,63.70 44.65,61.59 42.94,59.00 41.23,56.40 39.04,53.07 36.85,49.75 34.74,46.74 32.63,43.74 29.96,39.91 27.29,36.09 24.44,32.30 21.58,28.51 18.78,24.47 15.98,20.43 14.14,18.51 12.30,16.59 9.86,14.04 7.41,11.48 4.65,8.87 1.88,6.27 -0.08,4.54 -2.05,2.82 -2.36,2.53 -2.67,2.25 -2.90,1.89 -3.13,1.54 -3.27,1.14 -3.41,0.75 -3.45,0.33 -3.49,-0.08 -3.43,-0.50 -3.37,-0.91 -3.21,-1.30 -3.05,-1.69 -2.80,-2.04 -2.55,-2.38 -2.23,-2.65 -1.91,-2.92 -1.53,-3.11 -1.15,-3.29 -0.74,-3.38 -0.33,-3.47 0.08,-3.46 0.50,-3.45 0.91,-3.34 1.31,-3.23 1.68,-3.03 2.05,-2.82 2.05,-2.82 L 2.05,-2.82 Z"></path></g><g transform="translate(483.3333740234375 282.6666564941406) rotate(0 23 -21.333343505859375)" stroke="none"><path fill="#1e1e1e" d="M -2.96,-2.74 Q -2.96,-2.74 1.73,-8.00 6.43,-13.26 10.22,-17.09 14.01,-20.92 16.98,-23.74 19.94,-26.55 23.16,-29.34 26.37,-32.13 29.22,-34.63 32.06,-37.13 34.87,-39.41 37.68,-41.69 40.50,-42.76 43.32,-43.83 43.68,-44.05 44.05,-44.27 44.46,-44.36 44.88,-44.45 45.30,-44.41 45.72,-44.36 46.11,-44.18 46.49,-44.01 46.80,-43.71 47.11,-43.42 47.31,-43.05 47.51,-42.67 47.58,-42.25 47.64,-41.83 47.58,-41.41 47.51,-40.99 47.31,-40.62 47.11,-40.24 46.80,-39.95 46.49,-39.66 46.11,-39.48 45.72,-39.30 45.30,-39.25 44.88,-39.21 44.46,-39.30 44.05,-39.39 43.68,-39.61 43.32,-39.83 43.04,-40.15 42.77,-40.48 42.61,-40.87 42.45,-41.27 42.43,-41.69 42.41,-42.12 42.52,-42.52 42.63,-42.93 42.87,-43.29 43.11,-43.64 43.45,-43.89 43.79,-44.15 44.19,-44.29 44.59,-44.42 45.02,-44.42 45.44,-44.42 45.85,-44.29 46.25,-44.15 46.59,-43.89 46.93,-43.64 47.16,-43.29 47.40,-42.93 47.52,-42.52 47.63,-42.12 47.61,-41.69 47.58,-41.27 47.43,-40.87 47.27,-40.48 46.99,-40.15 46.72,-39.83 46.72,-39.83 46.72,-39.83 45.10,-37.13 43.49,-34.44 40.79,-32.30 38.08,-30.17 35.17,-27.69 32.26,-25.22 29.14,-22.62 26.02,-20.02 23.11,-17.36 20.19,-14.70 16.46,-11.06 12.73,-7.43 7.84,-2.34 2.96,2.74 2.59,3.06 2.22,3.37 1.78,3.59 1.34,3.80 0.87,3.91 0.39,4.02 -0.08,4.01 -0.57,4.00 -1.04,3.87 -1.51,3.74 -1.94,3.51 -2.36,3.27 -2.72,2.94 -3.08,2.61 -3.35,2.20 -3.61,1.79 -3.78,1.33 -3.94,0.88 -3.99,0.39 -4.04,-0.08 -3.97,-0.57 -3.90,-1.05 -3.71,-1.50 -3.53,-1.95 -3.25,-2.35 -2.96,-2.74 -2.96,-2.74 L -2.96,-2.74 Z"></path></g><g transform="translate(280.00006103515625 167.99996948242188) rotate(0 11.666656494140625 1.6666717529296875)" stroke="none"><path fill="#1e1e1e" d="M 0.41,-4.13 Q 0.41,-4.13 4.27,-4.00 8.13,-3.88 11.00,-3.78 13.87,-3.68 16.08,-3.46 18.28,-3.23 20.99,-1.29 23.70,0.64 24.06,0.86 24.42,1.09 24.69,1.42 24.96,1.75 25.11,2.14 25.26,2.54 25.28,2.97 25.29,3.39 25.17,3.80 25.05,4.21 24.80,4.55 24.56,4.90 24.21,5.15 23.87,5.40 23.47,5.53 23.06,5.66 22.64,5.65 22.21,5.64 21.81,5.50 21.41,5.35 21.08,5.09 20.74,4.83 20.51,4.47 20.28,4.11 20.18,3.70 20.07,3.29 20.10,2.87 20.13,2.44 20.30,2.05 20.46,1.66 20.74,1.34 21.02,1.02 21.39,0.81 21.76,0.60 22.18,0.52 22.59,0.43 23.02,0.49 23.44,0.54 23.82,0.73 24.20,0.91 24.50,1.21 24.81,1.51 25.00,1.89 25.19,2.27 25.25,2.69 25.31,3.11 25.23,3.53 25.16,3.94 24.95,4.32 24.75,4.69 24.43,4.97 24.12,5.26 23.73,5.43 23.34,5.60 22.92,5.64 22.49,5.68 22.08,5.58 21.67,5.48 21.67,5.48 21.67,5.48 20.43,6.08 19.20,6.69 16.27,6.28 13.34,5.87 10.27,5.64 7.20,5.42 3.39,4.77 -0.41,4.13 -0.90,4.02 -1.38,3.91 -1.83,3.68 -2.28,3.46 -2.66,3.14 -3.04,2.81 -3.34,2.41 -3.63,2.00 -3.82,1.54 -4.00,1.07 -4.07,0.58 -4.15,0.08 -4.10,-0.41 -4.05,-0.90 -3.88,-1.37 -3.71,-1.85 -3.43,-2.26 -3.16,-2.68 -2.79,-3.02 -2.42,-3.36 -1.99,-3.60 -1.55,-3.84 -1.07,-3.97 -0.58,-4.10 -0.08,-4.11 0.41,-4.13 0.41,-4.13 L 0.41,-4.13 Z"></path></g><g transform="translate(280.00006103515625 191.33331298828125) rotate(0 16 -2.3333282470703125)" stroke="none"><path fill="#1e1e1e" d="M -0.73,-3.79 Q -0.73,-3.79 4.16,-5.22 9.05,-6.65 12.11,-7.33 15.16,-8.00 18.30,-8.55 21.44,-9.10 24.25,-9.20 27.07,-9.30 29.46,-7.64 31.85,-5.99 32.25,-5.87 32.66,-5.76 33.01,-5.52 33.36,-5.28 33.62,-4.94 33.87,-4.60 34.01,-4.19 34.14,-3.79 34.14,-3.36 34.14,-2.94 34.00,-2.54 33.86,-2.14 33.60,-1.80 33.34,-1.46 32.99,-1.23 32.64,-0.99 32.23,-0.88 31.82,-0.77 31.39,-0.79 30.97,-0.82 30.57,-0.98 30.18,-1.14 29.86,-1.41 29.53,-1.69 29.32,-2.06 29.10,-2.42 29.01,-2.84 28.92,-3.25 28.97,-3.68 29.02,-4.10 29.20,-4.48 29.38,-4.87 29.68,-5.17 29.97,-5.48 30.35,-5.68 30.72,-5.87 31.14,-5.94 31.56,-6.01 31.98,-5.94 32.40,-5.86 32.77,-5.66 33.15,-5.46 33.44,-5.15 33.73,-4.84 33.91,-4.45 34.08,-4.07 34.13,-3.64 34.17,-3.22 34.07,-2.81 33.98,-2.39 33.76,-2.03 33.54,-1.67 33.21,-1.39 32.89,-1.12 32.49,-0.97 32.10,-0.81 31.67,-0.79 31.25,-0.77 31.25,-0.77 31.25,-0.77 27.08,0.16 22.92,1.09 19.99,1.43 17.07,1.77 13.97,2.29 10.87,2.82 5.80,3.31 0.73,3.79 0.26,3.83 -0.19,3.86 -0.65,3.78 -1.11,3.70 -1.54,3.51 -1.97,3.32 -2.34,3.04 -2.71,2.75 -3.00,2.39 -3.29,2.02 -3.48,1.60 -3.68,1.18 -3.77,0.72 -3.85,0.26 -3.83,-0.19 -3.81,-0.66 -3.67,-1.11 -3.54,-1.55 -3.30,-1.95 -3.06,-2.35 -2.73,-2.69 -2.41,-3.02 -2.01,-3.26 -1.61,-3.51 -1.17,-3.65 -0.73,-3.79 -0.73,-3.79 L -0.73,-3.79 Z"></path></g></svg>