<svg version="1.1" xmlns="http://www.w3.org/2000/svg" viewBox="0 0 538.6668090820312 336.0000305175781" width="538.6668090820312" height="336.0000305175781" class="excalidraw-svg"><!-- svg-source:excalidraw --><metadata></metadata><defs><style class="style-fonts">
      </style></defs><rect x="0" y="0" width="538.6668090820312" height="336.0000305175781" fill="#ffffff"></rect><g transform="translate(14 16) rotate(0 222 114.33332824707031)" stroke="none"><path fill="#1e1e1e" d="M 2.80,0.80 Q 2.80,0.80 2.79,3.70 2.78,6.59 2.39,9.25 1.99,11.92 1.83,14.09 1.67,16.26 1.61,18.67 1.55,21.08 1.54,26.78 1.53,32.49 1.54,35.60 1.55,38.72 1.58,42.73 1.60,46.74 1.63,49.97 1.65,53.21 1.67,55.93 1.69,58.65 1.73,61.91 1.76,65.17 1.59,68.44 1.42,71.71 1.37,74.48 1.31,77.25 1.50,80.18 1.69,83.10 1.97,86.27 2.25,89.44 2.58,92.91 2.91,96.38 3.26,100.36 3.62,104.35 3.97,108.33 4.32,112.31 4.84,115.54 5.36,118.77 5.81,122.22 6.26,125.66 6.81,128.67 7.37,131.68 7.83,135.06 8.29,138.44 8.85,141.41 9.41,144.38 9.86,147.10 10.31,149.81 10.71,152.97 11.11,156.12 11.47,159.37 11.84,162.62 12.01,165.48 12.18,168.34 12.43,170.91 12.68,173.48 12.81,175.91 12.93,178.34 13.16,181.13 13.40,183.92 13.97,187.21 14.54,190.50 14.93,193.07 15.32,195.65 15.65,197.87 15.97,200.09 16.36,203.50 16.74,206.91 16.92,210.01 17.09,213.11 16.85,215.78 16.60,218.45 16.87,221.66 17.14,224.88 17.69,227.46 18.24,230.03 20.23,229.14 22.22,228.25 25.37,227.62 28.52,226.98 31.49,226.40 34.46,225.82 37.48,225.04 40.50,224.26 44.61,223.32 48.73,222.38 54.43,221.38 60.13,220.39 64.80,219.60 69.47,218.81 74.80,218.07 80.13,217.34 84.32,216.84 88.51,216.33 94.55,215.73 100.59,215.12 104.57,214.85 108.55,214.59 115.51,214.46 122.48,214.34 126.74,214.29 130.99,214.24 136.94,214.40 142.89,214.56 150.55,214.80 158.22,215.05 163.73,215.16 169.24,215.26 175.11,215.11 180.98,214.95 185.67,214.89 190.36,214.83 196.69,214.59 203.01,214.35 207.30,214.26 211.58,214.16 222.45,214.09 233.32,214.02 240.03,213.99 246.74,213.97 250.35,213.96 253.97,213.96 258.06,213.76 262.14,213.56 268.55,213.28 274.95,213.00 279.83,212.88 284.71,212.76 291.04,212.33 297.37,211.91 302.32,211.71 307.26,211.52 312.93,211.25 318.61,210.99 323.99,210.87 329.36,210.75 334.41,210.51 339.46,210.28 344.60,210.17 349.73,210.07 354.60,210.02 359.47,209.97 363.97,210.15 368.47,210.32 371.42,210.39 374.38,210.46 377.89,210.68 381.39,210.91 384.99,211.20 388.58,211.49 391.35,211.81 394.12,212.13 396.32,212.47 398.52,212.81 401.56,213.34 404.61,213.87 407.18,214.28 409.75,214.68 412.34,215.04 414.93,215.40 417.30,215.59 419.67,215.78 422.60,215.81 425.54,215.83 428.11,215.85 430.69,215.86 433.09,215.51 435.50,215.16 437.00,213.34 438.49,211.53 439.25,209.31 440.00,207.08 440.47,204.01 440.94,200.94 441.04,196.63 441.14,192.32 441.15,187.44 441.15,182.56 441.16,178.95 441.17,175.33 440.98,171.06 440.78,166.78 440.70,162.53 440.61,158.29 440.57,153.41 440.53,148.53 440.13,141.64 439.73,134.75 439.55,129.58 439.38,124.41 439.11,118.83 438.85,113.26 438.55,109.63 438.25,106.01 438.11,100.42 437.97,94.82 438.10,87.78 438.23,80.74 438.49,75.61 438.74,70.47 439.04,65.43 439.33,60.38 439.45,55.29 439.57,50.20 439.82,45.96 440.07,41.72 440.17,35.50 440.26,29.28 440.31,26.21 440.35,23.13 440.37,20.69 440.39,18.24 440.68,15.02 440.96,11.81 441.24,8.63 441.52,5.46 441.38,3.05 441.23,0.64 438.43,0.69 435.63,0.74 433.20,0.82 430.78,0.91 426.26,1.40 421.75,1.89 416.61,2.40 411.48,2.91 408.03,3.31 404.57,3.71 399.30,4.09 394.03,4.47 390.62,4.63 387.21,4.78 383.77,5.04 380.33,5.29 376.00,5.41 371.68,5.52 366.12,5.76 360.56,6.00 349.75,6.49 338.94,6.98 332.08,7.38 325.23,7.78 319.04,8.14 312.85,8.50 305.69,8.67 298.54,8.83 292.94,9.09 287.34,9.35 281.59,9.46 275.83,9.58 269.07,9.82 262.30,10.06 255.70,10.17 249.09,10.28 242.84,10.32 236.58,10.37 229.51,10.39 222.44,10.41 215.99,10.42 209.54,10.43 202.40,10.05 195.26,9.67 189.14,9.51 183.02,9.35 176.31,9.09 169.60,8.83 163.47,8.53 157.35,8.22 151.78,8.09 146.21,7.96 137.65,7.69 129.10,7.42 124.91,7.31 120.72,7.20 115.91,7.15 111.11,7.10 105.62,7.06 100.12,7.02 93.76,6.99 87.40,6.96 82.40,6.95 77.39,6.93 72.39,6.91 67.39,6.90 63.15,6.89 58.92,6.88 54.63,6.87 50.34,6.86 45.89,6.65 41.43,6.45 37.75,6.37 34.07,6.28 31.55,6.25 29.02,6.21 24.51,6.37 20.00,6.53 17.56,6.78 15.11,7.04 11.28,8.03 7.44,9.01 5.17,9.79 2.89,10.56 0.70,9.64 -1.49,8.72 -1.90,8.83 -2.32,8.94 -2.74,8.91 -3.16,8.88 -3.56,8.71 -3.95,8.55 -4.27,8.27 -4.59,7.99 -4.80,7.62 -5.01,7.26 -5.10,6.84 -5.18,6.42 -5.13,6.00 -5.08,5.58 -4.90,5.20 -4.71,4.81 -4.41,4.51 -4.12,4.21 -3.74,4.01 -3.36,3.82 -2.94,3.76 -2.52,3.69 -2.10,3.77 -1.68,3.84 -1.31,4.05 -0.94,4.25 -0.65,4.57 -0.36,4.88 -0.19,5.27 -0.02,5.66 0.01,6.08 0.05,6.50 -0.04,6.92 -0.13,7.33 -0.36,7.69 -0.58,8.05 -0.91,8.32 -1.24,8.59 -1.64,8.74 -2.03,8.89 -2.46,8.91 -2.88,8.93 -3.29,8.81 -3.70,8.69 -4.05,8.44 -4.40,8.20 -4.65,7.86 -4.90,7.51 -5.03,7.11 -5.16,6.71 -5.15,6.28 -5.14,5.86 -5.00,5.45 -4.86,5.05 -4.60,4.72 -4.34,4.39 -3.98,4.15 -3.63,3.92 -3.63,3.92 -3.63,3.92 -2.34,1.45 -1.05,-1.01 1.52,-1.89 4.10,-2.77 6.37,-3.41 8.65,-4.06 11.23,-4.61 13.82,-5.17 16.52,-5.46 19.21,-5.74 24.20,-5.92 29.19,-6.11 31.76,-6.07 34.34,-6.04 38.16,-5.96 41.98,-5.88 46.16,-5.70 50.34,-5.52 54.63,-5.53 58.92,-5.54 63.16,-5.55 67.39,-5.56 72.40,-5.57 77.40,-5.58 82.41,-5.60 87.42,-5.61 93.79,-5.62 100.17,-5.63 105.70,-5.63 111.23,-5.63 116.13,-5.60 121.03,-5.56 125.25,-5.46 129.47,-5.36 137.98,-5.14 146.50,-4.92 152.24,-4.79 157.99,-4.66 164.04,-4.36 170.10,-4.06 176.73,-3.80 183.35,-3.54 189.66,-3.37 195.96,-3.21 202.74,-2.83 209.52,-2.45 215.96,-2.46 222.41,-2.46 229.45,-2.48 236.49,-2.49 242.69,-2.53 248.90,-2.57 255.37,-2.67 261.85,-2.76 268.72,-3.00 275.59,-3.24 281.17,-3.34 286.76,-3.44 292.51,-3.69 298.26,-3.95 305.18,-4.09 312.11,-4.24 318.30,-4.59 324.49,-4.95 331.43,-5.35 338.37,-5.75 349.19,-6.22 360.02,-6.70 365.68,-6.94 371.34,-7.18 375.38,-7.28 379.41,-7.38 383.02,-7.65 386.62,-7.91 389.88,-8.06 393.13,-8.21 398.12,-8.56 403.11,-8.91 406.67,-9.32 410.22,-9.74 415.26,-10.24 420.30,-10.74 422.86,-11.03 425.41,-11.32 429.87,-11.60 434.32,-11.88 438.10,-11.95 441.88,-12.03 445.39,-10.72 448.90,-9.41 450.51,-6.99 452.12,-4.57 452.95,-1.88 453.77,0.81 453.81,4.16 453.86,7.52 453.65,9.95 453.45,12.37 453.16,15.37 452.88,18.36 452.86,20.83 452.84,23.31 452.79,26.40 452.75,29.49 452.64,35.98 452.53,42.47 452.29,46.48 452.04,50.50 451.91,55.81 451.78,61.12 451.48,66.10 451.18,71.09 450.93,76.04 450.69,80.99 450.55,87.76 450.41,94.52 450.52,99.76 450.64,105.00 450.95,108.84 451.26,112.68 451.52,118.34 451.78,124.00 451.94,129.02 452.11,134.05 452.50,141.25 452.90,148.44 452.93,153.24 452.95,158.05 453.03,162.15 453.10,166.25 453.29,170.80 453.47,175.35 453.47,178.98 453.46,182.60 453.44,187.53 453.42,192.47 453.29,197.29 453.16,202.12 452.90,204.48 452.64,206.83 451.46,210.80 450.28,214.77 448.32,218.15 446.36,221.53 444.13,223.43 441.90,225.33 438.90,226.49 435.91,227.66 433.26,227.88 430.62,228.11 428.02,228.09 425.42,228.07 422.24,228.04 419.06,228.01 416.15,227.76 413.24,227.51 410.54,227.13 407.84,226.76 405.18,226.33 402.52,225.91 397.60,225.09 392.68,224.27 390.14,223.96 387.59,223.66 384.09,223.37 380.59,223.09 377.33,222.87 374.08,222.65 371.03,222.57 367.98,222.49 363.78,222.32 359.57,222.15 354.78,222.19 349.98,222.23 345.01,222.33 340.03,222.43 334.83,222.67 329.63,222.91 324.40,223.02 319.18,223.14 313.45,223.41 307.72,223.68 302.95,223.85 298.19,224.03 291.60,224.47 285.01,224.91 280.24,225.02 275.47,225.14 269.09,225.41 262.70,225.68 258.35,225.86 254.00,226.05 250.38,226.06 246.77,226.07 240.07,226.08 233.36,226.09 222.60,226.10 211.84,226.11 207.63,226.19 203.42,226.28 196.97,226.48 190.52,226.68 185.89,226.74 181.27,226.79 175.13,226.93 169.00,227.06 163.41,226.94 157.81,226.82 150.18,226.54 142.54,226.26 136.83,226.07 131.12,225.89 126.89,225.93 122.66,225.97 115.98,226.06 109.30,226.15 105.52,226.39 101.73,226.63 95.81,227.21 89.89,227.80 85.80,228.29 81.71,228.78 76.56,229.49 71.41,230.20 66.77,231.00 62.12,231.80 56.72,232.74 51.32,233.68 47.36,234.59 43.40,235.50 40.05,236.36 36.69,237.23 33.68,237.82 30.67,238.42 26.79,239.16 22.92,239.90 20.02,240.08 17.11,240.25 14.81,239.53 12.51,238.82 10.37,236.62 8.22,234.41 7.16,231.88 6.09,229.35 5.74,226.25 5.39,223.15 5.16,220.48 4.94,217.81 5.19,215.63 5.44,213.45 5.31,210.87 5.19,208.28 4.83,205.00 4.47,201.73 3.92,198.24 3.37,194.75 2.94,191.98 2.51,189.22 2.20,187.04 1.89,184.86 1.65,181.87 1.41,178.88 1.31,176.73 1.22,174.57 0.96,171.77 0.70,168.98 0.58,166.42 0.45,163.87 0.11,160.69 -0.22,157.52 -0.57,154.58 -0.92,151.64 -1.33,149.02 -1.75,146.41 -2.32,143.16 -2.89,139.92 -3.29,136.78 -3.69,133.64 -4.25,130.33 -4.82,127.03 -5.20,123.73 -5.57,120.44 -6.10,116.83 -6.63,113.22 -6.93,109.22 -7.23,105.22 -7.51,101.26 -7.80,97.30 -8.07,93.79 -8.34,90.28 -8.58,86.96 -8.82,83.63 -8.95,80.30 -9.07,76.96 -8.96,74.02 -8.85,71.08 -8.64,68.12 -8.43,65.17 -8.39,61.91 -8.36,58.64 -8.34,55.92 -8.31,53.21 -8.29,49.97 -8.26,46.73 -8.23,42.71 -8.20,38.70 -8.17,35.57 -8.14,32.44 -8.04,26.59 -7.94,20.73 -7.81,18.06 -7.69,15.39 -7.41,12.83 -7.13,10.27 -6.49,7.20 -5.84,4.13 -4.32,1.66 -2.80,-0.80 -2.67,-1.12 -2.53,-1.45 -2.32,-1.73 -2.11,-2.01 -1.84,-2.24 -1.57,-2.46 -1.25,-2.61 -0.93,-2.76 -0.59,-2.84 -0.24,-2.91 0.10,-2.89 0.45,-2.88 0.79,-2.78 1.13,-2.69 1.44,-2.51 1.74,-2.34 2.00,-2.09 2.25,-1.85 2.44,-1.55 2.63,-1.26 2.74,-0.92 2.86,-0.59 2.89,-0.24 2.92,0.10 2.86,0.45 2.80,0.80 2.80,0.80 L 2.80,0.80 Z"></path></g><g transform="translate(369.3333740234375 238.66665649414062) rotate(0 -16.66668701171875 -8.999969482421875)" stroke="none"><path fill="#1e1e1e" d="M -2.79,-0.69 Q -2.79,-0.69 -2.86,-3.95 -2.93,-7.20 -3.27,-9.64 -3.62,-12.07 -4.23,-14.18 -4.85,-16.28 -5.99,-18.71 -7.13,-21.14 -10.35,-22.22 -13.57,-23.31 -16.41,-22.30 -19.26,-21.29 -20.92,-19.95 -22.58,-18.61 -24.21,-15.86 -25.83,-13.12 -26.96,-10.68 -28.09,-8.24 -28.66,-6.18 -29.23,-4.11 -28.43,-0.76 -27.63,2.57 -25.67,3.53 -23.72,4.48 -21.16,4.54 -18.60,4.61 -16.47,3.77 -14.34,2.93 -12.51,1.82 -10.67,0.72 -8.12,-2.83 -5.57,-6.38 -5.28,-10.40 -4.98,-14.42 -5.13,-16.72 -5.27,-19.03 -6.13,-21.06 -7.00,-23.09 -8.73,-21.75 -10.46,-20.41 -11.81,-17.52 -13.17,-14.63 -13.68,-12.47 -14.19,-10.31 -14.84,-7.52 -15.49,-4.74 -16.16,-1.97 -16.83,0.79 -18.04,3.78 -19.25,6.77 -20.79,9.17 -22.33,11.58 -25.21,13.31 -28.08,15.05 -31.25,14.59 -34.41,14.12 -36.69,11.15 -38.98,8.18 -39.66,4.95 -40.34,1.71 -39.93,-1.82 -39.51,-5.36 -37.53,-9.75 -35.55,-14.13 -33.46,-17.50 -31.38,-20.87 -27.99,-23.83 -24.60,-26.78 -21.10,-28.53 -17.61,-30.27 -13.22,-30.26 -8.82,-30.25 -5.48,-28.45 -2.13,-26.66 0.00,-23.40 2.14,-20.13 2.93,-17.04 3.73,-13.96 3.37,-10.83 3.01,-7.70 0.89,-5.06 -1.22,-2.42 -4.68,-1.33 -8.14,-0.24 -10.86,-0.17 -13.58,-0.10 -16.42,-0.79 -19.27,-1.48 -21.53,-2.75 -23.79,-4.01 -25.57,-6.54 -27.36,-9.07 -27.99,-11.67 -28.62,-14.28 -26.16,-19.74 -23.70,-25.20 -20.68,-25.87 -17.66,-26.55 -14.11,-25.05 -10.56,-23.56 -8.12,-21.02 -5.68,-18.47 -4.35,-15.55 -3.02,-12.63 -2.69,-10.22 -2.36,-7.81 -3.37,-4.95 -4.38,-2.09 -6.90,-0.20 -9.42,1.67 -12.09,2.07 -14.75,2.48 -17.10,1.94 -19.45,1.41 -21.67,-0.47 -23.88,-2.35 -24.74,-5.00 -25.60,-7.65 -24.99,-10.43 -24.38,-13.20 -22.74,-15.63 -21.10,-18.06 -18.78,-19.68 -16.46,-21.31 -13.62,-22.01 -10.78,-22.72 -7.87,-22.07 -4.96,-21.42 -2.82,-19.16 -0.69,-16.90 -0.26,-13.56 0.17,-10.22 -0.85,-7.29 -1.87,-4.37 -3.96,-1.54 -6.04,1.28 -7.91,2.99 -9.77,4.69 -14.73,5.62 -19.68,6.56 -21.74,4.69 -23.81,2.81 -24.27,0.37 -24.73,-2.07 -23.98,-4.28 -23.23,-6.50 -21.52,-8.11 -19.82,-9.72 -17.43,-10.40 -15.05,-11.08 -12.70,-10.64 -10.34,-10.20 -8.42,-8.60 -6.49,-7.00 -5.43,-4.14 -4.36,-1.27 -4.66,1.36 -4.95,4.01 -8.62,6.29 -12.28,8.56 -12.60,8.84 -12.92,9.12 -13.31,9.29 -13.70,9.45 -14.12,9.48 -14.55,9.51 -14.96,9.41 -15.37,9.30 -15.73,9.07 -16.08,8.83 -16.34,8.50 -16.61,8.17 -16.75,7.77 -16.89,7.37 -16.90,6.94 -16.91,6.52 -16.78,6.11 -16.65,5.71 -16.40,5.36 -16.15,5.02 -15.80,4.78 -15.45,4.53 -15.04,4.41 -14.64,4.29 -14.21,4.31 -13.79,4.32 -13.39,4.47 -12.99,4.62 -12.66,4.89 -12.34,5.16 -12.11,5.52 -11.88,5.88 -11.79,6.30 -11.69,6.71 -11.73,7.13 -11.77,7.56 -11.94,7.95 -12.11,8.33 -12.40,8.65 -12.68,8.96 -13.06,9.17 -13.43,9.37 -13.85,9.45 -14.26,9.52 -14.68,9.46 -15.11,9.40 -15.48,9.21 -15.86,9.02 -16.16,8.71 -16.46,8.41 -16.64,8.03 -16.83,7.64 -16.88,7.22 -16.93,6.80 -16.85,6.38 -16.76,5.97 -16.55,5.60 -16.34,5.23 -16.34,5.23 -16.34,5.23 -16.01,3.09 -15.69,0.94 -14.09,-0.47 -12.49,-1.89 -14.07,-4.09 -15.66,-6.29 -13.08,-8.55 -10.49,-10.80 -12.32,-9.55 -14.15,-8.29 -15.53,-11.40 -16.92,-14.50 -15.22,-13.21 -13.52,-11.92 -10.98,-13.21 -8.43,-14.51 -9.37,-16.41 -10.31,-18.32 -13.53,-17.77 -16.75,-17.21 -18.78,-15.66 -20.82,-14.12 -22.49,-11.39 -24.15,-8.67 -25.58,-5.93 -27.01,-3.19 -28.99,-0.69 -30.97,1.81 -30.07,-0.21 -29.18,-2.24 -28.50,-4.96 -27.83,-7.67 -27.13,-10.59 -26.42,-13.50 -25.55,-16.64 -24.68,-19.77 -23.03,-23.11 -21.39,-26.46 -19.21,-28.76 -17.04,-31.05 -13.70,-32.63 -10.37,-34.21 -7.08,-34.09 -3.78,-33.98 -0.63,-32.12 2.51,-30.26 3.77,-28.19 5.03,-26.12 6.04,-23.00 7.04,-19.88 7.20,-16.95 7.36,-14.01 7.15,-10.33 6.95,-6.64 5.88,-3.20 4.80,0.24 2.84,3.12 0.89,6.00 -1.80,8.66 -4.49,11.33 -7.51,12.96 -10.53,14.59 -14.41,15.69 -18.29,16.79 -21.10,16.74 -23.91,16.69 -26.34,16.07 -28.77,15.46 -31.66,13.82 -34.55,12.19 -36.63,9.51 -38.71,6.83 -39.68,3.64 -40.66,0.46 -40.58,-3.44 -40.50,-7.34 -39.54,-10.32 -38.59,-13.30 -37.02,-16.42 -35.45,-19.54 -32.54,-23.57 -29.64,-27.59 -26.94,-29.54 -24.25,-31.50 -20.76,-32.91 -17.26,-34.33 -14.60,-34.35 -11.93,-34.37 -8.94,-33.77 -5.96,-33.16 -3.71,-31.88 -1.46,-30.60 0.41,-28.59 2.29,-26.58 3.79,-22.59 5.29,-18.60 5.87,-15.45 6.45,-12.30 6.23,-8.68 6.00,-5.05 4.39,-2.18 2.79,0.69 2.66,1.02 2.54,1.34 2.34,1.63 2.14,1.91 1.88,2.14 1.62,2.37 1.31,2.53 1.01,2.69 0.67,2.77 0.33,2.85 -0.00,2.85 -0.35,2.85 -0.69,2.77 -1.02,2.68 -1.33,2.52 -1.64,2.36 -1.90,2.13 -2.16,1.90 -2.35,1.61 -2.55,1.32 -2.67,1.00 -2.79,0.67 -2.83,0.33 -2.87,-0.00 -2.83,-0.35 -2.79,-0.69 -2.79,-0.69 L -2.79,-0.69 Z"></path></g><g transform="translate(354 304.6666564941406) rotate(0 3.333343505859375 -1.33331298828125)" stroke="none"><path fill="#1e1e1e" d="M 0,-4.21 Q 0,-4.21 2.61,-4.64 5.22,-5.06 7.11,-7.89 9.00,-10.72 8.21,-13.63 7.41,-16.53 4.49,-15.24 1.57,-13.95 -0.00,-11.92 -1.57,-9.89 -3.21,-7.39 -4.84,-4.89 -5.59,-1.12 -6.33,2.64 -6.53,5.64 -6.73,8.64 -2.90,10.63 0.92,12.63 3.65,12.66 6.39,12.70 9.46,11.61 12.53,10.52 15.62,10.65 18.72,10.78 19.11,10.62 19.50,10.45 19.93,10.42 20.35,10.39 20.76,10.50 21.17,10.61 21.53,10.84 21.88,11.07 22.15,11.41 22.41,11.74 22.55,12.14 22.69,12.54 22.70,12.97 22.71,13.39 22.58,13.80 22.45,14.20 22.20,14.54 21.94,14.89 21.60,15.13 21.25,15.37 20.84,15.49 20.43,15.61 20.01,15.60 19.58,15.58 19.19,15.43 18.79,15.28 18.46,15.01 18.13,14.74 17.91,14.38 17.68,14.02 17.58,13.60 17.49,13.19 17.53,12.77 17.57,12.35 17.74,11.96 17.91,11.57 18.20,11.26 18.48,10.94 18.86,10.74 19.23,10.53 19.65,10.46 20.07,10.38 20.49,10.44 20.91,10.51 21.29,10.70 21.66,10.89 21.96,11.20 22.26,11.50 22.44,11.88 22.63,12.27 22.68,12.69 22.73,13.11 22.65,13.52 22.56,13.94 22.35,14.31 22.14,14.68 21.82,14.96 21.50,15.24 21.50,15.24 21.50,15.24 19.73,18.62 17.96,22.01 14.74,23.36 11.52,24.70 8.61,25.03 5.71,25.36 1.29,24.99 -3.11,24.61 -9.38,21.55 -15.66,18.48 -17.32,13.06 -18.98,7.64 -18.54,3.63 -18.10,-0.38 -16.43,-5.90 -14.76,-11.42 -12.52,-14.55 -10.29,-17.68 -7.26,-20.78 -4.24,-23.88 -0.24,-25.70 3.74,-27.53 7.59,-27.07 11.43,-26.60 14.31,-24.14 17.19,-21.69 18.50,-16.51 19.80,-11.33 19.29,-8.72 18.78,-6.11 17.33,-3.50 15.88,-0.88 13.60,1.16 11.31,3.21 8.40,4.14 5.50,5.06 2.75,4.64 0,4.21 -0.50,4.15 -1.00,4.09 -1.48,3.91 -1.96,3.73 -2.37,3.44 -2.79,3.15 -3.13,2.77 -3.47,2.39 -3.70,1.94 -3.94,1.49 -4.06,1.00 -4.18,0.50 -4.18,-0.00 -4.18,-0.50 -4.06,-1.00 -3.94,-1.49 -3.70,-1.94 -3.47,-2.39 -3.13,-2.77 -2.79,-3.15 -2.37,-3.44 -1.96,-3.73 -1.48,-3.91 -1.00,-4.09 -0.50,-4.15 0.00,-4.21 0.00,-4.21 L 0,-4.21 Z"></path></g><g transform="translate(376 271.3333435058594) rotate(0 15 0.666656494140625)" stroke="none"><path fill="#1e1e1e" d="M 0.27,-4.64 Q 0.27,-4.64 3.55,-4.84 6.83,-5.03 9.33,-4.80 11.84,-4.56 15.89,-4.45 19.95,-4.34 24.39,-3.13 28.82,-1.91 29.25,-1.86 29.67,-1.81 30.05,-1.62 30.44,-1.44 30.74,-1.14 31.05,-0.85 31.24,-0.47 31.44,-0.09 31.50,0.32 31.56,0.74 31.49,1.16 31.42,1.57 31.21,1.95 31.01,2.32 30.70,2.61 30.39,2.90 30.00,3.07 29.61,3.25 29.19,3.29 28.77,3.33 28.35,3.23 27.94,3.14 27.58,2.91 27.22,2.69 26.94,2.36 26.67,2.04 26.52,1.64 26.37,1.24 26.35,0.82 26.33,0.39 26.45,-0.00 26.57,-0.41 26.81,-0.76 27.05,-1.11 27.39,-1.36 27.73,-1.62 28.14,-1.75 28.54,-1.88 28.97,-1.87 29.39,-1.87 29.79,-1.73 30.19,-1.59 30.53,-1.33 30.87,-1.07 31.10,-0.71 31.33,-0.36 31.44,0.04 31.55,0.45 31.52,0.88 31.50,1.30 31.33,1.69 31.17,2.09 30.89,2.41 30.62,2.73 30.25,2.94 29.88,3.16 29.47,3.24 29.05,3.33 29.05,3.33 29.05,3.33 26.82,4.93 24.59,6.53 22.15,6.70 19.72,6.87 15.14,6.64 10.56,6.42 8.38,6.11 6.19,5.80 2.96,5.22 -0.27,4.64 -0.82,4.54 -1.37,4.44 -1.88,4.21 -2.40,3.98 -2.84,3.64 -3.28,3.29 -3.63,2.85 -3.97,2.41 -4.20,1.90 -4.43,1.39 -4.54,0.83 -4.64,0.28 -4.61,-0.27 -4.57,-0.83 -4.41,-1.36 -4.24,-1.90 -3.95,-2.38 -3.66,-2.86 -3.27,-3.26 -2.87,-3.65 -2.39,-3.94 -1.91,-4.23 -1.38,-4.40 -0.84,-4.57 -0.28,-4.60 0.27,-4.64 0.27,-4.64 L 0.27,-4.64 Z"></path></g><g transform="translate(352.94376211358394 180.5217811981085) rotate(0 -54 -1.666656494140625)" stroke="none"><path fill="#2f9e44" d="M -0.33,4.11 Q -0.33,4.11 -7.47,4.21 -14.62,4.30 -18.68,3.92 -22.73,3.53 -25.99,3.41 -29.26,3.29 -31.58,3.42 -33.90,3.56 -37.56,3.46 -41.21,3.37 -46.02,3.34 -50.83,3.32 -56.07,3.12 -61.30,2.93 -65.67,2.65 -70.04,2.38 -74.43,2.28 -78.82,2.18 -82.61,2.15 -86.41,2.11 -90.22,2.48 -94.03,2.85 -96.69,3.52 -99.35,4.20 -102.60,3.46 -105.86,2.72 -106.28,2.79 -106.70,2.85 -107.12,2.78 -107.54,2.71 -107.91,2.51 -108.28,2.31 -108.58,2.00 -108.87,1.69 -109.04,1.31 -109.22,0.92 -109.27,0.50 -109.31,0.07 -109.22,-0.33 -109.12,-0.74 -108.90,-1.11 -108.68,-1.47 -108.36,-1.75 -108.03,-2.02 -107.64,-2.18 -107.24,-2.33 -106.82,-2.35 -106.39,-2.37 -105.98,-2.26 -105.58,-2.14 -105.22,-1.90 -104.87,-1.66 -104.62,-1.32 -104.36,-0.99 -104.23,-0.58 -104.09,-0.18 -104.10,0.24 -104.10,0.66 -104.23,1.06 -104.37,1.47 -104.63,1.80 -104.89,2.14 -105.24,2.38 -105.59,2.61 -106.00,2.73 -106.41,2.84 -106.84,2.81 -107.26,2.79 -107.66,2.63 -108.05,2.47 -108.37,2.20 -108.70,1.92 -108.91,1.55 -109.13,1.19 -109.22,0.77 -109.31,0.36 -109.26,-0.05 -109.22,-0.48 -109.04,-0.86 -108.86,-1.25 -108.56,-1.55 -108.27,-1.86 -107.89,-2.06 -107.52,-2.26 -107.52,-2.26 -107.52,-2.26 -104.84,-4.97 -102.16,-7.69 -98.64,-8.47 -95.11,-9.25 -90.68,-9.60 -86.25,-9.96 -82.38,-9.89 -78.50,-9.82 -73.88,-9.68 -69.25,-9.54 -65.03,-9.24 -60.80,-8.95 -55.74,-8.71 -50.68,-8.47 -45.70,-8.37 -40.72,-8.27 -37.56,-8.09 -34.40,-7.90 -31.52,-7.98 -28.64,-8.07 -25.08,-7.82 -21.51,-7.58 -17.62,-7.09 -13.74,-6.60 -6.70,-5.36 0.33,-4.11 0.82,-4.01 1.30,-3.91 1.75,-3.70 2.20,-3.49 2.59,-3.17 2.98,-2.86 3.27,-2.46 3.57,-2.06 3.77,-1.60 3.96,-1.14 4.04,-0.65 4.12,-0.16 4.08,0.33 4.04,0.82 3.88,1.30 3.73,1.77 3.46,2.19 3.19,2.61 2.83,2.95 2.47,3.30 2.04,3.55 1.61,3.80 1.13,3.93 0.66,4.07 0.16,4.09 -0.33,4.11 -0.33,4.11 L -0.33,4.11 Z"></path></g><g transform="translate(249.6104491253027 162.5217811981085) rotate(0 -12.3333740234375 11)" stroke="none"><path fill="#2f9e44" d="M -1.70,4.26 Q -1.70,4.26 -3.43,3.88 -5.16,3.51 -9.35,6.22 -13.54,8.94 -15.46,10.44 -17.38,11.94 -19.09,15.17 -20.79,18.39 -16.09,18.98 -11.39,19.57 -7.09,20.57 -2.79,21.58 -4.43,15.75 -6.06,9.93 -6.42,6.55 -6.78,3.16 -6.74,0.67 -6.70,-1.82 -4.39,-3.91 -2.09,-6.00 -1.89,-6.38 -1.70,-6.76 -1.39,-7.06 -1.09,-7.35 -0.70,-7.54 -0.32,-7.72 0.09,-7.77 0.51,-7.82 0.93,-7.74 1.34,-7.65 1.71,-7.44 2.08,-7.22 2.36,-6.90 2.64,-6.58 2.80,-6.19 2.96,-5.80 2.99,-5.37 3.02,-4.95 2.91,-4.54 2.80,-4.13 2.57,-3.77 2.34,-3.42 2.00,-3.16 1.67,-2.89 1.27,-2.75 0.86,-2.61 0.44,-2.61 0.01,-2.60 -0.38,-2.73 -0.78,-2.86 -1.13,-3.11 -1.47,-3.37 -1.71,-3.71 -1.95,-4.06 -2.07,-4.47 -2.19,-4.88 -2.17,-5.30 -2.16,-5.73 -2.01,-6.13 -1.85,-6.52 -1.58,-6.85 -1.31,-7.18 -0.95,-7.40 -0.59,-7.62 -0.18,-7.72 0.23,-7.82 0.65,-7.78 1.07,-7.74 1.46,-7.56 1.85,-7.39 2.16,-7.10 2.47,-6.82 2.68,-6.44 2.88,-6.07 2.96,-5.65 3.03,-5.23 2.97,-4.81 2.90,-4.39 2.91,-4.39 2.91,-4.39 3.97,-1.20 5.04,1.99 5.30,4.80 5.56,7.61 6.77,14.01 7.98,20.42 7.99,23.36 8.01,26.31 6.80,28.51 5.58,30.71 2.81,32.18 0.04,33.64 -2.91,33.20 -5.87,32.75 -9.78,31.79 -13.69,30.84 -16.35,30.28 -19.00,29.72 -21.12,29.22 -23.23,28.72 -26.47,26.80 -29.70,24.88 -30.82,22.10 -31.94,19.32 -31.56,16.69 -31.19,14.06 -29.95,11.37 -28.70,8.68 -26.48,5.93 -24.27,3.17 -21.90,1.38 -19.54,-0.41 -15.54,-2.79 -11.54,-5.16 -7.02,-5.87 -2.49,-6.57 -0.39,-5.42 1.70,-4.26 2.19,-3.99 2.67,-3.73 3.08,-3.35 3.49,-2.98 3.79,-2.52 4.10,-2.06 4.29,-1.53 4.47,-1.01 4.53,-0.46 4.59,0.08 4.51,0.63 4.43,1.17 4.23,1.69 4.02,2.20 3.70,2.65 3.38,3.10 2.96,3.46 2.54,3.82 2.04,4.07 1.55,4.32 1.01,4.44 0.47,4.56 -0.08,4.55 -0.63,4.54 -1.17,4.40 -1.70,4.26 -1.70,4.26 L -1.70,4.26 Z"></path></g><g transform="translate(241.6104491253027 170.5217811981085) rotate(0 -4.66668701171875 5.6666717529296875)" stroke="none"><path fill="#2f9e44" d="M 2.63,4.27 Q 2.63,4.27 0.22,5.94 -2.17,7.60 -4.29,9.30 -6.41,11.00 -6.94,11.35 -7.48,11.70 -8.08,11.92 -8.69,12.13 -9.32,12.20 -9.96,12.26 -10.60,12.17 -11.23,12.08 -11.83,11.84 -12.42,11.60 -12.95,11.23 -13.47,10.85 -13.88,10.36 -14.30,9.88 -14.58,9.30 -14.87,8.73 -15.01,8.10 -15.15,7.48 -15.14,6.83 -15.13,6.19 -14.96,5.57 -14.79,4.95 -14.48,4.39 -14.17,3.83 -13.74,3.36 -13.30,2.89 -9.93,1.49 -6.56,0.10 -3.14,-0.61 0.27,-1.34 2.48,-0.29 4.69,0.75 5.71,3.06 6.72,5.37 5.94,8.37 5.15,11.38 2.71,10.56 0.27,9.75 0.06,9.99 -0.13,10.23 -0.39,10.42 -0.65,10.60 -0.94,10.72 -1.23,10.84 -1.55,10.89 -1.86,10.93 -2.17,10.90 -2.49,10.87 -2.79,10.77 -3.09,10.66 -3.35,10.49 -3.62,10.31 -3.83,10.08 -4.05,9.85 -4.20,9.57 -4.35,9.30 -4.44,8.99 -4.52,8.68 -4.53,8.37 -4.53,8.05 -4.47,7.74 -4.40,7.43 -4.26,7.15 -4.12,6.87 -4.33,7.47 -4.54,8.07 -4.43,7.66 -4.32,7.25 -4.09,6.89 -3.86,6.53 -3.53,6.27 -3.19,6.01 -2.79,5.87 -2.39,5.72 -1.97,5.71 -1.54,5.71 -1.14,5.84 -0.73,5.96 -0.39,6.22 -0.05,6.47 0.19,6.81 0.43,7.16 0.55,7.57 0.68,7.98 0.66,8.40 0.64,8.83 0.49,9.22 0.34,9.62 0.07,9.95 -0.19,10.28 -0.55,10.50 -0.91,10.73 -1.32,10.83 -1.73,10.93 -2.16,10.89 -2.58,10.85 -2.97,10.68 -3.36,10.51 -3.67,10.22 -3.98,9.93 -4.19,9.56 -4.39,9.19 -4.47,8.77 -4.55,8.35 -4.49,7.93 -4.42,7.51 -4.23,7.13 -4.04,6.75 -3.74,6.46 -3.43,6.16 -3.05,5.97 -2.67,5.79 -2.25,5.73 -1.82,5.68 -1.41,5.77 -0.99,5.85 -0.62,6.06 -0.25,6.28 0.02,6.59 0.30,6.91 0.46,7.31 0.62,7.70 0.45,8.72 0.27,9.75 0.06,9.99 -0.13,10.23 -0.39,10.42 -0.65,10.60 -0.94,10.72 -1.23,10.84 -1.55,10.89 -1.86,10.93 -2.17,10.90 -2.49,10.87 -2.79,10.77 -3.09,10.66 -3.35,10.49 -3.62,10.31 -3.83,10.08 -4.05,9.85 -4.20,9.57 -4.35,9.30 -4.44,8.99 -4.52,8.68 -4.53,8.37 -4.53,8.05 -4.47,7.74 -4.40,7.43 -4.26,7.15 -4.12,6.87 -4.30,7.20 -4.48,7.53 -2.37,8.26 -0.25,8.99 -3.33,9.99 -6.41,11.00 -6.94,11.35 -7.48,11.70 -8.08,11.92 -8.69,12.13 -9.32,12.20 -9.96,12.26 -10.60,12.17 -11.23,12.08 -11.83,11.84 -12.42,11.60 -12.94,11.23 -13.47,10.85 -13.88,10.37 -14.30,9.88 -14.58,9.30 -14.87,8.73 -15.01,8.10 -15.15,7.48 -15.14,6.83 -15.13,6.19 -14.96,5.57 -14.79,4.95 -14.48,4.39 -14.17,3.83 -13.74,3.36 -13.30,2.89 -12.31,2.17 -11.31,1.45 -9.55,-0.00 -7.78,-1.47 -5.20,-2.87 -2.63,-4.27 -2.08,-4.52 -1.53,-4.78 -0.93,-4.89 -0.34,-5.00 0.26,-4.97 0.86,-4.94 1.44,-4.76 2.02,-4.59 2.54,-4.28 3.06,-3.97 3.49,-3.55 3.92,-3.12 4.24,-2.61 4.56,-2.09 4.74,-1.51 4.92,-0.94 4.97,-0.33 5.01,0.26 4.90,0.85 4.80,1.45 4.55,2.00 4.31,2.56 3.94,3.04 3.57,3.52 3.10,3.89 2.63,4.27 2.63,4.27 L 2.63,4.27 Z"></path></g><g transform="translate(270.2770751018652 112.5217811981085) rotate(0 6.3333740234375 17.333343505859375)" stroke="none"><path fill="#2f9e44" d="M 3.89,1.08 Q 3.89,1.08 3.33,4.64 2.76,8.20 2.03,11.33 1.31,14.47 1.05,16.88 0.79,19.29 1.10,22.95 1.41,26.61 3.27,27.70 5.13,28.79 7.84,29.06 10.55,29.34 13.12,30.29 15.69,31.25 16.09,31.09 16.48,30.93 16.91,30.91 17.33,30.88 17.74,31.00 18.15,31.11 18.50,31.35 18.85,31.59 19.11,31.93 19.37,32.26 19.51,32.67 19.64,33.07 19.64,33.49 19.64,33.92 19.51,34.32 19.37,34.73 19.11,35.06 18.86,35.40 18.51,35.64 18.15,35.88 17.74,35.99 17.34,36.11 16.91,36.08 16.49,36.06 16.09,35.91 15.70,35.75 15.37,35.47 15.05,35.20 14.83,34.83 14.61,34.47 14.52,34.06 14.43,33.64 14.47,33.22 14.52,32.80 14.70,32.41 14.87,32.02 15.17,31.72 15.46,31.41 15.83,31.21 16.21,31.01 16.63,30.94 17.05,30.87 17.47,30.94 17.89,31.01 18.26,31.21 18.64,31.40 18.93,31.71 19.22,32.02 19.40,32.41 19.58,32.79 19.63,33.21 19.67,33.64 19.58,34.05 19.49,34.47 19.27,34.83 19.05,35.20 18.73,35.47 18.40,35.75 18.41,35.75 18.41,35.75 15.42,37.70 12.43,39.65 8.96,39.35 5.49,39.06 2.95,38.41 0.41,37.77 -2.06,36.20 -4.55,34.64 -6.40,31.92 -8.26,29.19 -8.86,26.10 -9.47,23.01 -9.30,20.53 -9.13,18.06 -8.72,15.07 -8.30,12.09 -7.45,8.84 -6.59,5.59 -5.24,2.25 -3.89,-1.08 -3.70,-1.53 -3.52,-1.98 -3.23,-2.37 -2.94,-2.76 -2.57,-3.07 -2.19,-3.39 -1.75,-3.60 -1.32,-3.81 -0.84,-3.92 -0.36,-4.02 0.11,-4.01 0.60,-3.99 1.07,-3.86 1.54,-3.73 1.96,-3.49 2.39,-3.25 2.74,-2.92 3.10,-2.58 3.36,-2.18 3.63,-1.77 3.79,-1.31 3.95,-0.85 3.99,-0.36 4.03,0.11 3.96,0.60 3.89,1.08 3.89,1.08 L 3.89,1.08 Z"></path></g><g transform="translate(270.94376211358394 127.85512470396787) rotate(0 7.666656494140625 0)" stroke="none"><path fill="#2f9e44" d="M 0,-4.46 Q 0,-4.46 4.21,-5.19 8.43,-5.92 11.32,-4.51 14.22,-3.10 14.64,-3.13 15.06,-3.15 15.47,-3.04 15.89,-2.93 16.24,-2.70 16.59,-2.46 16.85,-2.12 17.11,-1.79 17.25,-1.39 17.39,-0.98 17.39,-0.56 17.39,-0.13 17.26,0.26 17.13,0.66 16.87,1.00 16.62,1.34 16.27,1.58 15.92,1.83 15.51,1.94 15.10,2.06 14.68,2.04 14.25,2.02 13.86,1.86 13.46,1.71 13.13,1.44 12.81,1.16 12.59,0.80 12.37,0.44 12.27,0.02 12.18,-0.38 12.22,-0.80 12.26,-1.23 12.44,-1.61 12.61,-2.00 12.90,-2.31 13.20,-2.62 13.57,-2.82 13.94,-3.02 14.36,-3.10 14.78,-3.17 15.20,-3.10 15.62,-3.04 16.00,-2.84 16.37,-2.64 16.67,-2.34 16.96,-2.03 17.14,-1.65 17.32,-1.26 17.37,-0.84 17.42,-0.42 17.33,-0.00 17.25,0.40 17.03,0.77 16.81,1.14 16.49,1.41 16.17,1.69 15.77,1.85 15.38,2.01 15.38,2.01 15.38,2.01 11.90,3.96 8.43,5.92 4.21,5.19 0,4.46 -0.53,4.40 -1.06,4.33 -1.57,4.14 -2.07,3.95 -2.51,3.65 -2.96,3.34 -3.31,2.94 -3.67,2.53 -3.92,2.06 -4.17,1.58 -4.30,1.06 -4.43,0.53 -4.43,-0.00 -4.43,-0.53 -4.30,-1.06 -4.17,-1.58 -3.92,-2.06 -3.67,-2.53 -3.31,-2.94 -2.96,-3.34 -2.51,-3.65 -2.07,-3.95 -1.57,-4.14 -1.06,-4.33 -0.53,-4.40 0.00,-4.46 0.00,-4.46 L 0,-4.46 Z"></path></g><g transform="translate(268.94376211358394 107.85512470396787) rotate(0 10 -1.3333282470703125)" stroke="none"><path fill="#2f9e44" d="M -0.29,-4.45 Q -0.29,-4.45 2.55,-5.00 5.40,-5.56 7.85,-5.69 10.31,-5.83 14.57,-5.45 18.84,-5.08 19.27,-5.12 19.69,-5.15 20.10,-5.05 20.52,-4.96 20.88,-4.73 21.24,-4.50 21.50,-4.17 21.77,-3.85 21.92,-3.45 22.07,-3.05 22.09,-2.63 22.10,-2.20 21.98,-1.79 21.86,-1.39 21.62,-1.04 21.37,-0.69 21.03,-0.44 20.68,-0.19 20.28,-0.06 19.87,0.06 19.45,0.05 19.02,0.04 18.62,-0.09 18.22,-0.24 17.89,-0.50 17.56,-0.76 17.33,-1.12 17.09,-1.48 16.99,-1.89 16.88,-2.30 16.91,-2.72 16.94,-3.15 17.11,-3.54 17.27,-3.93 17.55,-4.25 17.84,-4.57 18.20,-4.78 18.57,-4.99 18.99,-5.08 19.41,-5.16 19.83,-5.10 20.25,-5.05 20.63,-4.87 21.01,-4.68 21.32,-4.38 21.62,-4.08 21.81,-3.70 22.00,-3.32 22.06,-2.90 22.12,-2.48 22.05,-2.07 21.97,-1.65 21.76,-1.28 21.56,-0.90 21.24,-0.62 20.93,-0.33 20.54,-0.16 20.15,0.00 20.15,0.00 20.15,0.00 17.61,2.15 15.06,4.30 12.86,4.52 10.67,4.74 8.38,4.76 6.09,4.79 3.19,4.62 0.29,4.45 -0.24,4.42 -0.77,4.39 -1.29,4.24 -1.80,4.08 -2.27,3.80 -2.73,3.53 -3.11,3.15 -3.50,2.77 -3.78,2.31 -4.06,1.85 -4.22,1.34 -4.38,0.83 -4.42,0.29 -4.46,-0.24 -4.36,-0.77 -4.27,-1.30 -4.05,-1.79 -3.83,-2.28 -3.50,-2.71 -3.17,-3.14 -2.75,-3.47 -2.33,-3.80 -1.84,-4.03 -1.35,-4.25 -0.82,-4.35 -0.29,-4.45 -0.29,-4.45 L -0.29,-4.45 Z"></path></g><g transform="translate(270.2770751018652 83.18846820982725) rotate(0 10.333343505859375 0.3333282470703125)" stroke="none"><path fill="#2f9e44" d="M 0,-3.90 Q 0,-3.90 3.06,-4.32 6.13,-4.73 8.59,-4.57 11.06,-4.42 13.96,-4.40 16.86,-4.37 18.59,-3.17 20.32,-1.96 20.74,-1.89 21.16,-1.81 21.53,-1.61 21.90,-1.41 22.19,-1.09 22.48,-0.78 22.65,-0.40 22.83,-0.01 22.87,0.40 22.91,0.83 22.82,1.24 22.72,1.66 22.50,2.02 22.27,2.38 21.95,2.65 21.62,2.92 21.22,3.08 20.83,3.23 20.40,3.25 19.98,3.27 19.57,3.15 19.16,3.03 18.81,2.79 18.46,2.55 18.21,2.20 17.96,1.86 17.83,1.46 17.69,1.05 17.70,0.63 17.70,0.20 17.84,-0.19 17.98,-0.59 18.24,-0.92 18.50,-1.26 18.86,-1.49 19.21,-1.73 19.62,-1.84 20.03,-1.95 20.46,-1.92 20.88,-1.89 21.28,-1.73 21.67,-1.57 21.99,-1.29 22.31,-1.01 22.53,-0.64 22.74,-0.28 22.83,0.13 22.91,0.54 22.86,0.97 22.81,1.39 22.63,1.77 22.45,2.16 22.15,2.46 21.86,2.77 21.48,2.96 21.10,3.16 20.68,3.22 20.26,3.28 20.26,3.28 20.26,3.28 17.07,4.37 13.88,5.45 10.00,5.09 6.13,4.73 3.06,4.32 0,3.90 -0.46,3.85 -0.93,3.79 -1.37,3.62 -1.81,3.46 -2.20,3.19 -2.59,2.92 -2.90,2.57 -3.21,2.22 -3.43,1.80 -3.65,1.38 -3.76,0.92 -3.88,0.47 -3.88,-0.00 -3.88,-0.47 -3.76,-0.92 -3.65,-1.38 -3.43,-1.80 -3.21,-2.22 -2.90,-2.57 -2.59,-2.92 -2.20,-3.19 -1.81,-3.46 -1.37,-3.62 -0.93,-3.79 -0.46,-3.85 0.00,-3.90 0.00,-3.90 L 0,-3.90 Z"></path></g><g transform="translate(292.2770751018652 74.5217811981085) rotate(0 9 9.333343505859375)" stroke="none"><path fill="#2f9e44" d="M 0.68,-3.65 Q 0.68,-3.65 3.85,-3.64 7.03,-3.63 11.25,-2.42 15.47,-1.22 18.08,0.55 20.68,2.34 21.10,6.48 21.52,10.63 20.09,12.46 18.66,14.29 16.95,15.84 15.24,17.39 13.41,18.73 11.57,20.07 8.09,21.72 4.61,23.37 1.23,21.98 -2.15,20.60 -2.19,16.89 -2.23,13.19 -2.27,12.76 -2.31,12.34 -2.21,11.93 -2.11,11.51 -1.88,11.15 -1.65,10.80 -1.32,10.53 -0.99,10.26 -0.59,10.11 -0.19,9.96 0.22,9.95 0.65,9.94 1.05,10.06 1.46,10.18 1.81,10.43 2.15,10.68 2.40,11.02 2.65,11.37 2.78,11.77 2.90,12.18 2.89,12.60 2.88,13.03 2.74,13.43 2.59,13.83 2.33,14.16 2.06,14.49 1.71,14.72 1.35,14.95 0.94,15.05 0.53,15.16 0.10,15.13 -0.31,15.09 -0.70,14.93 -1.09,14.76 -1.41,14.48 -1.73,14.19 -1.94,13.83 -2.15,13.46 -2.23,13.04 -2.31,12.62 -2.26,12.20 -2.20,11.78 -2.01,11.40 -1.83,11.02 -1.53,10.72 -1.23,10.41 -0.85,10.22 -0.47,10.03 -0.05,9.97 0.36,9.92 0.78,9.99 1.20,10.07 1.57,10.28 1.94,10.49 2.22,10.80 2.51,11.12 2.68,11.51 2.85,11.90 2.85,11.90 2.85,11.90 4.20,13.69 5.54,15.49 5.36,13.33 5.18,11.16 8.25,9.74 11.32,8.31 8.28,7.12 5.23,5.93 2.27,4.79 -0.68,3.65 -1.11,3.51 -1.53,3.38 -1.92,3.14 -2.30,2.91 -2.61,2.59 -2.93,2.27 -3.16,1.89 -3.39,1.51 -3.52,1.08 -3.65,0.65 -3.68,0.20 -3.70,-0.23 -3.62,-0.67 -3.54,-1.11 -3.35,-1.52 -3.17,-1.93 -2.89,-2.28 -2.61,-2.63 -2.26,-2.91 -1.90,-3.18 -1.49,-3.36 -1.09,-3.55 -0.64,-3.62 -0.20,-3.70 0.23,-3.67 0.68,-3.65 0.68,-3.65 L 0.68,-3.65 Z"></path></g><g transform="translate(292.2770751018652 79.85512470396787) rotate(0 1 6.3333282470703125)" stroke="none"><path fill="#2f9e44" d="M 3.99,-0.63 Q 3.99,-0.63 5.13,2.92 6.28,6.47 5.26,8.22 4.23,9.96 4.23,10.39 4.22,10.81 4.09,11.22 3.95,11.62 3.69,11.95 3.43,12.29 3.08,12.53 2.72,12.76 2.31,12.88 1.90,12.99 1.48,12.96 1.05,12.94 0.66,12.78 0.27,12.62 -0.05,12.34 -0.37,12.06 -0.59,11.70 -0.80,11.33 -0.89,10.92 -0.98,10.50 -0.93,10.08 -0.88,9.66 -0.70,9.27 -0.52,8.89 -0.23,8.58 0.06,8.27 0.43,8.08 0.81,7.88 1.23,7.81 1.65,7.75 2.07,7.82 2.49,7.89 2.86,8.09 3.24,8.29 3.53,8.60 3.82,8.91 3.99,9.30 4.17,9.69 4.21,10.11 4.26,10.53 4.16,10.95 4.07,11.36 3.85,11.72 3.63,12.09 3.30,12.36 2.97,12.63 2.58,12.79 2.18,12.94 1.76,12.96 1.33,12.98 0.92,12.87 0.52,12.75 0.17,12.51 -0.17,12.27 -0.43,11.93 -0.68,11.59 -0.82,11.19 -0.95,10.78 -0.95,10.78 -0.95,10.78 -2.47,9.44 -3.98,8.09 -3.98,4.36 -3.99,0.63 -4.00,0.14 -4.02,-0.34 -3.92,-0.82 -3.82,-1.29 -3.61,-1.73 -3.40,-2.17 -3.09,-2.55 -2.78,-2.92 -2.39,-3.21 -2.00,-3.50 -1.55,-3.69 -1.10,-3.88 -0.62,-3.96 -0.14,-4.03 0.34,-3.99 0.82,-3.95 1.28,-3.79 1.74,-3.64 2.15,-3.38 2.57,-3.11 2.90,-2.76 3.24,-2.41 3.48,-1.98 3.72,-1.56 3.85,-1.09 3.99,-0.62 3.99,-0.63 L 3.99,-0.63 Z"></path></g><g transform="translate(302.94376211358394 152.5217811981085) rotate(0 3.333343505859375 4.333343505859375)" stroke="none"><path fill="#2f9e44" d="M 3.98,0.30 Q 3.98,0.30 4.15,2.46 4.32,4.63 5.17,4.29 6.03,3.96 6.30,3.63 6.57,3.30 6.93,3.08 7.29,2.86 7.71,2.76 8.12,2.66 8.54,2.70 8.97,2.74 9.36,2.92 9.74,3.09 10.06,3.38 10.37,3.67 10.57,4.04 10.78,4.41 10.85,4.83 10.92,5.25 10.86,5.67 10.80,6.09 10.60,6.47 10.41,6.85 10.11,7.14 9.80,7.44 9.42,7.62 9.03,7.81 8.61,7.86 8.19,7.91 7.77,7.82 7.36,7.74 6.99,7.52 6.62,7.31 6.35,6.99 6.07,6.67 5.90,6.27 5.74,5.88 5.71,5.46 5.68,5.03 5.79,4.62 5.90,4.21 6.13,3.86 6.37,3.50 6.70,3.24 7.04,2.98 7.44,2.84 7.84,2.70 8.26,2.69 8.69,2.69 9.09,2.82 9.50,2.95 9.84,3.20 10.18,3.45 10.42,3.80 10.67,4.15 10.79,4.56 10.91,4.97 10.89,5.39 10.87,5.82 10.72,6.21 10.57,6.61 10.57,6.61 10.57,6.61 10.01,9.44 9.44,12.27 7.12,13.16 4.80,14.04 1.07,12.22 -2.66,10.40 -3.87,7.86 -5.08,5.33 -4.53,2.51 -3.98,-0.30 -3.89,-0.77 -3.79,-1.25 -3.59,-1.68 -3.38,-2.12 -3.08,-2.49 -2.78,-2.87 -2.39,-3.16 -2.01,-3.45 -1.57,-3.64 -1.12,-3.83 -0.65,-3.91 -0.17,-3.99 0.30,-3.95 0.78,-3.92 1.24,-3.77 1.70,-3.62 2.10,-3.36 2.51,-3.10 2.85,-2.76 3.18,-2.41 3.43,-1.99 3.67,-1.58 3.80,-1.11 3.94,-0.65 3.96,-0.17 3.98,0.30 3.98,0.30 L 3.98,0.30 Z"></path></g><g transform="translate(304.2770751018652 135.18846820982725) rotate(0 0.00005000000000165983 0.00004999999999988347)" stroke="none"><path fill="#2f9e44" d="M 4.25,-4.24 Q 4.25,-4.24 4.81,-3.46 5.38,-2.67 5.67,-1.74 5.95,-0.81 5.92,0.16 5.90,1.13 5.56,2.04 5.23,2.95 4.62,3.71 4.01,4.47 3.19,4.99 2.37,5.52 1.43,5.75 0.48,5.99 -0.48,5.91 -1.45,5.83 -2.34,5.44 -3.23,5.06 -3.96,4.41 -4.68,3.76 -5.16,2.91 -5.64,2.07 -5.82,1.11 -6.00,0.16 -5.87,-0.80 -5.74,-1.76 -5.31,-2.63 -4.88,-3.50 -4.19,-4.19 -3.50,-4.88 -2.63,-5.31 -1.76,-5.74 -0.79,-5.87 0.16,-6.00 1.11,-5.82 2.07,-5.64 2.92,-5.16 3.76,-4.68 4.41,-3.95 5.06,-3.23 5.44,-2.34 5.83,-1.44 5.91,-0.47 5.99,0.48 5.75,1.43 5.52,2.37 4.99,3.19 4.47,4.01 3.71,4.62 2.95,5.23 2.04,5.56 1.13,5.90 0.15,5.92 -0.81,5.95 -1.74,5.66 -2.67,5.38 -3.46,4.81 -4.25,4.24 -4.25,4.24 -4.24,4.25 -4.69,3.67 -5.14,3.10 -5.44,2.44 -5.73,1.78 -5.86,1.07 -5.99,0.36 -5.95,-0.36 -5.91,-1.08 -5.69,-1.77 -5.48,-2.46 -5.10,-3.08 -4.73,-3.70 -4.21,-4.21 -3.70,-4.73 -3.08,-5.10 -2.46,-5.48 -1.77,-5.69 -1.08,-5.91 -0.35,-5.95 0.36,-5.99 1.07,-5.86 1.78,-5.73 2.44,-5.44 3.10,-5.14 3.68,-4.69 4.25,-4.24 4.25,-4.24 L 4.25,-4.24 Z"></path></g><g transform="translate(373.33349609375 230) rotate(0 67.33331298828125 1.6666717529296875)" stroke="none"><path fill="#e03131" d="M -0.18,-3.64 Q -0.18,-3.64 3.62,-4.42 7.42,-5.20 9.85,-5.34 12.29,-5.48 15.26,-5.37 18.23,-5.26 23.69,-5.03 29.16,-4.80 32.44,-4.52 35.73,-4.24 39.86,-3.75 44.00,-3.26 48.79,-2.69 53.58,-2.11 56.64,-1.88 59.71,-1.64 64.74,-1.56 69.77,-1.48 74.06,-1.45 78.34,-1.42 83.42,-1.42 88.49,-1.43 92.95,-1.44 97.41,-1.45 102.75,-1.48 108.09,-1.51 111.71,-1.52 115.32,-1.54 118.39,-1.56 121.46,-1.58 124.51,-1.81 127.56,-2.04 130.51,-0.88 133.45,0.27 133.87,0.23 134.29,0.18 134.71,0.27 135.12,0.37 135.49,0.59 135.85,0.81 136.12,1.13 136.40,1.46 136.55,1.85 136.71,2.25 136.73,2.67 136.75,3.10 136.64,3.51 136.52,3.92 136.28,4.27 136.04,4.62 135.70,4.87 135.36,5.13 134.96,5.26 134.56,5.40 134.13,5.40 133.71,5.39 133.31,5.26 132.90,5.12 132.57,4.86 132.23,4.60 131.99,4.25 131.75,3.90 131.64,3.49 131.53,3.08 131.55,2.65 131.58,2.23 131.74,1.84 131.90,1.44 132.17,1.12 132.45,0.80 132.81,0.58 133.18,0.36 133.59,0.27 134.01,0.18 134.43,0.23 134.85,0.28 135.24,0.46 135.62,0.64 135.93,0.93 136.24,1.22 136.44,1.60 136.63,1.97 136.70,2.39 136.77,2.81 136.70,3.23 136.63,3.65 136.43,4.03 136.23,4.40 135.92,4.69 135.61,4.98 135.22,5.16 134.84,5.34 134.84,5.34 134.84,5.34 131.54,7.30 128.24,9.27 124.85,9.43 121.46,9.58 118.39,9.56 115.32,9.53 111.70,9.52 108.09,9.50 102.74,9.46 97.39,9.43 92.92,9.40 88.45,9.37 83.34,9.33 78.23,9.29 73.89,9.23 69.55,9.16 64.21,9.03 58.87,8.89 55.57,8.62 52.27,8.35 47.49,7.72 42.71,7.10 38.76,6.58 34.81,6.07 31.69,5.77 28.58,5.48 23.12,5.14 17.65,4.80 15.14,4.59 12.62,4.38 10.26,4.41 7.90,4.43 4.04,4.04 0.18,3.64 -0.25,3.61 -0.69,3.58 -1.11,3.44 -1.53,3.31 -1.90,3.08 -2.28,2.85 -2.58,2.53 -2.89,2.22 -3.12,1.84 -3.34,1.46 -3.47,1.04 -3.59,0.62 -3.61,0.18 -3.64,-0.25 -3.55,-0.69 -3.47,-1.12 -3.28,-1.52 -3.10,-1.92 -2.82,-2.26 -2.55,-2.60 -2.20,-2.87 -1.85,-3.14 -1.45,-3.32 -1.04,-3.49 -0.61,-3.57 -0.18,-3.64 -0.18,-3.64 L -0.18,-3.64 Z"></path></g><g transform="translate(510.66680908203125 212.66665649414062) rotate(0 4.333343505859375 18.333343505859375)" stroke="none"><path fill="#e03131" d="M 2.79,-3.48 Q 2.79,-3.48 6.91,-0.78 11.03,1.92 13.63,3.97 16.24,6.02 19.07,10.47 21.90,14.92 21.96,17.88 22.02,20.85 20.61,23.47 19.20,26.08 17.17,28.12 15.14,30.16 11.28,33.15 7.43,36.15 5.55,37.31 3.68,38.48 1.15,39.56 -1.38,40.65 -5.89,39.20 -10.41,37.75 -10.72,37.47 -11.04,37.19 -11.26,36.82 -11.47,36.46 -11.55,36.04 -11.64,35.62 -11.58,35.20 -11.53,34.78 -11.34,34.40 -11.16,34.01 -10.86,33.71 -10.56,33.41 -10.18,33.22 -9.80,33.02 -9.38,32.96 -8.96,32.90 -8.54,32.98 -8.13,33.05 -7.75,33.26 -7.38,33.47 -7.10,33.78 -6.81,34.09 -6.64,34.48 -6.47,34.87 -6.43,35.29 -6.39,35.72 -6.49,36.13 -6.59,36.54 -6.81,36.90 -7.04,37.26 -7.37,37.53 -7.70,37.80 -8.10,37.95 -8.49,38.10 -8.92,38.12 -9.34,38.13 -9.75,38.01 -10.16,37.89 -10.50,37.65 -10.85,37.40 -11.10,37.06 -11.35,36.71 -11.48,36.31 -11.61,35.90 -11.60,35.48 -11.59,35.05 -11.45,34.65 -11.31,34.25 -11.04,33.92 -10.78,33.59 -10.43,33.36 -10.07,33.12 -9.66,33.02 -9.25,32.91 -8.82,32.94 -8.40,32.97 -8.01,33.14 -7.62,33.30 -7.62,33.30 -7.62,33.30 -7.64,31.97 -7.66,30.64 -4.93,29.73 -2.21,28.82 -0.39,27.72 1.42,26.61 4.39,24.37 7.36,22.14 9.47,20.38 11.57,18.63 10.50,16.57 9.43,14.52 6.86,12.43 4.29,10.34 0.75,6.91 -2.79,3.48 -3.16,3.10 -3.54,2.71 -3.81,2.25 -4.09,1.79 -4.24,1.27 -4.40,0.76 -4.42,0.22 -4.45,-0.31 -4.35,-0.84 -4.25,-1.37 -4.02,-1.86 -3.79,-2.35 -3.46,-2.77 -3.12,-3.19 -2.69,-3.51 -2.27,-3.84 -1.77,-4.06 -1.28,-4.27 -0.75,-4.37 -0.22,-4.46 0.31,-4.42 0.85,-4.38 1.36,-4.22 1.87,-4.05 2.33,-3.77 2.79,-3.48 2.79,-3.48 L 2.79,-3.48 Z"></path></g><g transform="translate(508.66680908203125 222) rotate(0 -0.33331298828125 16.666671752929688)" stroke="none"><path fill="#e03131" d="M 4.58,0.25 Q 4.58,0.25 4.79,3.72 4.99,7.19 5.13,10.34 5.27,13.48 5.52,16.12 5.76,18.75 4.23,25.15 2.71,31.54 2.62,31.96 2.53,32.37 2.32,32.74 2.10,33.10 1.78,33.38 1.45,33.66 1.06,33.82 0.67,33.98 0.24,34.00 -0.17,34.03 -0.58,33.92 -0.99,33.80 -1.34,33.57 -1.70,33.33 -1.96,32.99 -2.22,32.66 -2.35,32.26 -2.49,31.85 -2.49,31.43 -2.50,31.00 -2.36,30.60 -2.23,30.20 -1.97,29.86 -1.72,29.52 -1.37,29.28 -1.02,29.04 -0.61,28.92 -0.20,28.80 0.22,28.83 0.64,28.85 1.04,29.00 1.43,29.16 1.76,29.43 2.08,29.70 2.30,30.07 2.52,30.43 2.62,30.84 2.71,31.26 2.67,31.68 2.62,32.10 2.45,32.49 2.27,32.88 1.98,33.19 1.69,33.50 1.31,33.70 0.94,33.90 0.52,33.97 0.10,34.04 -0.31,33.97 -0.73,33.91 -1.10,33.71 -1.48,33.51 -1.77,33.21 -2.07,32.90 -2.25,32.51 -2.43,32.13 -2.48,31.71 -2.53,31.29 -2.53,31.29 -2.53,31.29 -3.83,25.49 -5.13,19.69 -5.36,16.76 -5.60,13.84 -5.68,10.22 -5.76,6.60 -5.17,3.17 -4.58,-0.25 -4.48,-0.79 -4.39,-1.34 -4.16,-1.85 -3.94,-2.35 -3.60,-2.79 -3.26,-3.23 -2.82,-3.57 -2.39,-3.91 -1.89,-4.14 -1.38,-4.37 -0.84,-4.48 -0.29,-4.58 0.25,-4.55 0.80,-4.52 1.33,-4.36 1.86,-4.19 2.34,-3.91 2.81,-3.62 3.20,-3.24 3.60,-2.85 3.89,-2.37 4.17,-1.90 4.34,-1.37 4.51,-0.84 4.55,-0.29 4.58,0.25 4.58,0.25 L 4.58,0.25 Z"></path></g><g transform="translate(461.33331298828125 278) rotate(0 1 19.000015258789062)" stroke="none"><path fill="#e03131" d="M 3.95,-0.21 Q 3.95,-0.21 5.29,10.48 6.63,21.17 6.91,25.93 7.19,30.68 5.89,33.39 4.59,36.10 4.55,36.52 4.51,36.94 4.34,37.33 4.17,37.72 3.89,38.04 3.60,38.35 3.23,38.56 2.86,38.76 2.44,38.84 2.02,38.92 1.60,38.86 1.18,38.80 0.80,38.61 0.42,38.42 0.12,38.12 -0.17,37.81 -0.35,37.43 -0.54,37.05 -0.59,36.63 -0.65,36.21 -0.57,35.79 -0.48,35.37 -0.27,35.00 -0.06,34.64 0.25,34.35 0.57,34.07 0.96,33.91 1.35,33.74 1.77,33.71 2.20,33.68 2.61,33.78 3.02,33.89 3.38,34.12 3.73,34.35 4.00,34.68 4.26,35.02 4.41,35.42 4.55,35.81 4.56,36.24 4.57,36.66 4.44,37.07 4.31,37.48 4.06,37.82 3.81,38.16 3.47,38.41 3.12,38.65 2.71,38.78 2.31,38.90 1.88,38.88 1.46,38.87 1.06,38.72 0.66,38.57 0.33,38.30 0.00,38.04 -0.22,37.68 -0.44,37.32 -0.54,36.90 -0.64,36.49 -0.64,36.49 -0.64,36.49 -2.28,33.87 -3.91,31.25 -4.12,26.50 -4.33,21.76 -4.14,10.98 -3.95,0.21 -3.92,-0.26 -3.88,-0.74 -3.74,-1.19 -3.59,-1.64 -3.34,-2.05 -3.09,-2.46 -2.75,-2.79 -2.41,-3.13 -2.00,-3.37 -1.59,-3.62 -1.14,-3.75 -0.68,-3.89 -0.21,-3.92 0.26,-3.94 0.73,-3.86 1.20,-3.77 1.63,-3.57 2.07,-3.37 2.44,-3.07 2.81,-2.77 3.11,-2.40 3.40,-2.02 3.59,-1.58 3.78,-1.15 3.87,-0.68 3.95,-0.21 3.95,-0.21 L 3.95,-0.21 Z"></path></g><g transform="translate(462.6666259765625 280) rotate(0 8.333343505859375 -1.3333282470703125)" stroke="none"><path fill="#e03131" d="M -1.32,-5.28 Q -1.32,-5.28 1.63,-6.54 4.58,-7.80 7.21,-8.04 9.85,-8.28 12.94,-6.44 16.03,-4.61 16.45,-4.55 16.87,-4.49 17.25,-4.30 17.63,-4.11 17.93,-3.81 18.23,-3.51 18.42,-3.13 18.61,-2.75 18.67,-2.33 18.73,-1.91 18.65,-1.49 18.57,-1.07 18.36,-0.70 18.15,-0.33 17.83,-0.05 17.52,0.22 17.13,0.39 16.74,0.56 16.31,0.59 15.89,0.63 15.48,0.53 15.06,0.42 14.71,0.19 14.35,-0.02 14.08,-0.36 13.82,-0.69 13.67,-1.09 13.52,-1.48 13.51,-1.91 13.50,-2.33 13.62,-2.74 13.75,-3.15 14.00,-3.49 14.24,-3.84 14.59,-4.09 14.93,-4.33 15.34,-4.46 15.75,-4.58 16.17,-4.57 16.60,-4.56 17.00,-4.41 17.39,-4.27 17.73,-4.00 18.06,-3.73 18.29,-3.38 18.51,-3.02 18.62,-2.60 18.72,-2.19 18.69,-1.77 18.65,-1.35 18.48,-0.96 18.31,-0.56 18.03,-0.25 17.75,0.06 17.38,0.27 17.01,0.48 16.59,0.56 16.17,0.64 16.17,0.64 16.17,0.64 11.92,2.68 7.68,4.73 4.50,5.00 1.32,5.28 0.66,5.36 0.01,5.44 -0.63,5.36 -1.28,5.29 -1.89,5.05 -2.51,4.82 -3.05,4.45 -3.59,4.08 -4.03,3.59 -4.47,3.10 -4.77,2.52 -5.08,1.94 -5.24,1.31 -5.40,0.67 -5.40,0.01 -5.40,-0.63 -5.25,-1.27 -5.09,-1.91 -4.79,-2.49 -4.49,-3.07 -4.05,-3.57 -3.62,-4.06 -3.08,-4.43 -2.54,-4.81 -1.93,-5.04 -1.31,-5.28 -1.32,-5.28 L -1.32,-5.28 Z"></path></g><g transform="translate(464 292.0000305175781) rotate(0 8 0.666656494140625)" stroke="none"><path fill="#e03131" d="M 0.47,-5.66 Q 0.47,-5.66 5.11,-5.82 9.76,-5.98 11.54,-3.75 13.32,-1.52 13.74,-1.42 14.15,-1.31 14.51,-1.08 14.86,-0.85 15.13,-0.52 15.39,-0.19 15.54,0.20 15.69,0.60 15.70,1.02 15.71,1.45 15.58,1.85 15.46,2.26 15.21,2.60 14.96,2.95 14.61,3.20 14.27,3.44 13.86,3.57 13.45,3.69 13.03,3.68 12.60,3.67 12.21,3.52 11.81,3.37 11.48,3.10 11.15,2.84 10.92,2.48 10.69,2.12 10.59,1.71 10.49,1.30 10.52,0.87 10.56,0.45 10.73,0.06 10.89,-0.32 11.18,-0.64 11.46,-0.95 11.83,-1.16 12.20,-1.37 12.62,-1.45 13.04,-1.53 13.46,-1.47 13.88,-1.41 14.26,-1.22 14.64,-1.03 14.94,-0.73 15.24,-0.43 15.43,-0.05 15.62,0.32 15.67,0.74 15.73,1.16 15.65,1.58 15.57,2.00 15.36,2.37 15.15,2.74 14.83,3.02 14.51,3.30 14.12,3.47 13.73,3.64 13.31,3.67 12.89,3.70 12.89,3.71 12.89,3.71 10.76,5.61 8.63,7.51 4.08,6.59 -0.47,5.66 -1.14,5.52 -1.81,5.38 -2.43,5.09 -3.05,4.79 -3.58,4.36 -4.11,3.92 -4.52,3.37 -4.93,2.83 -5.19,2.19 -5.46,1.56 -5.57,0.89 -5.68,0.21 -5.62,-0.46 -5.56,-1.15 -5.35,-1.80 -5.13,-2.45 -4.76,-3.02 -4.39,-3.60 -3.89,-4.08 -3.40,-4.55 -2.80,-4.89 -2.21,-5.23 -1.55,-5.42 -0.89,-5.61 -0.21,-5.64 0.47,-5.66 0.47,-5.66 L 0.47,-5.66 Z"></path></g><g transform="translate(486 312.6666564941406) rotate(0 7 2.000030517578125)" stroke="none"><path fill="#e03131" d="M -1.89,-4.73 Q -1.89,-4.73 -0.22,-6.08 1.44,-7.43 2.86,-5.28 4.28,-3.12 3.94,0.07 3.59,3.27 5.58,4.16 7.56,5.04 11.37,4.37 15.18,3.71 15.53,3.47 15.89,3.23 16.29,3.12 16.70,3.00 17.13,3.03 17.55,3.05 17.95,3.21 18.34,3.37 18.67,3.64 18.99,3.92 19.21,4.28 19.43,4.65 19.52,5.06 19.61,5.48 19.56,5.90 19.52,6.32 19.34,6.71 19.16,7.09 18.87,7.40 18.57,7.71 18.20,7.91 17.82,8.11 17.40,8.17 16.98,8.24 16.56,8.17 16.14,8.10 15.77,7.90 15.39,7.71 15.10,7.40 14.81,7.09 14.63,6.70 14.45,6.32 14.41,5.89 14.36,5.47 14.45,5.06 14.55,4.64 14.77,4.28 14.99,3.91 15.31,3.64 15.63,3.36 16.03,3.21 16.42,3.05 16.85,3.03 17.27,3.00 17.68,3.12 18.09,3.23 18.44,3.47 18.79,3.71 19.05,4.05 19.31,4.39 19.44,4.79 19.58,5.19 19.58,5.62 19.58,6.04 19.44,6.45 19.30,6.85 19.05,7.19 18.79,7.53 18.79,7.52 18.79,7.52 17.01,11.78 15.23,16.03 12.29,17.18 9.35,18.32 6.40,18.53 3.45,18.74 0.09,17.61 -3.26,16.49 -5.53,13.88 -7.79,11.26 -8.64,7.78 -9.50,4.30 -8.97,1.11 -8.44,-2.08 -6.57,-5.45 -4.70,-8.82 -2.62,-10.56 -0.53,-12.30 2.56,-13.63 5.65,-14.96 8.39,-14.40 11.13,-13.84 12.56,-11.83 13.99,-9.82 13.60,-5.49 13.20,-1.16 11.69,0.41 10.18,2.00 8.20,3.18 6.21,4.36 4.05,4.55 1.89,4.73 1.29,4.88 0.70,5.04 0.09,5.05 -0.52,5.06 -1.12,4.93 -1.72,4.79 -2.26,4.51 -2.81,4.24 -3.28,3.84 -3.75,3.44 -4.11,2.94 -4.46,2.44 -4.69,1.87 -4.92,1.30 -5.00,0.69 -5.09,0.09 -5.03,-0.51 -4.96,-1.13 -4.76,-1.70 -4.55,-2.28 -4.21,-2.79 -3.87,-3.30 -3.42,-3.72 -2.96,-4.14 -2.43,-4.43 -1.89,-4.73 -1.89,-4.73 L -1.89,-4.73 Z"></path></g><g transform="translate(463.33331298828125 258.6666564941406) rotate(0 9.666656494140625 1)" stroke="none"><path fill="#e03131" d="M 0.79,-5.31 Q 0.79,-5.31 4.72,-5.34 8.64,-5.37 13.71,-3.01 18.78,-0.65 19.20,-0.56 19.62,-0.47 19.98,-0.26 20.35,-0.04 20.63,0.27 20.91,0.59 21.07,0.98 21.23,1.37 21.26,1.80 21.29,2.22 21.18,2.63 21.07,3.04 20.83,3.40 20.60,3.75 20.27,4.01 19.93,4.27 19.53,4.41 19.13,4.55 18.70,4.56 18.28,4.56 17.87,4.43 17.47,4.30 17.13,4.05 16.79,3.80 16.54,3.45 16.30,3.10 16.18,2.69 16.06,2.28 16.08,1.86 16.10,1.43 16.25,1.04 16.41,0.64 16.68,0.31 16.95,-0.00 17.31,-0.23 17.67,-0.45 18.09,-0.55 18.50,-0.64 18.92,-0.60 19.35,-0.56 19.73,-0.39 20.12,-0.21 20.43,0.06 20.74,0.35 20.95,0.73 21.15,1.10 21.23,1.52 21.30,1.94 21.24,2.36 21.17,2.78 20.98,3.15 20.78,3.53 20.48,3.83 20.17,4.12 19.79,4.31 19.40,4.49 18.98,4.54 18.56,4.59 18.56,4.59 18.56,4.59 12.62,6.13 6.68,7.67 2.94,6.49 -0.79,5.31 -1.42,5.14 -2.04,4.96 -2.60,4.65 -3.17,4.33 -3.64,3.89 -4.11,3.44 -4.47,2.90 -4.82,2.36 -5.03,1.75 -5.25,1.13 -5.31,0.49 -5.37,-0.15 -5.27,-0.79 -5.17,-1.43 -4.93,-2.03 -4.68,-2.62 -4.30,-3.15 -3.91,-3.67 -3.42,-4.08 -2.92,-4.50 -2.34,-4.78 -1.76,-5.07 -1.13,-5.21 -0.49,-5.34 0.15,-5.33 0.79,-5.31 0.79,-5.31 L 0.79,-5.31 Z"></path></g><g transform="translate(476.6666259765625 252.66665649414062) rotate(0 3.66668701171875 9.666671752929688)" stroke="none"><path fill="#e03131" d="M 5.03,-1.91 Q 5.03,-1.91 7.78,3.40 10.52,8.72 9.49,11.81 8.46,14.90 8.54,15.32 8.63,15.74 8.58,16.16 8.52,16.58 8.34,16.96 8.15,17.35 7.86,17.65 7.56,17.95 7.18,18.15 6.80,18.34 6.38,18.40 5.96,18.46 5.54,18.39 5.12,18.31 4.75,18.11 4.38,17.90 4.09,17.59 3.81,17.27 3.63,16.89 3.46,16.50 3.42,16.07 3.38,15.65 3.48,15.24 3.58,14.82 3.81,14.46 4.03,14.10 4.36,13.83 4.69,13.56 5.08,13.41 5.48,13.26 5.91,13.25 6.33,13.23 6.74,13.35 7.15,13.47 7.49,13.72 7.84,13.96 8.09,14.30 8.34,14.65 8.47,15.05 8.60,15.45 8.60,15.88 8.59,16.30 8.45,16.71 8.30,17.11 8.04,17.44 7.78,17.77 7.42,18.01 7.07,18.24 6.66,18.35 6.24,18.45 5.82,18.42 5.40,18.39 5.00,18.23 4.61,18.06 4.29,17.78 3.97,17.50 3.76,17.13 3.55,16.77 3.55,16.77 3.55,16.77 0.73,15.14 -2.09,13.50 -3.56,7.71 -5.03,1.91 -5.19,1.28 -5.35,0.64 -5.35,0.00 -5.35,-0.64 -5.19,-1.28 -5.04,-1.91 -4.73,-2.48 -4.43,-3.06 -4.00,-3.54 -3.57,-4.03 -3.03,-4.40 -2.50,-4.77 -1.89,-5.00 -1.28,-5.23 -0.64,-5.31 0.00,-5.39 0.64,-5.31 1.29,-5.23 1.89,-5.00 2.50,-4.77 3.03,-4.40 3.57,-4.03 4.00,-3.54 4.43,-3.06 4.73,-2.48 5.04,-1.91 5.04,-1.91 L 5.03,-1.91 Z"></path></g><g transform="translate(483.33331298828125 252.66665649414062) rotate(0 1.666656494140625 8.333343505859375)" stroke="none"><path fill="#e03131" d="M 4.58,-0.91 Q 4.58,-0.91 6.32,3.71 8.06,8.35 6.68,10.74 5.30,13.14 5.32,13.56 5.33,13.99 5.21,14.39 5.09,14.80 4.84,15.15 4.60,15.49 4.25,15.74 3.91,16.00 3.51,16.12 3.10,16.25 2.68,16.24 2.25,16.23 1.85,16.09 1.45,15.95 1.12,15.68 0.78,15.42 0.55,15.06 0.32,14.71 0.22,14.30 0.11,13.88 0.14,13.46 0.17,13.04 0.34,12.65 0.50,12.25 0.78,11.94 1.06,11.62 1.43,11.40 1.80,11.19 2.22,11.11 2.63,11.03 3.06,11.08 3.48,11.13 3.86,11.32 4.24,11.51 4.55,11.80 4.85,12.10 5.04,12.48 5.23,12.86 5.29,13.28 5.35,13.70 5.28,14.12 5.20,14.54 4.99,14.91 4.79,15.28 4.47,15.57 4.16,15.85 3.77,16.02 3.38,16.20 2.96,16.23 2.53,16.27 2.12,16.17 1.71,16.07 1.35,15.85 0.99,15.62 0.72,15.29 0.45,14.96 0.30,14.56 0.15,14.17 0.15,14.17 0.15,14.17 -2.03,12.49 -4.23,10.81 -4.40,5.86 -4.58,0.91 -4.63,0.35 -4.67,-0.20 -4.58,-0.76 -4.48,-1.31 -4.26,-1.83 -4.04,-2.35 -3.70,-2.80 -3.36,-3.25 -2.92,-3.60 -2.48,-3.96 -1.97,-4.20 -1.46,-4.44 -0.91,-4.55 -0.35,-4.66 0.20,-4.64 0.76,-4.61 1.31,-4.45 1.85,-4.29 2.33,-4.01 2.82,-3.72 3.23,-3.33 3.63,-2.94 3.93,-2.46 4.23,-1.98 4.41,-1.45 4.58,-0.91 4.58,-0.91 L 4.58,-0.91 Z"></path></g><g transform="translate(516 227.33334350585938) rotate(0 -0.000030517578125 1.666656494140625)" stroke="none"><path fill="#e03131" d="M 4.96,-0.82 Q 4.96,-0.82 4.05,0.81 3.14,2.45 3.19,2.87 3.23,3.29 3.14,3.71 3.05,4.12 2.83,4.49 2.61,4.85 2.28,5.12 1.96,5.40 1.56,5.55 1.17,5.71 0.74,5.73 0.32,5.75 -0.08,5.64 -0.49,5.52 -0.84,5.28 -1.19,5.04 -1.45,4.70 -1.70,4.36 -1.84,3.96 -1.97,3.56 -1.97,3.13 -1.97,2.71 -1.83,2.31 -1.70,1.90 -1.44,1.57 -1.18,1.23 -0.83,0.99 -0.47,0.75 -0.06,0.64 0.34,0.53 0.76,0.55 1.18,0.58 1.58,0.74 1.97,0.90 2.30,1.17 2.62,1.45 2.84,1.81 3.05,2.18 3.14,2.59 3.23,3.01 3.19,3.43 3.14,3.85 2.96,4.24 2.78,4.62 2.49,4.93 2.19,5.24 1.82,5.44 1.44,5.63 1.02,5.70 0.60,5.77 0.18,5.70 -0.23,5.63 -0.60,5.43 -0.98,5.23 -1.27,4.92 -1.56,4.61 -1.74,4.22 -1.91,3.84 -1.91,3.84 -1.91,3.84 -3.44,2.33 -4.96,0.82 -4.99,0.22 -5.02,-0.38 -4.90,-0.98 -4.78,-1.57 -4.52,-2.12 -4.26,-2.67 -3.88,-3.14 -3.50,-3.61 -3.02,-3.98 -2.53,-4.35 -1.97,-4.59 -1.42,-4.83 -0.82,-4.93 -0.22,-5.03 0.38,-4.98 0.98,-4.94 1.56,-4.75 2.14,-4.56 2.65,-4.23 3.17,-3.91 3.59,-3.47 4.01,-3.04 4.32,-2.51 4.62,-1.99 4.79,-1.41 4.96,-0.82 4.96,-0.82 L 4.96,-0.82 Z"></path></g><g transform="translate(515.3333129882812 235.33334350585938) rotate(0 3.333343505859375 -1.0000152587890625)" stroke="none"><path fill="#e03131" d="M -2.17,-4.34 Q -2.17,-4.34 -0.52,-5.87 1.12,-7.39 1.90,-7.63 2.69,-7.87 3.40,-8.12 4.10,-8.37 4.84,-8.45 5.58,-8.52 6.32,-8.42 7.05,-8.31 7.75,-8.03 8.44,-7.76 9.04,-7.32 9.65,-6.89 10.13,-6.32 10.61,-5.75 10.94,-5.09 11.28,-4.42 11.44,-3.69 11.61,-2.97 11.59,-2.22 11.58,-1.48 11.38,-0.76 11.19,-0.04 10.83,0.60 10.47,1.26 9.97,1.80 9.46,2.35 8.84,2.76 8.22,3.17 7.80,2.20 7.37,1.22 7.22,1.61 7.06,2.01 6.79,2.33 6.51,2.66 6.15,2.88 5.79,3.10 5.37,3.19 4.96,3.29 4.53,3.24 4.11,3.20 3.73,3.02 3.34,2.84 3.03,2.55 2.72,2.26 2.52,1.89 2.32,1.51 2.25,1.09 2.18,0.67 2.25,0.25 2.31,-0.16 2.51,-0.53 2.71,-0.91 3.02,-1.20 3.32,-1.50 3.71,-1.68 4.09,-1.85 4.52,-1.90 4.94,-1.95 5.35,-1.86 5.77,-1.77 6.13,-1.55 6.50,-1.33 6.77,-1.01 7.05,-0.69 7.21,-0.29 7.37,0.09 7.39,0.51 7.42,0.94 7.31,1.35 7.19,1.76 6.96,2.11 6.72,2.46 6.38,2.72 6.04,2.98 5.64,3.12 5.24,3.25 4.81,3.26 4.39,3.26 3.99,3.12 3.58,2.99 3.24,2.73 2.90,2.48 2.67,2.13 2.43,1.77 2.31,1.37 2.20,0.96 2.22,0.53 2.24,0.11 2.24,0.11 2.24,0.11 2.47,-3.88 2.69,-7.87 3.39,-8.12 4.10,-8.37 4.84,-8.45 5.58,-8.52 6.32,-8.42 7.05,-8.31 7.74,-8.03 8.44,-7.76 9.04,-7.32 9.65,-6.89 10.13,-6.32 10.61,-5.75 10.94,-5.09 11.28,-4.42 11.44,-3.69 11.61,-2.97 11.59,-2.22 11.58,-1.48 11.38,-0.76 11.19,-0.04 10.83,0.60 10.47,1.26 9.97,1.80 9.46,2.35 8.84,2.76 8.22,3.17 7.38,3.37 6.54,3.56 4.35,3.95 2.17,4.34 1.62,4.54 1.07,4.74 0.48,4.80 -0.09,4.85 -0.67,4.77 -1.25,4.69 -1.79,4.47 -2.34,4.25 -2.81,3.91 -3.29,3.57 -3.67,3.12 -4.05,2.68 -4.31,2.15 -4.57,1.63 -4.70,1.06 -4.83,0.49 -4.82,-0.09 -4.81,-0.68 -4.66,-1.24 -4.50,-1.81 -4.22,-2.32 -3.94,-2.83 -3.54,-3.27 -3.15,-3.70 -2.66,-4.02 -2.17,-4.34 -2.17,-4.34 L -2.17,-4.34 Z"></path></g></svg>