<svg version="1.1" xmlns="http://www.w3.org/2000/svg" viewBox="0 0 580.96995053418 671.7053104383222" width="580.96995053418" height="671.7053104383222" class="excalidraw-svg"><!-- svg-source:excalidraw --><metadata></metadata><defs><style class="style-fonts">
      </style></defs><rect x="0" y="0" width="580.96995053418" height="671.7053104383222" fill="#ffffff"></rect><g transform="translate(310.31399724986676 300.8829489947136) rotate(0 -16.66668701171875 -8.999969482421875)" stroke="none"><path fill="#1e1e1e" d="M -2.79,-0.69 Q -2.79,-0.69 -2.86,-3.95 -2.93,-7.20 -3.27,-9.64 -3.62,-12.07 -4.23,-14.18 -4.85,-16.28 -5.99,-18.71 -7.13,-21.14 -10.35,-22.22 -13.57,-23.31 -16.41,-22.30 -19.26,-21.29 -20.92,-19.95 -22.58,-18.61 -24.21,-15.86 -25.83,-13.12 -26.96,-10.68 -28.09,-8.24 -28.66,-6.18 -29.23,-4.11 -28.43,-0.76 -27.63,2.57 -25.67,3.53 -23.72,4.48 -21.16,4.54 -18.60,4.61 -16.47,3.77 -14.34,2.93 -12.51,1.82 -10.67,0.72 -8.12,-2.83 -5.57,-6.38 -5.28,-10.40 -4.98,-14.42 -5.13,-16.72 -5.27,-19.03 -6.13,-21.06 -7.00,-23.09 -8.73,-21.75 -10.46,-20.41 -11.81,-17.52 -13.17,-14.63 -13.68,-12.47 -14.19,-10.31 -14.84,-7.52 -15.49,-4.74 -16.16,-1.97 -16.83,0.79 -18.04,3.78 -19.25,6.77 -20.79,9.17 -22.33,11.58 -25.21,13.31 -28.08,15.05 -31.25,14.59 -34.41,14.12 -36.69,11.15 -38.98,8.18 -39.66,4.95 -40.34,1.71 -39.93,-1.82 -39.51,-5.36 -37.53,-9.75 -35.55,-14.13 -33.46,-17.50 -31.38,-20.87 -27.99,-23.83 -24.60,-26.78 -21.10,-28.53 -17.61,-30.27 -13.22,-30.26 -8.82,-30.25 -5.48,-28.45 -2.13,-26.66 0.00,-23.40 2.14,-20.13 2.93,-17.04 3.73,-13.96 3.37,-10.83 3.01,-7.70 0.89,-5.06 -1.22,-2.42 -4.68,-1.33 -8.14,-0.24 -10.86,-0.17 -13.58,-0.10 -16.42,-0.79 -19.27,-1.48 -21.53,-2.75 -23.79,-4.01 -25.57,-6.54 -27.36,-9.07 -27.99,-11.67 -28.62,-14.28 -26.16,-19.74 -23.70,-25.20 -20.68,-25.87 -17.66,-26.55 -14.11,-25.05 -10.56,-23.56 -8.12,-21.02 -5.68,-18.47 -4.35,-15.55 -3.02,-12.63 -2.69,-10.22 -2.36,-7.81 -3.37,-4.95 -4.38,-2.09 -6.90,-0.20 -9.42,1.67 -12.09,2.07 -14.75,2.48 -17.10,1.94 -19.45,1.41 -21.67,-0.47 -23.88,-2.35 -24.74,-5.00 -25.60,-7.65 -24.99,-10.43 -24.38,-13.20 -22.74,-15.63 -21.10,-18.06 -18.78,-19.68 -16.46,-21.31 -13.62,-22.01 -10.78,-22.72 -7.87,-22.07 -4.96,-21.42 -2.82,-19.16 -0.69,-16.90 -0.26,-13.56 0.17,-10.22 -0.85,-7.29 -1.87,-4.37 -3.96,-1.54 -6.04,1.28 -7.91,2.99 -9.77,4.69 -14.73,5.62 -19.68,6.56 -21.74,4.69 -23.81,2.81 -24.27,0.37 -24.73,-2.07 -23.98,-4.28 -23.23,-6.50 -21.52,-8.11 -19.82,-9.72 -17.43,-10.40 -15.05,-11.08 -12.70,-10.64 -10.34,-10.20 -8.42,-8.60 -6.49,-7.00 -5.43,-4.14 -4.36,-1.27 -4.66,1.36 -4.95,4.01 -8.62,6.29 -12.28,8.56 -12.60,8.84 -12.92,9.12 -13.31,9.29 -13.70,9.45 -14.12,9.48 -14.55,9.51 -14.96,9.41 -15.37,9.30 -15.73,9.07 -16.08,8.83 -16.34,8.50 -16.61,8.17 -16.75,7.77 -16.89,7.37 -16.90,6.94 -16.91,6.52 -16.78,6.11 -16.65,5.71 -16.40,5.36 -16.15,5.02 -15.80,4.78 -15.45,4.53 -15.04,4.41 -14.64,4.29 -14.21,4.31 -13.79,4.32 -13.39,4.47 -12.99,4.62 -12.66,4.89 -12.34,5.16 -12.11,5.52 -11.88,5.88 -11.79,6.30 -11.69,6.71 -11.73,7.13 -11.77,7.56 -11.94,7.95 -12.11,8.33 -12.40,8.65 -12.68,8.96 -13.06,9.17 -13.43,9.37 -13.85,9.45 -14.26,9.52 -14.68,9.46 -15.11,9.40 -15.48,9.21 -15.86,9.02 -16.16,8.71 -16.46,8.41 -16.64,8.03 -16.83,7.64 -16.88,7.22 -16.93,6.80 -16.85,6.38 -16.76,5.97 -16.55,5.60 -16.34,5.23 -16.34,5.23 -16.34,5.23 -16.01,3.09 -15.69,0.94 -14.09,-0.47 -12.49,-1.89 -14.07,-4.09 -15.66,-6.29 -13.08,-8.55 -10.49,-10.80 -12.32,-9.55 -14.15,-8.29 -15.53,-11.40 -16.92,-14.50 -15.22,-13.21 -13.52,-11.92 -10.98,-13.21 -8.43,-14.51 -9.37,-16.41 -10.31,-18.32 -13.53,-17.77 -16.75,-17.21 -18.78,-15.66 -20.82,-14.12 -22.49,-11.39 -24.15,-8.67 -25.58,-5.93 -27.01,-3.19 -28.99,-0.69 -30.97,1.81 -30.07,-0.21 -29.18,-2.24 -28.50,-4.96 -27.83,-7.67 -27.13,-10.59 -26.42,-13.50 -25.55,-16.64 -24.68,-19.77 -23.03,-23.11 -21.39,-26.46 -19.21,-28.76 -17.04,-31.05 -13.70,-32.63 -10.37,-34.21 -7.08,-34.09 -3.78,-33.98 -0.63,-32.12 2.51,-30.26 3.77,-28.19 5.03,-26.12 6.04,-23.00 7.04,-19.88 7.20,-16.95 7.36,-14.01 7.15,-10.33 6.95,-6.64 5.88,-3.20 4.80,0.24 2.84,3.12 0.89,6.00 -1.80,8.66 -4.49,11.33 -7.51,12.96 -10.53,14.59 -14.41,15.69 -18.29,16.79 -21.10,16.74 -23.91,16.69 -26.34,16.07 -28.77,15.46 -31.66,13.82 -34.55,12.19 -36.63,9.51 -38.71,6.83 -39.68,3.64 -40.66,0.46 -40.58,-3.44 -40.50,-7.34 -39.54,-10.32 -38.59,-13.30 -37.02,-16.42 -35.45,-19.54 -32.54,-23.57 -29.64,-27.59 -26.94,-29.54 -24.25,-31.50 -20.76,-32.91 -17.26,-34.33 -14.60,-34.35 -11.93,-34.37 -8.94,-33.77 -5.96,-33.16 -3.71,-31.88 -1.46,-30.60 0.41,-28.59 2.29,-26.58 3.79,-22.59 5.29,-18.60 5.87,-15.45 6.45,-12.30 6.23,-8.68 6.00,-5.05 4.39,-2.18 2.79,0.69 2.66,1.02 2.54,1.34 2.34,1.63 2.14,1.91 1.88,2.14 1.62,2.37 1.31,2.53 1.01,2.69 0.67,2.77 0.33,2.85 -0.00,2.85 -0.35,2.85 -0.69,2.77 -1.02,2.68 -1.33,2.52 -1.64,2.36 -1.90,2.13 -2.16,1.90 -2.35,1.61 -2.55,1.32 -2.67,1.00 -2.79,0.67 -2.83,0.33 -2.87,-0.00 -2.83,-0.35 -2.79,-0.69 -2.79,-0.69 L -2.79,-0.69 Z"></path></g><g transform="translate(294.98062322642926 366.8829489947136) rotate(0 3.333343505859375 -1.33331298828125)" stroke="none"><path fill="#1e1e1e" d="M 0,-4.21 Q 0,-4.21 2.61,-4.64 5.22,-5.06 7.11,-7.89 9.00,-10.72 8.21,-13.63 7.41,-16.53 4.49,-15.24 1.57,-13.95 -0.00,-11.92 -1.57,-9.89 -3.21,-7.39 -4.84,-4.89 -5.59,-1.12 -6.33,2.64 -6.53,5.64 -6.73,8.64 -2.90,10.63 0.92,12.63 3.65,12.66 6.39,12.70 9.46,11.61 12.53,10.52 15.62,10.65 18.72,10.78 19.11,10.62 19.50,10.45 19.93,10.42 20.35,10.39 20.76,10.50 21.17,10.61 21.53,10.84 21.88,11.07 22.15,11.41 22.41,11.74 22.55,12.14 22.69,12.54 22.70,12.97 22.71,13.39 22.58,13.80 22.45,14.20 22.20,14.54 21.94,14.89 21.60,15.13 21.25,15.37 20.84,15.49 20.43,15.61 20.01,15.60 19.58,15.58 19.19,15.43 18.79,15.28 18.46,15.01 18.13,14.74 17.91,14.38 17.68,14.02 17.58,13.60 17.49,13.19 17.53,12.77 17.57,12.35 17.74,11.96 17.91,11.57 18.20,11.26 18.48,10.94 18.86,10.74 19.23,10.53 19.65,10.46 20.07,10.38 20.49,10.44 20.91,10.51 21.29,10.70 21.66,10.89 21.96,11.20 22.26,11.50 22.44,11.88 22.63,12.27 22.68,12.69 22.73,13.11 22.65,13.52 22.56,13.94 22.35,14.31 22.14,14.68 21.82,14.96 21.50,15.24 21.50,15.24 21.50,15.24 19.73,18.62 17.96,22.01 14.74,23.36 11.52,24.70 8.61,25.03 5.71,25.36 1.29,24.99 -3.11,24.61 -9.38,21.55 -15.66,18.48 -17.32,13.06 -18.98,7.64 -18.54,3.63 -18.10,-0.38 -16.43,-5.90 -14.76,-11.42 -12.52,-14.55 -10.29,-17.68 -7.26,-20.78 -4.24,-23.88 -0.24,-25.70 3.74,-27.53 7.59,-27.07 11.43,-26.60 14.31,-24.14 17.19,-21.69 18.50,-16.51 19.80,-11.33 19.29,-8.72 18.78,-6.11 17.33,-3.50 15.88,-0.88 13.60,1.16 11.31,3.21 8.40,4.14 5.50,5.06 2.75,4.64 0,4.21 -0.50,4.15 -1.00,4.09 -1.48,3.91 -1.96,3.73 -2.37,3.44 -2.79,3.15 -3.13,2.77 -3.47,2.39 -3.70,1.94 -3.94,1.49 -4.06,1.00 -4.18,0.50 -4.18,-0.00 -4.18,-0.50 -4.06,-1.00 -3.94,-1.49 -3.70,-1.94 -3.47,-2.39 -3.13,-2.77 -2.79,-3.15 -2.37,-3.44 -1.96,-3.73 -1.48,-3.91 -1.00,-4.09 -0.50,-4.15 0.00,-4.21 0.00,-4.21 L 0,-4.21 Z"></path></g><g transform="translate(316.98062322642926 333.54963600643237) rotate(0 15 0.666656494140625)" stroke="none"><path fill="#1e1e1e" d="M 0.27,-4.64 Q 0.27,-4.64 3.55,-4.84 6.83,-5.03 9.33,-4.80 11.84,-4.56 15.89,-4.45 19.95,-4.34 24.39,-3.13 28.82,-1.91 29.25,-1.86 29.67,-1.81 30.05,-1.62 30.44,-1.44 30.74,-1.14 31.05,-0.85 31.24,-0.47 31.44,-0.09 31.50,0.32 31.56,0.74 31.49,1.16 31.42,1.57 31.21,1.95 31.01,2.32 30.70,2.61 30.39,2.90 30.00,3.07 29.61,3.25 29.19,3.29 28.77,3.33 28.35,3.23 27.94,3.14 27.58,2.91 27.22,2.69 26.94,2.36 26.67,2.04 26.52,1.64 26.37,1.24 26.35,0.82 26.33,0.39 26.45,-0.00 26.57,-0.41 26.81,-0.76 27.05,-1.11 27.39,-1.36 27.73,-1.62 28.14,-1.75 28.54,-1.88 28.97,-1.87 29.39,-1.87 29.79,-1.73 30.19,-1.59 30.53,-1.33 30.87,-1.07 31.10,-0.71 31.33,-0.36 31.44,0.04 31.55,0.45 31.52,0.88 31.50,1.30 31.33,1.69 31.17,2.09 30.89,2.41 30.62,2.73 30.25,2.94 29.88,3.16 29.47,3.24 29.05,3.33 29.05,3.33 29.05,3.33 26.82,4.93 24.59,6.53 22.15,6.70 19.72,6.87 15.14,6.64 10.56,6.42 8.38,6.11 6.19,5.80 2.96,5.22 -0.27,4.64 -0.82,4.54 -1.37,4.44 -1.88,4.21 -2.40,3.98 -2.84,3.64 -3.28,3.29 -3.63,2.85 -3.97,2.41 -4.20,1.90 -4.43,1.39 -4.54,0.83 -4.64,0.28 -4.61,-0.27 -4.57,-0.83 -4.41,-1.36 -4.24,-1.90 -3.95,-2.38 -3.66,-2.86 -3.27,-3.26 -2.87,-3.65 -2.39,-3.94 -1.91,-4.23 -1.38,-4.40 -0.84,-4.57 -0.28,-4.60 0.27,-4.64 0.27,-4.64 L 0.27,-4.64 Z"></path></g><g transform="translate(211.25769832829445 174.73807369868146) rotate(0 6.3333740234375 17.333343505859375)" stroke="none"><path fill="#2f9e44" d="M 3.89,1.08 Q 3.89,1.08 3.33,4.64 2.76,8.20 2.03,11.33 1.31,14.47 1.05,16.88 0.79,19.29 1.10,22.95 1.41,26.61 3.27,27.70 5.13,28.79 7.84,29.06 10.55,29.34 13.12,30.29 15.69,31.25 16.09,31.09 16.48,30.93 16.91,30.91 17.33,30.88 17.74,31.00 18.15,31.11 18.50,31.35 18.85,31.59 19.11,31.93 19.37,32.26 19.51,32.67 19.64,33.07 19.64,33.49 19.64,33.92 19.51,34.32 19.37,34.73 19.11,35.06 18.86,35.40 18.51,35.64 18.15,35.88 17.74,35.99 17.34,36.11 16.91,36.08 16.49,36.06 16.09,35.91 15.70,35.75 15.37,35.47 15.05,35.20 14.83,34.83 14.61,34.47 14.52,34.06 14.43,33.64 14.47,33.22 14.52,32.80 14.70,32.41 14.87,32.02 15.17,31.72 15.46,31.41 15.83,31.21 16.21,31.01 16.63,30.94 17.05,30.87 17.47,30.94 17.89,31.01 18.26,31.21 18.64,31.40 18.93,31.71 19.22,32.02 19.40,32.41 19.58,32.79 19.63,33.21 19.67,33.64 19.58,34.05 19.49,34.47 19.27,34.83 19.05,35.20 18.73,35.47 18.40,35.75 18.41,35.75 18.41,35.75 15.42,37.70 12.43,39.65 8.96,39.35 5.49,39.06 2.95,38.41 0.41,37.77 -2.06,36.20 -4.55,34.64 -6.40,31.92 -8.26,29.19 -8.86,26.10 -9.47,23.01 -9.30,20.53 -9.13,18.06 -8.72,15.07 -8.30,12.09 -7.45,8.84 -6.59,5.59 -5.24,2.25 -3.89,-1.08 -3.70,-1.53 -3.52,-1.98 -3.23,-2.37 -2.94,-2.76 -2.57,-3.07 -2.19,-3.39 -1.75,-3.60 -1.32,-3.81 -0.84,-3.92 -0.36,-4.02 0.11,-4.01 0.60,-3.99 1.07,-3.86 1.54,-3.73 1.96,-3.49 2.39,-3.25 2.74,-2.92 3.10,-2.58 3.36,-2.18 3.63,-1.77 3.79,-1.31 3.95,-0.85 3.99,-0.36 4.03,0.11 3.96,0.60 3.89,1.08 3.89,1.08 L 3.89,1.08 Z"></path></g><g transform="translate(211.9243853400132 190.07141720454084) rotate(0 7.666656494140625 0)" stroke="none"><path fill="#2f9e44" d="M 0,-4.46 Q 0,-4.46 4.21,-5.19 8.43,-5.92 11.32,-4.51 14.22,-3.10 14.64,-3.13 15.06,-3.15 15.47,-3.04 15.89,-2.93 16.24,-2.70 16.59,-2.46 16.85,-2.12 17.11,-1.79 17.25,-1.39 17.39,-0.98 17.39,-0.56 17.39,-0.13 17.26,0.26 17.13,0.66 16.87,1.00 16.62,1.34 16.27,1.58 15.92,1.83 15.51,1.94 15.10,2.06 14.68,2.04 14.25,2.02 13.86,1.86 13.46,1.71 13.13,1.44 12.81,1.16 12.59,0.80 12.37,0.44 12.27,0.02 12.18,-0.38 12.22,-0.80 12.26,-1.23 12.44,-1.61 12.61,-2.00 12.90,-2.31 13.20,-2.62 13.57,-2.82 13.94,-3.02 14.36,-3.10 14.78,-3.17 15.20,-3.10 15.62,-3.04 16.00,-2.84 16.37,-2.64 16.67,-2.34 16.96,-2.03 17.14,-1.65 17.32,-1.26 17.37,-0.84 17.42,-0.42 17.33,-0.00 17.25,0.40 17.03,0.77 16.81,1.14 16.49,1.41 16.17,1.69 15.77,1.85 15.38,2.01 15.38,2.01 15.38,2.01 11.90,3.96 8.43,5.92 4.21,5.19 0,4.46 -0.53,4.40 -1.06,4.33 -1.57,4.14 -2.07,3.95 -2.51,3.65 -2.96,3.34 -3.31,2.94 -3.67,2.53 -3.92,2.06 -4.17,1.58 -4.30,1.06 -4.43,0.53 -4.43,-0.00 -4.43,-0.53 -4.30,-1.06 -4.17,-1.58 -3.92,-2.06 -3.67,-2.53 -3.31,-2.94 -2.96,-3.34 -2.51,-3.65 -2.07,-3.95 -1.57,-4.14 -1.06,-4.33 -0.53,-4.40 0.00,-4.46 0.00,-4.46 L 0,-4.46 Z"></path></g><g transform="translate(209.9243853400132 170.07141720454084) rotate(0 10 -1.3333282470703125)" stroke="none"><path fill="#2f9e44" d="M -0.29,-4.45 Q -0.29,-4.45 2.55,-5.00 5.40,-5.56 7.85,-5.69 10.31,-5.83 14.57,-5.45 18.84,-5.08 19.27,-5.12 19.69,-5.15 20.10,-5.05 20.52,-4.96 20.88,-4.73 21.24,-4.50 21.50,-4.17 21.77,-3.85 21.92,-3.45 22.07,-3.05 22.09,-2.63 22.10,-2.20 21.98,-1.79 21.86,-1.39 21.62,-1.04 21.37,-0.69 21.03,-0.44 20.68,-0.19 20.28,-0.06 19.87,0.06 19.45,0.05 19.02,0.04 18.62,-0.09 18.22,-0.24 17.89,-0.50 17.56,-0.76 17.33,-1.12 17.09,-1.48 16.99,-1.89 16.88,-2.30 16.91,-2.72 16.94,-3.15 17.11,-3.54 17.27,-3.93 17.55,-4.25 17.84,-4.57 18.20,-4.78 18.57,-4.99 18.99,-5.08 19.41,-5.16 19.83,-5.10 20.25,-5.05 20.63,-4.87 21.01,-4.68 21.32,-4.38 21.62,-4.08 21.81,-3.70 22.00,-3.32 22.06,-2.90 22.12,-2.48 22.05,-2.07 21.97,-1.65 21.76,-1.28 21.56,-0.90 21.24,-0.62 20.93,-0.33 20.54,-0.16 20.15,0.00 20.15,0.00 20.15,0.00 17.61,2.15 15.06,4.30 12.86,4.52 10.67,4.74 8.38,4.76 6.09,4.79 3.19,4.62 0.29,4.45 -0.24,4.42 -0.77,4.39 -1.29,4.24 -1.80,4.08 -2.27,3.80 -2.73,3.53 -3.11,3.15 -3.50,2.77 -3.78,2.31 -4.06,1.85 -4.22,1.34 -4.38,0.83 -4.42,0.29 -4.46,-0.24 -4.36,-0.77 -4.27,-1.30 -4.05,-1.79 -3.83,-2.28 -3.50,-2.71 -3.17,-3.14 -2.75,-3.47 -2.33,-3.80 -1.84,-4.03 -1.35,-4.25 -0.82,-4.35 -0.29,-4.45 -0.29,-4.45 L -0.29,-4.45 Z"></path></g><g transform="translate(211.25769832829445 145.4047607104002) rotate(0 10.333343505859375 0.3333282470703125)" stroke="none"><path fill="#2f9e44" d="M 0,-3.90 Q 0,-3.90 3.06,-4.32 6.13,-4.73 8.59,-4.57 11.06,-4.42 13.96,-4.40 16.86,-4.37 18.59,-3.17 20.32,-1.96 20.74,-1.89 21.16,-1.81 21.53,-1.61 21.90,-1.41 22.19,-1.09 22.48,-0.78 22.65,-0.40 22.83,-0.01 22.87,0.40 22.91,0.83 22.82,1.24 22.72,1.66 22.50,2.02 22.27,2.38 21.95,2.65 21.62,2.92 21.22,3.08 20.83,3.23 20.40,3.25 19.98,3.27 19.57,3.15 19.16,3.03 18.81,2.79 18.46,2.55 18.21,2.20 17.96,1.86 17.83,1.46 17.69,1.05 17.70,0.63 17.70,0.20 17.84,-0.19 17.98,-0.59 18.24,-0.92 18.50,-1.26 18.86,-1.49 19.21,-1.73 19.62,-1.84 20.03,-1.95 20.46,-1.92 20.88,-1.89 21.28,-1.73 21.67,-1.57 21.99,-1.29 22.31,-1.01 22.53,-0.64 22.74,-0.28 22.83,0.13 22.91,0.54 22.86,0.97 22.81,1.39 22.63,1.77 22.45,2.16 22.15,2.46 21.86,2.77 21.48,2.96 21.10,3.16 20.68,3.22 20.26,3.28 20.26,3.28 20.26,3.28 17.07,4.37 13.88,5.45 10.00,5.09 6.13,4.73 3.06,4.32 0,3.90 -0.46,3.85 -0.93,3.79 -1.37,3.62 -1.81,3.46 -2.20,3.19 -2.59,2.92 -2.90,2.57 -3.21,2.22 -3.43,1.80 -3.65,1.38 -3.76,0.92 -3.88,0.47 -3.88,-0.00 -3.88,-0.47 -3.76,-0.92 -3.65,-1.38 -3.43,-1.80 -3.21,-2.22 -2.90,-2.57 -2.59,-2.92 -2.20,-3.19 -1.81,-3.46 -1.37,-3.62 -0.93,-3.79 -0.46,-3.85 0.00,-3.90 0.00,-3.90 L 0,-3.90 Z"></path></g><g transform="translate(233.25769832829445 136.73807369868146) rotate(0 9 9.333343505859375)" stroke="none"><path fill="#2f9e44" d="M 0.68,-3.65 Q 0.68,-3.65 3.85,-3.64 7.03,-3.63 11.25,-2.42 15.47,-1.22 18.08,0.55 20.68,2.34 21.10,6.48 21.52,10.63 20.09,12.46 18.66,14.29 16.95,15.84 15.24,17.39 13.41,18.73 11.57,20.07 8.09,21.72 4.61,23.37 1.23,21.98 -2.15,20.60 -2.19,16.89 -2.23,13.19 -2.27,12.76 -2.31,12.34 -2.21,11.93 -2.11,11.51 -1.88,11.15 -1.65,10.80 -1.32,10.53 -0.99,10.26 -0.59,10.11 -0.19,9.96 0.22,9.95 0.65,9.94 1.05,10.06 1.46,10.18 1.81,10.43 2.15,10.68 2.40,11.02 2.65,11.37 2.78,11.77 2.90,12.18 2.89,12.60 2.88,13.03 2.74,13.43 2.59,13.83 2.33,14.16 2.06,14.49 1.71,14.72 1.35,14.95 0.94,15.05 0.53,15.16 0.10,15.13 -0.31,15.09 -0.70,14.93 -1.09,14.76 -1.41,14.48 -1.73,14.19 -1.94,13.83 -2.15,13.46 -2.23,13.04 -2.31,12.62 -2.26,12.20 -2.20,11.78 -2.01,11.40 -1.83,11.02 -1.53,10.72 -1.23,10.41 -0.85,10.22 -0.47,10.03 -0.05,9.97 0.36,9.92 0.78,9.99 1.20,10.07 1.57,10.28 1.94,10.49 2.22,10.80 2.51,11.12 2.68,11.51 2.85,11.90 2.85,11.90 2.85,11.90 4.20,13.69 5.54,15.49 5.36,13.33 5.18,11.16 8.25,9.74 11.32,8.31 8.28,7.12 5.23,5.93 2.27,4.79 -0.68,3.65 -1.11,3.51 -1.53,3.38 -1.92,3.14 -2.30,2.91 -2.61,2.59 -2.93,2.27 -3.16,1.89 -3.39,1.51 -3.52,1.08 -3.65,0.65 -3.68,0.20 -3.70,-0.23 -3.62,-0.67 -3.54,-1.11 -3.35,-1.52 -3.17,-1.93 -2.89,-2.28 -2.61,-2.63 -2.26,-2.91 -1.90,-3.18 -1.49,-3.36 -1.09,-3.55 -0.64,-3.62 -0.20,-3.70 0.23,-3.67 0.68,-3.65 0.68,-3.65 L 0.68,-3.65 Z"></path></g><g transform="translate(233.25769832829445 142.07141720454084) rotate(0 1 6.3333282470703125)" stroke="none"><path fill="#2f9e44" d="M 3.99,-0.63 Q 3.99,-0.63 5.13,2.92 6.28,6.47 5.26,8.22 4.23,9.96 4.23,10.39 4.22,10.81 4.09,11.22 3.95,11.62 3.69,11.95 3.43,12.29 3.08,12.53 2.72,12.76 2.31,12.88 1.90,12.99 1.48,12.96 1.05,12.94 0.66,12.78 0.27,12.62 -0.05,12.34 -0.37,12.06 -0.59,11.70 -0.80,11.33 -0.89,10.92 -0.98,10.50 -0.93,10.08 -0.88,9.66 -0.70,9.27 -0.52,8.89 -0.23,8.58 0.06,8.27 0.43,8.08 0.81,7.88 1.23,7.81 1.65,7.75 2.07,7.82 2.49,7.89 2.86,8.09 3.24,8.29 3.53,8.60 3.82,8.91 3.99,9.30 4.17,9.69 4.21,10.11 4.26,10.53 4.16,10.95 4.07,11.36 3.85,11.72 3.63,12.09 3.30,12.36 2.97,12.63 2.58,12.79 2.18,12.94 1.76,12.96 1.33,12.98 0.92,12.87 0.52,12.75 0.17,12.51 -0.17,12.27 -0.43,11.93 -0.68,11.59 -0.82,11.19 -0.95,10.78 -0.95,10.78 -0.95,10.78 -2.47,9.44 -3.98,8.09 -3.98,4.36 -3.99,0.63 -4.00,0.14 -4.02,-0.34 -3.92,-0.82 -3.82,-1.29 -3.61,-1.73 -3.40,-2.17 -3.09,-2.55 -2.78,-2.92 -2.39,-3.21 -2.00,-3.50 -1.55,-3.69 -1.10,-3.88 -0.62,-3.96 -0.14,-4.03 0.34,-3.99 0.82,-3.95 1.28,-3.79 1.74,-3.64 2.15,-3.38 2.57,-3.11 2.90,-2.76 3.24,-2.41 3.48,-1.98 3.72,-1.56 3.85,-1.09 3.99,-0.62 3.99,-0.63 L 3.99,-0.63 Z"></path></g><g transform="translate(243.9243853400132 214.73807369868146) rotate(0 3.333343505859375 4.333343505859375)" stroke="none"><path fill="#2f9e44" d="M 3.98,0.30 Q 3.98,0.30 4.15,2.46 4.32,4.63 5.17,4.29 6.03,3.96 6.30,3.63 6.57,3.30 6.93,3.08 7.29,2.86 7.71,2.76 8.12,2.66 8.54,2.70 8.97,2.74 9.36,2.92 9.74,3.09 10.06,3.38 10.37,3.67 10.57,4.04 10.78,4.41 10.85,4.83 10.92,5.25 10.86,5.67 10.80,6.09 10.60,6.47 10.41,6.85 10.11,7.14 9.80,7.44 9.42,7.62 9.03,7.81 8.61,7.86 8.19,7.91 7.77,7.82 7.36,7.74 6.99,7.52 6.62,7.31 6.35,6.99 6.07,6.67 5.90,6.27 5.74,5.88 5.71,5.46 5.68,5.03 5.79,4.62 5.90,4.21 6.13,3.86 6.37,3.50 6.70,3.24 7.04,2.98 7.44,2.84 7.84,2.70 8.26,2.69 8.69,2.69 9.09,2.82 9.50,2.95 9.84,3.20 10.18,3.45 10.42,3.80 10.67,4.15 10.79,4.56 10.91,4.97 10.89,5.39 10.87,5.82 10.72,6.21 10.57,6.61 10.57,6.61 10.57,6.61 10.01,9.44 9.44,12.27 7.12,13.16 4.80,14.04 1.07,12.22 -2.66,10.40 -3.87,7.86 -5.08,5.33 -4.53,2.51 -3.98,-0.30 -3.89,-0.77 -3.79,-1.25 -3.59,-1.68 -3.38,-2.12 -3.08,-2.49 -2.78,-2.87 -2.39,-3.16 -2.01,-3.45 -1.57,-3.64 -1.12,-3.83 -0.65,-3.91 -0.17,-3.99 0.30,-3.95 0.78,-3.92 1.24,-3.77 1.70,-3.62 2.10,-3.36 2.51,-3.10 2.85,-2.76 3.18,-2.41 3.43,-1.99 3.67,-1.58 3.80,-1.11 3.94,-0.65 3.96,-0.17 3.98,0.30 3.98,0.30 L 3.98,0.30 Z"></path></g><g transform="translate(245.25769832829445 197.4047607104002) rotate(0 0.00005000000000165983 0.00004999999999988347)" stroke="none"><path fill="#2f9e44" d="M 4.25,-4.24 Q 4.25,-4.24 4.81,-3.46 5.38,-2.67 5.67,-1.74 5.95,-0.81 5.92,0.16 5.90,1.13 5.56,2.04 5.23,2.95 4.62,3.71 4.01,4.47 3.19,4.99 2.37,5.52 1.43,5.75 0.48,5.99 -0.48,5.91 -1.45,5.83 -2.34,5.44 -3.23,5.06 -3.96,4.41 -4.68,3.76 -5.16,2.91 -5.64,2.07 -5.82,1.11 -6.00,0.16 -5.87,-0.80 -5.74,-1.76 -5.31,-2.63 -4.88,-3.50 -4.19,-4.19 -3.50,-4.88 -2.63,-5.31 -1.76,-5.74 -0.79,-5.87 0.16,-6.00 1.11,-5.82 2.07,-5.64 2.92,-5.16 3.76,-4.68 4.41,-3.95 5.06,-3.23 5.44,-2.34 5.83,-1.44 5.91,-0.47 5.99,0.48 5.75,1.43 5.52,2.37 4.99,3.19 4.47,4.01 3.71,4.62 2.95,5.23 2.04,5.56 1.13,5.90 0.15,5.92 -0.81,5.95 -1.74,5.66 -2.67,5.38 -3.46,4.81 -4.25,4.24 -4.25,4.24 -4.24,4.25 -4.69,3.67 -5.14,3.10 -5.44,2.44 -5.73,1.78 -5.86,1.07 -5.99,0.36 -5.95,-0.36 -5.91,-1.08 -5.69,-1.77 -5.48,-2.46 -5.10,-3.08 -4.73,-3.70 -4.21,-4.21 -3.70,-4.73 -3.08,-5.10 -2.46,-5.48 -1.77,-5.69 -1.08,-5.91 -0.35,-5.95 0.36,-5.99 1.07,-5.86 1.78,-5.73 2.44,-5.44 3.10,-5.14 3.68,-4.69 4.25,-4.24 4.25,-4.24 L 4.25,-4.24 Z"></path></g><g stroke-linecap="round" transform="translate(10 10) rotate(0 280.3604592708915 141.22327653693858)"><path d="M32 0 C142.22 -0.9, 250.29 -1.53, 528.72 0 M32 0 C193.53 1.84, 355.71 1.76, 528.72 0 M528.72 0 C550.42 0.75, 562.11 9, 560.72 32 M528.72 0 C551.62 -1.49, 561.05 9.52, 560.72 32 M560.72 32 C560.45 109.17, 559.55 188.07, 560.72 250.45 M560.72 32 C561.6 98.35, 562.61 163.17, 560.72 250.45 M560.72 250.45 C559.56 271.22, 548.26 280.61, 528.72 282.45 M560.72 250.45 C562.78 274.01, 548.85 283.29, 528.72 282.45 M528.72 282.45 C385.9 282.3, 244.58 283.02, 32 282.45 M528.72 282.45 C347.25 281.35, 165.37 281.58, 32 282.45 M32 282.45 C11.8 281.32, -1.64 271.02, 0 250.45 M32 282.45 C10.52 281.9, -0.48 270.92, 0 250.45 M0 250.45 C-0.52 164.13, -0.47 77.96, 0 32 M0 250.45 C-0.8 165.76, -0.5 82.38, 0 32 M0 32 C-1.2 12.02, 9.33 -0.28, 32 0 M0 32 C1.61 12.65, 11.51 1.39, 32 0" stroke="#1e1e1e" stroke-width="4" fill="none"></path></g><g stroke-linecap="round"><g transform="translate(298.0300284163907 292.8016425833855) rotate(0 69.59463213952887 -1.3946863056836492)"><path d="M0 0 C48.9 -1.06, 101.72 -1.9, 139.19 -2.79 M0 0 C53.74 -0.94, 106.99 -2.25, 139.19 -2.79" stroke="#1971c2" stroke-width="4" fill="none"></path></g><g transform="translate(298.0300284163907 292.8016425833855) rotate(0 69.59463213952887 -1.3946863056836492)"><path d="M115.87 6.22 C122.62 2.31, 133.29 -0.79, 139.19 -2.79 M115.87 6.22 C125.11 3.36, 133.88 -0.34, 139.19 -2.79" stroke="#1971c2" stroke-width="4" fill="none"></path></g><g transform="translate(298.0300284163907 292.8016425833855) rotate(0 69.59463213952887 -1.3946863056836492)"><path d="M115.54 -10.88 C122.39 -8.57, 133.17 -5.44, 139.19 -2.79 M115.54 -10.88 C124.99 -7.18, 133.9 -4.31, 139.19 -2.79" stroke="#1971c2" stroke-width="4" fill="none"></path></g></g><mask></mask><g transform="translate(389.85938300036275 312.66718656266744) rotate(0 15.480983517610483 -0.557889844708086)" stroke="none"><path fill="#1971c2" d="M -0.25,-4.17 Q -0.25,-4.17 4.96,-4.29 10.19,-4.40 14.87,-4.39 19.56,-4.37 24.20,-4.64 28.85,-4.90 29.46,-4.81 30.07,-4.72 30.63,-4.44 31.18,-4.16 31.61,-3.72 32.05,-3.28 32.32,-2.72 32.59,-2.16 32.66,-1.55 32.74,-0.94 32.62,-0.33 32.50,0.27 32.19,0.80 31.88,1.34 31.41,1.75 30.95,2.16 30.38,2.40 29.81,2.64 29.19,2.68 28.57,2.73 27.97,2.57 27.37,2.42 26.85,2.08 26.33,1.74 25.95,1.25 25.57,0.77 25.36,0.18 25.15,-0.39 25.14,-1.01 25.13,-1.63 25.32,-2.22 25.50,-2.81 25.87,-3.31 26.24,-3.81 26.74,-4.16 27.25,-4.52 27.84,-4.69 28.44,-4.87 29.05,-4.85 29.67,-4.83 30.25,-4.61 30.83,-4.39 31.31,-4.00 31.79,-3.60 32.12,-3.08 32.45,-2.55 32.59,-1.95 32.73,-1.35 32.68,-0.73 32.62,-0.12 32.37,0.44 32.12,1.01 31.70,1.46 31.29,1.92 30.74,2.22 30.20,2.52 29.59,2.63 28.98,2.74 28.98,2.74 28.99,2.74 24.37,2.64 19.76,2.54 15.21,2.83 10.65,3.12 5.45,3.64 0.25,4.17 -0.24,4.14 -0.75,4.11 -1.23,3.96 -1.71,3.81 -2.14,3.55 -2.57,3.29 -2.93,2.94 -3.29,2.58 -3.55,2.15 -3.81,1.72 -3.96,1.23 -4.11,0.75 -4.14,0.25 -4.17,-0.24 -4.08,-0.74 -3.99,-1.24 -3.78,-1.70 -3.58,-2.16 -3.27,-2.55 -2.96,-2.95 -2.56,-3.26 -2.16,-3.57 -1.70,-3.78 -1.24,-3.99 -0.75,-4.08 -0.25,-4.17 -0.25,-4.17 L -0.25,-4.17 Z"></path></g><g transform="translate(425.56326049125624 306.25164487895734) rotate(0 3.486696611165769 6.415522530666834)" stroke="none"><path fill="#1971c2" d="M 5.09,0.81 Q 5.09,0.81 4.84,2.83 4.58,4.84 4.60,7.43 4.62,10.01 4.71,11.27 4.80,12.54 4.71,13.25 4.61,13.95 4.35,14.62 4.09,15.28 3.68,15.86 3.27,16.45 2.73,16.91 2.19,17.38 1.55,17.70 0.92,18.03 0.22,18.19 -0.46,18.35 -1.18,18.34 -1.89,18.34 -2.58,18.16 -3.27,17.98 -3.90,17.64 -4.53,17.30 -5.06,16.82 -5.58,16.34 -5.98,15.75 -6.38,15.16 -6.63,14.49 -6.87,13.82 -6.95,13.11 -7.03,12.40 -4.64,9.49 -2.25,6.57 0.34,5.38 2.93,4.20 4.52,3.50 6.10,2.81 6.85,2.69 7.59,2.57 8.35,2.63 9.10,2.69 9.82,2.93 10.53,3.17 11.17,3.58 11.81,3.98 12.33,4.53 12.86,5.07 13.23,5.73 13.61,6.38 13.82,7.11 14.03,7.84 14.06,8.59 14.08,9.35 13.93,10.09 13.78,10.83 13.45,11.51 13.13,12.19 12.65,12.78 12.17,13.36 11.57,13.82 10.96,14.27 10.26,14.56 9.57,14.86 6.05,13.58 2.54,12.31 0.63,10.92 -1.26,9.53 -3.16,7.92 -5.05,6.30 -5.56,5.38 -6.06,4.46 -6.25,3.43 -6.43,2.39 -6.27,1.35 -6.12,0.31 -5.64,-0.61 -5.16,-1.55 -4.41,-2.28 -3.65,-3.01 -2.71,-3.47 -1.76,-3.92 -0.72,-4.05 0.32,-4.18 1.35,-3.97 2.38,-3.75 3.28,-3.22 4.19,-2.69 4.88,-1.90 5.57,-1.11 5.98,-0.14 6.38,0.82 6.45,1.87 6.52,2.92 6.25,3.93 5.99,4.95 5.41,5.83 4.83,6.70 4.00,7.35 3.18,8.00 2.18,8.35 1.19,8.70 0.14,8.71 -0.90,8.73 -1.90,8.40 -2.90,8.08 -3.74,7.46 -4.59,6.83 -5.19,5.97 -5.79,5.11 -6.09,4.10 -6.38,3.09 -6.34,2.04 -6.30,0.99 -5.92,0.01 -5.55,-0.96 -4.88,-1.77 -4.21,-2.58 -3.31,-3.13 -2.42,-3.69 -1.40,-3.93 -0.38,-4.17 0.66,-4.07 1.71,-3.97 2.67,-3.54 3.63,-3.11 4.40,-2.40 5.17,-1.69 5.17,-1.69 5.17,-1.69 6.61,-0.63 8.05,0.41 10.09,2.29 12.14,4.18 9.12,3.49 6.10,2.81 6.85,2.69 7.59,2.57 8.35,2.63 9.10,2.69 9.82,2.93 10.53,3.17 11.17,3.58 11.81,3.98 12.33,4.53 12.85,5.07 13.23,5.73 13.61,6.38 13.82,7.11 14.03,7.84 14.06,8.59 14.09,9.35 13.93,10.09 13.78,10.83 13.45,11.51 13.13,12.19 12.65,12.78 12.17,13.36 11.57,13.82 10.96,14.27 10.27,14.56 9.57,14.86 8.54,15.18 7.51,15.51 4.57,16.66 1.62,17.81 3.21,15.17 4.80,12.54 4.71,13.24 4.61,13.95 4.35,14.62 4.09,15.28 3.68,15.86 3.27,16.45 2.73,16.91 2.19,17.38 1.55,17.70 0.92,18.03 0.22,18.19 -0.46,18.35 -1.18,18.34 -1.89,18.34 -2.58,18.16 -3.27,17.98 -3.90,17.64 -4.53,17.30 -5.06,16.82 -5.58,16.34 -5.98,15.75 -6.38,15.16 -6.63,14.49 -6.87,13.82 -6.95,13.11 -7.03,12.40 -6.82,10.22 -6.61,8.03 -6.24,5.60 -5.87,3.17 -5.48,1.17 -5.09,-0.81 -4.92,-1.41 -4.75,-2.01 -4.44,-2.55 -4.13,-3.09 -3.70,-3.54 -3.27,-3.99 -2.74,-4.32 -2.22,-4.65 -1.63,-4.85 -1.04,-5.05 -0.42,-5.10 0.19,-5.15 0.80,-5.06 1.42,-4.96 1.99,-4.71 2.57,-4.47 3.06,-4.10 3.56,-3.73 3.96,-3.25 4.35,-2.76 4.62,-2.20 4.89,-1.64 5.01,-1.03 5.14,-0.42 5.12,0.19 5.09,0.81 5.09,0.81 L 5.09,0.81 Z"></path></g><g stroke-linecap="round"><g transform="translate(285.7099678538737 244.10375643669153) rotate(0 -62.496057851694516 -0.5800076461555506)"><path d="M0 0 C-29.85 -2.76, -59.89 -0.26, -124.99 -1.16 M0 0 C-43.12 -1.13, -84.17 -1.14, -124.99 -1.16" stroke="#2f9e44" stroke-width="2" fill="none"></path></g><g transform="translate(285.7099678538737 244.10375643669153) rotate(0 -62.496057851694516 -0.5800076461555506)"><path d="M-101.49 -9.68 C-106.31 -9.2, -111.28 -4.31, -124.99 -1.16 M-101.49 -9.68 C-110.15 -7.11, -116.75 -3.83, -124.99 -1.16" stroke="#2f9e44" stroke-width="2" fill="none"></path></g><g transform="translate(285.7099678538737 244.10375643669153) rotate(0 -62.496057851694516 -0.5800076461555506)"><path d="M-101.51 7.42 C-106.27 3.67, -111.23 4.34, -124.99 -1.16 M-101.51 7.42 C-110.19 4.19, -116.79 1.66, -124.99 -1.16" stroke="#2f9e44" stroke-width="2" fill="none"></path></g></g><mask></mask><g transform="translate(108.59919233836195 605.5819191643883) rotate(0 -1.726868104963728 -31.08374446442224)" stroke="none"><path fill="#1971c2" d="M -3.92,0.31 Q -3.92,0.31 -4.11,-4.28 -4.31,-8.89 -4.84,-16.30 -5.36,-23.71 -5.67,-32.15 -5.99,-40.58 -6.09,-46.28 -6.19,-51.97 -6.49,-56.11 -6.79,-60.25 -6.72,-60.80 -6.64,-61.34 -6.40,-61.83 -6.15,-62.32 -5.76,-62.71 -5.37,-63.09 -4.88,-63.34 -4.39,-63.58 -3.85,-63.65 -3.30,-63.73 -2.77,-63.62 -2.23,-63.52 -1.75,-63.25 -1.27,-62.97 -0.91,-62.57 -0.54,-62.16 -0.33,-61.65 -0.11,-61.15 -0.07,-60.60 -0.03,-60.06 -0.16,-59.52 -0.29,-58.99 -0.59,-58.53 -0.89,-58.07 -1.31,-57.73 -1.74,-57.38 -2.26,-57.20 -2.77,-57.01 -3.32,-57.00 -3.87,-56.98 -4.39,-57.14 -4.92,-57.31 -5.36,-57.63 -5.80,-57.95 -6.12,-58.39 -6.44,-58.84 -6.60,-59.36 -6.76,-59.89 -6.75,-60.44 -6.73,-60.98 -6.54,-61.50 -6.35,-62.01 -6.00,-62.44 -5.66,-62.87 -5.20,-63.16 -4.73,-63.45 -4.20,-63.58 -3.67,-63.72 -3.12,-63.67 -2.58,-63.62 -2.07,-63.41 -1.57,-63.19 -1.16,-62.82 -0.76,-62.45 -0.49,-61.98 -0.22,-61.50 -0.12,-60.96 -0.02,-60.42 -0.02,-60.42 -0.02,-60.42 -0.11,-56.29 -0.20,-52.15 0.03,-46.52 0.27,-40.88 0.76,-32.59 1.25,-24.30 2.04,-16.88 2.82,-9.47 3.37,-4.89 3.92,-0.31 3.90,0.15 3.88,0.62 3.75,1.08 3.61,1.54 3.38,1.95 3.14,2.36 2.81,2.70 2.48,3.04 2.08,3.30 1.68,3.55 1.23,3.70 0.78,3.85 0.31,3.89 -0.15,3.93 -0.62,3.85 -1.09,3.77 -1.52,3.59 -1.96,3.40 -2.34,3.12 -2.72,2.83 -3.02,2.47 -3.32,2.10 -3.52,1.67 -3.73,1.24 -3.82,0.78 -3.92,0.31 -3.92,0.31 L -3.92,0.31 Z"></path></g><g transform="translate(93.48905195427614 537.8020940725273) rotate(0 12.735704150702873 0.4317022043565544)" stroke="none"><path fill="#1971c2" d="M 0,-4.88 Q 0,-4.88 3.84,-4.70 7.69,-4.51 10.82,-4.51 13.94,-4.52 17.39,-4.74 20.84,-4.96 25.17,-3.66 29.50,-2.37 29.89,-1.62 30.27,-0.88 30.39,-0.05 30.52,0.77 30.37,1.59 30.23,2.41 29.83,3.15 29.43,3.88 28.81,4.45 28.20,5.01 27.44,5.36 26.67,5.70 25.84,5.78 25.01,5.86 24.19,5.67 23.38,5.48 22.67,5.04 21.96,4.60 21.42,3.96 20.89,3.31 20.59,2.53 20.29,1.75 20.26,0.92 20.22,0.08 20.45,-0.71 20.69,-1.51 21.17,-2.20 21.64,-2.89 22.31,-3.39 22.99,-3.88 23.78,-4.14 24.58,-4.40 25.41,-4.39 26.25,-4.38 27.04,-4.10 27.83,-3.82 28.49,-3.31 29.15,-2.80 29.61,-2.10 30.07,-1.40 30.28,-0.59 30.49,0.21 30.44,1.04 30.38,1.88 30.06,2.65 29.75,3.42 29.20,4.05 28.65,4.68 27.93,5.10 27.20,5.53 26.39,5.70 25.57,5.87 24.74,5.77 23.91,5.66 23.15,5.30 22.40,4.94 21.80,4.36 21.20,3.78 21.20,3.78 21.20,3.78 21.02,4.37 20.84,4.96 17.39,4.74 13.94,4.52 10.82,4.51 7.69,4.51 3.84,4.70 0,4.88 -0.58,4.81 -1.16,4.74 -1.71,4.53 -2.26,4.32 -2.75,3.99 -3.23,3.65 -3.62,3.21 -4.01,2.77 -4.29,2.25 -4.56,1.73 -4.70,1.16 -4.84,0.58 -4.84,-0.00 -4.84,-0.58 -4.70,-1.16 -4.56,-1.73 -4.29,-2.25 -4.01,-2.77 -3.62,-3.21 -3.23,-3.65 -2.75,-3.99 -2.26,-4.32 -1.71,-4.53 -1.16,-4.74 -0.58,-4.81 0.00,-4.88 0.00,-4.88 L 0,-4.88 Z"></path></g><g transform="translate(65.85904369978141 519.6698900391018) rotate(0 38.422978376171216 1.0792999765445188)" stroke="none"><path fill="#1971c2" d="M 0,-3.97 Q 0,-3.97 4.22,-3.80 8.44,-3.63 14.40,-3.24 20.36,-2.86 27.73,-2.28 35.11,-1.70 42.14,-1.42 49.17,-1.15 54.28,-1.01 59.39,-0.87 63.04,-0.93 66.70,-0.98 69.25,-1.17 71.80,-1.36 74.09,-1.41 76.38,-1.46 76.95,-1.36 77.53,-1.27 78.05,-0.99 78.57,-0.71 78.97,-0.29 79.37,0.13 79.61,0.66 79.86,1.20 79.92,1.78 79.98,2.36 79.85,2.93 79.72,3.51 79.42,4.01 79.11,4.51 78.67,4.89 78.22,5.26 77.67,5.48 77.13,5.69 76.54,5.72 75.96,5.75 75.39,5.59 74.83,5.43 74.34,5.10 73.86,4.77 73.51,4.30 73.16,3.84 72.97,3.28 72.79,2.72 72.79,2.14 72.79,1.55 72.98,1.00 73.17,0.44 73.52,-0.01 73.88,-0.48 74.37,-0.80 74.85,-1.13 75.42,-1.29 75.98,-1.44 76.57,-1.41 77.15,-1.37 77.70,-1.15 78.24,-0.93 78.69,-0.55 79.13,-0.17 79.43,0.32 79.73,0.82 79.86,1.40 79.98,1.97 79.91,2.55 79.85,3.13 79.60,3.67 79.35,4.20 78.95,4.62 78.54,5.04 78.02,5.32 77.51,5.59 76.93,5.68 76.35,5.77 76.35,5.77 76.35,5.77 74.05,5.70 71.75,5.63 69.20,5.41 66.64,5.19 62.96,5.06 59.29,4.94 54.14,4.90 49.00,4.87 41.85,4.74 34.70,4.60 27.38,4.23 20.07,3.85 14.25,3.74 8.43,3.63 4.21,3.80 0,3.97 -0.47,3.91 -0.95,3.86 -1.40,3.69 -1.84,3.52 -2.24,3.24 -2.63,2.97 -2.95,2.61 -3.27,2.25 -3.49,1.83 -3.71,1.41 -3.83,0.94 -3.94,0.47 -3.94,-0.00 -3.94,-0.47 -3.83,-0.94 -3.71,-1.41 -3.49,-1.83 -3.27,-2.25 -2.95,-2.61 -2.63,-2.97 -2.24,-3.24 -1.84,-3.52 -1.39,-3.69 -0.95,-3.86 -0.47,-3.91 0.00,-3.97 0.00,-3.97 L 0,-3.97 Z"></path></g><g transform="translate(102.98685617534545 518.3747537822634) rotate(0 198.8064390891109 -11.656433817927052)" stroke="none"><path fill="#1971c2" d="M -4.62,0.92 Q -4.62,0.92 -5.21,-2.82 -5.81,-6.58 -6.51,-10.91 -7.21,-15.23 -8.02,-18.23 -8.83,-21.23 -9.62,-24.39 -10.41,-27.54 -9.66,-30.16 -8.91,-32.79 -5.85,-34.03 -2.79,-35.28 1.40,-35.40 5.60,-35.52 9.95,-35.18 14.30,-34.84 19.37,-34.58 24.44,-34.32 29.58,-34.12 34.71,-33.93 39.96,-33.53 45.20,-33.13 50.76,-32.67 56.33,-32.21 62.56,-31.61 68.79,-31.00 74.70,-30.73 80.62,-30.45 86.14,-30.19 91.67,-29.93 96.72,-29.81 101.76,-29.69 105.94,-29.52 110.11,-29.36 113.34,-29.46 116.57,-29.56 118.69,-29.75 120.80,-29.94 123.04,-30.22 125.27,-30.50 128.49,-30.76 131.72,-31.01 134.19,-31.08 136.66,-31.15 140.06,-31.07 143.47,-31.00 147.33,-30.94 151.19,-30.88 154.81,-31.19 158.43,-31.49 161.33,-31.98 164.23,-32.46 166.95,-32.97 169.66,-33.47 171.98,-33.89 174.30,-34.32 179.04,-35.20 183.77,-36.09 186.16,-36.36 188.55,-36.63 191.20,-36.87 193.85,-37.11 196.32,-37.36 198.79,-37.61 201.63,-37.91 204.48,-38.22 207.11,-38.51 209.75,-38.80 212.51,-39.05 215.27,-39.29 217.91,-39.43 220.55,-39.56 223.20,-39.83 225.85,-40.09 228.97,-40.29 232.08,-40.50 235.27,-40.67 238.46,-40.84 242.27,-40.79 246.09,-40.74 249.48,-40.84 252.87,-40.94 256.38,-40.96 259.89,-40.98 262.99,-41.03 266.09,-41.08 268.90,-41.15 271.70,-41.22 275.18,-41.78 278.65,-42.34 281.47,-42.69 284.28,-43.03 286.73,-43.34 289.18,-43.65 293.00,-44.08 296.83,-44.51 299.51,-44.57 302.19,-44.62 304.80,-44.82 307.41,-45.01 310.64,-45.05 313.87,-45.08 317.60,-44.92 321.33,-44.77 325.64,-44.47 329.95,-44.17 335.00,-43.93 340.06,-43.70 345.39,-43.64 350.72,-43.59 355.76,-43.51 360.80,-43.42 365.05,-43.35 369.30,-43.28 373.30,-43.39 377.29,-43.50 380.64,-43.68 383.99,-43.86 386.29,-44.08 388.58,-44.30 391.05,-44.64 393.51,-44.98 395.63,-43.72 397.76,-42.46 398.79,-39.75 399.83,-37.04 400.32,-33.12 400.82,-29.21 400.96,-26.90 401.10,-24.59 401.74,-20.33 402.39,-16.06 403.06,-13.23 403.74,-10.40 404.07,-8.29 404.40,-6.17 405.05,-2.67 405.69,0.81 406.52,4.71 407.35,8.61 408.27,11.66 409.19,14.72 409.39,15.68 409.59,16.64 409.47,17.62 409.36,18.60 408.94,19.48 408.51,20.37 407.83,21.08 407.15,21.79 406.27,22.24 405.40,22.69 404.43,22.84 403.46,22.99 402.49,22.82 401.52,22.65 400.65,22.19 399.79,21.72 399.12,21.00 398.45,20.27 398.05,19.38 397.64,18.48 397.54,17.50 397.45,16.52 397.67,15.56 397.89,14.61 398.41,13.77 398.92,12.93 399.68,12.30 400.43,11.67 401.35,11.32 402.27,10.96 403.25,10.92 404.23,10.87 405.18,11.15 406.12,11.42 406.93,11.98 407.74,12.54 408.33,13.33 408.92,14.12 409.22,15.05 409.53,15.99 409.52,16.97 409.51,17.96 409.18,18.88 408.86,19.81 408.26,20.59 407.65,21.37 406.83,21.91 406.01,22.46 405.06,22.71 404.11,22.96 403.13,22.90 402.15,22.84 401.24,22.46 400.33,22.09 399.59,21.45 398.84,20.80 398.34,19.95 397.85,19.11 397.85,19.11 397.85,19.11 397.25,17.00 396.65,14.90 395.81,10.99 394.97,7.09 394.23,3.14 393.48,-0.79 393.10,-4.05 392.72,-7.32 392.23,-9.38 391.74,-11.45 391.50,-15.15 391.26,-18.85 390.82,-23.59 390.38,-28.32 390.24,-30.54 390.11,-32.77 391.83,-34.47 393.55,-36.16 391.11,-36.47 388.66,-36.79 386.38,-36.96 384.11,-37.13 380.80,-37.19 377.50,-37.26 373.42,-37.10 369.34,-36.94 365.11,-36.82 360.88,-36.70 355.89,-36.51 350.90,-36.32 345.49,-36.01 340.07,-35.70 335.03,-35.45 329.99,-35.19 325.73,-34.85 321.47,-34.51 317.89,-34.25 314.31,-33.99 311.44,-33.78 308.57,-33.57 305.58,-33.20 302.59,-32.82 298.23,-32.52 293.87,-32.22 290.18,-32.05 286.49,-31.88 284.27,-32.08 282.06,-32.28 279.46,-32.37 276.86,-32.47 274.30,-32.30 271.75,-32.12 268.96,-32.17 266.18,-32.21 263.12,-32.20 260.07,-32.20 256.68,-32.08 253.30,-31.96 249.82,-31.72 246.34,-31.49 242.75,-31.24 239.17,-31.00 236.03,-30.71 232.90,-30.43 229.91,-30.13 226.91,-29.84 223.94,-29.52 220.97,-29.20 218.57,-29.14 216.17,-29.07 213.48,-28.84 210.80,-28.61 208.23,-28.36 205.65,-28.11 202.66,-27.74 199.68,-27.36 197.18,-27.18 194.68,-27.00 192.06,-26.81 189.45,-26.62 184.92,-26.36 180.39,-26.10 177.96,-25.65 175.53,-25.21 173.27,-25.02 171.02,-24.82 168.23,-24.47 165.44,-24.11 162.39,-23.74 159.35,-23.36 155.41,-22.82 151.47,-22.28 147.47,-21.97 143.47,-21.67 140.06,-21.59 136.65,-21.51 134.19,-21.58 131.72,-21.65 128.47,-21.91 125.22,-22.17 122.96,-22.49 120.71,-22.81 118.57,-23.05 116.44,-23.30 113.16,-23.54 109.89,-23.78 105.78,-23.95 101.66,-24.11 96.55,-24.17 91.44,-24.24 85.92,-24.41 80.40,-24.59 74.34,-24.76 68.28,-24.93 62.10,-25.37 55.92,-25.81 50.40,-26.06 44.87,-26.30 39.79,-26.40 34.71,-26.50 29.58,-26.30 24.45,-26.11 19.38,-25.84 14.31,-25.58 9.97,-25.23 5.64,-24.89 2.18,-26.77 -1.26,-28.66 -1.12,-25.93 -0.97,-23.20 -0.24,-20.05 0.48,-16.90 1.65,-12.61 2.83,-8.31 3.72,-4.61 4.62,-0.92 4.66,-0.35 4.70,0.20 4.61,0.76 4.52,1.32 4.29,1.85 4.07,2.37 3.72,2.82 3.38,3.27 2.94,3.63 2.50,3.99 1.98,4.23 1.47,4.47 0.91,4.58 0.36,4.69 -0.20,4.67 -0.77,4.64 -1.31,4.48 -1.86,4.32 -2.35,4.04 -2.84,3.75 -3.25,3.36 -3.66,2.96 -3.96,2.48 -4.26,2.00 -4.44,1.46 -4.62,0.92 -4.62,0.92 L -4.62,0.92 Z"></path></g><g transform="translate(511.82446596713777 537.370362224402) rotate(0 29.572742283521166 10.361238273551123)" stroke="none"><path fill="#1971c2" d="M 1.50,-3.79 Q 1.50,-3.79 6.76,-1.50 12.03,0.78 17.54,2.91 23.06,5.04 27.74,6.73 32.42,8.42 36.91,10.04 41.39,11.67 44.97,12.63 48.55,13.58 51.57,14.39 54.59,15.19 57.58,16.30 60.57,17.40 61.01,17.78 61.45,18.15 61.74,18.65 62.04,19.15 62.16,19.71 62.28,20.28 62.22,20.86 62.15,21.43 61.91,21.95 61.66,22.48 61.26,22.90 60.86,23.31 60.35,23.58 59.83,23.85 59.26,23.94 58.69,24.03 58.12,23.94 57.55,23.84 57.04,23.57 56.53,23.29 56.13,22.87 55.74,22.45 55.50,21.92 55.26,21.39 55.20,20.82 55.14,20.24 55.27,19.68 55.39,19.11 55.70,18.62 56.00,18.13 56.44,17.75 56.88,17.38 57.42,17.17 57.96,16.96 58.54,16.93 59.12,16.90 59.67,17.06 60.23,17.22 60.71,17.54 61.18,17.87 61.53,18.33 61.88,18.80 62.06,19.35 62.24,19.90 62.24,20.47 62.24,21.05 62.05,21.60 61.86,22.15 61.51,22.61 61.16,23.07 60.68,23.39 60.19,23.71 59.64,23.86 59.08,24.01 58.50,23.98 57.92,23.94 57.39,23.73 56.85,23.51 56.85,23.51 56.85,23.51 54.67,22.63 52.48,21.76 49.67,20.69 46.85,19.62 43.13,18.52 39.41,17.42 34.90,15.94 30.38,14.47 25.57,12.96 20.76,11.45 15.04,9.55 9.31,7.65 3.90,5.72 -1.50,3.79 -1.93,3.56 -2.36,3.32 -2.72,2.99 -3.09,2.66 -3.36,2.25 -3.64,1.84 -3.80,1.38 -3.97,0.92 -4.02,0.43 -4.08,-0.05 -4.01,-0.54 -3.94,-1.03 -3.76,-1.49 -3.58,-1.94 -3.30,-2.34 -3.01,-2.74 -2.64,-3.07 -2.27,-3.39 -1.83,-3.61 -1.39,-3.83 -0.91,-3.94 -0.43,-4.05 0.05,-4.05 0.54,-4.04 1.02,-3.92 1.50,-3.79 1.50,-3.79 L 1.50,-3.79 Z"></path></g><g transform="translate(508.8024616053356 563.7051749345208) rotate(0 7.986802040168243 37.77538060398331)" stroke="none"><path fill="#1971c2" d="M 5.16,-1.23 Q 5.16,-1.23 5.78,1.37 6.39,3.98 7.45,6.95 8.51,9.93 9.61,13.12 10.72,16.31 11.84,19.48 12.96,22.65 13.60,25.07 14.24,27.50 14.81,32.00 15.39,36.50 15.91,40.25 16.43,44.00 16.99,47.50 17.55,50.99 18.33,54.67 19.10,58.36 19.69,60.40 20.28,62.44 20.68,64.53 21.07,66.62 21.59,68.77 22.11,70.93 22.40,72.90 22.68,74.87 22.58,75.96 22.47,77.04 22.02,78.04 21.57,79.03 20.83,79.83 20.09,80.63 19.13,81.15 18.17,81.68 17.10,81.86 16.02,82.05 14.94,81.88 13.86,81.72 12.90,81.22 11.93,80.72 11.17,79.93 10.41,79.15 9.94,78.16 9.47,77.18 9.34,76.09 9.22,75.01 9.44,73.94 9.66,72.87 10.22,71.93 10.77,70.99 11.59,70.28 12.42,69.56 13.43,69.15 14.44,68.73 15.53,68.67 16.62,68.60 17.67,68.88 18.72,69.16 19.63,69.76 20.54,70.36 21.21,71.23 21.88,72.09 22.24,73.12 22.60,74.15 22.61,75.24 22.62,76.33 22.28,77.37 21.94,78.41 21.29,79.28 20.64,80.16 19.74,80.78 18.84,81.40 17.80,81.70 16.75,82.00 15.66,81.95 14.57,81.91 13.55,81.51 12.53,81.12 11.69,80.42 10.86,79.72 10.28,78.79 9.71,77.86 9.47,76.80 9.22,75.74 9.22,75.74 9.22,75.74 9.03,74.10 8.84,72.46 8.46,70.32 8.08,68.18 7.64,65.74 7.19,63.29 6.66,60.29 6.13,57.28 5.58,55.02 5.04,52.76 4.58,49.50 4.12,46.25 3.75,44.14 3.37,42.02 3.13,39.91 2.88,37.80 2.62,35.67 2.36,33.54 1.79,30.68 1.22,27.82 0.87,25.71 0.51,23.60 -0.14,20.73 -0.79,17.87 -1.69,14.20 -2.59,10.54 -3.25,8.49 -3.91,6.44 -4.54,3.83 -5.16,1.23 -5.24,0.59 -5.31,-0.04 -5.23,-0.67 -5.14,-1.31 -4.91,-1.90 -4.68,-2.50 -4.31,-3.03 -3.94,-3.55 -3.46,-3.97 -2.98,-4.39 -2.41,-4.69 -1.84,-4.98 -1.22,-5.13 -0.59,-5.28 0.04,-5.27 0.68,-5.26 1.30,-5.11 1.92,-4.95 2.48,-4.65 3.05,-4.34 3.52,-3.92 4.00,-3.49 4.36,-2.96 4.72,-2.43 4.94,-1.83 5.16,-1.23 5.16,-1.23 L 5.16,-1.23 Z"></path></g><g transform="translate(106.44065167281042 653.50267211786) rotate(0 -0.8634636962506193 -23.31280834831665)" stroke="none"><path fill="#1971c2" d="M -4.23,0.10 Q -4.23,0.10 -4.14,-4.73 -4.05,-9.58 -4.32,-14.77 -4.58,-19.96 -4.64,-24.39 -4.71,-28.82 -4.87,-32.32 -5.03,-35.81 -5.25,-38.29 -5.46,-40.77 -5.22,-43.45 -4.98,-46.13 -4.78,-46.75 -4.59,-47.37 -4.21,-47.89 -3.83,-48.42 -3.30,-48.80 -2.77,-49.17 -2.15,-49.36 -1.53,-49.55 -0.88,-49.53 -0.23,-49.51 0.36,-49.28 0.97,-49.05 1.48,-48.65 1.98,-48.24 2.33,-47.69 2.67,-47.14 2.83,-46.51 2.98,-45.88 2.93,-45.23 2.87,-44.59 2.61,-43.99 2.35,-43.40 1.92,-42.92 1.48,-42.44 0.92,-42.12 0.35,-41.80 -0.28,-41.68 -0.91,-41.56 -1.56,-41.65 -2.20,-41.74 -2.78,-42.03 -3.36,-42.33 -3.82,-42.79 -4.27,-43.25 -4.56,-43.83 -4.84,-44.41 -4.93,-45.06 -5.01,-45.70 -4.89,-46.34 -4.76,-46.97 -4.44,-47.53 -4.12,-48.10 -3.64,-48.53 -3.15,-48.96 -2.55,-49.21 -1.96,-49.47 -1.31,-49.52 -0.66,-49.57 -0.03,-49.41 0.59,-49.25 1.13,-48.90 1.68,-48.55 2.08,-48.04 2.48,-47.53 2.70,-46.92 2.93,-46.31 2.94,-45.66 2.96,-45.01 2.96,-45.01 2.96,-45.01 2.53,-42.94 2.10,-40.86 1.95,-38.41 1.81,-35.96 1.80,-32.53 1.79,-29.09 2.09,-24.81 2.38,-20.53 2.97,-15.15 3.56,-9.77 3.90,-4.94 4.23,-0.10 4.19,0.40 4.14,0.90 3.97,1.39 3.80,1.87 3.52,2.30 3.24,2.73 2.87,3.07 2.49,3.42 2.05,3.67 1.60,3.92 1.11,4.06 0.61,4.19 0.10,4.20 -0.40,4.22 -0.90,4.11 -1.40,4.00 -1.86,3.77 -2.31,3.55 -2.71,3.22 -3.10,2.89 -3.40,2.47 -3.70,2.06 -3.89,1.59 -4.09,1.11 -4.16,0.61 -4.23,0.10 -4.23,0.10 L -4.23,0.10 Z"></path></g><g transform="translate(108.16746049023669 651.7758336566651) rotate(0 210.24700698297536 3.4537065661587008)" stroke="none"><path fill="#1971c2" d="M -0.30,-3.14 Q -0.30,-3.14 3.54,-3.53 7.38,-3.92 12.85,-4.01 18.32,-4.09 26.09,-4.11 33.86,-4.12 43.98,-4.11 54.11,-4.09 65.11,-4.07 76.12,-4.06 86.38,-4.04 96.64,-4.02 106.48,-3.89 116.32,-3.75 126.51,-3.19 136.70,-2.63 147.35,-1.89 158.01,-1.15 168.00,-0.33 178.00,0.47 187.20,1.19 196.41,1.91 205.63,2.46 214.86,3.02 225.36,3.63 235.87,4.23 246.81,4.99 257.74,5.75 268.18,6.19 278.62,6.64 288.38,6.83 298.14,7.01 306.26,7.10 314.38,7.18 320.76,6.96 327.14,6.75 332.69,6.41 338.24,6.08 343.17,5.56 348.10,5.05 352.22,4.67 356.35,4.30 359.99,3.69 363.64,3.08 367.60,2.58 371.57,2.08 375.53,1.40 379.49,0.72 383.40,0.24 387.31,-0.23 390.16,-0.93 393.01,-1.63 395.70,-2.17 398.39,-2.72 402.06,-3.89 405.74,-5.07 408.75,-5.81 411.76,-6.56 414.00,-7.34 416.25,-8.13 418.04,-8.30 419.83,-8.47 420.71,-8.38 421.59,-8.29 422.40,-7.91 423.21,-7.54 423.85,-6.94 424.50,-6.33 424.91,-5.54 425.33,-4.76 425.48,-3.88 425.62,-3.01 425.48,-2.13 425.34,-1.26 424.93,-0.47 424.51,0.30 423.87,0.91 423.23,1.53 422.42,1.90 421.62,2.27 420.73,2.37 419.85,2.47 418.99,2.28 418.12,2.09 417.36,1.64 416.60,1.18 416.02,0.51 415.44,-0.16 415.11,-0.98 414.78,-1.81 414.73,-2.69 414.68,-3.58 414.92,-4.43 415.15,-5.29 415.65,-6.03 416.15,-6.76 416.85,-7.30 417.56,-7.84 418.40,-8.12 419.24,-8.41 420.13,-8.41 421.01,-8.41 421.86,-8.13 422.70,-7.85 423.40,-7.31 424.11,-6.78 424.61,-6.04 425.11,-5.31 425.35,-4.46 425.59,-3.60 425.54,-2.72 425.50,-1.83 425.17,-1.00 424.84,-0.18 424.27,0.49 423.70,1.17 422.94,1.63 422.18,2.08 421.31,2.28 420.45,2.47 420.45,2.47 420.45,2.47 418.05,2.49 415.64,2.51 412.54,3.00 409.44,3.50 406.67,3.67 403.91,3.84 401.65,4.24 399.39,4.64 396.81,4.81 394.23,4.99 391.10,5.39 387.97,5.79 384.23,6.15 380.49,6.51 376.38,7.22 372.27,7.93 368.35,8.37 364.43,8.80 360.61,9.23 356.80,9.66 352.72,9.97 348.64,10.28 343.60,10.80 338.56,11.32 332.94,11.66 327.31,12.01 320.82,12.22 314.33,12.44 306.18,12.36 298.04,12.28 288.22,12.09 278.40,11.90 267.89,11.45 257.38,11.01 246.47,10.25 235.57,9.50 225.05,8.90 214.54,8.29 205.27,7.74 195.99,7.19 186.78,6.48 177.57,5.77 167.61,4.97 157.64,4.17 147.02,3.45 136.41,2.73 126.33,2.20 116.25,1.66 106.45,1.56 96.64,1.45 86.38,1.48 76.12,1.50 65.12,1.54 54.12,1.59 44.02,1.66 33.91,1.73 26.20,1.85 18.50,1.97 13.25,2.20 8.00,2.43 4.15,2.78 0.30,3.14 -0.07,3.13 -0.45,3.12 -0.82,3.02 -1.19,2.92 -1.52,2.73 -1.85,2.55 -2.13,2.29 -2.41,2.03 -2.62,1.71 -2.83,1.39 -2.95,1.03 -3.08,0.68 -3.11,0.30 -3.15,-0.07 -3.10,-0.45 -3.04,-0.83 -2.90,-1.18 -2.75,-1.53 -2.53,-1.84 -2.31,-2.15 -2.02,-2.39 -1.72,-2.64 -1.38,-2.80 -1.04,-2.97 -0.67,-3.06 -0.30,-3.14 -0.30,-3.14 L -0.30,-3.14 Z"></path></g><g transform="translate(392.9416335323455 331.062393414651) rotate(0 -0.6770041376871632 19.803126456672288)" stroke="none"><path fill="#1971c2" d="M 4.26,0.05 Q 4.26,0.05 3.95,7.93 3.63,15.81 3.23,21.83 2.83,27.86 2.71,31.21 2.59,34.57 2.58,36.72 2.56,38.87 2.43,39.48 2.29,40.09 1.97,40.63 1.64,41.17 1.17,41.57 0.69,41.98 0.10,42.21 -0.47,42.44 -1.09,42.47 -1.72,42.51 -2.33,42.34 -2.93,42.17 -3.45,41.82 -3.97,41.46 -4.34,40.96 -4.72,40.46 -4.92,39.87 -5.12,39.27 -5.12,38.65 -5.12,38.02 -4.92,37.43 -4.72,36.83 -4.34,36.33 -3.96,35.84 -3.44,35.48 -2.92,35.13 -2.31,34.97 -1.71,34.80 -1.08,34.83 -0.46,34.87 0.12,35.10 0.70,35.34 1.17,35.74 1.65,36.15 1.97,36.69 2.30,37.23 2.43,37.84 2.56,38.45 2.50,39.07 2.43,39.70 2.16,40.27 1.90,40.83 1.47,41.29 1.03,41.74 0.48,42.04 -0.06,42.33 -0.68,42.43 -1.30,42.53 -1.92,42.43 -2.54,42.32 -3.09,42.03 -3.65,41.74 -4.08,41.28 -4.51,40.82 -4.77,40.25 -5.03,39.68 -5.10,39.06 -5.17,38.44 -5.17,38.44 -5.17,38.44 -4.94,36.29 -4.71,34.14 -4.44,30.86 -4.17,27.58 -4.10,21.65 -4.02,15.71 -4.14,7.83 -4.26,-0.05 -4.19,-0.56 -4.13,-1.07 -3.94,-1.55 -3.75,-2.03 -3.45,-2.44 -3.15,-2.86 -2.77,-3.20 -2.38,-3.54 -1.92,-3.77 -1.46,-4.00 -0.96,-4.12 -0.46,-4.24 0.05,-4.23 0.56,-4.23 1.06,-4.10 1.56,-3.97 2.01,-3.72 2.46,-3.48 2.84,-3.13 3.22,-2.79 3.51,-2.36 3.80,-1.93 3.98,-1.45 4.15,-0.96 4.21,-0.45 4.26,0.05 4.26,0.05 L 4.26,0.05 Z"></path></g><g transform="translate(389.8949986928574 327.33873119349664) rotate(0 13.709856777696217 1.0155526944890738)" stroke="none"><path fill="#1971c2" d="M 0.14,-4.76 Q 0.14,-4.76 3.26,-4.64 6.37,-4.53 9.11,-4.33 11.84,-4.14 14.99,-3.81 18.13,-3.48 20.81,-3.30 23.48,-3.12 25.25,-3.05 27.01,-2.98 27.79,-2.79 28.57,-2.60 29.25,-2.17 29.93,-1.74 30.44,-1.11 30.94,-0.49 31.22,0.25 31.51,1.00 31.53,1.81 31.56,2.61 31.33,3.38 31.09,4.15 30.63,4.81 30.16,5.46 29.51,5.93 28.86,6.40 28.10,6.64 27.33,6.88 26.53,6.87 25.72,6.85 24.97,6.58 24.21,6.30 23.58,5.80 22.95,5.30 22.52,4.63 22.08,3.95 21.88,3.17 21.68,2.40 21.75,1.59 21.81,0.79 22.12,0.05 22.43,-0.68 22.97,-1.28 23.50,-1.88 24.20,-2.28 24.90,-2.68 25.68,-2.83 26.47,-2.99 27.27,-2.88 28.07,-2.78 28.79,-2.43 29.51,-2.07 30.08,-1.51 30.65,-0.94 31.01,-0.22 31.37,0.48 31.49,1.28 31.60,2.08 31.45,2.87 31.30,3.66 30.91,4.36 30.52,5.06 29.92,5.60 29.33,6.14 28.59,6.46 27.86,6.78 27.06,6.85 26.25,6.92 26.26,6.92 26.26,6.92 24.47,6.72 22.69,6.52 19.97,6.26 17.24,6.00 14.10,5.74 10.96,5.48 8.52,5.20 6.08,4.92 2.96,4.84 -0.14,4.76 -0.71,4.68 -1.28,4.59 -1.81,4.37 -2.34,4.15 -2.81,3.81 -3.27,3.47 -3.64,3.02 -4.00,2.58 -4.26,2.06 -4.51,1.55 -4.63,0.98 -4.75,0.42 -4.73,-0.14 -4.71,-0.72 -4.56,-1.27 -4.40,-1.83 -4.12,-2.33 -3.83,-2.83 -3.44,-3.25 -3.05,-3.66 -2.56,-3.98 -2.08,-4.29 -1.53,-4.47 -0.99,-4.66 -0.42,-4.71 0.14,-4.76 0.14,-4.76 L 0.14,-4.76 Z"></path></g><g transform="translate(399.3734285241443 342.2334033220933) rotate(0 6.939582961033011 0.5077647252549298)" stroke="none"><path fill="#1971c2" d="M 0.34,-4.53 Q 0.34,-4.53 4.13,-4.10 7.91,-3.68 10.48,-3.60 13.05,-3.53 13.75,-3.36 14.46,-3.20 15.07,-2.81 15.69,-2.43 16.15,-1.87 16.61,-1.31 16.87,-0.63 17.13,0.03 17.16,0.76 17.19,1.48 16.98,2.18 16.78,2.87 16.36,3.47 15.95,4.06 15.36,4.49 14.78,4.92 14.09,5.14 13.40,5.36 12.67,5.35 11.95,5.34 11.27,5.10 10.58,4.86 10.01,4.41 9.44,3.97 9.04,3.36 8.64,2.75 8.46,2.05 8.28,1.35 8.33,0.63 8.38,-0.08 8.65,-0.75 8.93,-1.42 9.41,-1.97 9.89,-2.51 10.51,-2.88 11.14,-3.24 11.85,-3.39 12.56,-3.53 13.28,-3.45 14.00,-3.36 14.65,-3.04 15.31,-2.73 15.83,-2.22 16.34,-1.72 16.68,-1.07 17.01,-0.43 17.11,0.28 17.22,1.00 17.09,1.71 16.96,2.43 16.61,3.06 16.27,3.70 15.73,4.19 15.20,4.68 14.54,4.97 13.87,5.27 13.15,5.34 12.43,5.40 12.43,5.40 12.43,5.40 9.84,5.12 7.26,4.84 3.45,4.69 -0.34,4.53 -0.88,4.43 -1.42,4.32 -1.92,4.08 -2.41,3.85 -2.84,3.51 -3.27,3.16 -3.60,2.72 -3.93,2.29 -4.14,1.78 -4.36,1.28 -4.45,0.74 -4.54,0.20 -4.50,-0.34 -4.46,-0.89 -4.29,-1.41 -4.11,-1.93 -3.82,-2.40 -3.53,-2.86 -3.14,-3.24 -2.74,-3.62 -2.27,-3.90 -1.79,-4.18 -1.27,-4.33 -0.74,-4.48 -0.19,-4.51 0.34,-4.53 0.34,-4.53 L 0.34,-4.53 Z"></path></g><g transform="translate(407.15932476723424 370.330144259152) rotate(0 12.694280839227929 -2.8773838050662732)" stroke="none"><path fill="#1971c2" d="M -2.65,-4.27 Q -2.65,-4.27 0.20,-5.94 3.05,-7.61 4.92,-9.53 6.79,-11.45 8.11,-12.76 9.43,-14.08 9.90,-14.49 10.36,-14.89 10.91,-15.17 11.45,-15.45 12.05,-15.59 12.65,-15.73 13.26,-15.72 13.88,-15.71 14.47,-15.56 15.06,-15.41 15.60,-15.12 16.14,-14.82 16.60,-14.41 17.05,-14.00 17.40,-13.49 17.74,-12.98 17.95,-12.41 18.16,-11.83 18.23,-11.22 18.30,-10.61 18.22,-10.00 18.14,-9.39 17.91,-8.82 17.69,-8.25 17.33,-7.75 16.98,-7.25 18.22,-5.05 19.47,-2.86 20.99,-0.84 22.51,1.17 22.42,0.23 22.34,-0.70 23.21,-0.96 24.08,-1.23 24.99,-1.21 25.90,-1.18 26.75,-0.87 27.60,-0.56 28.31,0.00 29.02,0.57 29.51,1.34 30.00,2.10 30.22,2.98 30.44,3.87 30.37,4.77 30.30,5.68 29.94,6.52 29.58,7.35 28.97,8.03 28.36,8.71 27.57,9.15 26.78,9.60 25.89,9.77 25.00,9.95 24.10,9.82 23.19,9.70 22.38,9.30 21.56,8.89 20.92,8.25 20.28,7.61 19.87,6.79 19.47,5.98 19.34,5.08 19.22,4.18 19.39,3.29 19.56,2.39 20.01,1.60 20.46,0.81 21.13,0.20 21.81,-0.40 22.65,-0.76 23.48,-1.12 24.39,-1.19 25.29,-1.27 26.18,-1.05 27.06,-0.83 27.83,-0.34 28.59,0.14 29.16,0.85 29.73,1.56 30.05,2.41 30.36,3.27 30.38,4.17 30.41,5.08 30.14,5.95 29.88,6.82 29.35,7.56 28.82,8.30 28.08,8.83 27.34,9.36 27.34,9.36 27.34,9.36 20.95,8.91 14.57,8.46 13.24,6.71 11.92,4.96 10.56,1.88 9.21,-1.19 8.83,-3.85 8.45,-6.51 8.94,-10.30 9.43,-14.08 9.90,-14.49 10.36,-14.89 10.91,-15.17 11.45,-15.45 12.05,-15.59 12.65,-15.73 13.26,-15.72 13.88,-15.71 14.47,-15.56 15.06,-15.41 15.60,-15.12 16.14,-14.82 16.60,-14.41 17.05,-14.00 17.40,-13.49 17.74,-12.98 17.95,-12.41 18.16,-11.83 18.23,-11.22 18.30,-10.61 18.22,-10.00 18.14,-9.39 17.91,-8.82 17.69,-8.25 17.33,-7.75 16.98,-7.25 15.28,-6.00 13.57,-4.76 10.90,-2.07 8.23,0.60 5.44,2.44 2.65,4.27 2.10,4.53 1.55,4.78 0.95,4.90 0.36,5.01 -0.24,4.98 -0.84,4.95 -1.42,4.78 -2.01,4.61 -2.53,4.30 -3.05,3.99 -3.49,3.57 -3.92,3.14 -4.24,2.63 -4.56,2.11 -4.75,1.54 -4.93,0.96 -4.98,0.35 -5.02,-0.24 -4.92,-0.84 -4.82,-1.44 -4.57,-1.99 -4.33,-2.55 -3.96,-3.03 -3.59,-3.51 -3.12,-3.89 -2.65,-4.27 -2.65,-4.27 L -2.65,-4.27 Z"></path></g><g transform="translate(429.16272629337925 336.4786357119608) rotate(0 0.00004999999998744897 0.00005000000000165983)" stroke="none"><path fill="#1971c2" d="M 3.14,-3.14 Q 3.14,-3.14 3.55,-2.55 3.97,-1.97 4.18,-1.28 4.40,-0.59 4.38,0.11 4.36,0.83 4.11,1.51 3.86,2.18 3.41,2.74 2.96,3.30 2.36,3.69 1.75,4.07 1.05,4.25 0.36,4.42 -0.35,4.36 -1.07,4.30 -1.73,4.02 -2.39,3.74 -2.92,3.26 -3.46,2.78 -3.81,2.15 -4.16,1.53 -4.30,0.82 -4.43,0.11 -4.34,-0.59 -4.24,-1.30 -3.92,-1.94 -3.60,-2.59 -3.09,-3.09 -2.59,-3.60 -1.94,-3.92 -1.30,-4.24 -0.59,-4.34 0.12,-4.43 0.82,-4.30 1.53,-4.16 2.15,-3.81 2.78,-3.46 3.26,-2.92 3.74,-2.39 4.02,-1.73 4.31,-1.07 4.36,-0.35 4.42,0.36 4.25,1.05 4.07,1.75 3.69,2.36 3.30,2.96 2.74,3.41 2.18,3.86 1.51,4.11 0.83,4.36 0.11,4.38 -0.60,4.40 -1.28,4.18 -1.97,3.97 -2.55,3.55 -3.14,3.13 -3.14,3.14 -3.14,3.14 -3.47,2.71 -3.80,2.29 -4.02,1.80 -4.24,1.32 -4.33,0.79 -4.43,0.26 -4.40,-0.26 -4.36,-0.80 -4.20,-1.31 -4.04,-1.82 -3.77,-2.28 -3.49,-2.73 -3.11,-3.11 -2.73,-3.49 -2.28,-3.77 -1.82,-4.05 -1.31,-4.20 -0.80,-4.36 -0.26,-4.40 0.26,-4.43 0.79,-4.33 1.32,-4.24 1.80,-4.02 2.29,-3.80 2.71,-3.47 3.14,-3.14 3.14,-3.14 L 3.14,-3.14 Z"></path></g></svg>