<svg version="1.1" xmlns="http://www.w3.org/2000/svg" viewBox="0 0 662 255.3333282470703" width="662" height="255.3333282470703" class="excalidraw-svg"><!-- svg-source:excalidraw --><metadata></metadata><defs><style class="style-fonts">
      </style></defs><rect x="0" y="0" width="662" height="255.3333282470703" fill="#ffffff"></rect><g transform="translate(29.3333740234375 51.33332824707031) rotate(0 -9.66668701171875 16.333343505859375)" stroke="none"><path fill="#1e1e1e" d="M 2.86,3.61 Q 2.86,3.61 -1.50,7.54 -5.87,11.47 -8.05,13.90 -10.23,16.34 -11.16,18.66 -12.08,20.99 -11.33,23.59 -10.57,26.18 -8.27,26.40 -5.97,26.61 -4.43,27.90 -2.88,29.19 -2.49,29.04 -2.09,28.89 -1.66,28.87 -1.24,28.85 -0.83,28.97 -0.42,29.08 -0.07,29.33 0.27,29.57 0.52,29.91 0.77,30.25 0.91,30.65 1.04,31.06 1.03,31.48 1.03,31.91 0.89,32.31 0.75,32.71 0.49,33.04 0.23,33.38 -0.11,33.62 -0.47,33.85 -0.88,33.96 -1.29,34.07 -1.71,34.04 -2.14,34.02 -2.53,33.86 -2.92,33.70 -3.24,33.42 -3.57,33.14 -3.78,32.77 -4.00,32.41 -4.08,31.99 -4.17,31.58 -4.12,31.15 -4.07,30.73 -3.89,30.35 -3.71,29.96 -3.41,29.66 -3.12,29.35 -2.74,29.16 -2.36,28.96 -1.94,28.90 -1.52,28.83 -1.10,28.90 -0.69,28.98 -0.31,29.18 0.05,29.38 0.34,29.69 0.63,30.00 0.80,30.39 0.98,30.78 1.02,31.20 1.06,31.62 0.97,32.04 0.87,32.45 0.65,32.81 0.43,33.18 0.10,33.45 -0.21,33.72 -0.21,33.72 -0.21,33.72 -5.78,35.48 -11.34,37.23 -14.33,36.00 -17.32,34.76 -19.14,32.70 -20.96,30.65 -21.93,27.59 -22.89,24.53 -22.58,20.57 -22.26,16.61 -20.27,12.81 -18.28,9.01 -15.40,6.05 -12.52,3.09 -7.69,-0.26 -2.86,-3.61 -2.38,-3.90 -1.91,-4.19 -1.38,-4.36 -0.85,-4.53 -0.29,-4.56 0.25,-4.60 0.80,-4.50 1.35,-4.41 1.85,-4.18 2.36,-3.96 2.80,-3.61 3.24,-3.27 3.59,-2.84 3.93,-2.40 4.16,-1.90 4.39,-1.39 4.50,-0.84 4.60,-0.30 4.57,0.25 4.54,0.80 4.37,1.34 4.21,1.87 3.93,2.34 3.64,2.82 3.25,3.22 2.86,3.61 2.86,3.61 L 2.86,3.61 Z"></path></g><g transform="translate(55.3333740234375 67.33332824707031) rotate(0 7.33331298828125 0.0000152587890625)" stroke="none"><path fill="#1e1e1e" d="M -0.29,-4.74 Q -0.29,-4.74 2.74,-5.32 5.79,-5.90 8.18,-5.84 10.57,-5.78 12.46,-3.92 14.36,-2.06 14.75,-1.91 15.15,-1.77 15.49,-1.50 15.82,-1.24 16.05,-0.88 16.28,-0.52 16.38,-0.11 16.49,0.29 16.45,0.71 16.42,1.14 16.25,1.53 16.09,1.92 15.80,2.24 15.52,2.55 15.15,2.76 14.78,2.97 14.36,3.06 13.95,3.14 13.53,3.08 13.10,3.02 12.72,2.84 12.34,2.65 12.04,2.35 11.74,2.05 11.55,1.67 11.36,1.29 11.30,0.87 11.24,0.45 11.32,0.03 11.40,-0.38 11.61,-0.75 11.82,-1.12 12.13,-1.40 12.45,-1.69 12.84,-1.86 13.23,-2.03 13.65,-2.06 14.07,-2.10 14.49,-2.00 14.90,-1.89 15.26,-1.67 15.62,-1.44 15.88,-1.11 16.15,-0.78 16.30,-0.38 16.45,0.01 16.46,0.43 16.47,0.86 16.35,1.27 16.22,1.67 15.98,2.02 15.73,2.36 15.39,2.61 15.04,2.86 14.64,2.99 14.23,3.11 13.80,3.10 13.38,3.09 13.38,3.09 13.38,3.09 9.92,4.11 6.47,5.13 3.38,4.94 0.29,4.74 -0.27,4.71 -0.84,4.68 -1.39,4.51 -1.94,4.34 -2.43,4.04 -2.92,3.75 -3.33,3.34 -3.73,2.94 -4.03,2.45 -4.33,1.96 -4.50,1.41 -4.67,0.86 -4.71,0.29 -4.74,-0.27 -4.64,-0.84 -4.54,-1.40 -4.31,-1.92 -4.07,-2.45 -3.72,-2.90 -3.37,-3.35 -2.91,-3.71 -2.46,-4.06 -1.94,-4.30 -1.42,-4.53 -0.86,-4.64 -0.29,-4.74 -0.29,-4.74 L -0.29,-4.74 Z"></path></g><g transform="translate(96 54.00001525878906) rotate(0 6.333343505859375 10.333328247070312)" stroke="none"><path fill="#1e1e1e" d="M 2.07,3.37 Q 2.07,3.37 -0.16,5.28 -2.40,7.19 -1.04,10.33 0.31,13.46 2.56,14.21 4.80,14.95 8.82,14.71 12.83,14.46 14.89,13.89 16.95,13.32 18.95,13.90 20.96,14.48 21.38,14.41 21.80,14.33 22.22,14.39 22.64,14.45 23.02,14.64 23.40,14.83 23.70,15.13 24.00,15.43 24.18,15.82 24.37,16.20 24.42,16.62 24.48,17.04 24.40,17.46 24.31,17.87 24.10,18.24 23.89,18.61 23.57,18.89 23.25,19.17 22.86,19.34 22.47,19.51 22.05,19.54 21.62,19.57 21.21,19.47 20.80,19.36 20.44,19.13 20.09,18.90 19.82,18.57 19.56,18.23 19.41,17.83 19.27,17.43 19.26,17.01 19.25,16.58 19.38,16.18 19.51,15.77 19.76,15.43 20.01,15.09 20.35,14.84 20.70,14.59 21.11,14.47 21.51,14.35 21.94,14.36 22.36,14.38 22.76,14.53 23.16,14.67 23.49,14.94 23.82,15.21 24.05,15.57 24.27,15.93 24.37,16.34 24.47,16.76 24.44,17.18 24.40,17.60 24.23,17.99 24.06,18.38 23.77,18.70 23.49,19.01 23.11,19.22 22.74,19.42 22.74,19.42 22.74,19.42 21.08,21.33 19.42,23.24 16.32,23.95 13.22,24.66 7.81,24.73 2.40,24.80 -2.02,22.90 -6.44,20.99 -9.05,18.39 -11.66,15.78 -12.73,13.22 -13.80,10.66 -12.57,6.52 -11.33,2.38 -9.44,0.65 -7.55,-1.06 -4.81,-2.21 -2.07,-3.37 -1.64,-3.57 -1.20,-3.76 -0.73,-3.85 -0.27,-3.94 0.20,-3.92 0.68,-3.89 1.13,-3.76 1.59,-3.62 2.00,-3.37 2.41,-3.13 2.75,-2.80 3.09,-2.46 3.34,-2.05 3.59,-1.65 3.74,-1.19 3.88,-0.74 3.92,-0.26 3.95,0.20 3.87,0.67 3.78,1.14 3.59,1.58 3.40,2.02 3.11,2.39 2.82,2.77 2.44,3.07 2.07,3.37 2.07,3.37 L 2.07,3.37 Z"></path></g><g transform="translate(136 58.00001525878906) rotate(0 2.333343505859375 0)" stroke="none"><path fill="#1e1e1e" d="M 0,-4.77 Q 0,-4.77 1.34,-3.70 2.68,-2.62 3.10,-2.55 3.52,-2.48 3.89,-2.29 4.27,-2.09 4.56,-1.78 4.85,-1.47 5.03,-1.08 5.21,-0.70 5.26,-0.28 5.30,0.14 5.21,0.55 5.12,0.97 4.90,1.33 4.68,1.70 4.36,1.97 4.03,2.25 3.64,2.40 3.24,2.56 2.82,2.58 2.39,2.61 1.98,2.49 1.58,2.38 1.22,2.14 0.87,1.90 0.61,1.56 0.36,1.23 0.22,0.82 0.09,0.42 0.09,-0.00 0.09,-0.42 0.22,-0.82 0.36,-1.23 0.62,-1.56 0.87,-1.90 1.22,-2.14 1.58,-2.38 1.99,-2.49 2.39,-2.61 2.82,-2.58 3.24,-2.56 3.64,-2.40 4.03,-2.25 4.36,-1.97 4.68,-1.69 4.90,-1.33 5.12,-0.97 5.21,-0.55 5.30,-0.14 5.26,0.28 5.21,0.70 5.03,1.08 4.85,1.47 4.56,1.78 4.27,2.09 3.89,2.29 3.52,2.48 3.10,2.55 2.68,2.62 2.68,2.62 2.68,2.62 1.34,3.70 0,4.77 -0.57,4.70 -1.14,4.63 -1.68,4.43 -2.21,4.22 -2.69,3.90 -3.16,3.57 -3.54,3.14 -3.93,2.71 -4.19,2.20 -4.46,1.69 -4.60,1.13 -4.74,0.57 -4.74,-0.00 -4.74,-0.57 -4.60,-1.13 -4.46,-1.69 -4.19,-2.20 -3.93,-2.71 -3.54,-3.14 -3.16,-3.57 -2.69,-3.90 -2.21,-4.22 -1.68,-4.43 -1.14,-4.63 -0.57,-4.70 0.00,-4.77 0.00,-4.77 L 0,-4.77 Z"></path></g><g transform="translate(174.66668701171875 42.00001525878906) rotate(0 -4 14.666656494140625)" stroke="none"><path fill="#1e1e1e" d="M 2.96,3.29 Q 2.96,3.29 -0.49,7.12 -3.94,10.95 -5.44,13.61 -6.94,16.26 -6.13,18.79 -5.32,21.32 -2.11,22.12 1.10,22.93 3.11,24.02 5.12,25.11 5.54,25.02 5.96,24.93 6.38,24.98 6.80,25.03 7.18,25.22 7.57,25.40 7.87,25.70 8.18,25.99 8.37,26.37 8.57,26.75 8.63,27.17 8.69,27.59 8.62,28.01 8.55,28.43 8.34,28.80 8.14,29.17 7.83,29.46 7.51,29.75 7.13,29.92 6.74,30.10 6.32,30.14 5.89,30.18 5.48,30.08 5.07,29.99 4.70,29.76 4.34,29.54 4.07,29.21 3.80,28.88 3.65,28.49 3.50,28.09 3.48,27.67 3.46,27.24 3.58,26.83 3.70,26.43 3.94,26.08 4.18,25.73 4.52,25.47 4.86,25.22 5.27,25.09 5.67,24.96 6.10,24.97 6.52,24.97 6.92,25.11 7.33,25.25 7.66,25.51 8.00,25.77 8.23,26.13 8.46,26.48 8.57,26.89 8.68,27.30 8.65,27.73 8.63,28.15 8.46,28.55 8.30,28.94 8.02,29.26 7.74,29.58 7.38,29.79 7.01,30.01 7.01,30.01 7.01,30.01 2.77,32.05 -1.46,34.08 -4.52,33.26 -7.59,32.44 -10.92,30.33 -14.25,28.22 -15.95,25.54 -17.65,22.85 -18.09,19.04 -18.54,15.23 -17.48,12.76 -16.43,10.29 -13.91,6.57 -11.38,2.84 -7.17,-0.22 -2.96,-3.29 -2.52,-3.59 -2.08,-3.90 -1.59,-4.09 -1.09,-4.29 -0.56,-4.35 -0.03,-4.42 0.49,-4.36 1.02,-4.30 1.52,-4.12 2.02,-3.93 2.46,-3.63 2.91,-3.33 3.26,-2.94 3.62,-2.54 3.87,-2.07 4.12,-1.60 4.25,-1.08 4.39,-0.56 4.39,-0.03 4.39,0.49 4.27,1.01 4.15,1.53 3.90,2.01 3.66,2.48 3.31,2.88 2.96,3.29 2.96,3.29 L 2.96,3.29 Z"></path></g><g transform="translate(200.66668701171875 58.66667175292969) rotate(0 3.666656494140625 0.3333282470703125)" stroke="none"><path fill="#1e1e1e" d="M 0.41,-4.59 Q 0.41,-4.59 2.43,-3.41 4.45,-2.23 4.86,-2.12 5.27,-2.01 5.63,-1.78 5.98,-1.55 6.25,-1.22 6.51,-0.88 6.65,-0.48 6.80,-0.08 6.80,0.33 6.81,0.76 6.68,1.16 6.55,1.57 6.30,1.91 6.05,2.25 5.70,2.50 5.36,2.74 4.95,2.86 4.54,2.98 4.12,2.97 3.69,2.95 3.29,2.80 2.90,2.65 2.57,2.38 2.24,2.11 2.01,1.75 1.79,1.39 1.69,0.98 1.59,0.57 1.63,0.14 1.67,-0.27 1.84,-0.66 2.01,-1.05 2.30,-1.36 2.59,-1.67 2.96,-1.88 3.33,-2.09 3.75,-2.16 4.17,-2.24 4.59,-2.18 5.01,-2.12 5.39,-1.92 5.76,-1.73 6.06,-1.43 6.36,-1.12 6.54,-0.74 6.73,-0.36 6.78,0.05 6.84,0.47 6.75,0.89 6.67,1.31 6.46,1.68 6.24,2.04 5.92,2.32 5.60,2.61 5.21,2.77 4.82,2.93 4.40,2.96 3.97,2.99 3.97,2.99 3.97,2.99 1.78,3.79 -0.41,4.59 -0.96,4.47 -1.50,4.36 -2.00,4.11 -2.50,3.87 -2.93,3.51 -3.35,3.16 -3.68,2.71 -4.01,2.26 -4.23,1.75 -4.44,1.23 -4.52,0.68 -4.61,0.13 -4.56,-0.41 -4.51,-0.96 -4.32,-1.49 -4.14,-2.01 -3.84,-2.48 -3.54,-2.95 -3.13,-3.33 -2.73,-3.71 -2.24,-3.98 -1.76,-4.26 -1.22,-4.41 -0.69,-4.56 -0.13,-4.57 0.41,-4.59 0.41,-4.59 L 0.41,-4.59 Z"></path></g><g transform="translate(240 37.33332824707031) rotate(0 1.000030517578125 14.666671752929688)" stroke="none"><path fill="#1e1e1e" d="M 2.62,3.94 Q 2.62,3.94 0.04,6.00 -2.53,8.06 -3.41,12.13 -4.28,16.19 -1.38,18.96 1.52,21.73 3.88,22.03 6.25,22.33 8.51,22.85 10.77,23.37 11.17,23.23 11.57,23.09 11.99,23.08 12.42,23.07 12.82,23.20 13.23,23.33 13.57,23.58 13.91,23.83 14.16,24.18 14.40,24.53 14.52,24.94 14.64,25.34 14.63,25.77 14.61,26.19 14.46,26.59 14.31,26.99 14.04,27.32 13.77,27.65 13.41,27.87 13.05,28.10 12.64,28.19 12.22,28.29 11.80,28.25 11.38,28.22 10.99,28.04 10.60,27.87 10.29,27.58 9.97,27.30 9.77,26.93 9.56,26.55 9.49,26.14 9.41,25.72 9.47,25.30 9.53,24.88 9.73,24.50 9.92,24.12 10.22,23.82 10.53,23.52 10.91,23.34 11.29,23.15 11.71,23.10 12.14,23.05 12.55,23.13 12.97,23.22 13.34,23.43 13.70,23.64 13.98,23.96 14.27,24.28 14.43,24.67 14.59,25.07 14.62,25.49 14.65,25.91 14.55,26.32 14.44,26.74 14.21,27.09 13.97,27.45 13.64,27.71 13.31,27.97 13.31,27.97 13.31,27.97 12.02,30.35 10.73,32.72 8.57,33.21 6.42,33.70 3.34,33.51 0.25,33.31 -2.46,32.09 -5.19,30.87 -7.87,28.75 -10.54,26.63 -12.88,22.79 -15.23,18.94 -15.25,16.43 -15.27,13.93 -14.39,10.37 -13.51,6.80 -11.23,3.20 -8.96,-0.39 -5.79,-2.16 -2.62,-3.94 -2.11,-4.19 -1.60,-4.45 -1.05,-4.58 -0.49,-4.71 0.07,-4.70 0.64,-4.69 1.19,-4.54 1.75,-4.40 2.25,-4.12 2.75,-3.85 3.17,-3.46 3.59,-3.08 3.91,-2.60 4.22,-2.13 4.42,-1.59 4.61,-1.05 4.67,-0.49 4.73,0.07 4.65,0.64 4.58,1.20 4.36,1.73 4.15,2.26 3.82,2.73 3.49,3.19 3.06,3.57 2.62,3.94 2.62,3.94 L 2.62,3.94 Z"></path></g><g transform="translate(274.66668701171875 50.66667175292969) rotate(0 0.00004999999999988347 0.00005000000000165983)" stroke="none"><path fill="#1e1e1e" d="M 4.25,-4.24 Q 4.25,-4.24 4.81,-3.46 5.38,-2.67 5.67,-1.74 5.95,-0.81 5.92,0.16 5.90,1.13 5.56,2.04 5.23,2.95 4.62,3.71 4.01,4.47 3.19,4.99 2.37,5.52 1.43,5.75 0.48,5.99 -0.48,5.91 -1.45,5.83 -2.34,5.44 -3.23,5.06 -3.96,4.41 -4.68,3.76 -5.16,2.91 -5.64,2.07 -5.82,1.11 -6.00,0.16 -5.87,-0.80 -5.74,-1.76 -5.31,-2.63 -4.88,-3.50 -4.19,-4.19 -3.50,-4.88 -2.63,-5.31 -1.76,-5.74 -0.79,-5.87 0.16,-6.00 1.11,-5.82 2.07,-5.64 2.92,-5.16 3.76,-4.68 4.41,-3.95 5.06,-3.23 5.44,-2.34 5.83,-1.44 5.91,-0.47 5.99,0.48 5.75,1.43 5.52,2.37 4.99,3.19 4.47,4.01 3.71,4.62 2.95,5.23 2.04,5.56 1.13,5.90 0.15,5.92 -0.81,5.95 -1.74,5.66 -2.67,5.38 -3.46,4.81 -4.25,4.24 -4.25,4.24 -4.24,4.25 -4.69,3.67 -5.14,3.10 -5.44,2.44 -5.73,1.78 -5.86,1.07 -5.99,0.36 -5.95,-0.36 -5.91,-1.08 -5.69,-1.77 -5.48,-2.46 -5.10,-3.08 -4.73,-3.70 -4.21,-4.21 -3.70,-4.73 -3.08,-5.10 -2.46,-5.48 -1.77,-5.69 -1.08,-5.91 -0.35,-5.95 0.36,-5.99 1.07,-5.86 1.78,-5.73 2.44,-5.44 3.10,-5.14 3.68,-4.69 4.25,-4.24 4.25,-4.24 L 4.25,-4.24 Z"></path></g><g transform="translate(306 38.00001525878906) rotate(0 8.000030517578125 11)" stroke="none"><path fill="#1e1e1e" d="M 2.10,3.42 Q 2.10,3.42 0.21,5.13 -1.68,6.85 -2.04,9.67 -2.40,12.50 -0.28,14.17 1.82,15.85 4.14,16.05 6.46,16.25 9.60,16.16 12.74,16.07 15.72,15.50 18.70,14.94 21.15,15.67 23.61,16.41 24.03,16.37 24.45,16.32 24.87,16.41 25.28,16.51 25.64,16.73 26.01,16.95 26.28,17.27 26.56,17.60 26.71,17.99 26.87,18.39 26.89,18.81 26.91,19.23 26.80,19.64 26.68,20.05 26.44,20.40 26.20,20.76 25.87,21.01 25.53,21.27 25.12,21.40 24.72,21.54 24.30,21.54 23.87,21.53 23.47,21.40 23.07,21.26 22.73,21.00 22.39,20.75 22.15,20.39 21.92,20.04 21.80,19.63 21.69,19.22 21.71,18.80 21.74,18.37 21.90,17.98 22.06,17.58 22.33,17.26 22.61,16.94 22.97,16.72 23.34,16.50 23.75,16.41 24.17,16.32 24.59,16.37 25.01,16.41 25.40,16.59 25.78,16.77 26.09,17.07 26.40,17.36 26.60,17.74 26.79,18.11 26.86,18.53 26.93,18.95 26.86,19.37 26.79,19.79 26.59,20.16 26.39,20.54 26.08,20.83 25.77,21.12 25.38,21.30 25.00,21.48 25.00,21.48 25.00,21.48 22.80,23.49 20.59,25.51 16.79,26.16 12.99,26.80 9.19,26.86 5.38,26.91 2.20,26.55 -0.97,26.18 -4.15,25.17 -7.33,24.16 -9.79,21.82 -12.26,19.48 -12.84,16.85 -13.42,14.21 -12.99,11.74 -12.56,9.26 -10.42,4.27 -8.28,-0.72 -5.19,-2.07 -2.10,-3.42 -1.66,-3.62 -1.22,-3.82 -0.75,-3.92 -0.27,-4.01 0.20,-3.98 0.69,-3.96 1.15,-3.81 1.62,-3.67 2.03,-3.43 2.45,-3.18 2.79,-2.84 3.14,-2.50 3.39,-2.09 3.65,-1.67 3.80,-1.21 3.94,-0.75 3.98,-0.27 4.01,0.21 3.93,0.68 3.84,1.16 3.65,1.60 3.45,2.05 3.16,2.43 2.86,2.82 2.48,3.12 2.10,3.42 2.10,3.42 L 2.10,3.42 Z"></path></g><g transform="translate(110.66668701171875 100.00001525878906) rotate(0 -0.333343505859375 0.666656494140625)" stroke="none"><path fill="#1e1e1e" d="M 1.96,1.94 Q 1.96,1.94 1.71,2.28 1.46,2.63 1.12,2.87 0.77,3.12 0.36,3.24 -0.03,3.37 -0.46,3.35 -0.88,3.34 -1.28,3.19 -1.68,3.04 -2.01,2.78 -2.34,2.51 -2.57,2.15 -2.79,1.79 -2.90,1.38 -3.00,0.97 -2.96,0.54 -2.93,0.12 -2.76,-0.26 -2.59,-0.65 -2.30,-0.97 -2.02,-1.28 -1.65,-1.49 -1.28,-1.70 -0.86,-1.78 -0.44,-1.85 -0.02,-1.80 0.39,-1.74 0.77,-1.55 1.15,-1.36 1.45,-1.05 1.75,-0.75 1.94,-0.37 2.13,0.00 2.18,0.42 2.24,0.84 2.16,1.26 2.07,1.68 1.86,2.05 1.65,2.41 1.34,2.70 1.02,2.98 0.63,3.15 0.24,3.31 -0.18,3.35 -0.60,3.38 -1.01,3.27 -1.42,3.17 -1.78,2.94 -2.14,2.71 -2.40,2.38 -2.67,2.05 -2.81,1.65 -2.96,1.25 -2.97,0.82 -2.98,0.40 -2.85,-0.00 -2.73,-0.40 -2.73,-0.40 -2.73,-0.40 -2.64,-0.72 -2.55,-1.05 -2.39,-1.34 -2.22,-1.63 -2.00,-1.87 -1.77,-2.11 -1.49,-2.29 -1.21,-2.48 -0.90,-2.59 -0.58,-2.69 -0.25,-2.73 0.07,-2.76 0.40,-2.71 0.73,-2.66 1.04,-2.53 1.35,-2.41 1.61,-2.21 1.88,-2.01 2.10,-1.76 2.31,-1.50 2.46,-1.20 2.60,-0.90 2.68,-0.58 2.75,-0.25 2.74,0.07 2.73,0.40 2.34,1.17 L 1.96,1.94 Z"></path></g><g transform="translate(108.66668701171875 130.6666717529297) rotate(0 7.666656494140625 9.666671752929688)" stroke="none"><path fill="#1e1e1e" d="M 3.89,1.67 Q 3.89,1.67 2.37,5.77 0.85,9.88 2.96,11.88 5.07,13.89 8.28,13.73 11.49,13.57 13.82,12.57 16.14,11.57 17.60,11.71 19.06,11.85 19.41,11.62 19.77,11.38 20.18,11.27 20.59,11.17 21.01,11.19 21.44,11.22 21.83,11.38 22.22,11.55 22.54,11.83 22.86,12.11 23.08,12.47 23.29,12.84 23.38,13.26 23.46,13.67 23.41,14.09 23.36,14.52 23.18,14.90 22.99,15.28 22.70,15.59 22.40,15.89 22.02,16.09 21.65,16.28 21.23,16.34 20.81,16.41 20.39,16.33 19.97,16.26 19.60,16.06 19.22,15.85 18.93,15.54 18.65,15.23 18.47,14.84 18.30,14.45 18.26,14.03 18.22,13.61 18.31,13.19 18.41,12.78 18.63,12.42 18.86,12.05 19.19,11.78 19.51,11.51 19.91,11.36 20.31,11.21 20.73,11.19 21.16,11.17 21.56,11.29 21.97,11.41 22.32,11.65 22.67,11.90 22.92,12.24 23.17,12.58 23.31,12.98 23.44,13.39 23.43,13.81 23.43,14.24 23.28,14.64 23.14,15.04 22.88,15.38 22.62,15.71 22.62,15.71 22.62,15.71 21.86,17.90 21.09,20.10 19.13,21.12 17.17,22.15 14.89,22.73 12.61,23.31 7.84,23.36 3.08,23.40 0.07,22.58 -2.93,21.75 -5.28,19.64 -7.63,17.52 -8.36,14.49 -9.08,11.46 -8.42,8.84 -7.75,6.21 -5.82,2.27 -3.89,-1.67 -3.64,-2.11 -3.38,-2.55 -3.02,-2.92 -2.67,-3.28 -2.24,-3.56 -1.80,-3.83 -1.32,-3.99 -0.83,-4.15 -0.32,-4.19 0.17,-4.23 0.68,-4.15 1.18,-4.06 1.65,-3.86 2.12,-3.66 2.53,-3.35 2.94,-3.05 3.26,-2.65 3.58,-2.25 3.80,-1.79 4.02,-1.33 4.12,-0.83 4.22,-0.33 4.20,0.17 4.18,0.68 4.03,1.17 3.89,1.67 3.89,1.67 L 3.89,1.67 Z"></path></g><g transform="translate(131.3333740234375 172.6666717529297) rotate(0 0.00005000000000165983 0.00005000000000165983)" stroke="none"><path fill="#1e1e1e" d="M 4.25,-4.24 Q 4.25,-4.24 4.81,-3.46 5.38,-2.67 5.67,-1.74 5.95,-0.81 5.92,0.16 5.90,1.13 5.56,2.04 5.23,2.95 4.62,3.71 4.01,4.47 3.19,4.99 2.37,5.52 1.43,5.75 0.48,5.99 -0.48,5.91 -1.45,5.83 -2.34,5.44 -3.23,5.06 -3.96,4.41 -4.68,3.76 -5.16,2.91 -5.64,2.07 -5.82,1.11 -6.00,0.16 -5.87,-0.80 -5.74,-1.76 -5.31,-2.63 -4.88,-3.50 -4.19,-4.19 -3.50,-4.88 -2.63,-5.31 -1.76,-5.74 -0.79,-5.87 0.16,-6.00 1.11,-5.82 2.07,-5.64 2.92,-5.16 3.76,-4.68 4.41,-3.95 5.06,-3.23 5.44,-2.34 5.83,-1.44 5.91,-0.47 5.99,0.48 5.75,1.43 5.52,2.37 4.99,3.19 4.47,4.01 3.71,4.62 2.95,5.23 2.04,5.56 1.13,5.90 0.15,5.92 -0.81,5.95 -1.74,5.66 -2.67,5.38 -3.46,4.81 -4.25,4.24 -4.25,4.24 -4.24,4.25 -4.69,3.67 -5.14,3.10 -5.44,2.44 -5.73,1.78 -5.86,1.07 -5.99,0.36 -5.95,-0.36 -5.91,-1.08 -5.69,-1.77 -5.48,-2.46 -5.10,-3.08 -4.73,-3.70 -4.21,-4.21 -3.70,-4.73 -3.08,-5.10 -2.46,-5.48 -1.77,-5.69 -1.08,-5.91 -0.35,-5.95 0.36,-5.99 1.07,-5.86 1.78,-5.73 2.44,-5.44 3.10,-5.14 3.68,-4.69 4.25,-4.24 4.25,-4.24 L 4.25,-4.24 Z"></path></g><g transform="translate(134.66668701171875 195.3333282470703) rotate(0 -7.333343505859375 17.333343505859375)" stroke="none"><path fill="#1e1e1e" d="M 1.83,4.21 Q 1.83,4.21 -2.36,6.45 -6.57,8.69 -9.37,11.73 -12.18,14.77 -13.70,16.37 -15.22,17.97 -15.51,20.87 -15.79,23.76 -14.03,25.50 -12.27,27.23 -8.28,27.79 -4.29,28.35 -2.10,28.29 0.09,28.23 3.11,29.27 6.13,30.32 6.56,30.31 6.98,30.31 7.38,30.44 7.79,30.58 8.13,30.83 8.47,31.09 8.71,31.44 8.95,31.79 9.07,32.19 9.18,32.60 9.16,33.03 9.14,33.45 8.99,33.85 8.83,34.24 8.56,34.57 8.29,34.89 7.93,35.12 7.56,35.34 7.15,35.43 6.73,35.53 6.31,35.48 5.89,35.44 5.50,35.27 5.12,35.09 4.80,34.80 4.49,34.51 4.29,34.14 4.09,33.76 4.02,33.34 3.95,32.92 4.01,32.50 4.08,32.08 4.28,31.71 4.47,31.33 4.78,31.04 5.08,30.74 5.47,30.56 5.85,30.38 6.28,30.33 6.70,30.28 7.11,30.37 7.53,30.46 7.89,30.67 8.26,30.89 8.54,31.21 8.82,31.54 8.98,31.93 9.14,32.32 9.16,32.75 9.19,33.17 9.08,33.58 8.97,33.99 8.73,34.34 8.49,34.70 8.16,34.96 7.82,35.22 7.42,35.36 7.02,35.49 7.02,35.49 7.02,35.49 3.59,37.64 0.16,39.79 -2.86,39.75 -5.89,39.71 -9.22,39.21 -12.55,38.72 -15.42,37.81 -18.29,36.91 -20.26,35.50 -22.23,34.09 -24.10,31.33 -25.96,28.57 -26.38,25.07 -26.80,21.58 -25.24,16.37 -23.68,11.16 -21.76,9.02 -19.84,6.88 -15.45,2.93 -11.06,-1.02 -6.44,-2.61 -1.83,-4.21 -1.30,-4.37 -0.77,-4.52 -0.21,-4.55 0.33,-4.58 0.87,-4.47 1.42,-4.36 1.92,-4.13 2.42,-3.90 2.85,-3.55 3.28,-3.20 3.62,-2.76 3.96,-2.32 4.18,-1.81 4.40,-1.31 4.49,-0.76 4.58,-0.21 4.54,0.33 4.50,0.88 4.33,1.41 4.16,1.93 3.87,2.40 3.57,2.87 3.18,3.26 2.78,3.65 2.30,3.93 1.83,4.21 1.83,4.21 L 1.83,4.21 Z"></path></g><g transform="translate(126 169.3333282470703) rotate(0 0 4.333343505859375)" stroke="none"><path fill="#1e1e1e" d="M 5.05,0 Q 5.05,0 3.84,2.49 2.62,4.98 2.55,5.40 2.48,5.82 2.29,6.19 2.09,6.57 1.78,6.86 1.47,7.15 1.08,7.33 0.70,7.51 0.28,7.56 -0.14,7.60 -0.55,7.51 -0.97,7.42 -1.33,7.20 -1.70,6.98 -1.97,6.66 -2.25,6.33 -2.40,5.94 -2.56,5.54 -2.58,5.12 -2.61,4.69 -2.49,4.28 -2.38,3.88 -2.14,3.52 -1.90,3.17 -1.56,2.91 -1.23,2.66 -0.82,2.52 -0.42,2.39 0.00,2.39 0.42,2.39 0.82,2.52 1.23,2.66 1.56,2.92 1.90,3.17 2.14,3.52 2.38,3.88 2.49,4.29 2.61,4.69 2.58,5.12 2.56,5.54 2.40,5.94 2.25,6.33 1.97,6.66 1.69,6.98 1.33,7.20 0.97,7.42 0.55,7.51 0.14,7.60 -0.28,7.56 -0.70,7.51 -1.08,7.33 -1.47,7.15 -1.78,6.86 -2.09,6.57 -2.29,6.19 -2.48,5.82 -2.55,5.40 -2.62,4.98 -2.62,4.98 -2.62,4.98 -3.84,2.49 -5.05,0 -4.98,-0.60 -4.91,-1.21 -4.69,-1.78 -4.47,-2.35 -4.13,-2.85 -3.78,-3.35 -3.32,-3.75 -2.87,-4.16 -2.33,-4.44 -1.79,-4.72 -1.20,-4.87 -0.60,-5.02 0.00,-5.02 0.60,-5.02 1.20,-4.87 1.79,-4.72 2.33,-4.44 2.87,-4.16 3.32,-3.75 3.78,-3.35 4.13,-2.85 4.47,-2.34 4.69,-1.77 4.91,-1.20 4.98,-0.60 5.05,0.00 5.05,0.00 L 5.05,0 Z"></path></g><g transform="translate(150 146.00001525878906) rotate(0 4.333343505859375 -0.333343505859375)" stroke="none"><path fill="#1e1e1e" d="M -0.38,-4.96 Q -0.38,-4.96 3.25,-4.06 6.89,-3.16 7.32,-3.12 7.74,-3.09 8.13,-2.92 8.52,-2.75 8.84,-2.46 9.15,-2.18 9.36,-1.81 9.57,-1.44 9.64,-1.02 9.72,-0.60 9.66,-0.18 9.60,0.23 9.41,0.61 9.22,0.99 8.92,1.29 8.62,1.59 8.24,1.78 7.86,1.96 7.43,2.02 7.01,2.07 6.60,1.99 6.18,1.91 5.81,1.70 5.44,1.49 5.16,1.17 4.88,0.85 4.71,0.46 4.54,0.07 4.51,-0.34 4.48,-0.77 4.58,-1.18 4.69,-1.59 4.92,-1.95 5.15,-2.30 5.48,-2.57 5.81,-2.83 6.21,-2.98 6.61,-3.12 7.04,-3.13 7.46,-3.14 7.87,-3.02 8.27,-2.89 8.62,-2.64 8.96,-2.39 9.21,-2.04 9.45,-1.70 9.58,-1.29 9.70,-0.88 9.69,-0.46 9.67,-0.03 9.53,0.35 9.38,0.75 9.11,1.08 8.84,1.41 8.48,1.64 8.12,1.87 7.71,1.97 7.30,2.07 7.30,2.07 7.30,2.07 3.84,3.51 0.38,4.96 -0.21,4.94 -0.81,4.91 -1.39,4.74 -1.96,4.57 -2.48,4.27 -3.00,3.97 -3.43,3.55 -3.87,3.13 -4.18,2.62 -4.50,2.11 -4.69,1.54 -4.88,0.97 -4.93,0.37 -4.97,-0.21 -4.87,-0.81 -4.77,-1.40 -4.54,-1.95 -4.30,-2.50 -3.94,-2.98 -3.57,-3.46 -3.11,-3.84 -2.64,-4.22 -2.10,-4.47 -1.55,-4.73 -0.97,-4.84 -0.38,-4.96 -0.38,-4.96 L -0.38,-4.96 Z"></path></g><g transform="translate(192 121.33332824707031) rotate(0 -6.999969482421875 18.333343505859375)" stroke="none"><path fill="#1e1e1e" d="M 2.43,3.99 Q 2.43,3.99 -0.78,6.43 -4.00,8.88 -6.05,11.17 -8.11,13.46 -9.10,17.75 -10.10,22.04 -9.09,24.27 -8.08,26.51 -6.31,28.02 -4.53,29.53 -1.49,30.83 1.54,32.13 1.96,32.16 2.39,32.19 2.78,32.35 3.17,32.51 3.49,32.79 3.81,33.07 4.02,33.44 4.24,33.81 4.32,34.23 4.41,34.64 4.35,35.06 4.30,35.49 4.12,35.87 3.93,36.25 3.64,36.55 3.34,36.86 2.96,37.05 2.58,37.25 2.16,37.31 1.74,37.37 1.32,37.29 0.91,37.22 0.53,37.02 0.16,36.81 -0.12,36.50 -0.40,36.18 -0.58,35.80 -0.75,35.41 -0.79,34.98 -0.83,34.56 -0.73,34.15 -0.63,33.73 -0.41,33.37 -0.18,33.01 0.13,32.74 0.46,32.47 0.86,32.32 1.26,32.17 1.68,32.15 2.11,32.14 2.51,32.26 2.92,32.38 3.27,32.62 3.62,32.87 3.87,33.21 4.12,33.55 4.25,33.95 4.38,34.36 4.37,34.78 4.37,35.21 4.23,35.61 4.08,36.01 3.82,36.34 3.56,36.68 3.20,36.91 2.85,37.14 2.44,37.25 2.03,37.36 2.03,37.36 2.03,37.36 -0.25,39.17 -2.54,40.99 -5.98,40.56 -9.43,40.13 -13.04,37.73 -16.65,35.34 -17.92,32.74 -19.18,30.14 -20.38,25.60 -21.59,21.06 -20.49,15.40 -19.40,9.73 -17.78,7.59 -16.15,5.45 -12.97,2.50 -9.79,-0.45 -6.11,-2.22 -2.43,-3.99 -1.92,-4.22 -1.41,-4.46 -0.85,-4.56 -0.30,-4.66 0.25,-4.63 0.82,-4.60 1.36,-4.44 1.89,-4.27 2.38,-3.98 2.86,-3.69 3.26,-3.29 3.66,-2.90 3.96,-2.42 4.25,-1.94 4.42,-1.40 4.59,-0.86 4.63,-0.30 4.67,0.26 4.57,0.81 4.47,1.37 4.24,1.88 4.01,2.40 3.66,2.84 3.32,3.29 2.88,3.64 2.43,3.99 2.43,3.99 L 2.43,3.99 Z"></path></g><g transform="translate(210 140.6666717529297) rotate(0 0.00005000000000165983 0.00005000000000165983)" stroke="none"><path fill="#1e1e1e" d="M 4.25,-4.24 Q 4.25,-4.24 4.81,-3.46 5.38,-2.67 5.67,-1.74 5.95,-0.81 5.92,0.16 5.90,1.13 5.56,2.04 5.23,2.95 4.62,3.71 4.01,4.47 3.19,4.99 2.37,5.52 1.43,5.75 0.48,5.99 -0.48,5.91 -1.45,5.83 -2.34,5.44 -3.23,5.06 -3.96,4.41 -4.68,3.76 -5.16,2.91 -5.64,2.07 -5.82,1.11 -6.00,0.16 -5.87,-0.80 -5.74,-1.76 -5.31,-2.63 -4.88,-3.50 -4.19,-4.19 -3.50,-4.88 -2.63,-5.31 -1.76,-5.74 -0.79,-5.87 0.16,-6.00 1.11,-5.82 2.07,-5.64 2.92,-5.16 3.76,-4.68 4.41,-3.95 5.06,-3.23 5.44,-2.34 5.83,-1.44 5.91,-0.47 5.99,0.48 5.75,1.43 5.52,2.37 4.99,3.19 4.47,4.01 3.71,4.62 2.95,5.23 2.04,5.56 1.13,5.90 0.15,5.92 -0.81,5.95 -1.74,5.66 -2.67,5.38 -3.46,4.81 -4.25,4.24 -4.25,4.24 -4.24,4.25 -4.69,3.67 -5.14,3.10 -5.44,2.44 -5.73,1.78 -5.86,1.07 -5.99,0.36 -5.95,-0.36 -5.91,-1.08 -5.69,-1.77 -5.48,-2.46 -5.10,-3.08 -4.73,-3.70 -4.21,-4.21 -3.70,-4.73 -3.08,-5.10 -2.46,-5.48 -1.77,-5.69 -1.08,-5.91 -0.35,-5.95 0.36,-5.99 1.07,-5.86 1.78,-5.73 2.44,-5.44 3.10,-5.14 3.68,-4.69 4.25,-4.24 4.25,-4.24 L 4.25,-4.24 Z"></path></g><g transform="translate(248.66668701171875 126.66667175292969) rotate(0 -6.666656494140625 13.666671752929688)" stroke="none"><path fill="#1e1e1e" d="M 1.18,4.43 Q 1.18,4.43 -1.58,5.54 -4.36,6.65 -6.27,7.72 -8.19,8.80 -9.31,10.92 -10.44,13.04 -10.37,15.95 -10.30,18.86 -7.10,19.94 -3.90,21.01 -0.45,22.01 3.00,23.01 3.42,22.98 3.85,22.96 4.26,23.07 4.67,23.19 5.02,23.42 5.37,23.66 5.63,24.00 5.89,24.34 6.02,24.74 6.16,25.14 6.16,25.57 6.16,25.99 6.02,26.40 5.89,26.80 5.63,27.14 5.37,27.48 5.02,27.71 4.67,27.95 4.26,28.07 3.85,28.18 3.43,28.16 3.00,28.14 2.61,27.98 2.21,27.82 1.89,27.55 1.57,27.27 1.35,26.91 1.13,26.54 1.04,26.13 0.94,25.71 0.99,25.29 1.04,24.87 1.21,24.48 1.39,24.10 1.68,23.79 1.98,23.48 2.35,23.28 2.73,23.08 3.15,23.01 3.57,22.94 3.99,23.01 4.40,23.08 4.78,23.28 5.16,23.48 5.45,23.79 5.74,24.10 5.92,24.48 6.10,24.87 6.14,25.29 6.19,25.71 6.10,26.13 6.01,26.54 5.79,26.91 5.57,27.27 5.25,27.55 4.92,27.82 4.53,27.98 4.13,28.14 4.13,28.14 4.13,28.13 1.39,30.30 -1.35,32.46 -3.80,32.40 -6.25,32.33 -8.97,31.67 -11.69,31.01 -14.94,28.98 -18.20,26.95 -19.87,23.74 -21.53,20.53 -21.63,15.72 -21.74,10.91 -20.62,8.72 -19.50,6.54 -16.53,2.96 -13.55,-0.60 -10.34,-2.09 -7.13,-3.58 -4.16,-4.01 -1.18,-4.43 -0.63,-4.51 -0.08,-4.59 0.46,-4.53 1.01,-4.48 1.53,-4.29 2.05,-4.10 2.51,-3.80 2.98,-3.49 3.35,-3.08 3.73,-2.68 3.99,-2.19 4.26,-1.70 4.40,-1.17 4.54,-0.63 4.55,-0.08 4.56,0.46 4.44,1.00 4.32,1.54 4.07,2.04 3.82,2.53 3.46,2.95 3.11,3.38 2.66,3.70 2.21,4.02 1.69,4.23 1.18,4.43 1.18,4.43 L 1.18,4.43 Z"></path></g><g transform="translate(276.66668701171875 142.00001525878906) rotate(0 -0.333343505859375 0.3333282470703125)" stroke="none"><path fill="#1e1e1e" d="M 1.47,2.24 Q 1.47,2.24 1.12,2.48 0.78,2.73 0.37,2.86 -0.02,2.98 -0.45,2.97 -0.87,2.96 -1.27,2.81 -1.67,2.66 -2.00,2.40 -2.33,2.13 -2.56,1.77 -2.79,1.42 -2.89,1.00 -3.00,0.59 -2.96,0.17 -2.93,-0.25 -2.76,-0.64 -2.59,-1.03 -2.31,-1.34 -2.02,-1.66 -1.65,-1.87 -1.28,-2.08 -0.87,-2.16 -0.45,-2.24 -0.03,-2.18 0.38,-2.12 0.76,-1.93 1.14,-1.74 1.44,-1.44 1.75,-1.14 1.93,-0.76 2.12,-0.38 2.18,0.03 2.24,0.45 2.16,0.87 2.08,1.28 1.87,1.65 1.66,2.02 1.34,2.31 1.03,2.59 0.64,2.76 0.24,2.93 -0.17,2.96 -0.59,3.00 -1.00,2.89 -1.42,2.79 -1.77,2.56 -2.13,2.33 -2.40,2.00 -2.67,1.67 -2.81,1.27 -2.96,0.87 -2.97,0.45 -2.98,0.02 -2.86,-0.37 -2.73,-0.78 -2.48,-1.12 -2.24,-1.47 -2.24,-1.47 -2.24,-1.47 -2.03,-1.72 -1.82,-1.96 -1.56,-2.15 -1.29,-2.34 -0.99,-2.46 -0.69,-2.58 -0.37,-2.63 -0.05,-2.68 0.26,-2.64 0.58,-2.61 0.88,-2.50 1.19,-2.40 1.46,-2.22 1.73,-2.04 1.95,-1.80 2.17,-1.57 2.32,-1.28 2.48,-1.00 2.57,-0.69 2.65,-0.38 2.66,-0.05 2.66,0.26 2.59,0.57 2.52,0.89 2.38,1.18 2.24,1.47 1.85,1.85 L 1.47,2.24 Z"></path></g><g transform="translate(308 126.66667175292969) rotate(0 0.333343505859375 15.333343505859375)" stroke="none"><path fill="#1e1e1e" d="M 1.27,4.45 Q 1.27,4.45 -1.19,5.58 -3.66,6.70 -4.83,9.13 -5.99,11.55 -6.69,14.07 -7.39,16.59 -5.48,18.98 -3.57,21.37 0.39,22.76 4.35,24.16 7.34,24.78 10.32,25.41 11.78,26.50 13.24,27.60 13.67,27.58 14.09,27.57 14.50,27.69 14.91,27.81 15.25,28.06 15.60,28.31 15.85,28.65 16.10,28.99 16.23,29.40 16.35,29.80 16.35,30.23 16.34,30.65 16.19,31.05 16.05,31.45 15.78,31.79 15.52,32.12 15.16,32.35 14.81,32.58 14.40,32.69 13.98,32.79 13.56,32.76 13.14,32.73 12.74,32.56 12.35,32.40 12.04,32.12 11.72,31.83 11.51,31.47 11.29,31.10 11.21,30.68 11.13,30.26 11.18,29.84 11.24,29.42 11.42,29.04 11.61,28.66 11.91,28.35 12.21,28.05 12.59,27.86 12.97,27.67 13.39,27.61 13.81,27.55 14.23,27.63 14.64,27.70 15.01,27.91 15.39,28.12 15.67,28.43 15.96,28.75 16.13,29.14 16.30,29.53 16.34,29.95 16.37,30.37 16.27,30.79 16.17,31.20 15.95,31.56 15.72,31.92 15.39,32.19 15.06,32.45 14.66,32.60 14.26,32.75 14.27,32.75 14.27,32.75 9.62,34.36 4.97,35.97 2.84,35.39 0.71,34.80 -1.79,33.93 -4.30,33.05 -7.21,31.75 -10.12,30.45 -12.77,28.24 -15.42,26.02 -17.08,22.05 -18.74,18.08 -18.41,15.77 -18.07,13.45 -17.06,10.13 -16.05,6.82 -14.28,3.63 -12.52,0.44 -9.79,-1.59 -7.06,-3.63 -4.16,-4.04 -1.27,-4.45 -0.72,-4.54 -0.16,-4.62 0.38,-4.58 0.94,-4.53 1.47,-4.35 2.00,-4.17 2.47,-3.87 2.94,-3.57 3.32,-3.17 3.71,-2.76 3.99,-2.28 4.26,-1.80 4.42,-1.26 4.57,-0.72 4.59,-0.16 4.61,0.38 4.50,0.93 4.38,1.48 4.14,1.98 3.90,2.49 3.55,2.92 3.19,3.35 2.74,3.68 2.30,4.02 1.78,4.23 1.27,4.45 1.27,4.45 L 1.27,4.45 Z"></path></g><g transform="translate(343.3333740234375 142.00001525878906) rotate(0 0.00005000000000165983 0.00005000000000165983)" stroke="none"><path fill="#1e1e1e" d="M 4.25,-4.24 Q 4.25,-4.24 4.81,-3.46 5.38,-2.67 5.67,-1.74 5.95,-0.81 5.92,0.16 5.90,1.13 5.56,2.04 5.23,2.95 4.62,3.71 4.01,4.47 3.19,4.99 2.37,5.52 1.43,5.75 0.48,5.99 -0.48,5.91 -1.45,5.83 -2.34,5.44 -3.23,5.06 -3.96,4.41 -4.68,3.76 -5.16,2.91 -5.64,2.07 -5.82,1.11 -6.00,0.16 -5.87,-0.80 -5.74,-1.76 -5.31,-2.63 -4.88,-3.50 -4.19,-4.19 -3.50,-4.88 -2.63,-5.31 -1.76,-5.74 -0.79,-5.87 0.16,-6.00 1.11,-5.82 2.07,-5.64 2.92,-5.16 3.76,-4.68 4.41,-3.95 5.06,-3.23 5.44,-2.34 5.83,-1.44 5.91,-0.47 5.99,0.48 5.75,1.43 5.52,2.37 4.99,3.19 4.47,4.01 3.71,4.62 2.95,5.23 2.04,5.56 1.13,5.90 0.15,5.92 -0.81,5.95 -1.74,5.66 -2.67,5.38 -3.46,4.81 -4.25,4.24 -4.25,4.24 -4.24,4.25 -4.69,3.67 -5.14,3.10 -5.44,2.44 -5.73,1.78 -5.86,1.07 -5.99,0.36 -5.95,-0.36 -5.91,-1.08 -5.69,-1.77 -5.48,-2.46 -5.10,-3.08 -4.73,-3.70 -4.21,-4.21 -3.70,-4.73 -3.08,-5.10 -2.46,-5.48 -1.77,-5.69 -1.08,-5.91 -0.35,-5.95 0.36,-5.99 1.07,-5.86 1.78,-5.73 2.44,-5.44 3.10,-5.14 3.68,-4.69 4.25,-4.24 4.25,-4.24 L 4.25,-4.24 Z"></path></g><g transform="translate(385.3333740234375 126.66667175292969) rotate(0 0.33331298828125 11.333328247070312)" stroke="none"><path fill="#1e1e1e" d="M 0.30,3.92 Q 0.30,3.92 -2.08,4.85 -4.47,5.78 -6.56,8.15 -8.65,10.53 -9.70,12.96 -10.75,15.39 -9.20,16.98 -7.66,18.57 -4.67,18.95 -1.68,19.33 1.08,19.18 3.85,19.03 6.42,18.44 8.98,17.86 12.88,18.22 16.77,18.58 17.19,18.49 17.61,18.40 18.03,18.45 18.45,18.50 18.84,18.68 19.22,18.86 19.53,19.15 19.83,19.45 20.03,19.82 20.23,20.20 20.29,20.62 20.36,21.04 20.29,21.46 20.22,21.88 20.02,22.25 19.82,22.63 19.51,22.92 19.20,23.21 18.81,23.38 18.42,23.56 18.00,23.60 17.58,23.65 17.16,23.55 16.75,23.46 16.39,23.24 16.02,23.02 15.75,22.69 15.48,22.37 15.32,21.97 15.17,21.58 15.14,21.15 15.12,20.73 15.24,20.32 15.36,19.91 15.60,19.56 15.84,19.21 16.18,18.95 16.52,18.70 16.92,18.56 17.32,18.43 17.75,18.43 18.17,18.44 18.58,18.57 18.98,18.71 19.31,18.97 19.65,19.23 19.89,19.58 20.12,19.94 20.24,20.35 20.35,20.76 20.32,21.18 20.30,21.60 20.14,22.00 19.98,22.39 19.70,22.71 19.42,23.04 19.06,23.25 18.69,23.47 18.69,23.47 18.69,23.47 15.04,26.40 11.38,29.34 7.89,30.02 4.39,30.70 1.02,30.82 -2.34,30.95 -5.36,30.65 -8.39,30.36 -11.24,29.26 -14.09,28.15 -16.91,25.76 -19.73,23.37 -20.95,19.49 -22.18,15.60 -21.60,13.05 -21.02,10.50 -19.21,7.00 -17.40,3.50 -14.41,0.33 -11.41,-2.83 -8.45,-3.92 -5.48,-5.01 -2.89,-4.47 -0.30,-3.92 0.17,-3.90 0.64,-3.88 1.10,-3.75 1.55,-3.61 1.96,-3.37 2.37,-3.13 2.71,-2.80 3.05,-2.47 3.31,-2.07 3.56,-1.67 3.71,-1.22 3.86,-0.77 3.89,-0.29 3.93,0.17 3.85,0.64 3.77,1.11 3.59,1.54 3.40,1.98 3.11,2.36 2.82,2.73 2.46,3.03 2.09,3.33 1.66,3.53 1.23,3.73 0.76,3.83 0.30,3.92 0.30,3.92 L 0.30,3.92 Z"></path></g><g transform="translate(422.66668701171875 141.3333282470703) rotate(0 0.00005000000000165983 0.00005000000000165983)" stroke="none"><path fill="#1e1e1e" d="M 4.25,-4.24 Q 4.25,-4.24 4.81,-3.46 5.38,-2.67 5.67,-1.74 5.95,-0.81 5.92,0.16 5.90,1.13 5.56,2.04 5.23,2.95 4.62,3.71 4.01,4.47 3.19,4.99 2.37,5.52 1.43,5.75 0.48,5.99 -0.48,5.91 -1.45,5.83 -2.34,5.44 -3.23,5.06 -3.96,4.41 -4.68,3.76 -5.16,2.91 -5.64,2.07 -5.82,1.11 -6.00,0.16 -5.87,-0.80 -5.74,-1.76 -5.31,-2.63 -4.88,-3.50 -4.19,-4.19 -3.50,-4.88 -2.63,-5.31 -1.76,-5.74 -0.79,-5.87 0.16,-6.00 1.11,-5.82 2.07,-5.64 2.92,-5.16 3.76,-4.68 4.41,-3.95 5.06,-3.23 5.44,-2.34 5.83,-1.44 5.91,-0.47 5.99,0.48 5.75,1.43 5.52,2.37 4.99,3.19 4.47,4.01 3.71,4.62 2.95,5.23 2.04,5.56 1.13,5.90 0.15,5.92 -0.81,5.95 -1.74,5.66 -2.67,5.38 -3.46,4.81 -4.25,4.24 -4.25,4.24 -4.24,4.25 -4.69,3.67 -5.14,3.10 -5.44,2.44 -5.73,1.78 -5.86,1.07 -5.99,0.36 -5.95,-0.36 -5.91,-1.08 -5.69,-1.77 -5.48,-2.46 -5.10,-3.08 -4.73,-3.70 -4.21,-4.21 -3.70,-4.73 -3.08,-5.10 -2.46,-5.48 -1.77,-5.69 -1.08,-5.91 -0.35,-5.95 0.36,-5.99 1.07,-5.86 1.78,-5.73 2.44,-5.44 3.10,-5.14 3.68,-4.69 4.25,-4.24 4.25,-4.24 L 4.25,-4.24 Z"></path></g><g transform="translate(469.3333740234375 124.66667175292969) rotate(0 -12.66668701171875 14.333343505859375)" stroke="none"><path fill="#1e1e1e" d="M -0.54,3.82 Q -0.54,3.82 -3.21,3.83 -5.88,3.83 -8.08,4.60 -10.27,5.37 -12.42,6.48 -14.56,7.60 -16.74,11.57 -18.92,15.55 -19.32,17.98 -19.72,20.41 -18.98,22.60 -18.24,24.80 -14.99,25.04 -11.74,25.29 -7.94,25.04 -4.14,24.79 -3.73,24.66 -3.33,24.54 -2.90,24.56 -2.48,24.57 -2.08,24.72 -1.68,24.87 -1.35,25.14 -1.02,25.40 -0.80,25.76 -0.57,26.12 -0.47,26.54 -0.37,26.95 -0.40,27.37 -0.44,27.80 -0.61,28.18 -0.78,28.57 -1.07,28.89 -1.35,29.20 -1.72,29.41 -2.10,29.62 -2.51,29.70 -2.93,29.77 -3.35,29.71 -3.77,29.65 -4.15,29.46 -4.53,29.27 -4.83,28.97 -5.13,28.67 -5.32,28.29 -5.50,27.90 -5.56,27.48 -5.61,27.06 -5.53,26.64 -5.45,26.23 -5.24,25.86 -5.02,25.49 -4.71,25.21 -4.39,24.93 -4.00,24.76 -3.61,24.59 -3.18,24.56 -2.76,24.53 -2.35,24.64 -1.94,24.74 -1.58,24.97 -1.22,25.20 -0.96,25.53 -0.69,25.87 -0.55,26.27 -0.40,26.67 -0.40,27.09 -0.39,27.52 -0.51,27.92 -0.64,28.33 -0.89,28.67 -1.14,29.01 -1.49,29.26 -1.83,29.51 -1.83,29.51 -1.83,29.51 -4.15,31.93 -6.46,34.35 -9.57,34.81 -12.69,35.26 -15.79,34.79 -18.89,34.31 -22.33,32.38 -25.76,30.45 -27.17,27.81 -28.57,25.18 -28.89,21.95 -29.20,18.72 -28.43,15.16 -27.66,11.59 -25.89,8.01 -24.12,4.42 -21.53,1.82 -18.95,-0.77 -15.82,-2.24 -12.68,-3.72 -8.76,-4.54 -4.85,-5.36 -2.15,-4.59 0.54,-3.82 0.99,-3.70 1.44,-3.58 1.85,-3.36 2.26,-3.13 2.60,-2.81 2.94,-2.50 3.20,-2.11 3.46,-1.72 3.61,-1.28 3.77,-0.84 3.82,-0.38 3.86,0.08 3.80,0.54 3.73,1.00 3.56,1.43 3.38,1.86 3.11,2.24 2.84,2.62 2.48,2.92 2.12,3.22 1.71,3.43 1.29,3.64 0.83,3.74 0.38,3.84 -0.08,3.83 -0.54,3.82 -0.54,3.82 L -0.54,3.82 Z"></path></g><g transform="translate(496.666748046875 142.6666717529297) rotate(0 1.33331298828125 -0.3333282470703125)" stroke="none"><path fill="#1e1e1e" d="M -1.16,-4.67 Q -1.16,-4.67 -0.13,-3.80 0.89,-2.93 1.31,-2.96 1.74,-3.00 2.15,-2.89 2.56,-2.79 2.92,-2.56 3.28,-2.34 3.55,-2.00 3.81,-1.67 3.96,-1.28 4.11,-0.88 4.12,-0.45 4.13,-0.03 4.01,0.37 3.88,0.78 3.64,1.12 3.39,1.47 3.04,1.72 2.70,1.96 2.29,2.09 1.89,2.21 1.46,2.20 1.04,2.19 0.64,2.05 0.24,1.90 -0.08,1.63 -0.41,1.37 -0.64,1.01 -0.87,0.65 -0.98,0.24 -1.08,-0.16 -1.05,-0.59 -1.01,-1.01 -0.84,-1.40 -0.68,-1.79 -0.39,-2.11 -0.11,-2.42 0.25,-2.63 0.62,-2.84 1.04,-2.92 1.45,-3.00 1.88,-2.95 2.30,-2.89 2.68,-2.70 3.06,-2.51 3.36,-2.21 3.66,-1.91 3.85,-1.53 4.04,-1.15 4.10,-0.73 4.15,-0.31 4.07,0.10 3.99,0.52 3.79,0.89 3.58,1.26 3.26,1.54 2.95,1.82 2.55,1.99 2.16,2.16 2.16,2.16 2.17,2.16 1.66,3.41 1.16,4.67 0.59,4.74 0.01,4.81 -0.56,4.74 -1.13,4.67 -1.68,4.47 -2.22,4.27 -2.70,3.94 -3.18,3.61 -3.56,3.18 -3.95,2.74 -4.22,2.23 -4.49,1.72 -4.63,1.15 -4.77,0.59 -4.78,0.01 -4.78,-0.56 -4.64,-1.12 -4.50,-1.69 -4.23,-2.20 -3.97,-2.72 -3.58,-3.15 -3.20,-3.59 -2.72,-3.92 -2.25,-4.25 -1.70,-4.46 -1.16,-4.67 -1.16,-4.67 L -1.16,-4.67 Z"></path></g><g transform="translate(537.3333740234375 130.00001525878906) rotate(0 -6.33331298828125 14)" stroke="none"><path fill="#1e1e1e" d="M 2.75,2.90 Q 2.75,2.90 -0.55,6.70 -3.86,10.50 -6.38,13.40 -8.89,16.30 -9.99,18.64 -11.09,20.99 -7.83,21.49 -4.58,21.98 -0.84,22.54 2.88,23.10 3.31,23.09 3.73,23.09 4.14,23.22 4.54,23.35 4.88,23.60 5.23,23.85 5.47,24.20 5.71,24.54 5.83,24.95 5.95,25.36 5.94,25.78 5.92,26.21 5.77,26.61 5.62,27.00 5.35,27.33 5.08,27.66 4.72,27.89 4.36,28.11 3.95,28.21 3.53,28.31 3.11,28.27 2.69,28.23 2.30,28.06 1.91,27.88 1.60,27.60 1.28,27.31 1.08,26.94 0.87,26.56 0.80,26.15 0.72,25.73 0.78,25.31 0.85,24.89 1.04,24.51 1.23,24.13 1.54,23.83 1.84,23.54 2.22,23.35 2.60,23.17 3.03,23.11 3.45,23.06 3.86,23.15 4.28,23.23 4.65,23.44 5.02,23.66 5.30,23.98 5.58,24.30 5.74,24.69 5.90,25.08 5.93,25.50 5.96,25.93 5.86,26.34 5.75,26.75 5.52,27.11 5.28,27.46 4.95,27.72 4.61,27.99 4.21,28.13 3.81,28.27 3.81,28.27 3.81,28.27 -1.43,30.45 -6.68,32.63 -9.26,32.00 -11.83,31.36 -15.31,29.27 -18.79,27.19 -20.12,23.95 -21.45,20.71 -20.66,17.22 -19.88,13.72 -18.17,11.61 -16.46,9.49 -13.58,6.39 -10.69,3.29 -6.72,0.19 -2.75,-2.90 -2.36,-3.19 -1.97,-3.47 -1.53,-3.66 -1.08,-3.84 -0.60,-3.92 -0.13,-3.99 0.34,-3.95 0.82,-3.91 1.28,-3.75 1.73,-3.60 2.14,-3.34 2.55,-3.08 2.88,-2.73 3.21,-2.38 3.45,-1.96 3.69,-1.54 3.82,-1.07 3.95,-0.61 3.96,-0.13 3.98,0.34 3.88,0.82 3.78,1.29 3.57,1.72 3.36,2.16 3.05,2.53 2.75,2.90 2.75,2.90 L 2.75,2.90 Z"></path></g><g transform="translate(572.666748046875 149.3333282470703) rotate(0 0.00004999999998744897 0.00005000000000165983)" stroke="none"><path fill="#1e1e1e" d="M 4.25,-4.24 Q 4.25,-4.24 4.81,-3.46 5.38,-2.67 5.67,-1.74 5.95,-0.81 5.92,0.16 5.90,1.13 5.56,2.04 5.23,2.95 4.62,3.71 4.01,4.47 3.19,4.99 2.37,5.52 1.43,5.75 0.48,5.99 -0.48,5.91 -1.45,5.83 -2.34,5.44 -3.23,5.06 -3.96,4.41 -4.68,3.76 -5.16,2.91 -5.64,2.07 -5.82,1.11 -6.00,0.16 -5.87,-0.80 -5.74,-1.76 -5.31,-2.63 -4.88,-3.50 -4.19,-4.19 -3.50,-4.88 -2.63,-5.31 -1.76,-5.74 -0.79,-5.87 0.16,-6.00 1.11,-5.82 2.07,-5.64 2.92,-5.16 3.76,-4.68 4.41,-3.95 5.06,-3.23 5.44,-2.34 5.83,-1.44 5.91,-0.47 5.99,0.48 5.75,1.43 5.52,2.37 4.99,3.19 4.47,4.01 3.71,4.62 2.95,5.23 2.04,5.56 1.13,5.90 0.15,5.92 -0.81,5.95 -1.74,5.66 -2.67,5.38 -3.46,4.81 -4.25,4.24 -4.25,4.24 -4.24,4.25 -4.69,3.67 -5.14,3.10 -5.44,2.44 -5.73,1.78 -5.86,1.07 -5.99,0.36 -5.95,-0.36 -5.91,-1.08 -5.69,-1.77 -5.48,-2.46 -5.10,-3.08 -4.73,-3.70 -4.21,-4.21 -3.70,-4.73 -3.08,-5.10 -2.46,-5.48 -1.77,-5.69 -1.08,-5.91 -0.35,-5.95 0.36,-5.99 1.07,-5.86 1.78,-5.73 2.44,-5.44 3.10,-5.14 3.68,-4.69 4.25,-4.24 4.25,-4.24 L 4.25,-4.24 Z"></path></g><g transform="translate(606.666748046875 130.00001525878906) rotate(0 2.33331298828125 15)" stroke="none"><path fill="#1e1e1e" d="M 3.53,2.44 Q 3.53,2.44 0.55,7.58 -2.43,12.72 -2.67,17.06 -2.92,21.40 -0.14,21.89 2.62,22.39 5.38,21.87 8.13,21.36 11.47,22.18 14.81,23.01 15.23,23.00 15.66,22.99 16.06,23.11 16.47,23.24 16.81,23.48 17.16,23.73 17.41,24.08 17.65,24.42 17.78,24.83 17.90,25.24 17.89,25.66 17.88,26.09 17.73,26.49 17.58,26.88 17.32,27.21 17.05,27.55 16.69,27.77 16.33,28.00 15.92,28.10 15.51,28.21 15.08,28.17 14.66,28.14 14.27,27.97 13.88,27.80 13.56,27.51 13.25,27.23 13.04,26.86 12.83,26.49 12.75,26.07 12.67,25.65 12.73,25.23 12.79,24.81 12.98,24.43 13.17,24.05 13.47,23.75 13.77,23.45 14.15,23.26 14.53,23.08 14.95,23.02 15.37,22.96 15.79,23.04 16.21,23.12 16.58,23.33 16.95,23.54 17.23,23.86 17.51,24.18 17.68,24.57 17.85,24.96 17.88,25.38 17.92,25.81 17.81,26.22 17.71,26.63 17.48,26.99 17.25,27.35 16.92,27.61 16.59,27.88 16.19,28.02 15.79,28.17 15.79,28.17 15.79,28.17 12.95,30.17 10.10,32.17 7.16,32.69 4.21,33.22 1.43,33.55 -1.33,33.89 -4.59,33.26 -7.85,32.62 -10.33,29.96 -12.82,27.29 -13.25,23.66 -13.67,20.03 -12.52,13.61 -11.36,7.20 -7.45,2.37 -3.53,-2.44 -3.19,-2.83 -2.84,-3.22 -2.42,-3.51 -1.99,-3.81 -1.50,-3.99 -1.02,-4.17 -0.50,-4.23 0.00,-4.30 0.52,-4.23 1.03,-4.17 1.51,-3.98 2.00,-3.80 2.43,-3.50 2.85,-3.21 3.19,-2.82 3.54,-2.43 3.78,-1.97 4.02,-1.51 4.14,-1.01 4.26,-0.51 4.26,0.00 4.26,0.52 4.14,1.02 4.01,1.53 3.77,1.98 3.53,2.44 3.53,2.44 L 3.53,2.44 Z"></path></g><g transform="translate(386.66668701171875 187.3333282470703) rotate(0 0.666656494140625 3.333343505859375)" stroke="none"><path fill="#1e1e1e" d="M 4.83,-0.53 Q 4.83,-0.53 4.25,2.40 3.68,5.34 3.73,5.76 3.78,6.18 3.70,6.60 3.61,7.01 3.40,7.38 3.19,7.75 2.87,8.03 2.55,8.31 2.16,8.47 1.76,8.64 1.34,8.67 0.92,8.70 0.50,8.59 0.09,8.48 -0.25,8.25 -0.61,8.02 -0.87,7.68 -1.13,7.35 -1.28,6.95 -1.42,6.55 -1.42,6.12 -1.43,5.70 -1.30,5.29 -1.17,4.89 -0.92,4.55 -0.67,4.20 -0.32,3.96 0.02,3.71 0.42,3.59 0.83,3.47 1.26,3.49 1.68,3.51 2.08,3.66 2.47,3.81 2.80,4.08 3.13,4.35 3.36,4.71 3.58,5.07 3.68,5.48 3.78,5.90 3.74,6.32 3.70,6.74 3.53,7.13 3.35,7.52 3.07,7.83 2.78,8.15 2.41,8.35 2.04,8.56 1.62,8.63 1.20,8.71 0.78,8.64 0.36,8.58 -0.01,8.39 -0.39,8.20 -0.69,7.89 -0.98,7.59 -1.17,7.21 -1.35,6.82 -1.35,6.82 -1.35,6.82 -3.09,3.68 -4.83,0.53 -4.82,-0.04 -4.81,-0.63 -4.67,-1.20 -4.52,-1.76 -4.24,-2.28 -3.97,-2.80 -3.57,-3.23 -3.18,-3.67 -2.70,-3.99 -2.21,-4.32 -1.66,-4.52 -1.11,-4.73 -0.53,-4.79 0.04,-4.85 0.63,-4.78 1.21,-4.70 1.75,-4.49 2.30,-4.28 2.78,-3.94 3.26,-3.60 3.64,-3.16 4.02,-2.71 4.29,-2.19 4.56,-1.67 4.69,-1.10 4.83,-0.53 4.83,-0.53 L 4.83,-0.53 Z"></path></g><g transform="translate(392.66668701171875 214.6666717529297) rotate(0 4.666656494140625 15.333328247070312)" stroke="none"><path fill="#1e1e1e" d="M 4.04,3.03 Q 4.04,3.03 0.98,7.86 -2.08,12.68 -2.89,15.75 -3.71,18.82 -0.63,20.92 2.44,23.02 4.83,23.19 7.22,23.36 9.37,22.96 11.51,22.56 15.24,23.25 18.98,23.94 19.40,23.89 19.82,23.84 20.24,23.93 20.65,24.01 21.02,24.23 21.39,24.44 21.66,24.76 21.94,25.09 22.10,25.48 22.27,25.87 22.29,26.30 22.32,26.72 22.21,27.13 22.10,27.54 21.87,27.90 21.63,28.25 21.30,28.51 20.96,28.77 20.56,28.91 20.16,29.05 19.74,29.06 19.31,29.06 18.91,28.93 18.50,28.80 18.16,28.54 17.82,28.29 17.58,27.94 17.34,27.59 17.22,27.18 17.10,26.78 17.12,26.35 17.14,25.93 17.29,25.53 17.44,25.13 17.71,24.81 17.99,24.48 18.35,24.26 18.71,24.03 19.12,23.94 19.54,23.84 19.96,23.88 20.38,23.93 20.77,24.10 21.16,24.27 21.47,24.56 21.78,24.85 21.98,25.23 22.19,25.60 22.26,26.02 22.33,26.44 22.27,26.86 22.21,27.28 22.01,27.65 21.82,28.03 21.51,28.33 21.20,28.62 20.82,28.80 20.44,28.99 20.44,28.99 20.44,28.99 16.82,31.80 13.20,34.62 9.51,35.03 5.83,35.43 1.73,34.80 -2.36,34.16 -6.53,31.99 -10.69,29.81 -13.18,25.73 -15.66,21.64 -15.42,18.35 -15.18,15.06 -13.45,10.38 -11.71,5.71 -7.88,1.33 -4.04,-3.03 -3.62,-3.47 -3.20,-3.91 -2.68,-4.24 -2.17,-4.56 -1.59,-4.76 -1.01,-4.95 -0.40,-5.00 0.19,-5.05 0.80,-4.95 1.40,-4.85 1.96,-4.62 2.52,-4.38 3.01,-4.01 3.50,-3.65 3.88,-3.17 4.27,-2.70 4.53,-2.15 4.79,-1.60 4.91,-1.00 5.04,-0.41 5.01,0.19 4.99,0.80 4.82,1.39 4.65,1.97 4.34,2.50 4.04,3.03 4.04,3.03 L 4.04,3.03 Z"></path></g><g stroke-opacity="0.4" fill-opacity="0.4" transform="translate(613.3333740234375 116.00001525878906) rotate(0 -255.66668701171875 -17.00000762939453)" stroke="none"><path d="M0.08 1.33 C-3.81 -0.18, -15.6 -4.94, -22.14 -6.75 C-28.68 -8.55, -31.46 -8.76, -39.18 -9.5 C-46.9 -10.23, -36.2 -10.7, -68.45 -11.14 C-100.69 -11.57, -198.74 -11.94, -232.65 -12.11 C-266.56 -12.28, -258.92 -12.57, -271.91 -12.18 C-284.9 -11.79, -284.17 -9.25, -310.58 -9.79 C-336.99 -10.32, -407.31 -15.04, -430.38 -15.39 C-453.45 -15.74, -444.17 -12.42, -448.99 -11.91 C-453.8 -11.39, -457.76 -10.5, -459.27 -12.29 C-460.78 -14.07, -460.83 -20.35, -458.04 -22.63 C-455.26 -24.91, -450.05 -24.42, -442.57 -25.94 C-435.09 -27.47, -421.16 -30.37, -413.19 -31.76 C-405.21 -33.16, -407.11 -34, -394.7 -34.32 C-382.29 -34.64, -354.58 -34.92, -338.71 -33.69 C-322.85 -32.45, -316.53 -26.89, -299.52 -26.91 C-282.51 -26.92, -251.48 -31.93, -236.64 -33.76 C-221.8 -35.6, -215.22 -35.98, -210.49 -37.89 C-205.76 -39.81, -208.82 -42.96, -208.26 -45.25 C-207.7 -47.55, -206.48 -48.84, -207.13 -51.66 C-207.77 -54.48, -210.09 -58.43, -212.14 -62.17 C-214.2 -65.92, -216.3 -70.11, -219.45 -74.16 C-222.6 -78.2, -227.54 -83.51, -231.04 -86.44 C-234.54 -89.38, -237.85 -89.86, -240.43 -91.76 C-243.02 -93.66, -240.31 -95.64, -246.53 -97.86 C-252.76 -100.08, -268.28 -103.7, -277.77 -105.07 C-287.27 -106.44, -291.14 -106.05, -303.5 -106.1 C-315.85 -106.15, -328.39 -105.51, -351.89 -105.36 C-375.39 -105.2, -423.06 -105.35, -444.51 -105.18 C-465.96 -105.01, -471.19 -105.91, -480.6 -104.32 C-490.02 -102.74, -493.13 -99, -500.99 -95.67 C-508.86 -92.34, -520.14 -89.42, -527.77 -84.33 C-535.4 -79.24, -543.15 -69.56, -546.78 -65.13 C-550.41 -60.7, -549.01 -66.3, -549.56 -57.76 C-550.12 -49.22, -551.35 -27.5, -550.09 -13.89 C-548.82 -0.27, -544.4 15.57, -541.97 23.93 C-539.54 32.29, -538.21 32.9, -535.5 36.27 C-532.79 39.64, -528.35 41.87, -525.7 44.14 C-523.05 46.42, -522.09 49.36, -519.58 49.91 C-517.07 50.45, -516.48 47.64, -510.65 47.42 C-504.82 47.2, -495.99 47.1, -484.61 48.58 C-473.22 50.06, -458.99 54.67, -442.31 56.31 C-425.64 57.95, -397.92 57.32, -384.57 58.42 C-371.23 59.52, -377.51 61.69, -362.25 62.9 C-346.99 64.11, -310.73 64.24, -293 65.67 C-275.27 67.1, -269.44 71.19, -255.86 71.51 C-242.29 71.82, -236.81 68.02, -211.57 67.55 C-186.32 67.08, -129.49 67.85, -104.39 68.68 C-79.3 69.51, -76.24 72.39, -60.99 72.55 C-45.74 72.71, -23.99 70.63, -12.89 69.64 C-1.79 68.64, -0.59 68.93, 5.59 66.56 C11.76 64.18, 19.95 59.46, 24.16 55.38 C28.38 51.3, 28.64 46.41, 30.87 42.07 C33.11 37.74, 36.35 32.25, 37.58 29.36 C38.81 26.48, 38.04 25.83, 38.28 24.78 C38.52 23.72, 39.47 23.71, 39.01 23.03 C38.54 22.35, 36.45 21.06, 35.51 20.71 C34.57 20.36, 35.85 22.54, 33.36 20.94 C30.86 19.34, 24.2 12.94, 20.52 11.13 C16.84 9.33, 14.2 10.99, 11.26 10.11 C8.33 9.24, 3.78 6.92, 2.9 5.87" stroke="none" stroke-width="0" fill="#ffec99" fill-rule="evenodd"></path><path fill="#f08c00" d="M -1.51,4.53 Q -1.51,4.53 -5.60,3.41 -9.70,2.29 -13.46,1.23 -17.22,0.17 -23.83,-1.12 -30.43,-2.42 -36.92,-3.14 -43.40,-3.85 -50.79,-4.54 -58.19,-5.23 -65.99,-5.51 -73.78,-5.78 -83.61,-5.89 -93.44,-6.01 -104.33,-6.04 -115.22,-6.08 -126.56,-6.09 -137.90,-6.10 -149.28,-6.29 -160.67,-6.48 -170.88,-6.74 -181.10,-7.00 -190.56,-7.10 -200.02,-7.19 -209.02,-7.22 -218.02,-7.24 -226.96,-7.05 -235.90,-6.87 -246.36,-6.39 -256.82,-5.91 -266.35,-5.71 -275.88,-5.50 -285.69,-5.40 -295.50,-5.30 -304.14,-5.44 -312.79,-5.58 -321.82,-5.83 -330.86,-6.08 -339.62,-6.17 -348.38,-6.26 -355.83,-6.49 -363.28,-6.73 -369.43,-6.81 -375.59,-6.90 -385.41,-7.31 -395.22,-7.71 -401.23,-7.89 -407.24,-8.06 -410.37,-8.13 -413.50,-8.21 -418.17,-8.42 -422.85,-8.63 -425.16,-8.72 -427.47,-8.81 -430.10,-8.84 -432.74,-8.87 -435.38,-8.70 -438.02,-8.52 -440.68,-8.43 -443.35,-8.35 -447.66,-8.21 -451.97,-8.07 -454.57,-7.85 -457.17,-7.62 -459.52,-8.01 -461.88,-8.40 -464.15,-11.74 -466.42,-15.08 -464.57,-19.32 -462.73,-23.56 -460.48,-25.24 -458.24,-26.92 -456.02,-28.30 -453.80,-29.68 -451.04,-30.98 -448.28,-32.28 -444.93,-33.16 -441.59,-34.03 -438.24,-34.56 -434.88,-35.08 -431.99,-35.48 -429.09,-35.88 -425.00,-36.43 -420.90,-36.98 -416.57,-37.42 -412.23,-37.86 -407.09,-38.24 -401.95,-38.62 -393.60,-38.59 -385.26,-38.56 -381.25,-38.54 -377.24,-38.53 -372.86,-38.52 -368.47,-38.51 -363.16,-38.51 -357.85,-38.50 -352.72,-38.50 -347.58,-38.49 -340.43,-38.10 -333.28,-37.71 -326.95,-37.15 -320.63,-36.60 -314.96,-36.18 -309.29,-35.76 -304.04,-35.78 -298.80,-35.80 -291.64,-36.18 -284.49,-36.57 -278.63,-37.11 -272.77,-37.64 -266.71,-38.08 -260.65,-38.51 -254.22,-39.26 -247.79,-40.00 -243.89,-40.51 -240.00,-41.02 -235.37,-41.80 -230.75,-42.58 -227.09,-43.30 -223.43,-44.01 -220.64,-44.66 -217.86,-45.32 -215.93,-46.35 -214.00,-47.37 -213.87,-49.91 -213.74,-52.45 -216.02,-56.61 -218.30,-60.78 -220.41,-63.89 -222.52,-67.00 -224.71,-69.40 -226.91,-71.80 -229.68,-74.90 -232.45,-77.99 -235.53,-80.83 -238.61,-83.66 -242.27,-85.99 -245.93,-88.31 -249.60,-90.00 -253.26,-91.70 -257.87,-93.13 -262.47,-94.55 -266.95,-95.76 -271.43,-96.97 -276.73,-97.76 -282.04,-98.55 -287.95,-98.87 -293.87,-99.19 -299.56,-99.11 -305.25,-99.04 -310.72,-98.81 -316.19,-98.58 -324.78,-98.44 -333.36,-98.31 -338.40,-98.07 -343.43,-97.84 -351.36,-97.91 -359.29,-97.98 -363.53,-98.02 -367.77,-98.06 -372.63,-98.07 -377.48,-98.08 -383.57,-98.09 -389.66,-98.09 -395.70,-98.09 -401.74,-98.09 -407.10,-98.29 -412.47,-98.49 -417.64,-98.76 -422.80,-99.04 -428.69,-99.15 -434.58,-99.26 -443.98,-98.74 -453.38,-98.22 -457.88,-98.00 -462.38,-97.77 -466.79,-97.31 -471.20,-96.84 -475.13,-96.27 -479.06,-95.70 -481.68,-95.27 -484.30,-94.84 -488.85,-93.74 -493.39,-92.64 -497.45,-91.28 -501.51,-89.91 -507.72,-86.79 -513.93,-83.66 -517.54,-81.58 -521.14,-79.51 -523.27,-78.24 -525.39,-76.97 -527.08,-75.54 -528.76,-74.11 -530.47,-72.54 -532.18,-70.97 -535.34,-67.82 -538.51,-64.67 -540.33,-62.32 -542.16,-59.98 -542.63,-57.38 -543.10,-54.78 -543.01,-52.11 -542.92,-49.43 -542.89,-45.76 -542.87,-42.08 -542.87,-38.61 -542.86,-35.13 -542.68,-31.32 -542.51,-27.51 -542.25,-24.20 -541.99,-20.89 -541.53,-18.18 -541.07,-15.46 -540.47,-10.83 -539.87,-6.19 -539.09,-2.38 -538.31,1.42 -537.76,4.56 -537.22,7.70 -536.64,10.18 -536.07,12.66 -535.43,15.52 -534.79,18.39 -533.85,21.22 -532.90,24.05 -532.01,26.05 -531.11,28.05 -529.59,30.31 -528.07,32.57 -526.38,34.60 -524.68,36.62 -522.45,38.21 -520.22,39.80 -517.88,40.90 -515.53,42.01 -511.65,42.65 -507.78,43.29 -505.52,43.43 -503.27,43.56 -500.80,43.62 -498.33,43.68 -494.44,43.91 -490.56,44.13 -488.24,44.22 -485.93,44.31 -483.56,44.56 -481.19,44.80 -475.17,45.68 -469.15,46.57 -466.32,46.92 -463.48,47.28 -460.39,47.63 -457.29,47.97 -452.04,48.70 -446.78,49.44 -444.26,49.74 -441.74,50.03 -438.77,50.35 -435.79,50.67 -432.97,50.79 -430.15,50.92 -425.82,51.37 -421.48,51.83 -413.12,52.39 -404.77,52.95 -399.40,53.39 -394.03,53.82 -391.06,54.00 -388.10,54.18 -380.83,54.26 -373.57,54.33 -370.03,54.36 -366.50,54.40 -357.03,54.76 -347.57,55.13 -340.68,55.48 -333.79,55.82 -329.81,56.17 -325.82,56.51 -320.92,56.63 -316.01,56.74 -312.18,56.99 -308.36,57.25 -304.62,57.34 -300.87,57.43 -296.67,57.86 -292.47,58.30 -288.21,58.87 -283.96,59.43 -279.14,60.04 -274.32,60.65 -269.20,61.29 -264.09,61.93 -259.63,62.18 -255.18,62.42 -248.05,62.33 -240.93,62.24 -237.19,62.02 -233.45,61.80 -226.58,61.51 -219.70,61.22 -214.05,61.09 -208.39,60.96 -202.34,60.91 -196.28,60.85 -193.14,60.83 -190.00,60.80 -184.82,60.79 -179.64,60.77 -172.74,60.58 -165.84,60.38 -161.50,60.29 -157.16,60.21 -152.80,60.17 -148.44,60.13 -141.32,60.31 -134.20,60.48 -131.23,60.37 -128.26,60.25 -123.43,60.39 -118.60,60.53 -114.15,60.40 -109.71,60.27 -106.17,60.40 -102.62,60.54 -99.38,60.60 -96.13,60.65 -91.23,61.07 -86.33,61.49 -83.59,61.88 -80.85,62.26 -77.25,62.81 -73.64,63.35 -69.24,63.75 -64.84,64.15 -56.53,64.51 -48.22,64.88 -43.84,64.84 -39.45,64.81 -37.32,64.79 -35.19,64.78 -29.88,64.77 -24.58,64.76 -21.73,64.76 -18.88,64.76 -14.18,64.31 -9.49,63.86 -6.80,63.56 -4.11,63.26 -1.83,63.11 0.45,62.97 3.36,61.40 6.26,59.83 8.21,58.50 10.15,57.16 12.27,55.61 14.39,54.06 16.47,52.71 18.56,51.36 19.30,49.10 20.04,46.83 21.20,44.04 22.36,41.25 23.71,38.20 25.05,35.16 26.86,32.27 28.67,29.38 29.99,26.67 31.30,23.96 28.86,22.81 26.42,21.65 24.56,20.15 22.70,18.64 20.89,17.00 19.08,15.36 16.34,14.87 13.60,14.37 11.02,13.59 8.43,12.82 6.35,11.47 4.27,10.12 3.76,8.19 3.24,6.26 3.06,5.88 2.88,5.49 2.84,5.07 2.79,4.65 2.88,4.23 2.97,3.82 3.19,3.45 3.41,3.09 3.73,2.81 4.06,2.54 4.45,2.38 4.85,2.22 5.27,2.20 5.69,2.17 6.10,2.29 6.51,2.40 6.87,2.64 7.22,2.88 7.47,3.22 7.73,3.55 7.87,3.96 8.00,4.36 8.01,4.78 8.01,5.21 7.87,5.61 7.74,6.01 7.48,6.35 7.22,6.69 6.87,6.93 6.52,7.17 6.11,7.28 5.70,7.40 5.28,7.37 4.85,7.35 4.46,7.20 4.06,7.04 3.74,6.76 3.41,6.49 3.19,6.12 2.97,5.76 2.88,5.35 2.79,4.93 2.84,4.51 2.88,4.09 3.06,3.70 3.24,3.31 3.53,3.01 3.82,2.70 4.20,2.50 4.57,2.30 4.99,2.23 5.41,2.16 5.83,2.23 6.25,2.30 6.63,2.50 7.00,2.69 7.29,3.00 7.59,3.31 7.59,3.31 7.59,3.31 10.60,2.56 13.61,1.80 16.28,2.33 18.94,2.86 21.37,3.44 23.80,4.02 26.30,5.37 28.80,6.71 30.68,8.08 32.55,9.46 34.63,11.31 36.70,13.17 38.49,14.32 40.29,15.47 42.20,18.17 44.11,20.88 43.78,25.22 43.46,29.57 41.67,33.10 39.89,36.64 38.47,38.74 37.05,40.84 35.91,43.25 34.78,45.67 33.40,48.95 32.02,52.24 31.09,54.30 30.16,56.36 28.67,58.76 27.17,61.15 24.41,63.08 21.65,65.01 19.61,66.50 17.58,67.99 15.75,69.25 13.91,70.51 11.70,72.04 9.49,73.56 7.23,74.52 4.97,75.48 1.16,75.90 -2.65,76.31 -5.44,76.62 -8.23,76.94 -11.09,77.21 -13.96,77.49 -16.41,77.69 -18.87,77.90 -21.72,77.90 -24.57,77.90 -29.83,77.91 -35.10,77.92 -37.22,77.94 -39.35,77.95 -44.07,77.98 -48.80,78.02 -57.42,77.64 -66.04,77.26 -70.82,76.82 -75.60,76.38 -79.15,75.85 -82.71,75.31 -85.09,74.97 -87.47,74.63 -91.92,74.23 -96.36,73.83 -99.76,73.77 -103.16,73.71 -106.25,73.58 -109.34,73.45 -114.17,73.58 -119.01,73.71 -123.39,73.56 -127.78,73.42 -131.15,73.53 -134.53,73.65 -141.43,73.47 -148.33,73.30 -152.62,73.33 -156.91,73.36 -161.19,73.44 -165.47,73.52 -172.54,73.71 -179.62,73.91 -184.76,73.91 -189.91,73.92 -193.04,73.94 -196.16,73.96 -202.14,74.01 -208.11,74.05 -213.63,74.17 -219.15,74.29 -225.93,74.57 -232.71,74.85 -236.75,75.07 -240.80,75.30 -248.37,75.36 -255.95,75.42 -260.83,75.11 -265.72,74.81 -270.85,74.15 -275.98,73.50 -280.83,72.86 -285.69,72.22 -289.77,71.65 -293.86,71.09 -297.54,70.67 -301.23,70.24 -305.23,70.12 -309.23,69.99 -312.81,69.74 -316.38,69.48 -321.66,69.31 -326.95,69.13 -330.70,68.78 -334.46,68.44 -341.28,68.06 -348.10,67.68 -357.36,67.26 -366.62,66.83 -370.16,66.80 -373.70,66.76 -381.27,66.68 -388.85,66.59 -391.95,66.41 -395.04,66.22 -400.32,65.78 -405.61,65.35 -414.20,64.77 -422.79,64.19 -426.76,63.76 -430.72,63.34 -433.92,63.18 -437.11,63.03 -440.16,62.71 -443.21,62.38 -445.86,62.07 -448.50,61.75 -453.58,61.04 -458.66,60.33 -461.86,59.97 -465.05,59.62 -468.00,59.24 -470.95,58.87 -478.69,57.80 -486.42,56.74 -488.85,56.64 -491.28,56.54 -494.96,56.33 -498.65,56.11 -501.35,56.04 -504.05,55.97 -506.76,55.79 -509.47,55.61 -512.43,55.19 -515.38,54.77 -517.50,54.26 -519.61,53.75 -522.93,52.22 -526.24,50.69 -528.63,49.24 -531.02,47.80 -532.64,46.19 -534.27,44.58 -536.38,42.01 -538.50,39.44 -540.53,36.31 -542.55,33.17 -543.69,30.60 -544.83,28.03 -545.97,24.61 -547.10,21.18 -547.75,18.36 -548.40,15.53 -549.06,12.73 -549.72,9.92 -550.25,6.95 -550.79,3.98 -551.67,-0.26 -552.54,-4.52 -553.14,-8.93 -553.73,-13.34 -554.27,-16.59 -554.81,-19.85 -555.11,-23.35 -555.40,-26.86 -555.62,-30.97 -555.84,-35.08 -555.86,-38.52 -555.89,-41.96 -555.93,-45.53 -555.98,-49.10 -556.05,-52.65 -556.12,-56.21 -554.83,-61.35 -553.54,-66.50 -551.99,-68.95 -550.44,-71.40 -547.48,-74.16 -544.52,-76.93 -542.78,-78.79 -541.04,-80.66 -539.06,-82.46 -537.09,-84.25 -534.62,-86.23 -532.15,-88.22 -529.91,-89.55 -527.68,-90.89 -523.73,-93.15 -519.78,-95.41 -512.73,-98.88 -505.68,-102.35 -501.07,-103.88 -496.46,-105.40 -491.44,-106.60 -486.43,-107.79 -483.68,-108.24 -480.93,-108.69 -476.75,-109.29 -472.56,-109.90 -467.80,-110.39 -463.03,-110.88 -458.56,-111.10 -454.10,-111.32 -444.21,-111.85 -434.33,-112.38 -428.21,-112.26 -422.10,-112.14 -417.04,-111.87 -411.99,-111.60 -406.86,-111.41 -401.73,-111.22 -395.69,-111.21 -389.64,-111.21 -383.54,-111.20 -377.44,-111.19 -372.54,-111.17 -367.65,-111.14 -363.39,-111.10 -359.13,-111.06 -351.57,-110.95 -344.01,-110.83 -338.75,-111.05 -333.49,-111.27 -325.07,-111.31 -316.66,-111.35 -310.98,-111.52 -305.30,-111.70 -299.20,-111.68 -293.09,-111.66 -286.58,-111.20 -280.06,-110.74 -274.17,-109.71 -268.28,-108.68 -263.55,-107.41 -258.82,-106.13 -253.47,-104.43 -248.13,-102.72 -243.73,-100.65 -239.33,-98.58 -234.83,-95.64 -230.32,-92.70 -226.82,-89.48 -223.32,-86.26 -220.54,-83.21 -217.75,-80.17 -214.99,-77.15 -212.23,-74.12 -209.88,-70.78 -207.54,-67.44 -205.68,-64.44 -203.81,-61.43 -202.45,-58.20 -201.10,-54.98 -200.63,-52.38 -200.16,-49.79 -200.28,-47.30 -200.39,-44.80 -201.60,-42.14 -202.81,-39.48 -205.56,-37.53 -208.30,-35.59 -211.55,-34.11 -214.80,-32.63 -217.88,-31.91 -220.96,-31.19 -224.78,-30.46 -228.60,-29.73 -233.46,-28.92 -238.32,-28.12 -242.31,-27.60 -246.30,-27.09 -253.02,-26.32 -259.73,-25.55 -265.66,-25.14 -271.58,-24.72 -277.69,-24.17 -283.80,-23.61 -291.29,-23.22 -298.77,-22.82 -304.51,-22.82 -310.25,-22.82 -316.01,-23.25 -321.76,-23.67 -327.88,-24.21 -333.99,-24.75 -340.79,-25.12 -347.59,-25.50 -352.72,-25.50 -357.86,-25.50 -363.17,-25.50 -368.49,-25.50 -372.89,-25.50 -377.28,-25.50 -381.30,-25.52 -385.31,-25.53 -393.15,-25.57 -400.99,-25.61 -405.96,-25.24 -410.92,-24.87 -415.04,-24.46 -419.16,-24.05 -423.23,-23.49 -427.30,-22.94 -430.10,-22.56 -432.90,-22.17 -435.71,-21.75 -438.52,-21.33 -440.68,-20.87 -442.83,-20.41 -444.89,-19.48 -446.95,-18.55 -448.85,-17.39 -450.74,-16.23 -453.12,-15.58 -455.50,-14.92 -455.51,-17.79 -455.52,-20.66 -451.92,-20.69 -448.32,-20.72 -446.02,-20.96 -443.72,-21.19 -441.26,-21.26 -438.79,-21.32 -435.67,-21.49 -432.55,-21.66 -429.75,-21.61 -426.95,-21.56 -424.59,-21.46 -422.22,-21.36 -417.71,-21.13 -413.19,-20.89 -410.02,-20.81 -406.86,-20.73 -400.76,-20.54 -394.67,-20.35 -385.03,-19.90 -375.39,-19.45 -369.13,-19.34 -362.87,-19.23 -355.55,-18.98 -348.23,-18.74 -339.37,-18.61 -330.51,-18.48 -321.53,-18.21 -312.56,-17.94 -304.08,-17.77 -295.60,-17.60 -285.87,-17.67 -276.13,-17.73 -266.74,-17.91 -257.35,-18.09 -246.74,-18.53 -236.12,-18.96 -227.04,-19.11 -217.96,-19.26 -208.91,-19.19 -199.87,-19.11 -190.32,-18.98 -180.78,-18.84 -170.62,-18.54 -160.46,-18.25 -149.17,-18.03 -137.87,-17.82 -126.52,-17.78 -115.16,-17.74 -104.22,-17.67 -93.28,-17.60 -83.31,-17.45 -73.34,-17.30 -65.21,-16.95 -57.08,-16.61 -49.57,-15.85 -42.05,-15.09 -35.09,-14.19 -28.13,-13.30 -21.13,-11.71 -14.14,-10.11 -10.26,-8.88 -6.39,-7.65 -2.44,-6.09 1.51,-4.53 2.03,-4.28 2.55,-4.03 2.99,-3.67 3.44,-3.31 3.78,-2.85 4.13,-2.39 4.36,-1.86 4.58,-1.33 4.67,-0.76 4.77,-0.19 4.72,0.37 4.68,0.95 4.49,1.49 4.31,2.04 4.00,2.53 3.70,3.01 3.28,3.41 2.87,3.81 2.37,4.10 1.87,4.39 1.32,4.55 0.76,4.71 0.19,4.73 -0.38,4.76 -0.94,4.64 -1.51,4.53 -1.51,4.53 L -1.51,4.53 Z"></path></g><g transform="translate(341.3333740234375 62.00001525878906) rotate(0 0.666656494140625 6.666656494140625)" stroke="none"><path fill="#1e1e1e" d="M 0.99,-0.14 Q 0.99,-0.14 1.30,1.17 1.62,2.50 1.87,3.14 2.11,3.79 2.31,5.22 2.50,6.64 2.24,9.66 1.97,12.67 1.96,12.78 1.94,12.88 1.89,12.98 1.85,13.07 1.77,13.15 1.69,13.22 1.60,13.27 1.50,13.32 1.40,13.33 1.29,13.34 1.19,13.32 1.08,13.30 0.99,13.25 0.90,13.20 0.83,13.12 0.76,13.04 0.72,12.94 0.68,12.84 0.67,12.73 0.66,12.63 0.69,12.53 0.71,12.42 0.77,12.33 0.83,12.24 0.91,12.18 1.00,12.11 1.10,12.08 1.20,12.04 1.30,12.04 1.41,12.04 1.51,12.07 1.61,12.10 1.70,12.16 1.78,12.22 1.84,12.31 1.91,12.40 1.94,12.50 1.97,12.60 1.96,12.71 1.96,12.81 1.92,12.91 1.88,13.01 1.82,13.10 1.75,13.18 1.66,13.23 1.57,13.29 1.47,13.32 1.36,13.34 1.26,13.33 1.15,13.32 1.06,13.28 0.96,13.24 0.88,13.17 0.80,13.09 0.75,13.00 0.70,12.91 0.68,12.80 0.66,12.70 0.66,12.70 0.66,12.70 0.24,9.79 -0.18,6.89 -0.22,5.75 -0.25,4.62 -0.55,3.74 -0.85,2.86 -0.92,1.50 -0.99,0.14 -0.99,0.02 -1.00,-0.10 -0.97,-0.21 -0.94,-0.33 -0.89,-0.44 -0.83,-0.55 -0.76,-0.64 -0.68,-0.73 -0.58,-0.80 -0.48,-0.88 -0.37,-0.92 -0.26,-0.97 -0.14,-0.98 -0.02,-1.00 0.09,-0.99 0.22,-0.98 0.33,-0.94 0.44,-0.89 0.54,-0.83 0.65,-0.76 0.73,-0.67 0.81,-0.58 0.87,-0.48 0.93,-0.37 0.96,-0.25 0.99,-0.14 0.99,-0.14 L 0.99,-0.14 Z"></path></g><g transform="translate(255.3333740234375 67.33332824707031) rotate(0 7.33331298828125 7.66668701171875)" stroke="none"><path fill="#1e1e1e" d="M -0.14,-1.04 Q -0.14,-1.04 2.52,-1.52 5.18,-2.00 7.13,-2.19 9.07,-2.37 10.08,-2.45 11.10,-2.53 12.09,-2.36 13.07,-2.20 14.03,-1.37 14.99,-0.54 14.95,0.53 14.90,1.61 14.03,3.67 13.16,5.73 12.01,7.76 10.86,9.79 10.00,11.22 9.13,12.64 8.59,13.58 8.06,14.51 9.84,15.22 11.62,15.93 11.72,15.97 11.82,16.00 11.90,16.07 11.99,16.13 12.05,16.22 12.10,16.31 12.13,16.41 12.16,16.51 12.16,16.62 12.15,16.72 12.11,16.82 12.07,16.92 12.00,17.00 11.93,17.08 11.84,17.14 11.75,17.19 11.65,17.21 11.54,17.24 11.44,17.23 11.33,17.21 11.24,17.17 11.14,17.12 11.06,17.05 10.98,16.98 10.94,16.88 10.89,16.79 10.87,16.68 10.85,16.58 10.87,16.48 10.89,16.37 10.94,16.28 10.99,16.18 11.06,16.11 11.14,16.04 11.24,15.99 11.33,15.95 11.44,15.94 11.54,15.93 11.65,15.95 11.75,15.97 11.84,16.03 11.93,16.08 12.00,16.16 12.07,16.24 12.11,16.34 12.15,16.44 12.16,16.55 12.16,16.65 12.13,16.76 12.10,16.86 12.04,16.95 11.98,17.03 11.90,17.10 11.81,17.16 11.71,17.20 11.61,17.23 11.51,17.23 11.40,17.23 11.40,17.23 11.40,17.23 9.03,17.00 6.65,16.78 6.13,16.19 5.60,15.60 5.59,14.42 5.58,13.24 6.16,12.21 6.74,11.18 7.59,9.79 8.44,8.40 9.53,6.51 10.62,4.62 11.57,2.51 12.53,0.39 11.89,0.23 11.26,0.06 10.27,0.12 9.29,0.18 7.41,0.33 5.54,0.47 2.84,0.75 0.14,1.04 0.02,1.04 -0.10,1.04 -0.22,1.02 -0.35,0.99 -0.46,0.93 -0.58,0.88 -0.67,0.79 -0.77,0.71 -0.84,0.61 -0.92,0.50 -0.97,0.39 -1.01,0.27 -1.03,0.14 -1.05,0.02 -1.04,-0.10 -1.02,-0.23 -0.98,-0.35 -0.94,-0.47 -0.87,-0.57 -0.80,-0.68 -0.71,-0.76 -0.61,-0.85 -0.50,-0.91 -0.39,-0.97 -0.27,-1.01 -0.14,-1.04 -0.14,-1.04 L -0.14,-1.04 Z"></path></g><g transform="translate(188.66668701171875 69.33332824707031) rotate(0 5.33331298828125 7.333343505859375)" stroke="none"><path fill="#1e1e1e" d="M -0.33,-1.01 Q -0.33,-1.01 0.78,-1.47 1.90,-1.94 2.63,-2.12 3.35,-2.30 4.52,-2.50 5.70,-2.70 6.37,-2.24 7.04,-1.78 7.40,-0.41 7.75,0.95 7.41,2.43 7.08,3.91 6.26,5.04 5.44,6.17 4.73,6.97 4.03,7.77 3.75,8.30 3.47,8.83 3.34,8.94 3.21,9.05 3.06,9.13 2.91,9.20 2.75,9.24 2.59,9.28 2.42,9.28 2.25,9.28 2.09,9.24 1.92,9.20 1.78,9.12 1.63,9.04 1.50,8.93 1.38,8.82 1.28,8.68 1.19,8.54 1.13,8.38 1.07,8.22 1.05,8.06 1.03,7.89 1.05,7.72 1.07,7.56 1.13,7.40 1.19,7.24 1.29,7.10 1.39,6.97 3.71,6.74 6.04,6.51 7.13,6.72 8.22,6.94 8.98,7.03 9.73,7.11 10.39,7.48 11.05,7.85 11.62,8.88 12.19,9.90 11.98,11.37 11.78,12.84 10.95,13.96 10.12,15.08 8.45,16.00 6.79,16.92 3.72,17.02 0.66,17.11 0.55,17.11 0.45,17.11 0.35,17.08 0.25,17.04 0.16,16.98 0.08,16.91 0.02,16.83 -0.03,16.74 -0.06,16.64 -0.09,16.53 -0.08,16.43 -0.08,16.32 -0.04,16.22 -0.00,16.12 0.06,16.04 0.13,15.96 0.22,15.91 0.31,15.85 0.42,15.83 0.52,15.81 0.63,15.82 0.73,15.83 0.83,15.88 0.93,15.92 1.00,16.00 1.08,16.07 1.13,16.16 1.18,16.26 1.20,16.36 1.21,16.47 1.19,16.57 1.18,16.68 1.13,16.77 1.08,16.86 1.00,16.94 0.92,17.01 0.83,17.05 0.73,17.10 0.62,17.11 0.52,17.12 0.41,17.10 0.31,17.07 0.22,17.02 0.13,16.96 0.06,16.88 -0.00,16.80 -0.04,16.70 -0.08,16.60 -0.08,16.50 -0.09,16.39 -0.06,16.29 -0.03,16.19 0.02,16.10 0.08,16.01 0.17,15.95 0.25,15.88 0.35,15.85 0.45,15.82 0.45,15.82 0.45,15.82 2.95,15.02 5.46,14.22 6.67,13.67 7.87,13.12 8.40,12.58 8.93,12.04 9.09,11.00 9.26,9.95 8.44,9.87 7.62,9.78 6.80,9.59 5.98,9.40 4.72,9.11 3.47,8.83 3.34,8.94 3.21,9.05 3.06,9.13 2.91,9.20 2.75,9.24 2.59,9.28 2.42,9.28 2.25,9.28 2.09,9.24 1.92,9.20 1.78,9.12 1.63,9.04 1.50,8.93 1.38,8.82 1.28,8.68 1.19,8.54 1.13,8.38 1.07,8.22 1.05,8.06 1.03,7.89 1.05,7.72 1.07,7.56 1.13,7.40 1.19,7.24 1.29,7.10 1.39,6.97 1.69,6.46 1.99,5.96 2.65,5.23 3.32,4.49 3.92,3.82 4.52,3.15 4.82,2.20 5.12,1.25 5.07,0.39 5.02,-0.46 4.49,-0.16 3.96,0.12 3.32,0.26 2.69,0.41 1.51,0.71 0.33,1.01 0.21,1.03 0.08,1.06 -0.04,1.05 -0.17,1.05 -0.29,1.01 -0.41,0.97 -0.52,0.91 -0.64,0.85 -0.73,0.76 -0.82,0.67 -0.89,0.56 -0.96,0.45 -1.00,0.33 -1.04,0.21 -1.05,0.08 -1.06,-0.04 -1.04,-0.17 -1.02,-0.29 -0.97,-0.41 -0.92,-0.53 -0.84,-0.63 -0.76,-0.73 -0.66,-0.81 -0.56,-0.90 -0.45,-0.95 -0.33,-1.01 -0.33,-1.01 L -0.33,-1.01 Z"></path></g><g transform="translate(132.66668701171875 75.33332824707031) rotate(0 -1.333343505859375 6.6666717529296875)" stroke="none"><path fill="#1e1e1e" d="M -0.89,0.22 Q -0.89,0.22 -1.14,-0.52 -1.39,-1.28 -1.40,-1.40 -1.42,-1.52 -1.40,-1.65 -1.39,-1.77 -1.35,-1.89 -1.30,-2.01 -1.23,-2.11 -1.16,-2.22 -1.07,-2.30 -0.97,-2.38 -0.86,-2.44 -0.75,-2.50 -0.63,-2.53 -0.51,-2.56 -0.38,-2.56 -0.26,-2.56 -0.13,-2.53 -0.01,-2.50 0.09,-2.45 0.20,-2.39 0.29,-2.30 0.39,-2.22 0.46,-2.12 0.53,-2.02 0.58,-1.90 0.62,-1.78 -0.38,-0.58 -1.39,0.61 -2.40,2.10 -3.41,3.59 -3.83,4.57 -4.26,5.54 -4.44,6.13 -4.61,6.71 -4.18,7.13 -3.75,7.55 -2.70,7.69 -1.65,7.84 -0.59,7.93 0.47,8.02 1.27,8.29 2.07,8.55 2.74,9.00 3.40,9.45 3.80,10.61 4.20,11.77 3.77,13.72 3.34,15.67 3.32,15.77 3.29,15.88 3.24,15.97 3.18,16.06 3.10,16.12 3.02,16.19 2.92,16.23 2.82,16.26 2.71,16.27 2.61,16.27 2.50,16.24 2.40,16.21 2.32,16.15 2.23,16.09 2.17,16.00 2.10,15.92 2.07,15.81 2.04,15.71 2.04,15.61 2.04,15.50 2.08,15.40 2.12,15.30 2.18,15.22 2.25,15.13 2.34,15.08 2.43,15.02 2.53,14.99 2.63,14.97 2.74,14.97 2.84,14.98 2.94,15.02 3.04,15.06 3.12,15.14 3.20,15.21 3.25,15.30 3.31,15.39 3.33,15.49 3.35,15.60 3.33,15.70 3.32,15.81 3.27,15.90 3.23,16.00 3.15,16.08 3.08,16.15 2.98,16.20 2.89,16.25 2.78,16.26 2.68,16.28 2.57,16.26 2.47,16.24 2.37,16.19 2.28,16.13 2.21,16.06 2.14,15.98 2.10,15.88 2.05,15.78 2.04,15.68 2.04,15.57 2.04,15.57 2.04,15.57 1.95,13.91 1.86,12.25 1.57,11.50 1.28,10.74 0.76,10.53 0.23,10.32 -0.92,10.21 -2.09,10.09 -3.58,9.74 -5.06,9.39 -5.92,8.54 -6.77,7.68 -6.77,6.86 -6.77,6.03 -6.55,5.33 -6.32,4.62 -5.78,3.46 -5.25,2.31 -4.00,0.58 -2.75,-1.15 -2.07,-1.21 -1.39,-1.28 -1.40,-1.40 -1.42,-1.52 -1.40,-1.65 -1.39,-1.77 -1.35,-1.89 -1.30,-2.01 -1.23,-2.11 -1.16,-2.22 -1.07,-2.30 -0.97,-2.38 -0.86,-2.44 -0.75,-2.50 -0.63,-2.53 -0.51,-2.56 -0.38,-2.56 -0.26,-2.56 -0.13,-2.53 -0.01,-2.50 0.09,-2.45 0.20,-2.39 0.29,-2.30 0.39,-2.22 0.46,-2.12 0.53,-2.02 0.58,-1.90 0.62,-1.78 0.76,-1.00 0.89,-0.22 0.90,-0.11 0.92,-0.00 0.91,0.10 0.89,0.21 0.85,0.32 0.81,0.42 0.75,0.51 0.69,0.60 0.61,0.68 0.52,0.75 0.42,0.81 0.33,0.86 0.22,0.88 0.11,0.91 0.00,0.91 -0.10,0.91 -0.21,0.89 -0.32,0.86 -0.42,0.81 -0.52,0.76 -0.60,0.68 -0.68,0.61 -0.75,0.52 -0.81,0.43 -0.85,0.32 -0.89,0.22 -0.89,0.22 L -0.89,0.22 Z"></path></g><g transform="translate(144.66668701171875 160.6666717529297) rotate(0 3 9.666671752929688)" stroke="none"><path fill="#1e1e1e" d="M 1.08,0.40 Q 1.08,0.40 0.59,1.96 0.10,3.51 0.09,4.35 0.08,5.18 0.82,5.51 1.55,5.83 2.62,5.49 3.69,5.15 4.95,5.23 6.22,5.31 7.22,6.24 8.23,7.16 8.24,9.68 8.25,12.21 7.98,13.45 7.71,14.70 7.11,15.61 6.52,16.52 4.65,17.94 2.78,19.37 2.71,19.44 2.63,19.52 2.53,19.56 2.44,19.61 2.33,19.62 2.23,19.63 2.12,19.61 2.02,19.59 1.93,19.54 1.84,19.48 1.77,19.40 1.70,19.32 1.66,19.22 1.62,19.13 1.61,19.02 1.60,18.91 1.63,18.81 1.66,18.71 1.72,18.62 1.77,18.53 1.86,18.47 1.94,18.40 2.04,18.37 2.14,18.33 2.25,18.33 2.35,18.33 2.46,18.36 2.56,18.40 2.64,18.46 2.73,18.52 2.79,18.61 2.85,18.70 2.88,18.80 2.91,18.90 2.90,19.01 2.90,19.11 2.86,19.21 2.82,19.31 2.75,19.39 2.69,19.48 2.59,19.53 2.50,19.59 2.40,19.61 2.30,19.63 2.19,19.62 2.09,19.61 1.99,19.57 1.89,19.53 1.81,19.45 1.74,19.38 1.69,19.29 1.63,19.19 1.62,19.09 1.60,18.99 1.61,18.88 1.63,18.78 1.68,18.68 1.73,18.59 1.73,18.59 1.73,18.59 2.99,16.71 4.25,14.84 4.63,14.42 5.01,14.00 5.23,13.02 5.45,12.03 5.53,9.95 5.61,7.86 4.96,7.84 4.32,7.83 2.69,8.16 1.06,8.49 0.45,8.34 -0.14,8.19 -1.03,7.65 -1.91,7.10 -2.25,6.09 -2.59,5.08 -2.49,3.85 -2.40,2.61 -1.74,1.10 -1.08,-0.40 -1.02,-0.53 -0.95,-0.65 -0.86,-0.75 -0.77,-0.86 -0.65,-0.94 -0.54,-1.02 -0.41,-1.07 -0.28,-1.12 -0.14,-1.14 -0.00,-1.15 0.13,-1.14 0.27,-1.12 0.40,-1.07 0.53,-1.02 0.64,-0.94 0.76,-0.86 0.85,-0.76 0.95,-0.66 1.01,-0.53 1.08,-0.41 1.11,-0.27 1.14,-0.14 1.14,-0.00 1.15,0.13 1.11,0.27 1.08,0.40 1.08,0.40 L 1.08,0.40 Z"></path></g><g transform="translate(144 160.6666717529297) rotate(0 7 1.3333282470703125)" stroke="none"><path fill="#1e1e1e" d="M 0.49,-0.98 Q 0.49,-0.98 2.05,-0.28 3.61,0.40 5.07,0.66 6.53,0.91 8.22,0.83 9.91,0.75 11.53,0.78 13.15,0.82 13.25,0.82 13.36,0.81 13.46,0.84 13.56,0.88 13.65,0.94 13.73,1.00 13.79,1.09 13.85,1.18 13.89,1.28 13.92,1.38 13.91,1.49 13.91,1.59 13.87,1.69 13.83,1.79 13.77,1.87 13.70,1.95 13.61,2.01 13.52,2.07 13.42,2.09 13.31,2.12 13.21,2.11 13.10,2.10 13.00,2.06 12.91,2.01 12.83,1.94 12.75,1.87 12.70,1.78 12.65,1.68 12.63,1.58 12.61,1.48 12.62,1.37 12.64,1.27 12.69,1.17 12.73,1.08 12.81,1.00 12.89,0.93 12.98,0.88 13.08,0.83 13.18,0.82 13.29,0.81 13.39,0.83 13.50,0.85 13.59,0.90 13.68,0.95 13.75,1.03 13.82,1.11 13.86,1.21 13.90,1.31 13.91,1.42 13.92,1.52 13.89,1.62 13.87,1.73 13.81,1.82 13.75,1.91 13.67,1.97 13.58,2.04 13.48,2.07 13.38,2.11 13.38,2.11 13.38,2.11 11.69,2.75 9.99,3.40 8.01,3.42 6.03,3.45 4.27,3.05 2.51,2.65 1.01,1.81 -0.49,0.98 -0.60,0.90 -0.71,0.83 -0.80,0.73 -0.89,0.64 -0.95,0.52 -1.01,0.40 -1.05,0.28 -1.08,0.15 -1.08,0.02 -1.09,-0.11 -1.06,-0.23 -1.03,-0.36 -0.97,-0.48 -0.91,-0.60 -0.82,-0.70 -0.74,-0.80 -0.63,-0.88 -0.52,-0.96 -0.40,-1.01 -0.28,-1.05 -0.15,-1.07 -0.02,-1.09 0.11,-1.08 0.24,-1.07 0.36,-1.02 0.49,-0.98 0.49,-0.98 L 0.49,-0.98 Z"></path></g><g transform="translate(202 173.3333282470703) rotate(0 5 -4.666656494140625)" stroke="none"><path fill="#1e1e1e" d="M -0.33,-1.00 Q -0.33,-1.00 0.78,-1.48 1.90,-1.96 3.28,-2.16 4.65,-2.37 5.75,-2.26 6.85,-2.15 7.86,-1.65 8.87,-1.14 9.62,-0.24 10.38,0.66 10.31,2.07 10.24,3.49 9.27,4.79 8.30,6.09 7.19,6.85 6.09,7.62 4.86,7.63 3.64,7.64 2.69,6.56 1.74,5.48 1.19,3.75 0.64,2.01 0.42,-0.50 0.19,-3.03 0.30,-5.47 0.40,-7.92 0.85,-10.19 1.29,-12.46 3.24,-14.61 5.19,-16.76 5.28,-16.83 5.36,-16.89 5.46,-16.93 5.56,-16.96 5.67,-16.96 5.77,-16.96 5.87,-16.93 5.98,-16.90 6.06,-16.83 6.15,-16.77 6.21,-16.68 6.27,-16.60 6.30,-16.49 6.32,-16.39 6.32,-16.29 6.31,-16.18 6.28,-16.08 6.24,-15.98 6.17,-15.90 6.10,-15.82 6.01,-15.76 5.92,-15.71 5.82,-15.68 5.71,-15.66 5.61,-15.67 5.50,-15.68 5.41,-15.72 5.31,-15.77 5.23,-15.84 5.15,-15.91 5.10,-16.01 5.05,-16.10 5.03,-16.21 5.02,-16.31 5.03,-16.41 5.05,-16.52 5.10,-16.61 5.15,-16.71 5.22,-16.78 5.30,-16.86 5.40,-16.90 5.49,-16.95 5.60,-16.96 5.70,-16.97 5.81,-16.95 5.91,-16.93 6.00,-16.87 6.09,-16.82 6.16,-16.74 6.23,-16.66 6.27,-16.56 6.31,-16.46 6.32,-16.36 6.33,-16.25 6.30,-16.15 6.27,-16.04 6.21,-15.96 6.15,-15.87 6.15,-15.87 6.15,-15.87 5.12,-13.86 4.10,-11.84 3.68,-9.81 3.27,-7.78 3.16,-5.52 3.04,-3.26 3.21,-1.02 3.38,1.21 3.75,2.56 4.12,3.92 4.38,4.56 4.65,5.21 5.41,4.74 6.16,4.27 6.86,3.56 7.56,2.85 7.53,2.02 7.50,1.19 6.97,0.82 6.43,0.45 5.70,0.32 4.96,0.19 3.82,0.31 2.69,0.42 1.51,0.71 0.33,1.00 0.20,1.02 0.08,1.05 -0.04,1.04 -0.16,1.04 -0.29,1.00 -0.41,0.97 -0.52,0.90 -0.63,0.84 -0.72,0.75 -0.81,0.66 -0.88,0.55 -0.95,0.45 -0.99,0.33 -1.03,0.21 -1.04,0.08 -1.05,-0.04 -1.03,-0.16 -1.01,-0.29 -0.96,-0.41 -0.91,-0.52 -0.83,-0.62 -0.76,-0.73 -0.66,-0.81 -0.56,-0.89 -0.44,-0.94 -0.33,-1.00 -0.33,-1.00 L -0.33,-1.00 Z"></path></g><g transform="translate(253.3333740234375 176.6666717529297) rotate(0 8.33331298828125 2.333343505859375)" stroke="none"><path fill="#1e1e1e" d="M -1.20,0.20 Q -1.20,0.20 -1.49,-0.93 -1.78,-2.06 -2.06,-3.06 -2.34,-4.06 -2.47,-4.75 -2.61,-5.45 -2.60,-6.18 -2.59,-6.90 -1.90,-7.89 -1.21,-8.87 0.39,-9.66 1.99,-10.46 3.51,-10.78 5.03,-11.10 6.77,-11.41 8.52,-11.73 9.99,-11.68 11.47,-11.63 12.42,-11.60 13.38,-11.57 14.48,-11.08 15.59,-10.59 16.56,-9.46 17.52,-8.33 18.11,-7.15 18.69,-5.98 18.40,-3.07 18.10,-0.16 17.76,1.88 17.41,3.93 16.87,6.01 16.32,8.09 15.91,9.88 15.51,11.67 14.80,13.19 14.09,14.70 14.06,14.80 14.02,14.90 13.96,14.99 13.90,15.08 13.81,15.14 13.72,15.20 13.62,15.23 13.52,15.26 13.41,15.25 13.30,15.25 13.21,15.21 13.11,15.17 13.03,15.10 12.94,15.03 12.89,14.94 12.83,14.85 12.81,14.75 12.78,14.65 12.79,14.54 12.81,14.43 12.85,14.34 12.89,14.24 12.96,14.16 13.04,14.08 13.13,14.03 13.22,13.98 13.33,13.96 13.43,13.95 13.54,13.96 13.64,13.98 13.74,14.03 13.83,14.08 13.91,14.15 13.98,14.23 14.03,14.33 14.07,14.42 14.08,14.53 14.10,14.63 14.07,14.74 14.05,14.84 14.00,14.93 13.94,15.02 13.86,15.09 13.78,15.16 13.69,15.20 13.59,15.24 13.48,15.25 13.38,15.26 13.27,15.23 13.17,15.20 13.08,15.14 12.99,15.08 12.93,15.00 12.86,14.92 12.83,14.82 12.79,14.72 12.79,14.61 12.79,14.50 12.79,14.50 12.79,14.50 12.59,12.73 12.38,10.96 12.81,9.12 13.24,7.28 13.75,5.34 14.27,3.39 14.62,1.38 14.96,-0.62 15.40,-2.75 15.83,-4.89 15.43,-5.66 15.02,-6.43 14.55,-7.16 14.08,-7.90 13.63,-8.20 13.17,-8.50 12.24,-8.52 11.32,-8.54 10.18,-8.62 9.04,-8.69 7.33,-8.39 5.62,-8.09 4.43,-7.88 3.24,-7.67 1.76,-6.82 0.28,-5.97 0.38,-5.38 0.48,-4.79 0.75,-3.66 1.02,-2.53 1.11,-1.36 1.20,-0.20 1.21,-0.05 1.22,0.09 1.19,0.23 1.16,0.38 1.10,0.51 1.03,0.65 0.94,0.76 0.85,0.87 0.73,0.96 0.61,1.05 0.48,1.11 0.34,1.17 0.19,1.19 0.05,1.22 -0.09,1.21 -0.24,1.20 -0.38,1.15 -0.52,1.10 -0.64,1.03 -0.77,0.95 -0.87,0.84 -0.97,0.73 -1.05,0.61 -1.12,0.48 -1.16,0.34 -1.20,0.20 -1.20,0.20 L -1.20,0.20 Z"></path></g><g transform="translate(266 180.00001525878906) rotate(0 8.333343505859375 0.3333282470703125)" stroke="none"><path fill="#1e1e1e" d="M 0.05,-1.28 Q 0.05,-1.28 1.25,-1.34 2.45,-1.40 4.16,-1.33 5.86,-1.26 7.79,-1.19 9.71,-1.11 11.73,-1.03 13.74,-0.95 13.98,-0.90 14.22,-0.85 14.43,-0.73 14.64,-0.61 14.80,-0.42 14.96,-0.24 15.05,-0.02 15.15,0.20 15.16,0.44 15.18,0.68 15.12,0.92 15.05,1.15 14.92,1.36 14.79,1.56 14.60,1.71 14.40,1.86 14.18,1.94 13.95,2.02 13.70,2.03 13.46,2.03 13.23,1.95 13.00,1.88 12.80,1.74 12.61,1.59 12.47,1.39 12.33,1.19 12.26,0.96 12.19,0.73 12.20,0.48 12.21,0.24 12.30,0.01 12.38,-0.20 12.54,-0.39 12.69,-0.58 12.90,-0.71 13.11,-0.84 13.34,-0.89 13.58,-0.95 13.82,-0.92 14.06,-0.90 14.29,-0.80 14.51,-0.70 14.69,-0.54 14.87,-0.37 14.98,-0.16 15.10,0.04 15.14,0.28 15.18,0.52 15.15,0.76 15.11,1.00 15.00,1.22 14.89,1.44 14.72,1.60 14.54,1.77 14.32,1.88 14.10,1.98 13.86,2.01 13.62,2.04 13.62,2.04 13.62,2.04 11.61,1.96 9.59,1.88 7.67,1.81 5.74,1.73 4.04,1.66 2.33,1.59 1.14,1.44 -0.05,1.28 -0.20,1.25 -0.35,1.23 -0.49,1.17 -0.64,1.11 -0.76,1.01 -0.88,0.92 -0.98,0.80 -1.08,0.68 -1.15,0.54 -1.21,0.40 -1.24,0.25 -1.28,0.10 -1.27,-0.05 -1.26,-0.20 -1.22,-0.35 -1.18,-0.50 -1.10,-0.63 -1.02,-0.77 -0.91,-0.88 -0.81,-0.99 -0.68,-1.07 -0.55,-1.16 -0.40,-1.20 -0.25,-1.25 -0.10,-1.27 0.05,-1.28 0.05,-1.28 L 0.05,-1.28 Z"></path></g><g transform="translate(329.3333740234375 174.6666717529297) rotate(0 1.33331298828125 10.333328247070312)" stroke="none"><path fill="#1e1e1e" d="M -0.29,1.16 Q -0.29,1.16 -1.00,1.05 -1.71,0.94 -2.62,1.40 -3.53,1.86 -4.97,3.64 -6.40,5.42 -7.04,6.11 -7.67,6.81 -6.42,7.56 -5.16,8.31 -3.69,8.53 -2.23,8.76 -0.06,8.88 2.09,9.00 4.13,9.45 6.17,9.90 7.72,10.55 9.27,11.19 10.17,12.37 11.07,13.55 11.03,14.89 10.99,16.22 10.07,17.84 9.16,19.45 8.33,20.35 7.49,21.25 6.41,21.91 5.32,22.57 4.04,22.69 2.76,22.81 1.65,22.30 0.54,21.79 0.03,20.28 -0.47,18.76 -0.21,16.27 0.05,13.78 0.78,11.70 1.51,9.62 2.45,8.08 3.39,6.55 4.78,4.90 6.17,3.26 7.38,2.15 8.58,1.04 10.12,0.21 11.66,-0.62 11.75,-0.68 11.84,-0.74 11.94,-0.77 12.04,-0.80 12.15,-0.79 12.26,-0.78 12.35,-0.75 12.45,-0.71 12.53,-0.64 12.62,-0.57 12.67,-0.48 12.73,-0.39 12.75,-0.28 12.77,-0.18 12.76,-0.07 12.75,0.02 12.71,0.12 12.66,0.21 12.59,0.29 12.52,0.37 12.42,0.42 12.33,0.47 12.22,0.49 12.12,0.50 12.01,0.49 11.91,0.47 11.81,0.42 11.72,0.37 11.65,0.29 11.57,0.22 11.53,0.12 11.48,0.02 11.47,-0.07 11.46,-0.18 11.48,-0.28 11.51,-0.38 11.56,-0.48 11.62,-0.57 11.70,-0.64 11.78,-0.70 11.88,-0.74 11.97,-0.78 12.08,-0.79 12.19,-0.80 12.29,-0.77 12.39,-0.74 12.48,-0.68 12.57,-0.62 12.63,-0.54 12.70,-0.45 12.73,-0.35 12.76,-0.25 12.76,-0.14 12.76,-0.04 12.73,0.05 12.70,0.15 12.63,0.24 12.57,0.32 12.57,0.32 12.57,0.32 11.64,1.84 10.71,3.36 9.63,4.34 8.56,5.31 7.30,6.76 6.03,8.21 5.23,9.45 4.44,10.69 3.78,12.44 3.13,14.18 2.84,16.18 2.55,18.19 2.63,18.97 2.72,19.76 3.34,19.82 3.96,19.89 4.65,19.51 5.33,19.14 5.96,18.51 6.60,17.88 7.33,16.79 8.06,15.71 8.00,14.75 7.95,13.78 6.72,13.29 5.50,12.79 3.70,12.36 1.91,11.94 -0.42,11.79 -2.75,11.65 -4.66,11.25 -6.57,10.86 -8.09,9.82 -9.61,8.78 -9.90,7.48 -10.19,6.18 -9.38,4.85 -8.57,3.52 -6.62,1.43 -4.66,-0.65 -3.00,-1.18 -1.34,-1.70 -0.52,-1.43 0.29,-1.16 0.42,-1.11 0.56,-1.05 0.67,-0.97 0.79,-0.89 0.89,-0.78 0.98,-0.67 1.05,-0.54 1.12,-0.42 1.15,-0.28 1.19,-0.14 1.19,0.00 1.18,0.14 1.15,0.28 1.11,0.42 1.05,0.55 0.98,0.68 0.88,0.79 0.79,0.90 0.67,0.98 0.55,1.06 0.41,1.11 0.28,1.16 0.13,1.18 -0.00,1.19 -0.14,1.18 -0.29,1.16 -0.29,1.16 L -0.29,1.16 Z"></path></g><g transform="translate(412 188.00001525878906) rotate(0 1.66668701171875 3.33331298828125)" stroke="none"><path fill="#1e1e1e" d="M -1.17,-0.14 Q -1.17,-0.14 -1.08,-1.69 -1.00,-3.24 -0.73,-4.88 -0.47,-6.52 -0.36,-7.37 -0.26,-8.22 -0.21,-8.87 -0.16,-9.52 -0.66,-9.17 -1.15,-8.81 -2.11,-7.78 -3.06,-6.75 -3.64,-5.37 -4.21,-3.99 -3.92,-2.72 -3.64,-1.44 -2.92,-0.67 -2.19,0.09 -1.14,0.55 -0.09,1.02 0.85,0.87 1.81,0.72 2.63,0.03 3.46,-0.66 4.27,-1.35 5.09,-2.04 6.10,-2.60 7.10,-3.16 7.75,-2.87 8.39,-2.58 9.18,-0.28 9.97,2.01 10.39,3.84 10.82,5.66 11.01,7.68 11.21,9.70 11.10,11.21 10.98,12.73 10.73,13.99 10.48,15.25 9.91,16.27 9.34,17.29 8.49,17.64 7.64,17.99 5.64,16.30 3.63,14.62 3.58,14.52 3.54,14.42 3.52,14.32 3.51,14.21 3.53,14.11 3.55,14.01 3.60,13.91 3.66,13.82 3.74,13.75 3.81,13.68 3.91,13.64 4.01,13.60 4.12,13.59 4.22,13.58 4.32,13.61 4.43,13.63 4.52,13.69 4.61,13.75 4.67,13.83 4.74,13.91 4.77,14.01 4.81,14.11 4.81,14.22 4.82,14.33 4.78,14.43 4.75,14.53 4.69,14.62 4.63,14.70 4.54,14.76 4.45,14.82 4.35,14.86 4.25,14.89 4.14,14.88 4.04,14.88 3.94,14.84 3.84,14.80 3.76,14.74 3.67,14.67 3.62,14.58 3.56,14.49 3.54,14.39 3.51,14.28 3.52,14.18 3.53,14.07 3.57,13.98 3.61,13.88 3.69,13.80 3.76,13.72 3.85,13.67 3.94,13.62 4.05,13.60 4.15,13.58 4.26,13.59 4.36,13.61 4.46,13.66 4.55,13.70 4.63,13.78 4.70,13.85 4.70,13.85 4.70,13.85 6.13,14.24 7.56,14.63 7.79,13.56 8.02,12.48 8.14,11.22 8.26,9.96 8.10,8.14 7.94,6.33 7.53,4.55 7.12,2.77 7.06,1.48 7.00,0.19 6.08,0.96 5.16,1.73 3.70,2.65 2.25,3.58 0.53,3.64 -1.17,3.70 -2.78,2.85 -4.39,2.01 -5.43,0.60 -6.46,-0.80 -6.69,-2.86 -6.93,-4.92 -6.03,-6.86 -5.13,-8.81 -3.51,-10.19 -1.90,-11.58 -0.77,-11.72 0.35,-11.87 1.15,-11.48 1.94,-11.08 2.31,-10.33 2.68,-9.57 2.63,-8.71 2.58,-7.85 2.45,-6.94 2.33,-6.04 2.05,-4.47 1.77,-2.89 1.47,-1.37 1.17,0.14 1.13,0.28 1.10,0.42 1.03,0.54 0.96,0.67 0.87,0.77 0.77,0.88 0.66,0.96 0.54,1.04 0.41,1.09 0.27,1.14 0.13,1.16 -0.00,1.17 -0.14,1.16 -0.28,1.14 -0.41,1.09 -0.55,1.04 -0.66,0.96 -0.78,0.88 -0.87,0.77 -0.97,0.66 -1.03,0.54 -1.10,0.41 -1.13,0.27 -1.17,0.13 -1.17,-0.00 -1.17,-0.14 -1.17,-0.14 L -1.17,-0.14 Z"></path></g><g transform="translate(466 190.00001525878906) rotate(0 8 -5.333343505859375)" stroke="none"><path fill="#1e1e1e" d="M -0.85,-0.96 Q -0.85,-0.96 2.53,-4.09 5.93,-7.22 7.95,-9.10 9.97,-10.98 11.21,-11.87 12.44,-12.75 13.92,-12.45 15.40,-12.15 16.10,-10.22 16.79,-8.29 16.82,-6.40 16.85,-4.51 16.11,-1.51 15.37,1.48 15.34,1.59 15.31,1.69 15.26,1.78 15.20,1.87 15.11,1.93 15.03,2.00 14.93,2.04 14.83,2.07 14.73,2.07 14.62,2.08 14.52,2.04 14.42,2.01 14.33,1.95 14.24,1.89 14.18,1.80 14.12,1.71 14.09,1.61 14.06,1.51 14.06,1.40 14.07,1.30 14.11,1.20 14.14,1.10 14.21,1.02 14.28,0.93 14.37,0.88 14.46,0.82 14.56,0.80 14.66,0.77 14.77,0.78 14.88,0.79 14.97,0.83 15.07,0.88 15.15,0.95 15.23,1.02 15.28,1.11 15.33,1.20 15.35,1.31 15.37,1.41 15.35,1.52 15.34,1.62 15.29,1.72 15.24,1.81 15.17,1.89 15.09,1.96 15.00,2.01 14.90,2.06 14.79,2.07 14.69,2.08 14.59,2.06 14.48,2.04 14.39,1.99 14.30,1.93 14.23,1.85 14.16,1.78 14.12,1.68 14.07,1.58 14.07,1.47 14.06,1.37 14.06,1.37 14.06,1.37 13.92,-1.56 13.79,-4.50 13.81,-6.01 13.83,-7.53 13.79,-8.87 13.75,-10.21 12.87,-9.50 11.98,-8.79 9.92,-6.92 7.86,-5.04 4.36,-2.04 0.85,0.96 0.72,1.05 0.60,1.14 0.45,1.19 0.31,1.25 0.15,1.27 0.00,1.28 -0.15,1.27 -0.30,1.25 -0.45,1.19 -0.59,1.14 -0.72,1.05 -0.85,0.96 -0.95,0.85 -1.05,0.73 -1.13,0.59 -1.20,0.45 -1.24,0.30 -1.27,0.15 -1.27,0.00 -1.28,-0.15 -1.24,-0.30 -1.20,-0.45 -1.13,-0.59 -1.06,-0.73 -0.95,-0.84 -0.85,-0.96 -0.85,-0.96 L -0.85,-0.96 Z"></path></g><g transform="translate(496 178.6666717529297) rotate(0 0.3333740234375 8.666671752929688)" stroke="none"><path fill="#1e1e1e" d="M 0.49,0.99 Q 0.49,0.99 -0.22,1.46 -0.94,1.93 -2.12,2.80 -3.30,3.67 -4.07,4.88 -4.83,6.08 -5.31,7.82 -5.80,9.55 -5.81,11.33 -5.83,13.11 -5.59,14.00 -5.34,14.88 -4.68,15.09 -4.02,15.29 -2.17,15.42 -0.31,15.55 1.22,15.45 2.75,15.35 3.99,14.79 5.24,14.23 5.81,13.82 6.38,13.41 6.34,12.52 6.30,11.64 6.17,10.51 6.04,9.38 6.06,7.28 6.08,5.18 6.08,5.08 6.08,4.97 6.11,4.87 6.15,4.77 6.21,4.69 6.28,4.60 6.37,4.54 6.46,4.48 6.56,4.46 6.66,4.43 6.77,4.44 6.87,4.44 6.97,4.48 7.07,4.52 7.15,4.59 7.23,4.66 7.29,4.75 7.34,4.84 7.36,4.95 7.38,5.05 7.37,5.16 7.36,5.26 7.31,5.36 7.27,5.46 7.19,5.53 7.12,5.61 7.03,5.66 6.93,5.71 6.83,5.72 6.72,5.74 6.62,5.72 6.51,5.70 6.42,5.65 6.33,5.60 6.25,5.52 6.18,5.45 6.14,5.35 6.09,5.25 6.08,5.15 6.07,5.04 6.10,4.94 6.12,4.83 6.17,4.74 6.23,4.65 6.31,4.58 6.39,4.52 6.49,4.48 6.59,4.44 6.70,4.43 6.80,4.43 6.91,4.46 7.01,4.49 7.10,4.55 7.18,4.61 7.25,4.69 7.31,4.78 7.34,4.88 7.38,4.98 7.38,4.98 7.38,4.98 8.18,7.04 8.99,9.09 9.11,10.54 9.23,11.99 8.87,13.58 8.52,15.16 7.46,16.04 6.39,16.92 4.69,17.59 2.98,18.26 1.18,18.36 -0.60,18.45 -2.98,18.14 -5.35,17.84 -6.53,17.00 -7.71,16.17 -8.18,14.62 -8.66,13.07 -8.56,10.92 -8.46,8.77 -7.77,6.67 -7.08,4.58 -5.98,3.07 -4.89,1.57 -3.50,0.58 -2.11,-0.39 -1.30,-0.69 -0.49,-0.99 -0.37,-1.04 -0.24,-1.08 -0.11,-1.10 0.02,-1.11 0.15,-1.09 0.28,-1.07 0.41,-1.02 0.53,-0.97 0.64,-0.89 0.75,-0.82 0.84,-0.71 0.93,-0.61 0.99,-0.49 1.05,-0.37 1.08,-0.24 1.11,-0.11 1.10,0.02 1.10,0.15 1.07,0.28 1.03,0.41 0.97,0.53 0.90,0.65 0.81,0.75 0.72,0.85 0.61,0.92 0.49,0.99 0.49,0.99 L 0.49,0.99 Z"></path></g><g transform="translate(542 191.3333282470703) rotate(0 4.66668701171875 -1.666656494140625)" stroke="none"><path fill="#1e1e1e" d="M -0.62,-1.03 Q -0.62,-1.03 1.25,-2.24 3.12,-3.45 4.15,-4.62 5.19,-5.79 5.89,-6.53 6.60,-7.27 7.19,-7.67 7.78,-8.07 8.01,-8.42 8.23,-8.78 8.39,-8.85 8.55,-8.93 8.73,-8.97 8.90,-9.00 9.08,-8.99 9.26,-8.99 9.43,-8.94 9.61,-8.89 9.76,-8.80 9.92,-8.71 10.05,-8.58 10.18,-8.46 10.27,-8.31 10.37,-8.15 10.42,-7.98 10.48,-7.81 10.49,-7.63 10.51,-7.46 10.48,-7.28 10.45,-7.10 10.38,-6.94 10.31,-6.77 10.20,-6.63 10.09,-6.48 9.95,-6.37 9.81,-6.26 9.88,-5.33 9.94,-4.41 9.64,-2.33 9.33,-0.24 8.68,1.96 8.02,4.17 8.00,4.28 7.97,4.38 7.92,4.47 7.86,4.56 7.78,4.63 7.70,4.70 7.60,4.73 7.50,4.77 7.39,4.78 7.28,4.78 7.18,4.75 7.08,4.72 6.99,4.66 6.91,4.60 6.84,4.51 6.78,4.43 6.75,4.33 6.71,4.23 6.72,4.12 6.72,4.01 6.75,3.91 6.79,3.81 6.85,3.73 6.92,3.65 7.01,3.59 7.10,3.53 7.20,3.50 7.30,3.47 7.41,3.48 7.51,3.49 7.61,3.53 7.71,3.57 7.79,3.64 7.87,3.71 7.92,3.80 7.98,3.89 8.00,4.00 8.02,4.10 8.01,4.21 7.99,4.31 7.95,4.41 7.90,4.50 7.83,4.58 7.75,4.66 7.66,4.70 7.57,4.75 7.46,4.77 7.36,4.78 7.25,4.77 7.15,4.75 7.05,4.70 6.96,4.65 6.89,4.57 6.82,4.49 6.77,4.39 6.73,4.30 6.72,4.19 6.71,4.08 6.71,4.08 6.71,4.08 6.49,1.69 6.26,-0.70 6.59,-2.87 6.92,-5.04 7.57,-6.91 8.23,-8.78 8.39,-8.85 8.55,-8.93 8.73,-8.97 8.90,-9.00 9.08,-8.99 9.26,-8.99 9.43,-8.94 9.61,-8.89 9.76,-8.80 9.92,-8.71 10.05,-8.58 10.18,-8.46 10.27,-8.31 10.37,-8.15 10.42,-7.98 10.48,-7.81 10.49,-7.63 10.51,-7.46 10.48,-7.28 10.45,-7.10 10.38,-6.94 10.31,-6.77 10.20,-6.63 10.09,-6.48 9.95,-6.37 9.81,-6.26 9.24,-5.75 8.66,-5.25 7.96,-4.53 7.26,-3.82 5.90,-2.48 4.54,-1.14 2.58,-0.05 0.62,1.03 0.48,1.09 0.35,1.15 0.21,1.18 0.06,1.20 -0.07,1.19 -0.22,1.18 -0.36,1.14 -0.50,1.10 -0.62,1.02 -0.74,0.95 -0.85,0.84 -0.95,0.74 -1.03,0.61 -1.10,0.49 -1.14,0.35 -1.19,0.21 -1.19,0.06 -1.20,-0.07 -1.18,-0.22 -1.15,-0.36 -1.09,-0.49 -1.03,-0.62 -0.94,-0.74 -0.85,-0.85 -0.73,-0.94 -0.62,-1.03 -0.62,-1.03 L -0.62,-1.03 Z"></path></g><g transform="translate(556 191.3333282470703) rotate(0 4.66668701171875 -0.666656494140625)" stroke="none"><path fill="#1e1e1e" d="M -0.96,-0.74 Q -0.96,-0.74 0.35,-2.49 1.66,-4.24 2.60,-5.53 3.53,-6.83 4.58,-7.87 5.63,-8.90 6.23,-9.30 6.83,-9.71 6.96,-9.81 7.09,-9.90 7.24,-9.97 7.39,-10.03 7.55,-10.06 7.71,-10.08 7.87,-10.07 8.03,-10.06 8.19,-10.00 8.34,-9.95 8.48,-9.87 8.61,-9.78 8.73,-9.66 8.84,-9.54 8.92,-9.40 9.00,-9.26 9.05,-9.11 9.09,-8.95 9.10,-8.79 9.10,-8.63 9.07,-8.47 9.04,-8.31 8.97,-8.16 8.90,-8.02 8.80,-7.89 8.69,-7.77 9.28,-7.78 9.87,-7.80 10.14,-5.88 10.41,-3.96 10.31,-1.98 10.21,-0.00 10.17,1.34 10.13,2.69 10.11,3.46 10.09,4.22 10.01,5.92 9.92,7.61 9.93,7.72 9.93,7.83 9.90,7.93 9.87,8.03 9.81,8.12 9.75,8.20 9.66,8.27 9.57,8.33 9.47,8.36 9.37,8.39 9.27,8.39 9.16,8.39 9.06,8.35 8.96,8.32 8.88,8.25 8.79,8.18 8.73,8.10 8.68,8.01 8.65,7.90 8.62,7.80 8.63,7.69 8.64,7.59 8.68,7.49 8.72,7.39 8.79,7.31 8.86,7.23 8.96,7.18 9.05,7.13 9.15,7.11 9.26,7.09 9.36,7.10 9.47,7.11 9.56,7.16 9.66,7.21 9.73,7.28 9.81,7.36 9.86,7.45 9.90,7.55 9.92,7.65 9.93,7.76 9.92,7.86 9.90,7.97 9.84,8.06 9.79,8.15 9.71,8.22 9.64,8.29 9.54,8.34 9.44,8.38 9.34,8.39 9.23,8.40 9.13,8.37 9.02,8.35 8.93,8.29 8.84,8.23 8.78,8.15 8.71,8.07 8.67,7.97 8.63,7.87 8.63,7.87 8.63,7.87 7.96,6.01 7.29,4.15 7.31,3.37 7.33,2.59 7.39,1.21 7.44,-0.16 7.56,-1.91 7.68,-3.65 7.57,-5.09 7.46,-6.52 7.15,-8.12 6.83,-9.71 6.96,-9.81 7.09,-9.90 7.24,-9.97 7.39,-10.03 7.55,-10.06 7.71,-10.08 7.87,-10.07 8.03,-10.06 8.19,-10.00 8.34,-9.95 8.48,-9.87 8.61,-9.78 8.73,-9.66 8.84,-9.54 8.92,-9.40 9.00,-9.26 9.05,-9.11 9.09,-8.95 9.10,-8.79 9.10,-8.63 9.07,-8.47 9.04,-8.31 8.97,-8.16 8.90,-8.02 8.80,-7.89 8.69,-7.77 8.07,-7.38 7.46,-6.98 6.55,-6.14 5.64,-5.29 4.67,-3.97 3.69,-2.65 2.33,-0.95 0.96,0.74 0.85,0.85 0.75,0.95 0.63,1.03 0.50,1.11 0.36,1.15 0.22,1.19 0.07,1.20 -0.06,1.21 -0.21,1.19 -0.35,1.16 -0.49,1.10 -0.62,1.04 -0.74,0.95 -0.85,0.86 -0.95,0.75 -1.04,0.63 -1.10,0.50 -1.16,0.36 -1.19,0.22 -1.21,0.07 -1.20,-0.06 -1.20,-0.21 -1.15,-0.35 -1.11,-0.49 -1.03,-0.62 -0.96,-0.74 -0.96,-0.74 L -0.96,-0.74 Z"></path></g><g transform="translate(606 190.00001525878906) rotate(0 5.3333740234375 -2.66668701171875)" stroke="none"><path fill="#1e1e1e" d="M -0.78,-0.91 Q -0.78,-0.91 0.52,-2.09 1.84,-3.28 3.14,-4.53 4.44,-5.78 5.57,-6.89 6.69,-8.00 7.30,-8.79 7.91,-9.58 8.43,-10.27 8.95,-10.96 9.04,-11.10 9.14,-11.24 9.27,-11.36 9.39,-11.47 9.54,-11.55 9.69,-11.63 9.86,-11.67 10.02,-11.71 10.19,-11.71 10.36,-11.71 10.53,-11.67 10.69,-11.63 10.84,-11.55 10.99,-11.48 11.12,-11.36 11.25,-11.25 11.34,-11.11 11.44,-10.97 11.50,-10.81 11.56,-10.66 11.58,-10.49 11.61,-10.32 11.59,-10.15 11.57,-9.98 11.51,-9.82 11.45,-9.66 11.69,-8.82 11.94,-7.99 11.81,-5.80 11.68,-3.61 11.63,-1.42 11.57,0.75 11.39,2.58 11.21,4.41 11.20,4.52 11.20,4.63 11.16,4.72 11.13,4.82 11.06,4.91 10.99,4.99 10.90,5.04 10.81,5.10 10.71,5.13 10.60,5.15 10.50,5.14 10.39,5.13 10.29,5.09 10.20,5.05 10.12,4.97 10.04,4.90 9.99,4.81 9.94,4.72 9.92,4.61 9.90,4.51 9.92,4.40 9.93,4.30 9.98,4.20 10.03,4.11 10.10,4.03 10.18,3.96 10.27,3.91 10.37,3.87 10.48,3.85 10.58,3.84 10.69,3.86 10.79,3.88 10.88,3.93 10.97,3.99 11.04,4.07 11.11,4.15 11.15,4.25 11.20,4.34 11.20,4.45 11.21,4.56 11.18,4.66 11.16,4.76 11.10,4.85 11.04,4.94 10.96,5.00 10.87,5.07 10.77,5.11 10.67,5.14 10.57,5.14 10.46,5.15 10.36,5.11 10.26,5.08 10.17,5.02 10.09,4.95 10.03,4.87 9.97,4.78 9.94,4.68 9.91,4.58 9.91,4.58 9.91,4.58 9.24,2.63 8.58,0.68 8.65,-1.56 8.71,-3.81 8.85,-5.74 8.99,-7.68 8.97,-9.32 8.95,-10.96 9.04,-11.10 9.14,-11.24 9.27,-11.36 9.39,-11.47 9.54,-11.55 9.69,-11.63 9.86,-11.67 10.02,-11.71 10.19,-11.71 10.36,-11.71 10.53,-11.67 10.69,-11.63 10.84,-11.55 10.99,-11.48 11.12,-11.36 11.25,-11.25 11.34,-11.11 11.44,-10.97 11.50,-10.82 11.56,-10.66 11.58,-10.49 11.61,-10.32 11.59,-10.15 11.57,-9.98 11.51,-9.82 11.45,-9.66 11.10,-9.41 10.76,-9.16 10.42,-8.52 10.07,-7.88 9.33,-6.97 8.58,-6.05 7.42,-4.94 6.26,-3.83 4.89,-2.57 3.52,-1.31 2.15,-0.20 0.78,0.91 0.66,0.99 0.54,1.07 0.40,1.12 0.26,1.17 0.12,1.18 -0.01,1.20 -0.16,1.18 -0.30,1.16 -0.44,1.11 -0.57,1.05 -0.69,0.97 -0.81,0.88 -0.90,0.77 -1.00,0.66 -1.06,0.53 -1.13,0.40 -1.16,0.26 -1.19,0.12 -1.19,-0.01 -1.19,-0.16 -1.15,-0.30 -1.11,-0.44 -1.04,-0.57 -0.97,-0.70 -0.88,-0.80 -0.78,-0.91 -0.78,-0.91 L -0.78,-0.91 Z"></path></g><g transform="translate(625.3333740234375 181.3333282470703) rotate(0 9.33331298828125 7.0000152587890625)" stroke="none"><path fill="#1e1e1e" d="M -0.12,-1.23 Q -0.12,-1.23 1.78,-1.51 3.69,-1.78 5.58,-1.68 7.46,-1.59 8.77,-1.56 10.08,-1.53 11.03,-1.52 11.98,-1.51 13.08,-0.94 14.18,-0.37 14.46,0.45 14.73,1.29 13.93,3.02 13.12,4.75 12.22,6.30 11.33,7.85 10.81,9.04 10.30,10.22 10.62,10.75 10.93,11.27 11.41,11.56 11.89,11.85 12.67,11.96 13.45,12.07 14.37,12.40 15.28,12.72 16.66,13.32 18.03,13.93 18.13,13.96 18.24,13.99 18.32,14.05 18.41,14.11 18.47,14.19 18.54,14.28 18.57,14.38 18.60,14.48 18.60,14.58 18.60,14.69 18.57,14.79 18.53,14.89 18.47,14.98 18.41,15.06 18.32,15.12 18.23,15.18 18.13,15.21 18.02,15.23 17.92,15.23 17.81,15.22 17.71,15.18 17.61,15.14 17.53,15.07 17.45,15.00 17.40,14.91 17.34,14.82 17.32,14.72 17.30,14.61 17.31,14.51 17.32,14.40 17.37,14.31 17.41,14.21 17.49,14.13 17.56,14.06 17.66,14.01 17.75,13.96 17.85,13.94 17.96,13.92 18.06,13.94 18.17,13.96 18.26,14.01 18.36,14.06 18.43,14.14 18.50,14.22 18.55,14.31 18.59,14.41 18.60,14.51 18.61,14.62 18.59,14.72 18.56,14.83 18.51,14.92 18.45,15.01 18.37,15.08 18.29,15.15 18.19,15.18 18.09,15.22 17.99,15.23 17.88,15.23 17.88,15.23 17.88,15.23 16.05,15.47 14.23,15.71 13.47,15.43 12.70,15.15 11.34,14.74 9.98,14.33 9.03,13.40 8.08,12.47 7.73,11.02 7.37,9.58 8.00,7.93 8.63,6.28 9.51,4.77 10.39,3.25 11.13,2.35 11.88,1.46 10.93,1.42 9.98,1.39 8.63,1.33 7.29,1.26 5.63,1.14 3.97,1.01 2.04,1.12 0.12,1.23 -0.02,1.23 -0.17,1.23 -0.32,1.19 -0.46,1.15 -0.59,1.08 -0.72,1.00 -0.83,0.90 -0.94,0.80 -1.03,0.68 -1.11,0.55 -1.16,0.41 -1.21,0.27 -1.23,0.12 -1.24,-0.02 -1.22,-0.17 -1.20,-0.32 -1.14,-0.46 -1.09,-0.60 -1.00,-0.72 -0.91,-0.84 -0.79,-0.94 -0.68,-1.03 -0.55,-1.10 -0.41,-1.17 -0.27,-1.20 -0.12,-1.23 -0.12,-1.23 L -0.12,-1.23 Z"></path></g></svg>