<svg version="1.1" xmlns="http://www.w3.org/2000/svg" viewBox="0 0 606.0000610351562 334.0000305175781" width="606.0000610351562" height="334.0000305175781" class="excalidraw-svg"><!-- svg-source:excalidraw --><metadata></metadata><defs><style class="style-fonts">
      </style></defs><rect x="0" y="0" width="606.0000610351562" height="334.0000305175781" fill="#ffffff"></rect><g transform="translate(36 51.333343505859375) rotate(0 3.666656494140625 17)" stroke="none"><path fill="#1e1e1e" d="M 3.82,0.93 Q 3.82,0.93 2.25,10.41 0.68,19.88 1.40,22.87 2.12,25.86 4.08,26.74 6.03,27.62 8.31,27.45 10.59,27.27 11.88,28.20 13.17,29.14 13.50,28.87 13.83,28.59 14.22,28.44 14.62,28.29 15.05,28.27 15.47,28.25 15.88,28.37 16.29,28.49 16.64,28.73 16.98,28.97 17.24,29.32 17.49,29.66 17.62,30.06 17.75,30.46 17.75,30.89 17.74,31.31 17.60,31.72 17.46,32.12 17.20,32.45 16.94,32.79 16.59,33.02 16.23,33.26 15.82,33.37 15.41,33.47 14.99,33.45 14.56,33.42 14.17,33.26 13.78,33.09 13.46,32.82 13.13,32.54 12.92,32.17 12.70,31.80 12.62,31.39 12.53,30.97 12.58,30.55 12.63,30.13 12.82,29.74 13.00,29.36 13.30,29.06 13.59,28.75 13.97,28.56 14.35,28.36 14.77,28.30 15.19,28.23 15.61,28.31 16.02,28.38 16.40,28.58 16.77,28.79 17.06,29.10 17.35,29.41 17.52,29.80 17.69,30.19 17.74,30.61 17.78,31.03 17.68,31.45 17.58,31.86 17.36,32.22 17.14,32.58 17.14,32.58 17.14,32.58 12.15,35.55 7.16,38.51 4.32,38.04 1.48,37.57 -1.36,35.94 -4.22,34.32 -6.27,31.37 -8.33,28.43 -9.11,23.05 -9.88,17.68 -6.85,8.37 -3.82,-0.93 -3.65,-1.38 -3.48,-1.82 -3.22,-2.21 -2.95,-2.60 -2.59,-2.92 -2.24,-3.23 -1.82,-3.45 -1.40,-3.67 -0.94,-3.79 -0.48,-3.90 -0.00,-3.90 0.46,-3.90 0.93,-3.79 1.39,-3.68 1.81,-3.46 2.23,-3.24 2.58,-2.92 2.94,-2.61 3.21,-2.22 3.48,-1.83 3.65,-1.39 3.82,-0.94 3.87,-0.47 3.93,-0.00 3.88,0.46 3.82,0.93 3.82,0.93 L 3.82,0.93 Z"></path></g><g transform="translate(118.66668701171875 44) rotate(0 1.33331298828125 15.333328247070312)" stroke="none"><path fill="#1e1e1e" d="M 2.88,3.30 Q 2.88,3.30 1.59,4.90 0.29,6.50 -1.76,9.57 -3.81,12.64 -4.66,14.95 -5.50,17.25 -3.82,20.27 -2.14,23.28 0.69,23.99 3.53,24.70 6.56,24.33 9.59,23.95 11.21,24.68 12.84,25.40 13.22,25.21 13.60,25.03 14.02,24.97 14.45,24.92 14.86,25.00 15.28,25.08 15.65,25.29 16.02,25.51 16.30,25.82 16.58,26.14 16.75,26.53 16.91,26.92 16.94,27.35 16.98,27.77 16.87,28.18 16.77,28.60 16.53,28.95 16.30,29.31 15.97,29.57 15.64,29.84 15.24,29.98 14.84,30.13 14.41,30.13 13.99,30.14 13.58,30.02 13.18,29.89 12.83,29.64 12.49,29.39 12.24,29.04 12.00,28.70 11.88,28.29 11.75,27.88 11.77,27.46 11.78,27.03 11.93,26.63 12.08,26.24 12.35,25.91 12.62,25.58 12.98,25.35 13.34,25.12 13.75,25.02 14.16,24.92 14.59,24.96 15.01,25.00 15.40,25.17 15.79,25.34 16.10,25.62 16.42,25.91 16.62,26.28 16.83,26.65 16.91,27.07 16.99,27.49 16.93,27.91 16.87,28.33 16.67,28.71 16.48,29.09 16.18,29.39 15.88,29.69 15.88,29.69 15.88,29.69 13.87,32.09 11.86,34.49 9.53,34.92 7.20,35.36 4.33,35.29 1.47,35.23 -1.66,34.47 -4.79,33.71 -7.46,32.01 -10.13,30.31 -12.01,27.92 -13.89,25.52 -14.60,19.45 -15.31,13.37 -14.00,10.25 -12.70,7.12 -11.30,4.97 -9.90,2.83 -8.16,0.84 -6.42,-1.14 -4.65,-2.22 -2.88,-3.30 -2.45,-3.59 -2.01,-3.89 -1.51,-4.08 -1.02,-4.26 -0.49,-4.32 0.02,-4.38 0.55,-4.32 1.07,-4.25 1.56,-4.06 2.06,-3.87 2.49,-3.56 2.92,-3.26 3.27,-2.86 3.62,-2.47 3.86,-2.00 4.11,-1.53 4.23,-1.01 4.35,-0.50 4.35,0.02 4.35,0.55 4.22,1.06 4.09,1.58 3.84,2.04 3.59,2.51 3.24,2.90 2.88,3.30 2.88,3.30 L 2.88,3.30 Z"></path></g><g transform="translate(202.66668701171875 45.333343505859375) rotate(0 0 11.666656494140625)" stroke="none"><path fill="#1e1e1e" d="M -3.94,0.49 Q -3.94,0.49 -4.63,-0.97 -5.31,-2.44 -5.32,-3.04 -5.32,-3.64 -5.18,-4.23 -5.04,-4.81 -4.76,-5.34 -4.48,-5.87 -4.09,-6.32 -3.69,-6.77 -3.20,-7.12 -2.71,-7.46 -2.15,-7.67 -1.59,-7.89 -0.99,-7.96 -0.40,-8.04 0.19,-7.97 0.79,-7.90 1.35,-7.69 1.91,-7.47 2.40,-7.14 2.90,-6.80 3.30,-6.35 3.70,-5.90 3.98,-5.37 4.26,-4.84 4.40,-4.26 4.55,-3.68 1.05,-0.04 -2.43,3.58 -3.81,5.28 -5.19,6.98 -6.54,9.10 -7.90,11.22 -8.69,13.64 -9.48,16.05 -8.33,17.97 -7.17,19.89 -3.35,21.41 0.47,22.92 2.93,22.59 5.40,22.26 9.67,22.47 13.94,22.67 14.35,22.57 14.76,22.48 15.19,22.52 15.61,22.56 16.00,22.74 16.38,22.91 16.70,23.20 17.01,23.49 17.21,23.86 17.41,24.24 17.48,24.65 17.56,25.07 17.49,25.49 17.43,25.91 17.23,26.29 17.04,26.67 16.73,26.96 16.42,27.26 16.04,27.44 15.66,27.62 15.23,27.67 14.81,27.72 14.40,27.63 13.98,27.55 13.61,27.33 13.25,27.11 12.97,26.79 12.69,26.47 12.53,26.08 12.37,25.69 12.34,25.26 12.32,24.84 12.43,24.43 12.54,24.02 12.77,23.66 13.01,23.31 13.34,23.05 13.68,22.79 14.08,22.65 14.48,22.51 14.91,22.51 15.33,22.50 15.74,22.63 16.14,22.77 16.48,23.02 16.82,23.27 17.06,23.62 17.30,23.97 17.42,24.38 17.54,24.79 17.52,25.21 17.50,25.64 17.35,26.04 17.19,26.43 16.92,26.76 16.65,27.08 16.29,27.31 15.92,27.53 15.92,27.53 15.92,27.53 13.38,29.98 10.83,32.44 8.44,32.72 6.06,33.00 1.85,33.08 -2.36,33.17 -6.01,31.93 -9.67,30.69 -12.57,28.52 -15.48,26.35 -17.66,22.55 -19.84,18.75 -19.57,15.63 -19.30,12.51 -17.92,9.01 -16.55,5.50 -14.60,2.70 -12.65,-0.09 -8.98,-1.27 -5.31,-2.44 -5.32,-3.04 -5.32,-3.64 -5.18,-4.23 -5.04,-4.81 -4.76,-5.34 -4.48,-5.87 -4.09,-6.32 -3.69,-6.77 -3.20,-7.12 -2.71,-7.46 -2.15,-7.67 -1.59,-7.89 -0.99,-7.96 -0.40,-8.04 0.19,-7.97 0.79,-7.90 1.35,-7.69 1.91,-7.48 2.40,-7.14 2.90,-6.80 3.30,-6.35 3.70,-5.90 3.98,-5.37 4.26,-4.84 4.40,-4.26 4.55,-3.68 4.25,-2.08 3.94,-0.49 3.95,-0.01 3.95,0.46 3.83,0.93 3.72,1.39 3.50,1.82 3.28,2.24 2.96,2.60 2.64,2.96 2.25,3.24 1.86,3.51 1.41,3.68 0.96,3.86 0.48,3.91 0.01,3.97 -0.46,3.92 -0.93,3.86 -1.38,3.69 -1.83,3.52 -2.23,3.25 -2.62,2.98 -2.94,2.62 -3.26,2.27 -3.49,1.84 -3.71,1.42 -3.83,0.95 -3.94,0.49 -3.94,0.49 L -3.94,0.49 Z"></path></g><g transform="translate(296.66668701171875 38.666656494140625) rotate(0 -3.66668701171875 16.000015258789062)" stroke="none"><path fill="#1e1e1e" d="M 2.37,3.73 Q 2.37,3.73 -1.72,6.59 -5.82,9.45 -7.68,11.14 -9.55,12.84 -10.47,15.50 -11.39,18.17 -9.38,20.80 -7.37,23.44 -5.61,25.04 -3.85,26.65 -0.33,26.64 3.17,26.63 5.77,26.71 8.36,26.79 8.78,26.68 9.19,26.58 9.61,26.62 10.04,26.66 10.43,26.82 10.82,26.99 11.13,27.28 11.45,27.56 11.65,27.93 11.86,28.31 11.94,28.72 12.02,29.14 11.96,29.56 11.90,29.98 11.71,30.36 11.52,30.74 11.22,31.04 10.92,31.34 10.54,31.53 10.15,31.72 9.73,31.77 9.31,31.83 8.89,31.75 8.48,31.66 8.11,31.45 7.74,31.24 7.46,30.93 7.17,30.61 7.01,30.22 6.84,29.83 6.81,29.40 6.78,28.98 6.88,28.57 6.98,28.15 7.21,27.80 7.44,27.44 7.78,27.18 8.11,26.91 8.51,26.77 8.91,26.62 9.33,26.61 9.76,26.60 10.16,26.73 10.57,26.85 10.91,27.10 11.26,27.35 11.50,27.70 11.75,28.04 11.87,28.45 12.00,28.86 11.98,29.28 11.97,29.71 11.82,30.11 11.67,30.50 11.41,30.83 11.14,31.16 10.78,31.39 10.42,31.62 10.42,31.62 10.42,31.62 7.26,34.15 4.10,36.68 0.18,36.78 -3.73,36.89 -7.06,35.54 -10.39,34.20 -12.85,31.87 -15.31,29.55 -17.48,26.48 -19.64,23.42 -20.41,20.46 -21.18,17.49 -20.50,13.98 -19.82,10.47 -17.92,7.99 -16.01,5.52 -13.53,3.39 -11.04,1.27 -6.71,-1.22 -2.37,-3.73 -1.89,-3.96 -1.41,-4.19 -0.89,-4.30 -0.36,-4.41 0.16,-4.39 0.69,-4.37 1.21,-4.22 1.72,-4.07 2.18,-3.81 2.65,-3.54 3.03,-3.17 3.42,-2.81 3.70,-2.35 3.99,-1.90 4.16,-1.40 4.33,-0.89 4.38,-0.36 4.42,0.16 4.34,0.69 4.25,1.22 4.04,1.71 3.84,2.20 3.52,2.63 3.20,3.05 2.78,3.39 2.37,3.73 2.37,3.73 L 2.37,3.73 Z"></path></g><g transform="translate(373.33331298828125 40) rotate(0 -3.33331298828125 16.333343505859375)" stroke="none"><path fill="#1e1e1e" d="M 2.23,3.54 Q 2.23,3.54 -1.27,5.97 -4.78,8.41 -6.73,11.05 -8.69,13.69 -9.73,17.32 -10.78,20.96 -10.04,22.96 -9.31,24.97 -6.35,27.04 -3.38,29.11 -1.09,29.41 1.19,29.70 4.81,30.35 8.43,31.00 8.85,30.97 9.28,30.94 9.69,31.05 10.10,31.15 10.46,31.38 10.81,31.62 11.08,31.95 11.34,32.28 11.48,32.68 11.63,33.08 11.63,33.51 11.64,33.93 11.51,34.34 11.39,34.74 11.14,35.09 10.88,35.43 10.54,35.67 10.19,35.92 9.78,36.04 9.38,36.16 8.95,36.15 8.53,36.13 8.13,35.98 7.73,35.83 7.40,35.56 7.07,35.29 6.85,34.93 6.62,34.57 6.52,34.16 6.42,33.75 6.46,33.33 6.50,32.90 6.67,32.51 6.84,32.12 7.13,31.81 7.41,31.50 7.79,31.29 8.16,31.08 8.58,31.01 8.99,30.93 9.41,30.99 9.83,31.05 10.21,31.24 10.59,31.44 10.89,31.74 11.19,32.04 11.37,32.42 11.56,32.81 11.61,33.23 11.67,33.65 11.58,34.07 11.50,34.48 11.29,34.85 11.08,35.22 10.76,35.50 10.44,35.78 10.05,35.95 9.65,36.11 9.66,36.11 9.66,36.11 7.16,37.84 4.66,39.58 2.03,39.44 -0.59,39.30 -4.21,38.48 -7.83,37.66 -10.99,35.73 -14.16,33.80 -16.29,30.79 -18.42,27.79 -19.31,24.00 -20.20,20.20 -19.43,15.95 -18.66,11.70 -17.28,9.77 -15.89,7.84 -12.84,4.31 -9.78,0.78 -6.01,-1.37 -2.23,-3.54 -1.78,-3.76 -1.32,-3.97 -0.83,-4.07 -0.33,-4.17 0.16,-4.15 0.67,-4.13 1.16,-3.99 1.64,-3.85 2.08,-3.60 2.52,-3.34 2.88,-2.99 3.24,-2.64 3.51,-2.22 3.78,-1.79 3.94,-1.31 4.10,-0.83 4.14,-0.33 4.18,0.17 4.10,0.67 4.02,1.16 3.82,1.63 3.62,2.09 3.32,2.50 3.02,2.90 2.62,3.22 2.23,3.54 2.23,3.54 L 2.23,3.54 Z"></path></g><g transform="translate(469.33331298828125 38.666656494140625) rotate(0 -7.666656494140625 19)" stroke="none"><path fill="#1e1e1e" d="M 1.11,3.63 Q 1.11,3.63 -1.09,5.04 -3.31,6.45 -5.44,8.46 -7.57,10.47 -9.95,13.61 -12.34,16.76 -13.68,19.06 -15.02,21.36 -15.36,24.28 -15.70,27.20 -13.71,29.62 -11.73,32.05 -9.38,32.65 -7.04,33.25 -3.75,32.56 -0.46,31.87 1.93,31.57 4.33,31.27 4.68,31.03 5.02,30.78 5.43,30.66 5.84,30.54 6.26,30.55 6.69,30.56 7.08,30.71 7.48,30.86 7.81,31.13 8.14,31.40 8.37,31.75 8.60,32.11 8.70,32.53 8.80,32.94 8.76,33.36 8.72,33.79 8.55,34.18 8.38,34.57 8.10,34.88 7.81,35.20 7.44,35.40 7.07,35.61 6.65,35.69 6.24,35.77 5.82,35.71 5.39,35.65 5.02,35.46 4.64,35.27 4.34,34.96 4.04,34.66 3.85,34.28 3.66,33.90 3.61,33.48 3.55,33.06 3.64,32.64 3.72,32.22 3.93,31.85 4.14,31.48 4.46,31.20 4.78,30.92 5.17,30.75 5.56,30.59 5.98,30.56 6.41,30.52 6.82,30.63 7.23,30.73 7.59,30.96 7.94,31.19 8.21,31.53 8.47,31.86 8.62,32.26 8.76,32.66 8.77,33.08 8.78,33.51 8.65,33.91 8.53,34.32 8.28,34.66 8.03,35.01 8.03,35.01 8.03,35.01 7.53,37.46 7.03,39.92 5.02,41.11 3.01,42.30 -0.16,43.17 -3.33,44.03 -6.83,43.83 -10.33,43.63 -14.34,42.13 -18.34,40.62 -21.61,37.31 -24.89,34.00 -25.60,29.77 -26.32,25.53 -25.32,20.83 -24.32,16.13 -22.51,13.13 -20.71,10.14 -17.50,6.23 -14.29,2.33 -10.47,-0.52 -6.65,-3.39 -3.88,-3.51 -1.11,-3.63 -0.66,-3.71 -0.21,-3.79 0.24,-3.76 0.69,-3.74 1.13,-3.60 1.57,-3.46 1.96,-3.22 2.35,-2.98 2.68,-2.66 3.00,-2.33 3.23,-1.94 3.47,-1.54 3.61,-1.11 3.74,-0.67 3.77,-0.21 3.79,0.24 3.71,0.69 3.62,1.14 3.43,1.56 3.24,1.98 2.96,2.34 2.68,2.70 2.31,2.98 1.95,3.26 1.53,3.45 1.11,3.63 1.11,3.63 L 1.11,3.63 Z"></path></g><g transform="translate(576.0000610351562 41.333343505859375) rotate(0 1.33331298828125 12.333328247070312)" stroke="none"><path fill="#1e1e1e" d="M -3.32,-3.32 Q -3.32,-3.32 -2.08,-5.14 -0.84,-6.96 -0.40,-7.63 0.04,-8.31 0.57,-8.72 1.10,-9.14 1.71,-9.41 2.32,-9.69 2.98,-9.81 3.65,-9.93 4.32,-9.89 4.99,-9.85 5.63,-9.65 6.27,-9.45 6.85,-9.10 7.42,-8.75 7.90,-8.28 8.37,-7.80 8.72,-7.23 9.07,-6.65 9.27,-6.01 9.47,-5.37 9.51,-4.70 9.55,-4.03 9.43,-3.37 9.30,-2.71 9.03,-2.09 8.75,-1.48 8.34,-0.95 7.92,-0.42 5.04,0.82 2.15,2.08 -1.72,5.19 -5.59,8.30 -7.35,10.46 -9.10,12.62 -9.88,15.96 -10.65,19.30 -7.61,20.93 -4.57,22.56 -1.92,22.73 0.72,22.91 4.19,22.34 7.66,21.77 10.38,21.05 13.10,20.33 14.22,20.90 15.34,21.47 15.45,21.06 15.56,20.65 15.80,20.30 16.04,19.94 16.38,19.69 16.72,19.43 17.12,19.29 17.52,19.16 17.95,19.15 18.37,19.15 18.77,19.29 19.18,19.42 19.52,19.68 19.85,19.94 20.09,20.29 20.33,20.64 20.45,21.05 20.56,21.46 20.54,21.88 20.52,22.31 20.36,22.70 20.20,23.10 19.93,23.42 19.65,23.75 19.29,23.97 18.93,24.19 18.51,24.28 18.10,24.37 17.67,24.32 17.25,24.28 16.87,24.10 16.48,23.92 16.17,23.63 15.86,23.34 15.66,22.96 15.46,22.59 15.39,22.17 15.32,21.75 15.39,21.33 15.46,20.91 15.66,20.54 15.86,20.16 16.16,19.87 16.47,19.57 16.86,19.40 17.24,19.22 17.67,19.17 18.09,19.12 18.50,19.21 18.92,19.30 19.28,19.52 19.65,19.74 19.92,20.07 20.20,20.39 20.36,20.78 20.51,21.18 20.54,21.60 20.56,22.03 20.56,22.03 20.56,22.03 18.44,26.72 16.32,31.42 12.78,32.34 9.25,33.26 4.31,33.84 -0.61,34.42 -5.09,33.70 -9.58,32.99 -13.61,30.55 -17.64,28.11 -19.76,23.89 -21.88,19.67 -21.42,15.32 -20.96,10.98 -19.49,8.13 -18.01,5.27 -15.57,2.41 -13.12,-0.44 -10.03,-3.01 -6.95,-5.59 -3.45,-6.95 0.04,-8.31 0.57,-8.72 1.10,-9.14 1.71,-9.41 2.32,-9.69 2.98,-9.81 3.64,-9.93 4.32,-9.89 4.99,-9.85 5.63,-9.65 6.27,-9.45 6.84,-9.10 7.42,-8.75 7.90,-8.28 8.37,-7.80 8.72,-7.23 9.07,-6.65 9.27,-6.01 9.47,-5.37 9.51,-4.70 9.55,-4.03 9.43,-3.37 9.30,-2.71 9.03,-2.09 8.75,-1.48 8.34,-0.95 7.92,-0.42 7.45,0.20 6.98,0.82 5.15,2.07 3.32,3.32 2.87,3.67 2.43,4.02 1.91,4.25 1.39,4.48 0.84,4.58 0.28,4.68 -0.28,4.65 -0.84,4.62 -1.38,4.45 -1.92,4.28 -2.41,3.99 -2.89,3.69 -3.29,3.29 -3.69,2.89 -3.99,2.41 -4.28,1.92 -4.45,1.38 -4.62,0.84 -4.65,0.28 -4.68,-0.28 -4.58,-0.84 -4.48,-1.39 -4.25,-1.91 -4.02,-2.43 -3.67,-2.87 -3.32,-3.32 -3.32,-3.32 L -3.32,-3.32 Z"></path></g><g transform="translate(461.33331298828125 136.66665649414062) rotate(0 -5.666656494140625 8.66668701171875)" stroke="none"><path fill="#1e1e1e" d="M -3.28,-2.87 Q -3.28,-2.87 -2.22,-4.50 -1.17,-6.14 -2.43,-4.05 -3.69,-1.96 -5.34,-0.48 -7.00,0.99 -9.59,5.05 -12.17,9.12 -12.32,11.26 -12.47,13.41 -10.81,15.97 -9.15,18.54 -6.80,18.97 -4.44,19.41 -1.95,19.75 0.53,20.10 3.68,20.75 6.83,21.40 7.21,21.22 7.60,21.04 8.02,20.99 8.44,20.95 8.86,21.04 9.27,21.13 9.64,21.35 10.00,21.56 10.28,21.89 10.55,22.21 10.71,22.60 10.87,23.00 10.89,23.42 10.92,23.85 10.81,24.26 10.69,24.67 10.46,25.02 10.22,25.37 9.88,25.63 9.55,25.89 9.14,26.02 8.74,26.16 8.32,26.16 7.89,26.16 7.49,26.03 7.08,25.90 6.75,25.64 6.41,25.38 6.17,25.03 5.93,24.68 5.81,24.27 5.70,23.86 5.72,23.44 5.74,23.01 5.90,22.62 6.05,22.22 6.33,21.90 6.60,21.57 6.96,21.35 7.33,21.13 7.74,21.04 8.16,20.95 8.58,20.99 9.00,21.04 9.39,21.21 9.77,21.39 10.08,21.68 10.39,21.97 10.59,22.35 10.79,22.72 10.86,23.14 10.93,23.56 10.87,23.98 10.80,24.40 10.60,24.78 10.40,25.15 10.10,25.45 9.79,25.74 9.79,25.74 9.79,25.74 7.17,28.63 4.55,31.52 1.60,31.63 -1.33,31.74 -4.78,31.09 -8.24,30.44 -12.67,28.52 -17.11,26.60 -19.46,23.55 -21.82,20.51 -22.68,16.32 -23.53,12.13 -22.78,8.11 -22.03,4.09 -19.54,-0.26 -17.05,-4.63 -15.33,-6.23 -13.61,-7.84 -10.27,-10.09 -6.93,-12.34 -2.88,-13.08 1.15,-13.82 3.69,-12.43 6.24,-11.04 7.35,-7.94 8.47,-4.84 7.50,-2.41 6.54,0.00 4.91,1.43 3.28,2.87 2.89,3.22 2.49,3.57 2.03,3.82 1.57,4.06 1.06,4.19 0.55,4.32 0.02,4.32 -0.49,4.33 -1.01,4.20 -1.52,4.08 -1.98,3.84 -2.45,3.60 -2.85,3.25 -3.24,2.91 -3.54,2.48 -3.84,2.05 -4.03,1.55 -4.22,1.06 -4.29,0.54 -4.36,0.02 -4.30,-0.49 -4.24,-1.01 -4.05,-1.51 -3.87,-2.00 -3.57,-2.43 -3.28,-2.87 -3.28,-2.87 L -3.28,-2.87 Z"></path></g><g transform="translate(462.66668701171875 200.00003051757812) rotate(0 -9.333343505859375 12.33331298828125)" stroke="none"><path fill="#1e1e1e" d="M -3.27,-0.46 Q -3.27,-0.46 -2.14,0.55 -1.01,1.57 -3.78,2.01 -6.54,2.45 -10.77,6.64 -14.99,10.83 -16.29,12.84 -17.59,14.85 -17.02,17.78 -16.45,20.71 -13.81,22.05 -11.17,23.39 -6.78,23.62 -2.40,23.84 0.82,25.22 4.05,26.60 4.47,26.70 4.88,26.80 5.24,27.03 5.60,27.25 5.87,27.58 6.14,27.91 6.29,28.31 6.44,28.71 6.45,29.13 6.46,29.56 6.34,29.96 6.22,30.37 5.98,30.72 5.73,31.06 5.39,31.31 5.04,31.56 4.64,31.69 4.23,31.82 3.81,31.81 3.38,31.80 2.98,31.66 2.58,31.51 2.25,31.25 1.92,30.99 1.69,30.63 1.45,30.27 1.35,29.86 1.24,29.45 1.27,29.03 1.31,28.60 1.47,28.21 1.64,27.82 1.92,27.50 2.20,27.18 2.57,26.97 2.94,26.76 3.35,26.68 3.77,26.59 4.19,26.65 4.61,26.70 4.99,26.89 5.38,27.08 5.68,27.37 5.98,27.67 6.17,28.05 6.36,28.43 6.43,28.85 6.49,29.27 6.41,29.69 6.33,30.11 6.12,30.48 5.92,30.85 5.60,31.14 5.29,31.42 4.90,31.59 4.51,31.76 4.09,31.80 3.66,31.84 3.66,31.84 3.66,31.84 0.23,32.72 -3.19,33.61 -8.91,33.01 -14.63,32.42 -17.88,30.88 -21.14,29.34 -23.31,26.67 -25.48,24.01 -26.28,21.03 -27.08,18.06 -26.50,14.10 -25.92,10.13 -24.19,7.40 -22.46,4.67 -18.64,0.33 -14.82,-4.00 -11.88,-5.46 -8.95,-6.91 -3.58,-6.93 1.78,-6.94 2.52,-3.23 3.27,0.46 3.17,0.85 3.06,1.23 2.87,1.58 2.68,1.93 2.41,2.22 2.14,2.52 1.80,2.74 1.47,2.96 1.09,3.09 0.72,3.22 0.32,3.26 -0.06,3.30 -0.46,3.25 -0.85,3.19 -1.22,3.04 -1.59,2.89 -1.92,2.66 -2.24,2.42 -2.50,2.12 -2.76,1.82 -2.93,1.46 -3.11,1.10 -3.20,0.71 -3.29,0.32 -3.28,-0.06 -3.27,-0.46 -3.27,-0.46 L -3.27,-0.46 Z"></path></g><g transform="translate(452 284.0000305175781) rotate(0 -0.666656494140625 3.666656494140625)" stroke="none"><path fill="#1e1e1e" d="M -2.92,-3.40 Q -2.92,-3.40 -1.89,-4.91 -0.86,-6.42 -3.37,-4.18 -5.87,-1.94 -7.33,-0.15 -8.79,1.64 -9.75,4.20 -10.70,6.75 -10.13,8.92 -9.56,11.09 -6.84,12.07 -4.11,13.06 -0.70,13.34 2.71,13.63 5.61,13.79 8.51,13.95 10.68,14.02 12.85,14.08 14.21,15.45 15.58,16.83 16.00,16.84 16.43,16.85 16.83,16.99 17.23,17.14 17.56,17.40 17.89,17.67 18.12,18.03 18.35,18.38 18.45,18.80 18.56,19.21 18.53,19.63 18.49,20.05 18.33,20.45 18.16,20.84 17.88,21.15 17.59,21.47 17.22,21.68 16.85,21.89 16.44,21.97 16.02,22.05 15.60,22.00 15.18,21.94 14.80,21.75 14.42,21.57 14.11,21.27 13.81,20.97 13.62,20.59 13.43,20.21 13.37,19.79 13.32,19.37 13.39,18.95 13.47,18.53 13.68,18.16 13.89,17.79 14.20,17.50 14.52,17.22 14.91,17.05 15.30,16.88 15.72,16.85 16.15,16.81 16.56,16.91 16.97,17.01 17.33,17.24 17.69,17.47 17.96,17.80 18.22,18.13 18.37,18.53 18.52,18.93 18.53,19.35 18.54,19.78 18.42,20.18 18.30,20.59 18.05,20.93 17.80,21.28 17.46,21.53 17.12,21.78 16.71,21.90 16.30,22.03 16.30,22.03 16.30,22.03 14.40,23.86 12.50,25.69 10.17,25.61 7.84,25.52 4.68,25.34 1.52,25.15 -3.01,24.61 -7.56,24.07 -11.67,22.42 -15.79,20.77 -17.67,18.72 -19.54,16.66 -21.01,12.78 -22.49,8.90 -21.81,5.59 -21.13,2.27 -19.27,-1.67 -17.41,-5.63 -14.96,-8.34 -12.50,-11.04 -9.61,-13.04 -6.72,-15.03 -3.92,-16.05 -1.12,-17.08 2.03,-16.92 5.20,-16.75 7.51,-14.94 9.82,-13.13 10.63,-10.73 11.44,-8.33 11.05,-6.14 10.66,-3.95 8.44,-1.06 6.23,1.82 4.57,2.61 2.92,3.40 2.47,3.70 2.02,4.00 1.51,4.19 1.00,4.37 0.46,4.43 -0.07,4.48 -0.60,4.41 -1.14,4.33 -1.64,4.13 -2.15,3.93 -2.59,3.62 -3.03,3.30 -3.38,2.89 -3.73,2.48 -3.97,2.00 -4.22,1.52 -4.34,0.99 -4.46,0.46 -4.45,-0.07 -4.44,-0.61 -4.30,-1.13 -4.16,-1.66 -3.91,-2.13 -3.65,-2.60 -3.28,-3.00 -2.92,-3.40 -2.92,-3.40 L -2.92,-3.40 Z"></path></g><g transform="translate(200.66668701171875 126) rotate(0 -4.66668701171875 9.333343505859375)" stroke="none"><path fill="#1e1e1e" d="M -0.66,3.98 Q -0.66,3.98 -1.41,4.39 -2.16,4.79 -4.06,6.87 -5.95,8.95 -7.49,11.12 -9.03,13.30 -5.62,13.69 -2.20,14.09 -0.11,13.70 1.97,13.32 3.89,14.51 5.81,15.70 6.23,15.65 6.65,15.60 7.07,15.69 7.48,15.78 7.85,15.99 8.22,16.21 8.49,16.53 8.77,16.85 8.93,17.24 9.09,17.64 9.12,18.06 9.15,18.49 9.04,18.90 8.92,19.31 8.69,19.66 8.45,20.01 8.12,20.27 7.78,20.53 7.38,20.67 6.98,20.81 6.55,20.81 6.13,20.82 5.72,20.69 5.32,20.55 4.98,20.30 4.64,20.04 4.40,19.69 4.16,19.34 4.04,18.94 3.92,18.53 3.94,18.10 3.96,17.68 4.12,17.28 4.27,16.89 4.54,16.56 4.82,16.23 5.18,16.01 5.54,15.79 5.96,15.70 6.37,15.60 6.79,15.64 7.21,15.69 7.60,15.86 7.99,16.04 8.30,16.33 8.61,16.62 8.81,16.99 9.01,17.36 9.09,17.78 9.16,18.20 9.09,18.62 9.03,19.04 8.83,19.42 8.64,19.80 8.33,20.09 8.02,20.39 7.64,20.57 7.25,20.75 7.25,20.75 7.26,20.75 5.56,22.97 3.87,25.20 0.90,25.62 -2.06,26.03 -7.76,25.77 -13.45,25.51 -16.24,23.49 -19.02,21.48 -19.91,17.88 -20.80,14.28 -19.45,10.46 -18.10,6.64 -13.94,2.24 -9.79,-2.15 -6.11,-3.85 -2.43,-5.56 -0.88,-4.77 0.66,-3.98 1.13,-3.84 1.59,-3.71 2.01,-3.46 2.44,-3.22 2.79,-2.88 3.14,-2.54 3.39,-2.13 3.65,-1.71 3.81,-1.25 3.96,-0.79 4.00,-0.30 4.03,0.17 3.95,0.65 3.87,1.14 3.68,1.58 3.49,2.03 3.19,2.42 2.90,2.81 2.52,3.11 2.14,3.42 1.70,3.63 1.26,3.83 0.78,3.93 0.30,4.02 -0.17,4.00 -0.66,3.98 -0.66,3.98 L -0.66,3.98 Z"></path></g><g transform="translate(202 194.66665649414062) rotate(0 -2.33331298828125 12.66668701171875)" stroke="none"><path fill="#1e1e1e" d="M -2.85,3.33 Q -2.85,3.33 -3.81,2.93 -4.77,2.54 -8.05,5.16 -11.34,7.78 -12.90,9.57 -14.46,11.35 -15.18,13.39 -15.90,15.42 -14.26,17.67 -12.61,19.92 -10.00,20.53 -7.39,21.15 -4.16,21.73 -0.94,22.31 1.92,21.97 4.79,21.64 7.61,21.16 10.44,20.68 13.53,21.60 16.63,22.51 17.05,22.46 17.47,22.41 17.89,22.50 18.31,22.59 18.67,22.80 19.04,23.02 19.32,23.34 19.59,23.66 19.76,24.06 19.92,24.45 19.94,24.87 19.97,25.30 19.86,25.71 19.75,26.12 19.52,26.47 19.28,26.83 18.94,27.09 18.61,27.35 18.21,27.49 17.81,27.63 17.38,27.63 16.96,27.63 16.55,27.50 16.15,27.37 15.81,27.12 15.47,26.86 15.22,26.51 14.98,26.16 14.87,25.75 14.75,25.35 14.77,24.92 14.79,24.50 14.94,24.10 15.09,23.70 15.37,23.38 15.64,23.05 16.00,22.83 16.36,22.61 16.78,22.51 17.19,22.42 17.61,22.46 18.04,22.50 18.42,22.67 18.81,22.85 19.12,23.14 19.43,23.43 19.64,23.80 19.84,24.18 19.91,24.59 19.98,25.01 19.92,25.43 19.85,25.85 19.66,26.23 19.46,26.61 19.16,26.90 18.85,27.20 18.47,27.38 18.08,27.56 18.08,27.56 18.08,27.56 15.26,30.18 12.43,32.80 9.09,33.33 5.75,33.86 1.33,34.10 -3.09,34.34 -7.11,33.56 -11.13,32.78 -15.63,31.10 -20.14,29.43 -22.54,27.10 -24.94,24.78 -26.33,21.09 -27.73,17.40 -27.36,14.08 -26.99,10.75 -25.16,7.05 -23.32,3.35 -20.68,0.65 -18.05,-2.04 -13.81,-4.55 -9.58,-7.06 -5.09,-7.10 -0.59,-7.14 1.12,-5.23 2.85,-3.33 3.21,-2.94 3.56,-2.55 3.82,-2.08 4.07,-1.62 4.21,-1.11 4.34,-0.59 4.35,-0.07 4.36,0.45 4.24,0.97 4.12,1.48 3.88,1.96 3.65,2.43 3.30,2.83 2.96,3.23 2.53,3.54 2.10,3.85 1.61,4.04 1.11,4.24 0.59,4.31 0.07,4.38 -0.45,4.33 -0.98,4.27 -1.47,4.09 -1.97,3.91 -2.41,3.62 -2.85,3.33 -2.85,3.33 L -2.85,3.33 Z"></path></g><g transform="translate(65.33331298828125 64.66665649414062) rotate(0 7.66668701171875 -0.666656494140625)" stroke="none"><path fill="#1e1e1e" d="M -0.41,-4.59 Q -0.41,-4.59 1.65,-5.20 3.72,-5.81 6.66,-6.25 9.61,-6.69 12.15,-5.31 14.69,-3.93 15.11,-3.88 15.53,-3.83 15.92,-3.65 16.30,-3.47 16.61,-3.18 16.92,-2.88 17.11,-2.51 17.31,-2.13 17.38,-1.71 17.44,-1.29 17.37,-0.87 17.30,-0.45 17.10,-0.08 16.90,0.29 16.59,0.58 16.28,0.87 15.90,1.04 15.51,1.22 15.09,1.27 14.67,1.31 14.25,1.22 13.84,1.12 13.47,0.90 13.11,0.68 12.84,0.36 12.56,0.03 12.41,-0.35 12.25,-0.75 12.23,-1.17 12.21,-1.60 12.32,-2.01 12.44,-2.42 12.68,-2.77 12.92,-3.12 13.26,-3.37 13.60,-3.63 14.00,-3.76 14.40,-3.90 14.83,-3.89 15.25,-3.89 15.66,-3.76 16.06,-3.62 16.40,-3.36 16.73,-3.10 16.97,-2.75 17.21,-2.40 17.32,-1.99 17.43,-1.58 17.41,-1.15 17.38,-0.73 17.22,-0.33 17.06,0.05 16.79,0.37 16.51,0.70 16.15,0.91 15.78,1.13 15.36,1.22 14.95,1.31 14.95,1.31 14.95,1.31 13.15,3.00 11.36,4.70 8.03,4.87 4.70,5.04 2.56,4.81 0.41,4.59 -0.13,4.57 -0.69,4.56 -1.22,4.41 -1.76,4.26 -2.24,3.98 -2.73,3.71 -3.13,3.33 -3.54,2.95 -3.84,2.48 -4.14,2.01 -4.32,1.49 -4.51,0.96 -4.56,0.41 -4.61,-0.13 -4.52,-0.68 -4.44,-1.23 -4.23,-1.75 -4.01,-2.26 -3.68,-2.71 -3.35,-3.16 -2.93,-3.51 -2.50,-3.87 -2.00,-4.11 -1.50,-4.36 -0.96,-4.47 -0.41,-4.59 -0.41,-4.59 L -0.41,-4.59 Z"></path></g><g transform="translate(146.66668701171875 58.666656494140625) rotate(0 7 1.6666717529296875)" stroke="none"><path fill="#1e1e1e" d="M 0,-4.94 Q 0,-4.94 2.51,-5.27 5.02,-5.60 7.95,-5.03 10.88,-4.46 13.09,-1.39 15.30,1.67 15.58,1.99 15.87,2.31 16.03,2.70 16.20,3.09 16.23,3.52 16.26,3.94 16.15,4.35 16.05,4.76 15.82,5.12 15.58,5.48 15.25,5.74 14.92,6.00 14.52,6.15 14.12,6.29 13.69,6.30 13.27,6.31 12.86,6.18 12.46,6.05 12.11,5.80 11.77,5.55 11.53,5.20 11.28,4.86 11.16,4.45 11.04,4.04 11.05,3.62 11.07,3.19 11.22,2.80 11.37,2.40 11.63,2.07 11.90,1.74 12.26,1.51 12.62,1.29 13.04,1.19 13.45,1.09 13.87,1.13 14.29,1.16 14.68,1.33 15.07,1.50 15.39,1.79 15.70,2.08 15.91,2.45 16.11,2.82 16.19,3.24 16.27,3.66 16.21,4.08 16.15,4.50 15.96,4.88 15.76,5.26 15.46,5.55 15.16,5.85 14.78,6.04 14.39,6.22 13.97,6.28 13.55,6.33 13.13,6.25 12.72,6.17 12.35,5.95 11.98,5.74 11.98,5.74 11.98,5.74 8.46,5.67 4.93,5.60 2.46,5.27 0,4.94 -0.59,4.87 -1.18,4.79 -1.74,4.58 -2.29,4.37 -2.78,4.03 -3.27,3.70 -3.67,3.25 -4.06,2.80 -4.34,2.28 -4.62,1.75 -4.76,1.17 -4.90,0.59 -4.90,-0.00 -4.90,-0.59 -4.76,-1.17 -4.62,-1.75 -4.34,-2.28 -4.06,-2.80 -3.67,-3.25 -3.27,-3.70 -2.78,-4.03 -2.29,-4.37 -1.73,-4.58 -1.18,-4.79 -0.59,-4.87 0.00,-4.94 0.00,-4.94 L 0,-4.94 Z"></path></g><g transform="translate(200.66668701171875 90.66665649414062) rotate(0 -0.333343505859375 9.666671752929688)" stroke="none"><path fill="#1e1e1e" d="M 4.05,0.19 Q 4.05,0.19 4.19,4.23 4.33,8.27 4.28,11.27 4.23,14.28 3.10,16.37 1.98,18.45 1.90,18.87 1.82,19.29 1.61,19.66 1.40,20.03 1.09,20.32 0.77,20.60 0.38,20.77 -0.00,20.94 -0.42,20.98 -0.84,21.01 -1.26,20.91 -1.67,20.81 -2.03,20.58 -2.39,20.35 -2.65,20.02 -2.92,19.69 -3.07,19.30 -3.22,18.90 -3.23,18.47 -3.24,18.05 -3.12,17.64 -3.00,17.23 -2.75,16.89 -2.50,16.54 -2.16,16.29 -1.82,16.04 -1.41,15.92 -1.00,15.79 -0.58,15.80 -0.15,15.81 0.23,15.96 0.63,16.10 0.97,16.37 1.30,16.63 1.53,16.99 1.76,17.35 1.86,17.76 1.97,18.17 1.93,18.59 1.90,19.02 1.73,19.41 1.57,19.80 1.29,20.12 1.00,20.43 0.63,20.64 0.26,20.86 -0.14,20.94 -0.56,21.02 -0.98,20.96 -1.40,20.91 -1.78,20.72 -2.16,20.53 -2.47,20.23 -2.77,19.93 -2.96,19.55 -3.15,19.17 -3.21,18.75 -3.27,18.33 -3.27,18.33 -3.27,18.33 -4.29,16.18 -5.32,14.02 -5.21,10.92 -5.10,7.82 -4.57,3.81 -4.05,-0.19 -3.97,-0.67 -3.89,-1.15 -3.69,-1.60 -3.50,-2.05 -3.20,-2.44 -2.90,-2.83 -2.52,-3.14 -2.14,-3.44 -1.70,-3.65 -1.25,-3.86 -0.77,-3.95 -0.29,-4.05 0.19,-4.02 0.68,-4.00 1.15,-3.86 1.61,-3.72 2.04,-3.47 2.46,-3.22 2.81,-2.88 3.16,-2.54 3.42,-2.12 3.68,-1.71 3.83,-1.24 3.98,-0.78 4.02,-0.29 4.05,0.19 4.05,0.19 L 4.05,0.19 Z"></path></g><g transform="translate(204.66668701171875 166.66665649414062) rotate(0 0.33331298828125 7.66668701171875)" stroke="none"><path fill="#1e1e1e" d="M 3.67,0 Q 3.67,0 4.27,3.44 4.87,6.89 4.01,10.77 3.15,14.65 3.13,15.07 3.11,15.50 2.96,15.89 2.80,16.29 2.53,16.62 2.25,16.94 1.89,17.16 1.53,17.38 1.11,17.48 0.70,17.57 0.28,17.53 -0.14,17.49 -0.52,17.31 -0.91,17.13 -1.22,16.84 -1.53,16.55 -1.73,16.18 -1.93,15.80 -2.00,15.39 -2.08,14.97 -2.01,14.55 -1.94,14.13 -1.75,13.75 -1.55,13.37 -1.24,13.08 -0.94,12.79 -0.55,12.60 -0.17,12.42 0.24,12.38 0.67,12.33 1.08,12.42 1.50,12.50 1.86,12.72 2.23,12.94 2.51,13.26 2.78,13.58 2.94,13.98 3.10,14.37 3.13,14.79 3.15,15.22 3.04,15.63 2.93,16.04 2.70,16.39 2.46,16.74 2.12,17.00 1.79,17.26 1.38,17.40 0.98,17.54 0.56,17.54 0.13,17.54 -0.26,17.41 -0.66,17.28 -1.00,17.02 -1.34,16.77 -1.59,16.42 -1.83,16.07 -1.94,15.66 -2.06,15.25 -2.06,15.25 -2.06,15.25 -3.46,11.07 -4.87,6.89 -4.27,3.44 -3.67,0 -3.61,-0.43 -3.56,-0.87 -3.40,-1.29 -3.25,-1.70 -2.99,-2.07 -2.74,-2.43 -2.41,-2.72 -2.08,-3.02 -1.69,-3.22 -1.30,-3.43 -0.87,-3.53 -0.44,-3.64 0.00,-3.64 0.44,-3.64 0.87,-3.53 1.30,-3.43 1.69,-3.22 2.08,-3.02 2.41,-2.72 2.74,-2.43 3.00,-2.07 3.25,-1.70 3.40,-1.29 3.56,-0.87 3.61,-0.43 3.67,0.00 3.67,0.00 L 3.67,0 Z"></path></g><g transform="translate(242.66668701171875 52.666656494140625) rotate(0 2.666656494140625 1.333343505859375)" stroke="none"><path fill="#1e1e1e" d="M 1.49,3.35 Q 1.49,3.35 -0.04,4.54 -1.58,5.72 -2.11,5.88 -2.64,6.04 -3.19,6.07 -3.74,6.11 -4.29,6.00 -4.83,5.90 -5.33,5.67 -5.84,5.44 -6.27,5.10 -6.70,4.76 -7.04,4.32 -7.38,3.88 -7.61,3.38 -7.83,2.87 -7.93,2.33 -8.02,1.78 -7.99,1.23 -7.95,0.68 -7.79,0.15 -7.62,-0.36 -7.33,-0.84 -7.04,-1.31 -6.65,-1.70 -6.26,-2.09 -5.78,-2.37 -5.31,-2.65 -2.65,-2.25 0.00,-1.85 2.58,-2.10 5.16,-2.35 8.04,-1.15 10.91,0.03 11.33,0.10 11.75,0.17 12.13,0.37 12.50,0.57 12.79,0.88 13.09,1.19 13.26,1.58 13.44,1.97 13.48,2.39 13.53,2.81 13.44,3.23 13.34,3.64 13.12,4.00 12.90,4.37 12.58,4.64 12.25,4.92 11.86,5.07 11.46,5.23 11.04,5.25 10.62,5.27 10.21,5.16 9.80,5.04 9.45,4.80 9.09,4.56 8.84,4.22 8.58,3.88 8.45,3.48 8.31,3.08 8.31,2.65 8.32,2.23 8.45,1.83 8.59,1.42 8.85,1.09 9.11,0.75 9.46,0.51 9.81,0.27 10.22,0.16 10.63,0.05 11.06,0.07 11.48,0.10 11.87,0.26 12.27,0.41 12.59,0.69 12.91,0.97 13.13,1.33 13.35,1.70 13.44,2.11 13.53,2.53 13.48,2.95 13.44,3.37 13.26,3.76 13.08,4.14 12.78,4.45 12.49,4.76 12.11,4.95 11.74,5.15 11.32,5.22 10.90,5.29 10.90,5.29 10.90,5.29 6.76,6.42 2.62,7.54 0.51,6.63 -1.58,5.72 -2.11,5.88 -2.64,6.04 -3.19,6.07 -3.74,6.11 -4.29,6.00 -4.83,5.90 -5.33,5.67 -5.84,5.44 -6.27,5.10 -6.70,4.76 -7.04,4.32 -7.38,3.88 -7.61,3.38 -7.83,2.87 -7.93,2.33 -8.02,1.78 -7.99,1.23 -7.95,0.68 -7.79,0.15 -7.62,-0.36 -7.33,-0.84 -7.04,-1.31 -6.65,-1.70 -6.26,-2.09 -5.78,-2.37 -5.31,-2.65 -3.40,-3.00 -1.49,-3.35 -1.06,-3.48 -0.64,-3.61 -0.20,-3.63 0.23,-3.66 0.67,-3.58 1.10,-3.50 1.51,-3.31 1.91,-3.13 2.26,-2.85 2.60,-2.58 2.87,-2.23 3.15,-1.88 3.33,-1.48 3.51,-1.07 3.58,-0.64 3.66,-0.20 3.63,0.23 3.60,0.67 3.47,1.10 3.34,1.52 3.11,1.90 2.87,2.27 2.56,2.58 2.25,2.90 1.87,3.12 1.49,3.35 1.49,3.35 L 1.49,3.35 Z"></path></g><g transform="translate(316 51.333343505859375) rotate(0 11.333343505859375 0.666656494140625)" stroke="none"><path fill="#1e1e1e" d="M 0.22,-4.87 Q 0.22,-4.87 4.45,-5.16 8.69,-5.44 12.57,-5.15 16.44,-4.87 19.38,-3.08 22.31,-1.30 22.73,-1.22 23.15,-1.14 23.52,-0.93 23.89,-0.72 24.17,-0.41 24.46,-0.09 24.63,0.29 24.79,0.68 24.83,1.10 24.86,1.53 24.76,1.94 24.66,2.35 24.43,2.71 24.20,3.07 23.87,3.34 23.54,3.60 23.14,3.75 22.74,3.90 22.32,3.91 21.89,3.92 21.49,3.80 21.08,3.67 20.73,3.42 20.39,3.18 20.14,2.83 19.89,2.49 19.77,2.08 19.64,1.67 19.65,1.25 19.66,0.82 19.81,0.43 19.96,0.03 20.22,-0.30 20.49,-0.63 20.85,-0.86 21.21,-1.08 21.62,-1.19 22.03,-1.29 22.45,-1.26 22.88,-1.22 23.27,-1.05 23.66,-0.89 23.97,-0.60 24.29,-0.32 24.50,0.04 24.71,0.41 24.79,0.83 24.87,1.24 24.81,1.67 24.76,2.09 24.57,2.47 24.38,2.85 24.08,3.15 23.78,3.45 23.40,3.64 23.02,3.83 22.60,3.89 22.18,3.94 22.18,3.94 22.18,3.94 18.48,5.40 14.79,6.86 11.48,6.54 8.16,6.21 3.97,5.54 -0.22,4.87 -0.80,4.77 -1.38,4.67 -1.92,4.44 -2.46,4.21 -2.92,3.85 -3.39,3.50 -3.76,3.04 -4.13,2.58 -4.38,2.05 -4.63,1.52 -4.75,0.94 -4.86,0.36 -4.83,-0.22 -4.81,-0.80 -4.64,-1.37 -4.47,-1.93 -4.18,-2.44 -3.88,-2.95 -3.47,-3.37 -3.06,-3.79 -2.56,-4.10 -2.06,-4.41 -1.50,-4.60 -0.95,-4.78 -0.36,-4.83 0.22,-4.87 0.22,-4.87 L 0.22,-4.87 Z"></path></g><g transform="translate(402 57.333343505859375) rotate(0 10 -0.333343505859375)" stroke="none"><path fill="#1e1e1e" d="M 0,-4.61 Q 0,-4.61 3.25,-5.02 6.51,-5.43 10.25,-5.74 13.98,-6.05 15.71,-4.61 17.43,-3.16 17.85,-3.12 18.27,-3.07 18.66,-2.89 19.04,-2.71 19.35,-2.41 19.66,-2.12 19.86,-1.74 20.05,-1.37 20.12,-0.95 20.19,-0.53 20.12,-0.11 20.04,0.30 19.84,0.67 19.64,1.05 19.33,1.34 19.02,1.63 18.64,1.81 18.25,1.98 17.83,2.03 17.40,2.07 16.99,1.98 16.58,1.88 16.21,1.66 15.85,1.44 15.58,1.12 15.30,0.79 15.15,0.40 14.99,0.00 14.97,-0.41 14.95,-0.84 15.07,-1.25 15.18,-1.66 15.42,-2.01 15.66,-2.36 16.00,-2.61 16.34,-2.87 16.74,-3.00 17.15,-3.14 17.57,-3.13 18.00,-3.13 18.40,-2.99 18.80,-2.86 19.14,-2.60 19.48,-2.34 19.71,-1.99 19.95,-1.63 20.06,-1.22 20.17,-0.81 20.15,-0.39 20.12,0.03 19.96,0.42 19.80,0.81 19.53,1.14 19.25,1.46 18.88,1.68 18.52,1.89 18.10,1.98 17.69,2.07 17.69,2.07 17.69,2.07 16.12,3.68 14.54,5.28 10.53,5.35 6.51,5.43 3.25,5.02 0,4.61 -0.55,4.54 -1.10,4.47 -1.62,4.28 -2.14,4.08 -2.60,3.76 -3.05,3.45 -3.42,3.03 -3.79,2.62 -4.05,2.12 -4.31,1.63 -4.44,1.09 -4.57,0.55 -4.57,-0.00 -4.57,-0.55 -4.44,-1.09 -4.31,-1.63 -4.05,-2.12 -3.79,-2.62 -3.42,-3.03 -3.05,-3.45 -2.60,-3.76 -2.14,-4.08 -1.62,-4.28 -1.10,-4.47 -0.55,-4.54 0.00,-4.61 0.00,-4.61 L 0,-4.61 Z"></path></g><g transform="translate(509.33331298828125 56) rotate(0 13 0)" stroke="none"><path fill="#1e1e1e" d="M 0,-4.25 Q 0,-4.25 3.64,-4.59 7.28,-4.92 10.55,-4.98 13.82,-5.05 17.58,-5.13 21.34,-5.21 23.06,-4.17 24.78,-3.14 25.21,-3.13 25.63,-3.12 26.03,-2.98 26.43,-2.84 26.76,-2.57 27.10,-2.31 27.33,-1.95 27.56,-1.60 27.67,-1.18 27.77,-0.77 27.74,-0.35 27.71,0.07 27.54,0.46 27.38,0.85 27.10,1.17 26.81,1.48 26.45,1.70 26.08,1.91 25.66,1.99 25.24,2.07 24.82,2.02 24.40,1.96 24.02,1.78 23.64,1.59 23.33,1.29 23.03,1.00 22.84,0.62 22.65,0.24 22.59,-0.17 22.53,-0.59 22.61,-1.01 22.68,-1.43 22.89,-1.80 23.10,-2.17 23.41,-2.46 23.73,-2.74 24.11,-2.92 24.50,-3.09 24.93,-3.12 25.35,-3.16 25.76,-3.06 26.18,-2.96 26.54,-2.73 26.90,-2.51 27.16,-2.18 27.43,-1.85 27.58,-1.45 27.73,-1.05 27.75,-0.63 27.76,-0.20 27.64,0.19 27.52,0.60 27.27,0.95 27.02,1.29 26.68,1.54 26.34,1.79 25.93,1.92 25.53,2.05 25.53,2.05 25.53,2.05 23.44,3.63 21.35,5.21 17.59,5.13 13.82,5.05 10.55,4.98 7.28,4.92 3.64,4.59 0,4.25 -0.50,4.19 -1.01,4.13 -1.49,3.95 -1.97,3.77 -2.40,3.48 -2.82,3.18 -3.16,2.80 -3.50,2.41 -3.74,1.96 -3.98,1.51 -4.10,1.01 -4.22,0.51 -4.22,-0.00 -4.22,-0.51 -4.10,-1.01 -3.98,-1.51 -3.74,-1.96 -3.50,-2.42 -3.16,-2.80 -2.82,-3.18 -2.40,-3.48 -1.97,-3.77 -1.49,-3.95 -1.01,-4.13 -0.50,-4.19 0.00,-4.25 0.00,-4.25 L 0,-4.25 Z"></path></g><g transform="translate(464.66668701171875 95.33334350585938) rotate(0 0 10.666656494140625)" stroke="none"><path fill="#1e1e1e" d="M 4.17,0 Q 4.17,0 4.65,4.40 5.14,8.81 5.18,12.03 5.21,15.24 3.92,17.74 2.62,20.23 2.55,20.65 2.48,21.07 2.29,21.44 2.09,21.82 1.78,22.11 1.47,22.40 1.08,22.58 0.70,22.76 0.28,22.81 -0.14,22.85 -0.55,22.76 -0.97,22.67 -1.33,22.45 -1.70,22.23 -1.97,21.91 -2.25,21.58 -2.40,21.19 -2.56,20.79 -2.58,20.37 -2.61,19.94 -2.49,19.54 -2.38,19.13 -2.14,18.77 -1.90,18.42 -1.56,18.17 -1.23,17.91 -0.82,17.77 -0.42,17.64 0.00,17.64 0.42,17.64 0.82,17.77 1.23,17.91 1.56,18.17 1.90,18.42 2.14,18.77 2.38,19.13 2.49,19.54 2.61,19.95 2.58,20.37 2.56,20.79 2.40,21.19 2.25,21.58 1.97,21.91 1.69,22.23 1.33,22.45 0.97,22.67 0.55,22.76 0.14,22.85 -0.28,22.81 -0.70,22.76 -1.08,22.58 -1.47,22.40 -1.78,22.11 -2.09,21.82 -2.29,21.44 -2.48,21.07 -2.55,20.65 -2.62,20.23 -2.62,20.23 -2.62,20.23 -3.92,17.74 -5.21,15.24 -5.18,12.03 -5.14,8.81 -4.65,4.40 -4.17,0 -4.11,-0.49 -4.05,-0.99 -3.87,-1.46 -3.69,-1.93 -3.40,-2.35 -3.12,-2.76 -2.74,-3.09 -2.36,-3.43 -1.92,-3.66 -1.47,-3.90 -0.99,-4.02 -0.50,-4.14 0.00,-4.14 0.50,-4.14 0.99,-4.02 1.47,-3.90 1.92,-3.66 2.36,-3.43 2.74,-3.09 3.12,-2.76 3.40,-2.35 3.69,-1.93 3.87,-1.46 4.05,-0.99 4.11,-0.49 4.17,0.00 4.17,0.00 L 4.17,0 Z"></path></g><g transform="translate(457.33331298828125 176.00003051757812) rotate(0 2.333343505859375 7)" stroke="none"><path fill="#1e1e1e" d="M 3.99,-1.42 Q 3.99,-1.42 5.34,1.11 6.69,3.66 6.79,8.09 6.89,12.52 6.99,12.93 7.09,13.35 7.06,13.77 7.02,14.19 6.85,14.58 6.68,14.97 6.40,15.29 6.12,15.60 5.75,15.81 5.38,16.02 4.96,16.10 4.54,16.18 4.12,16.12 3.70,16.07 3.32,15.88 2.94,15.69 2.64,15.39 2.34,15.09 2.15,14.70 1.96,14.32 1.90,13.90 1.85,13.48 1.93,13.06 2.01,12.65 2.22,12.28 2.43,11.91 2.74,11.62 3.06,11.34 3.45,11.17 3.84,11.01 4.27,10.97 4.69,10.94 5.10,11.04 5.51,11.14 5.87,11.37 6.23,11.60 6.50,11.93 6.76,12.27 6.91,12.66 7.05,13.06 7.06,13.49 7.08,13.91 6.95,14.32 6.82,14.73 6.58,15.07 6.33,15.42 5.98,15.66 5.64,15.91 5.23,16.03 4.82,16.16 4.40,16.15 3.97,16.13 3.58,15.99 3.18,15.84 2.85,15.57 2.52,15.31 2.29,14.95 2.06,14.59 2.06,14.59 2.06,14.59 -0.39,10.83 -2.85,7.07 -3.42,4.24 -3.99,1.42 -4.10,0.92 -4.21,0.42 -4.20,-0.08 -4.19,-0.59 -4.06,-1.08 -3.93,-1.58 -3.68,-2.02 -3.44,-2.47 -3.09,-2.85 -2.74,-3.22 -2.32,-3.50 -1.89,-3.79 -1.41,-3.96 -0.93,-4.13 -0.42,-4.18 0.08,-4.23 0.58,-4.16 1.09,-4.09 1.56,-3.90 2.04,-3.71 2.45,-3.41 2.87,-3.11 3.20,-2.72 3.53,-2.33 3.76,-1.88 3.99,-1.42 3.99,-1.42 L 3.99,-1.42 Z"></path></g><g transform="translate(454 249.33334350585938) rotate(0 2 6)" stroke="none"><path fill="#1e1e1e" d="M 3.88,-2.33 Q 3.88,-2.33 5.44,-0.60 6.99,1.12 7.62,3.29 8.25,5.47 7.09,8.84 5.94,12.22 5.89,12.64 5.84,13.06 5.66,13.45 5.47,13.83 5.18,14.14 4.88,14.44 4.50,14.64 4.13,14.83 3.71,14.90 3.29,14.96 2.87,14.89 2.45,14.82 2.08,14.61 1.70,14.41 1.41,14.10 1.12,13.79 0.95,13.40 0.78,13.01 0.73,12.59 0.69,12.17 0.79,11.75 0.88,11.34 1.11,10.98 1.33,10.62 1.66,10.34 1.98,10.07 2.38,9.92 2.78,9.77 3.20,9.75 3.62,9.73 4.03,9.85 4.44,9.96 4.79,10.21 5.14,10.45 5.39,10.79 5.65,11.13 5.78,11.53 5.91,11.94 5.91,12.36 5.90,12.79 5.76,13.19 5.62,13.59 5.36,13.93 5.10,14.26 4.75,14.50 4.39,14.73 3.98,14.84 3.57,14.95 3.15,14.92 2.72,14.90 2.33,14.73 1.94,14.57 1.62,14.29 1.29,14.02 1.08,13.65 0.86,13.28 0.78,12.87 0.69,12.45 0.69,12.45 0.69,12.45 -0.84,9.49 -2.39,6.53 -3.14,4.43 -3.88,2.33 -4.11,1.83 -4.33,1.33 -4.43,0.79 -4.52,0.25 -4.49,-0.28 -4.45,-0.83 -4.29,-1.35 -4.12,-1.87 -3.84,-2.34 -3.55,-2.80 -3.17,-3.19 -2.78,-3.57 -2.31,-3.85 -1.84,-4.14 -1.32,-4.30 -0.80,-4.46 -0.25,-4.49 0.28,-4.52 0.82,-4.42 1.36,-4.32 1.86,-4.09 2.35,-3.87 2.78,-3.53 3.21,-3.19 3.55,-2.76 3.88,-2.33 3.88,-2.33 L 3.88,-2.33 Z"></path></g><g stroke-opacity="0.4" fill-opacity="0.4" transform="translate(36 103.33334350585938) rotate(0 217.33334350585938 63.66667175292969)" stroke="none"><path d="M1.57 1.71 C2.38 1.32, 0.65 0.02, 2.96 0.08 C5.27 0.14, 9.42 2.27, 15.42 2.09 C21.43 1.91, 28.18 0.63, 38.98 -0.98 C49.77 -2.6, 70.75 -7.1, 80.2 -7.61 C89.65 -8.11, 83.58 -4.32, 95.68 -4 C107.78 -3.69, 122.78 -5.26, 152.8 -5.72 C182.83 -6.18, 254.06 -6.46, 275.83 -6.76 C297.59 -7.06, 276.56 -7.02, 283.39 -7.52 C290.23 -8.03, 304.54 -9.6, 316.84 -9.8 C329.14 -9.99, 347.71 -9.95, 357.2 -8.69 C366.69 -7.43, 369.57 -4.3, 373.78 -2.22 C378 -0.15, 379.5 0.86, 382.5 3.77 C385.5 6.67, 388.89 10.13, 391.76 15.2 C394.64 20.26, 399.15 25.8, 399.73 34.16 C400.32 42.52, 398.8 50.19, 395.28 65.37 C391.76 80.55, 381.34 109.97, 378.6 125.25 C375.87 140.54, 378.99 149.14, 378.87 157.08 C378.75 165.02, 377.88 167.71, 377.89 172.92 C377.9 178.13, 378.62 184.48, 378.91 188.35 C379.2 192.23, 378.25 192.46, 379.62 196.18 C381 199.9, 383.95 207.22, 387.17 210.67 C390.38 214.13, 395.71 215.34, 398.91 216.9 C402.1 218.46, 403.62 219.48, 406.33 220.05 C409.05 220.62, 411.65 220.62, 415.2 220.31 C418.75 220, 424.27 220.41, 427.62 218.19 C430.96 215.96, 430.24 221.59, 435.27 206.97 C440.31 192.35, 453.28 146.16, 457.81 130.46 C462.34 114.77, 462.41 118.66, 462.48 112.79 C462.55 106.92, 459.43 103.76, 458.22 95.24 C457.01 86.72, 457.62 73.57, 455.22 61.65 C452.81 49.72, 446.45 32.78, 443.78 23.67 C441.11 14.57, 439.48 11.77, 439.19 7.03 C438.91 2.3, 439.68 1.63, 442.08 -4.74 C444.48 -11.11, 451.27 -24.52, 453.58 -31.17 C455.89 -37.81, 455.8 -39.65, 455.93 -44.62 C456.06 -49.6, 454.19 -57.76, 454.38 -61.03 C454.57 -64.31, 457.94 -62.85, 457.07 -64.26 C456.19 -65.68, 450.79 -67.68, 449.12 -69.53 C447.45 -71.38, 458.99 -72.2, 447.04 -75.37 C435.1 -78.54, 396.65 -85.87, 377.46 -88.53 C358.27 -91.19, 354.03 -90.4, 331.92 -91.33 C309.81 -92.26, 262.55 -93.9, 244.8 -94.1 C227.04 -94.3, 237.21 -93.04, 225.38 -92.53 C213.55 -92.01, 188.87 -91.32, 173.79 -90.99 C158.71 -90.66, 146.69 -91.11, 134.9 -90.56 C123.11 -90.01, 111.13 -88.24, 103.06 -87.7 C94.99 -87.17, 92.02 -87.41, 86.48 -87.36 C80.93 -87.31, 75.96 -86.93, 69.8 -87.42 C63.63 -87.91, 56.31 -90.28, 49.5 -90.3 C42.69 -90.32, 34.08 -88.13, 28.94 -87.55 C23.81 -86.98, 24.79 -89.57, 18.72 -86.85 C12.64 -84.14, -2.03 -75.15, -7.51 -71.26 C-12.99 -67.36, -11.43 -67.86, -14.15 -63.49 C-16.88 -59.12, -21.69 -49.7, -23.86 -45.03 C-26.02 -40.36, -27.07 -37.82, -27.14 -35.47 C-27.2 -33.13, -26.85 -35.61, -24.25 -30.95 C-21.65 -26.28, -15.07 -11.95, -11.54 -7.49 C-8.01 -3.02, -5.32 -5.34, -3.09 -4.15 C-0.85 -2.95, 1.36 -0.38, 1.84 -0.32" stroke="none" stroke-width="0" fill="#ffec99" fill-rule="evenodd"></path><path fill="#f08c00" d="M -0.25,-1.00 Q -0.25,-1.00 1.25,-1.48 2.76,-1.96 4.26,-2.17 5.76,-2.38 7.26,-2.27 8.76,-2.16 10.52,-1.93 12.29,-1.69 14.12,-1.60 15.95,-1.51 18.01,-1.66 20.07,-1.81 21.96,-1.87 23.85,-1.94 26.73,-2.15 29.60,-2.37 32.40,-2.46 35.19,-2.56 38.65,-2.79 42.10,-3.02 45.09,-3.31 48.08,-3.60 50.88,-3.91 53.68,-4.22 57.16,-4.74 60.63,-5.25 64.24,-5.67 67.86,-6.08 71.31,-6.45 74.76,-6.82 79.53,-6.98 84.30,-7.14 88.27,-7.01 92.24,-6.89 95.58,-7.03 98.92,-7.18 102.68,-7.25 106.44,-7.31 110.72,-7.35 115.00,-7.38 118.70,-7.59 122.40,-7.80 126.85,-8.08 131.31,-8.36 135.14,-8.49 138.98,-8.61 142.88,-8.86 146.78,-9.10 151.15,-9.21 155.53,-9.32 159.34,-9.18 163.15,-9.04 167.99,-8.98 172.83,-8.92 177.61,-8.71 182.38,-8.50 187.06,-8.42 191.74,-8.33 196.22,-8.30 200.70,-8.26 205.45,-8.45 210.20,-8.63 214.93,-8.71 219.67,-8.79 223.98,-8.82 228.29,-8.86 233.60,-8.68 238.91,-8.51 243.28,-8.24 247.66,-7.98 252.51,-8.06 257.37,-8.14 262.56,-7.99 267.75,-7.83 272.17,-8.15 276.58,-8.46 281.01,-8.60 285.44,-8.73 289.78,-8.98 294.12,-9.23 298.30,-9.34 302.48,-9.45 306.52,-9.68 310.56,-9.92 314.42,-10.02 318.28,-10.12 321.84,-10.17 325.40,-10.21 329.44,-10.04 333.49,-9.86 336.94,-9.60 340.39,-9.33 343.16,-9.22 345.93,-9.11 348.87,-8.86 351.82,-8.62 354.90,-7.93 357.97,-7.23 360.25,-6.55 362.52,-5.87 364.62,-5.19 366.73,-4.52 369.17,-3.65 371.62,-2.79 373.90,-1.61 376.18,-0.43 378.51,1.03 380.84,2.51 382.84,4.13 384.84,5.76 386.30,7.26 387.76,8.75 389.07,9.89 390.38,11.03 391.76,12.33 393.13,13.64 394.44,16.11 395.74,18.59 396.64,20.97 397.55,23.35 398.32,25.92 399.09,28.49 399.43,30.83 399.78,33.16 399.54,36.39 399.29,39.62 398.60,43.48 397.91,47.34 397.23,50.51 396.56,53.68 396.09,56.70 395.62,59.72 394.83,63.55 394.05,67.38 393.33,70.54 392.61,73.70 391.92,76.76 391.24,79.82 390.57,83.58 389.90,87.34 389.02,90.73 388.15,94.13 387.41,97.62 386.66,101.11 385.77,104.93 384.87,108.74 384.11,112.08 383.35,115.41 382.84,118.14 382.33,120.87 381.92,123.92 381.52,126.97 381.35,129.76 381.18,132.55 380.91,134.77 380.64,136.98 380.53,139.57 380.42,142.15 380.38,144.41 380.33,146.67 380.11,149.22 379.90,151.77 379.81,154.32 379.73,156.88 379.69,159.69 379.66,162.50 379.64,164.85 379.62,167.20 379.62,169.53 379.61,171.87 379.80,174.73 379.99,177.59 380.07,180.00 380.15,182.41 380.56,184.65 380.97,186.90 381.32,188.21 381.68,189.53 382.22,191.66 382.76,193.79 383.91,196.49 385.06,199.20 386.30,201.48 387.54,203.75 388.25,204.90 388.95,206.05 389.73,206.79 390.50,207.53 391.73,208.40 392.97,209.26 394.67,210.42 396.37,211.58 398.95,213.00 401.54,214.41 403.75,215.38 405.96,216.35 407.97,216.93 409.99,217.51 411.98,217.95 413.98,218.39 415.82,218.37 417.67,218.36 419.67,218.01 421.67,217.67 424.94,214.61 428.21,211.55 430.00,208.80 431.78,206.05 432.55,204.52 433.32,202.98 434.22,200.81 435.11,198.65 435.88,196.58 436.64,194.52 437.52,191.39 438.41,188.26 439.56,184.58 440.72,180.90 441.39,178.42 442.06,175.94 442.95,173.47 443.83,171.00 444.38,169.41 444.94,167.81 445.56,165.99 446.18,164.17 446.84,162.57 447.51,160.97 448.13,158.69 448.76,156.41 449.42,154.22 450.09,152.04 450.95,149.20 451.80,146.37 452.36,144.58 452.92,142.80 453.52,140.36 454.13,137.93 454.97,135.11 455.82,132.29 456.36,130.36 456.91,128.42 457.31,126.14 457.72,123.86 457.88,121.59 458.05,119.33 458.32,116.78 458.59,114.22 458.70,111.86 458.80,109.49 458.85,105.04 458.89,100.60 458.72,97.60 458.55,94.60 458.29,90.63 458.02,86.66 457.72,83.65 457.42,80.65 456.72,75.95 456.02,71.25 455.35,68.34 454.68,65.44 452.69,59.86 450.70,54.28 449.65,51.29 448.60,48.31 446.64,43.43 444.67,38.56 443.25,34.72 441.82,30.89 441.20,28.62 440.57,26.36 439.93,24.09 439.30,21.82 438.82,19.65 438.34,17.49 437.95,15.62 437.56,13.76 437.20,11.19 436.83,8.62 436.86,6.26 436.89,3.91 437.11,1.75 437.32,-0.40 437.61,-2.12 437.89,-3.83 438.23,-5.01 438.56,-6.19 439.29,-8.07 440.02,-9.95 440.91,-12.08 441.79,-14.20 442.73,-16.61 443.67,-19.03 444.47,-20.86 445.27,-22.69 445.97,-24.56 446.67,-26.43 447.60,-28.13 448.53,-29.82 449.24,-31.72 449.94,-33.62 450.64,-35.61 451.34,-37.60 452.01,-39.76 452.69,-41.93 453.17,-43.44 453.65,-44.95 453.83,-46.22 454.00,-47.49 454.08,-48.97 454.16,-50.46 454.19,-51.48 454.23,-52.51 454.25,-53.32 454.26,-54.14 454.27,-55.62 454.28,-57.11 454.11,-57.75 453.94,-58.39 453.84,-59.43 453.74,-60.48 453.53,-61.55 453.32,-62.61 452.88,-63.73 452.44,-64.85 451.74,-66.01 451.03,-67.17 450.10,-67.91 449.17,-68.64 447.82,-69.56 446.47,-70.47 445.24,-71.01 444.00,-71.54 441.75,-72.35 439.49,-73.16 437.44,-73.68 435.39,-74.20 433.01,-74.61 430.64,-75.02 427.08,-75.78 423.52,-76.54 419.52,-77.44 415.52,-78.34 412.46,-79.11 409.40,-79.87 404.31,-80.96 399.21,-82.04 395.31,-82.89 391.40,-83.74 387.83,-84.48 384.27,-85.22 379.16,-85.91 374.06,-86.60 368.24,-87.28 362.42,-87.96 357.09,-88.44 351.76,-88.92 346.59,-89.51 341.42,-90.10 335.65,-90.34 329.87,-90.59 324.51,-90.89 319.15,-91.19 310.58,-91.32 302.02,-91.45 296.67,-91.32 291.32,-91.18 286.34,-91.13 281.36,-91.07 276.34,-91.24 271.31,-91.41 266.14,-91.48 260.97,-91.56 256.67,-91.59 252.36,-91.62 246.92,-91.44 241.48,-91.27 236.45,-91.19 231.43,-91.12 226.09,-90.71 220.75,-90.29 214.45,-89.74 208.14,-89.18 203.90,-88.94 199.66,-88.70 192.70,-88.22 185.74,-87.74 182.20,-87.53 178.65,-87.32 175.01,-87.24 171.37,-87.15 166.37,-87.11 161.38,-87.08 158.87,-87.06 156.37,-87.05 150.48,-87.23 144.60,-87.42 141.54,-87.50 138.48,-87.58 135.52,-87.42 132.55,-87.27 129.57,-87.01 126.59,-86.76 123.15,-86.64 119.72,-86.53 115.62,-86.29 111.52,-86.06 108.45,-85.77 105.39,-85.48 102.11,-85.35 98.83,-85.22 95.14,-85.17 91.45,-85.12 87.73,-85.29 84.01,-85.46 79.72,-85.92 75.43,-86.38 72.32,-86.57 69.21,-86.76 66.13,-87.03 63.04,-87.31 60.44,-87.42 57.83,-87.54 54.81,-87.59 51.80,-87.64 49.23,-87.47 46.66,-87.30 44.43,-87.04 42.20,-86.78 40.11,-86.48 38.02,-86.17 35.78,-85.85 33.54,-85.53 30.90,-85.02 28.26,-84.51 25.96,-84.09 23.67,-83.68 21.46,-82.95 19.25,-82.23 16.43,-80.98 13.60,-79.73 11.02,-78.62 8.45,-77.50 4.90,-75.70 1.36,-73.90 -0.54,-72.94 -2.44,-71.98 -3.56,-71.23 -4.67,-70.49 -6.04,-69.26 -7.42,-68.03 -9.21,-66.51 -10.99,-65.00 -12.22,-63.49 -13.45,-61.99 -14.42,-60.91 -15.38,-59.83 -16.28,-58.34 -17.17,-56.85 -18.19,-55.37 -19.20,-53.89 -19.79,-52.93 -20.38,-51.96 -21.01,-50.81 -21.63,-49.66 -22.28,-48.40 -22.93,-47.14 -23.18,-46.49 -23.42,-45.84 -23.72,-44.98 -24.03,-44.12 -24.12,-42.60 -24.21,-41.08 -24.27,-39.61 -24.32,-38.15 -24.35,-37.33 -24.37,-36.51 -24.20,-35.54 -24.03,-34.57 -23.78,-33.59 -23.52,-32.61 -23.24,-31.86 -22.96,-31.11 -22.13,-29.73 -21.30,-28.36 -20.34,-26.76 -19.39,-25.17 -18.58,-23.70 -17.78,-22.22 -16.90,-20.90 -16.02,-19.57 -15.29,-18.66 -14.57,-17.74 -13.65,-16.55 -12.74,-15.35 -12.26,-14.31 -11.79,-13.26 -11.49,-12.80 -11.19,-12.33 -10.82,-11.67 -10.46,-11.00 -10.26,-10.41 -10.06,-9.83 -9.65,-9.34 -9.25,-8.86 -8.67,-7.97 -8.09,-7.08 -7.45,-6.41 -6.80,-5.74 -6.13,-5.04 -5.46,-4.34 -4.85,-3.98 -4.25,-3.62 -2.23,-3.14 -0.21,-2.65 -0.11,-2.63 -0.00,-2.62 0.08,-2.57 0.18,-2.52 0.25,-2.44 0.32,-2.36 0.37,-2.27 0.41,-2.17 0.42,-2.06 0.43,-1.96 0.41,-1.85 0.39,-1.75 0.33,-1.66 0.27,-1.57 0.19,-1.50 0.11,-1.43 0.01,-1.39 -0.08,-1.35 -0.18,-1.35 -0.29,-1.34 -0.39,-1.37 -0.49,-1.40 -0.58,-1.46 -0.67,-1.52 -0.73,-1.61 -0.80,-1.69 -0.83,-1.79 -0.86,-1.89 -0.86,-2.00 -0.86,-2.11 -0.83,-2.21 -0.79,-2.31 -0.73,-2.39 -0.66,-2.47 -0.57,-2.53 -0.49,-2.59 -0.38,-2.62 -0.28,-2.65 -0.18,-2.64 -0.07,-2.64 0.02,-2.60 0.12,-2.56 0.20,-2.49 0.28,-2.42 0.33,-2.33 0.39,-2.24 0.41,-2.13 0.43,-2.03 0.42,-1.92 0.41,-1.82 0.36,-1.72 0.32,-1.62 0.24,-1.55 0.17,-1.47 0.08,-1.42 -0.01,-1.37 -0.11,-1.36 -0.22,-1.34 -0.22,-1.34 -0.22,-1.34 -2.60,-1.02 -4.98,-0.70 -5.75,-1.11 -6.53,-1.52 -7.09,-1.84 -7.65,-2.17 -8.06,-2.59 -8.47,-3.02 -8.86,-3.65 -9.26,-4.29 -9.73,-4.56 -10.21,-4.84 -10.59,-5.37 -10.96,-5.90 -11.30,-6.38 -11.63,-6.85 -11.98,-7.28 -12.34,-7.71 -12.77,-8.61 -13.21,-9.50 -13.53,-10.09 -13.85,-10.67 -14.26,-11.34 -14.67,-12.01 -14.96,-12.73 -15.25,-13.46 -16.14,-14.62 -17.04,-15.78 -17.85,-16.81 -18.66,-17.83 -19.60,-19.27 -20.55,-20.71 -21.32,-22.13 -22.10,-23.54 -23.06,-25.14 -24.01,-26.74 -24.97,-28.37 -25.93,-30.00 -26.26,-30.91 -26.60,-31.82 -26.88,-32.94 -27.16,-34.06 -27.36,-35.33 -27.55,-36.59 -27.52,-37.43 -27.50,-38.27 -27.44,-39.80 -27.39,-41.32 -27.22,-43.24 -27.05,-45.15 -26.73,-46.07 -26.41,-46.98 -26.10,-47.80 -25.78,-48.61 -25.12,-49.90 -24.46,-51.19 -23.79,-52.42 -23.13,-53.65 -22.50,-54.68 -21.86,-55.71 -20.89,-57.13 -19.93,-58.54 -18.87,-60.26 -17.80,-61.97 -16.87,-63.02 -15.94,-64.06 -14.52,-65.76 -13.09,-67.46 -11.33,-68.96 -9.57,-70.46 -8.01,-71.82 -6.46,-73.18 -5.18,-74.02 -3.91,-74.86 -2.00,-75.83 -0.09,-76.79 3.53,-78.63 7.16,-80.47 9.73,-81.58 12.30,-82.70 15.27,-84.00 18.25,-85.31 20.67,-86.09 23.09,-86.86 25.37,-87.28 27.64,-87.69 30.36,-88.21 33.08,-88.74 35.32,-89.06 37.56,-89.38 39.69,-89.69 41.83,-89.99 44.14,-90.26 46.45,-90.53 49.15,-90.70 51.85,-90.87 54.91,-90.82 57.97,-90.78 60.65,-90.66 63.33,-90.54 66.37,-90.27 69.41,-89.99 72.59,-89.80 75.77,-89.60 79.97,-89.15 84.16,-88.70 87.78,-88.53 91.40,-88.36 95.06,-88.42 98.71,-88.47 101.90,-88.59 105.08,-88.71 108.21,-89.01 111.33,-89.30 115.47,-89.54 119.62,-89.78 122.96,-89.89 126.31,-90.00 129.35,-90.26 132.38,-90.52 135.47,-90.68 138.56,-90.84 141.63,-90.77 144.70,-90.69 150.53,-90.51 156.35,-90.32 158.85,-90.34 161.35,-90.36 166.32,-90.39 171.29,-90.43 174.88,-90.52 178.46,-90.61 181.99,-90.81 185.51,-91.02 192.49,-91.51 199.47,-91.99 203.66,-92.23 207.85,-92.47 214.17,-93.03 220.50,-93.59 225.94,-94.01 231.38,-94.43 236.37,-94.51 241.37,-94.58 246.87,-94.77 252.38,-94.95 256.70,-94.92 261.02,-94.89 266.22,-94.82 271.42,-94.75 276.37,-94.59 281.32,-94.43 286.28,-94.49 291.24,-94.55 296.65,-94.69 302.07,-94.83 310.70,-94.71 319.34,-94.59 324.68,-94.29 330.02,-93.99 335.91,-93.74 341.80,-93.49 346.93,-92.90 352.06,-92.32 357.44,-91.83 362.82,-91.35 368.67,-90.67 374.52,-89.99 379.74,-89.28 384.96,-88.57 388.54,-87.82 392.13,-87.08 396.03,-86.23 399.93,-85.39 405.08,-84.29 410.24,-83.19 413.25,-82.43 416.27,-81.67 420.25,-80.78 424.24,-79.88 427.73,-79.14 431.23,-78.39 433.73,-77.95 436.24,-77.51 438.44,-76.94 440.65,-76.37 443.02,-75.52 445.38,-74.67 446.89,-73.98 448.39,-73.30 449.89,-72.27 451.39,-71.25 452.66,-70.11 453.93,-68.97 454.78,-67.52 455.63,-66.08 456.15,-64.68 456.67,-63.28 456.91,-62.02 457.15,-60.77 457.21,-59.96 457.28,-59.15 457.48,-58.13 457.69,-57.11 457.69,-55.59 457.68,-54.07 457.67,-53.23 457.65,-52.39 457.61,-51.33 457.57,-50.27 457.48,-48.63 457.38,-47.00 457.15,-45.46 456.91,-43.92 456.43,-42.41 455.95,-40.91 455.26,-38.69 454.57,-36.46 453.85,-34.44 453.14,-32.42 452.33,-30.29 451.52,-28.16 450.70,-26.70 449.87,-25.23 449.13,-23.27 448.40,-21.32 447.63,-19.55 446.86,-17.78 445.90,-15.34 444.95,-12.89 444.08,-10.80 443.21,-8.70 442.53,-6.98 441.85,-5.25 441.56,-4.26 441.27,-3.26 440.99,-1.66 440.72,-0.06 440.52,1.95 440.31,3.97 440.26,6.06 440.22,8.14 440.56,10.60 440.91,13.06 441.30,14.91 441.68,16.76 442.13,18.83 442.58,20.90 443.22,23.18 443.86,25.46 444.44,27.58 445.02,29.70 446.43,33.49 447.83,37.28 449.83,42.23 451.82,47.18 452.87,50.16 453.91,53.14 455.95,58.91 458.00,64.67 458.69,67.71 459.39,70.75 460.09,75.53 460.80,80.31 461.11,83.37 461.42,86.43 461.68,90.42 461.94,94.41 462.11,97.52 462.29,100.63 462.23,105.14 462.18,109.65 462.06,112.11 461.94,114.58 461.67,117.09 461.41,119.59 461.21,122.02 461.02,124.45 460.57,126.89 460.13,129.33 459.58,131.29 459.02,133.25 458.19,135.99 457.36,138.73 456.73,141.26 456.10,143.79 455.54,145.56 454.99,147.34 454.13,150.17 453.27,153.01 452.61,155.15 451.95,157.29 451.26,159.77 450.57,162.25 449.94,163.74 449.31,165.23 448.69,167.07 448.06,168.90 447.50,170.51 446.94,172.11 446.09,174.46 445.25,176.81 444.56,179.35 443.87,181.89 442.72,185.53 441.58,189.16 440.65,192.41 439.73,195.66 438.94,197.79 438.15,199.91 437.20,202.18 436.26,204.46 435.39,206.16 434.53,207.86 432.47,210.92 430.42,213.98 426.45,217.38 422.48,220.78 420.08,221.21 417.68,221.63 415.48,221.61 413.29,221.59 411.18,221.12 409.07,220.65 406.86,220.00 404.64,219.34 402.30,218.31 399.96,217.27 397.25,215.77 394.54,214.28 392.81,213.09 391.08,211.91 389.64,210.87 388.21,209.83 387.20,208.80 386.20,207.76 385.45,206.53 384.69,205.30 383.39,202.88 382.08,200.46 380.86,197.53 379.63,194.59 379.09,192.48 378.56,190.36 378.17,188.91 377.79,187.46 377.36,184.99 376.93,182.52 376.85,180.16 376.78,177.79 376.59,174.83 376.40,171.86 376.41,169.52 376.41,167.17 376.43,164.82 376.45,162.46 376.49,159.61 376.53,156.77 376.62,154.13 376.72,151.50 376.93,149.05 377.14,146.60 377.19,144.31 377.24,142.01 377.35,139.31 377.47,136.60 377.73,134.48 377.99,132.36 378.17,129.45 378.35,126.55 378.77,123.42 379.19,120.29 379.71,117.50 380.23,114.70 381.00,111.36 381.76,108.01 382.65,104.23 383.54,100.45 384.30,96.89 385.06,93.33 385.90,90.05 386.75,86.77 387.44,82.95 388.12,79.12 388.80,76.06 389.49,72.99 390.20,69.86 390.91,66.73 391.68,62.98 392.45,59.22 392.94,56.12 393.42,53.01 394.09,49.90 394.75,46.78 395.42,43.07 396.09,39.35 396.35,36.48 396.60,33.60 396.30,31.51 396.01,29.41 395.27,26.95 394.54,24.49 393.70,22.27 392.86,20.04 391.87,17.98 390.88,15.93 389.57,14.69 388.26,13.46 386.85,12.23 385.45,11.00 384.12,9.63 382.80,8.26 380.95,6.74 379.11,5.23 376.90,3.83 374.70,2.42 372.62,1.33 370.54,0.25 368.14,-0.60 365.74,-1.45 363.66,-2.11 361.58,-2.78 359.42,-3.43 357.25,-4.09 354.40,-4.75 351.55,-5.41 348.67,-5.65 345.80,-5.88 342.97,-6.00 340.14,-6.11 336.74,-6.38 333.35,-6.64 329.39,-6.81 325.44,-6.99 321.90,-6.95 318.37,-6.90 314.56,-6.80 310.75,-6.71 306.65,-6.47 302.56,-6.23 298.43,-6.13 294.31,-6.02 289.92,-5.77 285.54,-5.53 281.17,-5.39 276.80,-5.26 272.23,-4.94 267.66,-4.63 262.54,-4.79 257.42,-4.95 252.44,-4.88 247.46,-4.80 243.13,-5.07 238.80,-5.34 233.56,-5.52 228.31,-5.71 224.01,-5.68 219.71,-5.65 215.01,-5.58 210.31,-5.51 205.50,-5.34 200.68,-5.18 196.18,-5.22 191.68,-5.27 186.96,-5.37 182.24,-5.47 177.52,-5.69 172.79,-5.92 167.92,-5.99 163.04,-6.06 159.32,-6.21 155.60,-6.36 151.28,-6.27 146.96,-6.17 143.01,-5.93 139.07,-5.70 135.28,-5.58 131.49,-5.47 127.02,-5.20 122.55,-4.93 118.79,-4.73 115.02,-4.54 110.75,-4.52 106.49,-4.50 102.76,-4.45 99.04,-4.40 95.59,-4.27 92.15,-4.14 88.27,-4.26 84.39,-4.39 79.72,-4.24 75.05,-4.09 71.61,-3.73 68.17,-3.36 64.60,-2.95 61.03,-2.54 57.51,-2.02 53.99,-1.50 51.17,-1.19 48.34,-0.87 45.31,-0.58 42.28,-0.29 38.78,-0.06 35.28,0.17 32.55,0.26 29.81,0.35 26.88,0.57 23.94,0.79 22.10,0.85 20.25,0.91 18.03,1.06 15.80,1.20 13.86,1.09 11.91,0.97 10.22,0.72 8.52,0.47 7.28,0.33 6.04,0.20 4.70,0.31 3.36,0.42 1.80,0.71 0.25,1.00 0.12,1.01 0.00,1.03 -0.12,1.01 -0.24,1.00 -0.36,0.95 -0.47,0.91 -0.57,0.84 -0.68,0.77 -0.76,0.68 -0.84,0.58 -0.90,0.47 -0.96,0.36 -0.99,0.24 -1.02,0.12 -1.02,0.00 -1.02,-0.12 -0.99,-0.24 -0.96,-0.36 -0.90,-0.47 -0.85,-0.58 -0.76,-0.67 -0.68,-0.77 -0.58,-0.84 -0.48,-0.91 -0.36,-0.95 -0.25,-1.00 -0.25,-1.00 L -0.25,-1.00 Z"></path></g><g transform="translate(59.33331298828125 100.66665649414062) rotate(0 6.333343505859375 -3.666656494140625)" stroke="none"><path fill="#1e1e1e" d="M -0.75,-0.64 Q -0.75,-0.64 0.30,-2.06 1.36,-3.47 2.00,-4.40 2.63,-5.32 3.46,-6.66 4.29,-8.01 4.80,-9.10 5.30,-10.20 5.73,-11.26 6.16,-12.33 6.90,-13.03 7.63,-13.73 8.04,-14.10 8.46,-14.47 9.14,-14.76 9.82,-15.04 10.71,-14.77 11.61,-14.50 12.42,-12.63 13.23,-10.77 13.30,-9.13 13.37,-7.49 13.39,-6.30 13.41,-5.10 13.43,-3.82 13.44,-2.55 13.45,-0.09 13.47,2.36 13.33,4.07 13.19,5.78 13.19,5.89 13.19,6.00 13.15,6.10 13.12,6.20 13.05,6.28 12.99,6.37 12.90,6.42 12.81,6.48 12.71,6.51 12.61,6.54 12.50,6.53 12.39,6.53 12.30,6.49 12.20,6.45 12.12,6.38 12.04,6.31 11.98,6.21 11.93,6.12 11.91,6.02 11.88,5.92 11.90,5.81 11.91,5.70 11.95,5.61 12.00,5.51 12.07,5.44 12.15,5.36 12.24,5.31 12.34,5.26 12.44,5.24 12.55,5.23 12.65,5.25 12.76,5.26 12.85,5.32 12.94,5.37 13.01,5.44 13.09,5.52 13.13,5.62 13.17,5.71 13.19,5.82 13.20,5.93 13.17,6.03 13.15,6.13 13.09,6.22 13.04,6.31 12.96,6.38 12.87,6.45 12.78,6.49 12.68,6.53 12.57,6.53 12.46,6.54 12.36,6.51 12.26,6.48 12.17,6.42 12.09,6.36 12.02,6.27 11.96,6.19 11.92,6.09 11.89,5.99 11.89,5.99 11.89,5.99 11.20,4.18 10.52,2.37 10.52,-0.08 10.53,-2.53 10.53,-3.80 10.53,-5.07 10.52,-6.24 10.52,-7.42 10.52,-8.66 10.52,-9.90 10.39,-11.14 10.26,-12.38 9.41,-11.78 8.56,-11.18 8.13,-10.11 7.70,-9.04 7.09,-7.83 6.48,-6.62 5.58,-5.24 4.68,-3.85 3.95,-2.87 3.23,-1.88 1.99,-0.61 0.75,0.64 0.66,0.72 0.57,0.80 0.47,0.86 0.36,0.92 0.25,0.95 0.13,0.98 0.01,0.98 -0.10,0.98 -0.22,0.96 -0.33,0.93 -0.44,0.88 -0.55,0.82 -0.64,0.74 -0.73,0.67 -0.80,0.57 -0.87,0.47 -0.91,0.36 -0.96,0.25 -0.97,0.13 -0.99,0.01 -0.98,-0.10 -0.96,-0.22 -0.92,-0.33 -0.88,-0.44 -0.82,-0.54 -0.75,-0.64 -0.75,-0.64 L -0.75,-0.64 Z"></path></g><g transform="translate(143.33331298828125 82.66665649414062) rotate(0 10.66668701171875 5.333343505859375)" stroke="none"><path fill="#1e1e1e" d="M -0.96,-0.77 Q -0.96,-0.77 -0.23,-1.77 0.49,-2.76 1.54,-3.51 2.58,-4.25 3.86,-4.77 5.13,-5.29 6.33,-5.52 7.53,-5.75 8.77,-5.51 10.02,-5.27 10.70,-4.35 11.39,-3.42 11.22,-1.45 11.06,0.51 10.13,2.53 9.21,4.55 8.47,6.27 7.73,7.99 7.05,9.77 6.37,11.56 6.48,12.19 6.60,12.83 7.61,13.04 8.61,13.26 9.49,13.24 10.38,13.21 12.11,13.03 13.84,12.85 16.88,12.85 19.92,12.85 20.02,12.85 20.13,12.85 20.23,12.89 20.33,12.93 20.41,13.00 20.49,13.06 20.55,13.15 20.61,13.24 20.63,13.35 20.66,13.45 20.65,13.56 20.64,13.66 20.59,13.76 20.55,13.86 20.48,13.93 20.41,14.01 20.31,14.06 20.22,14.12 20.12,14.13 20.01,14.15 19.91,14.14 19.80,14.12 19.71,14.08 19.61,14.03 19.54,13.95 19.46,13.88 19.42,13.78 19.37,13.68 19.36,13.58 19.34,13.47 19.37,13.37 19.39,13.27 19.44,13.17 19.49,13.08 19.57,13.01 19.65,12.94 19.75,12.90 19.85,12.86 19.95,12.85 20.06,12.84 20.16,12.87 20.27,12.90 20.35,12.95 20.44,13.01 20.51,13.10 20.58,13.18 20.61,13.28 20.65,13.38 20.65,13.49 20.65,13.59 20.62,13.69 20.59,13.79 20.52,13.88 20.46,13.97 20.37,14.03 20.29,14.09 20.19,14.12 20.08,14.15 20.08,14.15 20.08,14.15 17.10,14.91 14.12,15.68 12.22,15.86 10.32,16.05 8.98,15.98 7.63,15.91 6.10,15.11 4.58,14.32 4.14,12.58 3.70,10.85 4.42,8.86 5.15,6.87 5.91,5.11 6.67,3.35 7.48,1.71 8.29,0.07 8.59,-1.17 8.88,-2.41 8.43,-2.71 7.98,-3.01 7.05,-2.86 6.12,-2.71 5.10,-2.34 4.08,-1.97 3.32,-1.52 2.56,-1.06 1.76,-0.14 0.96,0.77 0.85,0.87 0.75,0.98 0.62,1.05 0.49,1.13 0.35,1.17 0.21,1.21 0.06,1.22 -0.08,1.23 -0.23,1.20 -0.37,1.17 -0.51,1.11 -0.65,1.05 -0.76,0.95 -0.88,0.86 -0.97,0.74 -1.06,0.62 -1.12,0.49 -1.18,0.35 -1.20,0.20 -1.23,0.06 -1.22,-0.08 -1.21,-0.23 -1.16,-0.37 -1.12,-0.51 -1.04,-0.64 -0.96,-0.77 -0.96,-0.77 L -0.96,-0.77 Z"></path></g><g transform="translate(224 81.33334350585938) rotate(0 11 8.333328247070312)" stroke="none"><path fill="#1e1e1e" d="M -0.65,-1.05 Q -0.65,-1.05 0.83,-2.08 2.32,-3.11 5.00,-4.17 7.68,-5.24 9.22,-5.68 10.75,-6.12 12.47,-6.33 14.18,-6.54 15.85,-6.23 17.51,-5.92 18.60,-5.57 19.68,-5.22 20.44,-4.54 21.19,-3.86 21.35,-2.36 21.51,-0.85 20.65,0.88 19.80,2.62 18.60,3.95 17.40,5.28 16.35,6.37 15.30,7.46 14.96,7.93 14.62,8.40 14.28,7.76 13.95,7.11 15.16,7.25 16.38,7.39 18.45,8.78 20.52,10.16 20.74,12.11 20.96,14.06 18.76,15.89 16.57,17.71 13.85,18.99 11.14,20.27 9.06,21.17 6.98,22.07 4.98,22.23 2.98,22.38 2.87,22.40 2.77,22.41 2.66,22.39 2.56,22.37 2.46,22.32 2.37,22.27 2.30,22.19 2.23,22.11 2.19,22.01 2.15,21.91 2.14,21.81 2.13,21.70 2.16,21.60 2.18,21.49 2.24,21.40 2.30,21.32 2.38,21.25 2.47,21.18 2.57,21.15 2.67,21.11 2.77,21.11 2.88,21.11 2.98,21.14 3.08,21.17 3.17,21.23 3.25,21.29 3.31,21.38 3.38,21.47 3.41,21.57 3.44,21.67 3.43,21.78 3.43,21.88 3.39,21.98 3.36,22.08 3.29,22.16 3.22,22.25 3.13,22.30 3.04,22.36 2.94,22.39 2.84,22.41 2.73,22.40 2.62,22.39 2.53,22.35 2.43,22.31 2.35,22.24 2.27,22.16 2.22,22.07 2.17,21.98 2.15,21.88 2.13,21.77 2.14,21.67 2.16,21.56 2.21,21.47 2.25,21.37 2.33,21.30 2.41,21.22 2.50,21.17 2.60,21.13 2.60,21.13 2.60,21.13 4.18,20.20 5.77,19.27 7.81,18.39 9.85,17.50 12.32,16.37 14.79,15.23 16.58,13.59 18.38,11.94 17.01,11.15 15.64,10.35 14.17,9.87 12.70,9.39 12.35,8.20 12.01,7.00 12.55,6.17 13.10,5.35 14.13,4.28 15.16,3.22 16.15,2.19 17.14,1.16 17.83,0.05 18.52,-1.05 18.61,-1.72 18.70,-2.39 17.79,-2.69 16.89,-2.99 15.67,-3.29 14.46,-3.59 13.00,-3.45 11.54,-3.30 10.13,-2.91 8.72,-2.51 6.26,-1.62 3.80,-0.72 2.23,0.16 0.65,1.05 0.52,1.11 0.38,1.17 0.23,1.20 0.09,1.23 -0.05,1.23 -0.20,1.22 -0.34,1.18 -0.49,1.13 -0.62,1.06 -0.75,0.98 -0.85,0.88 -0.96,0.77 -1.04,0.65 -1.12,0.52 -1.17,0.38 -1.21,0.24 -1.22,0.09 -1.23,-0.05 -1.21,-0.20 -1.18,-0.35 -1.13,-0.48 -1.07,-0.62 -0.98,-0.74 -0.89,-0.86 -0.77,-0.95 -0.65,-1.05 -0.65,-1.05 L -0.65,-1.05 Z"></path></g><g transform="translate(322.66668701171875 73.33334350585938) rotate(0 1.33331298828125 11.333328247070312)" stroke="none"><path fill="#1e1e1e" d="M 0.84,0.84 Q 0.84,0.84 -0.04,1.86 -0.94,2.88 -1.82,4.32 -2.70,5.75 -3.23,7.60 -3.75,9.44 -4.20,10.88 -4.65,12.31 -4.82,13.13 -5.00,13.95 -4.29,13.88 -3.57,13.80 -2.42,13.30 -1.28,12.79 0.13,12.35 1.54,11.90 3.00,11.59 4.46,11.28 6.29,12.54 8.12,13.79 8.87,14.82 9.62,15.85 9.95,16.54 10.28,17.23 10.11,19.67 9.95,22.11 9.94,22.22 9.93,22.32 9.89,22.42 9.84,22.52 9.77,22.60 9.70,22.67 9.60,22.72 9.51,22.77 9.41,22.79 9.30,22.81 9.20,22.79 9.09,22.77 9.00,22.73 8.90,22.68 8.83,22.60 8.76,22.52 8.71,22.43 8.67,22.33 8.65,22.22 8.64,22.12 8.67,22.01 8.69,21.91 8.74,21.82 8.80,21.73 8.88,21.66 8.96,21.59 9.06,21.55 9.15,21.51 9.26,21.50 9.37,21.50 9.47,21.53 9.57,21.55 9.66,21.61 9.75,21.67 9.81,21.76 9.88,21.84 9.91,21.94 9.95,22.04 9.95,22.15 9.95,22.26 9.91,22.36 9.88,22.46 9.82,22.54 9.75,22.63 9.66,22.69 9.58,22.75 9.47,22.78 9.37,22.80 9.27,22.80 9.16,22.79 9.06,22.75 8.96,22.72 8.88,22.65 8.80,22.58 8.74,22.49 8.69,22.40 8.67,22.29 8.64,22.19 8.64,22.19 8.64,22.19 7.93,19.85 7.22,17.52 6.73,16.77 6.25,16.03 5.18,14.92 4.11,13.81 3.25,14.24 2.40,14.67 1.07,15.08 -0.24,15.48 -1.94,16.07 -3.64,16.65 -5.05,16.39 -6.46,16.12 -7.11,14.95 -7.75,13.78 -7.55,12.62 -7.35,11.46 -6.89,10.04 -6.44,8.63 -5.74,6.46 -5.05,4.30 -3.97,2.62 -2.89,0.95 -1.87,0.05 -0.84,-0.84 -0.73,-0.93 -0.62,-1.02 -0.48,-1.08 -0.35,-1.14 -0.21,-1.17 -0.07,-1.19 0.07,-1.18 0.21,-1.17 0.35,-1.13 0.49,-1.09 0.61,-1.01 0.73,-0.94 0.84,-0.84 0.94,-0.73 1.01,-0.61 1.09,-0.49 1.13,-0.35 1.17,-0.21 1.18,-0.07 1.19,0.07 1.17,0.21 1.14,0.35 1.08,0.48 1.02,0.62 0.93,0.73 0.84,0.84 0.84,0.84 L 0.84,0.84 Z"></path></g><g transform="translate(402 73.33334350585938) rotate(0 2.666656494140625 12)" stroke="none"><path fill="#1e1e1e" d="M 1.19,0.29 Q 1.19,0.29 0.70,2.62 0.21,4.94 -0.01,6.06 -0.24,7.19 0.92,7.64 2.09,8.09 3.00,8.45 3.91,8.81 5.52,9.79 7.13,10.76 7.48,11.76 7.84,12.76 7.52,14.49 7.20,16.21 6.62,17.37 6.04,18.54 5.21,19.79 4.37,21.04 2.15,22.73 -0.07,24.41 -0.17,24.45 -0.27,24.48 -0.37,24.49 -0.48,24.50 -0.58,24.47 -0.68,24.44 -0.77,24.38 -0.86,24.32 -0.92,24.23 -0.99,24.15 -1.02,24.05 -1.06,23.95 -1.06,23.84 -1.06,23.74 -1.02,23.64 -0.99,23.53 -0.92,23.45 -0.86,23.37 -0.77,23.31 -0.68,23.25 -0.58,23.22 -0.48,23.19 -0.37,23.20 -0.27,23.20 -0.17,23.24 -0.07,23.28 0.00,23.35 0.08,23.42 0.14,23.51 0.19,23.60 0.21,23.70 0.24,23.81 0.23,23.91 0.21,24.02 0.17,24.12 0.12,24.21 0.05,24.29 -0.01,24.37 -0.11,24.42 -0.20,24.47 -0.30,24.48 -0.41,24.50 -0.51,24.48 -0.62,24.46 -0.71,24.42 -0.81,24.37 -0.88,24.29 -0.95,24.21 -1.00,24.11 -1.04,24.02 -1.05,23.91 -1.06,23.81 -1.04,23.70 -1.02,23.60 -0.96,23.51 -0.91,23.42 -0.83,23.35 -0.75,23.28 -0.75,23.28 -0.75,23.28 0.61,21.36 1.97,19.43 2.73,18.31 3.48,17.19 3.94,16.38 4.39,15.56 4.76,14.12 5.12,12.68 4.61,12.25 4.09,11.82 3.47,11.65 2.85,11.49 2.03,11.16 1.21,10.83 -0.17,10.32 -1.55,9.80 -2.17,9.07 -2.78,8.33 -2.90,7.50 -3.02,6.68 -2.77,5.47 -2.51,4.25 -1.85,1.97 -1.19,-0.29 -1.14,-0.43 -1.09,-0.57 -1.00,-0.70 -0.92,-0.82 -0.81,-0.92 -0.69,-1.01 -0.56,-1.08 -0.43,-1.15 -0.28,-1.19 -0.14,-1.22 0.00,-1.22 0.15,-1.22 0.29,-1.19 0.44,-1.15 0.57,-1.08 0.70,-1.01 0.81,-0.91 0.92,-0.81 1.01,-0.69 1.09,-0.57 1.14,-0.43 1.20,-0.29 1.21,-0.14 1.23,0.00 1.21,0.15 1.19,0.29 1.19,0.29 L 1.19,0.29 Z"></path></g><g transform="translate(404 70.66665649414062) rotate(0 7 0.0000152587890625)" stroke="none"><path fill="#1e1e1e" d="M 0.09,-1.14 Q 0.09,-1.14 2.40,-1.04 4.70,-0.95 6.55,-1.06 8.39,-1.18 10.64,-1.17 12.90,-1.16 13.01,-1.16 13.11,-1.16 13.21,-1.12 13.31,-1.09 13.40,-1.02 13.48,-0.96 13.54,-0.87 13.60,-0.78 13.62,-0.68 13.65,-0.57 13.64,-0.47 13.64,-0.36 13.60,-0.26 13.55,-0.17 13.48,-0.09 13.41,-0.01 13.32,0.04 13.23,0.09 13.13,0.11 13.02,0.13 12.92,0.12 12.81,0.11 12.72,0.06 12.62,0.02 12.54,-0.05 12.47,-0.12 12.42,-0.22 12.37,-0.31 12.36,-0.42 12.34,-0.52 12.36,-0.63 12.38,-0.73 12.43,-0.82 12.48,-0.92 12.56,-0.99 12.64,-1.06 12.73,-1.10 12.83,-1.15 12.94,-1.16 13.04,-1.17 13.14,-1.14 13.25,-1.12 13.34,-1.06 13.43,-1.01 13.50,-0.92 13.56,-0.84 13.60,-0.74 13.64,-0.64 13.64,-0.54 13.65,-0.43 13.62,-0.33 13.59,-0.23 13.53,-0.14 13.47,-0.05 13.38,0.00 13.30,0.06 13.19,0.10 13.09,0.13 13.09,0.13 13.09,0.13 10.82,0.82 8.54,1.51 6.51,1.61 4.49,1.71 2.19,1.43 -0.09,1.14 -0.23,1.12 -0.36,1.09 -0.49,1.03 -0.61,0.97 -0.72,0.88 -0.83,0.79 -0.91,0.68 -1.00,0.57 -1.05,0.44 -1.10,0.31 -1.13,0.18 -1.15,0.04 -1.14,-0.09 -1.12,-0.23 -1.08,-0.36 -1.04,-0.49 -0.96,-0.61 -0.89,-0.73 -0.79,-0.82 -0.69,-0.92 -0.56,-0.99 -0.44,-1.06 -0.31,-1.10 -0.18,-1.13 -0.04,-1.14 0.09,-1.14 0.09,-1.14 L 0.09,-1.14 Z"></path></g><g transform="translate(487.33331298828125 85.33334350585938) rotate(0 -3.33331298828125 -1)" stroke="none"><path fill="#1e1e1e" d="M 1.04,-0.69 Q 1.04,-0.69 1.85,0.44 2.66,1.58 3.09,3.24 3.53,4.90 3.50,6.10 3.47,7.31 2.87,8.49 2.27,9.67 0.84,10.27 -0.58,10.87 -2.75,11.05 -4.92,11.23 -7.09,10.91 -9.26,10.59 -10.56,10.10 -11.86,9.62 -13.18,7.10 -14.51,4.58 -14.79,2.57 -15.08,0.56 -13.76,-2.08 -12.44,-4.73 -10.40,-6.47 -8.37,-8.21 -5.92,-9.53 -3.47,-10.84 -1.21,-11.61 1.03,-12.38 3.91,-12.15 6.78,-11.91 6.89,-11.90 6.99,-11.89 7.09,-11.85 7.19,-11.80 7.26,-11.73 7.34,-11.66 7.39,-11.56 7.44,-11.47 7.46,-11.37 7.48,-11.26 7.46,-11.16 7.45,-11.05 7.40,-10.96 7.35,-10.86 7.27,-10.79 7.19,-10.72 7.10,-10.67 7.00,-10.63 6.90,-10.61 6.79,-10.60 6.69,-10.62 6.58,-10.65 6.49,-10.70 6.40,-10.76 6.33,-10.84 6.26,-10.92 6.22,-11.02 6.18,-11.11 6.17,-11.22 6.17,-11.33 6.20,-11.43 6.22,-11.53 6.28,-11.62 6.34,-11.71 6.43,-11.77 6.51,-11.84 6.61,-11.87 6.71,-11.91 6.82,-11.91 6.92,-11.91 7.03,-11.87 7.13,-11.84 7.21,-11.78 7.30,-11.71 7.36,-11.62 7.42,-11.54 7.45,-11.43 7.47,-11.33 7.47,-11.23 7.46,-11.12 7.43,-11.02 7.39,-10.92 7.32,-10.84 7.25,-10.76 7.16,-10.70 7.07,-10.65 6.96,-10.63 6.86,-10.60 6.86,-10.60 6.86,-10.60 4.41,-10.05 1.97,-9.50 -0.05,-8.84 -2.07,-8.18 -4.27,-7.04 -6.48,-5.90 -8.18,-4.57 -9.88,-3.23 -11.04,-1.35 -12.20,0.52 -12.00,1.95 -11.80,3.39 -11.09,5.37 -10.38,7.34 -9.59,7.52 -8.80,7.69 -6.95,8.01 -5.11,8.32 -3.26,8.21 -1.40,8.10 -0.36,7.58 0.68,7.06 0.76,6.27 0.83,5.48 0.62,4.24 0.40,3.01 -0.32,1.85 -1.04,0.69 -1.11,0.56 -1.18,0.42 -1.21,0.27 -1.25,0.13 -1.25,-0.02 -1.24,-0.17 -1.20,-0.31 -1.17,-0.46 -1.09,-0.59 -1.02,-0.73 -0.92,-0.84 -0.81,-0.95 -0.69,-1.04 -0.56,-1.12 -0.42,-1.17 -0.28,-1.22 -0.13,-1.24 0.02,-1.25 0.17,-1.23 0.32,-1.21 0.46,-1.16 0.60,-1.10 0.72,-1.01 0.85,-0.92 0.94,-0.81 1.04,-0.69 1.04,-0.69 L 1.04,-0.69 Z"></path></g><g transform="translate(485.33331298828125 182.00003051757812) rotate(0 14 -11.666702270507812)" stroke="none"><path fill="#1e1e1e" d="M -1.25,-0.19 Q -1.25,-0.19 -0.72,-3.84 -0.20,-7.49 0.19,-10.75 0.58,-14.02 0.95,-16.20 1.32,-18.39 1.65,-20.46 1.98,-22.53 2.32,-24.03 2.66,-25.53 2.81,-26.33 2.95,-27.14 3.60,-27.91 4.25,-28.69 6.27,-28.83 8.28,-28.97 10.88,-28.95 13.48,-28.93 15.35,-28.93 17.23,-28.92 18.98,-28.91 20.74,-28.91 22.36,-28.71 23.98,-28.51 25.25,-27.96 26.52,-27.41 27.43,-26.39 28.33,-25.38 28.74,-23.56 29.15,-21.74 28.68,-19.48 28.21,-17.21 27.62,-15.01 27.04,-12.81 25.78,-10.21 24.52,-7.60 23.44,-5.24 22.37,-2.87 21.09,-0.81 19.81,1.24 18.12,2.76 16.42,4.29 16.35,4.36 16.27,4.43 16.18,4.48 16.08,4.52 15.98,4.54 15.87,4.55 15.77,4.53 15.66,4.51 15.57,4.45 15.48,4.40 15.41,4.32 15.34,4.24 15.30,4.14 15.26,4.04 15.25,3.94 15.24,3.83 15.27,3.73 15.30,3.63 15.36,3.54 15.42,3.45 15.50,3.38 15.58,3.32 15.68,3.28 15.78,3.25 15.89,3.25 16.00,3.24 16.10,3.28 16.20,3.31 16.28,3.37 16.37,3.44 16.43,3.52 16.49,3.61 16.52,3.71 16.55,3.82 16.54,3.92 16.54,4.03 16.50,4.13 16.46,4.23 16.40,4.31 16.33,4.39 16.24,4.45 16.15,4.50 16.04,4.53 15.94,4.55 15.83,4.54 15.73,4.53 15.63,4.49 15.54,4.44 15.46,4.37 15.38,4.30 15.33,4.20 15.28,4.11 15.26,4.01 15.24,3.90 15.26,3.80 15.27,3.69 15.32,3.60 15.37,3.50 15.37,3.50 15.37,3.50 16.26,1.54 17.14,-0.41 18.32,-2.29 19.50,-4.18 20.60,-6.58 21.70,-8.99 22.85,-11.31 24.00,-13.63 24.57,-15.78 25.14,-17.93 25.60,-19.61 26.05,-21.29 25.93,-22.43 25.80,-23.57 25.45,-24.10 25.10,-24.63 24.32,-25.01 23.54,-25.39 22.13,-25.57 20.73,-25.76 18.97,-25.76 17.21,-25.76 15.33,-25.77 13.45,-25.78 10.82,-25.80 8.19,-25.82 7.07,-26.14 5.94,-26.46 5.80,-25.64 5.65,-24.83 5.31,-23.42 4.97,-22.02 4.60,-19.95 4.22,-17.89 3.84,-15.76 3.45,-13.63 2.98,-10.35 2.50,-7.06 1.87,-3.43 1.25,0.19 1.21,0.34 1.16,0.49 1.09,0.62 1.01,0.75 0.91,0.86 0.80,0.97 0.67,1.06 0.54,1.14 0.40,1.19 0.25,1.24 0.10,1.25 -0.04,1.26 -0.19,1.24 -0.34,1.22 -0.48,1.16 -0.62,1.10 -0.75,1.01 -0.87,0.91 -0.97,0.80 -1.06,0.68 -1.13,0.54 -1.20,0.40 -1.23,0.25 -1.26,0.10 -1.25,-0.04 -1.25,-0.19 -1.25,-0.19 L -1.25,-0.19 Z"></path></g><g transform="translate(510 167.33334350585938) rotate(0 8.000030517578125 1.333343505859375)" stroke="none"><path fill="#1e1e1e" d="M 0.21,-1.31 Q 0.21,-1.31 4.83,-0.65 9.45,0.01 11.33,0.77 13.21,1.53 13.31,1.57 13.41,1.60 13.50,1.67 13.58,1.73 13.64,1.82 13.70,1.91 13.73,2.01 13.76,2.11 13.75,2.22 13.75,2.32 13.71,2.42 13.67,2.52 13.60,2.60 13.53,2.68 13.44,2.74 13.35,2.79 13.24,2.81 13.14,2.84 13.03,2.82 12.93,2.81 12.83,2.77 12.74,2.72 12.66,2.65 12.58,2.58 12.53,2.48 12.48,2.39 12.47,2.28 12.45,2.18 12.47,2.07 12.48,1.97 12.53,1.87 12.58,1.78 12.66,1.71 12.74,1.64 12.83,1.59 12.93,1.55 13.04,1.54 13.14,1.52 13.25,1.55 13.35,1.57 13.44,1.63 13.53,1.68 13.60,1.76 13.67,1.84 13.71,1.94 13.75,2.04 13.75,2.15 13.76,2.25 13.73,2.36 13.70,2.46 13.64,2.55 13.58,2.63 13.50,2.70 13.41,2.76 13.31,2.79 13.21,2.83 13.10,2.83 13.00,2.83 13.00,2.83 13.00,2.83 10.97,2.94 8.94,3.05 4.36,2.18 -0.21,1.31 -0.37,1.26 -0.52,1.22 -0.66,1.14 -0.80,1.06 -0.92,0.95 -1.03,0.83 -1.12,0.70 -1.20,0.56 -1.25,0.41 -1.30,0.26 -1.31,0.10 -1.33,-0.05 -1.30,-0.21 -1.27,-0.37 -1.21,-0.52 -1.15,-0.67 -1.05,-0.79 -0.95,-0.92 -0.83,-1.02 -0.70,-1.12 -0.56,-1.19 -0.41,-1.26 -0.25,-1.29 -0.10,-1.32 0.05,-1.32 0.21,-1.31 0.21,-1.31 L 0.21,-1.31 Z"></path></g><g transform="translate(496.66668701171875 214.00003051757812) rotate(0 -2.000030517578125 7.999969482421875)" stroke="none"><path fill="#1e1e1e" d="M -1.42,0.35 Q -1.42,0.35 -1.34,-0.13 -1.26,-0.63 -2.14,-0.71 -3.02,-0.79 -4.12,-0.19 -5.22,0.39 -6.06,1.12 -6.89,1.85 -7.56,2.99 -8.23,4.14 -8.72,5.12 -9.21,6.11 -8.50,7.26 -7.80,8.41 -6.60,8.99 -5.40,9.57 -3.72,10.25 -2.04,10.93 -0.12,11.83 1.80,12.72 2.74,13.37 3.68,14.03 4.14,15.45 4.61,16.88 4.08,17.63 3.56,18.39 1.54,18.95 -0.47,19.51 -2.06,19.69 -3.65,19.87 -5.30,19.53 -6.95,19.19 -8.22,18.32 -9.48,17.45 -10.12,16.02 -10.75,14.59 -10.18,12.04 -9.61,9.48 -8.30,7.39 -7.00,5.30 -4.79,3.56 -2.58,1.81 -0.67,0.71 1.24,-0.39 3.71,-0.70 6.18,-1.01 6.28,-1.02 6.39,-1.04 6.49,-1.02 6.60,-0.99 6.69,-0.94 6.78,-0.89 6.85,-0.81 6.92,-0.73 6.96,-0.63 7.00,-0.53 7.01,-0.42 7.01,-0.32 6.98,-0.21 6.96,-0.11 6.90,-0.02 6.84,0.06 6.76,0.12 6.67,0.19 6.57,0.22 6.47,0.26 6.37,0.26 6.26,0.26 6.16,0.22 6.06,0.19 5.97,0.13 5.89,0.07 5.83,-0.01 5.77,-0.10 5.74,-0.20 5.71,-0.30 5.71,-0.41 5.72,-0.52 5.75,-0.62 5.79,-0.71 5.86,-0.80 5.93,-0.88 6.02,-0.93 6.11,-0.99 6.21,-1.01 6.32,-1.04 6.42,-1.03 6.53,-1.02 6.62,-0.97 6.72,-0.93 6.80,-0.86 6.88,-0.78 6.93,-0.69 6.98,-0.60 7.00,-0.49 7.02,-0.39 7.00,-0.28 6.98,-0.18 6.93,-0.08 6.89,0.00 6.81,0.07 6.73,0.15 6.64,0.19 6.54,0.24 6.54,0.24 6.54,0.24 4.61,1.20 2.68,2.16 0.94,3.15 -0.80,4.15 -2.68,5.54 -4.57,6.93 -5.68,8.61 -6.79,10.28 -7.40,12.09 -8.01,13.89 -7.81,14.59 -7.61,15.30 -6.92,15.84 -6.23,16.39 -5.07,16.68 -3.92,16.97 -2.51,16.82 -1.11,16.67 0.40,16.48 1.93,16.29 1.26,15.81 0.58,15.33 -1.27,14.47 -3.13,13.60 -4.96,12.85 -6.79,12.10 -8.44,11.11 -10.08,10.13 -10.85,8.91 -11.63,7.69 -11.74,6.44 -11.86,5.20 -11.27,3.91 -10.69,2.62 -9.73,1.14 -8.77,-0.34 -7.58,-1.29 -6.39,-2.25 -4.53,-2.91 -2.67,-3.57 -1.08,-3.00 0.49,-2.43 0.96,-1.39 1.42,-0.35 1.44,-0.18 1.47,-0.00 1.44,0.17 1.42,0.34 1.36,0.51 1.30,0.67 1.20,0.82 1.10,0.97 0.97,1.08 0.83,1.20 0.68,1.29 0.52,1.37 0.35,1.41 0.18,1.45 0.00,1.45 -0.17,1.46 -0.34,1.41 -0.51,1.37 -0.67,1.29 -0.83,1.21 -0.96,1.09 -1.09,0.97 -1.19,0.83 -1.29,0.68 -1.36,0.52 -1.42,0.35 -1.42,0.35 L -1.42,0.35 Z"></path></g><g transform="translate(483.33331298828125 286.6666564941406) rotate(0 -2.33331298828125 13.66668701171875)" stroke="none"><path fill="#1e1e1e" d="M -1.13,0.45 Q -1.13,0.45 -1.95,-1.43 -2.78,-3.32 -3.23,-4.01 -3.67,-4.70 -4.19,-5.03 -4.71,-5.35 -6.02,-5.12 -7.32,-4.88 -8.33,-4.14 -9.34,-3.41 -9.75,-2.99 -10.17,-2.57 -10.81,0.06 -11.46,2.71 -11.41,4.28 -11.36,5.85 -11.00,6.42 -10.63,6.98 -8.98,7.17 -7.32,7.36 -5.37,7.15 -3.42,6.94 -1.43,5.60 0.55,4.26 1.58,3.18 2.61,2.10 3.45,1.07 4.28,0.04 4.84,-0.80 5.40,-1.64 5.52,-1.76 5.65,-1.88 5.79,-1.96 5.94,-2.05 6.10,-2.09 6.27,-2.14 6.44,-2.15 6.60,-2.16 6.77,-2.12 6.94,-2.09 7.09,-2.02 7.25,-1.95 7.38,-1.84 7.51,-1.73 7.61,-1.60 7.71,-1.46 7.78,-1.30 7.85,-1.15 7.88,-0.98 7.90,-0.81 7.89,-0.64 7.88,-0.47 7.82,-0.31 7.77,-0.15 7.68,-0.01 7.59,0.13 7.80,0.63 8.01,1.14 8.03,1.96 8.05,2.77 8.06,3.89 8.08,5.01 8.45,6.47 8.82,7.93 9.38,10.16 9.94,12.38 9.81,15.07 9.69,17.75 9.61,19.23 9.53,20.71 7.48,23.96 5.43,27.21 2.72,29.39 0.01,31.57 -3.56,32.92 -7.14,34.27 -9.90,34.62 -12.67,34.96 -12.77,34.98 -12.88,34.99 -12.98,34.97 -13.09,34.94 -13.18,34.89 -13.27,34.84 -13.34,34.76 -13.41,34.68 -13.45,34.58 -13.49,34.48 -13.50,34.37 -13.50,34.27 -13.48,34.16 -13.45,34.06 -13.39,33.97 -13.33,33.88 -13.25,33.82 -13.16,33.75 -13.06,33.72 -12.96,33.69 -12.86,33.68 -12.75,33.68 -12.65,33.72 -12.55,33.75 -12.46,33.81 -12.38,33.88 -12.32,33.96 -12.26,34.05 -12.23,34.15 -12.20,34.25 -12.20,34.36 -12.21,34.47 -12.25,34.57 -12.28,34.67 -12.35,34.75 -12.42,34.83 -12.51,34.88 -12.60,34.94 -12.71,34.96 -12.81,34.99 -12.91,34.98 -13.02,34.97 -13.12,34.92 -13.21,34.88 -13.29,34.81 -13.37,34.73 -13.42,34.64 -13.47,34.55 -13.49,34.44 -13.51,34.34 -13.49,34.23 -13.47,34.13 -13.43,34.03 -13.38,33.94 -13.30,33.87 -13.22,33.79 -13.13,33.75 -13.03,33.70 -13.03,33.70 -13.03,33.70 -10.61,32.55 -8.18,31.40 -4.99,30.28 -1.80,29.16 0.58,27.34 2.97,25.51 4.81,22.94 6.65,20.36 6.70,18.97 6.75,17.58 6.92,15.31 7.10,13.04 6.56,10.82 6.02,8.60 5.62,6.82 5.22,5.04 5.22,3.95 5.21,2.85 5.19,2.06 5.17,1.28 5.29,-0.18 5.40,-1.64 5.52,-1.76 5.64,-1.88 5.79,-1.96 5.94,-2.05 6.10,-2.09 6.27,-2.14 6.43,-2.15 6.60,-2.16 6.77,-2.12 6.94,-2.09 7.09,-2.02 7.25,-1.95 7.38,-1.84 7.51,-1.73 7.61,-1.60 7.71,-1.46 7.78,-1.30 7.85,-1.15 7.88,-0.98 7.90,-0.81 7.89,-0.64 7.88,-0.47 7.82,-0.31 7.77,-0.15 7.68,-0.01 7.59,0.13 7.03,0.97 6.46,1.81 5.54,2.93 4.62,4.06 3.34,5.34 2.06,6.62 -0.47,8.15 -3.02,9.67 -5.43,9.88 -7.85,10.09 -10.14,9.46 -12.44,8.83 -13.26,7.47 -14.08,6.11 -14.11,4.05 -14.14,2.00 -13.17,-1.18 -12.20,-4.36 -11.52,-5.04 -10.84,-5.71 -9.27,-6.64 -7.71,-7.57 -5.65,-7.64 -3.59,-7.71 -2.52,-6.96 -1.45,-6.22 -0.86,-5.27 -0.28,-4.33 0.42,-2.39 1.13,-0.45 1.17,-0.31 1.20,-0.16 1.21,-0.02 1.21,0.12 1.18,0.26 1.14,0.41 1.08,0.54 1.01,0.67 0.92,0.78 0.82,0.89 0.70,0.98 0.58,1.06 0.44,1.12 0.31,1.17 0.16,1.19 0.02,1.21 -0.12,1.20 -0.27,1.18 -0.40,1.13 -0.54,1.09 -0.66,1.00 -0.79,0.92 -0.89,0.81 -0.99,0.71 -1.06,0.58 -1.13,0.45 -1.13,0.45 L -1.13,0.45 Z"></path></g></svg>