<svg version="1.1" xmlns="http://www.w3.org/2000/svg" viewBox="0 0 712.5491153492651 700.7842299517467" width="712.5491153492651" height="700.7842299517467" class="excalidraw-svg"><!-- svg-source:excalidraw --><metadata></metadata><defs><style class="style-fonts">
      </style></defs><rect x="0" y="0" width="712.5491153492651" height="700.7842299517467" fill="#ffffff"></rect><g transform="translate(207.6470588235294 600.5881275850188) rotate(0 35.29411764705881 -279.2156982421875)" stroke="none"><path fill="#1e1e1e" d="M 0.26,5.05 Q 0.26,5.05 -4.00,5.48 -8.28,5.91 -11.74,6.11 -15.20,6.30 -19.78,6.23 -24.36,6.16 -28.16,5.94 -31.95,5.71 -38.00,4.49 -44.05,3.27 -50.61,1.13 -57.18,-0.99 -61.33,-2.60 -65.48,-4.20 -71.45,-6.94 -77.42,-9.68 -82.15,-12.90 -86.88,-16.12 -92.92,-21.72 -98.95,-27.33 -103.76,-33.60 -108.57,-39.87 -112.31,-46.59 -116.05,-53.32 -119.03,-60.11 -122.01,-66.90 -124.49,-74.73 -126.98,-82.57 -128.53,-90.16 -130.08,-97.75 -130.78,-105.97 -131.48,-114.18 -131.32,-122.14 -131.16,-130.10 -130.40,-136.82 -129.65,-143.53 -128.18,-151.04 -126.71,-158.55 -124.43,-165.64 -122.15,-172.74 -119.56,-179.00 -116.96,-185.27 -113.23,-191.84 -109.50,-198.40 -105.77,-205.06 -102.04,-211.71 -98.72,-218.25 -95.40,-224.80 -93.12,-229.76 -90.84,-234.73 -87.95,-242.91 -85.06,-251.09 -83.36,-256.38 -81.67,-261.67 -80.62,-268.83 -79.56,-275.99 -79.10,-282.36 -78.63,-288.74 -78.87,-294.04 -79.11,-299.35 -81.09,-305.15 -83.06,-310.96 -85.23,-316.26 -87.39,-321.55 -90.01,-326.52 -92.63,-331.50 -98.77,-340.35 -104.91,-349.21 -109.15,-355.10 -113.39,-361.00 -117.47,-366.69 -121.55,-372.38 -125.33,-377.75 -129.11,-383.13 -133.21,-389.03 -137.31,-394.93 -140.80,-401.10 -144.30,-407.27 -147.57,-413.47 -150.84,-419.68 -153.29,-426.07 -155.74,-432.46 -157.10,-438.75 -158.45,-445.03 -158.12,-452.06 -157.79,-459.08 -155.41,-466.61 -153.04,-474.14 -150.04,-479.80 -147.05,-485.46 -142.14,-491.76 -137.24,-498.06 -131.19,-503.29 -125.15,-508.52 -117.04,-513.94 -108.92,-519.35 -102.09,-523.45 -95.25,-527.54 -85.48,-531.92 -75.71,-536.30 -65.47,-539.58 -55.24,-542.85 -43.45,-546.04 -31.67,-549.22 -13.34,-553.73 4.97,-558.24 17.90,-560.64 30.82,-563.04 46.25,-564.54 61.67,-566.04 71.23,-566.45 80.78,-566.86 95.32,-564.96 109.86,-563.07 117.14,-562.05 124.43,-561.03 134.13,-558.23 143.82,-555.43 151.27,-552.89 158.71,-550.34 167.25,-546.70 175.79,-543.06 183.17,-538.60 190.55,-534.14 198.29,-527.46 206.02,-520.77 211.91,-512.74 217.79,-504.71 220.40,-500.71 223.00,-496.70 225.39,-489.18 227.78,-481.66 228.72,-476.11 229.65,-470.55 228.67,-461.30 227.69,-452.05 226.27,-446.47 224.84,-440.89 219.99,-430.43 215.13,-419.98 211.98,-413.87 208.83,-407.77 205.91,-402.27 203.00,-396.77 195.36,-383.91 187.72,-371.05 182.41,-362.83 177.10,-354.61 172.12,-347.27 167.14,-339.93 162.40,-332.43 157.67,-324.93 154.33,-319.31 150.99,-313.69 148.89,-308.39 146.80,-303.09 145.76,-297.86 144.73,-292.63 144.27,-287.19 143.81,-281.75 143.84,-275.52 143.86,-269.30 144.08,-263.50 144.31,-257.70 145.25,-253.28 146.18,-248.85 147.66,-243.89 149.15,-238.92 150.83,-234.75 152.51,-230.57 154.85,-224.86 157.19,-219.15 159.71,-213.71 162.22,-208.26 164.20,-204.13 166.17,-200.00 168.68,-193.99 171.20,-187.98 173.45,-181.44 175.70,-174.90 177.17,-168.70 178.65,-162.51 179.48,-158.58 180.30,-154.66 180.72,-148.66 181.14,-142.66 181.07,-136.67 181.00,-130.67 180.51,-125.03 180.01,-119.38 178.85,-113.14 177.69,-106.89 176.19,-102.31 174.68,-97.72 171.20,-90.56 167.72,-83.40 162.87,-76.44 158.02,-69.48 155.57,-66.20 153.12,-62.92 147.95,-57.57 142.79,-52.23 139.92,-49.55 137.06,-46.87 132.88,-43.70 128.69,-40.54 122.50,-36.65 116.32,-32.76 112.34,-30.44 108.37,-28.13 105.12,-25.94 101.88,-23.75 96.63,-20.63 91.39,-17.50 85.93,-14.55 80.48,-11.61 75.07,-9.51 69.67,-7.40 64.91,-5.49 60.16,-3.58 51.27,-0.23 42.39,3.10 37.66,4.76 32.93,6.42 28.51,7.46 24.09,8.51 19.28,6.29 14.47,4.08 14.05,4.04 13.63,3.99 13.24,3.82 12.86,3.64 12.55,3.35 12.24,3.06 12.04,2.68 11.84,2.31 11.77,1.89 11.69,1.47 11.76,1.05 11.83,0.63 12.03,0.25 12.22,-0.11 12.53,-0.40 12.84,-0.70 13.22,-0.88 13.61,-1.06 14.03,-1.11 14.45,-1.15 14.87,-1.06 15.28,-0.97 15.65,-0.76 16.01,-0.54 16.29,-0.22 16.57,0.10 16.73,0.49 16.88,0.89 16.91,1.31 16.93,1.73 16.82,2.14 16.71,2.55 16.47,2.91 16.24,3.26 15.90,3.52 15.56,3.78 15.16,3.91 14.76,4.05 14.33,4.05 13.91,4.05 13.50,3.92 13.10,3.79 12.76,3.53 12.42,3.27 12.18,2.92 11.94,2.57 11.83,2.16 11.71,1.75 11.73,1.33 11.75,0.90 11.91,0.51 12.07,0.11 12.34,-0.20 12.61,-0.53 12.98,-0.75 13.34,-0.97 13.76,-1.06 14.17,-1.15 14.17,-1.15 14.17,-1.15 17.43,-3.83 20.68,-6.51 24.27,-7.31 27.85,-8.10 32.42,-9.70 36.99,-11.29 45.72,-14.55 54.46,-17.81 59.34,-19.76 64.22,-21.71 68.74,-23.39 73.26,-25.07 78.43,-27.84 83.61,-30.61 88.51,-33.51 93.41,-36.40 97.06,-38.84 100.72,-41.27 104.49,-43.46 108.26,-45.65 113.93,-49.18 119.60,-52.70 123.15,-55.33 126.70,-57.95 129.32,-60.39 131.93,-62.83 136.46,-67.42 140.99,-72.00 143.31,-75.11 145.63,-78.22 149.89,-84.16 154.15,-90.11 157.25,-96.34 160.34,-102.57 161.59,-106.14 162.83,-109.71 163.89,-115.23 164.95,-120.75 165.42,-125.82 165.89,-130.89 165.98,-136.30 166.07,-141.72 165.80,-146.65 165.54,-151.57 164.75,-155.32 163.96,-159.06 162.70,-164.55 161.44,-170.03 159.37,-176.12 157.31,-182.21 154.97,-187.87 152.63,-193.54 150.61,-197.77 148.60,-202.01 145.97,-207.76 143.34,-213.51 141.00,-219.29 138.66,-225.07 136.77,-229.90 134.88,-234.73 133.26,-240.34 131.64,-245.94 130.58,-251.52 129.51,-257.11 129.29,-263.20 129.06,-269.28 129.07,-276.17 129.08,-283.05 129.66,-289.34 130.24,-295.64 131.65,-302.11 133.06,-308.59 135.66,-314.91 138.25,-321.23 141.70,-327.03 145.15,-332.83 150.01,-340.54 154.88,-348.24 159.76,-355.45 164.64,-362.67 169.80,-370.65 174.96,-378.64 182.41,-391.18 189.85,-403.72 192.73,-409.16 195.60,-414.61 198.63,-420.46 201.66,-426.32 206.05,-435.51 210.44,-444.70 211.67,-449.28 212.90,-453.86 213.92,-461.08 214.94,-468.30 214.21,-472.86 213.48,-477.42 211.95,-483.07 210.42,-488.73 208.05,-492.37 205.68,-496.01 200.92,-502.81 196.16,-509.61 189.46,-515.52 182.76,-521.43 176.34,-525.40 169.91,-529.36 161.89,-532.80 153.87,-536.24 146.75,-538.69 139.63,-541.13 130.99,-543.71 122.34,-546.28 115.11,-547.30 107.88,-548.31 94.62,-550.14 81.37,-551.97 72.23,-551.60 63.09,-551.22 48.31,-549.81 33.53,-548.40 21.03,-546.09 8.53,-543.78 -9.63,-539.31 -27.79,-534.84 -39.26,-531.76 -50.73,-528.67 -60.20,-525.69 -69.66,-522.71 -78.65,-518.73 -87.63,-514.76 -94.16,-510.86 -100.70,-506.96 -108.11,-502.07 -115.53,-497.17 -120.57,-492.99 -125.60,-488.81 -129.79,-483.59 -133.98,-478.36 -136.46,-473.89 -138.94,-469.42 -140.96,-463.70 -142.98,-457.99 -143.44,-452.95 -143.90,-447.92 -142.88,-442.81 -141.86,-437.70 -139.78,-432.13 -137.70,-426.57 -134.54,-420.56 -131.39,-414.54 -128.26,-408.95 -125.13,-403.36 -121.07,-397.50 -117.01,-391.64 -113.27,-386.31 -109.53,-380.99 -105.46,-375.30 -101.40,-369.62 -97.07,-363.60 -92.75,-357.58 -86.17,-347.95 -79.58,-338.32 -76.68,-332.70 -73.77,-327.08 -71.41,-321.24 -69.06,-315.40 -66.78,-307.74 -64.49,-300.08 -64.26,-293.86 -64.03,-287.64 -64.58,-280.70 -65.12,-273.76 -66.45,-265.50 -67.77,-257.24 -69.56,-251.71 -71.34,-246.19 -74.50,-237.42 -77.66,-228.65 -80.08,-223.43 -82.49,-218.22 -85.98,-211.42 -89.47,-204.62 -93.26,-197.93 -97.06,-191.23 -100.42,-185.48 -103.78,-179.74 -106.21,-174.01 -108.64,-168.29 -110.75,-162.03 -112.86,-155.76 -114.29,-148.82 -115.71,-141.88 -116.48,-135.81 -117.24,-129.75 -117.46,-122.50 -117.68,-115.25 -117.16,-107.83 -116.64,-100.41 -115.31,-93.50 -113.98,-86.59 -111.81,-79.42 -109.64,-72.24 -106.97,-65.99 -104.30,-59.74 -101.12,-53.80 -97.94,-47.87 -93.89,-42.41 -89.85,-36.95 -84.61,-31.93 -79.36,-26.92 -75.59,-24.23 -71.82,-21.55 -66.28,-18.89 -60.74,-16.23 -56.89,-14.69 -53.05,-13.14 -47.17,-11.05 -41.30,-8.97 -36.12,-7.68 -30.93,-6.38 -27.40,-6.00 -23.87,-5.62 -19.69,-5.31 -15.52,-5.01 -12.19,-5.01 -8.85,-5.01 -4.56,-5.03 -0.26,-5.05 0.34,-5.00 0.95,-4.96 1.53,-4.78 2.11,-4.59 2.63,-4.27 3.15,-3.95 3.57,-3.52 4.00,-3.08 4.31,-2.56 4.62,-2.03 4.80,-1.45 4.98,-0.87 5.01,-0.26 5.04,0.34 4.93,0.94 4.81,1.54 4.56,2.09 4.30,2.65 3.92,3.12 3.54,3.60 3.06,3.97 2.58,4.34 2.02,4.59 1.46,4.83 0.86,4.94 0.26,5.05 0.26,5.05 L 0.26,5.05 Z"></path></g><g transform="translate(216.27455767463238 642.9410687614895) rotate(0 48.235294117647044 -0.7843017578125)" stroke="none"><path fill="#1e1e1e" d="M -1.45,-5.80 Q -1.45,-5.80 2.09,-6.97 5.63,-8.14 11.41,-8.91 17.19,-9.68 21.86,-9.77 26.53,-9.86 31.00,-9.16 35.47,-8.47 40.27,-6.65 45.07,-4.83 49.21,-2.27 53.34,0.29 56.66,3.18 59.98,6.08 62.52,9.99 65.07,13.90 66.05,17.59 67.03,21.28 67.12,24.77 67.20,28.25 65.87,32.37 64.55,36.49 63.00,39.49 61.44,42.49 59.63,44.99 57.81,47.49 54.96,49.59 52.11,51.70 49.12,52.68 46.13,53.66 42.56,53.22 38.99,52.79 35.87,50.09 32.76,47.40 31.51,43.59 30.26,39.78 30.14,35.46 30.02,31.13 31.24,25.84 32.46,20.55 34.68,15.23 36.90,9.91 39.96,4.37 43.02,-1.15 47.05,-7.58 51.08,-14.00 55.62,-20.07 60.17,-26.13 65.97,-31.92 71.76,-37.70 77.68,-42.67 83.59,-47.64 87.39,-48.03 91.19,-48.42 91.56,-48.64 91.93,-48.85 92.34,-48.94 92.76,-49.03 93.18,-48.98 93.60,-48.93 93.99,-48.75 94.37,-48.57 94.68,-48.27 94.98,-47.98 95.18,-47.60 95.38,-47.23 95.44,-46.81 95.51,-46.39 95.44,-45.97 95.36,-45.55 95.16,-45.17 94.96,-44.80 94.65,-44.51 94.34,-44.22 93.95,-44.04 93.56,-43.87 93.14,-43.83 92.72,-43.78 92.30,-43.88 91.89,-43.97 91.53,-44.19 91.17,-44.42 90.89,-44.74 90.62,-45.07 90.47,-45.46 90.31,-45.86 90.29,-46.28 90.27,-46.71 90.39,-47.12 90.50,-47.53 90.75,-47.88 90.99,-48.23 91.33,-48.48 91.67,-48.73 92.07,-48.87 92.47,-49.00 92.90,-49.00 93.32,-48.99 93.73,-48.86 94.13,-48.72 94.46,-48.46 94.80,-48.20 95.04,-47.84 95.27,-47.49 95.38,-47.08 95.49,-46.67 95.47,-46.25 95.44,-45.82 95.28,-45.43 95.12,-45.03 94.84,-44.71 94.57,-44.39 94.57,-44.39 94.57,-44.39 93.52,-40.72 92.47,-37.05 86.97,-32.46 81.47,-27.88 76.33,-22.85 71.18,-17.82 66.97,-12.24 62.76,-6.66 58.91,-0.55 55.06,5.55 52.31,10.43 49.57,15.31 47.69,19.62 45.81,23.93 44.80,27.53 43.78,31.12 44.25,35.62 44.73,40.12 47.01,38.09 49.29,36.05 51.40,32.04 53.51,28.02 53.38,24.42 53.25,20.81 52.00,18.50 50.76,16.19 48.35,14.00 45.94,11.81 42.97,9.83 39.99,7.84 36.55,6.39 33.11,4.94 29.85,4.31 26.60,3.69 22.65,3.66 18.70,3.64 13.74,4.09 8.79,4.53 5.12,5.17 1.45,5.80 0.73,5.89 0.01,5.98 -0.69,5.90 -1.41,5.81 -2.08,5.56 -2.76,5.31 -3.36,4.90 -3.95,4.49 -4.43,3.95 -4.91,3.41 -5.25,2.77 -5.59,2.14 -5.76,1.44 -5.94,0.74 -5.94,0.01 -5.94,-0.70 -5.77,-1.40 -5.60,-2.10 -5.27,-2.74 -4.93,-3.38 -4.46,-3.92 -3.98,-4.46 -3.39,-4.88 -2.79,-5.29 -2.12,-5.55 -1.45,-5.80 -1.45,-5.80 L -1.45,-5.80 Z"></path></g><g transform="translate(10 240.58812758501887) rotate(0 269.0196317784926 -81.5686394186581)" stroke="none"><path fill="#2f9e44" d="M 0,-5.23 Q 0,-5.23 3.15,-5.44 6.31,-5.65 9.23,-5.68 12.15,-5.72 16.63,-6.02 21.11,-6.33 27.00,-6.48 32.89,-6.63 38.19,-6.92 43.49,-7.20 50.98,-7.57 58.47,-7.94 66.52,-8.55 74.57,-9.16 83.66,-9.87 92.74,-10.59 106.16,-12.24 119.59,-13.90 128.72,-15.05 137.86,-16.21 152.47,-18.50 167.09,-20.80 178.92,-22.90 190.74,-25.00 207.17,-28.60 223.60,-32.19 237.99,-35.74 252.38,-39.30 265.93,-42.85 279.47,-46.40 295.93,-51.50 312.39,-56.60 324.77,-60.80 337.15,-65.00 351.00,-69.75 364.85,-74.49 376.87,-79.40 388.89,-84.30 402.56,-90.24 416.23,-96.18 425.81,-100.70 435.38,-105.23 445.24,-110.30 455.11,-115.37 463.54,-119.99 471.97,-124.61 478.50,-128.94 485.03,-133.27 491.82,-138.24 498.61,-143.22 504.11,-147.01 509.61,-150.81 513.36,-153.66 517.10,-156.52 521.73,-159.88 526.36,-163.25 530.73,-163.74 535.10,-164.22 535.48,-164.42 535.85,-164.61 536.27,-164.68 536.70,-164.74 537.11,-164.67 537.53,-164.60 537.91,-164.39 538.28,-164.19 538.57,-163.88 538.86,-163.57 539.03,-163.18 539.21,-162.79 539.25,-162.37 539.29,-161.95 539.19,-161.53 539.10,-161.12 538.88,-160.76 538.65,-160.40 538.33,-160.12 538.00,-159.85 537.60,-159.70 537.21,-159.54 536.78,-159.53 536.36,-159.51 535.95,-159.63 535.54,-159.74 535.19,-159.98 534.84,-160.23 534.59,-160.57 534.34,-160.91 534.20,-161.31 534.07,-161.72 534.08,-162.14 534.08,-162.57 534.22,-162.97 534.36,-163.37 534.62,-163.71 534.88,-164.04 535.24,-164.28 535.59,-164.51 536.00,-164.62 536.41,-164.73 536.84,-164.70 537.26,-164.67 537.65,-164.51 538.05,-164.35 538.37,-164.07 538.69,-163.80 538.90,-163.43 539.12,-163.06 539.21,-162.65 539.29,-162.23 539.24,-161.81 539.19,-161.39 539.01,-161.00 538.83,-160.62 538.53,-160.31 538.24,-160.01 538.24,-160.01 538.24,-160.01 536.41,-155.88 534.59,-151.76 530.05,-148.57 525.52,-145.38 521.49,-142.37 517.47,-139.35 512.10,-135.69 506.74,-132.04 499.65,-126.92 492.57,-121.79 485.53,-117.21 478.50,-112.63 469.89,-107.96 461.27,-103.30 451.18,-98.18 441.09,-93.07 431.30,-88.50 421.52,-83.93 407.68,-78.00 393.83,-72.07 381.44,-67.11 369.05,-62.14 355.16,-57.45 341.28,-52.76 328.72,-48.55 316.17,-44.35 299.42,-39.22 282.68,-34.10 269.04,-30.57 255.40,-27.03 240.84,-23.47 226.27,-19.90 209.60,-16.30 192.92,-12.69 180.97,-10.59 169.01,-8.49 154.21,-6.20 139.41,-3.90 130.25,-2.75 121.09,-1.60 107.39,0.04 93.69,1.69 84.58,2.38 75.47,3.07 67.24,3.66 59.02,4.24 51.55,4.55 44.08,4.85 38.59,5.10 33.09,5.35 27.39,5.39 21.68,5.43 16.92,5.57 12.15,5.72 9.23,5.68 6.31,5.65 3.15,5.44 0,5.23 -0.62,5.16 -1.25,5.08 -1.84,4.86 -2.43,4.63 -2.95,4.27 -3.47,3.92 -3.89,3.44 -4.31,2.97 -4.60,2.41 -4.89,1.85 -5.04,1.24 -5.19,0.63 -5.19,-0.00 -5.19,-0.63 -5.04,-1.24 -4.89,-1.85 -4.60,-2.41 -4.31,-2.97 -3.89,-3.44 -3.47,-3.92 -2.95,-4.27 -2.43,-4.63 -1.84,-4.86 -1.25,-5.08 -0.62,-5.16 0.00,-5.23 0.00,-5.23 L 0,-5.23 Z"></path></g><g transform="translate(500.98044002757354 71.17634492761997) rotate(0 31.764705882352928 -1.960790297564344)" stroke="none"><path fill="#2f9e44" d="M -2.15,-5.08 Q -2.15,-5.08 14.12,-12.55 30.40,-20.03 39.16,-21.37 47.92,-22.71 53.47,-20.49 59.01,-18.26 62.46,-13.25 65.91,-8.25 67.15,-4.57 68.40,-0.90 68.72,3.20 69.05,7.31 68.63,10.96 68.21,14.60 66.64,17.80 65.08,21.00 62.39,22.98 59.71,24.95 55.77,25.25 51.83,25.54 47.46,24.50 43.08,23.46 39.33,22.03 35.57,20.61 31.70,18.85 27.83,17.09 23.48,14.99 19.14,12.89 15.81,11.36 12.48,9.83 9.97,8.75 7.47,7.67 6.18,5.24 4.90,2.80 4.52,2.61 4.14,2.43 3.84,2.13 3.54,1.83 3.35,1.45 3.16,1.06 3.10,0.64 3.04,0.22 3.12,-0.18 3.20,-0.60 3.41,-0.97 3.62,-1.34 3.94,-1.63 4.25,-1.91 4.64,-2.08 5.03,-2.25 5.46,-2.28 5.88,-2.32 6.29,-2.21 6.71,-2.11 7.07,-1.88 7.42,-1.65 7.69,-1.32 7.96,-0.99 8.10,-0.59 8.25,-0.19 8.26,0.22 8.27,0.64 8.15,1.05 8.02,1.46 7.78,1.80 7.53,2.15 7.18,2.40 6.84,2.64 6.43,2.77 6.03,2.89 5.60,2.88 5.18,2.87 4.78,2.73 4.38,2.58 4.05,2.31 3.72,2.05 3.49,1.69 3.26,1.33 3.16,0.92 3.05,0.51 3.09,0.08 3.12,-0.33 3.29,-0.72 3.46,-1.11 3.74,-1.43 4.02,-1.74 4.39,-1.95 4.76,-2.16 5.18,-2.24 5.60,-2.32 6.02,-2.27 6.44,-2.21 6.44,-2.21 6.44,-2.21 9.56,-3.30 12.67,-4.38 15.31,-3.24 17.95,-2.10 21.40,-0.52 24.86,1.06 29.07,3.09 33.28,5.12 36.79,6.73 40.30,8.33 43.32,9.52 46.33,10.70 50.78,11.67 55.24,12.64 55.56,10.32 55.89,7.99 55.86,5.49 55.82,2.98 55.15,0.62 54.47,-1.72 53.42,-4.52 52.36,-7.32 50.48,-8.61 48.60,-9.91 42.02,-8.91 35.43,-7.92 18.79,-1.42 2.15,5.08 1.51,5.26 0.87,5.45 0.21,5.47 -0.45,5.50 -1.10,5.36 -1.75,5.23 -2.35,4.94 -2.95,4.66 -3.47,4.24 -3.98,3.82 -4.38,3.28 -4.78,2.75 -5.04,2.14 -5.30,1.52 -5.41,0.87 -5.51,0.21 -5.46,-0.44 -5.40,-1.11 -5.19,-1.74 -4.98,-2.37 -4.62,-2.93 -4.27,-3.49 -3.79,-3.95 -3.31,-4.41 -2.73,-4.75 -2.15,-5.08 -2.15,-5.08 L -2.15,-5.08 Z"></path></g><g transform="translate(57.84316119025732 385.6861787683829) rotate(0 267.0588594324449 -76.47058823529412)" stroke="none"><path fill="#2f9e44" d="M -0.40,-5.31 Q -0.40,-5.31 87.93,-12.77 176.27,-20.23 221.15,-25.36 266.03,-30.48 288.66,-33.78 311.29,-37.08 327.85,-41.15 344.42,-45.21 360.06,-50.71 375.71,-56.22 389.09,-61.70 402.47,-67.18 415.67,-73.73 428.86,-80.28 439.52,-86.61 450.18,-92.93 460.24,-99.83 470.30,-106.74 477.89,-112.56 485.48,-118.38 491.90,-123.37 498.32,-128.35 504.08,-133.31 509.83,-138.27 513.75,-142.08 517.67,-145.90 520.73,-148.93 523.79,-151.95 527.48,-152.77 531.18,-153.58 531.51,-153.85 531.84,-154.12 532.23,-154.27 532.63,-154.42 533.06,-154.43 533.48,-154.45 533.89,-154.33 534.30,-154.20 534.64,-153.96 534.99,-153.71 535.24,-153.37 535.49,-153.03 535.62,-152.62 535.75,-152.22 535.74,-151.79 535.73,-151.37 535.59,-150.97 535.44,-150.57 535.18,-150.23 534.91,-149.90 534.56,-149.67 534.20,-149.44 533.79,-149.33 533.38,-149.23 532.95,-149.26 532.53,-149.29 532.14,-149.45 531.75,-149.62 531.43,-149.90 531.11,-150.18 530.90,-150.55 530.69,-150.92 530.60,-151.34 530.52,-151.75 530.58,-152.18 530.63,-152.60 530.82,-152.98 531.00,-153.36 531.30,-153.66 531.60,-153.97 531.98,-154.16 532.36,-154.35 532.78,-154.41 533.20,-154.47 533.62,-154.39 534.03,-154.31 534.41,-154.11 534.78,-153.90 535.06,-153.59 535.35,-153.27 535.52,-152.88 535.69,-152.49 535.73,-152.07 535.77,-151.65 535.67,-151.23 535.57,-150.82 535.34,-150.46 535.11,-150.10 535.11,-150.10 535.11,-150.10 534.43,-145.96 533.74,-141.82 530.62,-138.78 527.50,-135.74 523.25,-131.65 519.00,-127.57 512.96,-122.42 506.91,-117.26 500.44,-112.27 493.96,-107.27 486.06,-101.26 478.16,-95.25 467.69,-88.13 457.22,-81.00 446.09,-74.47 434.97,-67.94 421.31,-61.22 407.65,-54.50 393.93,-48.93 380.21,-43.35 363.92,-37.69 347.63,-32.04 330.44,-27.88 313.24,-23.72 290.40,-20.40 267.56,-17.09 222.43,-11.95 177.29,-6.82 88.85,-0.75 0.40,5.31 -0.23,5.28 -0.87,5.25 -1.49,5.07 -2.10,4.89 -2.66,4.57 -3.21,4.24 -3.68,3.80 -4.14,3.35 -4.48,2.80 -4.82,2.26 -5.02,1.65 -5.22,1.04 -5.27,0.40 -5.32,-0.23 -5.21,-0.87 -5.11,-1.50 -4.85,-2.09 -4.60,-2.68 -4.21,-3.19 -3.82,-3.70 -3.32,-4.11 -2.82,-4.51 -2.24,-4.78 -1.66,-5.06 -1.03,-5.18 -0.40,-5.31 -0.40,-5.31 L -0.40,-5.31 Z"></path></g><g transform="translate(82.15691061580878 549.6077234604785) rotate(0 260.3921329273897 -110.19606646369485)" stroke="none"><path fill="#2f9e44" d="M -2.60,-4.91 Q -2.60,-4.91 4.88,-9.31 12.37,-13.71 18.16,-16.63 23.95,-19.56 33.05,-23.60 42.15,-27.64 50.16,-30.73 58.17,-33.81 65.98,-36.30 73.79,-38.78 83.62,-41.02 93.44,-43.25 102.85,-44.88 112.26,-46.51 123.34,-47.89 134.41,-49.27 145.23,-50.31 156.05,-51.35 166.60,-52.69 177.15,-54.02 188.26,-55.28 199.36,-56.53 214.20,-59.29 229.05,-62.05 240.47,-64.79 251.89,-67.52 265.48,-71.38 279.06,-75.23 292.87,-79.78 306.68,-84.34 318.97,-89.16 331.26,-93.98 350.11,-102.75 368.97,-111.53 381.21,-117.92 393.45,-124.32 401.43,-128.43 409.41,-132.54 416.67,-136.89 423.92,-141.24 432.86,-146.93 441.81,-152.61 449.60,-157.92 457.40,-163.24 464.77,-169.39 472.14,-175.54 478.90,-181.55 485.66,-187.56 490.32,-192.80 494.97,-198.05 498.86,-202.42 502.76,-206.79 505.90,-210.60 509.05,-214.40 513.22,-217.13 517.39,-219.86 517.66,-220.19 517.94,-220.51 518.31,-220.73 518.67,-220.94 519.09,-221.03 519.50,-221.12 519.92,-221.07 520.35,-221.03 520.73,-220.85 521.12,-220.67 521.42,-220.37 521.73,-220.08 521.93,-219.70 522.12,-219.33 522.19,-218.91 522.26,-218.49 522.19,-218.07 522.12,-217.65 521.92,-217.27 521.71,-216.90 521.41,-216.61 521.10,-216.32 520.71,-216.14 520.32,-215.96 519.90,-215.92 519.48,-215.88 519.06,-215.97 518.65,-216.06 518.28,-216.28 517.92,-216.51 517.65,-216.83 517.37,-217.16 517.22,-217.55 517.06,-217.95 517.04,-218.37 517.02,-218.80 517.14,-219.20 517.25,-219.61 517.49,-219.96 517.73,-220.31 518.07,-220.57 518.41,-220.83 518.82,-220.96 519.22,-221.09 519.64,-221.09 520.07,-221.09 520.47,-220.95 520.87,-220.81 521.21,-220.55 521.55,-220.30 521.78,-219.94 522.02,-219.59 522.13,-219.18 522.24,-218.77 522.22,-218.35 522.19,-217.92 522.03,-217.53 521.88,-217.13 521.88,-217.13 521.88,-217.13 520.84,-211.30 519.80,-205.47 516.47,-201.50 513.14,-197.52 509.22,-193.15 505.31,-188.78 500.08,-183.00 494.85,-177.21 487.90,-171.07 480.95,-164.93 473.04,-158.40 465.13,-151.87 457.14,-146.46 449.14,-141.05 440.03,-135.28 430.92,-129.52 423.28,-124.97 415.64,-120.43 407.69,-116.34 399.74,-112.25 387.21,-105.73 374.69,-99.20 355.44,-90.29 336.19,-81.39 323.54,-76.46 310.89,-71.52 296.80,-66.92 282.71,-62.31 268.86,-58.40 255.00,-54.50 243.23,-51.71 231.47,-48.92 216.16,-46.11 200.85,-43.31 189.83,-42.07 178.81,-40.84 168.06,-39.50 157.31,-38.15 146.68,-37.14 136.04,-36.13 125.27,-34.81 114.50,-33.48 105.42,-31.93 96.34,-30.38 87.04,-28.31 77.75,-26.24 70.30,-23.90 62.86,-21.57 55.12,-18.62 47.37,-15.67 38.52,-11.87 29.66,-8.08 23.97,-5.30 18.29,-2.52 10.44,1.19 2.60,4.91 1.97,5.15 1.34,5.39 0.68,5.47 0.01,5.55 -0.64,5.47 -1.31,5.40 -1.93,5.16 -2.56,4.93 -3.11,4.55 -3.67,4.17 -4.11,3.67 -4.56,3.17 -4.87,2.58 -5.18,1.98 -5.35,1.33 -5.51,0.68 -5.51,0.01 -5.51,-0.65 -5.36,-1.30 -5.20,-1.95 -4.89,-2.54 -4.58,-3.14 -4.14,-3.64 -3.70,-4.14 -3.15,-4.52 -2.59,-4.91 -2.60,-4.91 L -2.60,-4.91 Z"></path></g><g transform="translate(571.5686753216912 334.70577464384246) rotate(0 21.176470588235247 -6.666672650505518)" stroke="none"><path fill="#2f9e44" d="M -4.38,-3.03 Q -4.38,-3.03 -0.84,-9.25 2.68,-15.48 4.65,-18.26 6.63,-21.05 9.41,-23.86 12.19,-26.68 14.76,-28.20 17.33,-29.71 21.32,-30.03 25.30,-30.36 28.87,-28.80 32.45,-27.25 35.16,-24.44 37.87,-21.64 39.79,-18.03 41.71,-14.42 43.04,-11.51 44.38,-8.60 45.32,-5.62 46.26,-2.64 47.00,-0.56 47.73,1.50 48.19,4.05 48.66,6.61 48.06,9.35 47.47,12.09 44.84,14.37 42.21,16.66 37.79,16.75 33.37,16.84 30.09,16.20 26.81,15.55 23.91,14.79 21.00,14.02 17.98,12.94 14.96,11.87 12.21,10.20 9.45,8.53 7.85,3.79 6.25,-0.93 6.01,-1.28 5.78,-1.64 5.67,-2.05 5.56,-2.46 5.58,-2.88 5.61,-3.30 5.77,-3.70 5.93,-4.09 6.21,-4.41 6.49,-4.73 6.86,-4.95 7.22,-5.16 7.64,-5.25 8.05,-5.34 8.48,-5.29 8.90,-5.24 9.28,-5.06 9.67,-4.87 9.97,-4.58 10.28,-4.28 10.47,-3.91 10.67,-3.53 10.73,-3.11 10.80,-2.69 10.72,-2.27 10.65,-1.85 10.45,-1.48 10.24,-1.10 9.93,-0.81 9.62,-0.53 9.23,-0.35 8.85,-0.18 8.42,-0.13 8.00,-0.09 7.59,-0.19 7.17,-0.28 6.81,-0.51 6.45,-0.73 6.18,-1.06 5.91,-1.38 5.75,-1.78 5.60,-2.18 5.58,-2.60 5.56,-3.03 5.68,-3.43 5.80,-3.84 6.04,-4.19 6.28,-4.54 6.62,-4.79 6.96,-5.05 7.37,-5.18 7.77,-5.31 8.20,-5.31 8.62,-5.30 9.02,-5.16 9.42,-5.02 9.76,-4.76 10.10,-4.50 10.10,-4.50 10.09,-4.50 14.91,-2.81 19.73,-1.13 22.15,-0.24 24.57,0.63 27.04,1.30 29.50,1.96 32.08,4.02 34.66,6.07 33.84,3.72 33.01,1.37 32.40,-0.73 31.80,-2.85 30.56,-5.57 29.32,-8.28 27.48,-11.81 25.63,-15.34 23.55,-16.05 21.47,-16.76 19.43,-15.01 17.40,-13.26 15.47,-10.61 13.54,-7.96 8.96,-2.46 4.38,3.03 3.95,3.51 3.52,3.99 2.99,4.35 2.47,4.72 1.86,4.94 1.26,5.17 0.63,5.25 -0.00,5.32 -0.64,5.25 -1.28,5.17 -1.88,4.94 -2.48,4.71 -3.01,4.34 -3.53,3.98 -3.96,3.50 -4.39,3.02 -4.68,2.45 -4.98,1.88 -5.13,1.25 -5.29,0.63 -5.29,-0.00 -5.28,-0.65 -5.13,-1.27 -4.98,-1.89 -4.68,-2.46 -4.38,-3.03 -4.38,-3.03 L -4.38,-3.03 Z"></path></g><g transform="translate(576.2745576746323 208.4312528722432) rotate(0 25.098015280330912 9.019613826976112)" stroke="none"><path fill="#2f9e44" d="M 3.88,-3.88 Q 3.88,-3.88 6.65,-1.69 9.42,0.49 11.72,3.00 14.01,5.52 16.89,8.49 19.78,11.47 22.16,13.45 24.53,15.43 26.99,17.93 29.45,20.42 31.63,22.85 33.80,25.28 35.85,27.66 37.90,30.05 41.06,32.22 44.22,34.39 42.05,36.49 39.89,38.58 40.33,34.09 40.77,29.60 41.81,25.61 42.85,21.61 43.05,18.18 43.24,14.74 43.34,10.95 43.44,7.16 43.48,3.52 43.52,-0.11 43.53,-3.46 43.54,-6.81 43.54,-10.04 43.54,-13.27 43.53,-15.77 43.52,-18.26 45.93,-17.53 48.34,-16.79 43.46,-14.42 38.59,-12.05 33.17,-10.08 27.76,-8.11 23.08,-6.55 18.40,-4.99 15.76,-6.43 13.12,-7.87 12.70,-7.80 12.28,-7.73 11.86,-7.81 11.44,-7.88 11.07,-8.08 10.69,-8.28 10.40,-8.59 10.11,-8.90 9.93,-9.29 9.76,-9.67 9.71,-10.10 9.67,-10.52 9.76,-10.93 9.86,-11.35 10.08,-11.71 10.30,-12.07 10.63,-12.35 10.95,-12.62 11.35,-12.77 11.74,-12.93 12.17,-12.95 12.59,-12.97 13.00,-12.86 13.41,-12.74 13.76,-12.50 14.11,-12.26 14.36,-11.92 14.62,-11.58 14.75,-11.18 14.89,-10.77 14.88,-10.35 14.88,-9.92 14.74,-9.52 14.61,-9.12 14.35,-8.78 14.09,-8.44 13.73,-8.21 13.38,-7.97 12.97,-7.86 12.56,-7.75 12.14,-7.77 11.71,-7.80 11.32,-7.96 10.93,-8.12 10.60,-8.40 10.28,-8.67 10.06,-9.04 9.85,-9.40 9.76,-9.82 9.67,-10.23 9.72,-10.66 9.77,-11.08 9.95,-11.46 10.13,-11.85 10.42,-12.15 10.71,-12.46 11.09,-12.66 11.47,-12.86 11.47,-12.86 11.47,-12.86 12.73,-15.58 13.99,-18.31 18.50,-19.79 23.01,-21.28 28.60,-23.27 34.18,-25.27 38.40,-26.65 42.61,-28.02 48.14,-27.76 53.68,-27.51 55.26,-22.88 56.85,-18.24 56.83,-15.74 56.82,-13.23 56.80,-9.98 56.78,-6.73 56.74,-3.33 56.71,0.06 56.65,3.81 56.58,7.57 56.45,11.62 56.31,15.68 55.94,20.10 55.57,24.52 54.80,27.72 54.03,30.92 53.04,33.87 52.06,36.81 52.15,39.11 52.24,41.41 51.05,43.42 49.86,45.42 47.53,46.50 45.21,47.59 41.50,46.44 37.79,45.30 35.39,43.84 32.99,42.37 30.65,40.35 28.31,38.32 26.33,36.02 24.36,33.72 22.38,31.50 20.40,29.28 18.38,27.19 16.37,25.11 13.53,22.70 10.69,20.28 7.66,17.15 4.63,14.02 2.56,11.72 0.49,9.42 -1.69,6.65 -3.88,3.88 -4.29,3.36 -4.70,2.84 -4.97,2.24 -5.24,1.63 -5.36,0.98 -5.48,0.33 -5.44,-0.32 -5.40,-0.99 -5.21,-1.62 -5.01,-2.25 -4.67,-2.82 -4.32,-3.39 -3.85,-3.85 -3.39,-4.32 -2.82,-4.67 -2.25,-5.01 -1.62,-5.21 -0.99,-5.40 -0.32,-5.44 0.33,-5.48 0.98,-5.36 1.63,-5.24 2.24,-4.97 2.84,-4.70 3.36,-4.29 3.88,-3.88 3.88,-3.88 L 3.88,-3.88 Z"></path></g><g transform="translate(614.7060259650739 68.8235294117647) rotate(0 12.549007640165428 26.274485868566188)" stroke="none"><path fill="#2f9e44" d="M 4.08,1.22 Q 4.08,1.22 4.24,3.73 4.40,6.23 3.91,9.50 3.41,12.77 3.04,15.07 2.68,17.37 2.53,20.40 2.39,23.43 2.18,26.87 1.97,30.32 2.91,33.61 3.85,36.91 4.35,39.01 4.85,41.10 5.67,43.25 6.49,45.41 9.25,46.56 12.00,47.72 14.11,48.06 16.22,48.39 18.90,48.22 21.58,48.04 25.25,49.44 28.92,50.83 29.34,50.81 29.77,50.79 30.18,50.91 30.58,51.03 30.93,51.27 31.28,51.51 31.54,51.85 31.79,52.19 31.92,52.60 32.05,53.00 32.05,53.43 32.04,53.85 31.90,54.25 31.77,54.65 31.50,54.99 31.24,55.33 30.89,55.56 30.54,55.79 30.12,55.90 29.71,56.01 29.29,55.99 28.87,55.96 28.47,55.80 28.08,55.64 27.76,55.36 27.44,55.08 27.22,54.71 27.01,54.35 26.92,53.93 26.83,53.52 26.88,53.09 26.93,52.67 27.12,52.29 27.30,51.90 27.59,51.60 27.89,51.29 28.27,51.10 28.64,50.90 29.06,50.84 29.48,50.77 29.90,50.85 30.32,50.92 30.69,51.12 31.07,51.33 31.36,51.64 31.65,51.95 31.82,52.34 31.99,52.72 32.04,53.15 32.08,53.57 31.98,53.98 31.89,54.40 31.66,54.76 31.44,55.12 31.11,55.39 30.79,55.66 30.39,55.82 29.99,55.97 30.00,55.97 30.00,55.97 28.77,58.48 27.55,60.98 25.05,61.47 22.55,61.96 19.70,62.16 16.86,62.36 13.37,61.77 9.89,61.18 6.46,59.87 3.04,58.55 -0.00,56.43 -3.05,54.30 -4.53,52.32 -6.01,50.34 -6.82,48.13 -7.62,45.93 -8.16,43.54 -8.70,41.15 -9.60,38.13 -10.51,35.11 -10.59,32.04 -10.68,28.97 -10.36,25.97 -10.03,22.97 -9.72,19.14 -9.42,15.32 -9.03,13.22 -8.65,11.11 -7.88,6.94 -7.11,2.78 -5.59,0.77 -4.08,-1.22 -3.87,-1.69 -3.66,-2.16 -3.35,-2.57 -3.04,-2.98 -2.64,-3.30 -2.24,-3.62 -1.77,-3.83 -1.31,-4.05 -0.80,-4.15 -0.30,-4.24 0.21,-4.22 0.72,-4.19 1.21,-4.05 1.70,-3.90 2.14,-3.64 2.59,-3.38 2.95,-3.02 3.32,-2.66 3.59,-2.22 3.86,-1.78 4.02,-1.30 4.18,-0.81 4.21,-0.29 4.25,0.21 4.16,0.71 4.08,1.22 4.08,1.22 L 4.08,1.22 Z"></path></g><g transform="translate(617.0589671415444 95.49018411075372) rotate(0 12.156838809742624 -1.9607902975643583)" stroke="none"><path fill="#2f9e44" d="M -0.88,-5.48 Q -0.88,-5.48 6.00,-7.22 12.89,-8.96 16.20,-7.38 19.50,-5.80 19.92,-5.80 20.35,-5.80 20.75,-5.66 21.15,-5.53 21.49,-5.27 21.83,-5.01 22.07,-4.66 22.30,-4.30 22.42,-3.90 22.53,-3.49 22.50,-3.06 22.48,-2.64 22.32,-2.24 22.16,-1.85 21.89,-1.52 21.61,-1.20 21.25,-0.98 20.88,-0.77 20.47,-0.68 20.05,-0.59 19.63,-0.63 19.21,-0.68 18.82,-0.86 18.44,-1.04 18.13,-1.33 17.82,-1.62 17.62,-2.00 17.43,-2.38 17.36,-2.80 17.29,-3.22 17.36,-3.63 17.43,-4.05 17.63,-4.43 17.83,-4.80 18.14,-5.09 18.45,-5.39 18.84,-5.56 19.22,-5.74 19.64,-5.79 20.07,-5.83 20.48,-5.74 20.90,-5.65 21.26,-5.43 21.62,-5.21 21.90,-4.88 22.17,-4.56 22.33,-4.16 22.48,-3.77 22.51,-3.34 22.53,-2.92 22.41,-2.51 22.30,-2.10 22.06,-1.75 21.82,-1.40 21.48,-1.14 21.14,-0.88 20.74,-0.75 20.33,-0.61 20.33,-0.62 20.34,-0.62 17.70,1.91 15.06,4.45 7.97,4.97 0.88,5.48 0.21,5.51 -0.45,5.53 -1.11,5.40 -1.76,5.26 -2.37,4.98 -2.97,4.69 -3.49,4.26 -4.01,3.84 -4.41,3.30 -4.81,2.77 -5.07,2.15 -5.34,1.53 -5.44,0.87 -5.55,0.21 -5.49,-0.45 -5.44,-1.11 -5.23,-1.75 -5.01,-2.38 -4.65,-2.95 -4.30,-3.52 -3.81,-3.98 -3.33,-4.44 -2.75,-4.78 -2.17,-5.11 -1.52,-5.30 -0.88,-5.48 -0.88,-5.48 L -0.88,-5.48 Z"></path></g><g transform="translate(612.3530847886032 62.54900764016543) rotate(0 14.117647058823536 1.5686214671415541)" stroke="none"><path fill="#2f9e44" d="M 0.51,-4.62 Q 0.51,-4.62 8.72,-4.52 16.92,-4.42 20.17,-2.23 23.42,-0.04 23.83,0.07 24.24,0.18 24.59,0.42 24.94,0.66 25.20,1.00 25.45,1.34 25.59,1.74 25.72,2.15 25.72,2.57 25.72,3.00 25.58,3.40 25.45,3.80 25.19,4.14 24.93,4.48 24.58,4.71 24.23,4.95 23.82,5.06 23.41,5.18 22.98,5.15 22.56,5.13 22.17,4.97 21.77,4.81 21.45,4.54 21.12,4.26 20.91,3.90 20.69,3.53 20.60,3.12 20.51,2.70 20.55,2.28 20.60,1.86 20.78,1.47 20.96,1.09 21.25,0.78 21.55,0.47 21.92,0.27 22.30,0.07 22.72,0.01 23.14,-0.05 23.56,0.01 23.98,0.08 24.35,0.28 24.73,0.48 25.02,0.79 25.31,1.10 25.49,1.48 25.66,1.87 25.71,2.29 25.75,2.71 25.66,3.13 25.57,3.54 25.35,3.91 25.13,4.27 24.80,4.55 24.48,4.82 24.08,4.98 23.69,5.13 23.26,5.15 22.84,5.18 22.84,5.18 22.84,5.18 19.19,6.60 15.54,8.03 7.51,6.32 -0.51,4.62 -1.05,4.49 -1.60,4.36 -2.10,4.11 -2.60,3.85 -3.02,3.48 -3.45,3.12 -3.77,2.66 -4.09,2.20 -4.30,1.68 -4.50,1.15 -4.57,0.60 -4.65,0.04 -4.59,-0.51 -4.52,-1.06 -4.33,-1.59 -4.14,-2.12 -3.82,-2.58 -3.51,-3.04 -3.09,-3.42 -2.68,-3.80 -2.18,-4.06 -1.69,-4.33 -1.15,-4.47 -0.60,-4.61 -0.04,-4.61 0.51,-4.62 0.51,-4.62 L 0.51,-4.62 Z"></path></g><g transform="translate(657.8432329963239 136.27448586856622) rotate(0 13.333345301011036 -10.980386173023902)" stroke="none"><path fill="#2f9e44" d="M -4.06,-3.38 Q -4.06,-3.38 -2.24,-6.45 -0.43,-9.52 0.99,-11.67 2.41,-13.81 4.55,-17.17 6.69,-20.53 7.40,-22.11 8.11,-23.69 8.57,-24.38 9.02,-25.07 9.62,-25.63 10.23,-26.20 10.95,-26.60 11.67,-27.00 12.46,-27.22 13.26,-27.43 14.08,-27.45 14.91,-27.47 15.72,-27.30 16.52,-27.12 17.26,-26.75 18.00,-26.39 18.63,-25.86 19.26,-25.32 19.75,-24.66 20.23,-23.99 20.55,-23.23 20.86,-22.46 20.98,-21.65 21.10,-20.83 21.02,-20.01 20.94,-19.19 20.66,-18.41 20.39,-17.63 18.63,-16.22 16.86,-14.81 16.58,-12.47 16.29,-10.14 16.34,-8.01 16.38,-5.88 18.17,-7.44 19.96,-9.01 21.96,-8.42 23.97,-7.84 24.28,-8.14 24.58,-8.43 24.97,-8.61 25.35,-8.80 25.78,-8.85 26.20,-8.90 26.61,-8.81 27.03,-8.72 27.39,-8.50 27.76,-8.29 28.04,-7.97 28.32,-7.65 28.48,-7.25 28.64,-6.86 28.66,-6.43 28.69,-6.01 28.58,-5.60 28.47,-5.19 28.24,-4.84 28.00,-4.48 27.66,-4.22 27.33,-3.96 26.93,-3.82 26.53,-3.68 26.10,-3.68 25.68,-3.68 25.27,-3.81 24.87,-3.94 24.53,-4.19 24.19,-4.45 23.95,-4.80 23.70,-5.15 23.59,-5.56 23.47,-5.97 23.49,-6.39 23.51,-6.81 23.66,-7.21 23.82,-7.61 24.09,-7.93 24.36,-8.26 24.72,-8.48 25.08,-8.70 25.50,-8.80 25.91,-8.89 26.34,-8.85 26.76,-8.81 27.15,-8.63 27.53,-8.46 27.84,-8.17 28.16,-7.88 28.36,-7.51 28.56,-7.13 28.63,-6.71 28.70,-6.29 28.64,-5.87 28.57,-5.45 28.38,-5.08 28.18,-4.70 28.18,-4.70 28.18,-4.70 27.54,-0.57 26.90,3.55 24.17,4.77 21.43,5.99 18.48,6.30 15.53,6.61 12.05,5.68 8.58,4.76 6.28,2.47 3.98,0.19 3.11,-2.45 2.24,-5.11 2.23,-7.48 2.23,-9.85 2.89,-12.87 3.56,-15.89 4.59,-18.04 5.61,-20.19 6.86,-21.94 8.11,-23.69 8.57,-24.38 9.02,-25.07 9.62,-25.63 10.23,-26.20 10.95,-26.60 11.67,-27.00 12.46,-27.22 13.26,-27.43 14.08,-27.45 14.91,-27.47 15.71,-27.30 16.52,-27.12 17.26,-26.75 18.00,-26.39 18.63,-25.86 19.26,-25.33 19.75,-24.66 20.23,-23.99 20.55,-23.23 20.86,-22.46 20.98,-21.65 21.10,-20.83 21.02,-20.01 20.94,-19.19 20.67,-18.41 20.39,-17.63 19.24,-15.45 18.10,-13.27 15.62,-9.69 13.14,-6.11 11.29,-3.70 9.45,-1.29 6.75,1.04 4.06,3.38 3.60,3.82 3.13,4.26 2.58,4.57 2.02,4.89 1.41,5.06 0.79,5.23 0.15,5.25 -0.47,5.27 -1.10,5.13 -1.72,5.00 -2.30,4.72 -2.87,4.44 -3.36,4.03 -3.85,3.62 -4.23,3.11 -4.61,2.60 -4.85,2.01 -5.09,1.42 -5.19,0.79 -5.29,0.15 -5.23,-0.47 -5.17,-1.11 -4.96,-1.71 -4.75,-2.31 -4.41,-2.85 -4.06,-3.38 -4.06,-3.38 L -4.06,-3.38 Z"></path></g><g transform="translate(677.4511000689342 97.84312528722427) rotate(0 0.00004999999998744897 0.00005000000000165983)" stroke="none"><path fill="#2f9e44" d="M 4.25,-4.24 Q 4.25,-4.24 4.81,-3.46 5.38,-2.67 5.67,-1.74 5.95,-0.81 5.92,0.16 5.90,1.13 5.56,2.04 5.23,2.95 4.62,3.71 4.01,4.47 3.19,4.99 2.37,5.52 1.43,5.75 0.48,5.99 -0.48,5.91 -1.45,5.83 -2.34,5.44 -3.23,5.06 -3.96,4.41 -4.68,3.76 -5.16,2.91 -5.64,2.07 -5.82,1.11 -6.00,0.16 -5.87,-0.80 -5.74,-1.76 -5.31,-2.63 -4.88,-3.50 -4.19,-4.19 -3.50,-4.88 -2.63,-5.31 -1.76,-5.74 -0.79,-5.87 0.16,-6.00 1.11,-5.82 2.07,-5.64 2.92,-5.16 3.76,-4.68 4.41,-3.95 5.06,-3.23 5.44,-2.34 5.83,-1.44 5.91,-0.47 5.99,0.48 5.75,1.43 5.52,2.37 4.99,3.19 4.47,4.01 3.71,4.62 2.95,5.23 2.04,5.56 1.13,5.90 0.15,5.92 -0.81,5.95 -1.74,5.66 -2.67,5.38 -3.46,4.81 -4.25,4.24 -4.25,4.24 -4.24,4.25 -4.69,3.67 -5.14,3.10 -5.44,2.44 -5.73,1.78 -5.86,1.07 -5.99,0.36 -5.95,-0.36 -5.91,-1.08 -5.69,-1.77 -5.48,-2.46 -5.10,-3.08 -4.73,-3.70 -4.21,-4.21 -3.70,-4.73 -3.08,-5.10 -2.46,-5.48 -1.77,-5.69 -1.08,-5.91 -0.35,-5.95 0.36,-5.99 1.07,-5.86 1.78,-5.73 2.44,-5.44 3.10,-5.14 3.68,-4.69 4.25,-4.24 4.25,-4.24 L 4.25,-4.24 Z"></path></g><g transform="translate(614.7060259650739 22.549007640165485) rotate(0 29.019595875459572 1.5686394186580799)" stroke="none"><path fill="#2f9e44" d="M -0.40,-5.24 Q -0.40,-5.24 2.49,-5.99 5.38,-6.75 8.17,-6.68 10.96,-6.60 13.34,-6.35 15.73,-6.09 18.53,-5.51 21.32,-4.92 27.39,-4.25 33.47,-3.57 35.94,-3.35 38.42,-3.12 40.69,-3.04 42.95,-2.96 45.96,-2.93 48.97,-2.89 53.33,-1.18 57.69,0.51 58.11,0.57 58.53,0.64 58.91,0.83 59.29,1.02 59.59,1.33 59.89,1.63 60.07,2.01 60.25,2.40 60.31,2.82 60.36,3.24 60.27,3.66 60.19,4.07 59.97,4.44 59.76,4.81 59.44,5.09 59.12,5.37 58.73,5.53 58.34,5.69 57.91,5.72 57.49,5.75 57.08,5.64 56.67,5.54 56.31,5.30 55.96,5.07 55.69,4.74 55.43,4.40 55.29,4.00 55.15,3.60 55.14,3.17 55.14,2.75 55.27,2.35 55.39,1.94 55.65,1.60 55.90,1.26 56.25,1.01 56.60,0.77 57.00,0.65 57.41,0.53 57.84,0.55 58.26,0.56 58.66,0.71 59.05,0.87 59.38,1.14 59.71,1.41 59.93,1.77 60.16,2.13 60.26,2.54 60.35,2.96 60.31,3.38 60.27,3.80 60.10,4.19 59.93,4.58 59.64,4.89 59.35,5.20 58.98,5.41 58.61,5.61 58.19,5.69 57.77,5.76 57.77,5.76 57.77,5.76 55.92,7.91 54.06,10.06 51.45,10.37 48.83,10.68 45.61,10.59 42.39,10.51 39.79,10.39 37.18,10.27 34.57,10.02 31.96,9.78 25.17,8.86 18.37,7.94 16.20,7.39 14.02,6.83 10.18,6.34 6.34,5.85 3.37,5.54 0.40,5.24 -0.22,5.21 -0.86,5.18 -1.47,5.00 -2.07,4.82 -2.62,4.50 -3.17,4.18 -3.62,3.74 -4.08,3.30 -4.42,2.77 -4.75,2.23 -4.95,1.63 -5.15,1.03 -5.20,0.39 -5.25,-0.23 -5.14,-0.85 -5.04,-1.48 -4.79,-2.06 -4.54,-2.64 -4.15,-3.15 -3.77,-3.65 -3.28,-4.05 -2.79,-4.45 -2.21,-4.72 -1.64,-4.99 -1.02,-5.11 -0.40,-5.24 -0.40,-5.24 L -0.40,-5.24 Z"></path></g><g transform="translate(677.4511000689342 10) rotate(0 9.019595875459515 18.82352941176471)" stroke="none"><path fill="#2f9e44" d="M 0.73,-4.80 Q 0.73,-4.80 3.79,-5.18 6.85,-5.55 10.98,-4.77 15.11,-3.99 18.69,-2.88 22.28,-1.76 24.90,-0.51 27.52,0.74 29.38,3.88 31.23,7.02 30.55,10.33 29.87,13.65 28.57,15.64 27.27,17.63 25.26,19.87 23.25,22.11 20.72,25.27 18.19,28.43 16.34,30.90 14.48,33.36 12.95,34.96 11.42,36.57 9.17,38.57 6.93,40.58 4.96,41.68 2.99,42.78 0.77,43.25 -1.44,43.73 -4.76,42.51 -8.08,41.30 -9.53,39.38 -10.99,37.47 -12.25,33.32 -13.52,29.18 -13.41,26.26 -13.31,23.34 -13.00,21.16 -12.69,18.98 -12.04,16.46 -11.40,13.95 -8.25,11.26 -5.10,8.57 -4.90,8.20 -4.70,7.82 -4.40,7.53 -4.09,7.24 -3.70,7.06 -3.31,6.88 -2.89,6.83 -2.47,6.79 -2.05,6.88 -1.64,6.97 -1.28,7.19 -0.91,7.41 -0.64,7.74 -0.36,8.06 -0.21,8.45 -0.05,8.85 -0.03,9.27 -0.00,9.70 -0.12,10.11 -0.23,10.52 -0.47,10.87 -0.71,11.22 -1.05,11.48 -1.39,11.73 -1.79,11.87 -2.19,12.00 -2.62,12.00 -3.04,12.00 -3.44,11.87 -3.85,11.73 -4.19,11.47 -4.52,11.22 -4.76,10.86 -5.00,10.51 -5.11,10.10 -5.23,9.69 -5.20,9.27 -5.18,8.84 -5.02,8.45 -4.86,8.05 -4.59,7.73 -4.31,7.41 -3.95,7.19 -3.58,6.97 -3.17,6.88 -2.75,6.79 -2.33,6.83 -1.91,6.88 -1.52,7.06 -1.14,7.24 -0.83,7.53 -0.52,7.82 -0.32,8.20 -0.12,8.58 -0.06,9.00 0.00,9.41 -0.06,9.83 -0.13,10.25 -0.13,10.25 -0.13,10.25 0.87,13.87 1.87,17.48 1.12,20.81 0.38,24.13 0.06,26.58 -0.24,29.02 1.71,27.08 3.67,25.13 5.61,22.60 7.54,20.07 8.88,18.37 10.22,16.67 11.76,14.84 13.29,13.00 15.55,11.92 17.82,10.84 14.50,9.77 11.17,8.69 8.02,8.03 4.86,7.36 2.06,6.08 -0.73,4.80 -1.30,4.64 -1.86,4.48 -2.37,4.19 -2.88,3.90 -3.31,3.50 -3.73,3.10 -4.05,2.61 -4.37,2.12 -4.56,1.56 -4.75,1.01 -4.80,0.42 -4.85,-0.15 -4.76,-0.73 -4.67,-1.31 -4.45,-1.85 -4.22,-2.39 -3.88,-2.86 -3.53,-3.33 -3.08,-3.71 -2.63,-4.08 -2.10,-4.34 -1.57,-4.59 -1.00,-4.71 -0.43,-4.84 0.15,-4.82 0.73,-4.80 0.73,-4.80 L 0.73,-4.80 Z"></path></g></svg>