<svg version="1.1" xmlns="http://www.w3.org/2000/svg" viewBox="0 0 184 330" width="184" height="330" class="excalidraw-svg"><!-- svg-source:excalidraw --><metadata></metadata><defs><style class="style-fonts">
      </style></defs><rect x="0" y="0" width="184" height="330" fill="#ffffff"></rect><g transform="translate(76 98.66665649414062) rotate(0 -32 37.333343505859375)" stroke="none"><path fill="#1e1e1e" d="M 3.26,2.79 Q 3.26,2.79 -14.55,24.76 -32.37,46.72 -41.41,54.80 -50.44,62.88 -50.77,63.16 -51.09,63.43 -51.49,63.59 -51.88,63.74 -52.31,63.76 -52.73,63.78 -53.14,63.67 -53.55,63.55 -53.90,63.31 -54.25,63.07 -54.51,62.73 -54.76,62.39 -54.90,61.99 -55.03,61.59 -55.03,61.16 -55.03,60.74 -54.89,60.34 -54.75,59.93 -54.49,59.60 -54.23,59.26 -53.88,59.02 -53.53,58.79 -53.12,58.67 -52.71,58.56 -52.28,58.59 -51.86,58.61 -51.46,58.77 -51.07,58.93 -50.75,59.21 -50.43,59.48 -50.21,59.85 -49.99,60.21 -49.90,60.63 -49.81,61.05 -49.86,61.47 -49.91,61.89 -50.09,62.27 -50.27,62.66 -50.56,62.97 -50.86,63.27 -51.23,63.47 -51.61,63.67 -52.03,63.73 -52.45,63.80 -52.87,63.73 -53.29,63.66 -53.66,63.46 -54.03,63.26 -54.33,62.95 -54.62,62.64 -54.79,62.25 -54.97,61.87 -55.01,61.44 -55.06,61.02 -54.96,60.61 -54.87,60.19 -54.65,59.83 -54.43,59.47 -54.43,59.47 -54.43,59.47 -47.82,49.30 -41.22,39.14 -22.24,18.17 -3.26,-2.79 -2.88,-3.14 -2.50,-3.49 -2.04,-3.74 -1.59,-3.99 -1.08,-4.12 -0.58,-4.25 -0.06,-4.26 0.44,-4.27 0.95,-4.16 1.45,-4.04 1.92,-3.81 2.38,-3.57 2.77,-3.24 3.17,-2.90 3.47,-2.48 3.77,-2.06 3.96,-1.57 4.15,-1.09 4.22,-0.58 4.29,-0.07 4.24,0.44 4.19,0.96 4.01,1.44 3.83,1.93 3.55,2.36 3.26,2.79 3.26,2.79 L 3.26,2.79 Z"></path></g><g transform="translate(10 178.66665649414062) rotate(0 7 45.333343505859375)" stroke="none"><path fill="#1e1e1e" d="M 5.16,-1.47 Q 5.16,-1.47 6.32,2.54 7.48,6.57 8.23,10.43 8.98,14.30 9.31,17.41 9.65,20.52 9.98,24.69 10.31,28.85 10.82,33.17 11.33,37.48 11.75,41.30 12.18,45.12 12.74,48.94 13.30,52.76 13.76,56.40 14.22,60.04 14.62,63.92 15.03,67.80 15.39,70.92 15.76,74.04 16.12,76.88 16.49,79.73 17.16,81.85 17.83,83.98 17.00,86.44 16.17,88.90 16.24,89.31 16.31,89.73 16.24,90.15 16.17,90.57 15.97,90.95 15.77,91.32 15.47,91.62 15.16,91.91 14.77,92.09 14.39,92.27 13.96,92.31 13.54,92.36 13.13,92.27 12.71,92.18 12.35,91.96 11.98,91.74 11.71,91.42 11.43,91.09 11.28,90.70 11.12,90.30 11.09,89.88 11.07,89.45 11.18,89.04 11.30,88.64 11.54,88.28 11.77,87.93 12.11,87.67 12.45,87.42 12.85,87.28 13.26,87.14 13.68,87.14 14.11,87.14 14.51,87.28 14.91,87.41 15.25,87.67 15.59,87.93 15.83,88.28 16.07,88.63 16.18,89.04 16.29,89.45 16.27,89.88 16.25,90.30 16.09,90.69 15.93,91.09 15.66,91.41 15.38,91.74 15.02,91.96 14.66,92.18 14.24,92.27 13.83,92.36 13.40,92.31 12.98,92.27 12.60,92.09 12.21,91.91 11.90,91.62 11.59,91.33 11.39,90.95 11.19,90.58 11.19,90.58 11.19,90.58 8.95,88.84 6.70,87.10 5.93,84.10 5.16,81.09 4.84,78.19 4.53,75.28 4.19,72.09 3.86,68.89 3.51,65.13 3.17,61.36 2.77,57.84 2.37,54.32 1.81,50.31 1.26,46.31 0.86,42.53 0.47,38.75 -0.05,34.22 -0.57,29.68 -0.87,25.65 -1.17,21.61 -1.41,18.95 -1.66,16.30 -2.27,12.91 -2.88,9.52 -4.02,5.50 -5.16,1.47 -5.26,0.83 -5.36,0.19 -5.31,-0.44 -5.25,-1.09 -5.05,-1.70 -4.84,-2.32 -4.49,-2.86 -4.14,-3.41 -3.68,-3.85 -3.21,-4.30 -2.64,-4.62 -2.08,-4.95 -1.46,-5.12 -0.84,-5.30 -0.19,-5.32 0.45,-5.35 1.08,-5.22 1.72,-5.08 2.30,-4.80 2.88,-4.52 3.38,-4.11 3.88,-3.70 4.27,-3.18 4.66,-2.66 4.91,-2.07 5.16,-1.47 5.16,-1.47 L 5.16,-1.47 Z"></path></g><g transform="translate(25.33331298828125 264.6666564941406) rotate(0 37 27.666671752929688)" stroke="none"><path fill="#1e1e1e" d="M 3.07,-3.73 Q 3.07,-3.73 6.48,-1.23 9.88,1.27 12.35,3.07 14.82,4.87 17.23,6.94 19.64,9.00 24.09,13.06 28.54,17.11 31.75,20.02 34.95,22.92 37.43,25.09 39.91,27.25 42.84,29.67 45.77,32.08 49.28,34.80 52.79,37.52 55.60,39.63 58.42,41.73 60.95,43.58 63.48,45.42 65.64,46.61 67.79,47.80 70.53,49.88 73.27,51.96 73.68,52.07 74.09,52.17 74.45,52.40 74.80,52.63 75.07,52.97 75.33,53.30 75.47,53.70 75.62,54.10 75.62,54.53 75.63,54.95 75.50,55.36 75.38,55.76 75.13,56.10 74.88,56.45 74.53,56.69 74.18,56.94 73.77,57.06 73.37,57.18 72.94,57.17 72.52,57.15 72.12,57.00 71.72,56.85 71.39,56.58 71.06,56.31 70.84,55.95 70.61,55.59 70.51,55.18 70.41,54.77 70.45,54.34 70.49,53.92 70.66,53.53 70.83,53.14 71.12,52.83 71.40,52.52 71.78,52.31 72.15,52.10 72.57,52.03 72.98,51.95 73.40,52.01 73.82,52.07 74.20,52.26 74.58,52.45 74.88,52.76 75.18,53.06 75.36,53.44 75.55,53.83 75.60,54.25 75.66,54.67 75.57,55.08 75.49,55.50 75.28,55.87 75.07,56.24 74.75,56.52 74.43,56.80 74.04,56.97 73.65,57.13 73.22,57.16 72.80,57.19 72.80,57.19 72.80,57.19 69.68,58.25 66.56,59.31 64.45,58.40 62.35,57.48 59.65,55.93 56.95,54.38 54.37,52.49 51.79,50.61 48.89,48.44 45.99,46.27 42.36,43.44 38.73,40.61 35.68,38.09 32.64,35.57 30.08,33.33 27.53,31.10 24.30,28.16 21.08,25.22 16.75,21.20 12.43,17.19 10.39,15.34 8.34,13.48 5.74,11.47 3.14,9.46 0.03,6.59 -3.07,3.73 -3.47,3.31 -3.88,2.89 -4.17,2.38 -4.46,1.87 -4.62,1.31 -4.78,0.75 -4.80,0.17 -4.82,-0.41 -4.70,-0.98 -4.58,-1.55 -4.33,-2.07 -4.08,-2.60 -3.70,-3.05 -3.33,-3.50 -2.87,-3.85 -2.40,-4.20 -1.86,-4.42 -1.32,-4.65 -0.75,-4.74 -0.17,-4.83 0.40,-4.78 0.98,-4.73 1.54,-4.55 2.09,-4.36 2.58,-4.05 3.07,-3.73 3.07,-3.73 L 3.07,-3.73 Z"></path></g><g transform="translate(109.33331298828125 320) rotate(0 27.666656494140625 -25.333328247070312)" stroke="none"><path fill="#1e1e1e" d="M -3.09,-3.47 Q -3.09,-3.47 0.16,-6.76 3.42,-10.04 6.51,-13.04 9.61,-16.05 11.46,-17.63 13.30,-19.21 16.37,-22.25 19.44,-25.30 22.86,-28.75 26.29,-32.20 29.10,-35.00 31.90,-37.80 34.37,-40.45 36.83,-43.10 38.69,-45.07 40.54,-47.04 42.41,-48.79 44.27,-50.53 48.88,-51.57 53.49,-52.61 53.88,-52.77 54.27,-52.94 54.70,-52.98 55.12,-53.01 55.53,-52.91 55.95,-52.80 56.30,-52.57 56.66,-52.34 56.93,-52.01 57.19,-51.68 57.34,-51.28 57.49,-50.88 57.50,-50.46 57.51,-50.03 57.38,-49.63 57.26,-49.22 57.01,-48.88 56.76,-48.53 56.41,-48.28 56.07,-48.04 55.66,-47.91 55.26,-47.79 54.83,-47.80 54.41,-47.81 54.01,-47.96 53.61,-48.11 53.28,-48.37 52.95,-48.64 52.72,-49.00 52.49,-49.36 52.39,-49.77 52.29,-50.18 52.32,-50.61 52.36,-51.03 52.53,-51.42 52.69,-51.81 52.98,-52.13 53.26,-52.44 53.63,-52.65 54.00,-52.86 54.42,-52.94 54.84,-53.02 55.26,-52.96 55.68,-52.90 56.06,-52.71 56.44,-52.52 56.74,-52.22 57.04,-51.92 57.23,-51.54 57.42,-51.16 57.47,-50.74 57.53,-50.32 57.45,-49.90 57.37,-49.48 57.16,-49.11 56.95,-48.74 56.63,-48.46 56.32,-48.18 56.32,-48.18 56.32,-48.18 54.11,-45.14 51.90,-42.11 50.28,-40.68 48.66,-39.26 46.82,-37.38 44.98,-35.50 42.36,-32.70 39.74,-29.91 36.91,-27.11 34.07,-24.31 30.54,-20.89 27.00,-17.47 23.61,-14.27 20.21,-11.08 18.58,-9.70 16.94,-8.32 13.66,-5.27 10.37,-2.21 6.73,0.62 3.09,3.47 2.63,3.79 2.16,4.11 1.64,4.31 1.12,4.51 0.56,4.58 0.00,4.65 -0.54,4.58 -1.10,4.51 -1.63,4.32 -2.15,4.12 -2.61,3.80 -3.07,3.48 -3.45,3.06 -3.82,2.64 -4.08,2.15 -4.34,1.65 -4.48,1.11 -4.61,0.56 -4.61,0.00 -4.61,-0.55 -4.48,-1.09 -4.35,-1.64 -4.09,-2.14 -3.83,-2.63 -3.46,-3.05 -3.09,-3.47 -3.09,-3.47 L -3.09,-3.47 Z"></path></g><g transform="translate(165.33331298828125 188) rotate(0 1.666656494140625 39.33332824707031)" stroke="none"><path fill="#1e1e1e" d="M 4.79,-0.18 Q 4.79,-0.18 5.40,4.78 6.00,9.75 6.09,13.25 6.18,16.75 6.23,22.29 6.28,27.84 6.49,33.93 6.70,40.02 6.98,45.66 7.26,51.31 7.58,56.37 7.89,61.44 8.21,65.07 8.53,68.69 7.20,72.76 5.87,76.82 5.82,77.24 5.77,77.66 5.59,78.05 5.41,78.43 5.12,78.74 4.82,79.05 4.45,79.25 4.07,79.44 3.65,79.51 3.23,79.58 2.81,79.51 2.39,79.44 2.02,79.24 1.64,79.04 1.35,78.73 1.06,78.42 0.89,78.03 0.71,77.64 0.66,77.22 0.62,76.80 0.71,76.38 0.81,75.97 1.03,75.61 1.25,75.24 1.57,74.97 1.90,74.70 2.29,74.54 2.69,74.38 3.11,74.36 3.54,74.34 3.95,74.46 4.35,74.57 4.70,74.81 5.06,75.05 5.31,75.39 5.57,75.73 5.70,76.13 5.84,76.54 5.83,76.96 5.83,77.39 5.70,77.79 5.56,78.19 5.30,78.53 5.04,78.86 4.69,79.10 4.34,79.34 3.93,79.45 3.52,79.56 3.09,79.54 2.67,79.51 2.27,79.36 1.88,79.20 1.56,78.92 1.23,78.64 1.02,78.28 0.80,77.91 0.71,77.50 0.62,77.08 0.62,77.08 0.62,77.08 -1.09,73.38 -2.82,69.69 -3.15,65.91 -3.48,62.13 -3.78,57.00 -4.09,51.87 -4.36,46.13 -4.64,40.40 -4.84,34.15 -5.05,27.91 -5.07,22.46 -5.09,17.01 -5.16,13.60 -5.24,10.18 -5.01,5.18 -4.79,0.18 -4.74,-0.39 -4.69,-0.96 -4.51,-1.51 -4.32,-2.06 -4.01,-2.55 -3.70,-3.03 -3.29,-3.43 -2.87,-3.83 -2.37,-4.12 -1.87,-4.41 -1.31,-4.57 -0.76,-4.73 -0.18,-4.75 0.39,-4.77 0.96,-4.66 1.52,-4.54 2.04,-4.29 2.57,-4.04 3.01,-3.68 3.46,-3.31 3.81,-2.85 4.15,-2.38 4.38,-1.85 4.60,-1.32 4.70,-0.75 4.79,-0.18 4.79,-0.18 L 4.79,-0.18 Z"></path></g><g transform="translate(173.33331298828125 267.3333435058594) rotate(0 -3.666656494140625 -24.333343505859375)" stroke="none"><path fill="#1e1e1e" d="M -4.53,0 Q -4.53,0 -4.63,-3.83 -4.74,-7.66 -5.22,-11.35 -5.71,-15.04 -7.16,-22.03 -8.61,-29.03 -9.36,-32.83 -10.11,-36.63 -10.64,-39.22 -11.17,-41.80 -10.39,-44.39 -9.62,-46.99 -9.66,-47.41 -9.69,-47.83 -9.58,-48.25 -9.48,-48.66 -9.25,-49.02 -9.02,-49.37 -8.69,-49.64 -8.35,-49.90 -7.95,-50.05 -7.55,-50.19 -7.13,-50.20 -6.70,-50.21 -6.30,-50.08 -5.89,-49.96 -5.55,-49.71 -5.21,-49.46 -4.96,-49.11 -4.71,-48.76 -4.59,-48.36 -4.47,-47.95 -4.48,-47.53 -4.49,-47.10 -4.64,-46.70 -4.79,-46.31 -5.06,-45.98 -5.33,-45.65 -5.69,-45.42 -6.05,-45.19 -6.46,-45.09 -6.87,-44.99 -7.29,-45.03 -7.72,-45.06 -8.11,-45.23 -8.50,-45.40 -8.81,-45.69 -9.13,-45.97 -9.33,-46.34 -9.54,-46.72 -9.62,-47.13 -9.70,-47.55 -9.64,-47.97 -9.58,-48.39 -9.39,-48.77 -9.20,-49.15 -8.90,-49.45 -8.59,-49.75 -8.21,-49.94 -7.83,-50.12 -7.41,-50.18 -6.99,-50.23 -6.57,-50.15 -6.15,-50.07 -5.78,-49.86 -5.42,-49.65 -5.13,-49.33 -4.85,-49.01 -4.69,-48.62 -4.52,-48.23 -4.52,-48.23 -4.52,-48.23 -2.58,-46.05 -0.65,-43.87 -0.16,-41.27 0.33,-38.67 1.08,-34.80 1.82,-30.92 3.00,-23.46 4.17,-16.00 4.46,-11.83 4.74,-7.66 4.63,-3.83 4.53,0 4.46,0.54 4.40,1.08 4.20,1.59 4.01,2.10 3.70,2.55 3.39,3.00 2.98,3.36 2.57,3.73 2.09,3.98 1.60,4.23 1.07,4.37 0.54,4.50 -0.00,4.50 -0.54,4.50 -1.07,4.37 -1.60,4.23 -2.09,3.98 -2.57,3.73 -2.98,3.36 -3.39,3.00 -3.70,2.55 -4.01,2.10 -4.20,1.59 -4.40,1.08 -4.46,0.54 -4.53,-0.00 -4.53,-0.00 L -4.53,0 Z"></path></g><g transform="translate(80 101.33332824707031) rotate(0 47 44.666664123535156)" stroke="none"><path fill="#1e1e1e" d="M 1.61,-4.43 Q 1.61,-4.43 3.77,-3.81 5.94,-3.19 9.11,-1.67 12.27,-0.15 15.38,1.64 18.48,3.44 20.60,4.82 22.72,6.20 26.78,10.38 30.85,14.57 35.07,19.02 39.29,23.48 43.17,27.44 47.04,31.39 50.99,35.37 54.93,39.35 59.18,44.01 63.44,48.66 67.19,52.95 70.94,57.23 74.73,62.00 78.52,66.78 81.53,70.16 84.54,73.53 87.28,76.21 90.02,78.88 91.99,80.44 93.97,82.01 94.37,84.34 94.77,86.68 95.08,86.97 95.39,87.27 95.59,87.64 95.79,88.02 95.85,88.44 95.92,88.86 95.85,89.28 95.78,89.69 95.58,90.07 95.38,90.45 95.08,90.74 94.77,91.03 94.38,91.21 93.99,91.38 93.57,91.43 93.15,91.48 92.73,91.38 92.32,91.29 91.96,91.07 91.59,90.85 91.32,90.53 91.04,90.20 90.89,89.81 90.73,89.41 90.71,88.99 90.68,88.57 90.80,88.16 90.91,87.75 91.15,87.40 91.39,87.04 91.73,86.79 92.07,86.53 92.47,86.40 92.87,86.26 93.30,86.26 93.72,86.26 94.13,86.40 94.53,86.53 94.87,86.79 95.20,87.05 95.44,87.40 95.68,87.75 95.79,88.16 95.91,88.57 95.88,89.00 95.86,89.42 95.70,89.82 95.54,90.21 95.27,90.53 94.99,90.86 94.63,91.08 94.26,91.29 93.85,91.38 93.43,91.48 93.01,91.43 92.59,91.38 92.20,91.20 91.82,91.02 91.82,91.02 91.82,91.02 89.05,91.20 86.27,91.38 83.91,89.39 81.55,87.39 78.59,84.38 75.63,81.38 72.45,77.71 69.27,74.04 65.70,69.46 62.14,64.88 58.51,60.67 54.89,56.46 50.80,51.96 46.71,47.46 42.75,43.42 38.78,39.38 34.89,35.29 30.99,31.20 26.84,26.66 22.69,22.12 19.68,18.65 16.67,15.19 14.78,13.91 12.88,12.63 10.14,10.88 7.40,9.12 4.94,7.69 2.48,6.26 0.43,5.34 -1.61,4.43 -2.11,4.17 -2.62,3.91 -3.05,3.54 -3.48,3.17 -3.81,2.71 -4.14,2.24 -4.35,1.72 -4.56,1.19 -4.64,0.62 -4.71,0.06 -4.65,-0.50 -4.59,-1.06 -4.40,-1.60 -4.20,-2.13 -3.89,-2.60 -3.57,-3.08 -3.15,-3.46 -2.73,-3.84 -2.23,-4.11 -1.73,-4.38 -1.18,-4.53 -0.63,-4.67 -0.06,-4.68 0.50,-4.69 1.05,-4.56 1.61,-4.43 1.61,-4.43 L 1.61,-4.43 Z"></path></g><g transform="translate(75.33331298828125 60.666656494140625) rotate(0 1.666656494140625 16.333335876464844)" stroke="none"><path fill="#1e1e1e" d="M 4.52,-0.90 Q 4.52,-0.90 5.58,1.87 6.64,4.65 6.95,8.53 7.27,12.40 7.40,16.51 7.53,20.62 7.80,25.56 8.06,30.50 6.90,32.84 5.74,35.18 5.74,35.61 5.75,36.03 5.61,36.44 5.48,36.84 5.22,37.18 4.97,37.52 4.62,37.76 4.27,38.00 3.86,38.12 3.45,38.23 3.03,38.21 2.60,38.19 2.21,38.04 1.81,37.88 1.48,37.61 1.16,37.33 0.94,36.97 0.72,36.61 0.62,36.19 0.53,35.78 0.57,35.36 0.62,34.93 0.79,34.55 0.97,34.16 1.26,33.85 1.55,33.54 1.92,33.34 2.30,33.14 2.72,33.07 3.14,33.00 3.56,33.06 3.98,33.13 4.35,33.33 4.73,33.52 5.02,33.83 5.32,34.14 5.50,34.52 5.68,34.91 5.73,35.33 5.78,35.75 5.69,36.17 5.60,36.58 5.38,36.95 5.16,37.31 4.84,37.59 4.52,37.87 4.12,38.02 3.73,38.18 3.31,38.21 2.88,38.23 2.47,38.12 2.06,38.01 1.71,37.78 1.36,37.54 1.10,37.20 0.84,36.87 0.70,36.46 0.56,36.06 0.56,36.06 0.56,36.06 -1.39,33.69 -3.35,31.31 -3.59,26.11 -3.83,20.91 -3.91,17.05 -3.99,13.18 -4.16,10.01 -4.34,6.84 -4.43,3.87 -4.52,0.90 -4.56,0.35 -4.60,-0.20 -4.51,-0.75 -4.42,-1.30 -4.20,-1.81 -3.98,-2.32 -3.65,-2.76 -3.31,-3.20 -2.88,-3.55 -2.44,-3.90 -1.94,-4.14 -1.44,-4.38 -0.89,-4.49 -0.35,-4.59 0.20,-4.57 0.75,-4.55 1.29,-4.39 1.82,-4.23 2.30,-3.95 2.78,-3.67 3.18,-3.28 3.58,-2.90 3.88,-2.43 4.17,-1.96 4.34,-1.43 4.52,-0.90 4.52,-0.90 L 4.52,-0.90 Z"></path></g><g transform="translate(84 19.333328247070312) rotate(0 -3 -2)" stroke="none"><path fill="#1e1e1e" d="M -2.34,3.51 Q -2.34,3.51 -3.62,1.69 -4.90,-0.11 -5.21,-0.40 -5.52,-0.69 -5.73,-1.06 -5.93,-1.44 -6.00,-1.86 -6.07,-2.27 -6.01,-2.69 -5.94,-3.11 -5.74,-3.49 -5.55,-3.87 -5.24,-4.16 -4.94,-4.46 -4.55,-4.64 -4.17,-4.82 -3.75,-4.87 -3.32,-4.92 -2.91,-4.83 -2.49,-4.74 -2.13,-4.53 -1.76,-4.31 -1.48,-3.99 -1.20,-3.67 -1.04,-3.27 -0.88,-2.88 -0.86,-2.46 -0.83,-2.03 -0.94,-1.62 -1.05,-1.21 -1.29,-0.86 -1.52,-0.50 -1.86,-0.24 -2.20,0.01 -2.60,0.14 -3.00,0.28 -3.43,0.29 -3.85,0.29 -4.25,0.16 -4.66,0.02 -5.00,-0.22 -5.34,-0.47 -5.58,-0.82 -5.82,-1.17 -5.94,-1.58 -6.05,-1.99 -6.03,-2.42 -6.01,-2.84 -5.86,-3.24 -5.71,-3.63 -5.43,-3.96 -5.16,-4.28 -4.80,-4.51 -4.44,-4.73 -4.02,-4.82 -3.61,-4.92 -3.18,-4.87 -2.76,-4.83 -2.37,-4.66 -1.99,-4.48 -1.99,-4.48 -1.99,-4.48 0.17,-3.99 2.34,-3.51 2.72,-3.17 3.11,-2.84 3.40,-2.43 3.70,-2.02 3.89,-1.54 4.07,-1.07 4.14,-0.57 4.21,-0.06 4.16,0.43 4.11,0.94 3.93,1.42 3.76,1.90 3.48,2.32 3.20,2.74 2.82,3.08 2.45,3.43 2.00,3.67 1.55,3.92 1.06,4.04 0.57,4.17 0.06,4.18 -0.44,4.19 -0.93,4.08 -1.43,3.96 -1.88,3.73 -2.34,3.51 -2.34,3.51 L -2.34,3.51 Z"></path></g><g transform="translate(77.33331298828125 16) rotate(0 -5.33331298828125 13.333328247070312)" stroke="none"><path fill="#1e1e1e" d="M 0.19,4.97 Q 0.19,4.97 -4.57,5.46 -9.35,5.94 -11.79,6.39 -14.22,6.83 -16.53,8.03 -18.84,9.23 -19.64,11.72 -20.44,14.21 -19.40,16.13 -18.36,18.05 -15.84,19.39 -13.32,20.73 -10.16,21.33 -7.00,21.94 -3.45,22.01 0.09,22.09 2.93,20.96 5.77,19.83 7.41,16.98 9.06,14.12 9.59,11.51 10.11,8.90 8.67,7.21 7.22,5.51 4.37,4.26 1.52,3.00 1.10,3.03 0.67,3.06 0.26,2.95 -0.14,2.84 -0.50,2.61 -0.85,2.38 -1.11,2.04 -1.38,1.71 -1.52,1.31 -1.66,0.91 -1.67,0.48 -1.67,0.06 -1.54,-0.34 -1.41,-0.74 -1.16,-1.08 -0.91,-1.43 -0.56,-1.67 -0.21,-1.91 0.19,-2.03 0.59,-2.15 1.02,-2.14 1.44,-2.12 1.84,-1.97 2.24,-1.82 2.57,-1.55 2.89,-1.28 3.12,-0.91 3.34,-0.55 3.44,-0.14 3.54,0.26 3.50,0.69 3.46,1.11 3.28,1.50 3.11,1.89 2.82,2.20 2.54,2.51 2.16,2.72 1.79,2.92 1.37,3.00 0.96,3.07 0.53,3.01 0.11,2.95 -0.25,2.75 -0.63,2.56 -0.93,2.25 -1.23,1.95 -1.41,1.57 -1.59,1.18 -1.65,0.76 -1.70,0.34 -1.61,-0.07 -1.53,-0.48 -1.31,-0.85 -1.10,-1.22 -0.78,-1.50 -0.46,-1.78 -0.07,-1.94 0.31,-2.10 0.31,-2.10 0.31,-2.10 2.81,-4.44 5.30,-6.77 8.33,-6.50 11.37,-6.23 14.26,-4.85 17.15,-3.48 18.79,-1.61 20.44,0.25 21.38,2.50 22.32,4.75 22.26,8.18 22.20,11.61 21.30,15.01 20.41,18.41 18.79,21.07 17.18,23.73 12.84,27.78 8.50,31.83 6.12,32.63 3.74,33.42 -0.14,33.52 -4.04,33.61 -8.43,33.09 -12.82,32.57 -15.51,31.76 -18.20,30.95 -20.79,29.63 -23.38,28.31 -25.11,26.91 -26.84,25.50 -28.68,23.03 -30.52,20.56 -31.06,18.40 -31.59,16.23 -31.50,13.94 -31.41,11.65 -30.47,8.62 -29.52,5.59 -25.66,1.85 -21.79,-1.88 -18.97,-3.04 -16.15,-4.20 -12.98,-4.69 -9.81,-5.18 -5.00,-5.07 -0.19,-4.97 0.39,-4.92 0.99,-4.88 1.56,-4.69 2.13,-4.49 2.64,-4.17 3.15,-3.85 3.56,-3.42 3.98,-2.99 4.28,-2.47 4.58,-1.95 4.75,-1.37 4.91,-0.79 4.94,-0.19 4.96,0.40 4.84,0.99 4.72,1.57 4.46,2.12 4.20,2.66 3.82,3.12 3.44,3.59 2.96,3.95 2.48,4.31 1.93,4.55 1.38,4.78 0.79,4.88 0.19,4.97 0.19,4.97 L 0.19,4.97 Z"></path></g><g transform="translate(117.33331298828125 14.666656494140625) rotate(0 2.333343505859375 16)" stroke="none"><path fill="#1e1e1e" d="M 4.23,0 Q 4.23,0 4.69,3.83 5.15,7.66 5.18,11.21 5.22,14.75 5.26,17.98 5.30,21.21 5.97,24.26 6.65,27.30 7.16,28.78 7.68,30.27 7.73,30.94 7.79,31.60 7.69,32.26 7.58,32.92 7.32,33.54 7.06,34.15 6.66,34.69 6.26,35.22 5.75,35.65 5.23,36.07 4.63,36.36 4.03,36.65 3.37,36.78 2.72,36.92 2.05,36.89 1.38,36.87 0.74,36.69 0.10,36.50 -0.47,36.17 -1.05,35.84 -1.53,35.38 -2.02,34.92 -2.37,34.35 -2.73,33.79 -2.95,33.16 -3.16,32.52 -1.88,29.64 -0.60,26.76 0.65,26.60 1.91,26.43 2.14,26.07 2.36,25.71 2.69,25.44 3.02,25.17 3.41,25.02 3.81,24.87 4.23,24.85 4.66,24.83 5.07,24.95 5.48,25.07 5.82,25.32 6.17,25.56 6.42,25.90 6.68,26.24 6.81,26.65 6.94,27.05 6.93,27.48 6.92,27.90 6.78,28.30 6.64,28.70 6.38,29.04 6.12,29.37 5.76,29.61 5.41,29.84 5.00,29.95 4.58,30.06 4.16,30.03 3.74,30.00 3.34,29.83 2.95,29.67 2.63,29.39 2.31,29.11 2.10,28.74 1.88,28.38 1.80,27.96 1.71,27.55 1.77,27.12 1.82,26.70 2.00,26.32 2.19,25.94 2.48,25.63 2.78,25.33 3.16,25.13 3.54,24.94 3.96,24.88 4.38,24.81 4.79,24.89 5.21,24.96 5.59,25.17 5.96,25.37 6.25,25.69 6.53,26.00 6.71,26.39 6.88,26.77 6.92,27.20 6.96,27.62 6.86,28.03 6.76,28.45 6.76,28.45 6.76,28.45 6.56,31.82 6.36,35.19 7.02,32.73 7.68,30.27 7.73,30.94 7.79,31.60 7.69,32.26 7.58,32.92 7.32,33.54 7.06,34.15 6.66,34.69 6.26,35.22 5.75,35.65 5.23,36.07 4.63,36.36 4.03,36.65 3.37,36.78 2.72,36.92 2.05,36.89 1.38,36.87 0.74,36.69 0.10,36.50 -0.47,36.17 -1.05,35.84 -1.53,35.38 -2.02,34.92 -2.37,34.35 -2.73,33.79 -2.95,33.16 -3.16,32.52 -3.59,31.30 -4.02,30.08 -4.48,27.86 -4.93,25.65 -5.12,23.43 -5.30,21.22 -5.26,17.99 -5.22,14.75 -5.18,11.21 -5.15,7.66 -4.69,3.83 -4.23,0 -4.17,-0.50 -4.11,-1.01 -3.93,-1.49 -3.75,-1.97 -3.46,-2.39 -3.17,-2.81 -2.79,-3.15 -2.40,-3.48 -1.95,-3.72 -1.50,-3.96 -1.00,-4.08 -0.51,-4.20 0.00,-4.20 0.51,-4.20 1.00,-4.08 1.50,-3.96 1.95,-3.72 2.40,-3.48 2.79,-3.14 3.17,-2.81 3.46,-2.39 3.75,-1.96 3.93,-1.49 4.11,-1.01 4.17,-0.50 4.23,0.00 4.23,0.00 L 4.23,0 Z"></path></g><g transform="translate(124 26) rotate(0 10.666656494140625 -1)" stroke="none"><path fill="#1e1e1e" d="M -0.39,-4.24 Q -0.39,-4.24 5.66,-5.57 11.72,-6.91 14.48,-5.58 17.23,-4.25 17.65,-4.22 18.08,-4.19 18.47,-4.03 18.86,-3.86 19.18,-3.58 19.50,-3.30 19.72,-2.94 19.93,-2.57 20.01,-2.15 20.10,-1.74 20.05,-1.32 20.00,-0.89 19.81,-0.51 19.63,-0.13 19.33,0.17 19.03,0.47 18.65,0.66 18.28,0.86 17.86,0.92 17.44,0.98 17.02,0.91 16.60,0.83 16.23,0.63 15.85,0.42 15.57,0.11 15.28,-0.19 15.11,-0.58 14.93,-0.97 14.89,-1.39 14.85,-1.82 14.95,-2.23 15.05,-2.64 15.27,-3.00 15.50,-3.36 15.83,-3.63 16.15,-3.90 16.55,-4.06 16.95,-4.21 17.37,-4.22 17.80,-4.24 18.21,-4.12 18.61,-4.00 18.96,-3.76 19.31,-3.51 19.56,-3.17 19.81,-2.83 19.94,-2.42 20.07,-2.02 20.07,-1.59 20.06,-1.17 19.92,-0.77 19.78,-0.37 19.51,-0.03 19.25,0.29 18.90,0.52 18.54,0.76 18.13,0.86 17.72,0.97 17.72,0.97 17.72,0.97 15.26,2.79 12.80,4.61 6.60,4.42 0.39,4.24 -0.11,4.22 -0.62,4.21 -1.12,4.07 -1.61,3.94 -2.06,3.68 -2.51,3.43 -2.88,3.08 -3.26,2.73 -3.54,2.30 -3.82,1.87 -3.99,1.39 -4.16,0.90 -4.21,0.39 -4.25,-0.11 -4.18,-0.62 -4.10,-1.13 -3.91,-1.60 -3.71,-2.08 -3.41,-2.49 -3.10,-2.91 -2.71,-3.24 -2.32,-3.57 -1.86,-3.79 -1.40,-4.02 -0.89,-4.13 -0.39,-4.24 -0.39,-4.24 L -0.39,-4.24 Z"></path></g><g transform="translate(143.33331298828125 10) rotate(0 -0.333343505859375 21.666664123535156)" stroke="none"><path fill="#1e1e1e" d="M 4.63,0.07 Q 4.63,0.07 4.95,11.39 5.26,22.71 5.19,28.46 5.12,34.22 3.56,36.84 2.01,39.46 1.93,39.88 1.86,40.29 1.65,40.67 1.45,41.04 1.14,41.33 0.82,41.62 0.44,41.79 0.05,41.96 -0.36,42.00 -0.79,42.04 -1.20,41.95 -1.61,41.85 -1.98,41.63 -2.34,41.40 -2.61,41.08 -2.88,40.75 -3.03,40.35 -3.18,39.95 -3.20,39.53 -3.22,39.11 -3.10,38.70 -2.98,38.29 -2.74,37.94 -2.49,37.59 -2.15,37.34 -1.81,37.09 -1.41,36.96 -1.00,36.83 -0.58,36.83 -0.15,36.84 0.24,36.98 0.64,37.12 0.98,37.38 1.31,37.64 1.54,38.00 1.78,38.35 1.89,38.76 1.99,39.17 1.97,39.60 1.94,40.02 1.77,40.41 1.61,40.81 1.33,41.13 1.05,41.45 0.69,41.66 0.32,41.88 -0.09,41.96 -0.50,42.05 -0.93,42.00 -1.35,41.94 -1.73,41.76 -2.11,41.58 -2.42,41.28 -2.72,40.98 -2.92,40.61 -3.11,40.23 -3.17,39.81 -3.24,39.39 -3.24,39.39 -3.24,39.39 -4.72,36.72 -6.21,34.06 -6.12,28.29 -6.03,22.52 -5.33,11.22 -4.63,-0.07 -4.55,-0.63 -4.47,-1.18 -4.27,-1.70 -4.06,-2.22 -3.74,-2.67 -3.41,-3.13 -2.99,-3.49 -2.56,-3.85 -2.06,-4.10 -1.56,-4.35 -1.02,-4.48 -0.48,-4.60 0.07,-4.59 0.63,-4.58 1.17,-4.44 1.71,-4.30 2.20,-4.03 2.69,-3.76 3.10,-3.39 3.51,-3.01 3.82,-2.54 4.13,-2.08 4.32,-1.55 4.51,-1.03 4.57,-0.47 4.63,0.07 4.63,0.07 L 4.63,0.07 Z"></path></g></svg>