<svg version="1.1" xmlns="http://www.w3.org/2000/svg" viewBox="0 0 514 324.0000305175781" width="514" height="324.0000305175781" class="excalidraw-svg"><!-- svg-source:excalidraw --><metadata></metadata><defs><style class="style-fonts">
      </style></defs><rect x="0" y="0" width="514" height="324.0000305175781" fill="#ffffff"></rect><g transform="translate(15.3333740234375 153.33334350585938) rotate(0 16.999969482421875 26)" stroke="none"><path fill="#1e1e1e" d="M 5.43,0.50 Q 5.43,0.50 5.03,6.65 4.62,12.80 4.42,16.66 4.22,20.52 4.15,24.21 4.09,27.89 4.13,33.09 4.16,38.29 3.80,43.07 3.44,47.84 3.11,51.71 2.78,55.57 2.46,58.62 2.13,61.67 1.81,63.12 1.49,64.58 1.31,65.32 1.13,66.07 0.78,66.75 0.42,67.43 -0.07,68.01 -0.58,68.59 -1.21,69.03 -1.84,69.47 -2.56,69.74 -3.27,70.02 -4.03,70.12 -4.80,70.21 -5.56,70.12 -6.32,70.03 -7.04,69.77 -7.76,69.50 -8.39,69.06 -9.03,68.63 -9.54,68.06 -10.05,67.49 -10.41,66.81 -10.77,66.13 -10.96,65.39 -11.15,64.64 -11.15,63.87 -11.15,63.11 -11.06,54.73 -10.96,46.35 -10.63,40.56 -10.31,34.77 -9.79,28.96 -9.27,23.15 -8.27,16.68 -7.27,10.22 -6.66,6.56 -6.05,2.91 -5.17,-0.62 -4.29,-4.16 -2.94,-7.30 -1.59,-10.45 1.55,-13.51 4.70,-16.56 9.19,-17.46 13.69,-18.35 17.77,-17.09 21.86,-15.83 25.74,-13.03 29.63,-10.22 32.28,-7.54 34.93,-4.86 37.47,-1.05 40.02,2.76 41.63,6.62 43.24,10.48 43.02,16.08 42.81,21.68 40.81,25.70 38.81,29.73 35.46,32.48 32.12,35.24 28.31,36.49 24.50,37.73 21.31,38.14 18.11,38.55 15.98,38.85 13.84,39.14 16.21,39.04 18.58,38.95 20.83,41.18 23.08,43.41 26.31,45.80 29.54,48.19 33.22,50.28 36.90,52.36 37.50,55.31 38.10,58.25 38.42,58.52 38.75,58.79 38.98,59.15 39.20,59.51 39.30,59.92 39.40,60.34 39.36,60.76 39.33,61.18 39.16,61.57 38.98,61.96 38.70,62.27 38.41,62.59 38.04,62.79 37.67,63.00 37.25,63.08 36.83,63.15 36.41,63.09 35.99,63.03 35.61,62.84 35.23,62.65 34.93,62.34 34.64,62.04 34.45,61.66 34.27,61.28 34.21,60.85 34.16,60.43 34.24,60.02 34.33,59.60 34.54,59.23 34.75,58.86 35.07,58.58 35.39,58.30 35.78,58.14 36.17,57.97 36.60,57.94 37.02,57.91 37.43,58.02 37.84,58.12 38.20,58.36 38.55,58.59 38.82,58.92 39.08,59.25 39.22,59.65 39.37,60.05 39.37,60.48 39.38,60.90 39.25,61.31 39.13,61.71 38.87,62.06 38.62,62.40 38.28,62.65 37.93,62.89 37.52,63.01 37.11,63.13 36.69,63.12 36.26,63.10 35.87,62.95 35.47,62.80 35.47,62.80 35.47,62.80 32.62,63.76 29.77,64.72 25.35,62.13 20.93,59.54 16.82,56.34 12.71,53.15 9.42,49.45 6.13,45.75 4.33,40.92 2.54,36.08 4.05,32.43 5.56,28.78 8.58,27.00 11.60,25.23 14.06,24.88 16.51,24.53 20.36,24.11 24.21,23.70 26.64,21.74 29.07,19.78 29.69,17.36 30.30,14.94 29.35,12.54 28.40,10.15 26.72,7.37 25.04,4.59 23.16,2.57 21.29,0.55 19.04,-1.37 16.79,-3.30 13.53,-4.00 10.27,-4.71 9.38,-2.78 8.48,-0.85 7.70,2.12 6.91,5.11 6.29,8.69 5.68,12.27 4.70,18.31 3.72,24.35 3.19,29.93 2.67,35.51 2.34,41.19 2.01,46.87 1.75,55.72 1.49,64.58 1.31,65.32 1.13,66.07 0.78,66.75 0.42,67.43 -0.07,68.01 -0.58,68.59 -1.21,69.03 -1.84,69.47 -2.56,69.74 -3.27,70.02 -4.03,70.12 -4.79,70.21 -5.56,70.12 -6.32,70.03 -7.04,69.77 -7.76,69.50 -8.39,69.06 -9.03,68.63 -9.54,68.06 -10.05,67.49 -10.41,66.81 -10.77,66.13 -10.96,65.39 -11.15,64.64 -11.15,63.88 -11.15,63.11 -10.80,61.65 -10.44,60.20 -10.08,57.29 -9.71,54.39 -9.31,50.57 -8.92,46.75 -8.47,42.46 -8.03,38.18 -7.91,32.87 -7.78,27.57 -7.64,23.68 -7.49,19.80 -7.21,15.76 -6.92,11.72 -6.18,5.60 -5.43,-0.50 -5.29,-1.15 -5.15,-1.79 -4.86,-2.38 -4.57,-2.97 -4.15,-3.48 -3.73,-3.98 -3.20,-4.37 -2.66,-4.76 -2.06,-5.01 -1.45,-5.26 -0.80,-5.36 -0.14,-5.46 0.50,-5.39 1.16,-5.33 1.78,-5.12 2.40,-4.90 2.95,-4.54 3.50,-4.18 3.95,-3.70 4.40,-3.22 4.73,-2.65 5.05,-2.07 5.22,-1.44 5.40,-0.80 5.42,-0.14 5.43,0.51 5.43,0.51 L 5.43,0.50 Z"></path></g><g transform="translate(82 178.66665649414062) rotate(0 24.333343505859375 0.66668701171875)" stroke="none"><path fill="#1e1e1e" d="M -0.26,-6.05 Q -0.26,-6.05 4.13,-6.51 8.52,-6.97 12.01,-7.37 15.49,-7.76 20.40,-7.76 25.32,-7.76 28.10,-7.55 30.88,-7.34 34.80,-6.69 38.72,-6.05 42.86,-3.14 47.01,-0.23 47.41,-0.10 47.82,0.02 48.16,0.27 48.50,0.52 48.75,0.87 48.99,1.22 49.11,1.63 49.23,2.04 49.22,2.46 49.20,2.88 49.05,3.28 48.90,3.68 48.63,4.01 48.36,4.34 48.00,4.56 47.64,4.79 47.22,4.88 46.81,4.98 46.39,4.94 45.96,4.90 45.58,4.73 45.19,4.56 44.87,4.27 44.56,3.99 44.36,3.61 44.15,3.24 44.08,2.82 44.00,2.41 44.06,1.98 44.12,1.56 44.32,1.19 44.51,0.81 44.81,0.51 45.12,0.21 45.50,0.03 45.88,-0.15 46.30,-0.20 46.73,-0.25 47.14,-0.17 47.56,-0.08 47.93,0.12 48.29,0.33 48.57,0.65 48.85,0.97 49.02,1.36 49.18,1.76 49.21,2.18 49.24,2.60 49.13,3.02 49.03,3.43 48.79,3.78 48.56,4.14 48.23,4.40 47.89,4.66 47.49,4.80 47.09,4.95 46.67,4.95 46.24,4.96 46.24,4.96 46.24,4.96 41.15,6.51 36.06,8.07 32.85,7.37 29.63,6.68 27.36,6.44 25.08,6.21 20.80,6.06 16.53,5.91 12.81,6.06 9.10,6.21 4.68,6.13 0.26,6.05 -0.46,5.99 -1.19,5.94 -1.88,5.71 -2.58,5.48 -3.19,5.09 -3.81,4.70 -4.32,4.18 -4.83,3.65 -5.20,3.02 -5.56,2.39 -5.77,1.69 -5.97,0.99 -6.01,0.26 -6.04,-0.46 -5.89,-1.18 -5.75,-1.90 -5.44,-2.56 -5.13,-3.22 -4.67,-3.79 -4.21,-4.35 -3.62,-4.79 -3.04,-5.23 -2.37,-5.52 -1.70,-5.81 -0.98,-5.93 -0.26,-6.05 -0.26,-6.05 L -0.26,-6.05 Z"></path></g><g transform="translate(190.66668701171875 158.66665649414062) rotate(0 -6 20.66668701171875)" stroke="none"><path fill="#1e1e1e" d="M -2.70,5.06 Q -2.70,5.06 -5.62,3.94 -8.55,2.82 -12.87,8.08 -17.19,13.34 -19.35,17.13 -21.51,20.93 -21.01,24.92 -20.50,28.90 -18.54,30.89 -16.57,32.89 -13.78,34.48 -10.98,36.08 -7.43,37.04 -3.88,38.01 -0.55,37.86 2.78,37.71 5.91,36.52 9.04,35.32 12.95,36.08 16.87,36.83 17.28,36.73 17.70,36.64 18.12,36.68 18.54,36.72 18.93,36.90 19.32,37.08 19.63,37.37 19.94,37.66 20.14,38.03 20.34,38.40 20.41,38.82 20.48,39.24 20.42,39.66 20.35,40.08 20.16,40.46 19.96,40.83 19.65,41.13 19.35,41.42 18.96,41.60 18.58,41.79 18.16,41.84 17.74,41.88 17.32,41.80 16.90,41.71 16.54,41.49 16.17,41.28 15.89,40.95 15.62,40.63 15.46,40.24 15.30,39.84 15.27,39.42 15.24,39.00 15.36,38.59 15.47,38.18 15.70,37.82 15.94,37.47 16.27,37.21 16.61,36.95 17.01,36.81 17.41,36.67 17.84,36.67 18.26,36.67 18.67,36.80 19.07,36.93 19.41,37.19 19.75,37.44 19.99,37.79 20.23,38.14 20.35,38.55 20.47,38.96 20.45,39.38 20.43,39.81 20.27,40.20 20.12,40.60 19.85,40.92 19.57,41.25 19.21,41.47 18.85,41.69 18.85,41.69 18.85,41.69 16.09,45.16 13.34,48.63 8.16,50.12 2.98,51.61 -2.40,51.45 -7.79,51.30 -13.05,49.55 -18.30,47.80 -22.69,44.81 -27.08,41.82 -30.29,37.53 -33.51,33.24 -34.67,27.71 -35.84,22.17 -34.56,18.07 -33.29,13.97 -30.14,8.91 -26.98,3.85 -19.43,-2.70 -11.88,-9.26 -7.41,-9.11 -2.94,-8.96 -0.12,-7.01 2.70,-5.06 3.26,-4.66 3.83,-4.27 4.28,-3.74 4.74,-3.22 5.06,-2.61 5.37,-1.99 5.54,-1.32 5.70,-0.65 5.69,0.03 5.69,0.72 5.52,1.40 5.35,2.07 5.02,2.68 4.70,3.29 4.23,3.80 3.77,4.32 3.20,4.71 2.63,5.09 1.98,5.34 1.33,5.58 0.64,5.66 -0.03,5.73 -0.72,5.65 -1.41,5.56 -2.05,5.31 -2.70,5.06 -2.70,5.06 L -2.70,5.06 Z"></path></g><g transform="translate(282.66668701171875 62.666656494140625) rotate(0 -24 32.333343505859375)" stroke="none"><path fill="#1e1e1e" d="M 4.71,3.14 Q 4.71,3.14 0.29,10.16 -4.12,17.18 -7.94,22.89 -11.76,28.59 -15.81,34.68 -19.86,40.76 -24.54,46.96 -29.22,53.17 -33.19,57.82 -37.17,62.47 -40.37,63.02 -43.57,63.58 -43.90,63.85 -44.22,64.12 -44.62,64.27 -45.02,64.42 -45.44,64.44 -45.87,64.46 -46.28,64.34 -46.68,64.22 -47.03,63.98 -47.38,63.74 -47.63,63.40 -47.89,63.06 -48.02,62.65 -48.15,62.25 -48.15,61.82 -48.14,61.40 -48.00,61.00 -47.86,60.60 -47.60,60.26 -47.34,59.92 -46.98,59.69 -46.63,59.46 -46.22,59.35 -45.81,59.24 -45.38,59.27 -44.96,59.29 -44.57,59.46 -44.17,59.62 -43.85,59.90 -43.53,60.17 -43.32,60.54 -43.10,60.91 -43.02,61.32 -42.93,61.74 -42.98,62.16 -43.03,62.58 -43.21,62.97 -43.40,63.35 -43.69,63.66 -43.99,63.96 -44.37,64.16 -44.74,64.35 -45.16,64.41 -45.58,64.48 -46.00,64.41 -46.42,64.33 -46.79,64.13 -47.17,63.92 -47.46,63.61 -47.74,63.30 -47.92,62.91 -48.09,62.53 -48.13,62.10 -48.17,61.68 -48.08,61.27 -47.98,60.85 -47.76,60.49 -47.54,60.13 -47.54,60.13 -47.54,60.13 -47.43,56.88 -47.33,53.63 -43.54,49.34 -39.74,45.05 -35.15,39.23 -30.57,33.41 -26.34,27.43 -22.11,21.46 -18.19,15.94 -14.27,10.41 -9.49,3.63 -4.71,-3.14 -4.27,-3.66 -3.82,-4.18 -3.27,-4.57 -2.71,-4.97 -2.08,-5.22 -1.44,-5.48 -0.76,-5.57 -0.09,-5.66 0.58,-5.59 1.26,-5.52 1.91,-5.29 2.55,-5.06 3.12,-4.68 3.69,-4.30 4.15,-3.79 4.61,-3.29 4.94,-2.69 5.26,-2.09 5.44,-1.43 5.61,-0.77 5.62,-0.09 5.63,0.59 5.48,1.25 5.33,1.92 5.02,2.53 4.71,3.14 4.71,3.14 L 4.71,3.14 Z"></path></g><g transform="translate(300 67.33334350585938) rotate(0 -19 32.33332824707031)" stroke="none"><path fill="#1e1e1e" d="M 4.43,1.94 Q 4.43,1.94 2.15,8.25 -0.11,14.56 -3.82,21.14 -7.53,27.72 -12.10,35.14 -16.68,42.55 -20.30,48.51 -23.92,54.46 -26.46,58.41 -29.00,62.37 -31.60,63.01 -34.21,63.66 -34.49,63.98 -34.78,64.29 -35.15,64.50 -35.52,64.70 -35.94,64.78 -36.36,64.85 -36.78,64.79 -37.20,64.73 -37.58,64.54 -37.96,64.35 -38.26,64.04 -38.56,63.74 -38.74,63.36 -38.93,62.98 -38.98,62.56 -39.03,62.13 -38.95,61.72 -38.87,61.30 -38.65,60.93 -38.44,60.56 -38.12,60.28 -37.80,60.00 -37.41,59.84 -37.02,59.67 -36.60,59.64 -36.17,59.61 -35.76,59.72 -35.35,59.82 -34.99,60.06 -34.64,60.29 -34.37,60.62 -34.11,60.96 -33.97,61.36 -33.83,61.76 -33.82,62.18 -33.81,62.61 -33.94,63.01 -34.07,63.42 -34.32,63.76 -34.57,64.10 -34.92,64.35 -35.26,64.59 -35.67,64.71 -36.08,64.83 -36.50,64.82 -36.93,64.80 -37.32,64.65 -37.72,64.50 -38.05,64.23 -38.38,63.96 -38.61,63.60 -38.83,63.24 -38.93,62.83 -39.03,62.42 -38.99,61.99 -38.95,61.57 -38.78,61.18 -38.61,60.79 -38.61,60.79 -38.61,60.79 -39.07,58.15 -39.53,55.50 -37.02,51.71 -34.51,47.91 -30.76,41.95 -27.02,35.98 -22.37,28.89 -17.72,21.80 -14.17,15.88 -10.61,9.96 -7.52,4.01 -4.43,-1.94 -4.13,-2.44 -3.84,-2.94 -3.43,-3.36 -3.02,-3.77 -2.52,-4.08 -2.03,-4.39 -1.47,-4.57 -0.92,-4.75 -0.34,-4.79 0.24,-4.83 0.81,-4.73 1.39,-4.63 1.92,-4.40 2.46,-4.16 2.92,-3.81 3.38,-3.45 3.75,-3.00 4.11,-2.54 4.36,-2.01 4.60,-1.48 4.71,-0.91 4.82,-0.34 4.79,0.24 4.77,0.82 4.60,1.38 4.43,1.94 4.43,1.94 L 4.43,1.94 Z"></path></g><g transform="translate(348 26.666656494140625) rotate(0 -6.33331298828125 16.333343505859375)" stroke="none"><path fill="#1e1e1e" d="M -4.92,-0.61 Q -4.92,-0.61 -4.73,-3.70 -4.54,-6.79 -7.25,-7.96 -9.96,-9.12 -13.51,-5.64 -17.06,-2.17 -18.73,2.06 -20.40,6.29 -21.10,12.24 -21.80,18.19 -21.41,23.24 -21.03,28.28 -19.08,31.90 -17.12,35.51 -14.90,37.41 -12.67,39.30 -10.18,40.26 -7.69,41.21 -3.25,38.49 1.19,35.77 3.48,32.39 5.76,29.01 6.96,24.89 8.16,20.76 8.32,15.44 8.47,10.12 7.70,5.95 6.93,1.78 5.07,-1.14 3.21,-4.07 -0.47,-5.32 -4.17,-6.57 -4.59,-6.54 -5.01,-6.50 -5.43,-6.61 -5.84,-6.71 -6.20,-6.94 -6.55,-7.17 -6.82,-7.50 -7.08,-7.84 -7.23,-8.23 -7.37,-8.63 -7.38,-9.06 -7.39,-9.48 -7.27,-9.89 -7.14,-10.30 -6.89,-10.64 -6.64,-10.98 -6.29,-11.23 -5.95,-11.48 -5.54,-11.60 -5.14,-11.72 -4.71,-11.71 -4.29,-11.70 -3.89,-11.55 -3.49,-11.40 -3.16,-11.13 -2.83,-10.87 -2.60,-10.51 -2.37,-10.15 -2.27,-9.74 -2.17,-9.32 -2.21,-8.90 -2.24,-8.48 -2.41,-8.09 -2.58,-7.70 -2.87,-7.38 -3.15,-7.07 -3.52,-6.86 -3.89,-6.65 -4.31,-6.57 -4.73,-6.49 -5.15,-6.55 -5.57,-6.61 -5.95,-6.80 -6.33,-6.99 -6.63,-7.29 -6.93,-7.60 -7.12,-7.98 -7.30,-8.36 -7.36,-8.78 -7.42,-9.20 -7.33,-9.62 -7.25,-10.04 -7.04,-10.40 -6.83,-10.77 -6.51,-11.06 -6.20,-11.34 -5.81,-11.50 -5.41,-11.67 -5.41,-11.67 -5.42,-11.67 0.08,-14.22 5.58,-16.77 9.87,-13.76 14.15,-10.75 16.82,-5.67 19.50,-0.59 20.38,5.05 21.25,10.71 20.77,17.67 20.29,24.64 18.20,30.49 16.11,36.34 12.46,41.10 8.80,45.86 3.56,49.20 -1.67,52.54 -6.86,52.68 -12.05,52.82 -16.60,50.64 -21.16,48.46 -24.70,44.80 -28.23,41.13 -30.80,35.27 -33.38,29.40 -33.73,22.97 -34.08,16.53 -32.90,9.00 -31.72,1.46 -28.96,-4.37 -26.21,-10.21 -21.52,-14.70 -16.84,-19.19 -13.10,-20.08 -9.36,-20.96 -5.13,-20.25 -0.89,-19.55 2.05,-16.93 5.00,-14.32 5.54,-9.89 6.07,-5.46 5.50,-2.42 4.92,0.61 4.77,1.19 4.63,1.77 4.35,2.30 4.07,2.83 3.67,3.27 3.27,3.72 2.78,4.06 2.29,4.40 1.73,4.61 1.17,4.82 0.57,4.89 -0.01,4.96 -0.61,4.88 -1.20,4.81 -1.76,4.59 -2.32,4.38 -2.81,4.04 -3.30,3.70 -3.69,3.25 -4.09,2.80 -4.37,2.27 -4.64,1.74 -4.78,1.16 -4.92,0.58 -4.92,-0.01 -4.92,-0.61 -4.92,-0.61 L -4.92,-0.61 Z"></path></g><g transform="translate(250.66668701171875 208) rotate(0 27.333343505859375 19.333343505859375)" stroke="none"><path fill="#1e1e1e" d="M 2.15,-5.16 Q 2.15,-5.16 4.63,-4.55 7.11,-3.94 10.56,-1.42 14.01,1.10 17.19,3.79 20.38,6.49 22.11,8.02 23.85,9.56 27.74,12.24 31.64,14.92 35.11,17.29 38.57,19.66 42.22,22.23 45.86,24.81 48.18,26.48 50.50,28.15 52.51,29.67 54.51,31.18 54.94,33.91 55.38,36.64 55.69,36.93 56.00,37.23 56.19,37.60 56.39,37.98 56.46,38.40 56.53,38.82 56.46,39.23 56.39,39.65 56.19,40.03 56.00,40.40 55.69,40.70 55.38,40.99 54.99,41.17 54.61,41.35 54.18,41.39 53.76,41.44 53.35,41.35 52.93,41.25 52.57,41.04 52.20,40.82 51.93,40.49 51.65,40.17 51.50,39.77 51.34,39.38 51.32,38.95 51.29,38.53 51.41,38.12 51.52,37.71 51.76,37.36 52.00,37.01 52.34,36.75 52.68,36.49 53.08,36.36 53.48,36.22 53.91,36.22 54.33,36.22 54.73,36.36 55.14,36.49 55.47,36.75 55.81,37.01 56.05,37.36 56.29,37.71 56.40,38.12 56.52,38.53 56.49,38.96 56.47,39.38 56.31,39.78 56.15,40.17 55.88,40.49 55.60,40.82 55.24,41.04 54.88,41.26 54.46,41.35 54.05,41.44 53.62,41.39 53.20,41.35 52.82,41.17 52.43,40.99 52.43,40.99 52.43,40.99 49.43,41.39 46.43,41.79 44.57,40.36 42.70,38.93 40.44,37.28 38.17,35.64 34.63,33.11 31.08,30.58 27.56,28.14 24.03,25.71 19.59,22.52 15.16,19.33 13.52,17.86 11.88,16.39 8.94,13.82 5.99,11.25 4.04,9.52 2.08,7.78 -0.03,6.47 -2.15,5.16 -2.73,4.83 -3.32,4.49 -3.81,4.03 -4.30,3.57 -4.66,3.00 -5.03,2.43 -5.25,1.80 -5.47,1.16 -5.53,0.49 -5.59,-0.18 -5.48,-0.84 -5.38,-1.51 -5.12,-2.13 -4.86,-2.75 -4.46,-3.30 -4.06,-3.84 -3.54,-4.27 -3.02,-4.70 -2.41,-4.99 -1.81,-5.29 -1.15,-5.43 -0.49,-5.57 0.17,-5.54 0.85,-5.52 1.50,-5.34 2.15,-5.16 2.15,-5.16 L 2.15,-5.16 Z"></path></g><g transform="translate(347.3333740234375 248.66665649414062) rotate(0 -8.66668701171875 17.333358764648438)" stroke="none"><path fill="#1e1e1e" d="M 2.74,5.12 Q 2.74,5.12 -7.67,11.22 -18.08,17.32 -21.24,21.77 -24.41,26.21 -22.42,30.18 -20.44,34.15 -18.68,35.52 -16.93,36.88 -13.16,36.27 -9.39,35.67 -6.36,33.37 -3.34,31.07 -0.61,28.08 2.12,25.08 4.70,21.17 7.28,17.26 8.83,13.79 10.38,10.31 11.17,7.61 11.95,4.90 10.97,1.96 9.99,-0.98 8.23,-4.39 6.48,-7.81 6.13,-8.06 5.79,-8.31 5.55,-8.66 5.30,-9.01 5.18,-9.41 5.06,-9.82 5.08,-10.25 5.10,-10.67 5.25,-11.07 5.40,-11.47 5.67,-11.79 5.94,-12.12 6.30,-12.35 6.66,-12.57 7.07,-12.67 7.49,-12.77 7.91,-12.73 8.33,-12.69 8.72,-12.52 9.11,-12.35 9.42,-12.06 9.73,-11.77 9.94,-11.40 10.14,-11.03 10.22,-10.61 10.30,-10.19 10.23,-9.77 10.17,-9.35 9.98,-8.97 9.79,-8.59 9.48,-8.29 9.18,-8.00 8.79,-7.81 8.41,-7.63 7.99,-7.58 7.57,-7.52 7.15,-7.61 6.74,-7.69 6.37,-7.91 6.00,-8.12 5.72,-8.44 5.44,-8.76 5.28,-9.15 5.11,-9.54 5.08,-9.97 5.05,-10.39 5.16,-10.80 5.27,-11.21 5.50,-11.57 5.73,-11.92 6.07,-12.19 6.40,-12.45 6.80,-12.59 7.20,-12.73 7.63,-12.74 8.05,-12.75 8.46,-12.62 8.86,-12.49 8.86,-12.49 8.86,-12.49 12.93,-12.65 17.00,-12.82 19.68,-9.89 22.37,-6.96 23.73,-3.46 25.08,0.03 25.13,4.31 25.18,8.59 24.03,12.32 22.88,16.05 20.78,20.49 18.68,24.93 15.37,29.73 12.07,34.53 8.17,38.49 4.27,42.46 -1.10,45.71 -6.47,48.96 -11.41,49.64 -16.36,50.31 -20.71,49.00 -25.06,47.68 -28.27,44.91 -31.48,42.14 -34.89,35.91 -38.30,29.68 -36.77,23.87 -35.23,18.05 -30.04,11.86 -24.84,5.67 -13.79,0.27 -2.74,-5.12 -2.09,-5.37 -1.43,-5.63 -0.74,-5.72 -0.04,-5.81 0.64,-5.73 1.34,-5.65 2.00,-5.41 2.65,-5.17 3.23,-4.77 3.81,-4.38 4.28,-3.86 4.75,-3.34 5.08,-2.72 5.41,-2.10 5.59,-1.42 5.76,-0.74 5.77,-0.04 5.77,0.65 5.61,1.33 5.45,2.01 5.13,2.63 4.81,3.26 4.35,3.79 3.89,4.31 3.31,4.72 2.74,5.12 2.74,5.12 L 2.74,5.12 Z"></path></g><g transform="translate(399.3333740234375 276) rotate(0 19 1.0000152587890625)" stroke="none"><path fill="#1e1e1e" d="M 0.44,-5.84 Q 0.44,-5.84 5.45,-5.80 10.46,-5.75 14.38,-5.66 18.30,-5.57 24.23,-5.35 30.16,-5.13 33.28,-3.18 36.40,-1.22 36.82,-1.17 37.24,-1.12 37.63,-0.94 38.01,-0.76 38.31,-0.46 38.62,-0.16 38.81,0.21 39.01,0.58 39.07,1.00 39.13,1.42 39.06,1.84 38.99,2.26 38.78,2.63 38.58,3.01 38.27,3.29 37.95,3.58 37.57,3.76 37.18,3.93 36.75,3.97 36.33,4.01 35.92,3.91 35.50,3.82 35.14,3.59 34.78,3.37 34.51,3.04 34.24,2.71 34.09,2.32 33.94,1.92 33.92,1.50 33.90,1.07 34.02,0.66 34.14,0.26 34.38,-0.08 34.62,-0.43 34.97,-0.68 35.31,-0.94 35.71,-1.07 36.12,-1.20 36.54,-1.19 36.97,-1.19 37.37,-1.05 37.77,-0.90 38.10,-0.64 38.44,-0.38 38.67,-0.03 38.91,0.32 39.01,0.73 39.12,1.14 39.09,1.56 39.07,1.99 38.90,2.38 38.74,2.77 38.46,3.09 38.18,3.41 37.81,3.63 37.45,3.84 37.03,3.93 36.62,4.01 36.62,4.01 36.62,4.01 32.99,6.24 29.36,8.47 23.56,8.12 17.76,7.76 13.61,7.52 9.46,7.28 4.50,6.56 -0.44,5.84 -1.14,5.70 -1.83,5.57 -2.47,5.26 -3.11,4.96 -3.66,4.52 -4.21,4.07 -4.64,3.51 -5.06,2.95 -5.34,2.30 -5.62,1.65 -5.74,0.95 -5.85,0.25 -5.80,-0.44 -5.75,-1.15 -5.52,-1.82 -5.30,-2.49 -4.93,-3.09 -4.55,-3.69 -4.04,-4.18 -3.54,-4.67 -2.92,-5.03 -2.31,-5.38 -1.64,-5.58 -0.96,-5.78 -0.25,-5.81 0.45,-5.84 0.45,-5.84 L 0.44,-5.84 Z"></path></g><g transform="translate(464.66668701171875 242) rotate(0 1.333343505859375 30)" stroke="none"><path fill="#1e1e1e" d="M 5.69,-1.26 Q 5.69,-1.26 6.84,2.10 7.98,5.47 8.41,10.07 8.84,14.67 8.99,17.28 9.15,19.89 9.06,29.44 8.98,38.99 8.93,43.89 8.88,48.80 8.87,52.79 8.86,56.78 7.01,59.33 5.16,61.89 5.13,62.31 5.11,62.74 4.94,63.13 4.78,63.52 4.50,63.84 4.22,64.16 3.86,64.38 3.49,64.59 3.07,64.68 2.66,64.76 2.23,64.71 1.81,64.66 1.43,64.48 1.05,64.29 0.74,64.00 0.44,63.70 0.24,63.32 0.05,62.94 -0.01,62.52 -0.07,62.10 0.00,61.69 0.07,61.27 0.27,60.89 0.48,60.52 0.79,60.23 1.10,59.95 1.49,59.77 1.88,59.60 2.30,59.56 2.72,59.52 3.14,59.61 3.55,59.71 3.91,59.93 4.27,60.16 4.54,60.49 4.82,60.81 4.97,61.21 5.12,61.61 5.14,62.03 5.15,62.46 5.04,62.86 4.92,63.27 4.67,63.62 4.43,63.97 4.09,64.22 3.75,64.47 3.34,64.61 2.94,64.74 2.51,64.73 2.09,64.72 1.69,64.58 1.29,64.44 0.95,64.18 0.62,63.92 0.38,63.56 0.15,63.21 0.04,62.80 -0.06,62.39 -0.06,62.39 -0.06,62.39 -2.42,59.54 -4.79,56.70 -4.75,52.67 -4.71,48.65 -4.65,43.72 -4.59,38.79 -4.41,29.71 -4.22,20.62 -4.35,18.17 -4.47,15.72 -4.69,12.02 -4.92,8.32 -5.30,4.79 -5.69,1.26 -5.76,0.56 -5.82,-0.13 -5.72,-0.82 -5.62,-1.52 -5.36,-2.17 -5.09,-2.82 -4.68,-3.39 -4.27,-3.96 -3.73,-4.41 -3.20,-4.87 -2.57,-5.18 -1.94,-5.49 -1.25,-5.65 -0.56,-5.80 0.13,-5.78 0.83,-5.77 1.51,-5.58 2.19,-5.40 2.80,-5.06 3.42,-4.72 3.93,-4.24 4.45,-3.76 4.83,-3.17 5.22,-2.58 5.45,-1.92 5.69,-1.26 5.69,-1.26 L 5.69,-1.26 Z"></path></g><g transform="translate(470.66668701171875 277.3333435058594) rotate(0 10.33331298828125 4)" stroke="none"><path fill="#1e1e1e" d="M 4.58,-3.33 Q 4.58,-3.33 6.33,-1.50 8.08,0.33 13.19,-0.13 18.31,-0.60 18.71,-0.75 19.10,-0.90 19.53,-0.92 19.95,-0.94 20.36,-0.83 20.77,-0.71 21.12,-0.47 21.47,-0.23 21.72,0.10 21.98,0.44 22.11,0.85 22.24,1.25 22.24,1.67 22.24,2.10 22.10,2.50 21.96,2.90 21.70,3.24 21.44,3.58 21.09,3.81 20.73,4.05 20.32,4.16 19.91,4.27 19.49,4.24 19.06,4.22 18.67,4.06 18.28,3.90 17.96,3.62 17.63,3.34 17.42,2.97 17.20,2.61 17.11,2.19 17.02,1.78 17.07,1.36 17.12,0.93 17.30,0.55 17.49,0.16 17.78,-0.13 18.08,-0.44 18.45,-0.63 18.83,-0.83 19.25,-0.90 19.67,-0.96 20.09,-0.89 20.51,-0.82 20.88,-0.62 21.25,-0.41 21.54,-0.10 21.83,0.20 22.01,0.59 22.19,0.97 22.23,1.39 22.27,1.82 22.18,2.23 22.08,2.65 21.86,3.01 21.64,3.37 21.31,3.64 20.99,3.92 20.99,3.92 20.99,3.92 16.83,8.26 12.67,12.60 8.29,12.34 3.92,12.09 0.98,10.09 -1.94,8.10 -3.26,5.71 -4.58,3.33 -4.91,2.73 -5.24,2.14 -5.42,1.48 -5.60,0.82 -5.62,0.13 -5.64,-0.54 -5.49,-1.21 -5.34,-1.87 -5.04,-2.49 -4.74,-3.10 -4.30,-3.62 -3.86,-4.14 -3.31,-4.55 -2.75,-4.95 -2.12,-5.21 -1.49,-5.46 -0.81,-5.56 -0.13,-5.66 0.54,-5.60 1.22,-5.53 1.86,-5.30 2.51,-5.08 3.08,-4.70 3.65,-4.33 4.11,-3.83 4.58,-3.33 4.58,-3.33 L 4.58,-3.33 Z"></path></g><g transform="translate(504 247.33334350585938) rotate(0 -4.33331298828125 33.333343505859375)" stroke="none"><path fill="#1e1e1e" d="M 5.54,0.72 Q 5.54,0.72 3.48,19.94 1.42,39.16 -1.53,47.06 -4.49,54.96 -4.61,55.37 -4.74,55.77 -4.98,56.12 -5.23,56.47 -5.57,56.72 -5.91,56.97 -6.32,57.09 -6.73,57.22 -7.15,57.21 -7.58,57.20 -7.98,57.06 -8.38,56.91 -8.71,56.65 -9.04,56.39 -9.27,56.03 -9.50,55.67 -9.61,55.26 -9.71,54.85 -9.68,54.43 -9.65,54.00 -9.48,53.61 -9.32,53.22 -9.04,52.90 -8.75,52.58 -8.39,52.37 -8.02,52.16 -7.60,52.08 -7.18,51.99 -6.76,52.05 -6.34,52.10 -5.96,52.29 -5.58,52.48 -5.27,52.78 -4.97,53.07 -4.78,53.45 -4.59,53.83 -4.53,54.25 -4.47,54.68 -4.55,55.09 -4.63,55.51 -4.83,55.88 -5.04,56.25 -5.35,56.54 -5.67,56.82 -6.06,57.00 -6.45,57.17 -6.87,57.20 -7.29,57.24 -7.71,57.14 -8.12,57.04 -8.48,56.81 -8.84,56.59 -9.11,56.26 -9.38,55.93 -9.52,55.53 -9.67,55.13 -9.69,54.71 -9.70,54.28 -9.70,54.28 -9.70,54.28 -10.54,45.89 -11.39,37.50 -8.46,18.38 -5.54,-0.72 -5.37,-1.37 -5.21,-2.02 -4.89,-2.62 -4.57,-3.21 -4.12,-3.71 -3.67,-4.21 -3.11,-4.59 -2.55,-4.97 -1.92,-5.20 -1.29,-5.44 -0.62,-5.51 0.04,-5.59 0.71,-5.50 1.38,-5.41 2.01,-5.17 2.64,-4.93 3.19,-4.54 3.74,-4.15 4.18,-3.64 4.63,-3.13 4.93,-2.53 5.24,-1.93 5.40,-1.28 5.55,-0.62 5.55,0.04 5.54,0.72 5.54,0.72 L 5.54,0.72 Z"></path></g></svg>