<svg version="1.1" xmlns="http://www.w3.org/2000/svg" viewBox="0 0 495.3333740234375 546.6667022705078" width="495.3333740234375" height="546.6667022705078" class="excalidraw-svg"><!-- svg-source:excalidraw --><metadata></metadata><defs><style class="style-fonts">
      </style></defs><rect x="0" y="0" width="495.3333740234375" height="546.6667022705078" fill="#ffffff"></rect><g transform="translate(10 121.33332824707031) rotate(0 2 80.66667175292969)" stroke="none"><path fill="#1e1e1e" d="M 4.79,-0.05 Q 4.79,-0.05 6.10,34.82 7.41,69.69 7.96,87.32 8.52,104.96 8.95,116.10 9.39,127.24 9.76,133.64 10.14,140.05 10.31,144.99 10.49,149.93 10.56,152.99 10.64,156.04 8.62,158.20 6.60,160.35 6.54,160.77 6.48,161.19 6.29,161.57 6.10,161.95 5.80,162.25 5.49,162.55 5.11,162.73 4.73,162.92 4.31,162.97 3.89,163.03 3.47,162.94 3.05,162.86 2.68,162.65 2.32,162.44 2.03,162.12 1.75,161.80 1.59,161.41 1.42,161.01 1.39,160.59 1.36,160.17 1.47,159.76 1.57,159.34 1.80,158.99 2.04,158.63 2.37,158.37 2.70,158.10 3.10,157.96 3.50,157.82 3.93,157.81 4.35,157.80 4.76,157.93 5.16,158.06 5.51,158.31 5.85,158.56 6.09,158.91 6.34,159.25 6.46,159.66 6.58,160.07 6.57,160.49 6.55,160.92 6.40,161.31 6.25,161.71 5.98,162.04 5.72,162.37 5.36,162.60 5.00,162.82 4.58,162.92 4.17,163.02 3.75,162.98 3.32,162.94 2.93,162.77 2.54,162.60 2.23,162.32 1.92,162.03 1.71,161.66 1.50,161.29 1.43,160.87 1.35,160.45 1.35,160.45 1.35,160.45 -0.74,158.40 -2.84,156.34 -2.89,153.35 -2.95,150.37 -3.10,145.59 -3.24,140.82 -3.61,134.28 -3.97,127.74 -4.39,116.56 -4.80,105.37 -5.34,87.60 -5.87,69.83 -5.33,34.94 -4.79,0.05 -4.73,-0.52 -4.66,-1.09 -4.46,-1.63 -4.27,-2.18 -3.94,-2.66 -3.62,-3.14 -3.19,-3.52 -2.76,-3.91 -2.25,-4.19 -1.74,-4.46 -1.18,-4.60 -0.63,-4.75 -0.05,-4.76 0.52,-4.76 1.08,-4.63 1.65,-4.50 2.16,-4.23 2.68,-3.97 3.11,-3.59 3.55,-3.21 3.88,-2.74 4.22,-2.27 4.43,-1.73 4.64,-1.19 4.71,-0.62 4.79,-0.05 4.79,-0.05 L 4.79,-0.05 Z"></path></g><g transform="translate(14.6666259765625 284.00001525878906) rotate(0 58.333343505859375 59.666656494140625)" stroke="none"><path fill="#1e1e1e" d="M 4.23,-3.68 Q 4.23,-3.68 8.40,0.43 12.56,4.55 15.70,8.71 18.85,12.86 22.74,18.47 26.63,24.08 31.83,31.09 37.04,38.10 42.39,45.56 47.74,53.02 58.01,64.29 68.27,75.56 73.44,80.99 78.61,86.43 83.57,90.36 88.53,94.30 93.24,97.46 97.95,100.62 102.90,103.41 107.85,106.21 111.03,108.04 114.20,109.87 115.54,113.15 116.87,116.43 117.20,116.70 117.53,116.96 117.76,117.32 117.99,117.68 118.09,118.09 118.20,118.50 118.16,118.92 118.13,119.35 117.96,119.74 117.80,120.13 117.51,120.45 117.23,120.76 116.86,120.97 116.49,121.18 116.07,121.26 115.66,121.34 115.23,121.29 114.81,121.23 114.43,121.04 114.05,120.86 113.75,120.56 113.45,120.26 113.26,119.88 113.07,119.49 113.01,119.07 112.95,118.65 113.03,118.24 113.11,117.82 113.32,117.45 113.53,117.08 113.84,116.79 114.16,116.51 114.55,116.34 114.94,116.17 115.36,116.14 115.79,116.10 116.20,116.20 116.61,116.30 116.97,116.53 117.33,116.76 117.60,117.09 117.86,117.42 118.01,117.82 118.16,118.22 118.17,118.64 118.18,119.07 118.06,119.48 117.93,119.88 117.69,120.23 117.44,120.57 117.10,120.82 116.75,121.07 116.34,121.20 115.94,121.32 115.51,121.31 115.09,121.30 114.69,121.15 114.29,121.01 114.29,121.01 114.29,121.01 110.71,121.53 107.13,122.04 104.01,120.21 100.88,118.38 95.51,115.27 90.13,112.16 84.98,108.63 79.83,105.11 74.21,100.53 68.60,95.96 63.32,90.39 58.04,84.82 47.32,72.89 36.60,60.96 31.36,53.53 26.13,46.11 20.86,38.84 15.60,31.57 11.98,26.13 8.36,20.69 5.56,16.88 2.76,13.07 -0.73,8.37 -4.23,3.68 -4.61,3.12 -4.99,2.56 -5.22,1.92 -5.46,1.29 -5.53,0.62 -5.61,-0.05 -5.52,-0.72 -5.43,-1.39 -5.18,-2.02 -4.94,-2.65 -4.55,-3.20 -4.16,-3.75 -3.65,-4.20 -3.14,-4.64 -2.54,-4.95 -1.94,-5.26 -1.28,-5.42 -0.62,-5.57 0.05,-5.56 0.72,-5.56 1.38,-5.39 2.03,-5.22 2.63,-4.90 3.23,-4.58 3.73,-4.13 4.23,-3.68 4.23,-3.68 L 4.23,-3.68 Z"></path></g><g transform="translate(47.33331298828125 286.00001525878906) rotate(0 40.666656494140625 46)" stroke="none"><path fill="#1e1e1e" d="M 4.57,-3.70 Q 4.57,-3.70 8.17,0.04 11.76,3.79 15.19,8.24 18.62,12.69 20.61,15.32 22.60,17.95 27.74,23.84 32.89,29.73 37.43,35.00 41.98,40.27 46.17,44.94 50.36,49.62 54.96,54.41 59.56,59.20 63.68,63.60 67.80,68.00 71.11,71.61 74.42,75.23 77.60,78.33 80.78,81.43 81.47,85.28 82.17,89.14 82.42,89.48 82.67,89.82 82.80,90.23 82.92,90.63 82.92,91.06 82.91,91.48 82.76,91.88 82.62,92.28 82.36,92.62 82.09,92.95 81.74,93.18 81.38,93.41 80.97,93.52 80.56,93.62 80.13,93.59 79.71,93.56 79.32,93.40 78.93,93.23 78.61,92.95 78.29,92.67 78.08,92.30 77.87,91.93 77.78,91.52 77.70,91.10 77.75,90.68 77.81,90.26 77.99,89.87 78.18,89.49 78.48,89.19 78.78,88.89 79.16,88.69 79.53,88.50 79.95,88.44 80.38,88.38 80.79,88.46 81.21,88.53 81.58,88.74 81.95,88.95 82.24,89.26 82.53,89.58 82.70,89.96 82.87,90.35 82.91,90.78 82.94,91.20 82.84,91.61 82.75,92.03 82.52,92.39 82.29,92.75 81.96,93.01 81.63,93.28 81.24,93.43 80.84,93.58 80.41,93.60 79.99,93.61 79.58,93.49 79.18,93.37 78.83,93.12 78.48,92.88 78.48,92.88 78.48,92.88 74.62,92.25 70.76,91.63 67.33,88.23 63.90,84.83 60.66,81.27 57.42,77.71 53.35,73.36 49.29,69.01 44.55,64.03 39.80,59.04 35.54,54.25 31.28,49.45 26.77,44.17 22.25,38.88 16.90,32.57 11.55,26.25 9.58,23.61 7.60,20.97 4.43,16.63 1.26,12.30 -1.65,8.00 -4.57,3.70 -4.95,3.10 -5.32,2.50 -5.55,1.82 -5.77,1.15 -5.82,0.44 -5.88,-0.26 -5.76,-0.96 -5.64,-1.66 -5.36,-2.31 -5.08,-2.96 -4.65,-3.53 -4.22,-4.09 -3.67,-4.54 -3.12,-4.98 -2.48,-5.29 -1.84,-5.59 -1.14,-5.73 -0.44,-5.87 0.26,-5.83 0.96,-5.80 1.64,-5.60 2.33,-5.40 2.94,-5.04 3.55,-4.69 4.06,-4.19 4.57,-3.70 4.57,-3.70 L 4.57,-3.70 Z"></path></g><g transform="translate(10 120.66667175292969) rotate(0 60.33331298828125 -51.333335876464844)" stroke="none"><path fill="#1e1e1e" d="M -3.90,-4.18 Q -3.90,-4.18 -1.21,-7.07 1.46,-9.95 7.35,-15.77 13.25,-21.58 21.71,-29.65 30.18,-37.71 34.73,-42.06 39.28,-46.40 45.80,-52.68 52.33,-58.95 57.84,-63.99 63.35,-69.03 69.17,-74.09 74.99,-79.14 83.77,-85.65 92.56,-92.15 98.08,-96.36 103.60,-100.57 106.85,-102.85 110.10,-105.12 114.21,-104.78 118.32,-104.44 118.72,-104.56 119.13,-104.69 119.56,-104.67 119.98,-104.66 120.38,-104.51 120.78,-104.36 121.10,-104.09 121.43,-103.82 121.66,-103.46 121.89,-103.10 121.98,-102.68 122.08,-102.27 122.05,-101.85 122.01,-101.43 121.84,-101.04 121.67,-100.65 121.38,-100.33 121.09,-100.02 120.72,-99.81 120.35,-99.61 119.93,-99.53 119.51,-99.45 119.09,-99.51 118.67,-99.58 118.29,-99.77 117.91,-99.96 117.62,-100.26 117.32,-100.57 117.13,-100.95 116.95,-101.33 116.89,-101.75 116.84,-102.17 116.92,-102.59 117.01,-103.01 117.22,-103.37 117.43,-103.74 117.75,-104.02 118.07,-104.30 118.46,-104.47 118.85,-104.63 119.28,-104.66 119.70,-104.70 120.11,-104.59 120.52,-104.48 120.88,-104.25 121.23,-104.02 121.50,-103.69 121.76,-103.35 121.90,-102.95 122.05,-102.55 122.06,-102.13 122.06,-101.70 121.94,-101.30 121.81,-100.89 121.56,-100.55 121.31,-100.21 120.96,-99.96 120.61,-99.72 120.61,-99.72 120.61,-99.72 119.29,-96.74 117.97,-93.76 114.95,-91.68 111.93,-89.59 106.32,-85.35 100.71,-81.11 92.32,-74.94 83.93,-68.78 78.21,-63.87 72.49,-58.96 67.07,-54.08 61.66,-49.20 55.09,-42.95 48.53,-36.71 43.94,-32.34 39.35,-27.97 30.82,-20.04 22.30,-12.10 16.16,-6.44 10.03,-0.77 6.96,1.70 3.90,4.18 3.34,4.58 2.78,4.99 2.15,5.25 1.51,5.51 0.83,5.61 0.14,5.71 -0.53,5.65 -1.22,5.58 -1.87,5.36 -2.52,5.13 -3.10,4.75 -3.68,4.37 -4.15,3.87 -4.62,3.37 -4.95,2.76 -5.29,2.16 -5.47,1.50 -5.66,0.83 -5.67,0.14 -5.69,-0.54 -5.54,-1.21 -5.40,-1.88 -5.09,-2.50 -4.79,-3.12 -4.34,-3.65 -3.90,-4.18 -3.90,-4.18 L -3.90,-4.18 Z"></path></g><g transform="translate(40 124.00001525878906) rotate(0 47 -40.00000762939453)" stroke="none"><path fill="#1e1e1e" d="M -3.85,-3.54 Q -3.85,-3.54 0.17,-8.68 4.21,-13.81 8.06,-17.72 11.91,-21.62 17.38,-26.79 22.86,-31.97 28.25,-36.86 33.64,-41.76 40.20,-47.35 46.75,-52.94 52.40,-57.64 58.05,-62.34 63.56,-66.68 69.08,-71.02 73.20,-74.06 77.33,-77.09 80.40,-79.33 83.47,-81.57 87.46,-81.55 91.46,-81.53 91.85,-81.69 92.25,-81.85 92.67,-81.87 93.09,-81.89 93.50,-81.78 93.91,-81.67 94.27,-81.43 94.62,-81.19 94.88,-80.86 95.13,-80.52 95.27,-80.12 95.41,-79.71 95.41,-79.29 95.41,-78.86 95.27,-78.46 95.14,-78.06 94.88,-77.72 94.63,-77.38 94.28,-77.14 93.92,-76.90 93.52,-76.79 93.11,-76.67 92.68,-76.69 92.26,-76.72 91.86,-76.87 91.47,-77.03 91.14,-77.30 90.82,-77.58 90.60,-77.94 90.38,-78.30 90.29,-78.72 90.19,-79.13 90.24,-79.56 90.28,-79.98 90.46,-80.37 90.64,-80.75 90.93,-81.06 91.22,-81.37 91.60,-81.57 91.97,-81.77 92.39,-81.84 92.81,-81.91 93.23,-81.84 93.65,-81.77 94.03,-81.57 94.40,-81.38 94.69,-81.07 94.99,-80.76 95.17,-80.38 95.35,-79.99 95.39,-79.57 95.44,-79.15 95.35,-78.73 95.26,-78.31 95.04,-77.95 94.82,-77.59 94.50,-77.31 94.17,-77.03 94.18,-77.03 94.18,-77.03 92.82,-73.78 91.47,-70.53 88.42,-68.33 85.36,-66.13 81.40,-63.24 77.43,-60.34 72.02,-56.14 66.60,-51.94 60.98,-47.36 55.35,-42.78 48.89,-37.37 42.44,-31.96 37.07,-27.19 31.70,-22.43 26.29,-17.51 20.87,-12.58 17.14,-8.96 13.41,-5.34 8.63,-0.90 3.85,3.54 3.37,3.95 2.89,4.36 2.32,4.64 1.76,4.93 1.14,5.07 0.53,5.21 -0.09,5.19 -0.72,5.18 -1.33,5.02 -1.94,4.86 -2.50,4.55 -3.05,4.25 -3.52,3.82 -3.98,3.39 -4.33,2.87 -4.68,2.34 -4.89,1.75 -5.10,1.15 -5.17,0.52 -5.23,-0.09 -5.14,-0.72 -5.06,-1.34 -4.82,-1.93 -4.59,-2.52 -4.22,-3.03 -3.85,-3.54 -3.85,-3.54 L -3.85,-3.54 Z"></path></g><g transform="translate(127.33331298828125 20) rotate(0 51 31.666664123535156)" stroke="none"><path fill="#1e1e1e" d="M 0.91,-5.05 Q 0.91,-5.05 3.09,-4.99 5.26,-4.94 7.93,-4.19 10.59,-3.44 13.68,-1.77 16.77,-0.10 19.56,1.73 22.36,3.57 24.16,5.14 25.97,6.70 31.35,10.46 36.73,14.22 41.75,17.58 46.77,20.94 51.73,24.04 56.69,27.15 61.45,29.99 66.20,32.82 72.40,36.30 78.60,39.77 83.67,42.85 88.74,45.93 91.93,48.04 95.12,50.16 97.50,51.85 99.88,53.54 101.47,57.19 103.07,60.84 103.36,61.15 103.65,61.46 103.82,61.85 104.00,62.23 104.04,62.66 104.09,63.08 103.99,63.49 103.90,63.91 103.68,64.27 103.46,64.63 103.13,64.91 102.80,65.18 102.41,65.33 102.01,65.49 101.59,65.51 101.16,65.53 100.75,65.41 100.35,65.30 100.00,65.06 99.65,64.81 99.39,64.47 99.14,64.13 99.00,63.73 98.87,63.33 98.87,62.90 98.88,62.48 99.01,62.08 99.15,61.67 99.41,61.34 99.67,61.00 100.02,60.76 100.38,60.53 100.79,60.42 101.20,60.31 101.62,60.33 102.05,60.36 102.44,60.52 102.83,60.68 103.16,60.96 103.48,61.23 103.69,61.60 103.91,61.96 104.00,62.38 104.09,62.80 104.04,63.22 103.99,63.64 103.81,64.02 103.63,64.41 103.33,64.71 103.04,65.02 102.66,65.22 102.29,65.41 101.87,65.48 101.45,65.55 101.03,65.47 100.61,65.40 100.23,65.20 99.86,65.00 99.86,65.00 99.86,65.00 95.98,64.64 92.09,64.27 89.94,62.68 87.80,61.09 84.85,59.10 81.91,57.10 77.06,54.11 72.20,51.13 65.87,47.55 59.53,43.97 54.65,41.03 49.76,38.10 44.67,34.83 39.57,31.57 34.45,28.07 29.33,24.57 22.32,19.21 15.31,13.85 12.93,12.15 10.55,10.44 6.86,8.46 3.17,6.47 1.12,5.76 -0.91,5.05 -1.51,4.87 -2.10,4.68 -2.63,4.36 -3.16,4.04 -3.60,3.61 -4.04,3.17 -4.36,2.64 -4.68,2.11 -4.86,1.52 -5.05,0.93 -5.09,0.31 -5.12,-0.30 -5.01,-0.91 -4.90,-1.52 -4.65,-2.08 -4.40,-2.65 -4.01,-3.14 -3.63,-3.62 -3.15,-4.01 -2.66,-4.39 -2.09,-4.64 -1.53,-4.90 -0.92,-5.01 -0.31,-5.12 0.30,-5.09 0.91,-5.05 0.91,-5.05 L 0.91,-5.05 Z"></path></g><g transform="translate(229.33331298828125 89.33332824707031) rotate(0 20.333343505859375 124.33334350585938)" stroke="none"><path fill="#1e1e1e" d="M 4.71,-1.88 Q 4.71,-1.88 6.35,0.79 8.00,3.48 8.86,6.86 9.72,10.24 10.45,13.68 11.17,17.12 11.88,20.91 12.58,24.70 13.48,30.17 14.38,35.65 15.32,40.75 16.26,45.86 17.26,51.95 18.25,58.05 19.07,63.95 19.88,69.84 20.80,75.51 21.71,81.17 23.04,87.69 24.37,94.20 25.54,100.54 26.71,106.88 27.79,113.02 28.87,119.17 29.91,125.85 30.96,132.53 31.80,138.87 32.64,145.21 33.57,151.88 34.50,158.54 35.48,165.19 36.45,171.84 37.26,177.57 38.06,183.30 38.97,188.92 39.88,194.54 40.48,199.16 41.08,203.79 41.89,208.88 42.70,213.96 43.44,218.23 44.17,222.50 44.88,227.07 45.58,231.64 46.09,235.35 46.59,239.06 44.60,243.07 42.61,247.07 42.55,247.49 42.48,247.91 42.28,248.29 42.09,248.66 41.78,248.96 41.47,249.25 41.09,249.43 40.70,249.61 40.28,249.66 39.86,249.71 39.44,249.62 39.03,249.53 38.66,249.32 38.30,249.10 38.02,248.78 37.74,248.45 37.58,248.06 37.42,247.67 37.40,247.24 37.37,246.82 37.48,246.41 37.60,246.00 37.83,245.64 38.07,245.29 38.40,245.03 38.74,244.77 39.14,244.64 39.55,244.50 39.97,244.49 40.39,244.49 40.80,244.63 41.20,244.76 41.54,245.01 41.88,245.27 42.12,245.62 42.36,245.97 42.48,246.38 42.59,246.79 42.57,247.21 42.55,247.64 42.40,248.03 42.24,248.43 41.97,248.75 41.70,249.08 41.33,249.30 40.97,249.52 40.56,249.61 40.14,249.71 39.72,249.67 39.30,249.62 38.91,249.45 38.52,249.27 38.21,248.98 37.90,248.69 37.70,248.31 37.50,247.94 37.43,247.52 37.36,247.10 37.36,247.10 37.36,247.10 35.33,243.96 33.29,240.82 32.82,237.25 32.35,233.67 31.67,229.21 30.99,224.74 30.26,220.39 29.53,216.05 28.70,210.77 27.86,205.49 27.31,201.06 26.75,196.64 25.83,190.89 24.91,185.13 24.13,179.44 23.35,173.74 22.38,167.04 21.42,160.34 20.51,153.63 19.59,146.92 18.79,140.73 17.99,134.54 16.99,127.97 15.98,121.40 14.94,115.31 13.89,109.22 12.76,103.00 11.64,96.78 10.28,89.99 8.91,83.21 8.00,77.40 7.08,71.60 6.30,65.85 5.52,60.10 4.57,54.13 3.62,48.16 2.68,42.91 1.74,37.66 0.92,32.30 0.10,26.94 -0.53,23.27 -1.16,19.60 -1.78,16.32 -2.40,13.04 -2.90,10.53 -3.40,8.01 -4.05,4.95 -4.71,1.88 -4.87,1.29 -5.02,0.70 -5.03,0.09 -5.04,-0.52 -4.91,-1.11 -4.77,-1.71 -4.50,-2.26 -4.22,-2.80 -3.83,-3.27 -3.43,-3.73 -2.93,-4.09 -2.43,-4.45 -1.87,-4.67 -1.30,-4.90 -0.69,-4.99 -0.09,-5.07 0.51,-5.01 1.12,-4.94 1.70,-4.74 2.27,-4.53 2.78,-4.19 3.29,-3.85 3.71,-3.40 4.12,-2.95 4.41,-2.42 4.71,-1.88 4.71,-1.88 L 4.71,-1.88 Z"></path></g><g transform="translate(163.33331298828125 411.3333282470703) rotate(0 52 -41.666656494140625)" stroke="none"><path fill="#1e1e1e" d="M -3.99,-3.38 Q -3.99,-3.38 -2.34,-6.26 -0.68,-9.14 3.01,-12.47 6.70,-15.81 11.05,-19.01 15.40,-22.20 21.93,-26.94 28.47,-31.69 35.27,-36.59 42.08,-41.49 48.95,-46.60 55.81,-51.72 63.34,-57.36 70.86,-63.00 76.90,-67.67 82.93,-72.33 88.00,-76.26 93.07,-80.19 96.16,-82.61 99.26,-85.04 101.84,-84.46 104.42,-83.87 104.80,-84.08 105.17,-84.28 105.59,-84.35 106.01,-84.43 106.43,-84.36 106.85,-84.30 107.22,-84.11 107.60,-83.91 107.90,-83.61 108.19,-83.30 108.38,-82.92 108.56,-82.54 108.61,-82.11 108.66,-81.69 108.58,-81.28 108.49,-80.86 108.27,-80.49 108.06,-80.13 107.74,-79.85 107.42,-79.57 107.03,-79.41 106.63,-79.24 106.21,-79.22 105.79,-79.19 105.37,-79.30 104.96,-79.40 104.61,-79.64 104.25,-79.87 103.99,-80.21 103.73,-80.54 103.59,-80.94 103.45,-81.35 103.45,-81.77 103.44,-82.20 103.57,-82.60 103.70,-83.00 103.96,-83.35 104.21,-83.69 104.56,-83.93 104.91,-84.17 105.31,-84.29 105.72,-84.41 106.15,-84.39 106.57,-84.37 106.97,-84.22 107.36,-84.07 107.69,-83.80 108.02,-83.53 108.24,-83.17 108.47,-82.80 108.56,-82.39 108.66,-81.98 108.62,-81.55 108.58,-81.13 108.40,-80.74 108.23,-80.35 107.94,-80.04 107.65,-79.73 107.65,-79.73 107.65,-79.73 107.59,-77.08 107.52,-74.44 104.39,-72.00 101.25,-69.57 96.17,-65.67 91.08,-61.78 84.96,-57.05 78.83,-52.33 71.28,-46.70 63.72,-41.07 56.76,-35.91 49.79,-30.74 42.98,-25.87 36.17,-21.01 29.62,-16.31 23.07,-11.62 19.17,-8.83 15.27,-6.05 12.19,-3.43 9.11,-0.82 6.55,1.27 3.99,3.38 3.53,3.81 3.07,4.24 2.52,4.54 1.96,4.85 1.35,5.01 0.74,5.18 0.11,5.19 -0.51,5.21 -1.12,5.07 -1.74,4.93 -2.31,4.65 -2.87,4.37 -3.35,3.96 -3.84,3.56 -4.21,3.04 -4.58,2.53 -4.81,1.95 -5.05,1.36 -5.14,0.74 -5.23,0.11 -5.17,-0.50 -5.11,-1.13 -4.90,-1.73 -4.69,-2.32 -4.34,-2.85 -3.99,-3.38 -3.99,-3.38 L -3.99,-3.38 Z"></path></g><g transform="translate(209.33331298828125 105.33332824707031) rotate(0 8.66668701171875 104.66667175292969)" stroke="none"><path fill="#1e1e1e" d="M 5.40,1.12 Q 5.40,1.12 4.96,5.81 4.51,10.51 4.57,14.13 4.62,17.74 4.81,21.88 4.99,26.03 5.45,31.16 5.91,36.28 6.66,42.03 7.42,47.77 8.14,53.76 8.86,59.74 9.55,65.74 10.24,71.73 10.93,78.94 11.61,86.15 12.09,92.90 12.58,99.65 12.98,107.15 13.38,114.65 13.74,121.25 14.10,127.86 14.63,134.62 15.17,141.37 15.95,146.95 16.73,152.54 17.64,157.97 18.55,163.41 19.49,167.92 20.44,172.44 21.25,176.56 22.06,180.68 22.80,184.77 23.54,188.85 24.24,192.22 24.93,195.58 25.45,198.47 25.97,201.36 24.56,205.14 23.15,208.92 23.15,209.35 23.15,209.77 23.01,210.18 22.88,210.58 22.62,210.92 22.36,211.26 22.01,211.50 21.66,211.73 21.25,211.85 20.84,211.96 20.42,211.94 19.99,211.92 19.60,211.76 19.20,211.60 18.88,211.33 18.56,211.05 18.34,210.69 18.12,210.33 18.02,209.91 17.93,209.50 17.98,209.07 18.02,208.65 18.20,208.27 18.38,207.88 18.67,207.57 18.96,207.26 19.34,207.06 19.71,206.86 20.13,206.79 20.55,206.73 20.97,206.79 21.39,206.86 21.77,207.06 22.14,207.26 22.44,207.57 22.73,207.88 22.91,208.26 23.09,208.65 23.13,209.07 23.18,209.49 23.09,209.91 23.00,210.32 22.78,210.69 22.56,211.05 22.24,211.33 21.91,211.60 21.52,211.76 21.12,211.92 20.70,211.94 20.27,211.96 19.86,211.85 19.45,211.74 19.10,211.50 18.75,211.26 18.49,210.92 18.24,210.58 18.10,210.18 17.96,209.78 17.96,209.78 17.96,209.78 15.28,206.73 12.59,203.67 12.14,200.96 11.69,198.24 11.00,194.72 10.32,191.21 9.62,187.22 8.92,183.24 8.14,179.19 7.37,175.15 6.38,170.37 5.40,165.59 4.47,159.98 3.55,154.37 2.73,148.39 1.91,142.41 1.37,135.50 0.83,128.58 0.47,121.97 0.11,115.35 -0.27,107.98 -0.66,100.60 -1.13,94.00 -1.60,87.40 -2.27,80.32 -2.93,73.25 -3.62,67.28 -4.30,61.32 -5.00,55.40 -5.70,49.49 -6.48,43.46 -7.27,37.44 -7.73,32.01 -8.20,26.58 -8.37,22.13 -8.55,17.67 -8.45,12.77 -8.34,7.88 -6.87,3.38 -5.40,-1.12 -5.19,-1.75 -4.97,-2.38 -4.62,-2.94 -4.26,-3.50 -3.78,-3.96 -3.29,-4.42 -2.72,-4.75 -2.14,-5.08 -1.50,-5.27 -0.86,-5.45 -0.19,-5.47 0.46,-5.50 1.11,-5.36 1.77,-5.23 2.37,-4.94 2.97,-4.65 3.48,-4.23 3.99,-3.80 4.39,-3.27 4.79,-2.74 5.05,-2.12 5.31,-1.51 5.41,-0.85 5.51,-0.19 5.46,0.46 5.40,1.12 5.40,1.12 L 5.40,1.12 Z"></path></g><g transform="translate(262.6666259765625 68) rotate(0 54.66668701171875 -29)" stroke="none"><path fill="#1e1e1e" d="M -2.64,-4.62 Q -2.64,-4.62 1.11,-7.40 4.86,-10.17 8.59,-12.47 12.32,-14.78 14.48,-16.13 16.64,-17.49 23.97,-21.79 31.29,-26.10 38.35,-30.38 45.40,-34.66 51.05,-37.71 56.70,-40.77 63.70,-44.37 70.69,-47.98 75.81,-50.49 80.92,-53.00 85.83,-55.24 90.75,-57.49 94.53,-59.21 98.32,-60.93 102.61,-60.40 106.89,-59.87 107.31,-59.96 107.72,-60.04 108.15,-59.99 108.57,-59.94 108.95,-59.76 109.34,-59.58 109.64,-59.28 109.95,-58.99 110.14,-58.61 110.34,-58.23 110.40,-57.81 110.46,-57.39 110.39,-56.97 110.32,-56.55 110.11,-56.18 109.91,-55.81 109.60,-55.52 109.29,-55.23 108.90,-55.06 108.51,-54.88 108.09,-54.84 107.67,-54.80 107.25,-54.90 106.84,-54.99 106.48,-55.21 106.11,-55.44 105.84,-55.76 105.57,-56.09 105.42,-56.49 105.27,-56.88 105.25,-57.31 105.23,-57.73 105.35,-58.14 105.47,-58.55 105.71,-58.90 105.95,-59.25 106.29,-59.50 106.63,-59.75 107.04,-59.89 107.44,-60.02 107.87,-60.01 108.29,-60.01 108.69,-59.87 109.09,-59.73 109.43,-59.47 109.76,-59.20 110.00,-58.85 110.23,-58.50 110.34,-58.09 110.45,-57.67 110.42,-57.25 110.40,-56.83 110.23,-56.43 110.07,-56.04 109.79,-55.72 109.52,-55.40 109.15,-55.18 108.78,-54.97 108.78,-54.97 108.78,-54.97 106.31,-51.83 103.83,-48.69 100.06,-47.01 96.29,-45.32 91.53,-43.17 86.78,-41.02 81.77,-38.58 76.77,-36.14 69.88,-32.62 62.99,-29.10 57.61,-26.21 52.23,-23.32 45.07,-19.03 37.91,-14.73 30.71,-10.59 23.51,-6.46 21.28,-5.07 19.05,-3.69 15.14,-1.35 11.23,0.97 6.93,2.80 2.64,4.62 2.05,4.87 1.45,5.12 0.82,5.22 0.19,5.32 -0.44,5.27 -1.08,5.21 -1.69,5.01 -2.30,4.80 -2.84,4.45 -3.38,4.11 -3.83,3.64 -4.27,3.18 -4.59,2.62 -4.91,2.06 -5.08,1.44 -5.26,0.83 -5.28,0.18 -5.31,-0.45 -5.17,-1.08 -5.04,-1.71 -4.76,-2.28 -4.49,-2.86 -4.08,-3.36 -3.67,-3.86 -3.15,-4.24 -2.64,-4.62 -2.64,-4.62 L -2.64,-4.62 Z"></path></g><g transform="translate(367.33331298828125 17.333328247070312) rotate(0 45.333343505859375 47.66667175292969)" stroke="none"><path fill="#1e1e1e" d="M 3.25,-4.07 Q 3.25,-4.07 7.29,-1.26 11.34,1.54 14.61,4.77 17.88,7.99 19.64,9.95 21.41,11.92 25.35,16.83 29.28,21.75 33.30,26.34 37.31,30.94 41.14,35.20 44.98,39.45 49.38,43.83 53.78,48.21 58.09,52.13 62.40,56.05 66.12,59.22 69.84,62.40 73.33,65.27 76.82,68.14 80.10,70.94 83.39,73.74 86.25,76.96 89.12,80.18 90.90,82.98 92.69,85.78 92.51,89.35 92.32,92.92 92.47,93.32 92.61,93.72 92.62,94.15 92.63,94.57 92.51,94.98 92.38,95.38 92.13,95.73 91.89,96.07 91.54,96.32 91.19,96.57 90.79,96.69 90.38,96.81 89.96,96.80 89.53,96.79 89.13,96.64 88.73,96.49 88.40,96.23 88.07,95.96 87.85,95.60 87.62,95.24 87.52,94.83 87.41,94.42 87.45,93.99 87.48,93.57 87.65,93.18 87.82,92.79 88.11,92.48 88.39,92.16 88.76,91.95 89.13,91.74 89.55,91.66 89.97,91.58 90.39,91.64 90.81,91.70 91.19,91.89 91.57,92.08 91.87,92.38 92.17,92.68 92.36,93.06 92.55,93.44 92.60,93.87 92.66,94.29 92.58,94.70 92.50,95.12 92.29,95.49 92.08,95.86 91.76,96.14 91.44,96.43 91.05,96.59 90.66,96.76 90.24,96.79 89.81,96.83 89.40,96.72 88.99,96.62 88.63,96.39 88.27,96.16 88.01,95.83 87.74,95.50 87.74,95.50 87.74,95.50 84.70,94.00 81.67,92.50 80.54,90.53 79.42,88.56 77.25,85.98 75.07,83.39 71.91,80.65 68.75,77.91 65.18,74.96 61.61,72.00 57.75,68.68 53.89,65.36 49.38,61.23 44.88,57.10 40.26,52.45 35.64,47.79 31.78,43.43 27.91,39.07 23.74,34.20 19.57,29.34 15.98,24.62 12.38,19.90 10.85,18.14 9.33,16.38 6.66,13.55 3.99,10.71 0.36,7.39 -3.25,4.07 -3.69,3.62 -4.13,3.17 -4.45,2.63 -4.77,2.09 -4.95,1.48 -5.13,0.88 -5.16,0.25 -5.20,-0.36 -5.08,-0.98 -4.96,-1.60 -4.69,-2.17 -4.43,-2.74 -4.04,-3.23 -3.64,-3.72 -3.14,-4.10 -2.65,-4.48 -2.07,-4.74 -1.49,-4.99 -0.88,-5.09 -0.26,-5.20 0.36,-5.16 0.99,-5.11 1.59,-4.92 2.18,-4.73 2.72,-4.40 3.25,-4.07 3.25,-4.07 L 3.25,-4.07 Z"></path></g><g transform="translate(370 49.33332824707031) rotate(0 32.33331298828125 35.66667175292969)" stroke="none"><path fill="#1e1e1e" d="M 3.24,-4.00 Q 3.24,-4.00 7.58,-1.13 11.92,1.74 14.76,4.76 17.59,7.79 19.13,9.63 20.67,11.47 23.49,16.01 26.32,20.55 29.08,24.71 31.83,28.87 34.82,32.81 37.82,36.74 41.01,40.72 44.20,44.69 46.70,47.71 49.20,50.72 51.43,52.96 53.67,55.19 56.14,57.12 58.61,59.04 60.69,60.35 62.77,61.67 64.03,65.08 65.29,68.49 65.58,68.80 65.87,69.12 66.05,69.50 66.22,69.89 66.26,70.31 66.30,70.74 66.21,71.15 66.11,71.57 65.89,71.93 65.66,72.29 65.34,72.56 65.01,72.83 64.61,72.98 64.22,73.14 63.79,73.15 63.37,73.17 62.96,73.05 62.55,72.94 62.20,72.69 61.85,72.45 61.60,72.11 61.35,71.77 61.22,71.36 61.08,70.96 61.09,70.53 61.09,70.11 61.23,69.71 61.38,69.31 61.64,68.97 61.90,68.64 62.25,68.40 62.61,68.17 63.02,68.06 63.43,67.95 63.85,67.98 64.28,68.01 64.67,68.17 65.06,68.33 65.38,68.61 65.70,68.89 65.92,69.25 66.13,69.62 66.22,70.04 66.31,70.45 66.25,70.88 66.20,71.30 66.02,71.68 65.84,72.06 65.54,72.37 65.25,72.67 64.87,72.87 64.49,73.06 64.07,73.13 63.65,73.19 63.23,73.12 62.81,73.04 62.44,72.84 62.07,72.64 62.07,72.64 62.07,72.64 58.88,72.59 55.70,72.54 53.14,70.84 50.58,69.14 47.55,66.68 44.52,64.22 41.92,61.55 39.32,58.88 36.77,55.77 34.22,52.66 30.94,48.54 27.66,44.41 24.44,40.12 21.22,35.83 18.37,31.44 15.53,27.06 11.97,21.60 8.41,16.14 6.29,13.71 4.17,11.29 0.46,7.64 -3.24,4.00 -3.67,3.56 -4.10,3.11 -4.42,2.57 -4.73,2.04 -4.91,1.44 -5.08,0.84 -5.11,0.22 -5.14,-0.39 -5.02,-1.00 -4.89,-1.61 -4.63,-2.17 -4.37,-2.73 -3.97,-3.22 -3.58,-3.70 -3.09,-4.08 -2.59,-4.45 -2.02,-4.70 -1.45,-4.94 -0.84,-5.04 -0.22,-5.15 0.39,-5.10 1.01,-5.05 1.60,-4.86 2.19,-4.66 2.71,-4.33 3.24,-4.00 3.24,-4.00 L 3.24,-4.00 Z"></path></g><g transform="translate(456.6666259765625 114.66667175292969) rotate(0 11.3333740234375 78.33332824707031)" stroke="none"><path fill="#1e1e1e" d="M 3.99,-1.42 Q 3.99,-1.42 5.78,0.96 7.58,3.35 8.54,7.56 9.51,11.77 10.25,14.86 10.99,17.95 11.38,21.18 11.76,24.42 12.11,29.00 12.47,33.59 12.99,38.25 13.51,42.91 13.95,47.49 14.38,52.07 14.96,57.39 15.54,62.72 16.35,67.71 17.16,72.70 17.92,78.02 18.68,83.33 19.95,90.22 21.23,97.11 22.17,102.20 23.11,107.29 24.11,113.14 25.10,118.99 25.74,124.30 26.39,129.61 26.86,134.76 27.34,139.92 27.73,143.76 28.13,147.60 26.59,151.76 25.05,155.91 25.03,156.33 25.01,156.76 24.86,157.15 24.71,157.55 24.44,157.88 24.17,158.21 23.81,158.43 23.45,158.66 23.04,158.76 22.63,158.86 22.20,158.82 21.78,158.78 21.39,158.61 21.00,158.44 20.69,158.15 20.38,157.86 20.17,157.49 19.97,157.12 19.89,156.70 19.81,156.28 19.87,155.86 19.94,155.44 20.13,155.06 20.32,154.68 20.62,154.39 20.93,154.09 21.31,153.90 21.69,153.72 22.11,153.67 22.54,153.61 22.95,153.70 23.37,153.78 23.74,153.99 24.10,154.21 24.39,154.53 24.67,154.84 24.83,155.24 24.99,155.63 25.02,156.05 25.06,156.48 24.95,156.89 24.84,157.30 24.61,157.65 24.38,158.01 24.04,158.27 23.71,158.54 23.31,158.68 22.91,158.82 22.48,158.83 22.06,158.84 21.65,158.71 21.25,158.58 20.91,158.33 20.56,158.08 20.32,157.73 20.07,157.38 19.95,156.97 19.83,156.57 19.83,156.57 19.83,156.57 17.28,152.74 14.73,148.92 14.36,145.01 13.99,141.10 13.57,136.13 13.16,131.15 12.59,126.16 12.03,121.17 11.09,115.40 10.15,109.64 9.25,104.54 8.34,99.44 7.08,92.27 5.83,85.11 5.13,79.91 4.43,74.71 3.62,69.38 2.80,64.05 2.26,58.63 1.72,53.22 1.33,48.75 0.94,44.28 0.42,39.38 -0.08,34.49 -0.37,30.11 -0.67,25.74 -0.89,23.22 -1.12,20.70 -1.81,17.48 -2.51,14.25 -3.13,10.82 -3.75,7.38 -3.87,4.40 -3.99,1.42 -4.10,0.92 -4.21,0.42 -4.20,-0.08 -4.19,-0.59 -4.06,-1.08 -3.93,-1.58 -3.68,-2.02 -3.44,-2.47 -3.09,-2.85 -2.74,-3.22 -2.32,-3.50 -1.89,-3.79 -1.41,-3.96 -0.93,-4.13 -0.42,-4.18 0.08,-4.23 0.58,-4.16 1.09,-4.09 1.56,-3.90 2.04,-3.71 2.45,-3.41 2.87,-3.11 3.20,-2.72 3.53,-2.33 3.76,-1.88 3.99,-1.42 3.99,-1.42 L 3.99,-1.42 Z"></path></g><g transform="translate(485.3333740234375 280.6666717529297) rotate(0 -62.3333740234375 52.33332824707031)" stroke="none"><path fill="#1e1e1e" d="M 3.57,2.55 Q 3.57,2.55 1.88,5.39 0.19,8.24 -3.02,11.97 -6.24,15.70 -7.96,17.57 -9.67,19.45 -14.88,24.45 -20.09,29.45 -24.19,33.25 -28.30,37.05 -33.91,41.97 -39.52,46.90 -44.76,51.47 -50.00,56.04 -55.88,61.07 -61.77,66.10 -67.17,70.56 -72.57,75.02 -77.61,78.88 -82.65,82.75 -88.24,86.89 -93.82,91.04 -97.20,93.41 -100.57,95.79 -104.77,98.44 -108.98,101.09 -111.40,102.72 -113.82,104.35 -116.57,106.11 -119.32,107.87 -120.81,106.84 -122.29,105.82 -122.57,106.14 -122.84,106.46 -123.20,106.68 -123.57,106.91 -123.98,107.00 -124.40,107.09 -124.82,107.05 -125.24,107.00 -125.63,106.82 -126.01,106.65 -126.32,106.35 -126.63,106.06 -126.83,105.69 -127.03,105.31 -127.10,104.89 -127.17,104.48 -127.11,104.06 -127.04,103.64 -126.84,103.26 -126.64,102.88 -126.33,102.59 -126.03,102.30 -125.64,102.12 -125.26,101.94 -124.83,101.89 -124.41,101.84 -124.00,101.93 -123.58,102.02 -123.22,102.24 -122.85,102.46 -122.58,102.78 -122.30,103.11 -122.14,103.50 -121.98,103.90 -121.96,104.32 -121.93,104.74 -122.05,105.15 -122.16,105.56 -122.40,105.92 -122.63,106.27 -122.97,106.53 -123.31,106.79 -123.71,106.92 -124.11,107.06 -124.54,107.06 -124.96,107.06 -125.37,106.93 -125.77,106.79 -126.11,106.54 -126.45,106.28 -126.69,105.93 -126.93,105.58 -127.04,105.17 -127.16,104.76 -127.13,104.33 -127.11,103.91 -126.96,103.52 -126.80,103.12 -126.80,103.12 -126.80,103.12 -125.75,100.27 -124.71,97.43 -122.40,96.10 -120.10,94.78 -117.50,93.12 -114.91,91.45 -110.92,89.06 -106.93,86.68 -103.66,84.41 -100.39,82.14 -94.86,78.08 -89.33,74.01 -84.44,70.28 -79.55,66.55 -74.21,62.16 -68.87,57.77 -63.01,52.79 -57.15,47.81 -51.90,43.27 -46.65,38.72 -41.11,33.93 -35.58,29.13 -31.48,25.39 -27.39,21.65 -22.33,17.04 -17.27,12.42 -15.57,10.60 -13.87,8.79 -10.86,5.64 -7.85,2.48 -5.71,-0.03 -3.57,-2.55 -3.21,-2.94 -2.85,-3.33 -2.41,-3.62 -1.97,-3.91 -1.47,-4.09 -0.98,-4.27 -0.45,-4.33 0.07,-4.38 0.59,-4.31 1.11,-4.24 1.61,-4.04 2.10,-3.85 2.53,-3.54 2.96,-3.23 3.30,-2.83 3.65,-2.43 3.88,-1.96 4.12,-1.48 4.24,-0.97 4.36,-0.45 4.35,0.07 4.34,0.59 4.21,1.11 4.07,1.62 3.82,2.08 3.57,2.55 3.57,2.55 L 3.57,2.55 Z"></path></g><g transform="translate(288 336.00001525878906) rotate(0 35.33331298828125 28.666656494140625)" stroke="none"><path fill="#1e1e1e" d="M 2.54,-4.16 Q 2.54,-4.16 6.28,-2.49 10.01,-0.83 14.33,3.05 18.65,6.93 21.71,10.05 24.78,13.17 29.30,17.66 33.82,22.15 37.68,25.96 41.54,29.77 45.84,33.29 50.14,36.81 53.88,39.66 57.61,42.51 61.10,45.04 64.60,47.57 67.08,49.11 69.56,50.65 70.44,53.62 71.32,56.59 71.62,56.89 71.93,57.18 72.13,57.56 72.32,57.93 72.39,58.35 72.46,58.77 72.39,59.19 72.32,59.61 72.12,59.98 71.92,60.36 71.61,60.65 71.30,60.94 70.91,61.12 70.52,61.29 70.10,61.34 69.68,61.38 69.26,61.29 68.85,61.20 68.49,60.98 68.12,60.76 67.85,60.43 67.58,60.11 67.42,59.71 67.26,59.31 67.24,58.89 67.22,58.47 67.34,58.06 67.45,57.65 67.69,57.30 67.93,56.95 68.27,56.69 68.61,56.43 69.02,56.30 69.42,56.17 69.84,56.17 70.27,56.17 70.67,56.31 71.07,56.45 71.41,56.70 71.75,56.96 71.98,57.32 72.22,57.67 72.33,58.08 72.44,58.49 72.42,58.91 72.39,59.34 72.24,59.73 72.08,60.12 71.80,60.45 71.52,60.77 71.16,60.99 70.79,61.21 70.38,61.29 69.96,61.38 69.54,61.34 69.12,61.29 68.73,61.11 68.35,60.93 68.35,60.93 68.35,60.93 65.46,61.33 62.58,61.72 59.74,59.91 56.91,58.10 53.32,55.45 49.72,52.81 45.79,49.79 41.87,46.77 37.16,42.80 32.45,38.83 28.64,34.93 24.84,31.04 20.34,26.41 15.84,21.79 13.02,18.80 10.21,15.81 6.99,12.54 3.78,9.26 0.61,6.71 -2.54,4.16 -3.00,3.79 -3.46,3.43 -3.82,2.96 -4.18,2.50 -4.42,1.96 -4.66,1.42 -4.76,0.85 -4.87,0.27 -4.83,-0.31 -4.79,-0.90 -4.61,-1.46 -4.43,-2.02 -4.13,-2.52 -3.82,-3.02 -3.40,-3.44 -2.99,-3.85 -2.48,-4.15 -1.98,-4.45 -1.41,-4.63 -0.85,-4.80 -0.26,-4.83 0.31,-4.86 0.89,-4.76 1.47,-4.65 2.00,-4.40 2.54,-4.16 2.54,-4.16 L 2.54,-4.16 Z"></path></g><g transform="translate(366.6666259765625 340.00001525878906) rotate(0 37.333343505859375 -31.333343505859375)" stroke="none"><path fill="#1e1e1e" d="M -3.83,-3.69 Q -3.83,-3.69 0.97,-9.41 5.78,-15.13 10.63,-20.17 15.48,-25.21 19.32,-28.95 23.17,-32.68 27.52,-36.64 31.87,-40.59 35.41,-43.79 38.94,-46.99 42.42,-49.96 45.90,-52.93 48.33,-54.95 50.77,-56.97 53.25,-58.62 55.72,-60.27 57.57,-61.37 59.43,-62.47 61.68,-63.23 63.93,-64.00 66.43,-64.75 68.94,-65.49 70.47,-64.19 72.00,-62.89 72.18,-63.28 72.36,-63.67 72.65,-63.98 72.94,-64.29 73.31,-64.49 73.68,-64.69 74.10,-64.77 74.52,-64.84 74.94,-64.77 75.36,-64.71 75.74,-64.51 76.11,-64.31 76.41,-64.01 76.70,-63.70 76.88,-63.32 77.07,-62.93 77.11,-62.51 77.16,-62.09 77.08,-61.67 76.99,-61.26 76.77,-60.89 76.55,-60.52 76.23,-60.25 75.91,-59.97 75.52,-59.81 75.12,-59.65 74.70,-59.62 74.27,-59.60 73.86,-59.71 73.45,-59.82 73.10,-60.05 72.75,-60.29 72.49,-60.63 72.23,-60.96 72.09,-61.37 71.95,-61.77 71.95,-62.19 71.95,-62.62 72.08,-63.02 72.21,-63.42 72.47,-63.76 72.72,-64.10 73.07,-64.35 73.42,-64.59 73.83,-64.70 74.24,-64.82 74.66,-64.80 75.09,-64.78 75.48,-64.63 75.88,-64.47 76.20,-64.20 76.53,-63.93 76.75,-63.56 76.97,-63.20 77.07,-62.79 77.16,-62.37 77.12,-61.95 77.08,-61.53 77.08,-61.53 77.08,-61.53 75.00,-56.83 72.93,-52.13 70.30,-51.44 67.67,-50.75 65.42,-49.80 63.17,-48.86 61.29,-47.66 59.41,-46.47 57.02,-44.51 54.63,-42.54 51.26,-39.75 47.88,-36.96 44.31,-33.83 40.74,-30.69 36.50,-26.95 32.25,-23.21 28.50,-19.65 24.74,-16.10 19.83,-11.21 14.91,-6.33 9.37,-1.31 3.83,3.69 3.33,4.10 2.83,4.51 2.25,4.78 1.67,5.05 1.04,5.18 0.41,5.31 -0.22,5.28 -0.86,5.25 -1.48,5.07 -2.09,4.89 -2.65,4.57 -3.21,4.25 -3.67,3.80 -4.13,3.36 -4.47,2.81 -4.81,2.27 -5.02,1.66 -5.22,1.05 -5.27,0.41 -5.32,-0.22 -5.22,-0.85 -5.11,-1.49 -4.86,-2.08 -4.61,-2.67 -4.22,-3.18 -3.83,-3.69 -3.83,-3.69 L -3.83,-3.69 Z"></path></g><g transform="translate(358 394.00001525878906) rotate(0 0.666656494140625 34.333343505859375)" stroke="none"><path fill="#1e1e1e" d="M 5.01,0.29 Q 5.01,0.29 5.46,3.59 5.92,6.88 6.09,10.68 6.25,14.47 6.31,16.80 6.37,19.12 6.64,25.04 6.91,30.95 7.21,35.51 7.52,40.07 7.84,43.69 8.16,47.31 8.12,50.75 8.08,54.20 8.06,57.21 8.05,60.22 7.85,62.75 7.64,65.28 5.18,66.92 2.72,68.56 2.56,68.95 2.39,69.34 2.11,69.66 1.83,69.98 1.46,70.19 1.09,70.40 0.67,70.48 0.26,70.57 -0.15,70.51 -0.58,70.46 -0.96,70.27 -1.34,70.08 -1.64,69.78 -1.94,69.49 -2.14,69.11 -2.33,68.73 -2.39,68.31 -2.45,67.89 -2.37,67.47 -2.29,67.05 -2.09,66.68 -1.88,66.31 -1.56,66.02 -1.25,65.74 -0.86,65.57 -0.47,65.40 -0.05,65.36 0.37,65.32 0.78,65.42 1.19,65.52 1.55,65.75 1.91,65.97 2.18,66.30 2.45,66.63 2.60,67.03 2.75,67.43 2.76,67.85 2.77,68.28 2.65,68.68 2.53,69.09 2.28,69.44 2.04,69.79 1.70,70.04 1.35,70.29 0.95,70.41 0.54,70.54 0.12,70.53 -0.30,70.52 -0.70,70.38 -1.10,70.23 -1.43,69.97 -1.76,69.71 -2.00,69.35 -2.23,68.99 -2.33,68.58 -2.44,68.17 -2.41,67.75 -2.37,67.32 -2.37,67.32 -2.37,67.32 -3.84,63.71 -5.31,60.10 -5.27,57.02 -5.23,53.94 -5.16,51.18 -5.08,48.42 -5.38,44.64 -5.68,40.87 -5.94,36.14 -6.20,31.41 -6.35,25.40 -6.50,19.39 -6.54,17.10 -6.58,14.82 -6.63,10.48 -6.69,6.14 -5.85,2.92 -5.01,-0.29 -4.90,-0.89 -4.79,-1.48 -4.54,-2.03 -4.29,-2.58 -3.92,-3.06 -3.55,-3.54 -3.07,-3.91 -2.60,-4.29 -2.05,-4.54 -1.50,-4.78 -0.90,-4.89 -0.31,-5.00 0.29,-4.97 0.89,-4.93 1.47,-4.75 2.05,-4.58 2.57,-4.26 3.08,-3.95 3.51,-3.52 3.94,-3.10 4.26,-2.58 4.57,-2.06 4.75,-1.48 4.93,-0.91 4.97,-0.30 5.01,0.29 5.01,0.29 L 5.01,0.29 Z"></path></g><g transform="translate(360.6666259765625 498.6667022705078) rotate(0 -3.666656494140625 13.33331298828125)" stroke="none"><path fill="#1e1e1e" d="M -5.19,-1.19 Q -5.19,-1.19 -5.15,-3.80 -5.11,-6.40 -7.58,-3.15 -10.04,0.10 -11.91,1.99 -13.78,3.89 -15.15,5.86 -16.52,7.83 -17.34,11.30 -18.16,14.77 -18.43,17.54 -18.70,20.30 -17.37,22.53 -16.04,24.76 -12.99,26.82 -9.95,28.87 -7.54,28.77 -5.13,28.67 -2.73,27.92 -0.34,27.17 1.87,25.96 4.09,24.75 5.98,23.05 7.87,21.35 9.64,18.10 11.41,14.85 11.55,12.64 11.69,10.43 11.08,7.21 10.48,3.98 8.62,0.40 6.76,-3.18 6.39,-3.38 6.01,-3.58 5.73,-3.90 5.44,-4.21 5.26,-4.59 5.09,-4.98 5.05,-5.41 5.00,-5.83 5.10,-6.24 5.20,-6.66 5.42,-7.02 5.64,-7.38 5.97,-7.65 6.29,-7.92 6.69,-8.08 7.09,-8.23 7.51,-8.25 7.94,-8.27 8.34,-8.15 8.75,-8.03 9.10,-7.79 9.45,-7.55 9.70,-7.21 9.96,-6.87 10.09,-6.46 10.22,-6.06 10.22,-5.63 10.21,-5.21 10.07,-4.81 9.93,-4.41 9.67,-4.07 9.41,-3.73 9.06,-3.50 8.70,-3.26 8.29,-3.15 7.88,-3.05 7.46,-3.07 7.03,-3.10 6.64,-3.26 6.25,-3.42 5.93,-3.70 5.61,-3.98 5.39,-4.35 5.18,-4.71 5.09,-5.13 5.00,-5.54 5.05,-5.97 5.10,-6.39 5.28,-6.77 5.47,-7.16 5.76,-7.46 6.06,-7.77 6.44,-7.96 6.81,-8.16 7.23,-8.22 7.65,-8.29 8.07,-8.21 8.49,-8.14 8.49,-8.14 8.49,-8.14 12.42,-9.33 16.34,-10.52 19.10,-8.31 21.86,-6.10 23.48,-3.46 25.10,-0.82 26.05,2.75 27.00,6.33 26.96,9.46 26.92,12.59 26.12,16.93 25.32,21.28 23.82,24.26 22.31,27.24 20.00,30.15 17.68,33.07 14.31,35.71 10.94,38.36 7.08,40.15 3.23,41.95 -1.42,42.86 -6.08,43.78 -11.27,43.09 -16.45,42.40 -20.78,39.79 -25.10,37.18 -27.50,33.84 -29.89,30.50 -31.67,25.03 -33.45,19.55 -32.94,15.02 -32.42,10.48 -30.49,4.88 -28.55,-0.71 -26.14,-3.85 -23.73,-6.99 -20.30,-9.89 -16.88,-12.80 -12.90,-14.69 -8.92,-16.58 -4.62,-17.02 -0.32,-17.46 2.35,-15.75 5.03,-14.05 6.22,-8.80 7.41,-3.56 6.30,-1.18 5.19,1.19 4.97,1.80 4.75,2.40 4.39,2.94 4.04,3.47 3.56,3.90 3.09,4.34 2.52,4.64 1.96,4.95 1.34,5.11 0.72,5.28 0.07,5.29 -0.56,5.29 -1.18,5.15 -1.81,5.01 -2.38,4.72 -2.96,4.43 -3.44,4.01 -3.93,3.59 -4.30,3.06 -4.68,2.54 -4.91,1.94 -5.15,1.35 -5.24,0.71 -5.32,0.07 -5.26,-0.56 -5.19,-1.19 -5.19,-1.19 L -5.19,-1.19 Z"></path></g><g transform="translate(400 494.6667022705078) rotate(0 1 17.666656494140625)" stroke="none"><path fill="#1e1e1e" d="M 6.10,-0.55 Q 6.10,-0.55 7.19,5.72 8.28,12.00 8.37,15.72 8.46,19.44 8.55,24.02 8.63,28.59 6.29,30.53 3.94,32.47 3.87,32.89 3.81,33.31 3.61,33.68 3.41,34.06 3.11,34.35 2.80,34.65 2.41,34.83 2.03,35.01 1.61,35.05 1.18,35.10 0.77,35.01 0.35,34.92 -0.00,34.71 -0.37,34.49 -0.64,34.17 -0.92,33.84 -1.08,33.45 -1.24,33.06 -1.26,32.63 -1.29,32.21 -1.18,31.80 -1.06,31.39 -0.83,31.03 -0.59,30.68 -0.25,30.42 0.07,30.16 0.47,30.03 0.88,29.89 1.30,29.89 1.73,29.89 2.13,30.02 2.53,30.15 2.87,30.41 3.21,30.66 3.45,31.01 3.69,31.36 3.81,31.77 3.92,32.18 3.90,32.61 3.88,33.03 3.73,33.43 3.57,33.82 3.30,34.15 3.02,34.47 2.66,34.69 2.30,34.91 1.88,35.01 1.47,35.10 1.05,35.06 0.62,35.01 0.24,34.84 -0.14,34.66 -0.45,34.37 -0.76,34.08 -0.96,33.70 -1.16,33.33 -1.23,32.91 -1.30,32.49 -1.30,32.49 -1.30,32.49 -3.67,30.58 -6.03,28.66 -5.99,24.16 -5.95,19.66 -5.96,16.48 -5.98,13.29 -6.04,6.92 -6.10,0.55 -6.07,-0.18 -6.05,-0.92 -5.85,-1.63 -5.65,-2.34 -5.29,-2.98 -4.93,-3.63 -4.42,-4.16 -3.92,-4.70 -3.30,-5.10 -2.68,-5.50 -1.98,-5.74 -1.28,-5.98 -0.55,-6.05 0.18,-6.12 0.91,-6.01 1.64,-5.90 2.32,-5.61 3.00,-5.33 3.60,-4.89 4.19,-4.46 4.67,-3.89 5.14,-3.32 5.46,-2.66 5.79,-1.99 5.94,-1.27 6.10,-0.55 6.10,-0.55 L 6.10,-0.55 Z"></path></g><g transform="translate(409.33331298828125 511.3333282470703) rotate(0 5.333343505859375 2.66668701171875)" stroke="none"><path fill="#1e1e1e" d="M 2.25,-5.16 Q 2.25,-5.16 6.02,-1.87 9.79,1.41 10.14,1.64 10.50,1.87 10.77,2.21 11.03,2.54 11.17,2.94 11.32,3.34 11.33,3.76 11.34,4.19 11.21,4.59 11.08,5.00 10.83,5.34 10.58,5.69 10.23,5.93 9.89,6.18 9.48,6.30 9.07,6.42 8.65,6.41 8.22,6.40 7.83,6.25 7.43,6.10 7.10,5.83 6.77,5.56 6.54,5.20 6.32,4.84 6.22,4.43 6.12,4.02 6.15,3.59 6.19,3.17 6.36,2.78 6.53,2.39 6.82,2.08 7.10,1.76 7.47,1.55 7.84,1.35 8.26,1.27 8.68,1.19 9.10,1.25 9.52,1.31 9.90,1.50 10.28,1.70 10.58,2.00 10.88,2.30 11.06,2.68 11.25,3.06 11.31,3.49 11.36,3.91 11.28,4.32 11.19,4.74 10.98,5.11 10.77,5.48 10.45,5.76 10.14,6.04 9.74,6.21 9.35,6.37 8.93,6.40 8.50,6.44 8.09,6.33 7.68,6.22 7.68,6.23 7.68,6.23 2.71,5.69 -2.25,5.16 -2.84,4.81 -3.42,4.47 -3.91,3.99 -4.39,3.52 -4.75,2.94 -5.11,2.36 -5.32,1.71 -5.53,1.07 -5.57,0.39 -5.62,-0.28 -5.51,-0.95 -5.39,-1.61 -5.12,-2.24 -4.85,-2.86 -4.43,-3.40 -4.02,-3.94 -3.49,-4.36 -2.96,-4.79 -2.34,-5.07 -1.73,-5.36 -1.06,-5.49 -0.39,-5.62 0.27,-5.58 0.95,-5.55 1.60,-5.35 2.25,-5.16 2.25,-5.16 L 2.25,-5.16 Z"></path></g><g transform="translate(432 498.6667022705078) rotate(0 -1.333343505859375 19)" stroke="none"><path fill="#1e1e1e" d="M 5.37,0.37 Q 5.37,0.37 5.38,11.35 5.39,22.33 2.91,26.82 0.43,31.32 0.33,31.73 0.23,32.14 0.01,32.50 -0.21,32.86 -0.53,33.13 -0.86,33.40 -1.26,33.55 -1.66,33.71 -2.08,33.72 -2.51,33.74 -2.91,33.62 -3.32,33.50 -3.67,33.25 -4.02,33.01 -4.27,32.67 -4.52,32.32 -4.65,31.92 -4.78,31.51 -4.77,31.09 -4.76,30.66 -4.62,30.26 -4.48,29.86 -4.22,29.53 -3.96,29.20 -3.60,28.96 -3.24,28.73 -2.83,28.62 -2.42,28.52 -2.00,28.55 -1.57,28.58 -1.18,28.74 -0.79,28.90 -0.47,29.18 -0.15,29.46 0.05,29.83 0.27,30.20 0.35,30.61 0.43,31.03 0.38,31.45 0.33,31.87 0.14,32.26 -0.03,32.64 -0.33,32.94 -0.62,33.25 -1.00,33.44 -1.38,33.63 -1.80,33.70 -2.22,33.76 -2.64,33.68 -3.06,33.61 -3.43,33.40 -3.80,33.20 -4.09,32.88 -4.38,32.57 -4.55,32.18 -4.72,31.79 -4.76,31.37 -4.80,30.95 -4.80,30.95 -4.80,30.95 -6.63,26.15 -8.46,21.36 -6.91,10.49 -5.37,-0.37 -5.25,-1.01 -5.13,-1.65 -4.85,-2.24 -4.58,-2.83 -4.18,-3.34 -3.77,-3.84 -3.25,-4.24 -2.74,-4.63 -2.14,-4.90 -1.55,-5.16 -0.91,-5.27 -0.27,-5.38 0.37,-5.33 1.02,-5.29 1.64,-5.09 2.25,-4.89 2.81,-4.55 3.36,-4.21 3.82,-3.74 4.27,-3.28 4.60,-2.72 4.93,-2.16 5.12,-1.54 5.31,-0.91 5.34,-0.27 5.37,0.37 5.37,0.37 L 5.37,0.37 Z"></path></g></svg>