<svg version="1.1" xmlns="http://www.w3.org/2000/svg" viewBox="0 0 426.66668701171875 326.6666564941406" width="426.66668701171875" height="326.6666564941406" class="excalidraw-svg"><!-- svg-source:excalidraw --><metadata></metadata><defs><style class="style-fonts">
      </style></defs><rect x="0" y="0" width="426.66668701171875" height="326.6666564941406" fill="#ffffff"></rect><g transform="translate(10.66668701171875 100) rotate(0 0.666656494140625 56)" stroke="none"><path fill="#1e1e1e" d="M 3.93,-0.15 Q 3.93,-0.15 4.40,4.82 4.88,9.79 4.97,12.50 5.06,15.21 4.95,19.39 4.84,23.57 4.84,27.15 4.83,30.72 4.85,35.68 4.87,40.64 5.08,45.34 5.28,50.04 5.39,55.21 5.50,60.37 5.74,64.95 5.98,69.53 6.28,73.96 6.58,78.40 6.34,83.66 6.09,88.92 5.81,95.05 5.54,101.18 5.41,103.97 5.29,106.76 3.63,109.57 1.96,112.38 1.77,112.76 1.58,113.14 1.27,113.43 0.97,113.73 0.58,113.91 0.20,114.10 -0.21,114.15 -0.63,114.20 -1.05,114.11 -1.46,114.03 -1.83,113.81 -2.20,113.60 -2.48,113.28 -2.76,112.96 -2.92,112.57 -3.08,112.18 -3.11,111.75 -3.14,111.33 -3.03,110.92 -2.93,110.51 -2.69,110.15 -2.46,109.80 -2.12,109.53 -1.79,109.27 -1.39,109.13 -0.99,108.99 -0.56,108.98 -0.14,108.98 0.26,109.11 0.66,109.24 1.00,109.49 1.35,109.74 1.59,110.09 1.83,110.44 1.95,110.85 2.07,111.25 2.05,111.68 2.04,112.10 1.88,112.50 1.73,112.90 1.46,113.23 1.19,113.55 0.83,113.78 0.47,114.00 0.06,114.10 -0.35,114.20 -0.77,114.16 -1.19,114.12 -1.58,113.94 -1.97,113.77 -2.28,113.48 -2.60,113.19 -2.80,112.82 -3.00,112.45 -3.08,112.03 -3.15,111.61 -3.09,111.19 -3.03,110.77 -3.03,110.77 -3.03,110.77 -3.97,108.53 -4.91,106.29 -4.77,103.48 -4.64,100.67 -4.31,94.53 -3.99,88.39 -3.71,83.71 -3.43,79.03 -3.70,74.52 -3.97,70.01 -4.18,65.26 -4.39,60.52 -4.44,55.46 -4.48,50.41 -4.64,45.50 -4.79,40.59 -4.71,35.57 -4.63,30.55 -4.51,26.88 -4.38,23.21 -4.17,19.34 -3.97,15.48 -4.04,12.81 -4.11,10.13 -4.02,5.14 -3.93,0.15 -3.89,-0.32 -3.85,-0.79 -3.70,-1.24 -3.55,-1.69 -3.29,-2.09 -3.04,-2.49 -2.70,-2.82 -2.35,-3.15 -1.94,-3.38 -1.53,-3.62 -1.08,-3.75 -0.62,-3.88 -0.15,-3.90 0.32,-3.92 0.78,-3.82 1.25,-3.73 1.68,-3.52 2.11,-3.32 2.47,-3.02 2.84,-2.72 3.12,-2.34 3.41,-1.96 3.59,-1.52 3.78,-1.08 3.85,-0.61 3.93,-0.15 3.93,-0.15 L 3.93,-0.15 Z"></path></g><g transform="translate(10 102) rotate(0 48.666656494140625 -45.66667175292969)" stroke="none"><path fill="#1e1e1e" d="M -3.33,-2.77 Q -3.33,-2.77 -1.65,-5.27 0.03,-7.76 2.38,-10.53 4.74,-13.29 7.45,-16.40 10.17,-19.51 12.32,-21.42 14.46,-23.33 20.58,-29.01 26.69,-34.69 32.94,-40.56 39.18,-46.43 44.75,-51.46 50.33,-56.49 55.91,-61.66 61.49,-66.83 66.22,-71.00 70.95,-75.16 74.65,-78.45 78.36,-81.74 81.72,-84.54 85.08,-87.34 87.17,-89.22 89.26,-91.10 92.00,-91.80 94.73,-92.50 95.08,-92.74 95.44,-92.97 95.85,-93.08 96.26,-93.19 96.68,-93.16 97.11,-93.13 97.50,-92.97 97.89,-92.80 98.21,-92.52 98.53,-92.24 98.75,-91.88 98.96,-91.51 99.05,-91.09 99.13,-90.68 99.08,-90.26 99.03,-89.83 98.85,-89.45 98.66,-89.07 98.36,-88.76 98.07,-88.46 97.69,-88.27 97.31,-88.07 96.89,-88.01 96.47,-87.95 96.05,-88.02 95.63,-88.09 95.26,-88.30 94.89,-88.50 94.60,-88.82 94.31,-89.13 94.14,-89.52 93.97,-89.90 93.93,-90.33 93.89,-90.75 93.98,-91.16 94.08,-91.58 94.31,-91.94 94.53,-92.30 94.86,-92.57 95.19,-92.84 95.58,-92.99 95.98,-93.14 96.40,-93.16 96.83,-93.18 97.24,-93.06 97.64,-92.94 97.99,-92.70 98.34,-92.45 98.59,-92.11 98.85,-91.77 98.98,-91.37 99.11,-90.96 99.10,-90.54 99.09,-90.11 98.95,-89.71 98.81,-89.31 98.55,-88.97 98.29,-88.64 98.29,-88.64 98.29,-88.64 97.30,-85.91 96.31,-83.18 94.06,-81.20 91.80,-79.22 88.56,-76.55 85.31,-73.87 81.58,-70.59 77.86,-67.31 73.22,-63.23 68.57,-59.16 62.93,-53.96 57.29,-48.76 51.78,-43.81 46.27,-38.86 39.98,-32.99 33.68,-27.11 27.43,-21.39 21.18,-15.67 19.47,-14.21 17.77,-12.75 15.04,-9.73 12.31,-6.71 9.97,-4.07 7.63,-1.43 5.48,0.67 3.33,2.77 2.95,3.13 2.57,3.49 2.11,3.75 1.66,4.01 1.15,4.15 0.65,4.29 0.13,4.30 -0.39,4.32 -0.90,4.21 -1.41,4.10 -1.88,3.87 -2.35,3.64 -2.75,3.31 -3.16,2.97 -3.47,2.55 -3.78,2.13 -3.98,1.64 -4.18,1.16 -4.26,0.64 -4.33,0.13 -4.29,-0.39 -4.24,-0.91 -4.07,-1.40 -3.90,-1.90 -3.61,-2.33 -3.33,-2.77 -3.33,-2.77 L -3.33,-2.77 Z"></path></g><g transform="translate(31.33331298828125 111.33334350585938) rotate(0 35.66668701171875 -33.333343505859375)" stroke="none"><path fill="#1e1e1e" d="M -3.25,-3.02 Q -3.25,-3.02 1.48,-8.61 6.22,-14.20 8.65,-17.02 11.08,-19.84 16.06,-24.75 21.05,-29.66 24.81,-33.37 28.57,-37.08 33.53,-41.47 38.48,-45.86 42.63,-49.59 46.77,-53.32 50.44,-56.64 54.11,-59.96 57.55,-62.66 60.99,-65.36 62.70,-66.78 64.42,-68.20 66.72,-68.17 69.02,-68.14 69.38,-68.36 69.75,-68.58 70.16,-68.68 70.57,-68.77 71.00,-68.73 71.42,-68.68 71.81,-68.51 72.19,-68.33 72.50,-68.04 72.81,-67.75 73.01,-67.38 73.22,-67.00 73.29,-66.58 73.36,-66.16 73.29,-65.74 73.23,-65.32 73.03,-64.95 72.83,-64.57 72.53,-64.28 72.22,-63.98 71.83,-63.80 71.45,-63.62 71.03,-63.57 70.60,-63.53 70.19,-63.61 69.77,-63.70 69.41,-63.92 69.04,-64.14 68.77,-64.46 68.49,-64.78 68.33,-65.18 68.17,-65.57 68.14,-65.99 68.12,-66.42 68.23,-66.83 68.34,-67.24 68.58,-67.59 68.81,-67.94 69.15,-68.20 69.49,-68.46 69.89,-68.60 70.29,-68.74 70.72,-68.74 71.14,-68.74 71.55,-68.61 71.95,-68.48 72.29,-68.22 72.63,-67.97 72.87,-67.62 73.11,-67.27 73.23,-66.86 73.34,-66.45 73.32,-66.02 73.30,-65.60 73.14,-65.20 72.99,-64.81 72.72,-64.48 72.44,-64.16 72.44,-64.16 72.44,-64.16 72.04,-61.80 71.63,-59.45 69.78,-57.93 67.93,-56.41 64.78,-53.99 61.62,-51.58 57.91,-48.28 54.20,-44.99 49.98,-41.26 45.76,-37.54 40.96,-33.41 36.17,-29.28 32.32,-25.58 28.47,-21.87 23.66,-17.45 18.85,-13.04 16.28,-10.14 13.70,-7.25 8.48,-2.11 3.25,3.02 2.84,3.37 2.44,3.71 1.95,3.95 1.47,4.19 0.95,4.31 0.43,4.42 -0.10,4.41 -0.63,4.40 -1.15,4.26 -1.67,4.12 -2.14,3.86 -2.61,3.60 -3.00,3.23 -3.39,2.87 -3.69,2.42 -3.98,1.97 -4.16,1.46 -4.34,0.96 -4.39,0.42 -4.44,-0.10 -4.36,-0.63 -4.29,-1.16 -4.09,-1.66 -3.88,-2.15 -3.57,-2.59 -3.25,-3.02 -3.25,-3.02 L -3.25,-3.02 Z"></path></g><g transform="translate(112.66668701171875 10) rotate(0 35.33331298828125 47.33332824707031)" stroke="none"><path fill="#1e1e1e" d="M 2.94,-3.21 Q 2.94,-3.21 5.35,-1.21 7.76,0.77 9.95,3.45 12.15,6.13 14.20,8.99 16.26,11.84 18.04,15.21 19.83,18.58 21.67,22.21 23.52,25.84 25.23,29.06 26.95,32.28 29.09,36.84 31.23,41.40 32.70,44.66 34.17,47.92 36.04,51.22 37.91,54.51 39.81,57.38 41.71,60.25 43.88,63.41 46.05,66.56 48.01,68.89 49.96,71.21 52.31,73.69 54.65,76.18 56.92,78.31 59.20,80.45 61.42,82.22 63.65,84.00 66.05,85.64 68.45,87.28 69.81,89.57 71.17,91.86 71.49,92.15 71.80,92.43 72.01,92.81 72.22,93.18 72.29,93.59 72.37,94.01 72.31,94.43 72.25,94.85 72.06,95.23 71.87,95.61 71.57,95.91 71.26,96.21 70.88,96.40 70.50,96.58 70.08,96.64 69.66,96.69 69.24,96.61 68.82,96.53 68.46,96.32 68.09,96.10 67.80,95.79 67.52,95.47 67.36,95.08 67.19,94.69 67.16,94.26 67.13,93.84 67.23,93.43 67.34,93.02 67.57,92.66 67.80,92.30 68.13,92.04 68.47,91.77 68.87,91.63 69.27,91.49 69.69,91.48 70.12,91.47 70.52,91.59 70.93,91.72 71.27,91.97 71.61,92.22 71.86,92.57 72.11,92.92 72.23,93.32 72.35,93.73 72.34,94.15 72.32,94.58 72.17,94.98 72.02,95.37 71.75,95.70 71.49,96.03 71.13,96.26 70.77,96.49 70.35,96.59 69.94,96.69 69.52,96.65 69.09,96.61 68.71,96.44 68.32,96.27 68.32,96.27 68.32,96.27 65.52,95.87 62.72,95.46 60.06,93.56 57.40,91.66 54.93,89.60 52.45,87.54 49.99,85.17 47.53,82.79 45.04,80.08 42.55,77.36 40.35,74.67 38.15,71.97 35.95,68.73 33.75,65.49 31.68,62.34 29.61,59.19 27.56,55.51 25.50,51.84 24.06,48.63 22.61,45.43 20.59,41.08 18.57,36.74 16.81,33.44 15.06,30.13 13.24,26.54 11.42,22.95 9.99,20.14 8.57,17.33 6.67,14.67 4.78,12.01 3.11,9.83 1.43,7.65 -0.75,5.43 -2.94,3.21 -3.28,2.81 -3.63,2.41 -3.86,1.94 -4.10,1.47 -4.22,0.96 -4.33,0.45 -4.32,-0.07 -4.31,-0.59 -4.18,-1.10 -4.05,-1.61 -3.79,-2.07 -3.54,-2.53 -3.19,-2.92 -2.83,-3.31 -2.39,-3.60 -1.96,-3.89 -1.46,-4.07 -0.97,-4.25 -0.44,-4.30 0.07,-4.36 0.59,-4.28 1.11,-4.21 1.60,-4.02 2.09,-3.82 2.51,-3.52 2.94,-3.21 2.94,-3.21 L 2.94,-3.21 Z"></path></g><g transform="translate(188 120.66665649414062) rotate(0 0.00005000000000165983 0.00005000000000165983)" stroke="none"><path fill="#1e1e1e" d="M 4.25,-4.24 Q 4.25,-4.24 4.81,-3.46 5.38,-2.67 5.67,-1.74 5.95,-0.81 5.92,0.16 5.90,1.13 5.56,2.04 5.23,2.95 4.62,3.71 4.01,4.47 3.19,4.99 2.37,5.52 1.43,5.75 0.48,5.99 -0.48,5.91 -1.45,5.83 -2.34,5.44 -3.23,5.06 -3.96,4.41 -4.68,3.76 -5.16,2.91 -5.64,2.07 -5.82,1.11 -6.00,0.16 -5.87,-0.80 -5.74,-1.76 -5.31,-2.63 -4.88,-3.50 -4.19,-4.19 -3.50,-4.88 -2.63,-5.31 -1.76,-5.74 -0.79,-5.87 0.16,-6.00 1.11,-5.82 2.07,-5.64 2.92,-5.16 3.76,-4.68 4.41,-3.95 5.06,-3.23 5.44,-2.34 5.83,-1.44 5.91,-0.47 5.99,0.48 5.75,1.43 5.52,2.37 4.99,3.19 4.47,4.01 3.71,4.62 2.95,5.23 2.04,5.56 1.13,5.90 0.15,5.92 -0.81,5.95 -1.74,5.66 -2.67,5.38 -3.46,4.81 -4.25,4.24 -4.25,4.24 -4.24,4.25 -4.69,3.67 -5.14,3.10 -5.44,2.44 -5.73,1.78 -5.86,1.07 -5.99,0.36 -5.95,-0.36 -5.91,-1.08 -5.69,-1.77 -5.48,-2.46 -5.10,-3.08 -4.73,-3.70 -4.21,-4.21 -3.70,-4.73 -3.08,-5.10 -2.46,-5.48 -1.77,-5.69 -1.08,-5.91 -0.35,-5.95 0.36,-5.99 1.07,-5.86 1.78,-5.73 2.44,-5.44 3.10,-5.14 3.68,-4.69 4.25,-4.24 4.25,-4.24 L 4.25,-4.24 Z"></path></g><g transform="translate(183.33331298828125 110) rotate(0 3.333343505859375 55)" stroke="none"><path fill="#1e1e1e" d="M 3.59,-0.17 Q 3.59,-0.17 5.88,31.22 8.17,62.61 9.03,76.13 9.88,89.64 9.17,95.44 8.46,101.23 8.43,101.66 8.41,102.08 8.24,102.47 8.08,102.87 7.80,103.19 7.52,103.51 7.16,103.72 6.79,103.93 6.37,104.02 5.96,104.11 5.53,104.05 5.11,104.00 4.73,103.82 4.35,103.64 4.04,103.34 3.74,103.04 3.54,102.67 3.35,102.29 3.29,101.87 3.22,101.45 3.30,101.03 3.37,100.61 3.57,100.24 3.78,99.86 4.09,99.58 4.40,99.29 4.79,99.11 5.18,98.94 5.60,98.90 6.03,98.86 6.44,98.96 6.85,99.05 7.21,99.28 7.58,99.50 7.85,99.83 8.12,100.16 8.27,100.55 8.42,100.95 8.44,101.38 8.46,101.80 8.34,102.21 8.22,102.62 7.97,102.96 7.73,103.31 7.39,103.57 7.05,103.82 6.64,103.95 6.24,104.08 5.81,104.07 5.39,104.07 4.99,103.93 4.59,103.79 4.25,103.52 3.92,103.26 3.68,102.91 3.45,102.55 3.34,102.14 3.23,101.73 3.23,101.73 3.23,101.73 1.42,96.01 -0.38,90.28 -1.21,76.70 -2.04,63.11 -2.81,31.64 -3.59,0.17 -3.56,-0.25 -3.53,-0.69 -3.40,-1.10 -3.26,-1.51 -3.03,-1.88 -2.80,-2.25 -2.49,-2.55 -2.18,-2.86 -1.81,-3.08 -1.43,-3.30 -1.02,-3.42 -0.60,-3.54 -0.17,-3.57 0.25,-3.59 0.68,-3.50 1.11,-3.42 1.50,-3.24 1.89,-3.05 2.23,-2.78 2.57,-2.51 2.83,-2.17 3.10,-1.82 3.27,-1.42 3.45,-1.03 3.52,-0.60 3.59,-0.17 3.59,-0.17 L 3.59,-0.17 Z"></path></g><g transform="translate(161.33331298828125 126) rotate(0 4 46)" stroke="none"><path fill="#1e1e1e" d="M 3.81,-1.27 Q 3.81,-1.27 5.16,2.11 6.51,5.49 7.32,9.13 8.13,12.76 8.69,17.47 9.24,22.18 9.47,25.33 9.70,28.49 10.03,33.85 10.35,39.20 10.68,42.93 11.00,46.66 11.16,50.88 11.32,55.10 11.38,59.19 11.45,63.28 11.49,66.55 11.52,69.82 11.54,72.74 11.57,75.67 11.78,77.86 11.98,80.06 12.10,82.53 12.21,85.00 11.32,87.92 10.43,90.84 10.45,91.26 10.48,91.69 10.36,92.10 10.25,92.51 10.01,92.86 9.77,93.21 9.43,93.47 9.09,93.72 8.69,93.86 8.29,93.99 7.86,93.99 7.44,93.99 7.04,93.86 6.63,93.72 6.29,93.46 5.96,93.21 5.72,92.85 5.48,92.50 5.37,92.09 5.25,91.68 5.28,91.26 5.30,90.84 5.46,90.44 5.62,90.05 5.89,89.72 6.17,89.40 6.53,89.18 6.90,88.96 7.31,88.87 7.73,88.78 8.15,88.83 8.57,88.87 8.96,89.05 9.34,89.23 9.65,89.52 9.96,89.82 10.16,90.19 10.36,90.57 10.42,90.99 10.49,91.41 10.42,91.82 10.35,92.24 10.15,92.62 9.95,92.99 9.65,93.29 9.34,93.58 8.95,93.76 8.56,93.93 8.14,93.98 7.72,94.03 7.30,93.93 6.89,93.84 6.53,93.62 6.16,93.40 5.89,93.08 5.61,92.75 5.46,92.36 5.30,91.96 5.30,91.96 5.30,91.96 3.75,88.66 2.20,85.35 2.15,83.11 2.09,80.87 1.91,78.29 1.72,75.70 1.73,72.80 1.73,69.89 1.72,66.65 1.71,63.42 1.66,59.42 1.62,55.41 1.51,51.43 1.40,47.44 1.11,43.57 0.81,39.70 0.58,34.41 0.35,29.11 0.17,26.14 -0.00,23.16 -0.41,18.86 -0.81,14.56 -1.36,11.43 -1.91,8.30 -2.86,4.78 -3.81,1.27 -3.91,0.79 -4.00,0.32 -3.98,-0.16 -3.96,-0.64 -3.83,-1.11 -3.69,-1.57 -3.45,-1.99 -3.21,-2.41 -2.87,-2.76 -2.54,-3.11 -2.13,-3.37 -1.72,-3.63 -1.26,-3.78 -0.80,-3.93 -0.31,-3.97 0.16,-4.01 0.64,-3.93 1.12,-3.86 1.56,-3.67 2.01,-3.48 2.39,-3.18 2.78,-2.89 3.09,-2.52 3.39,-2.14 3.60,-1.70 3.81,-1.27 3.81,-1.27 L 3.81,-1.27 Z"></path></g><g transform="translate(188 232.66665649414062) rotate(0 -38.33331298828125 40.66668701171875)" stroke="none"><path fill="#1e1e1e" d="M 2.84,2.13 Q 2.84,2.13 1.32,4.58 -0.20,7.03 -1.72,8.99 -3.23,10.95 -4.65,12.75 -6.06,14.55 -8.44,17.30 -10.81,20.05 -13.15,22.73 -15.48,25.40 -18.05,28.13 -20.63,30.86 -22.96,33.64 -25.30,36.41 -28.27,39.78 -31.23,43.14 -33.98,46.43 -36.73,49.71 -39.69,52.94 -42.65,56.18 -46.12,60.18 -49.59,64.19 -52.50,67.16 -55.42,70.13 -59.77,73.88 -64.13,77.63 -65.84,79.24 -67.55,80.84 -69.33,82.34 -71.10,83.83 -73.40,84.29 -75.70,84.76 -76.10,84.91 -76.50,85.06 -76.92,85.07 -77.35,85.09 -77.76,84.97 -78.16,84.84 -78.51,84.60 -78.86,84.35 -79.11,84.01 -79.36,83.67 -79.49,83.26 -79.62,82.86 -79.61,82.43 -79.60,82.01 -79.46,81.61 -79.31,81.21 -79.05,80.87 -78.79,80.54 -78.43,80.31 -78.07,80.08 -77.66,79.97 -77.25,79.87 -76.83,79.90 -76.40,79.93 -76.01,80.09 -75.62,80.26 -75.30,80.54 -74.98,80.82 -74.77,81.19 -74.56,81.55 -74.47,81.97 -74.39,82.39 -74.44,82.81 -74.50,83.23 -74.68,83.61 -74.87,84.00 -75.17,84.30 -75.47,84.60 -75.84,84.79 -76.22,84.99 -76.64,85.05 -77.06,85.11 -77.48,85.03 -77.90,84.95 -78.27,84.75 -78.64,84.54 -78.93,84.23 -79.22,83.91 -79.39,83.53 -79.56,83.14 -79.60,82.71 -79.64,82.29 -79.54,81.88 -79.44,81.46 -79.21,81.10 -78.99,80.74 -78.66,80.47 -78.33,80.21 -78.33,80.21 -78.33,80.21 -77.77,78.50 -77.21,76.79 -75.47,75.48 -73.74,74.16 -71.81,72.40 -69.88,70.64 -65.69,67.35 -61.50,64.07 -58.72,61.33 -55.94,58.59 -52.35,54.56 -48.75,50.53 -45.89,47.48 -43.03,44.44 -40.21,41.06 -37.39,37.69 -34.47,34.41 -31.56,31.13 -29.06,28.18 -26.57,25.24 -24.10,22.64 -21.63,20.03 -19.30,17.37 -16.98,14.70 -14.71,12.10 -12.45,9.51 -11.05,7.74 -9.66,5.98 -8.17,4.07 -6.69,2.16 -4.77,0.01 -2.84,-2.13 -2.55,-2.44 -2.25,-2.75 -1.89,-2.98 -1.52,-3.21 -1.12,-3.34 -0.71,-3.48 -0.28,-3.52 0.14,-3.55 0.56,-3.48 0.98,-3.41 1.38,-3.25 1.77,-3.08 2.11,-2.82 2.46,-2.56 2.73,-2.23 3.00,-1.90 3.19,-1.51 3.37,-1.12 3.46,-0.70 3.54,-0.28 3.52,0.13 3.51,0.56 3.39,0.97 3.27,1.39 3.06,1.76 2.84,2.13 2.84,2.13 L 2.84,2.13 Z"></path></g><g transform="translate(14 211.33334350585938) rotate(0 42.333343505859375 52.666656494140625)" stroke="none"><path fill="#1e1e1e" d="M 3.14,-2.24 Q 3.14,-2.24 6.28,1.59 9.41,5.42 11.65,8.44 13.88,11.45 15.62,13.91 17.35,16.37 19.85,20.13 22.36,23.88 24.64,26.85 26.93,29.83 29.10,32.69 31.28,35.56 33.40,38.56 35.52,41.56 38.06,44.83 40.60,48.09 43.14,50.92 45.68,53.76 47.78,56.19 49.89,58.63 52.48,61.55 55.06,64.46 58.22,67.75 61.37,71.04 64.59,74.12 67.80,77.20 70.42,79.96 73.05,82.73 75.20,85.33 77.36,87.94 79.07,90.24 80.79,92.53 82.29,94.67 83.80,96.80 85.00,99.95 86.21,103.10 86.43,103.47 86.66,103.83 86.75,104.24 86.84,104.66 86.80,105.08 86.76,105.50 86.58,105.89 86.41,106.28 86.12,106.59 85.83,106.90 85.45,107.10 85.08,107.30 84.66,107.37 84.24,107.44 83.82,107.38 83.40,107.31 83.02,107.12 82.65,106.92 82.35,106.61 82.06,106.31 81.88,105.92 81.70,105.54 81.65,105.11 81.60,104.69 81.69,104.28 81.78,103.86 81.99,103.50 82.21,103.13 82.53,102.85 82.85,102.58 83.25,102.42 83.64,102.26 84.06,102.23 84.49,102.20 84.90,102.32 85.31,102.43 85.66,102.66 86.02,102.90 86.28,103.24 86.53,103.57 86.67,103.97 86.81,104.38 86.81,104.80 86.82,105.23 86.68,105.63 86.55,106.03 86.30,106.37 86.04,106.71 85.69,106.95 85.34,107.19 84.93,107.31 84.52,107.43 84.10,107.41 83.67,107.39 83.28,107.23 82.88,107.08 82.56,106.80 82.23,106.53 82.23,106.53 82.23,106.53 79.05,104.44 75.88,102.35 74.46,100.31 73.04,98.27 71.49,96.16 69.93,94.05 68.01,91.69 66.08,89.34 63.62,86.74 61.15,84.13 57.79,80.91 54.44,77.69 51.16,74.26 47.88,70.84 45.25,67.87 42.62,64.91 40.56,62.53 38.51,60.15 35.77,57.06 33.02,53.97 30.35,50.52 27.69,47.07 25.67,44.20 23.66,41.32 21.50,38.47 19.35,35.62 16.88,32.36 14.41,29.10 12.02,25.41 9.63,21.71 7.98,19.28 6.33,16.85 4.20,13.76 2.08,10.67 -0.53,6.45 -3.14,2.24 -3.37,1.83 -3.59,1.42 -3.71,0.97 -3.83,0.52 -3.83,0.06 -3.84,-0.40 -3.74,-0.85 -3.63,-1.31 -3.42,-1.72 -3.21,-2.14 -2.91,-2.49 -2.61,-2.85 -2.23,-3.12 -1.85,-3.39 -1.41,-3.56 -0.98,-3.74 -0.52,-3.80 -0.06,-3.86 0.40,-3.81 0.86,-3.77 1.30,-3.61 1.74,-3.45 2.13,-3.19 2.51,-2.93 2.83,-2.59 3.14,-2.24 3.14,-2.24 L 3.14,-2.24 Z"></path></g><g transform="translate(43.33331298828125 204) rotate(0 24.333343505859375 38.00001525878906)" stroke="none"><path fill="#1e1e1e" d="M 3.65,-1.73 Q 3.65,-1.73 5.64,1.78 7.63,5.29 9.33,8.21 11.03,11.13 14.86,16.78 18.69,22.43 21.05,26.16 23.42,29.89 25.89,33.49 28.37,37.08 30.78,40.54 33.19,44.01 35.70,47.32 38.20,50.64 40.44,53.61 42.68,56.59 44.71,59.74 46.73,62.88 48.13,65.14 49.53,67.39 50.05,70.73 50.56,74.08 50.72,74.47 50.89,74.86 50.92,75.29 50.95,75.71 50.84,76.12 50.73,76.53 50.50,76.89 50.27,77.24 49.93,77.51 49.60,77.77 49.20,77.91 48.80,78.05 48.38,78.06 47.95,78.07 47.55,77.94 47.14,77.81 46.80,77.56 46.46,77.31 46.21,76.96 45.97,76.61 45.85,76.20 45.73,75.79 45.74,75.37 45.76,74.95 45.91,74.55 46.06,74.15 46.33,73.82 46.60,73.49 46.96,73.27 47.32,73.04 47.73,72.95 48.15,72.85 48.57,72.89 48.99,72.93 49.38,73.10 49.77,73.27 50.08,73.56 50.40,73.84 50.60,74.22 50.81,74.59 50.88,75.01 50.96,75.43 50.90,75.85 50.84,76.27 50.64,76.65 50.45,77.02 50.15,77.32 49.84,77.62 49.46,77.80 49.08,77.99 48.65,78.04 48.23,78.09 47.82,78.01 47.40,77.92 47.03,77.71 46.66,77.50 46.38,77.18 46.10,76.86 46.10,76.86 46.10,76.86 43.57,74.77 41.03,72.68 39.66,70.47 38.29,68.27 36.49,65.43 34.69,62.60 32.46,59.62 30.22,56.65 27.61,53.17 25.00,49.70 22.58,46.20 20.16,42.71 17.59,38.95 15.03,35.19 12.74,31.54 10.45,27.90 7.72,23.68 5.00,19.45 3.81,17.60 2.62,15.75 0.94,12.51 -0.73,9.26 -2.19,5.49 -3.65,1.73 -3.80,1.26 -3.96,0.80 -3.99,0.32 -4.03,-0.16 -3.95,-0.64 -3.88,-1.12 -3.68,-1.57 -3.49,-2.02 -3.20,-2.41 -2.91,-2.80 -2.53,-3.10 -2.15,-3.41 -1.71,-3.62 -1.27,-3.83 -0.79,-3.93 -0.32,-4.02 0.16,-4.00 0.65,-3.98 1.11,-3.85 1.58,-3.71 2.00,-3.47 2.43,-3.22 2.78,-2.89 3.13,-2.55 3.39,-2.14 3.65,-1.72 3.65,-1.72 L 3.65,-1.73 Z"></path></g><g transform="translate(191.33331298828125 228) rotate(0 27.333343505859375 2.3333282470703125)" stroke="none"><path fill="#1e1e1e" d="M 0.56,-4.13 Q 0.56,-4.13 4.81,-3.82 9.06,-3.51 13.54,-3.35 18.02,-3.18 20.55,-3.10 23.08,-3.02 28.31,-2.72 33.53,-2.41 37.29,-2.10 41.05,-1.79 44.54,-1.49 48.04,-1.19 50.88,0.14 53.73,1.48 54.16,1.48 54.58,1.49 54.98,1.63 55.38,1.78 55.72,2.04 56.05,2.30 56.28,2.66 56.51,3.01 56.62,3.42 56.73,3.84 56.70,4.26 56.67,4.68 56.50,5.08 56.34,5.47 56.06,5.79 55.78,6.11 55.41,6.32 55.04,6.53 54.63,6.62 54.21,6.70 53.79,6.65 53.37,6.59 52.98,6.41 52.60,6.22 52.30,5.93 51.99,5.63 51.80,5.25 51.61,4.87 51.55,4.45 51.49,4.03 51.56,3.61 51.64,3.19 51.84,2.82 52.05,2.45 52.36,2.16 52.68,1.88 53.06,1.71 53.45,1.53 53.88,1.49 54.30,1.46 54.71,1.55 55.13,1.65 55.49,1.88 55.85,2.10 56.12,2.43 56.39,2.76 56.54,3.16 56.69,3.55 56.70,3.98 56.72,4.40 56.60,4.81 56.48,5.22 56.23,5.57 55.99,5.91 55.65,6.17 55.30,6.42 54.90,6.55 54.49,6.67 54.49,6.67 54.49,6.67 50.73,8.08 46.96,9.48 43.48,9.09 39.99,8.69 36.33,8.25 32.68,7.82 27.68,7.27 22.68,6.72 20.10,6.59 17.51,6.46 12.65,6.14 7.79,5.81 3.61,4.97 -0.56,4.13 -1.05,4.00 -1.53,3.87 -1.97,3.63 -2.41,3.39 -2.79,3.05 -3.16,2.71 -3.44,2.30 -3.72,1.88 -3.89,1.41 -4.06,0.93 -4.11,0.43 -4.17,-0.06 -4.10,-0.55 -4.03,-1.05 -3.84,-1.52 -3.66,-1.99 -3.37,-2.40 -3.08,-2.81 -2.69,-3.13 -2.31,-3.46 -1.87,-3.69 -1.42,-3.92 -0.93,-4.03 -0.44,-4.14 0.06,-4.14 0.56,-4.13 0.56,-4.13 L 0.56,-4.13 Z"></path></g><g transform="translate(272.66668701171875 216) rotate(0 1.33331298828125 23.333343505859375)" stroke="none"><path fill="#1e1e1e" d="M 4.50,-1.06 Q 4.50,-1.06 5.63,2.11 6.76,5.29 7.19,9.75 7.62,14.21 7.77,16.57 7.92,18.93 8.04,24.45 8.15,29.97 8.20,33.81 8.24,37.64 8.27,40.23 8.30,42.82 6.79,44.66 5.29,46.51 5.22,46.93 5.15,47.35 4.95,47.72 4.76,48.10 4.45,48.39 4.14,48.69 3.76,48.87 3.37,49.05 2.95,49.09 2.53,49.14 2.11,49.05 1.69,48.96 1.33,48.74 0.97,48.53 0.69,48.20 0.41,47.88 0.25,47.49 0.10,47.09 0.07,46.67 0.05,46.24 0.16,45.83 0.27,45.42 0.51,45.07 0.75,44.72 1.08,44.46 1.42,44.20 1.82,44.06 2.23,43.93 2.65,43.93 3.08,43.92 3.48,44.06 3.88,44.19 4.22,44.45 4.56,44.71 4.80,45.06 5.04,45.41 5.15,45.82 5.27,46.23 5.25,46.65 5.23,47.07 5.07,47.47 4.91,47.86 4.64,48.19 4.37,48.51 4.00,48.73 3.64,48.96 3.22,49.05 2.81,49.14 2.39,49.10 1.96,49.05 1.58,48.87 1.19,48.70 0.88,48.41 0.57,48.11 0.37,47.74 0.17,47.36 0.10,46.95 0.03,46.53 0.03,46.53 0.03,46.53 -1.48,44.70 -3.00,42.87 -2.99,40.29 -2.98,37.71 -2.99,33.90 -2.99,30.09 -2.99,24.84 -3.00,19.58 -3.12,17.33 -3.25,15.08 -3.47,11.41 -3.69,7.73 -4.10,4.39 -4.50,1.06 -4.57,0.50 -4.63,-0.04 -4.55,-0.60 -4.48,-1.15 -4.28,-1.67 -4.07,-2.19 -3.75,-2.65 -3.43,-3.10 -3.01,-3.47 -2.59,-3.84 -2.09,-4.09 -1.59,-4.34 -1.05,-4.47 -0.50,-4.60 0.04,-4.59 0.60,-4.59 1.14,-4.45 1.68,-4.31 2.18,-4.04 2.67,-3.78 3.08,-3.40 3.50,-3.03 3.81,-2.57 4.12,-2.10 4.31,-1.58 4.51,-1.06 4.50,-1.06 L 4.50,-1.06 Z"></path></g><g transform="translate(274.66668701171875 217.33334350585938) rotate(0 17 26)" stroke="none"><path fill="#1e1e1e" d="M 3.06,-2.35 Q 3.06,-2.35 5.43,-0.21 7.79,1.93 9.60,4.06 11.41,6.18 13.23,9.41 15.05,12.64 16.31,15.02 17.57,17.40 18.98,20.71 20.39,24.01 21.80,26.63 23.22,29.25 24.57,31.49 25.92,33.72 27.35,35.67 28.79,37.61 31.35,40.65 33.90,43.69 34.77,46.80 35.63,49.90 35.87,50.25 36.11,50.60 36.22,51.01 36.33,51.42 36.31,51.85 36.29,52.27 36.13,52.67 35.98,53.06 35.70,53.38 35.43,53.71 35.06,53.93 34.70,54.15 34.28,54.24 33.87,54.33 33.45,54.29 33.02,54.24 32.64,54.06 32.25,53.88 31.94,53.59 31.63,53.30 31.43,52.93 31.23,52.55 31.17,52.13 31.10,51.71 31.16,51.29 31.23,50.87 31.43,50.50 31.63,50.12 31.94,49.83 32.25,49.54 32.63,49.36 33.02,49.18 33.44,49.13 33.86,49.09 34.28,49.18 34.69,49.27 35.06,49.49 35.42,49.70 35.70,50.03 35.97,50.35 36.13,50.75 36.29,51.14 36.31,51.57 36.33,51.99 36.22,52.40 36.11,52.81 35.87,53.16 35.63,53.51 35.29,53.77 34.96,54.03 34.55,54.16 34.15,54.30 33.73,54.30 33.30,54.30 32.90,54.17 32.49,54.03 32.16,53.77 31.82,53.52 31.82,53.52 31.82,53.52 29.48,53.18 27.15,52.84 25.09,50.28 23.03,47.73 21.48,45.87 19.93,44.01 18.26,41.64 16.58,39.28 15.12,36.79 13.65,34.29 12.06,31.20 10.47,28.11 9.31,25.19 8.14,22.27 6.96,19.92 5.77,17.58 4.56,15.09 3.34,12.61 1.60,10.32 -0.13,8.03 -1.59,5.19 -3.06,2.35 -3.30,1.95 -3.54,1.55 -3.67,1.10 -3.81,0.66 -3.83,0.19 -3.85,-0.26 -3.77,-0.72 -3.68,-1.18 -3.48,-1.60 -3.29,-2.03 -3.00,-2.39 -2.71,-2.75 -2.34,-3.04 -1.97,-3.32 -1.54,-3.51 -1.11,-3.70 -0.65,-3.78 -0.19,-3.86 0.26,-3.83 0.73,-3.79 1.17,-3.65 1.61,-3.51 2.01,-3.26 2.41,-3.02 2.73,-2.69 3.06,-2.35 3.06,-2.35 L 3.06,-2.35 Z"></path></g><g transform="translate(308 214.66665649414062) rotate(0 0 29.66668701171875)" stroke="none"><path fill="#1e1e1e" d="M 3.90,-0.16 Q 3.90,-0.16 4.56,4.41 5.23,8.99 5.35,13.69 5.46,18.39 5.52,22.10 5.58,25.82 5.43,31.33 5.29,36.84 5.03,41.13 4.77,45.42 4.67,48.67 4.57,51.92 3.55,54.85 2.53,57.79 2.48,58.21 2.44,58.63 2.27,59.02 2.10,59.41 1.81,59.72 1.52,60.03 1.15,60.24 0.77,60.44 0.35,60.51 -0.05,60.59 -0.48,60.52 -0.90,60.46 -1.27,60.26 -1.65,60.07 -1.95,59.76 -2.24,59.46 -2.42,59.07 -2.61,58.69 -2.66,58.27 -2.71,57.85 -2.62,57.43 -2.54,57.01 -2.32,56.65 -2.11,56.28 -1.79,56.00 -1.46,55.72 -1.07,55.56 -0.68,55.40 -0.26,55.37 0.16,55.34 0.57,55.45 0.98,55.56 1.33,55.80 1.69,56.03 1.95,56.37 2.21,56.70 2.35,57.10 2.49,57.50 2.50,57.93 2.50,58.35 2.37,58.76 2.24,59.16 1.99,59.50 1.73,59.85 1.38,60.09 1.03,60.33 0.63,60.45 0.22,60.57 -0.20,60.55 -0.62,60.53 -1.02,60.38 -1.41,60.22 -1.74,59.95 -2.07,59.68 -2.29,59.32 -2.51,58.96 -2.61,58.54 -2.71,58.13 -2.71,58.13 -2.71,58.13 -4.14,54.85 -5.57,51.58 -5.44,48.18 -5.31,44.78 -5.04,40.64 -4.76,36.51 -4.56,31.21 -4.35,25.91 -4.36,22.23 -4.37,18.56 -4.42,13.98 -4.46,9.40 -4.18,4.78 -3.90,0.16 -3.86,-0.30 -3.83,-0.77 -3.68,-1.22 -3.53,-1.67 -3.28,-2.07 -3.03,-2.46 -2.69,-2.79 -2.35,-3.12 -1.94,-3.35 -1.53,-3.59 -1.08,-3.72 -0.63,-3.85 -0.16,-3.87 0.30,-3.89 0.77,-3.80 1.23,-3.71 1.65,-3.50 2.08,-3.30 2.45,-3.00 2.81,-2.71 3.09,-2.33 3.38,-1.95 3.56,-1.52 3.75,-1.09 3.83,-0.62 3.90,-0.16 3.90,-0.16 L 3.90,-0.16 Z"></path></g><g transform="translate(362 234) rotate(0 -8.333343505859375 13.333328247070312)" stroke="none"><path fill="#1e1e1e" d="M -4.04,0.36 Q -4.04,0.36 -4.67,-1.69 -5.31,-3.76 -7.17,-4.79 -9.03,-5.82 -12.52,-3.80 -16.01,-1.79 -18.95,1.68 -21.88,5.15 -23.80,8.62 -25.72,12.08 -25.98,14.96 -26.25,17.83 -25.75,20.67 -25.24,23.52 -23.29,26.14 -21.33,28.77 -17.29,30.25 -13.26,31.74 -11.09,31.25 -8.92,30.76 -6.75,29.48 -4.57,28.20 -2.51,26.37 -0.44,24.54 1.63,22.02 3.72,19.51 5.69,17.17 7.66,14.83 8.78,12.90 9.90,10.97 9.27,8.61 8.65,6.24 5.62,5.13 2.59,4.02 1.26,2.04 -0.06,0.06 -0.47,-0.05 -0.87,-0.18 -1.22,-0.43 -1.56,-0.68 -1.81,-1.02 -2.06,-1.37 -2.18,-1.78 -2.30,-2.18 -2.29,-2.61 -2.28,-3.03 -2.13,-3.43 -1.98,-3.83 -1.71,-4.16 -1.45,-4.49 -1.09,-4.72 -0.73,-4.94 -0.31,-5.04 0.09,-5.15 0.51,-5.11 0.93,-5.07 1.32,-4.90 1.71,-4.73 2.03,-4.45 2.34,-4.16 2.55,-3.79 2.76,-3.42 2.84,-3.01 2.92,-2.59 2.86,-2.17 2.80,-1.75 2.61,-1.37 2.42,-0.99 2.12,-0.69 1.82,-0.39 1.43,-0.20 1.05,-0.01 0.63,0.03 0.21,0.09 -0.20,0.01 -0.61,-0.06 -0.98,-0.28 -1.35,-0.49 -1.63,-0.80 -1.92,-1.12 -2.08,-1.51 -2.25,-1.90 -2.28,-2.33 -2.32,-2.75 -2.21,-3.16 -2.11,-3.57 -1.88,-3.93 -1.65,-4.29 -1.31,-4.55 -0.98,-4.82 -0.58,-4.96 -0.18,-5.11 0.23,-5.12 0.66,-5.13 0.66,-5.13 0.66,-5.13 3.69,-6.49 6.73,-7.86 10.21,-6.49 13.69,-5.12 16.30,-2.99 18.90,-0.87 20.59,2.28 22.28,5.45 22.37,8.18 22.47,10.90 21.50,14.09 20.54,17.28 18.80,20.04 17.06,22.80 15.01,25.17 12.97,27.55 10.12,30.72 7.26,33.89 4.02,36.42 0.78,38.94 -3.21,40.70 -7.21,42.46 -11.45,42.79 -15.69,43.13 -20.30,41.73 -24.90,40.33 -27.88,37.65 -30.87,34.98 -33.57,30.22 -36.27,25.46 -36.80,20.85 -37.33,16.25 -36.41,11.51 -35.49,6.78 -32.82,2.26 -30.15,-2.24 -25.91,-6.72 -21.66,-11.21 -19.14,-12.64 -16.62,-14.06 -12.80,-15.33 -8.99,-16.60 -5.81,-16.20 -2.62,-15.79 -0.52,-14.25 1.57,-12.70 3.05,-8.68 4.54,-4.66 4.29,-2.51 4.04,-0.36 4.03,0.12 4.01,0.61 3.88,1.08 3.75,1.55 3.51,1.98 3.27,2.40 2.93,2.76 2.60,3.12 2.18,3.38 1.77,3.65 1.31,3.81 0.85,3.97 0.36,4.01 -0.12,4.06 -0.60,3.98 -1.09,3.91 -1.54,3.72 -1.99,3.53 -2.38,3.24 -2.78,2.95 -3.09,2.58 -3.41,2.20 -3.62,1.76 -3.83,1.32 -3.94,0.84 -4.04,0.36 -4.04,0.36 L -4.04,0.36 Z"></path></g><g transform="translate(384 276.6666564941406) rotate(0 12.333343505859375 11.666671752929688)" stroke="none"><path fill="#1e1e1e" d="M -3.80,-2.92 Q -3.80,-2.92 -2.12,-5.62 -0.44,-8.33 3.12,-11.24 6.70,-14.14 9.22,-15.72 11.75,-17.29 14.02,-18.13 16.29,-18.98 20.32,-18.22 24.36,-17.47 26.43,-14.63 28.51,-11.79 27.68,-6.88 26.86,-1.98 24.81,1.59 22.77,5.16 19.73,9.18 16.70,13.19 13.24,17.08 9.78,20.96 6.74,24.73 3.71,28.50 1.76,31.31 -0.18,34.11 3.12,32.64 6.44,31.16 9.42,30.72 12.39,30.27 16.02,29.70 19.65,29.12 22.46,28.35 25.26,27.59 28.03,28.38 30.80,29.17 31.22,29.10 31.64,29.04 32.06,29.12 32.47,29.19 32.85,29.40 33.22,29.60 33.51,29.92 33.79,30.23 33.96,30.62 34.14,31.01 34.18,31.43 34.21,31.85 34.12,32.27 34.02,32.68 33.79,33.04 33.57,33.40 33.24,33.67 32.91,33.94 32.51,34.09 32.12,34.24 31.69,34.26 31.27,34.27 30.86,34.15 30.45,34.03 30.10,33.79 29.76,33.54 29.50,33.20 29.25,32.86 29.12,32.45 29.00,32.05 29.00,31.62 29.01,31.20 29.15,30.80 29.29,30.40 29.56,30.06 29.82,29.73 30.18,29.50 30.53,29.27 30.94,29.16 31.35,29.05 31.78,29.08 32.20,29.11 32.59,29.28 32.99,29.44 33.31,29.72 33.63,30.00 33.84,30.37 34.05,30.74 34.14,31.15 34.22,31.57 34.17,31.99 34.11,32.41 33.93,32.80 33.74,33.18 33.45,33.48 33.15,33.79 32.77,33.98 32.39,34.17 32.39,34.17 32.39,34.17 30.32,36.50 28.25,38.83 24.86,39.71 21.47,40.59 17.75,41.17 14.04,41.75 10.54,42.23 7.05,42.72 2.74,42.83 -1.56,42.94 -4.90,41.60 -8.24,40.26 -9.67,37.32 -11.10,34.38 -10.35,31.05 -9.60,27.71 -7.34,24.54 -5.09,21.37 -1.85,17.39 1.38,13.42 4.57,9.89 7.76,6.37 10.45,2.88 13.15,-0.60 15.32,-4.24 17.50,-7.88 15.46,-6.65 13.42,-5.42 10.76,-3.52 8.11,-1.63 5.95,0.64 3.80,2.92 3.39,3.33 2.99,3.74 2.49,4.05 2.00,4.35 1.45,4.53 0.90,4.70 0.32,4.74 -0.24,4.78 -0.81,4.69 -1.38,4.59 -1.91,4.35 -2.44,4.12 -2.90,3.77 -3.36,3.42 -3.72,2.96 -4.08,2.51 -4.32,1.99 -4.56,1.46 -4.67,0.89 -4.78,0.33 -4.75,-0.24 -4.72,-0.82 -4.55,-1.37 -4.39,-1.92 -4.09,-2.42 -3.80,-2.92 -3.80,-2.92 L -3.80,-2.92 Z"></path></g></svg>