<svg version="1.1" xmlns="http://www.w3.org/2000/svg" viewBox="0 0 310.6666259765625 304.00001525878906" width="310.6666259765625" height="304.00001525878906" class="excalidraw-svg"><!-- svg-source:excalidraw --><metadata></metadata><defs><style class="style-fonts">
      </style></defs><rect x="0" y="0" width="310.6666259765625" height="304.00001525878906" fill="#ffffff"></rect><g transform="translate(110.6666259765625 122.00001525878906) rotate(0 -26.33331298828125 26.333328247070312)" stroke="none"><path fill="#1e1e1e" d="M 2.76,2.76 Q 2.76,2.76 -11.98,18.29 -26.73,33.83 -34.01,39.42 -41.29,45.01 -41.64,45.25 -41.98,45.50 -42.39,45.63 -42.79,45.75 -43.22,45.74 -43.64,45.73 -44.04,45.58 -44.44,45.44 -44.77,45.17 -45.10,44.90 -45.33,44.54 -45.56,44.19 -45.66,43.77 -45.77,43.36 -45.73,42.94 -45.70,42.51 -45.53,42.12 -45.36,41.73 -45.08,41.42 -44.79,41.10 -44.42,40.89 -44.05,40.68 -43.64,40.60 -43.22,40.52 -42.80,40.58 -42.38,40.64 -42.00,40.83 -41.62,41.02 -41.32,41.32 -41.02,41.62 -40.83,42.00 -40.64,42.38 -40.58,42.80 -40.52,43.22 -40.60,43.64 -40.68,44.05 -40.89,44.42 -41.10,44.79 -41.42,45.08 -41.73,45.36 -42.12,45.53 -42.52,45.70 -42.94,45.73 -43.36,45.77 -43.77,45.66 -44.19,45.56 -44.55,45.33 -44.90,45.10 -45.17,44.77 -45.44,44.44 -45.58,44.04 -45.73,43.64 -45.74,43.22 -45.75,42.79 -45.63,42.39 -45.50,41.98 -45.25,41.64 -45.01,41.29 -45.01,41.29 -45.01,41.29 -39.42,34.01 -33.83,26.73 -18.29,11.98 -2.76,-2.76 -2.39,-3.05 -2.02,-3.34 -1.59,-3.53 -1.16,-3.73 -0.69,-3.81 -0.23,-3.90 0.23,-3.87 0.70,-3.84 1.15,-3.70 1.60,-3.56 2.00,-3.32 2.41,-3.07 2.74,-2.74 3.07,-2.41 3.32,-2.00 3.56,-1.60 3.70,-1.15 3.84,-0.70 3.87,-0.23 3.90,0.23 3.81,0.69 3.73,1.16 3.53,1.59 3.34,2.02 3.05,2.39 2.76,2.76 2.76,2.76 L 2.76,2.76 Z"></path></g><g transform="translate(52 182.00001525878906) rotate(0 2.33331298828125 28.666656494140625)" stroke="none"><path fill="#1e1e1e" d="M 3.48,-0.63 Q 3.48,-0.63 4.18,1.41 4.89,3.46 5.08,6.73 5.27,9.99 5.53,12.93 5.78,15.86 6.08,20.24 6.38,24.62 6.69,28.95 7.01,33.28 7.33,37.01 7.65,40.74 7.80,44.75 7.94,48.75 8.19,51.65 8.44,54.55 7.83,56.72 7.21,58.88 7.18,59.31 7.14,59.73 6.97,60.12 6.80,60.51 6.51,60.82 6.22,61.14 5.85,61.34 5.48,61.55 5.06,61.62 4.64,61.70 4.22,61.64 3.80,61.58 3.42,61.39 3.04,61.19 2.75,60.89 2.45,60.59 2.26,60.21 2.08,59.82 2.02,59.40 1.97,58.98 2.05,58.56 2.14,58.15 2.35,57.78 2.56,57.41 2.88,57.13 3.20,56.85 3.59,56.68 3.98,56.52 4.41,56.49 4.83,56.46 5.24,56.56 5.65,56.67 6.01,56.90 6.37,57.13 6.63,57.47 6.89,57.80 7.04,58.20 7.18,58.60 7.19,59.03 7.19,59.45 7.07,59.86 6.94,60.26 6.69,60.60 6.44,60.95 6.09,61.19 5.74,61.44 5.33,61.56 4.93,61.68 4.50,61.66 4.08,61.65 3.68,61.50 3.28,61.35 2.95,61.08 2.62,60.81 2.40,60.45 2.17,60.09 2.07,59.68 1.97,59.26 1.97,59.26 1.97,59.26 1.06,57.25 0.14,55.24 -0.10,52.15 -0.36,49.05 -0.49,45.26 -0.62,41.46 -0.96,37.68 -1.29,33.89 -1.61,29.54 -1.94,25.20 -2.24,20.89 -2.55,16.59 -2.82,13.52 -3.09,10.45 -3.22,7.70 -3.36,4.96 -3.42,2.79 -3.48,0.63 -3.50,0.20 -3.53,-0.21 -3.45,-0.63 -3.37,-1.05 -3.20,-1.44 -3.02,-1.83 -2.76,-2.16 -2.49,-2.50 -2.16,-2.76 -1.82,-3.02 -1.43,-3.20 -1.04,-3.37 -0.62,-3.45 -0.20,-3.53 0.21,-3.50 0.64,-3.47 1.04,-3.35 1.45,-3.22 1.82,-3.00 2.18,-2.78 2.48,-2.47 2.78,-2.17 3.00,-1.81 3.22,-1.44 3.35,-1.03 3.48,-0.63 3.48,-0.63 L 3.48,-0.63 Z"></path></g><g transform="translate(62.6666259765625 246.6666717529297) rotate(0 26 23.666671752929688)" stroke="none"><path fill="#1e1e1e" d="M 2.77,-2.66 Q 2.77,-2.66 7.80,2.09 12.82,6.84 16.00,9.80 19.18,12.77 23.12,16.51 27.05,20.26 30.20,23.14 33.35,26.02 36.35,28.50 39.36,30.99 42.37,33.37 45.37,35.76 47.74,37.49 50.10,39.22 51.43,41.89 52.76,44.57 53.04,44.88 53.32,45.20 53.49,45.59 53.65,45.98 53.69,46.41 53.72,46.83 53.62,47.24 53.51,47.65 53.28,48.01 53.05,48.37 52.72,48.63 52.39,48.90 51.99,49.04 51.59,49.19 51.16,49.20 50.74,49.21 50.33,49.08 49.93,48.95 49.58,48.70 49.24,48.45 48.99,48.11 48.75,47.76 48.62,47.36 48.50,46.95 48.51,46.52 48.53,46.10 48.67,45.70 48.82,45.30 49.09,44.97 49.36,44.64 49.72,44.42 50.08,44.19 50.49,44.09 50.90,43.99 51.33,44.02 51.75,44.06 52.14,44.23 52.53,44.40 52.84,44.68 53.16,44.97 53.37,45.34 53.57,45.71 53.65,46.13 53.73,46.55 53.67,46.97 53.61,47.39 53.42,47.77 53.23,48.15 52.93,48.45 52.63,48.75 52.24,48.93 51.86,49.12 51.44,49.18 51.02,49.23 50.60,49.15 50.19,49.07 49.82,48.86 49.45,48.64 49.45,48.65 49.45,48.65 46.73,48.04 44.02,47.43 41.50,45.55 38.99,43.67 35.94,41.16 32.88,38.65 29.75,35.94 26.61,33.23 23.42,30.20 20.23,27.17 16.48,23.31 12.72,19.46 9.53,16.27 6.33,13.08 1.78,7.87 -2.77,2.66 -3.05,2.29 -3.33,1.92 -3.51,1.49 -3.69,1.07 -3.76,0.61 -3.84,0.15 -3.80,-0.30 -3.76,-0.76 -3.62,-1.20 -3.47,-1.64 -3.22,-2.03 -2.98,-2.43 -2.64,-2.75 -2.31,-3.07 -1.91,-3.30 -1.50,-3.53 -1.06,-3.66 -0.61,-3.79 -0.15,-3.81 0.30,-3.83 0.76,-3.74 1.21,-3.64 1.63,-3.45 2.05,-3.25 2.41,-2.95 2.77,-2.66 2.77,-2.66 L 2.77,-2.66 Z"></path></g><g transform="translate(132 291.3333282470703) rotate(0 20 -24)" stroke="none"><path fill="#1e1e1e" d="M -2.84,-2.49 Q -2.84,-2.49 -0.41,-5.78 2.00,-9.07 4.23,-11.75 6.46,-14.43 11.49,-20.54 16.52,-26.64 19.80,-30.68 23.08,-34.71 26.53,-39.10 29.99,-43.49 33.41,-45.83 36.83,-48.16 37.14,-48.46 37.45,-48.75 37.83,-48.93 38.22,-49.11 38.64,-49.16 39.06,-49.21 39.48,-49.12 39.89,-49.03 40.26,-48.81 40.62,-48.59 40.90,-48.27 41.18,-47.95 41.33,-47.55 41.49,-47.16 41.52,-46.73 41.54,-46.31 41.43,-45.90 41.32,-45.49 41.08,-45.14 40.85,-44.78 40.51,-44.53 40.17,-44.27 39.77,-44.13 39.37,-43.99 38.94,-43.99 38.52,-43.99 38.11,-44.12 37.71,-44.26 37.37,-44.51 37.03,-44.77 36.79,-45.12 36.55,-45.47 36.44,-45.88 36.32,-46.29 36.34,-46.71 36.36,-47.14 36.52,-47.53 36.67,-47.93 36.95,-48.25 37.22,-48.58 37.59,-48.80 37.95,-49.02 38.36,-49.11 38.78,-49.20 39.20,-49.16 39.62,-49.12 40.01,-48.94 40.40,-48.76 40.71,-48.47 41.02,-48.18 41.22,-47.81 41.42,-47.43 41.49,-47.01 41.56,-46.59 41.49,-46.17 41.42,-45.75 41.23,-45.38 41.03,-45.00 41.03,-45.00 41.03,-45.00 39.63,-40.93 38.22,-36.86 34.61,-32.48 30.99,-28.09 27.56,-24.11 24.13,-20.12 18.78,-14.26 13.42,-8.41 11.07,-5.80 8.72,-3.19 5.78,-0.35 2.84,2.49 2.50,2.79 2.16,3.10 1.76,3.31 1.36,3.53 0.92,3.64 0.47,3.75 0.02,3.75 -0.43,3.75 -0.87,3.65 -1.32,3.54 -1.72,3.33 -2.13,3.12 -2.47,2.82 -2.81,2.52 -3.07,2.15 -3.34,1.77 -3.50,1.35 -3.66,0.92 -3.72,0.47 -3.78,0.02 -3.73,-0.43 -3.67,-0.88 -3.52,-1.31 -3.36,-1.73 -3.10,-2.11 -2.84,-2.49 -2.84,-2.49 L -2.84,-2.49 Z"></path></g><g transform="translate(189.33331298828125 176.00001525878906) rotate(0 1.333343505859375 31.666656494140625)" stroke="none"><path fill="#1e1e1e" d="M 3.78,-0.43 Q 3.78,-0.43 4.92,6.23 6.07,12.89 6.43,17.56 6.79,22.24 6.81,30.11 6.83,37.99 6.65,44.39 6.48,50.79 6.40,54.42 6.33,58.05 5.17,59.58 4.01,61.10 3.93,61.52 3.85,61.93 3.64,62.31 3.44,62.68 3.12,62.96 2.80,63.24 2.41,63.41 2.02,63.58 1.60,63.62 1.18,63.65 0.77,63.55 0.35,63.45 -0.00,63.22 -0.35,62.99 -0.62,62.66 -0.89,62.33 -1.04,61.93 -1.18,61.53 -1.20,61.11 -1.21,60.68 -1.08,60.28 -0.96,59.87 -0.71,59.53 -0.47,59.18 -0.12,58.93 0.21,58.68 0.62,58.56 1.03,58.43 1.45,58.44 1.88,58.45 2.27,58.60 2.67,58.75 3.01,59.01 3.34,59.28 3.57,59.63 3.80,59.99 3.90,60.40 4.00,60.82 3.97,61.24 3.94,61.66 3.77,62.05 3.60,62.44 3.32,62.76 3.04,63.08 2.67,63.29 2.30,63.50 1.88,63.58 1.46,63.66 1.04,63.60 0.62,63.55 0.24,63.36 -0.13,63.17 -0.43,62.87 -0.73,62.57 -0.92,62.19 -1.11,61.81 -1.17,61.39 -1.23,60.97 -1.23,60.97 -1.23,60.97 -2.31,59.39 -3.39,57.81 -3.28,54.14 -3.18,50.46 -2.92,44.19 -2.67,37.92 -2.55,30.41 -2.42,22.89 -2.72,18.41 -3.01,13.93 -3.39,7.18 -3.78,0.43 -3.77,-0.02 -3.77,-0.48 -3.66,-0.92 -3.54,-1.37 -3.33,-1.77 -3.11,-2.18 -2.80,-2.52 -2.50,-2.86 -2.12,-3.12 -1.74,-3.38 -1.31,-3.54 -0.88,-3.70 -0.42,-3.75 0.02,-3.80 0.48,-3.74 0.93,-3.68 1.36,-3.52 1.79,-3.35 2.16,-3.09 2.54,-2.83 2.84,-2.48 3.14,-2.13 3.35,-1.73 3.56,-1.32 3.67,-0.87 3.78,-0.43 3.78,-0.43 L 3.78,-0.43 Z"></path></g><g transform="translate(126.6666259765625 117.33332824707031) rotate(0 31.333343505859375 22.666671752929688)" stroke="none"><path fill="#1e1e1e" d="M 2.73,-3.48 Q 2.73,-3.48 5.47,-1.44 8.20,0.59 11.02,2.53 13.83,4.47 15.75,5.98 17.66,7.49 20.28,9.34 22.89,11.19 27.95,14.82 33.01,18.45 38.07,22.31 43.14,26.17 47.45,29.01 51.77,31.85 55.53,34.18 59.30,36.52 61.15,39.45 63.00,42.39 63.31,42.68 63.62,42.97 63.82,43.34 64.02,43.72 64.09,44.14 64.15,44.56 64.09,44.98 64.02,45.40 63.82,45.77 63.62,46.15 63.31,46.44 63.00,46.73 62.62,46.91 62.23,47.09 61.81,47.14 61.39,47.18 60.97,47.09 60.56,47.00 60.19,46.78 59.83,46.57 59.55,46.24 59.28,45.92 59.12,45.52 58.96,45.13 58.94,44.70 58.92,44.28 59.03,43.87 59.14,43.46 59.38,43.11 59.62,42.76 59.96,42.50 60.30,42.24 60.70,42.11 61.10,41.97 61.53,41.97 61.95,41.97 62.35,42.10 62.76,42.24 63.09,42.50 63.43,42.75 63.67,43.10 63.91,43.46 64.02,43.87 64.14,44.28 64.12,44.70 64.09,45.12 63.94,45.52 63.78,45.91 63.51,46.24 63.23,46.56 62.87,46.78 62.50,47.00 62.09,47.09 61.67,47.18 61.25,47.14 60.83,47.09 60.44,46.92 60.06,46.74 60.06,46.74 60.06,46.74 56.77,46.19 53.47,45.65 49.65,43.14 45.82,40.64 41.30,37.50 36.77,34.36 31.86,30.47 26.95,26.58 22.06,22.80 17.18,19.02 14.44,16.96 11.69,14.90 10.02,13.52 8.35,12.14 5.44,9.98 2.52,7.83 -0.10,5.65 -2.73,3.48 -3.11,3.10 -3.48,2.72 -3.76,2.26 -4.04,1.81 -4.19,1.30 -4.35,0.79 -4.38,0.25 -4.41,-0.27 -4.32,-0.79 -4.22,-1.32 -4.00,-1.80 -3.78,-2.29 -3.45,-2.71 -3.12,-3.13 -2.70,-3.46 -2.28,-3.79 -1.79,-4.01 -1.31,-4.22 -0.78,-4.32 -0.26,-4.42 0.27,-4.38 0.80,-4.35 1.31,-4.19 1.82,-4.03 2.27,-3.75 2.73,-3.48 2.73,-3.48 L 2.73,-3.48 Z"></path></g><g transform="translate(108 78.66667175292969) rotate(0 3 15)" stroke="none"><path fill="#1e1e1e" d="M 4.20,-1.16 Q 4.20,-1.16 5.48,2.19 6.77,5.55 7.44,8.94 8.10,12.34 8.77,16.03 9.44,19.71 8.92,25.56 8.41,31.41 8.39,31.84 8.37,32.26 8.22,32.66 8.07,33.06 7.80,33.38 7.53,33.71 7.16,33.93 6.80,34.16 6.39,34.25 5.97,34.35 5.55,34.31 5.13,34.27 4.74,34.09 4.35,33.92 4.04,33.63 3.73,33.34 3.53,32.97 3.32,32.59 3.25,32.18 3.18,31.76 3.24,31.34 3.30,30.92 3.50,30.54 3.69,30.16 4.00,29.87 4.30,29.57 4.69,29.39 5.07,29.20 5.49,29.15 5.91,29.10 6.33,29.19 6.75,29.28 7.11,29.49 7.48,29.71 7.76,30.03 8.04,30.35 8.20,30.74 8.36,31.13 8.39,31.56 8.42,31.98 8.31,32.39 8.20,32.80 7.96,33.16 7.73,33.51 7.39,33.77 7.06,34.03 6.66,34.17 6.26,34.31 5.83,34.32 5.41,34.32 5.00,34.19 4.60,34.06 4.26,33.81 3.92,33.55 3.67,33.21 3.43,32.86 3.31,32.45 3.19,32.04 3.19,32.04 3.19,32.04 1.26,26.76 -0.65,21.47 -1.26,17.84 -1.87,14.21 -2.40,11.23 -2.94,8.24 -3.57,4.70 -4.20,1.16 -4.28,0.64 -4.35,0.12 -4.31,-0.39 -4.26,-0.91 -4.09,-1.41 -3.91,-1.91 -3.63,-2.35 -3.34,-2.79 -2.96,-3.15 -2.58,-3.51 -2.12,-3.77 -1.66,-4.03 -1.15,-4.17 -0.65,-4.31 -0.12,-4.32 0.39,-4.34 0.91,-4.23 1.42,-4.12 1.89,-3.89 2.37,-3.65 2.77,-3.32 3.17,-2.98 3.48,-2.56 3.80,-2.13 4.00,-1.65 4.20,-1.16 4.20,-1.16 L 4.20,-1.16 Z"></path></g><g transform="translate(110 26.666671752929688) rotate(0 -4.66668701171875 18.666664123535156)" stroke="none"><path fill="#1e1e1e" d="M -3.52,2.35 Q -3.52,2.35 -3.90,1.83 -4.28,1.32 -5.99,5.50 -7.70,9.69 -8.70,13.06 -9.70,16.43 -9.26,22.29 -8.81,28.15 -7.64,30.65 -6.46,33.16 -3.62,33.57 -0.79,33.98 1.88,32.60 4.56,31.22 4.88,30.94 5.20,30.66 5.60,30.50 5.99,30.33 6.41,30.31 6.84,30.28 7.25,30.39 7.66,30.50 8.01,30.73 8.37,30.96 8.63,31.30 8.89,31.63 9.03,32.03 9.17,32.44 9.18,32.86 9.18,33.29 9.05,33.69 8.92,34.09 8.67,34.44 8.41,34.78 8.07,35.02 7.72,35.26 7.31,35.38 6.90,35.50 6.48,35.48 6.05,35.46 5.65,35.31 5.26,35.16 4.93,34.89 4.60,34.62 4.38,34.25 4.16,33.89 4.06,33.48 3.96,33.07 4.00,32.64 4.05,32.22 4.22,31.83 4.39,31.44 4.68,31.13 4.97,30.82 5.34,30.62 5.72,30.41 6.14,30.34 6.55,30.27 6.97,30.33 7.39,30.39 7.77,30.59 8.15,30.78 8.45,31.09 8.74,31.39 8.92,31.78 9.11,32.16 9.16,32.58 9.21,33.00 9.12,33.42 9.04,33.84 8.82,34.20 8.61,34.57 8.61,34.57 8.61,34.57 7.30,38.02 5.99,41.48 2.84,42.92 -0.30,44.36 -4.28,43.97 -8.26,43.57 -11.84,40.96 -15.42,38.36 -17.31,34.23 -19.21,30.10 -20.08,23.94 -20.95,17.78 -20.35,15.45 -19.75,13.12 -18.13,8.53 -16.50,3.95 -14.35,0.85 -12.19,-2.23 -8.55,-4.71 -4.91,-7.20 -1.84,-6.56 1.21,-5.92 2.37,-4.13 3.52,-2.35 3.75,-1.89 3.98,-1.43 4.10,-0.94 4.21,-0.44 4.20,0.06 4.19,0.57 4.06,1.07 3.93,1.56 3.69,2.01 3.44,2.46 3.10,2.84 2.75,3.21 2.33,3.50 1.90,3.78 1.42,3.95 0.94,4.13 0.43,4.18 -0.06,4.23 -0.57,4.16 -1.08,4.09 -1.55,3.91 -2.03,3.72 -2.44,3.42 -2.86,3.12 -3.19,2.73 -3.52,2.35 -3.52,2.35 L -3.52,2.35 Z"></path></g><g transform="translate(10 30.666671752929688) rotate(0 0.666656494140625 19)" stroke="none"><path fill="#1e1e1e" d="M 4.10,-0.14 Q 4.10,-0.14 5.40,10.74 6.69,21.64 5.20,26.34 3.71,31.04 3.66,31.46 3.60,31.88 3.42,32.26 3.23,32.65 2.93,32.95 2.64,33.25 2.26,33.44 1.88,33.64 1.46,33.70 1.04,33.76 0.62,33.68 0.20,33.60 -0.16,33.40 -0.53,33.19 -0.82,32.88 -1.10,32.56 -1.28,32.17 -1.45,31.79 -1.48,31.36 -1.52,30.94 -1.42,30.53 -1.32,30.11 -1.10,29.75 -0.87,29.39 -0.54,29.12 -0.21,28.85 0.17,28.71 0.57,28.56 1.00,28.54 1.42,28.53 1.83,28.65 2.24,28.77 2.58,29.01 2.93,29.26 3.18,29.60 3.43,29.95 3.56,30.35 3.69,30.76 3.68,31.18 3.67,31.61 3.53,32.01 3.38,32.41 3.12,32.74 2.86,33.07 2.50,33.30 2.14,33.54 1.73,33.64 1.32,33.75 0.90,33.72 0.47,33.69 0.08,33.52 -0.30,33.36 -0.62,33.07 -0.94,32.79 -1.15,32.42 -1.36,32.06 -1.44,31.64 -1.53,31.22 -1.53,31.22 -1.53,31.22 -3.34,26.64 -5.16,22.05 -4.63,11.10 -4.10,0.14 -4.06,-0.34 -4.02,-0.84 -3.86,-1.31 -3.70,-1.78 -3.43,-2.19 -3.16,-2.61 -2.81,-2.95 -2.45,-3.29 -2.02,-3.54 -1.59,-3.78 -1.11,-3.92 -0.63,-4.06 -0.14,-4.07 0.35,-4.09 0.83,-3.99 1.32,-3.89 1.76,-3.67 2.21,-3.46 2.59,-3.14 2.97,-2.83 3.27,-2.43 3.57,-2.03 3.76,-1.57 3.95,-1.12 4.03,-0.63 4.10,-0.14 4.10,-0.14 L 4.10,-0.14 Z"></path></g><g transform="translate(16.6666259765625 47.33332824707031) rotate(0 7 -0.3333282470703125)" stroke="none"><path fill="#1e1e1e" d="M -0.21,-4.44 Q -0.21,-4.44 3.85,-3.72 7.92,-3.00 8.34,-2.95 8.76,-2.90 9.15,-2.72 9.53,-2.54 9.84,-2.25 10.15,-1.95 10.34,-1.58 10.54,-1.20 10.61,-0.78 10.67,-0.36 10.60,0.05 10.53,0.47 10.33,0.84 10.13,1.22 9.81,1.51 9.50,1.80 9.12,1.97 8.73,2.15 8.31,2.19 7.89,2.23 7.47,2.14 7.06,2.05 6.69,1.82 6.33,1.60 6.06,1.28 5.79,0.95 5.63,0.55 5.48,0.16 5.46,-0.26 5.44,-0.68 5.55,-1.09 5.67,-1.50 5.91,-1.85 6.15,-2.20 6.49,-2.45 6.83,-2.71 7.23,-2.84 7.64,-2.97 8.06,-2.97 8.49,-2.97 8.89,-2.83 9.29,-2.69 9.63,-2.43 9.96,-2.17 10.20,-1.82 10.44,-1.46 10.55,-1.05 10.66,-0.64 10.63,-0.22 10.61,0.19 10.45,0.59 10.29,0.98 10.01,1.30 9.73,1.63 9.37,1.84 9.00,2.06 8.58,2.15 8.17,2.24 8.17,2.24 8.17,2.24 4.19,3.34 0.21,4.44 -0.32,4.40 -0.85,4.36 -1.36,4.19 -1.87,4.03 -2.33,3.74 -2.78,3.46 -3.16,3.08 -3.53,2.69 -3.80,2.23 -4.07,1.77 -4.23,1.25 -4.38,0.74 -4.41,0.20 -4.43,-0.32 -4.33,-0.85 -4.22,-1.37 -4.00,-1.86 -3.77,-2.34 -3.44,-2.76 -3.10,-3.18 -2.67,-3.51 -2.25,-3.83 -1.75,-4.04 -1.26,-4.26 -0.73,-4.35 -0.21,-4.44 -0.21,-4.44 L -0.21,-4.44 Z"></path></g><g transform="translate(34 26.666671752929688) rotate(0 0 19.333328247070312)" stroke="none"><path fill="#1e1e1e" d="M 4.23,0 Q 4.23,0 4.93,11.11 5.64,22.23 4.13,26.95 2.62,31.68 2.55,32.10 2.48,32.52 2.29,32.89 2.09,33.27 1.78,33.56 1.47,33.85 1.08,34.03 0.70,34.21 0.28,34.25 -0.14,34.30 -0.55,34.21 -0.97,34.12 -1.33,33.90 -1.70,33.68 -1.97,33.36 -2.25,33.03 -2.40,32.64 -2.56,32.24 -2.58,31.82 -2.61,31.39 -2.49,30.98 -2.38,30.57 -2.14,30.22 -1.90,29.87 -1.56,29.61 -1.23,29.36 -0.82,29.22 -0.42,29.09 0.00,29.09 0.42,29.09 0.82,29.22 1.23,29.36 1.56,29.61 1.90,29.87 2.14,30.22 2.38,30.58 2.49,30.98 2.61,31.39 2.58,31.82 2.56,32.24 2.40,32.64 2.25,33.03 1.97,33.36 1.69,33.68 1.33,33.90 0.97,34.12 0.55,34.21 0.14,34.30 -0.28,34.25 -0.70,34.21 -1.08,34.03 -1.47,33.85 -1.78,33.56 -2.09,33.27 -2.29,32.89 -2.48,32.52 -2.55,32.10 -2.62,31.68 -2.62,31.68 -2.62,31.68 -4.13,26.95 -5.64,22.23 -4.93,11.11 -4.23,0 -4.17,-0.50 -4.11,-1.01 -3.93,-1.49 -3.75,-1.97 -3.46,-2.39 -3.17,-2.81 -2.79,-3.15 -2.40,-3.48 -1.95,-3.72 -1.50,-3.96 -1.00,-4.08 -0.51,-4.20 0.00,-4.20 0.51,-4.20 1.00,-4.08 1.50,-3.96 1.95,-3.72 2.40,-3.48 2.79,-3.14 3.17,-2.81 3.46,-2.39 3.75,-1.96 3.93,-1.49 4.11,-1.01 4.17,-0.50 4.23,0.00 4.23,0.00 L 4.23,0 Z"></path></g><g transform="translate(54 50.66667175292969) rotate(0 11.33331298828125 -1.3333358764648438)" stroke="none"><path fill="#1e1e1e" d="M -1.00,-4.52 Q -1.00,-4.52 2.36,-5.68 5.73,-6.85 8.99,-7.09 12.25,-7.34 14.71,-7.24 17.17,-7.14 19.69,-5.55 22.22,-3.97 22.64,-3.89 23.06,-3.81 23.42,-3.60 23.79,-3.39 24.08,-3.07 24.36,-2.75 24.53,-2.36 24.69,-1.97 24.73,-1.55 24.76,-1.12 24.66,-0.71 24.55,-0.30 24.32,0.05 24.09,0.41 23.76,0.67 23.43,0.94 23.03,1.08 22.63,1.23 22.21,1.24 21.78,1.25 21.38,1.12 20.97,1.00 20.63,0.75 20.28,0.50 20.03,0.15 19.79,-0.18 19.66,-0.59 19.54,-1.00 19.55,-1.42 19.57,-1.85 19.71,-2.24 19.86,-2.64 20.13,-2.97 20.39,-3.30 20.75,-3.53 21.11,-3.76 21.52,-3.86 21.94,-3.96 22.36,-3.93 22.78,-3.89 23.17,-3.72 23.56,-3.55 23.88,-3.27 24.20,-2.98 24.40,-2.61 24.61,-2.24 24.69,-1.83 24.77,-1.41 24.71,-0.99 24.65,-0.57 24.46,-0.19 24.27,0.18 23.97,0.48 23.67,0.78 23.29,0.97 22.91,1.16 22.49,1.22 22.07,1.27 22.07,1.27 22.07,1.27 17.42,2.50 12.77,3.73 10.42,3.76 8.06,3.78 4.53,4.15 1.00,4.52 0.44,4.57 -0.10,4.63 -0.65,4.55 -1.21,4.47 -1.72,4.26 -2.24,4.05 -2.69,3.72 -3.15,3.39 -3.51,2.96 -3.87,2.54 -4.12,2.04 -4.36,1.54 -4.48,0.99 -4.61,0.45 -4.59,-0.10 -4.58,-0.66 -4.43,-1.20 -4.29,-1.74 -4.02,-2.23 -3.75,-2.71 -3.37,-3.12 -2.99,-3.53 -2.52,-3.84 -2.05,-4.15 -1.53,-4.33 -1.00,-4.52 -1.00,-4.52 L -1.00,-4.52 Z"></path></g><g transform="translate(129.33331298828125 37.33332824707031) rotate(0 18.333343505859375 -3)" stroke="none"><path fill="#1e1e1e" d="M -0.94,-4.49 Q -0.94,-4.49 2.60,-5.67 6.16,-6.86 8.93,-7.65 11.71,-8.45 14.85,-9.10 17.99,-9.76 22.90,-10.37 27.80,-10.98 31.71,-9.75 35.61,-8.52 36.03,-8.50 36.46,-8.48 36.85,-8.32 37.25,-8.16 37.57,-7.89 37.89,-7.61 38.11,-7.25 38.33,-6.88 38.42,-6.47 38.51,-6.05 38.47,-5.63 38.42,-5.21 38.24,-4.82 38.06,-4.43 37.77,-4.13 37.48,-3.82 37.10,-3.62 36.72,-3.42 36.30,-3.35 35.88,-3.29 35.47,-3.35 35.05,-3.42 34.67,-3.62 34.30,-3.82 34.00,-4.13 33.71,-4.44 33.53,-4.83 33.36,-5.21 33.31,-5.64 33.27,-6.06 33.36,-6.47 33.45,-6.89 33.67,-7.25 33.89,-7.62 34.21,-7.89 34.54,-8.16 34.93,-8.32 35.33,-8.48 35.75,-8.50 36.18,-8.52 36.59,-8.41 37.00,-8.29 37.35,-8.06 37.70,-7.82 37.95,-7.48 38.21,-7.14 38.35,-6.74 38.48,-6.33 38.48,-5.91 38.48,-5.48 38.34,-5.08 38.21,-4.68 37.95,-4.34 37.69,-4.00 37.34,-3.76 36.99,-3.53 36.58,-3.41 36.17,-3.30 36.17,-3.30 36.17,-3.30 34.75,-1.38 33.33,0.52 31.16,0.83 28.99,1.14 24.46,1.51 19.94,1.89 17.17,2.22 14.41,2.54 11.40,3.17 8.40,3.79 4.67,4.14 0.94,4.49 0.39,4.54 -0.15,4.59 -0.70,4.50 -1.25,4.41 -1.76,4.20 -2.27,3.99 -2.71,3.66 -3.16,3.33 -3.51,2.90 -3.86,2.47 -4.10,1.97 -4.34,1.48 -4.46,0.93 -4.57,0.39 -4.55,-0.15 -4.53,-0.70 -4.38,-1.24 -4.23,-1.77 -3.96,-2.25 -3.68,-2.73 -3.30,-3.13 -2.92,-3.54 -2.46,-3.83 -1.99,-4.13 -1.47,-4.31 -0.94,-4.49 -0.94,-4.49 L -0.94,-4.49 Z"></path></g><g transform="translate(141.33331298828125 51.33332824707031) rotate(0 13 -2.3333282470703125)" stroke="none"><path fill="#1e1e1e" d="M -0.69,-4.86 Q -0.69,-4.86 3.29,-5.71 7.27,-6.56 9.43,-7.00 11.58,-7.44 13.98,-8.03 16.38,-8.63 18.68,-9.09 20.97,-9.56 22.92,-8.35 24.86,-7.14 25.29,-7.14 25.71,-7.14 26.11,-7.00 26.52,-6.86 26.85,-6.61 27.19,-6.35 27.43,-6.00 27.67,-5.65 27.78,-5.24 27.89,-4.83 27.87,-4.40 27.85,-3.98 27.69,-3.58 27.53,-3.19 27.26,-2.87 26.98,-2.54 26.62,-2.32 26.25,-2.10 25.84,-2.01 25.42,-1.92 25.00,-1.97 24.58,-2.02 24.19,-2.20 23.81,-2.37 23.50,-2.67 23.19,-2.96 22.99,-3.34 22.79,-3.71 22.72,-4.13 22.66,-4.55 22.73,-4.97 22.80,-5.39 23.00,-5.76 23.19,-6.14 23.50,-6.43 23.81,-6.72 24.20,-6.90 24.58,-7.08 25.01,-7.12 25.43,-7.17 25.84,-7.08 26.26,-6.98 26.62,-6.76 26.99,-6.55 27.26,-6.22 27.54,-5.90 27.69,-5.50 27.85,-5.11 27.87,-4.68 27.89,-4.26 27.78,-3.85 27.67,-3.44 27.43,-3.09 27.19,-2.74 26.85,-2.48 26.51,-2.22 26.11,-2.09 25.70,-1.95 25.70,-1.95 25.70,-1.95 24.42,-0.22 23.14,1.51 21.00,1.91 18.87,2.31 16.26,2.85 13.65,3.39 11.23,3.83 8.82,4.26 4.75,4.56 0.69,4.86 0.10,4.88 -0.48,4.89 -1.06,4.76 -1.64,4.63 -2.17,4.36 -2.70,4.10 -3.15,3.72 -3.61,3.33 -3.95,2.85 -4.30,2.37 -4.52,1.82 -4.74,1.27 -4.83,0.69 -4.91,0.10 -4.85,-0.48 -4.79,-1.07 -4.60,-1.63 -4.40,-2.19 -4.07,-2.68 -3.74,-3.18 -3.31,-3.58 -2.87,-3.98 -2.35,-4.27 -1.83,-4.56 -1.26,-4.71 -0.69,-4.86 -0.69,-4.86 L -0.69,-4.86 Z"></path></g><g transform="translate(208 19.333328247070312) rotate(0 -9.3333740234375 21.333343505859375)" stroke="none"><path fill="#1e1e1e" d="M -0.70,4.55 Q -0.70,4.55 -3.07,4.30 -5.44,4.04 -7.66,5.14 -9.87,6.25 -11.79,8.39 -13.71,10.54 -15.91,16.67 -18.10,22.79 -17.87,26.55 -17.63,30.31 -16.29,32.96 -14.94,35.61 -11.41,36.93 -7.89,38.25 -4.82,37.10 -1.75,35.95 1.08,35.38 3.92,34.82 4.29,34.61 4.66,34.41 5.08,34.33 5.49,34.25 5.91,34.31 6.34,34.37 6.71,34.57 7.09,34.76 7.39,35.06 7.69,35.36 7.88,35.75 8.06,36.13 8.12,36.55 8.17,36.97 8.09,37.39 8.00,37.80 7.79,38.17 7.58,38.54 7.26,38.82 6.94,39.10 6.55,39.27 6.16,39.43 5.73,39.46 5.31,39.49 4.90,39.39 4.49,39.28 4.13,39.05 3.77,38.82 3.51,38.49 3.25,38.15 3.10,37.75 2.96,37.35 2.95,36.93 2.94,36.50 3.07,36.10 3.20,35.69 3.45,35.35 3.70,35.01 4.05,34.76 4.40,34.52 4.80,34.39 5.21,34.27 5.64,34.29 6.06,34.30 6.46,34.45 6.86,34.60 7.18,34.87 7.51,35.14 7.74,35.50 7.97,35.86 8.06,36.27 8.16,36.69 8.13,37.11 8.09,37.53 7.92,37.92 7.75,38.31 7.46,38.63 7.17,38.94 7.17,38.94 7.17,38.94 4.94,42.38 2.71,45.83 -0.49,47.08 -3.69,48.34 -7.07,48.49 -10.45,48.64 -14.51,47.30 -18.57,45.95 -21.51,43.10 -24.45,40.25 -26.31,35.60 -28.16,30.95 -28.24,25.65 -28.32,20.35 -26.31,13.65 -24.29,6.94 -22.52,5.00 -20.76,3.07 -17.14,0.00 -13.52,-3.06 -9.02,-4.32 -4.51,-5.57 -1.90,-5.06 0.70,-4.55 1.23,-4.40 1.77,-4.25 2.25,-3.98 2.74,-3.71 3.14,-3.32 3.54,-2.94 3.84,-2.48 4.15,-2.01 4.33,-1.48 4.51,-0.96 4.56,-0.40 4.61,0.14 4.52,0.69 4.44,1.24 4.22,1.75 4.01,2.27 3.68,2.72 3.35,3.16 2.92,3.52 2.49,3.87 1.99,4.12 1.49,4.36 0.95,4.47 0.40,4.59 -0.14,4.57 -0.70,4.55 -0.70,4.55 L -0.70,4.55 Z"></path></g><g transform="translate(228 18.666671752929688) rotate(0 2 20.333328247070312)" stroke="none"><path fill="#1e1e1e" d="M 4.79,-0.47 Q 4.79,-0.47 6.25,11.18 7.71,22.85 6.80,27.95 5.89,33.06 5.86,33.48 5.83,33.91 5.67,34.30 5.51,34.69 5.23,35.01 4.95,35.34 4.59,35.55 4.22,35.77 3.80,35.85 3.39,35.94 2.97,35.89 2.54,35.84 2.16,35.66 1.78,35.47 1.47,35.18 1.17,34.88 0.97,34.51 0.77,34.13 0.71,33.71 0.65,33.29 0.72,32.87 0.79,32.45 1.00,32.08 1.20,31.70 1.51,31.42 1.82,31.13 2.21,30.95 2.60,30.78 3.02,30.74 3.44,30.70 3.86,30.79 4.27,30.89 4.63,31.11 4.99,31.33 5.27,31.66 5.54,31.99 5.69,32.38 5.84,32.78 5.86,33.20 5.88,33.63 5.76,34.04 5.64,34.44 5.40,34.79 5.16,35.14 4.82,35.40 4.48,35.65 4.07,35.78 3.67,35.91 3.25,35.91 2.82,35.90 2.42,35.76 2.02,35.62 1.68,35.36 1.35,35.10 1.11,34.75 0.88,34.39 0.77,33.98 0.66,33.57 0.66,33.57 0.66,33.57 -1.22,28.74 -3.11,23.91 -3.95,12.19 -4.79,0.47 -4.77,-0.10 -4.76,-0.68 -4.61,-1.24 -4.46,-1.80 -4.18,-2.31 -3.89,-2.82 -3.50,-3.25 -3.10,-3.67 -2.62,-3.99 -2.13,-4.31 -1.59,-4.50 -1.04,-4.70 -0.46,-4.75 0.10,-4.81 0.68,-4.73 1.25,-4.64 1.79,-4.42 2.33,-4.21 2.80,-3.87 3.27,-3.53 3.64,-3.08 4.02,-2.64 4.28,-2.12 4.54,-1.60 4.66,-1.03 4.79,-0.47 4.79,-0.47 L 4.79,-0.47 Z"></path></g><g transform="translate(234.6666259765625 40.66667175292969) rotate(0 9.333343505859375 10)" stroke="none"><path fill="#1e1e1e" d="M 0.55,-4.61 Q 0.55,-4.61 5.89,-4.20 11.23,-3.78 14.95,-0.14 18.68,3.49 19.93,5.43 21.18,7.38 22.14,10.54 23.09,13.70 22.08,16.16 21.07,18.62 21.09,19.04 21.10,19.47 20.97,19.88 20.84,20.28 20.60,20.63 20.35,20.97 20.00,21.22 19.66,21.46 19.25,21.59 18.84,21.71 18.42,21.70 17.99,21.69 17.59,21.54 17.20,21.39 16.86,21.13 16.53,20.86 16.31,20.50 16.08,20.14 15.98,19.73 15.88,19.32 15.91,18.89 15.95,18.47 16.12,18.08 16.28,17.69 16.57,17.37 16.85,17.06 17.22,16.85 17.59,16.64 18.01,16.56 18.43,16.48 18.85,16.54 19.27,16.60 19.65,16.79 20.03,16.98 20.33,17.28 20.63,17.58 20.82,17.96 21.01,18.34 21.06,18.77 21.12,19.19 21.04,19.60 20.96,20.02 20.75,20.39 20.54,20.76 20.22,21.04 19.90,21.33 19.51,21.49 19.12,21.66 18.70,21.69 18.27,21.73 17.86,21.62 17.45,21.52 17.09,21.29 16.73,21.06 16.47,20.73 16.20,20.40 16.06,20.00 15.91,19.60 15.91,19.60 15.91,19.60 14.14,18.04 12.37,16.48 11.26,13.50 10.16,10.51 9.04,8.30 7.93,6.08 3.69,5.35 -0.55,4.61 -1.09,4.48 -1.64,4.35 -2.14,4.09 -2.63,3.83 -3.05,3.46 -3.47,3.09 -3.79,2.62 -4.11,2.16 -4.31,1.64 -4.51,1.11 -4.58,0.56 -4.65,0.00 -4.58,-0.55 -4.51,-1.10 -4.32,-1.63 -4.12,-2.15 -3.80,-2.61 -3.48,-3.08 -3.06,-3.45 -2.64,-3.82 -2.15,-4.08 -1.65,-4.34 -1.11,-4.48 -0.56,-4.61 -0.00,-4.61 0.55,-4.61 0.55,-4.61 L 0.55,-4.61 Z"></path></g><g transform="translate(251.33331298828125 50.00001525878906) rotate(0 -3.333343505859375 -20.00000762939453)" stroke="none"><path fill="#1e1e1e" d="M -4.15,0 Q -4.15,0 -4.73,-3.25 -5.32,-6.51 -5.35,-9.04 -5.37,-11.56 -6.13,-15.22 -6.89,-18.88 -7.24,-21.11 -7.58,-23.34 -8.48,-27.33 -9.37,-31.32 -9.01,-34.54 -8.65,-37.76 -8.73,-38.18 -8.81,-38.60 -8.74,-39.02 -8.68,-39.44 -8.49,-39.82 -8.30,-40.19 -7.99,-40.49 -7.69,-40.79 -7.31,-40.97 -6.93,-41.16 -6.50,-41.21 -6.08,-41.27 -5.67,-41.18 -5.25,-41.10 -4.88,-40.88 -4.51,-40.67 -4.23,-40.35 -3.95,-40.03 -3.79,-39.64 -3.62,-39.25 -3.59,-38.83 -3.56,-38.40 -3.67,-37.99 -3.78,-37.58 -4.01,-37.22 -4.24,-36.87 -4.58,-36.60 -4.91,-36.34 -5.31,-36.20 -5.71,-36.06 -6.13,-36.05 -6.56,-36.04 -6.96,-36.17 -7.37,-36.30 -7.71,-36.55 -8.05,-36.80 -8.30,-37.15 -8.54,-37.50 -8.66,-37.90 -8.79,-38.31 -8.77,-38.74 -8.75,-39.16 -8.60,-39.56 -8.45,-39.96 -8.18,-40.28 -7.91,-40.61 -7.55,-40.84 -7.19,-41.06 -6.78,-41.16 -6.37,-41.26 -5.94,-41.22 -5.52,-41.18 -5.13,-41.01 -4.74,-40.84 -4.43,-40.55 -4.12,-40.27 -3.91,-39.89 -3.70,-39.52 -3.70,-39.52 -3.70,-39.52 -1.16,-36.60 1.38,-33.67 2.61,-27.27 3.83,-20.86 4.60,-16.23 5.37,-11.60 5.35,-9.05 5.32,-6.51 4.73,-3.25 4.15,0 4.09,0.49 4.03,0.99 3.85,1.46 3.67,1.92 3.39,2.34 3.10,2.75 2.73,3.08 2.35,3.41 1.91,3.64 1.47,3.88 0.98,4.00 0.50,4.12 -0.00,4.12 -0.50,4.12 -0.98,4.00 -1.47,3.88 -1.91,3.64 -2.35,3.41 -2.73,3.08 -3.10,2.75 -3.39,2.34 -3.67,1.92 -3.85,1.46 -4.03,0.99 -4.09,0.49 -4.15,-0.00 -4.15,-0.00 L -4.15,0 Z"></path></g><g transform="translate(270.6666259765625 68.66667175292969) rotate(0 15 11)" stroke="none"><path fill="#1e1e1e" d="M -1.34,-4.71 Q -1.34,-4.71 2.62,-6.06 6.58,-7.41 9.31,-8.17 12.04,-8.94 14.21,-9.35 16.38,-9.75 17.17,-9.72 17.95,-9.69 18.63,-9.71 19.31,-9.73 19.98,-9.59 20.65,-9.44 21.26,-9.15 21.87,-8.85 22.40,-8.41 22.92,-7.97 23.32,-7.42 23.73,-6.88 23.99,-6.25 24.25,-5.62 24.35,-4.94 24.46,-4.27 24.39,-3.59 24.33,-2.91 24.11,-2.26 23.89,-1.62 23.52,-1.05 23.15,-0.47 22.65,-0.01 22.15,0.45 21.56,0.79 20.96,1.12 20.31,1.30 19.65,1.49 21.79,0.49 23.94,-0.50 21.96,3.01 19.98,6.54 18.85,9.90 17.71,13.26 19.17,15.15 20.63,17.04 23.27,18.44 25.90,19.85 27.39,21.28 28.88,22.71 29.30,22.78 29.72,22.84 30.10,23.04 30.47,23.23 30.77,23.54 31.06,23.84 31.25,24.23 31.43,24.61 31.48,25.03 31.53,25.45 31.44,25.87 31.36,26.29 31.14,26.65 30.93,27.02 30.61,27.30 30.28,27.58 29.89,27.74 29.50,27.90 29.07,27.93 28.65,27.95 28.24,27.85 27.83,27.74 27.47,27.50 27.12,27.27 26.86,26.93 26.60,26.60 26.46,26.19 26.32,25.79 26.31,25.37 26.31,24.94 26.44,24.54 26.57,24.13 26.83,23.79 27.08,23.45 27.43,23.21 27.78,22.97 28.19,22.85 28.59,22.73 29.02,22.75 29.44,22.77 29.84,22.92 30.24,23.08 30.56,23.35 30.89,23.62 31.11,23.98 31.34,24.34 31.43,24.76 31.53,25.17 31.49,25.59 31.44,26.02 31.27,26.40 31.10,26.79 30.81,27.10 30.52,27.41 30.14,27.62 29.77,27.82 29.35,27.89 28.93,27.97 28.93,27.97 28.93,27.97 25.48,29.45 22.03,30.94 18.82,29.53 15.61,28.13 13.43,26.09 11.24,24.05 9.40,21.23 7.57,18.41 6.93,15.00 6.30,11.59 7.03,8.29 7.76,5.00 8.96,2.70 10.17,0.40 11.45,-1.28 12.74,-2.98 15.34,-6.33 17.95,-9.69 18.63,-9.71 19.31,-9.73 19.98,-9.59 20.65,-9.45 21.26,-9.15 21.87,-8.85 22.40,-8.41 22.92,-7.97 23.32,-7.43 23.73,-6.88 23.99,-6.25 24.25,-5.62 24.35,-4.94 24.46,-4.27 24.39,-3.59 24.33,-2.91 24.11,-2.26 23.89,-1.62 23.52,-1.05 23.15,-0.47 22.65,-0.01 22.15,0.45 21.56,0.79 20.97,1.12 20.31,1.30 19.65,1.49 17.19,1.55 14.73,1.62 12.12,2.21 9.51,2.81 5.42,3.76 1.34,4.71 0.76,4.80 0.17,4.89 -0.40,4.84 -0.99,4.79 -1.55,4.60 -2.11,4.41 -2.61,4.10 -3.11,3.78 -3.51,3.35 -3.92,2.92 -4.22,2.41 -4.51,1.90 -4.67,1.33 -4.83,0.76 -4.85,0.17 -4.88,-0.41 -4.76,-0.99 -4.64,-1.56 -4.38,-2.10 -4.13,-2.63 -3.75,-3.08 -3.38,-3.54 -2.90,-3.89 -2.43,-4.25 -1.88,-4.48 -1.34,-4.71 -1.34,-4.71 L -1.34,-4.71 Z"></path></g></svg>